<?xml version="1.0" encoding="utf-8" ?> <!DOCTYPE svg PUBLIC "-//W3C//DTD SVG 1.1//EN" "http://www.w3.org/Graphics/SVG/1.1/DTD/svg11.dtd"><svg contentScriptType="text/ecmascript" xmlns:xlink="http://www.w3.org/1999/xlink" zoomAndPan="magnify" contentStyleType="text/css" preserveAspectRatio="xMidYMid meet" width="2516.289306640625" height="1295.8912353515625" viewbox="-16.28919792175293 0 2516.289306640625 1295.8912353515625" version="1.1" xmlns="http://www.w3.org/2000/svg" xmlns:cvjs="http://www.tailormade.com/" stroke-linecap="butt" stroke-linejoin="round" fill-rule="evenodd" ><svg id="floorPlan_svg" style="position: absolute; display: block; overflow: hidden; width: 782px; height: 551.469px; background-color: white;" viewBox="12.41691 -254.650133 1861.791512 1674.04783" xmlns="http://www.w3.org/2000/svg"><g id="main_master_floorPlan_svg"><svg x="0" y="0" width="10000" height="10000" viewBox="0 0 10000 10000"><desc>Created with Snap</desc><defs></defs><!--?xml version="1.0" encoding="utf-8" ?-->
<!-- Generated by AutoXChange V24.07.122c  64-bit from Tailor Made Software -->
<!-- www.tailormade.com and www.cadviewer.com -->

<svg id="tmsSVG1" contentscripttype="text/ecmascript" xmlns:xlink="http://www.w3.org/1999/xlink" zoomAndPan="magnify" contentstyletype="text/css" preserveAspectRatio="xMidYMid meet" width="2500" height="1288.75" viewBox="0 0 2500 1288.75" version="1.1" xmlns="http://www.w3.org/2000/svg" xmlns:cvjs="http://www.tailormade.com/" stroke-linecap="butt" stroke-linejoin="round" fill-rule="evenodd">
<defs>
	<style id="cv_styles" type="text/css">
	    
	   #tmsSVG1 { background-color: white; opacity: 1.}
		:root {
		    --tmsLineWeightScale: 1;
		    --tmsMinLineWidth: 0.6;
		    --tmsCalcMinLineWeight: calc(var(--tmsMinLineWidth)*var(--tmsLineWeightScale));
		    --tmsMinDashLength: 0.6;
		    --tmsHLWidth: 0.6;
		    --tmsNumberOfLayouts: 1;
		    --tmsNumberOfSVGViewports: 0;
         --tmsMinFixedLineWidth: 0.6;
         --tmsCalcFixedLineWidth:  calc(var(--tmsMinFixedLineWidth)*var(--tmsLineWeightScale));
		    --tmsbPostFix: 0;
		}
		.tmsPoints {
		    fill: none;
		    stroke-width: var(--tmsCalcFixedLineWidth);
		    r: calc(var(--tmsCalcFixedLineWidth)/2.0);
		}
		.ZWhl {
		    stroke-width: var(--tmsHLWidth);
		}
		.ZW {
		    stroke-width: var(--tmsCalcMinLineWeight);
		}
		.ZW6 {
		    stroke-width: calc(var(--tmsCalcMinLineWeight)*6);
		}
		.ZW10 {
		    stroke-width: calc(var(--tmsCalcMinLineWeight)*10);
		}
		.ZW20 {
		    stroke-width: calc(var(--tmsCalcMinLineWeight)*20);
		}
		.ZW100 {
		    stroke-width: calc(var(--tmsCalcMinLineWeight)*100);
		}
		.nZW {
		}
		.sLW_0_0{
		    stroke-width: calc(var(--tmsCalcFixedLineWidth)*0.25);
		}
		.sLW_0_2{
		    stroke-width: calc(var(--tmsCalcFixedLineWidth)*0.333333);
		}
		.noStroke {
		    stroke: none;
		}
		.noFill {
		    fill: none;
		}
		.sRGB_7 {
		    stroke: #000;
		    fill: none;
		}
		.fRGB_7 {
		    stroke: none;
		    fill: #000;
		}
		.bRGB_7 {
		    stroke: #000;
		    fill: #000;
		}
		.sRGB_9 {
		    stroke: #C0C0C0;
		    fill: none;
		}
		.fRGB_9 {
		    stroke: none;
		    fill: #C0C0C0;
		}
		.bRGB_9 {
		    stroke: #C0C0C0;
		    fill: #C0C0C0;
		}
		.hyperlinks:hover {
		    stroke-width: 3;
		}
		.hyperlinks:not (:hover) {
		    transition-delay: 1s;
		}
		.hyperimage image{
			opacity: 0;
		}
		.hyperimage:hover image{
			opacity: 1;
		}
		.hyperimage:hover path{
			stroke-width: 3;
		}
		.hyperimage:visited{
			color: red;
		}
	</style>
	</defs>
<metadata>
<text id="cadviewer_Used_Colors" style="stroke-width: 0;">[7,9]</text>
<text id="cadviewer_Initial_Viewport" style="stroke-width: 0;">
	{
		"x": 12.416910,
		"y": -254.650133,
		"width": 1861.791512,
		"height": 1674.047830
	}
</text>
<text id="cadviewer_worldUnits" style="stroke-width: 0;">
{ "globalOrigin": { "x": -0.201633, "y" : -0.143946}, 
						"units": "in",
						"measurementType": "English",
						"lengthType": "Decimal",
						"lengthPrecision": 4,
						"blockUnitsFormat": "Inches",
						"svgToWorldUnits": 0.006574,
						"worldToSVGUnits": 152.107150
}
</text>
<text id="cadviewer_drawingCoordinates" style="stroke-width: 0;">
{ "DWG": 
    { "lowerLeft": { "x": -0.201633, "y" : -0.143946}, 
      "upperRight": { "x": 16.234150, "y" : 8.328707} 
    },
 "SVG": 
    { "lowerLeft": { "x": 0. , "y" : 0. }, 
      "upperRight": { "x": 2500.000000, "y" : 1288.751107} 
    },
 "Drawing Height": 1288.751107
}
</text>
<text id="cadviewer_vqBuilding" style="stroke-width: 0;"></text>
<text id="cadviewer_vqFloor" style="stroke-width: 0;"></text>
<text id="cadviewer_multiPages" style="stroke-width: 0;">
{ "multiPages": 3, 
                   "currentPage":1,
                   "pages" : [
                        { "fileName":"F131bb73a5d85b5be8485aea92e24230d4b011e4f.svgz", "pageName":"ModelSpace"},
                        { "fileName":"F131bb73a5d85b5be8485aea92e24230d4b011e4f_Layout_Sheet1.svgz", "pageName":"Sheet1"},
                        { "fileName":"F131bb73a5d85b5be8485aea92e24230d4b011e4f_Layout_Sheet2.svgz", "pageName":"Sheet2"}
                   ]
}
</text>
</metadata>
<g id="cv_main_drawing">
<g id="layer_0" class="layer_0 bRGB_7" cvjs:layername="0" cvjs:plottable="YES" cvjs:status="ON" visibility="visible" display="inline">
<g id="cvclr_1" fill="none">
<path id="cv_2" class=" ZW" d="M0,0V1288.75H2500V-0H0" style="stroke-linejoin: round;"></path>
<path id="cv_3" class=" ZW" d="M673.75,135.08l-0.01,-0.84l-0.02,-0.84l-0.03,-0.84l-0.04,-0.84l-0.05,-0.84l-0.06,-0.84l-0.07,-0.84l-0.08,-0.84l-0.09,-0.84l-0.1,-0.84l-0.11,-0.83l-0.12,-0.83l-0.13,-0.83l-0.14,-0.83l-0.15,-0.83l-0.16,-0.83l-0.17,-0.82l-0.18,-0.82l-0.19,-0.82l-0.2,-0.82l-0.21,-0.81l-0.22,-0.81l-0.23,-0.81l-0.25,-0.81l-0.26,-0.8l-0.27,-0.8l-0.42,-1.19l-0.44,-1.18l-0.46,-1.18l-0.48,-1.17l-0.51,-1.16l-0.53,-1.15l-0.55,-1.14l-0.57,-1.13l-0.59,-1.12l-0.61,-1.11l-0.63,-1.09l-0.65,-1.08l-0.67,-1.07l-0.69,-1.06l-0.71,-1.04l-0.73,-1.03l-0.75,-1.01l-0.77,-1l-0.79,-0.99l-0.81,-0.97l-0.83,-0.96l-0.84,-0.94l-0.86,-0.92l-0.88,-0.91l-0.9,-0.89l-0.91,-0.87l-0.93,-0.86l-0.94,-0.84l-0.96,-0.82l-0.98,-0.8l-0.99,-0.78l-1.01,-0.76l-1.02,-0.75l-1.03,-0.73l-1.05,-0.71l-1.06,-0.69l-1.07,-0.67l-1.09,-0.65l-1.1,-0.63l-1.11,-0.61l-1.12,-0.58l-1.13,-0.56l-1.14,-0.54l-1.15,-0.52l-1.16,-0.5l-1.17,-0.48l-1.18,-0.45l-1.19,-0.43l-0.8,-0.28l-0.8,-0.27l-0.8,-0.26l-0.81,-0.25l-0.81,-0.23l-0.81,-0.22l-0.81,-0.21l-0.82,-0.2l-0.82,-0.19l-0.82,-0.18l-0.82,-0.17l-0.83,-0.16l-0.83,-0.15l-0.83,-0.14l-0.83,-0.13l-0.83,-0.12l-0.83,-0.11l-0.84,-0.1l-0.84,-0.09l-0.84,-0.08l-0.84,-0.07l-0.84,-0.06l-0.84,-0.05l-0.84,-0.04l-0.84,-0.03l-0.84,-0.02l-0.84,-0.01l-0.84,0.01l-0.84,0.02l-0.84,0.03l-0.84,0.04l-0.84,0.05l-0.84,0.06l-0.84,0.07l-0.84,0.08l-0.84,0.09l-0.84,0.1l-0.83,0.11l-0.83,0.12l-0.83,0.13l-0.83,0.14l-0.83,0.15l-0.83,0.16l-0.82,0.17l-0.82,0.18l-0.82,0.19l-0.82,0.2l-0.81,0.21l-0.81,0.22l-0.81,0.23l-0.81,0.25l-0.8,0.26l-0.8,0.27l-1.19,0.42l-1.18,0.44l-1.18,0.46l-1.17,0.48l-1.16,0.51l-1.15,0.53l-1.14,0.55l-1.13,0.57l-1.12,0.59l-1.11,0.61l-1.09,0.63l-1.08,0.65l-1.07,0.67l-1.06,0.69l-1.04,0.71l-1.03,0.73l-1.01,0.75l-1,0.77l-0.99,0.79l-0.97,0.81l-0.96,0.83l-0.94,0.84l-0.92,0.86l-0.91,0.88l-0.89,0.9l-0.87,0.91l-0.86,0.93l-0.84,0.94l-0.82,0.96l-0.8,0.98l-0.78,0.99l-0.76,1.01l-0.75,1.02l-0.73,1.03l-0.71,1.05l-0.69,1.06l-0.67,1.07l-0.65,1.09l-0.63,1.1l-0.61,1.11l-0.58,1.12l-0.56,1.13l-0.54,1.14l-0.52,1.15l-0.5,1.16l-0.48,1.17l-0.45,1.18l-0.43,1.19l-0.28,0.8l-0.27,0.8l-0.26,0.8l-0.25,0.81l-0.23,0.81l-0.22,0.81l-0.21,0.81l-0.2,0.82l-0.19,0.82l-0.18,0.82l-0.17,0.82l-0.16,0.83l-0.15,0.83l-0.14,0.83l-0.13,0.83l-0.12,0.83l-0.11,0.83l-0.1,0.84l-0.09,0.84l-0.08,0.84l-0.07,0.84l-0.06,0.84l-0.05,0.84l-0.04,0.84l-0.03,0.84l-0.02,0.84l-0.01,0.84l0.01,0.84l0.02,0.84l0.03,0.84l0.04,0.84l0.05,0.84l0.06,0.84l0.07,0.84l0.08,0.84l0.09,0.84l0.1,0.84l0.11,0.83l0.12,0.83l0.13,0.83l0.14,0.83l0.15,0.83l0.16,0.83l0.17,0.82l0.18,0.82l0.19,0.82l0.2,0.82l0.21,0.81l0.22,0.81l0.23,0.81l0.25,0.81l0.26,0.8l0.27,0.8l0.42,1.19l0.44,1.18l0.46,1.18l0.48,1.17l0.51,1.16l0.53,1.15l0.55,1.14l0.57,1.13l0.59,1.12l0.61,1.11l0.63,1.09l0.65,1.08l0.67,1.07l0.69,1.06l0.71,1.04l0.73,1.03l0.75,1.01l0.77,1l0.79,0.99l0.81,0.97l0.83,0.96l0.84,0.94l0.86,0.92l0.88,0.91l0.9,0.89l0.91,0.87l0.93,0.86l0.94,0.84l0.96,0.82l0.98,0.8l0.99,0.78l1.01,0.76l1.02,0.75l1.03,0.73l1.05,0.71l1.06,0.69l1.07,0.67l1.09,0.65l1.1,0.63l1.11,0.61l1.12,0.58l1.13,0.56l1.14,0.54l1.15,0.52l1.16,0.5l1.17,0.48l1.18,0.45l1.19,0.43l0.8,0.28l0.8,0.27l0.8,0.26l0.81,0.25l0.81,0.23l0.81,0.22l0.81,0.21l0.82,0.2l0.82,0.19l0.82,0.18l0.82,0.17l0.83,0.16l0.83,0.15l0.83,0.14l0.83,0.13l0.83,0.12l0.83,0.11l0.84,0.1l0.84,0.09l0.84,0.08l0.84,0.07l0.84,0.06l0.84,0.05l0.84,0.04l0.84,0.03l0.84,0.02l0.84,0.01l0.84,-0.01l0.84,-0.02l0.84,-0.03l0.84,-0.04l0.84,-0.05l0.84,-0.06l0.84,-0.07l0.84,-0.08l0.84,-0.09l0.84,-0.1l0.83,-0.11l0.83,-0.12l0.83,-0.13l0.83,-0.14l0.83,-0.15l0.83,-0.16l0.82,-0.17l0.82,-0.18l0.82,-0.19l0.82,-0.2l0.81,-0.21l0.81,-0.22l0.81,-0.23l0.81,-0.25l0.8,-0.26l0.8,-0.27l1.19,-0.42l1.18,-0.44l1.18,-0.46l1.17,-0.48l1.16,-0.51l1.15,-0.53l1.14,-0.55l1.13,-0.57l1.12,-0.59l1.11,-0.61l1.09,-0.63l1.08,-0.65l1.07,-0.67l1.06,-0.69l1.04,-0.71l1.03,-0.73l1.01,-0.75l1,-0.77l0.99,-0.79l0.97,-0.81l0.96,-0.83l0.94,-0.84l0.92,-0.86l0.91,-0.88l0.89,-0.9l0.87,-0.91l0.86,-0.93l0.84,-0.94l0.82,-0.96l0.8,-0.98l0.78,-0.99l0.76,-1.01l0.75,-1.02l0.73,-1.03l0.71,-1.05l0.69,-1.06l0.67,-1.07l0.65,-1.09l0.63,-1.1l0.61,-1.11l0.58,-1.12l0.56,-1.13l0.54,-1.14l0.52,-1.15l0.5,-1.16l0.48,-1.17l0.45,-1.18l0.43,-1.19l0.28,-0.8l0.27,-0.8l0.26,-0.8l0.25,-0.81l0.23,-0.81l0.22,-0.81l0.21,-0.81l0.2,-0.82l0.19,-0.82l0.18,-0.82l0.17,-0.82l0.16,-0.83l0.15,-0.83l0.14,-0.83l0.13,-0.83l0.12,-0.83l0.11,-0.83l0.1,-0.84l0.09,-0.84l0.08,-0.84l0.07,-0.84l0.06,-0.84l0.05,-0.84l0.04,-0.84l0.03,-0.84l0.02,-0.84l0.01,-0.84M1232.98,294.53l3.48,-9.28l34.99,-89.41l21.35,-46.6l0.9,-1.76l0.9,-1.75l0.9,-1.73l0.9,-1.71l0.9,-1.7l0.9,-1.68l0.9,-1.66l0.9,-1.64l0.91,-1.63l0.91,-1.61l0.91,-1.59l0.91,-1.57l0.91,-1.55l0.91,-1.53l0.91,-1.51l0.91,-1.49l0.91,-1.47l0.91,-1.45l0.92,-1.43l0.92,-1.41l0.92,-1.39l0.92,-1.37l0.92,-1.35l0.92,-1.33l0.92,-1.3l0.92,-1.28l0.92,-1.26l0.93,-1.24l0.93,-1.21l0.93,-1.19l0.93,-1.17l0.93,-1.14l0.93,-1.12l0.93,-1.1l0.93,-1.07l0.94,-1.05l0.94,-1.02l0.94,-1l0.94,-0.97l0.94,-0.95l0.94,-0.92l0.94,-0.9l0.94,-0.87l0.95,-0.84l0.95,-0.82l0.95,-0.79l0.95,-0.76l0.95,-0.74l0.95,-0.71l0.95,-0.68l0.96,-0.65l0.96,-0.63l0.96,-0.6l0.96,-0.57l0.96,-0.54l0.96,-0.51l0.96,-0.48l0.97,-0.45l0.97,-0.42l0.97,-0.39l0.97,-0.36l0.97,-0.33l0.97,-0.3l0.97,-0.27l0.98,-0.24l0.98,-0.2l0.98,-0.17l0.98,-0.14l0.98,-0.11l0.98,-0.08l0.99,-0.04l0.99,-0.01l0.99,0.02l0.99,0.06l0.99,0.09l0.99,0.12l1,0.16l1,0.19l1,0.23l1,0.26l1,0.3l1.01,0.33l1.01,0.37l1.01,0.4l1.01,0.44l1.01,0.48l1.01,0.51l1.02,0.55l1.02,0.58l1.02,0.62l1.02,0.66l1.02,0.69l1.02,0.72l1.03,0.76l1.03,0.79l1.03,0.82l1.03,0.85l1.03,0.89l1.03,0.92l1.03,0.95l1.04,0.98l1.04,1.01l1.04,1.04l1.04,1.06l1.04,1.09l1.04,1.12l1.04,1.15l1.04,1.17l1.05,1.2l1.05,1.22l1.05,1.25l1.05,1.27l1.05,1.3l1.05,1.32l1.05,1.35l1.05,1.37l1.05,1.39l1.05,1.41l1.05,1.43l1.05,1.45l1.05,1.47l1.05,1.49l1.05,1.51l1.05,1.53l1.06,1.55l1.06,1.57l1.06,1.59l1.06,1.6l1.06,1.62l1.06,1.64l1.06,1.65l9.5,15.48l2.11,3.57l2.11,3.61l2.11,3.64l54.9,97.26l0.96,1.53l0.96,1.51l0.95,1.49l0.95,1.47l0.95,1.45l0.95,1.43l0.94,1.41l0.94,1.39l0.94,1.36l0.93,1.34l0.93,1.32l0.93,1.29l0.92,1.27l0.92,1.24l0.92,1.22l0.91,1.19l0.91,1.17l0.91,1.14l0.9,1.11l0.9,1.09l0.9,1.06l0.89,1.03l0.89,1l0.88,0.97l0.88,0.94l0.88,0.91l0.87,0.88l0.87,0.85l0.87,0.81l0.86,0.78l0.86,0.75l0.85,0.72l0.85,0.68l0.84,0.65l0.84,0.61l0.84,0.58l0.83,0.54l0.83,0.5l0.82,0.47l0.82,0.43l0.81,0.39l0.81,0.35l0.81,0.31l0.8,0.28l0.8,0.24l0.79,0.2l0.79,0.15l0.78,0.11l0.78,0.07l0.77,0.03l0.77,-0.01l0.76,-0.06l0.76,-0.1l0.75,-0.14l0.75,-0.18l0.75,-0.22l0.74,-0.26l0.74,-0.3l0.74,-0.34l0.73,-0.38l0.73,-0.42l0.73,-0.46l0.72,-0.49l0.72,-0.53l0.72,-0.57l0.72,-0.6l0.72,-0.64l0.71,-0.67l0.71,-0.7l0.71,-0.74l0.71,-0.77l0.71,-0.8l0.71,-0.83l0.71,-0.87l0.71,-0.9l0.71,-0.93l0.71,-0.96l0.71,-0.98l0.71,-1.01l0.71,-1.04l0.71,-1.07l0.71,-1.09l0.71,-1.12l0.72,-1.15l0.72,-1.17l0.72,-1.2l0.72,-1.22l0.72,-1.24l0.73,-1.27l0.73,-1.29l0.73,-1.31l0.74,-1.33l0.74,-1.35l21.99,-42.39l1.84,-3.43l1.88,-3.45l1.92,-3.46l1.96,-3.47l1,-1.74l1.01,-1.74l1.02,-1.74l1.03,-1.74l1.04,-1.74l1.05,-1.74l1.07,-1.73l1.08,-1.73l1.09,-1.73l1.1,-1.72l1.12,-1.72l1.13,-1.72l1.14,-1.71l1.16,-1.7l1.17,-1.7l1.18,-1.69l1.2,-1.68l1.21,-1.68l1.23,-1.67l1.24,-1.66l1.25,-1.65l1.27,-1.64l1.28,-1.63l1.3,-1.62l1.32,-1.6l1.33,-1.59l1.35,-1.58l1.36,-1.57l1.38,-1.55l1.4,-1.54l1.41,-1.52l1.43,-1.51l1.45,-1.49l1.46,-1.47l1.48,-1.46l1.5,-1.44l1.52,-1.42l1.54,-1.4l1.55,-1.38l1.57,-1.36l1.59,-1.34l1.61,-1.32l1.63,-1.3l1.65,-1.28l1.67,-1.25l1.69,-1.23l1.71,-1.21l1.73,-1.18l1.75,-1.16l1.77,-1.13l1.79,-1.11l1.81,-1.08l1.83,-1.05l1.85,-1.02l1.88,-1l1.9,-0.97l1.92,-0.94l1.93,-0.91l1.95,-0.88l1.97,-0.85l1.98,-0.82l1.99,-0.79l2,-0.76l2.01,-0.72l2.02,-0.69l2.03,-0.66l2.03,-0.63l2.03,-0.59l2.04,-0.56l2.04,-0.52l2.04,-0.49l2.04,-0.45l2.03,-0.42l2.03,-0.38l2.02,-0.34l2.01,-0.31l2.01,-0.27l2,-0.23l1.98,-0.19l1.97,-0.15l1.96,-0.11l0.97,-0.04l0.97,-0.03l0.96,-0.02l0.96,-0.01l0.95,-0l0.95,0.01l0.95,0.02l0.94,0.03l0.93,0.04l0.93,0.05l0.92,0.06l0.92,0.07l0.91,0.08l0.91,0.09l0.9,0.1l0.89,0.11l0.89,0.13l0.88,0.14l0.87,0.15l0.86,0.16l0.86,0.17l0.85,0.18l0.84,0.19l0.83,0.2l0.83,0.21l0.82,0.22l0.81,0.24l0.8,0.25l0.79,0.26l0.78,0.27l0.77,0.28l0.76,0.29l0.75,0.31l0.74,0.32l0.73,0.33l0.72,0.34l0.71,0.35l0.7,0.36l0.69,0.38l0.68,0.39l0.67,0.4l0.66,0.41l0.65,0.43l0.64,0.44l0.63,0.45l0.61,0.46l0.6,0.47l0.59,0.49l0.58,0.5l0.56,0.51l0.55,0.53l0.54,0.54l0.53,0.55l0.51,0.56l0.5,0.58l0.49,0.59l0.47,0.6l0.46,0.62l0.44,0.63l0.43,0.64l0.41,0.65l0.4,0.67l0.39,0.68l0.37,0.69l0.36,0.71l0.34,0.72l0.32,0.74l0.31,0.75l0.29,0.76l0.28,0.78" style="stroke-linejoin: round;"></path>
<path id="cv_4" class=" ZW" d="M615.59,502.66V748.45H887.95V502.66H615.59" style="stroke-linejoin: round;"></path>
<path id="cv_5" class=" ZW" d="M1173.6,907.88L1282.11,639.95L1408.33,899.03L1514.61,655.45L1583.26,916.74L1687.33,659.88M1964.13,830.38L2008.41,620.02L2070.42,927.81L2145.7,686.45L2196.63,850.31M1966.34,108.5L2178.92,310.01L2309.57,168.29M1861.7,218.9L2186.21,526.51L2421.4,271.39" style="stroke-linejoin: round;"></path>
<path id="cv_6" class="ZW" d="M106.29,62L314.44,179.36M615.59,520.6l17.95,-17.95M615.59,547.49l44.83,-44.83M615.59,574.38l71.72,-71.72M615.59,601.27l98.61,-98.61M615.59,628.16L741.09,502.66M615.59,655.05L767.98,502.66M615.59,681.94L794.87,502.66M615.59,708.83L821.76,502.66M615.59,735.71L848.65,502.66M629.74,748.45L875.54,502.66M656.63,748.45L887.95,517.13M683.52,748.45L887.95,544.02M710.41,748.45L887.95,570.91M737.3,748.45L887.95,597.79M764.19,748.45L887.95,624.68M791.08,748.45l96.88,-96.88M817.97,748.45l69.99,-69.99M844.85,748.45l43.1,-43.1M871.74,748.45l16.21,-16.21" style="stroke-linejoin: round;"></path>
<path id="cv_7" class="tmsPoints" d="M1923.97,106.29h0.600000" style="stroke-linejoin: round;"></path>
<path id="cv_8" class="ZW" d="M141.71,708.59A 111.086748 111.086748 0 1 0 128.44 540.29" style="stroke-linejoin: round;"></path>
<g id="cvclr_9" class="noFill sRGB_7">
<ellipse id="cv_10" class="ZW " cx="996.46" cy="124" rx="53.512161" ry="25.918290" transform="rotate(335 996.46 124)"></ellipse>
</g>
</g>
<g id="cvfont_11" style="font-family: arial, helvetica, sans-serif">
<g id="cvfont_12" font-size="80.960402">
<text id="cv_13" transform="scale(1.055556 1) translate(1147.5 538.09) " style="stroke-width: 0;">This is a simple text</text>
<text id="cv_14" transform="scale(1.055556 1) translate(1145.49 1090.97) " style="stroke-width: 0;">This is a multiline text, see</text>
<text id="cv_15" transform="scale(1.055556 1) translate(1141.9 1199.15) " style="stroke-width: 0;">how it flows to the next line</text>
</g>
</g>
<g id="cvfont_16" style="font-family: arial, helvetica, sans-serif">
<g id="cvfont_17" font-size="24.164083">
<a xlink:href="http://www.tailormade.com"><text id="cv_18" class="hyperlink" font-size="26.848981" transform="scale(1.111111 1.111111) translate(0 1159.88) rotate(330) " style="stroke-width: 0;">Tailor Made Software, Ltd</text>
</a><a xlink:href="http://www.cadviewer.com"><text id="cv_19" class="hyperlink" font-size="26.848981" transform="scale(1.111111 1.111111) translate(0 773.25) rotate(330) " style="stroke-width: 0;">www.cadviewer.com</text>
</a><a xlink:href="http://www.cadviewer.com"><text id="cv_20" class="hyperlink" font-size="26.848981" transform="scale(1.111111 1.111111) translate(0 386.63) rotate(330) " style="stroke-width: 0;">For Demonstration Purposes Only</text>
</a><a xlink:href="http://www.tailormade.com"><text id="cv_21" class="hyperlink" font-size="26.848981" transform="scale(1.111111 1.111111) translate(450 1159.88) rotate(330) " style="stroke-width: 0;">www.tailormade.com</text>
</a><a xlink:href="http://www.tailormade.com"><text id="cv_22" class="hyperlink" font-size="26.848981" transform="scale(1.111111 1.111111) translate(450 773.25) rotate(330) " style="stroke-width: 0;">Tailor Made Software, Ltd</text>
</a><a xlink:href="http://www.cadviewer.com"><text id="cv_23" class="hyperlink" font-size="26.848981" transform="scale(1.111111 1.111111) translate(450 386.63) rotate(330) " style="stroke-width: 0;">www.cadviewer.com</text>
</a><a xlink:href="http://www.cadviewer.com"><text id="cv_24" class="hyperlink" font-size="26.848981" transform="scale(1.111111 1.111111) translate(900 1159.88) rotate(330) " style="stroke-width: 0;">For Demonstration Purposes Only</text>
</a><a xlink:href="http://www.tailormade.com"><text id="cv_25" class="hyperlink" font-size="26.848981" transform="scale(1.111111 1.111111) translate(900 773.25) rotate(330) " style="stroke-width: 0;">www.tailormade.com</text>
</a><a xlink:href="http://www.tailormade.com"><text id="cv_26" class="hyperlink" font-size="26.848981" transform="scale(1.111111 1.111111) translate(900 386.63) rotate(330) " style="stroke-width: 0;">Tailor Made Software, Ltd</text>
</a><a xlink:href="http://www.cadviewer.com"><text id="cv_27" class="hyperlink" font-size="26.848981" transform="scale(1.111111 1.111111) translate(1350 1159.88) rotate(330) " style="stroke-width: 0;">www.cadviewer.com</text>
</a><a xlink:href="http://www.cadviewer.com"><text id="cv_28" class="hyperlink" font-size="26.848981" transform="scale(1.111111 1.111111) translate(1350 773.25) rotate(330) " style="stroke-width: 0;">For Demonstration Purposes Only</text>
</a><a xlink:href="http://www.tailormade.com"><text id="cv_29" class="hyperlink" font-size="26.848981" transform="scale(1.111111 1.111111) translate(1350 386.63) rotate(330) " style="stroke-width: 0;">www.tailormade.com</text>
</a><a xlink:href="http://www.tailormade.com"><text id="cv_30" class="hyperlink" font-size="26.848981" transform="scale(1.111111 1.111111) translate(1800 1159.88) rotate(330) " style="stroke-width: 0;">Tailor Made Software, Ltd</text>
</a><a xlink:href="http://www.cadviewer.com"><text id="cv_31" class="hyperlink" font-size="26.848981" transform="scale(1.111111 1.111111) translate(1800 773.25) rotate(330) " style="stroke-width: 0;">www.cadviewer.com</text>
</a><a xlink:href="http://www.cadviewer.com"><text id="cv_32" class="hyperlink" font-size="26.848981" transform="scale(1.111111 1.111111) translate(1800 386.63) rotate(330) " style="stroke-width: 0;">For Demonstration Purposes Only</text>
</a></g>
</g>
<g class="Block1" id="cv_Block_Block1_1">
<g id="cvclr_33" fill="none">
<path id="cv_34" class=" ZW" d="M566.9,1100.53l-0.01,-1.34l-0.03,-1.34l-0.04,-1.34l-0.06,-1.33l-0.08,-1.33l-0.09,-1.33l-0.11,-1.33l-0.13,-1.33l-0.14,-1.33l-0.16,-1.33l-0.18,-1.32l-0.19,-1.32l-0.21,-1.32l-0.23,-1.32l-0.24,-1.31l-0.26,-1.31l-0.28,-1.31l-0.29,-1.3l-0.31,-1.3l-0.32,-1.3l-0.34,-1.29l-0.36,-1.29l-0.37,-1.28l-0.39,-1.28l-0.4,-1.27l-0.42,-1.27l-0.44,-1.26l-0.45,-1.26l-0.47,-1.25l-0.48,-1.25l-0.5,-1.24l-0.52,-1.23l-0.53,-1.23l-0.55,-1.22l-0.56,-1.21l-0.58,-1.21l-0.59,-1.2l-0.61,-1.19l-0.62,-1.18l-0.64,-1.17l-0.65,-1.17l-0.67,-1.16l-0.68,-1.15l-0.69,-1.14l-0.71,-1.13l-0.72,-1.12l-0.74,-1.11l-0.75,-1.1l-0.76,-1.1l-0.78,-1.09l-0.79,-1.08l-0.81,-1.07l-0.82,-1.06l-0.83,-1.05l-0.85,-1.03l-0.86,-1.02l-0.87,-1.01l-0.88,-1l-0.9,-0.99l-0.91,-0.98l-0.92,-0.97l-0.93,-0.96l-0.94,-0.94l-0.96,-0.93l-0.97,-0.92l-0.98,-0.91l-0.99,-0.9l-1,-0.88l-1.01,-0.87l-1.02,-0.86l-1.03,-0.85l-1.05,-0.83l-1.06,-0.82l-1.07,-0.81l-1.08,-0.79l-1.09,-0.78l-1.1,-0.76l-1.1,-0.75l-1.11,-0.74l-1.12,-0.72l-1.13,-0.71l-1.14,-0.69l-1.15,-0.68l-1.16,-0.67l-1.17,-0.65l-1.17,-0.64l-1.18,-0.62l-1.19,-0.61l-1.2,-0.59l-1.21,-0.58l-1.21,-0.56l-1.22,-0.55l-1.23,-0.53l-1.23,-0.52l-1.24,-0.5l-1.25,-0.48l-1.25,-0.47l-1.26,-0.45l-1.26,-0.44l-1.27,-0.42l-1.27,-0.4l-1.28,-0.39l-1.28,-0.37l-1.29,-0.36l-1.29,-0.34l-1.3,-0.32l-1.3,-0.31l-1.3,-0.29l-1.31,-0.28l-1.31,-0.26l-1.31,-0.24l-1.32,-0.23l-1.32,-0.21l-1.32,-0.19l-1.32,-0.18l-1.33,-0.16l-1.33,-0.14l-1.33,-0.13l-1.33,-0.11l-1.33,-0.09l-1.33,-0.08l-1.33,-0.06l-1.34,-0.04l-1.34,-0.03l-1.34,-0.01l-1.34,0.01l-1.34,0.03l-1.34,0.04l-1.33,0.06l-1.33,0.08l-1.33,0.09l-1.33,0.11l-1.33,0.13l-1.33,0.14l-1.33,0.16l-1.32,0.18l-1.32,0.19l-1.32,0.21l-1.32,0.23l-1.31,0.24l-1.31,0.26l-1.31,0.28l-1.3,0.29l-1.3,0.31l-1.3,0.32l-1.29,0.34l-1.29,0.36l-1.28,0.37l-1.28,0.39l-1.27,0.4l-1.27,0.42l-1.26,0.44l-1.26,0.45l-1.25,0.47l-1.25,0.48l-1.24,0.5l-1.23,0.52l-1.23,0.53l-1.22,0.55l-1.21,0.56l-1.21,0.58l-1.2,0.59l-1.19,0.61l-1.18,0.62l-1.17,0.64l-1.17,0.65l-1.16,0.67l-1.15,0.68l-1.14,0.69l-1.13,0.71l-1.12,0.72l-1.11,0.74l-1.1,0.75l-1.1,0.76l-1.09,0.78l-1.08,0.79l-1.07,0.81l-1.06,0.82l-1.05,0.83l-1.03,0.85l-1.02,0.86l-1.01,0.87l-1,0.88l-0.99,0.9l-0.98,0.91l-0.97,0.92l-0.96,0.93l-0.94,0.94l-0.93,0.96l-0.92,0.97l-0.91,0.98l-0.9,0.99l-0.88,1l-0.87,1.01l-0.86,1.02l-0.85,1.03l-0.83,1.05l-0.82,1.06l-0.81,1.07l-0.79,1.08l-0.78,1.09l-0.76,1.1l-0.75,1.1l-0.74,1.11l-0.72,1.12l-0.71,1.13l-0.69,1.14l-0.68,1.15l-0.67,1.16l-0.65,1.17l-0.64,1.17l-0.62,1.18l-0.61,1.19l-0.59,1.2l-0.58,1.21l-0.56,1.21l-0.55,1.22l-0.53,1.23l-0.52,1.23l-0.5,1.24l-0.48,1.25l-0.47,1.25l-0.45,1.26l-0.44,1.26l-0.42,1.27l-0.4,1.27l-0.39,1.28l-0.37,1.28l-0.36,1.29l-0.34,1.29l-0.32,1.3l-0.31,1.3l-0.29,1.3l-0.28,1.31l-0.26,1.31l-0.24,1.31l-0.23,1.32l-0.21,1.32l-0.19,1.32l-0.18,1.32l-0.16,1.33l-0.14,1.33l-0.13,1.33l-0.11,1.33l-0.09,1.33l-0.08,1.33l-0.06,1.33l-0.04,1.34l-0.03,1.34l-0.01,1.34l0.01,1.34l0.03,1.34l0.04,1.34l0.06,1.33l0.08,1.33l0.09,1.33l0.11,1.33l0.13,1.33l0.14,1.33l0.16,1.33l0.18,1.32l0.19,1.32l0.21,1.32l0.23,1.32l0.24,1.31l0.26,1.31l0.28,1.31l0.29,1.3l0.31,1.3l0.32,1.3l0.34,1.29l0.36,1.29l0.37,1.28l0.39,1.28l0.4,1.27l0.42,1.27l0.44,1.26l0.45,1.26l0.47,1.25l0.48,1.25l0.5,1.24l0.52,1.23l0.53,1.23l0.55,1.22l0.56,1.21l0.58,1.21l0.59,1.2l0.61,1.19l0.62,1.18l0.64,1.17l0.65,1.17l0.67,1.16l0.68,1.15l0.69,1.14l0.71,1.13l0.72,1.12l0.74,1.11l0.75,1.1l0.76,1.1l0.78,1.09l0.79,1.08l0.81,1.07l0.82,1.06l0.83,1.05l0.85,1.03l0.86,1.02l0.87,1.01l0.88,1l0.9,0.99l0.91,0.98l0.92,0.97l0.93,0.96l0.94,0.94l0.96,0.93l0.97,0.92l0.98,0.91l0.99,0.9l1,0.88l1.01,0.87l1.02,0.86l1.03,0.85l1.05,0.83l1.06,0.82l1.07,0.81l1.08,0.79l1.09,0.78l1.1,0.76l1.1,0.75l1.11,0.74l1.12,0.72l1.13,0.71l1.14,0.69l1.15,0.68l1.16,0.67l1.17,0.65l1.17,0.64l1.18,0.62l1.19,0.61l1.2,0.59l1.21,0.58l1.21,0.56l1.22,0.55l1.23,0.53l1.23,0.52l1.24,0.5l1.25,0.48l1.25,0.47l1.26,0.45l1.26,0.44l1.27,0.42l1.27,0.4l1.28,0.39l1.28,0.37l1.29,0.36l1.29,0.34l1.3,0.32l1.3,0.31l1.3,0.29l1.31,0.28l1.31,0.26l1.31,0.24l1.32,0.23l1.32,0.21l1.32,0.19l1.32,0.18l1.33,0.16l1.33,0.14l1.33,0.13l1.33,0.11l1.33,0.09l1.33,0.08l1.33,0.06l1.34,0.04l1.34,0.03l1.34,0.01l1.34,-0.01l1.34,-0.03l1.34,-0.04l1.33,-0.06l1.33,-0.08l1.33,-0.09l1.33,-0.11l1.33,-0.13l1.33,-0.14l1.33,-0.16l1.32,-0.18l1.32,-0.19l1.32,-0.21l1.32,-0.23l1.31,-0.24l1.31,-0.26l1.31,-0.28l1.3,-0.29l1.3,-0.31l1.3,-0.32l1.29,-0.34l1.29,-0.36l1.28,-0.37l1.28,-0.39l1.27,-0.4l1.27,-0.42l1.26,-0.44l1.26,-0.45l1.25,-0.47l1.25,-0.48l1.24,-0.5l1.23,-0.52l1.23,-0.53l1.22,-0.55l1.21,-0.56l1.21,-0.58l1.2,-0.59l1.19,-0.61l1.18,-0.62l1.17,-0.64l1.17,-0.65l1.16,-0.67l1.15,-0.68l1.14,-0.69l1.13,-0.71l1.12,-0.72l1.11,-0.74l1.1,-0.75l1.1,-0.76l1.09,-0.78l1.08,-0.79l1.07,-0.81l1.06,-0.82l1.05,-0.83l1.03,-0.85l1.02,-0.86l1.01,-0.87l1,-0.88l0.99,-0.9l0.98,-0.91l0.97,-0.92l0.96,-0.93l0.94,-0.94l0.93,-0.96l0.92,-0.97l0.91,-0.98l0.9,-0.99l0.88,-1l0.87,-1.01l0.86,-1.02l0.85,-1.03l0.83,-1.05l0.82,-1.06l0.81,-1.07l0.79,-1.08l0.78,-1.09l0.76,-1.1l0.75,-1.1l0.74,-1.11l0.72,-1.12l0.71,-1.13l0.69,-1.14l0.68,-1.15l0.67,-1.16l0.65,-1.17l0.64,-1.17l0.62,-1.18l0.61,-1.19l0.59,-1.2l0.58,-1.21l0.56,-1.21l0.55,-1.22l0.53,-1.23l0.52,-1.23l0.5,-1.24l0.48,-1.25l0.47,-1.25l0.45,-1.26l0.44,-1.26l0.42,-1.27l0.4,-1.27l0.39,-1.28l0.37,-1.28l0.36,-1.29l0.34,-1.29l0.32,-1.3l0.31,-1.3l0.29,-1.3l0.28,-1.31l0.26,-1.31l0.24,-1.31l0.23,-1.32l0.21,-1.32l0.19,-1.32l0.18,-1.32l0.16,-1.33l0.14,-1.33l0.13,-1.33l0.11,-1.33l0.09,-1.33l0.08,-1.33l0.06,-1.33l0.04,-1.34l0.03,-1.34l0.01,-1.34" style="stroke-linejoin: round;"></path>
<path id="cv_35" class=" ZW" d="M325.51,965.46V1226.75H597.87V965.46H325.51" style="stroke-linejoin: round;"></path>
</g>
<g id="cvclr_36">
<g id="cvfont_37" style="font-family: arial, helvetica, sans-serif">
<g id="cvfont_38" font-size="80.955076">
<text id="cv_39" transform="scale(1.055556 1) translate(392.29 1133.75) " cvjs:tag="ID" style="stroke-width: 0;">1</text>
</g>
</g>
</g>
</g>
<g class="Block1" id="cv_Block_Block1_2">
<g id="cvclr_40" fill="none">
<path id="cv_41" class=" ZW" d="M934.26,1060.54l-0.96,-0.93l-0.98,-0.91l-1,-0.88l-1.02,-0.86l-1.05,-0.83l-0.8,-0.61l-0.81,-0.59l-0.82,-0.58l-0.83,-0.56l-0.84,-0.54l-0.85,-0.53l-0.86,-0.51l-0.87,-0.5l-0.88,-0.48l-0.89,-0.46l-0.9,-0.45l-0.91,-0.43l-0.91,-0.41l-0.92,-0.4l-0.93,-0.38l-0.94,-0.36l-0.94,-0.34l-0.95,-0.32l-0.95,-0.31l-0.96,-0.29l-0.96,-0.27l-0.97,-0.25l-0.97,-0.23l-0.98,-0.22l-0.98,-0.2l-0.99,-0.18l-0.99,-0.16l-0.99,-0.14l-0.99,-0.12l-1,-0.1l-1,-0.08l-1,-0.07l-1,-0.05l-1,-0.03l-1,-0.01l-1,0.01l-1,0.03l-1,0.05l-1,0.07l-1,0.08l-1,0.1l-0.99,0.12l-0.99,0.14l-0.99,0.16l-0.99,0.18l-0.98,0.2l-0.98,0.22l-0.97,0.23l-0.97,0.25l-0.96,0.27l-0.96,0.29l-0.95,0.31l-0.95,0.32l-0.94,0.34l-0.94,0.36l-0.93,0.38l-0.92,0.4l-0.91,0.41l-0.91,0.43l-0.9,0.45l-0.89,0.46l-0.88,0.48l-0.87,0.5l-0.86,0.51l-0.85,0.53l-0.84,0.54l-0.83,0.56l-0.82,0.58l-0.81,0.59l-1.06,0.81l-1.04,0.84l-1.02,0.86l-1,0.89l-0.97,0.91l-0.95,0.94l-0.93,0.96l-0.9,0.99l-0.88,1.01l-0.85,1.03l-0.83,1.05l-0.6,0.8l-0.59,0.81l-0.57,0.82l-0.56,0.83l-0.54,0.84l-0.52,0.85l-0.51,0.86l-0.49,0.87l-0.47,0.88l-0.46,0.89l-0.44,0.9l-0.42,0.91l-0.41,0.92l-0.39,0.92l-0.37,0.93l-0.35,0.94l-0.34,0.94l-0.32,0.95l-0.3,0.96l-0.28,0.96l-0.26,0.97l-0.25,0.97l-0.23,0.98l-0.21,0.98l-0.19,0.98l-0.17,0.99l-0.15,0.99l-0.13,0.99l-0.12,1l-0.1,1l-0.08,1l-0.06,1l-0.04,1l-0.02,1l-0,1l0.02,1l0.03,1l0.05,1l0.07,1l0.09,1l0.11,1l0.13,0.99l0.15,0.99l0.17,0.99l0.18,0.98l0.2,0.98l0.22,0.98l0.24,0.97l0.26,0.97l0.28,0.96l0.29,0.96l0.31,0.95l0.33,0.95l0.35,0.94l0.37,0.93l0.38,0.93l0.4,0.92l0.42,0.91l0.44,0.9l0.45,0.89l0.47,0.89l0.49,0.88l0.5,0.87l0.52,0.86l0.53,0.85l0.55,0.84l0.57,0.83l0.58,0.82l0.6,0.81l0.82,1.06l0.85,1.03l0.87,1.01l0.9,0.99l0.92,0.97l0.94,0.94l0.97,0.92l0.99,0.9l1.01,0.87l1.03,0.85l1.06,0.82l0.81,0.6l0.82,0.58l0.83,0.57l0.84,0.55l0.85,0.53l0.86,0.52l0.87,0.5l0.88,0.49l0.89,0.47l0.89,0.45l0.9,0.44l0.91,0.42l0.92,0.4l0.93,0.38l0.93,0.37l0.94,0.35l0.95,0.33l0.95,0.31l0.96,0.29l0.96,0.28l0.97,0.26l0.97,0.24l0.98,0.22l0.98,0.2l0.98,0.18l0.99,0.17l0.99,0.15l0.99,0.13l1,0.11l1,0.09l1,0.07l1,0.05l1,0.03l1,0.02l1,-0l1,-0.02l1,-0.04l1,-0.06l1,-0.08l1,-0.1l1,-0.12l0.99,-0.13l0.99,-0.15l0.99,-0.17l0.98,-0.19l0.98,-0.21l0.98,-0.23l0.97,-0.25l0.97,-0.26l0.96,-0.28l0.96,-0.3l0.95,-0.32l0.94,-0.34l0.94,-0.35l0.93,-0.37l0.92,-0.39l0.92,-0.41l0.91,-0.42l0.9,-0.44l0.89,-0.46l0.88,-0.47l0.87,-0.49l0.86,-0.51l0.85,-0.52l0.84,-0.54l0.83,-0.56l0.82,-0.57l0.81,-0.59l0.8,-0.6l1.05,-0.83l1.03,-0.85l1.01,-0.88l0.99,-0.9l0.96,-0.93l0.94,-0.95l0.91,-0.97l0.89,-1l0.86,-1.02l0.84,-1.04l0.81,-1.06l0.59,-0.81l0.58,-0.82l0.56,-0.83l0.54,-0.84l0.53,-0.85l0.51,-0.86l0.5,-0.87l0.48,-0.88l0.46,-0.89l0.45,-0.9l0.43,-0.91l0.41,-0.91l0.4,-0.92l0.38,-0.93l0.36,-0.94l0.34,-0.94l0.32,-0.95l0.31,-0.95l0.29,-0.96l0.27,-0.96l0.25,-0.97l0.23,-0.97l0.22,-0.98l0.2,-0.98l0.18,-0.99l0.16,-0.99l0.14,-0.99l0.12,-0.99l0.1,-1l0.08,-1l0.07,-1l0.05,-1l0.03,-1l0.01,-1l-0.01,-1l-0.03,-1l-0.05,-1l-0.07,-1l-0.08,-1l-0.1,-1l-0.12,-0.99l-0.14,-0.99l-0.16,-0.99l-0.18,-0.99l-0.2,-0.98l-0.22,-0.98l-0.23,-0.97l-0.25,-0.97l-0.27,-0.96l-0.29,-0.96l-0.31,-0.95l-0.32,-0.95l-0.34,-0.94l-0.36,-0.94l-0.38,-0.93l-0.4,-0.92l-0.41,-0.91l-0.43,-0.91l-0.45,-0.9l-0.46,-0.89l-0.48,-0.88l-0.5,-0.87l-0.51,-0.86l-0.53,-0.85l-0.54,-0.84l-0.56,-0.83l-0.58,-0.82l-0.59,-0.81l-0.81,-1.06l-0.84,-1.04l-0.86,-1.02l-0.89,-1l-0.91,-0.97l-0.7,-0.72" style="stroke-linejoin: round;"></path>
<path id="cv_42" class=" ZW" d="M801.16,1098.13l92.38,92.38l96.3,-96.3l-92.38,-92.38l-96.3,96.3" style="stroke-linejoin: round;"></path>
</g>
<g id="cvclr_43">
<g id="cvfont_44" style="font-family: arial, helvetica, sans-serif">
<g id="cvfont_45" font-size="40.477538">
<text id="cv_46" font-size="47.342149" transform="scale(1.055556 1.055556) translate(845.03 1067.03) rotate(315) " cvjs:tag="ID" style="stroke-width: 0;">2</text>
</g>
</g>
</g>
</g>
</g>
</g><desc>Created with Snap</desc></svg></svg></g><g fill="#ffffff" id="master_floorPlan_svg" style="fill-opacity: 0.01; stroke-width: 0;"><rect x="-15.55634593963623" y="0" width="2515.556396484375" height="1295.8912353515625"></rect></g><g></g><g style="display: inline;"></g><g></g><g></g><g></g></svg></svg>