<?xml version="1.0" encoding="utf-8"?><svg version="1.1" id="Layer_1" xmlns="http://www.w3.org/2000/svg" xmlns:xlink="http://www.w3.org/1999/xlink" x="0px" y="0px" viewBox="0 0 122.88 122.88" height="122.88" width="122.88" >
<g id="fan_symbol1" >
<path d="M11.56,0h99.75c3.18,0,6.07,1.3,8.17,3.4s3.4,4.99,3.4,8.17v99.75c0,3.18-1.3,6.07-3.4,8.17c-2.09,2.09-4.99,3.4-8.17,3.4 H11.56c-3.18,0-6.07-1.3-8.17-3.4C1.3,117.39,0,114.5,0,111.32V11.56C0,8.38,1.3,5.49,3.4,3.4C5.49,1.3,8.38,0,11.56,0L11.56,0z M66.52,48.49c1.73,0.63,3.32,1.58,4.76,2.87c1.54,1.38,2.89,3.12,4.05,5.25c0.55,0,1.11,0.01,1.66,0.03c1,0.04,1.96,0.11,2.9,0.21 c3.93,0.45,6.9,1.66,9.86,2.88c1.89,0.77,3.78,1.55,5.92,2.07c0.02,0.01,0.04,0.01,0.07,0.02c0.72,0.17,1.37,0.21,1.94,0.15 c1.02-0.11,1.83-0.58,2.45-1.28c0.7-0.79,1.2-1.88,1.5-3.09c0.33-1.33,0.4-2.79,0.26-4.17c-0.13-1.24-0.43-2.49-0.82-3.72 c-0.41-1.27-0.91-2.5-1.46-3.67c-0.5-1.06-1.07-2.08-1.69-3.05c-0.62-0.96-1.3-1.9-2.05-2.83c-2.47-3.06-5.07-5.16-7.68-6.37 c-2.38-1.1-4.78-1.46-7.09-1.13c-2.33,0.34-4.6,1.38-6.71,3.08c-2.71,2.18-5.14,5.43-7.09,9.65c-0.33,0.71-0.54,1.44-0.66,2.17 C66.58,47.87,66.54,48.18,66.52,48.49L66.52,48.49z M48.48,56.66c0.62-1.74,1.57-3.33,2.85-4.77c1.36-1.53,3.11-2.88,5.24-4.05 c0-0.56,0-1.11,0.02-1.67c0.03-0.99,0.1-1.96,0.21-2.9c0.44-3.96,1.65-6.92,2.85-9.87c0.78-1.92,1.56-3.84,2.07-5.92 c0.18-0.75,0.23-1.42,0.16-2.01c-0.11-1.01-0.59-1.83-1.29-2.45c-0.8-0.71-1.88-1.2-3.09-1.49c-1.33-0.32-2.79-0.4-4.17-0.24 c-1.25,0.14-2.5,0.43-3.72,0.83c-1.25,0.4-2.48,0.91-3.66,1.47c-1.06,0.5-2.07,1.07-3.05,1.7c-0.99,0.64-1.93,1.32-2.82,2.05 c-3.06,2.48-5.16,5.09-6.36,7.71c-1.1,2.38-1.45,4.78-1.11,7.08c0.34,2.33,1.39,4.6,3.09,6.7c2.19,2.7,5.45,5.13,9.67,7.08 c0.71,0.33,1.44,0.53,2.17,0.65C47.86,56.6,48.17,56.63,48.48,56.66L48.48,56.66z M48.43,60.47c-0.5-0.03-1-0.08-1.5-0.16 c-1.06-0.17-2.12-0.47-3.15-0.95c-4.76-2.19-8.48-4.99-11.03-8.14c-2.14-2.65-3.47-5.54-3.91-8.55c-0.45-3.03,0.01-6.16,1.42-9.23 c1.44-3.13,3.89-6.21,7.42-9.06c1.02-0.83,2.08-1.6,3.17-2.3c1.1-0.71,2.26-1.36,3.48-1.94c1.3-0.61,2.68-1.18,4.12-1.65 c1.46-0.47,2.97-0.83,4.47-0.99c1.8-0.2,3.71-0.1,5.48,0.33c1.79,0.44,3.45,1.21,4.73,2.35c1.38,1.22,2.32,2.84,2.54,4.88 c0.11,1.01,0.04,2.12-0.25,3.32c-0.59,2.41-1.41,4.43-2.23,6.46c-1.1,2.71-2.21,5.44-2.59,8.85c-0.1,0.9-0.16,1.76-0.19,2.6 c-0.02,0.58-0.03,1.16-0.02,1.74c0.56-0.07,1.14-0.11,1.72-0.11c0.21,0,0.42,0.01,0.63,0.01c0.03-0.33,0.07-0.67,0.13-1 c0.17-1.05,0.48-2.11,0.96-3.14c2.21-4.76,5.01-8.48,8.17-11.02c2.65-2.13,5.54-3.45,8.56-3.89c3.03-0.44,6.15,0.02,9.22,1.44 c3.13,1.45,6.2,3.91,9.06,7.45c0.81,1,1.57,2.05,2.29,3.17c0.71,1.11,1.36,2.27,1.93,3.48c0.62,1.31,1.19,2.69,1.64,4.11 c0.47,1.46,0.82,2.97,0.98,4.48c0.19,1.8,0.09,3.71-0.34,5.48c-0.44,1.78-1.21,3.43-2.36,4.72c-1.23,1.38-2.85,2.31-4.89,2.53 c-0.99,0.11-2.07,0.04-3.23-0.24c-0.03-0.01-0.06-0.01-0.09-0.02c-2.35-0.58-4.4-1.41-6.44-2.25c-2.7-1.1-5.41-2.21-8.86-2.61 c-0.9-0.1-1.76-0.17-2.6-0.2c-0.36-0.01-0.73-0.02-1.09-0.02c0.04,0.41,0.05,0.82,0.05,1.23c0,0.35-0.01,0.7-0.04,1.05 c0.63,0.05,1.27,0.13,1.9,0.27c1.04,0.22,2.08,0.57,3.1,1.1c4.66,2.41,8.25,5.38,10.65,8.65c2.01,2.73,3.2,5.69,3.5,8.72 c0.31,3.05-0.29,6.15-1.84,9.15c-1.59,3.07-4.18,6.03-7.84,8.72c-1.05,0.77-2.13,1.49-3.26,2.15c-1.14,0.66-2.33,1.26-3.57,1.78 c-1.34,0.56-2.75,1.07-4.19,1.46c-1.47,0.4-2.98,0.68-4.52,0.78c-1.8,0.12-3.71-0.07-5.46-0.59c-1.77-0.52-3.38-1.36-4.61-2.56 c-1.32-1.29-2.19-2.95-2.32-5c-0.06-1.01,0.06-2.12,0.41-3.3c0.7-2.38,1.61-4.36,2.53-6.35c1.23-2.66,2.46-5.33,3-8.73 c0.13-0.82,0.23-1.69,0.3-2.59c0.03-0.37,0.05-0.72,0.07-1.07c-0.51,0.06-1.02,0.09-1.55,0.09c-0.64,0-1.27-0.04-1.89-0.13 c-0.02,0.2-0.05,0.4-0.08,0.59c-0.16,1.06-0.44,2.12-0.91,3.16c-2.12,4.79-4.87,8.55-7.99,11.15c-2.61,2.18-5.49,3.54-8.49,4.03 c-3.03,0.49-6.16,0.08-9.24-1.28c-3.15-1.4-6.26-3.81-9.18-7.3c-0.85-1.02-1.63-2.06-2.34-3.13C21.27,81.37,20.61,80.23,20,79 c-0.64-1.31-1.24-2.69-1.71-4.09c-0.49-1.46-0.87-2.96-1.06-4.46c-0.22-1.79-0.15-3.7,0.26-5.48c0.41-1.79,1.16-3.46,2.28-4.76 c1.21-1.4,2.81-2.36,4.85-2.62c1-0.13,2.11-0.07,3.32,0.21c2.41,0.55,4.45,1.35,6.49,2.14c2.73,1.07,5.47,2.13,8.89,2.47 c0.88,0.09,1.75,0.14,2.61,0.15c0.81,0.02,1.64,0,2.49-0.04c-0.02-0.29-0.03-0.59-0.03-0.88C48.39,61.25,48.4,60.86,48.43,60.47 L48.43,60.47z M69.1,54.64c-1.79-1.79-4.27-2.9-7-2.9c-2.73,0-5.21,1.11-7,2.9c-1.79,1.79-2.9,4.27-2.9,7c0,2.73,1.11,5.21,2.9,7 c1.79,1.79,4.27,2.9,7,2.9c2.73,0,5.21-1.11,7-2.9c1.79-1.79,2.9-4.27,2.9-7C72,58.91,70.89,56.43,69.1,54.64L69.1,54.64z M56.46,74.33c-1.74-0.6-3.35-1.52-4.81-2.79c-1.56-1.35-2.94-3.07-4.14-5.18c-0.55,0.01-1.1,0.01-1.67,0 c-0.97-0.02-1.94-0.07-2.89-0.17c-3.97-0.39-6.95-1.55-9.91-2.71c-1.92-0.75-3.85-1.5-5.94-1.98c-0.75-0.17-1.42-0.21-2.02-0.13 c-1.02,0.13-1.82,0.61-2.43,1.32c-0.69,0.8-1.17,1.89-1.45,3.1c-0.3,1.33-0.36,2.79-0.18,4.18c0.16,1.24,0.47,2.49,0.88,3.7 c0.43,1.28,0.96,2.5,1.52,3.64c0.51,1.04,1.09,2.04,1.74,3.02c0.66,0.99,1.36,1.92,2.09,2.8c2.51,3.01,5.15,5.07,7.79,6.24 c2.41,1.07,4.81,1.39,7.11,1.02c2.32-0.38,4.58-1.46,6.66-3.19c2.66-2.22,5.04-5.51,6.93-9.77c0.32-0.71,0.51-1.45,0.62-2.18 C56.41,74.96,56.44,74.64,56.46,74.33L56.46,74.33z M75.97,66.54c-0.7,1.71-1.72,3.25-3.08,4.63c-1.44,1.47-3.24,2.74-5.42,3.81 c-0.02,0.58-0.05,1.13-0.1,1.66c-0.07,0.93-0.19,1.89-0.35,2.89c-0.63,3.94-1.97,6.84-3.3,9.73c-0.87,1.88-1.73,3.75-2.34,5.81 c-0.22,0.74-0.29,1.41-0.26,2.01c0.07,1.02,0.5,1.85,1.17,2.5c0.76,0.74,1.83,1.29,3.01,1.64c1.31,0.38,2.77,0.53,4.16,0.44 c1.23-0.08,2.5-0.32,3.75-0.66c1.29-0.35,2.54-0.8,3.72-1.3c1.09-0.45,2.13-0.97,3.12-1.55c1.01-0.58,1.98-1.23,2.92-1.92 c3.17-2.33,5.38-4.84,6.71-7.39c1.21-2.33,1.67-4.71,1.44-7.03c-0.23-2.34-1.18-4.65-2.79-6.84c-2.06-2.8-5.2-5.37-9.33-7.51 c-0.69-0.36-1.41-0.6-2.14-0.75C76.59,66.62,76.28,66.57,75.97,66.54L75.97,66.54z M14.98,104.42c1.78,0,3.21,1.44,3.21,3.21 s-1.44,3.21-3.21,3.21c-1.77,0-3.21-1.44-3.21-3.21S13.2,104.42,14.98,104.42L14.98,104.42z M14.98,12.03 c1.78,0,3.21,1.44,3.21,3.21s-1.44,3.21-3.21,3.21c-1.77,0-3.21-1.44-3.21-3.21S13.2,12.03,14.98,12.03L14.98,12.03z M107.9,12.03 c1.78,0,3.21,1.44,3.21,3.21s-1.44,3.21-3.21,3.21s-3.21-1.44-3.21-3.21S106.13,12.03,107.9,12.03L107.9,12.03z M107.9,104.42 c1.78,0,3.21,1.44,3.21,3.21s-1.44,3.21-3.21,3.21s-3.21-1.44-3.21-3.21S106.13,104.42,107.9,104.42L107.9,104.42z M111.32,4.15 H11.56c-2.04,0-3.89,0.83-5.23,2.18c-1.34,1.34-2.18,3.2-2.18,5.23v99.75c0,2.04,0.83,3.89,2.18,5.23c1.34,1.34,3.2,2.18,5.23,2.18 h99.75c2.04,0,3.89-0.83,5.23-2.18s2.18-3.2,2.18-5.23V11.56c0-2.04-0.83-3.89-2.18-5.23C115.21,4.99,113.35,4.15,111.32,4.15 L111.32,4.15z"/>
</g>
</svg>