<svg id="Layer_1" data-name="Layer 1" xmlns="http://www.w3.org/2000/svg" viewBox="0 0 987.43 198.11"><defs><style>.cls-1{fill:#f66011;}.cls-2{fill:#090046;}</style></defs><polygon class="cls-1" points="75.65 198.11 0 198.11 0 151.53 58.84 151.53 75.65 198.11"/><polygon class="cls-1" points="154.09 85.43 154.09 154.09 129.97 154.09 115.7 114.56 105.2 85.48 74.29 85.48 44.02 85.48 44.02 44.02 154.09 44.02 154.09 63.41 198.11 63.41 198.11 0 0 0 0 129.51 74.29 129.51 99.06 198.11 198.11 198.11 198.11 85.43 154.09 85.43"/><path class="cls-2" d="M270.43,53.57V51c0-21.65,14.2-44.25,44-44.25,23.66,0,40.22,14.32,42.23,35.38h-22c-1.66-8.88-9.35-14.79-20.23-14.79-13.72,0-21.77,9.7-21.77,25.08S301,77.47,315,77.47c11,0,19.4-5.8,20.94-14.79h22C355.84,82.2,340,98.05,315,98.05,283.92,98.05,270.43,73.21,270.43,53.57Z" transform="translate(-6.28 -6.72)"/><path class="cls-2" d="M358.92,98.05,386.6,11.69h35.26l28.63,86.36H427.77l-6.27-20H387.08l-6.16,20Zm56.9-38-9.58-30.64h-4.38l-9.34,30.64Z" transform="translate(-6.28 -6.72)"/><path class="cls-2" d="M458.82,98.05V10.51H491.7c31.12,0,47.09,19.28,47.09,42.35v2.6c0,21.3-16,42.59-47.09,42.59Zm22-67V77.47h11.83c14.91,0,23.9-8.87,23.9-23.31,0-15.14-9-23.07-23.9-23.07Z" transform="translate(-6.28 -6.72)"/><path class="cls-2" d="M593.68,98.05,568.6,11.69h22.72l18.22,68.85h4l17-68.85h22L629.17,98.05Z" transform="translate(-6.28 -6.72)"/><path class="cls-2" d="M664,98.05V49.12h-8.28V33.51h29.81V98.05Zm-2.6-80.51c0-6.27,3.55-10.77,11.35-10.77s11.36,4.5,11.36,10.77S680.52,28.3,672.71,28.3,661.36,23.81,661.36,17.54Z" transform="translate(-6.28 -6.72)"/><path class="cls-2" d="M698.24,66.5V64.3c0-16.44,11.69-31.55,31.43-31.55,19.53,0,30.78,14.89,30.78,31.77v6.4H717.21c1.32,7,5.52,11,13.13,11,5.51,0,9.26-2,10.7-5.3h18.31c-2.65,12.47-13.46,21.4-29,21.4C709.82,98.05,698.24,82.28,698.24,66.5Zm19-6.39h24.38c-1.21-7.28-5.19-11.25-11.92-11.25S718.64,52.61,717.21,60.11Z" transform="translate(-6.28 -6.72)"/><polygon class="cls-2" points="866.72 26.04 851.12 91.34 821.77 91.34 813.26 52.4 805.44 91.34 776.23 91.34 759.08 26.04 780.13 26.04 791.6 73.34 794.09 73.34 797.55 54.45 802.39 28.15 802.77 26.04 824.41 26.04 824.85 28.15 830.62 55.77 834.32 73.34 836.69 73.34 847.1 26.04 866.72 26.04"/><path class="cls-2" d="M877.91,66.5V64.3c0-16.44,11.7-31.55,31.44-31.55,19.53,0,30.78,14.89,30.78,31.77v6.4H896.89c1.32,7,5.51,11,13.12,11,5.52,0,9.27-2,10.7-5.3H939c-2.64,12.47-13.45,21.4-29,21.4C889.5,98.05,877.91,82.28,877.91,66.5Zm19-6.39h24.38c-1.22-7.28-5.19-11.25-11.92-11.25S898.32,52.61,896.89,60.11Z" transform="translate(-6.28 -6.72)"/><path class="cls-2" d="M952.07,98.05V32.75h17V55.82c1.42-15,9-24,22-24h2.61V50.26h-5c-9.7,0-15.14,5.44-15.14,15.14V98.05Z" transform="translate(-6.28 -6.72)"/><path class="cls-2" d="M270.43,173.07V145h6.25v28.83c0,7.84,4.66,13.14,13.08,13.14s13-5.23,13-13.14V145H309v28.06c0,11.74-6.57,19.65-19.26,19.65S270.43,184.81,270.43,173.07Z" transform="translate(-6.28 -6.72)"/><path class="cls-2" d="M319.87,191.57V157.51h4.85v7.91c1.53-5.81,5.42-8.93,11.86-8.93h.26c8.54,0,12.62,5.55,12.62,15.63v19.45h-6.12V170.84c0-5.29-3.19-8.74-8.35-8.74-5.36,0-9,3.64-9,9.12v20.35Z" transform="translate(-6.28 -6.72)"/><path class="cls-2" d="M360,191.57V149.86h-4.72V145h10.85v46.56Z" transform="translate(-6.28 -6.72)"/><path class="cls-2" d="M374.8,175.11V174c0-8.8,5.23-17.6,16.65-17.6,11,0,16.26,8.1,16.26,16.58v2.75h-27c.38,6.69,3.83,11.67,11.16,11.67,5.36,0,8.87-2.74,9.57-5.93h5.74c-1.47,7.08-7.27,11.29-15.31,11.29C379.84,192.72,374.8,183.72,374.8,175.11Zm6.13-4h20.79c-.77-5.81-4.15-9.38-10.27-9.38S381.88,165.48,380.93,171.1Z" transform="translate(-6.28 -6.72)"/><path class="cls-2" d="M413.34,181.36c0-7.2,5-11,13.91-11h8.61v-.83c0-4.65-2.49-7.08-7.15-7.08-3.95,0-8.61.2-11.41.39v-5.36c2.74-.25,6.31-.38,9.37-.38,10.46,0,15.05,3.38,15.05,12.88v21.56h-4.84v-6.76c-1.47,5-5.23,7.65-11.16,7.65C418,192.46,413.34,188.44,413.34,181.36Zm22.52-2.42V175H427c-4.91,0-7.65,2.61-7.65,6.37s2.74,6.25,7.65,6.25C431.26,187.61,435.6,185.57,435.86,178.94Z" transform="translate(-6.28 -6.72)"/><path class="cls-2" d="M449.57,181.87h5.74c.12,2.68,2.36,5.49,8.42,5.49,5.42,0,8.41-2.43,8.41-5.61,0-2.81-2-4.34-6.76-4.85l-3.7-.38c-6.5-.71-11-3.83-11-9.64,0-6.5,5.36-10.39,13-10.39s12.81,3.44,13,10.14H471c-.13-2.74-2.49-4.91-7.27-4.91s-7.28,2.23-7.28,5.16c0,2.56,1.6,4.09,5.62,4.53l3.7.39c7.27.76,12.11,4,12.11,9.95,0,6.37-5.86,10.84-14.15,10.84C454.8,192.59,449.76,188.51,449.57,181.87Z" transform="translate(-6.28 -6.72)"/><path class="cls-2" d="M486.27,191.57V145h6.13v18.5c1.85-4.47,5.35-7,10.84-7h.25c8.17,0,12.38,5.61,12.38,15.63v19.45h-6.12V170.84c0-5.55-3.45-8.74-8.36-8.74-5.48,0-9,4-9,9.82v19.65Z" transform="translate(-6.28 -6.72)"/><path class="cls-2" d="M553.89,191.57V173.45h-2.3L536.79,145h6.51l12.12,23.66h3.25L570.09,145h6.12L562.3,173.45H560v18.12Z" transform="translate(-6.28 -6.72)"/><path class="cls-2" d="M576,175.11V174c0-8.73,6.69-17.6,18.24-17.6s18.24,8.87,18.24,17.6v1.15c0,8.61-6.38,17.61-18.24,17.61S576,183.72,576,175.11Zm30.36-.57c0-7.27-4.66-12.69-12.12-12.69s-12.12,5.42-12.12,12.69,4.47,12.69,12.12,12.69S606.32,181.68,606.32,174.54Z" transform="translate(-6.28 -6.72)"/><path class="cls-2" d="M633,192.59c-8.1,0-12.57-5.42-12.57-15.37V157.45h6.13v21c0,5.36,3.12,8.55,8,8.55,5.11,0,8.68-3.51,8.68-9.19V157.45h6.12v34.12h-4.85v-7.85c-1.53,5.81-5.23,8.87-11.29,8.87Z" transform="translate(-6.28 -6.72)"/><path class="cls-2" d="M660.16,191.57V157.51H665v10.2c1.08-7.27,5.35-10.58,12.88-10.58H679v5.48h-2.17c-6.82,0-10.59,3.76-10.59,10.53v18.43Z" transform="translate(-6.28 -6.72)"/><path class="cls-2" d="M701.75,191.82V144.75h15.94c16.78,0,24.88,11.55,24.88,22.77v1.41c0,11-8.1,22.89-24.88,22.89ZM708,150.49v35.59h10.33c11.16,0,17.86-7.78,17.86-17.86,0-10.45-6.7-17.73-17.86-17.73Z" transform="translate(-6.28 -6.72)"/><path class="cls-2" d="M751.31,191.57V157.51h4.85v10.2c1.08-7.27,5.35-10.58,12.88-10.58h1.15v5.48H768c-6.82,0-10.59,3.76-10.59,10.53v18.43Z" transform="translate(-6.28 -6.72)"/><path class="cls-2" d="M773.38,181.36c0-7.2,5-11,13.9-11h8.61v-.83c0-4.65-2.49-7.08-7.14-7.08-4,0-8.61.2-11.42.39v-5.36c2.75-.25,6.32-.38,9.38-.38,10.46,0,15,3.38,15,12.88v21.56h-4.85v-6.76c-1.46,5-5.23,7.65-11.16,7.65C778,192.46,773.38,188.44,773.38,181.36Zm22.51-2.42V175H787c-4.91,0-7.66,2.61-7.66,6.37s2.75,6.25,7.66,6.25C791.3,187.61,795.64,185.57,795.89,178.94Z" transform="translate(-6.28 -6.72)"/><path class="cls-2" d="M817.26,191.57l-9.63-34.06h5.87l8,29.21h1.28l5.87-28.06H837l6.82,28.06h1.28l7-29.21h5.54l-8.35,34.06h-9.51l-6.95-28.32-6,28.32Z" transform="translate(-6.28 -6.72)"/><path class="cls-2" d="M868.36,191.57V162.36h-5.23v-4.85h11.35v34.06Zm-2.3-43.37c0-2.23,1.28-3.83,4-3.83s4,1.6,4,3.83-1.28,3.82-4,3.82S866.06,150.43,866.06,148.2Z" transform="translate(-6.28 -6.72)"/><path class="cls-2" d="M885.21,191.57V157.51h4.84v7.91c1.54-5.81,5.43-8.93,11.87-8.93h.25c8.55,0,12.63,5.55,12.63,15.63v19.45h-6.12V170.84c0-5.29-3.19-8.74-8.36-8.74-5.35,0-9,3.64-9,9.12v20.35Z" transform="translate(-6.28 -6.72)"/><path class="cls-2" d="M929.1,204.13V199a71,71,0,0,0,9.57.76c9.31,0,12.69-3.57,12.69-11.93v-3.06c-2.48,4.79-7.08,7.08-12.24,7.08-9.57,0-16.14-8-16.14-17.41v-1.15c0-9.56,6.76-16.9,16.46-16.9,5.93,0,10.58,2.74,12.94,7.72v-6.57h4.85v30c0,12.24-5.23,17.28-18.81,17.28A61.65,61.65,0,0,1,929.1,204.13ZM951.36,175v-2.94c0-6.82-5.23-10.59-11-10.59-6.7,0-11.23,4.91-11.23,12.38s4.66,12.37,11.17,12.37C946.32,186.21,951.36,182,951.36,175Z" transform="translate(-6.28 -6.72)"/><path class="cls-2" d="M965.4,181.87h5.74c.13,2.68,2.36,5.49,8.42,5.49,5.42,0,8.42-2.43,8.42-5.61,0-2.81-2-4.34-6.76-4.85l-3.7-.38c-6.51-.71-11-3.83-11-9.64,0-6.5,5.35-10.39,13-10.39s12.82,3.44,13,10.14h-5.74c-.13-2.74-2.49-4.91-7.27-4.91s-7.27,2.23-7.27,5.16c0,2.56,1.59,4.09,5.61,4.53l3.7.39c7.27.76,12.12,4,12.12,9.95,0,6.37-5.87,10.84-14.16,10.84C970.63,192.59,965.59,188.51,965.4,181.87Z" transform="translate(-6.28 -6.72)"/></svg>