<?xml version="1.0" standalone="no"?>
<!DOCTYPE svg PUBLIC "-//W3C//DTD SVG 20010904//EN"
 "http://www.w3.org/TR/2001/REC-SVG-20010904/DTD/svg10.dtd">
<svg version="1.0" xmlns="http://www.w3.org/2000/svg"
 width="1280.000000pt" height="1280.000000pt" viewBox="0 0 1200.000000 1000.000000"
 preserveAspectRatio="xMidYMid meet">
<metadata>
Created by potrace 1.15, written by Peter Selinger 2001-2017
</metadata>
<g transform="translate(0.000000,932.000000) scale(0.100000,-0.100000)"
fill="#000000" stroke="none">
<path d="M9180 8125 l0 -1195 1195 0 1195 0 0 1195 0 1195 -1195 0 -1195 0 0
-1195z m1794 642 c17 -13 2 -40 -215 -378 -128 -200 -318 -487 -423 -638
l-190 -273 -18 22 c-42 52 -358 588 -358 607 0 5 43 30 95 56 l95 47 105 -210
c58 -116 110 -208 115 -205 5 3 179 226 387 495 208 270 380 490 383 490 4 0
14 -6 24 -13z"/>
<path d="M6070 4833 l0 -2573 275 0 275 0 0 2085 c0 2044 0 2085 19 2085 18 0
1715 120 2192 155 113 8 209 15 212 15 4 0 7 36 7 80 l0 80 -1215 0 -1215 0 0
320 0 319 -275 3 -275 3 0 -2572z"/>
<path d="M9180 6585 l0 -305 145 0 145 0 0 140 0 140 380 0 380 0 0 -140 0
-140 145 0 145 0 0 140 0 140 380 0 380 0 0 -140 0 -140 145 0 145 0 0 305 0
305 -1195 0 -1195 0 0 -305z"/>
<path d="M1275 6650 c-2 -8 -56 -240 -120 -515 -64 -275 -138 -594 -165 -710
-63 -271 -289 -1246 -386 -1665 -42 -179 -78 -333 -80 -342 -5 -17 -26 -18
-265 -18 l-259 0 0 -325 0 -325 1775 0 1775 0 0 325 0 325 -175 0 -175 0 0
239 c0 350 38 325 -502 329 l-398 3 -5 22 c-2 12 -16 83 -30 157 -70 359 -151
609 -225 693 -82 94 -233 118 -445 72 -39 -9 -76 -20 -84 -24 -12 -8 21 -140
335 -1346 19 -71 34 -134 34 -140 0 -7 -140 -10 -400 -10 -220 0 -400 3 -400
6 0 6 28 128 200 869 72 311 158 680 190 820 33 140 107 460 165 710 58 250
109 467 112 483 l6 27 1051 0 1052 0 37 -157 c183 -785 296 -1278 292 -1282
-3 -2 -189 -113 -413 -247 -223 -133 -415 -253 -425 -266 -15 -21 -16 -28 -6
-51 20 -44 102 -90 168 -95 55 -3 58 -3 219 94 89 53 164 95 167 93 2 -2 146
-228 319 -502 l317 -498 30 -126 c16 -69 28 -131 26 -138 -3 -6 -203 -129
-444 -273 l-439 -262 -1777 0 c-977 0 -1777 -4 -1777 -8 0 -19 140 -1571 145
-1609 l6 -43 140 0 139 0 0 84 c0 102 22 235 56 341 107 328 352 582 660 683
149 49 371 54 523 13 271 -73 518 -285 645 -554 69 -147 103 -283 113 -458 l6
-109 795 0 795 0 -7 60 c-4 34 -7 111 -7 172 2 552 352 1031 856 1168 113 31
318 38 438 16 156 -30 284 -84 426 -181 l81 -54 0 2269 0 2270 -275 0 -275 0
0 -1710 0 -1711 -142 3 -142 3 -42 180 c-51 223 -181 781 -314 1355 -136 588
-246 1061 -336 1447 -45 196 -74 343 -74 377 0 38 -4 56 -12 56 -7 0 -700 1
-1541 3 -1350 2 -1528 0 -1532 -13z m2979 -2057 c16 -51 92 -393 86 -386 -12
13 -200 312 -206 326 -2 7 19 26 48 44 62 38 65 38 72 16z"/>
<path d="M5125 2235 c-393 -62 -711 -369 -822 -794 -31 -118 -42 -327 -23
-452 71 -492 441 -872 893 -918 109 -11 244 -1 342 26 75 20 228 90 291 134
71 49 197 172 253 248 229 309 280 745 131 1117 -140 350 -445 595 -803 643
-97 14 -160 13 -262 -4z m280 -622 c65 -22 117 -58 172 -115 143 -152 174
-388 76 -582 -35 -69 -135 -166 -205 -199 -31 -15 -84 -31 -118 -35 -233 -32
-434 126 -487 383 -13 68 -14 91 -4 160 45 293 311 477 566 388z"/>
<path d="M1474 1949 c-415 -48 -747 -434 -771 -895 -21 -401 192 -773 532
-930 210 -97 472 -99 679 -5 205 93 384 284 469 502 235 594 -121 1257 -713
1329 -93 11 -94 11 -196 -1z m218 -551 c51 -17 135 -76 168 -118 143 -180 125
-440 -40 -593 -81 -75 -147 -100 -255 -95 -64 2 -92 9 -140 32 -277 137 -302
559 -42 731 92 61 208 77 309 43z"/>
</g>
</svg>
