<?xml version="1.0" encoding="utf-8" ?>
<!-- Generated by AutoXChange V20.05.34 from Tailor Made Software -->
<!-- www.tailormade.com -->
<!DOCTYPE svg PUBLIC '-//W3C//DTD SVG 1.0//EN' 
'http://www.w3.org/TR/2001/REC-SVG-20010904/DTD/svg10.dtd'>
<svg contentScriptType="text/ecmascript" xmlns:xlink="http://www.w3.org/1999/xlink" zoomAndPan="magnify" 
contentStyleType="text/css" preserveAspectRatio="xMidYMid meet" 
width="1332" height="1332" viewBox="0 0 1332 1332" 
version="1.1" xmlns="http://www.w3.org/2000/svg" xmlns:cvjs="http://www.tailormade.com/" stroke-linecap="butt" stroke-linejoin="round" fill-rule="evenodd" >
<defs>
	<style id="cv_styles" type = "text/css">
	    <![CDATA[
	    svg{ background-color: white; }
		:root {
		    --tmsMinLineWidth: 0.6;
		    --tmsbPostFix: 0;
		}
		.tmsPoints {
		    fill: none;
		    stroke-width: var(--tmsMinLineWidth);
		    r: calc(var(--tmsMinLineWidth)/2.0);
		}
		.ZW {
		    stroke-width: var(--tmsMinLineWidth);
		}
		.ZW6 {
		    stroke-width: var(--tmsMinLineWidth*6);
		}
		.ZW10 {
		    stroke-width: var(--tmsMinLineWidth*10);
		}
		.nZW {
		}
		.hyperlinks:hover {
		    stroke-width: 3;
		}
		.hyperimage image{
			opacity: 0;
		}
		.hyperimage:hover image{
			opacity: 1;
		}
		.hyperimage:hover path{
			stroke-width: 3;
		}
		.hyperimage:visited{
			color: red;
		}
	]]></style>
	</defs>
<metadata>
<text id="cadviewer_worldUnits">
{ "globalOrigin": { "x": -9.06401, "y" : -5.68795}, 
						"units": "mm",
						"svgToWorldUnits": 73.4774
}
</text>
<text id="cadviewer_drawingCoordinates">
{ "DWG": 
    { "lowerLeft": { "x": 132.149, "y" : 159.244}, 
      "upperRight": { "x": 150.277, "y" : 170.62} 
    },
 "SVG": 
    { "lowerLeft": { "x": 584, "y" : 1332}, 
      "upperRight": { "x": 1916, "y" : 0} 
    },
 "Drawing Height": 1332
}
</text>
<text id="cadviewer_vqBuilding"></text>
<text id="cadviewer_vqFloor"></text>
<text id="cadviewer_multiPages">
{ "multiPages": 2, 
                   "currentPage":1,
                   "pages" : [
                        { "fileName":"H1", "pageName":"ModelSpace"},
                        { "fileName":"H1__Layout01", "pageName":"Layout1"}
                   ]
}
</text>
</metadata>
<g id="cv_main_drawing">
<g id="layer_0" class="layer_0"  cvjs:layerName="0" cvjs:status="ON" visibility="visible">
<g id="cvclr_1" stroke="none" fill="#F00" opacity="1.">
<path id="cv_2" d="M1029.8,108.14l-49.23,-29.17l-51.55,-24.84l-53.49,-20.32l-55.04,-15.65l-56.18,-10.87l-56.91,-6.01l-57.21,-1.1l-57.1,3.82l-56.56,8.7l-55.6,13.53l-54.24,18.25l-52.47,22.84l-50.31,27.26l-47.79,31.47l-44.91,35.46l-41.7,39.19l-38.18,42.62l-34.38,45.74l-30.33,48.52l-26.05,50.95l-21.58,53l-16.95,54.65l-12.2,55.91l-7.36,56.75l-2.46,57.17l2.28,55.04l6.82,54.67l11.32,53.92l15.73,52.8l20.04,51.32l24.22,49.48l28.22,47.31l32.04,44.82l35.63,42.02l38.98,38.93l42.07,35.57l44.86,31.98L1029.8,108.14 Z "/>
</g>
<g id="cvclr_3" stroke="#000" fill="none">
<path id="cv_4" class=" ZW" stroke-width="0.6" d="M302.2,1223.86L1029.8,108.14" />
<circle id="cv_5" class="ZW" cx="666" cy="666" r="666" />
</g>
<g style="font-family: txt, arial, helvetica, sans-serif" stroke="none" fill="#000">
<g font-size="434.569" stroke="none" fill="#000">
<text id="cv_6" x="274.47" y="624.84" transform="translate(274.47 -624.84) scale(1.05556 1) translate(-274.47 624.84) " >H</text>
<text id="cv_7" x="792.88" y="1051.21" transform="translate(792.88 -1051.21) scale(1.05556 1) translate(-792.88 1051.21) " >1</text>
</g>
</g>
</g>
</g></svg>