<?xml version="1.0" encoding="UTF-8" standalone="no"?>
<svg
   xmlns:dc="http://purl.org/dc/elements/1.1/"
   xmlns:cc="http://creativecommons.org/ns#"
   xmlns:rdf="http://www.w3.org/1999/02/22-rdf-syntax-ns#"
   xmlns:svg="http://www.w3.org/2000/svg"
   xmlns="http://www.w3.org/2000/svg"
   viewBox="-1100 -200 2200 2200"
   height="2200"
   width="2200"
   xml:space="preserve"
   id="svg2"
   version="1.1"><metadata
     id="metadata8"><rdf:RDF><cc:Work
         rdf:about=""><dc:format>image/svg+xml</dc:format><dc:type
           rdf:resource="http://purl.org/dc/dcmitype/StillImage" /></cc:Work></rdf:RDF></metadata><defs
     id="defs6" /><g
     id="g10"><g
       id="g12"><path
         id="path72"
         style="fill:#e11a22;fill-opacity:1;fill-rule:nonzero;stroke:none"
         d="m 649.14,0 c -432.78,-92.19 -865.49,-92.19 -1298.28,0 -122.12,26.01 -217.28,121.17 -243.3,243.3 -92.18,432.78 -92.18,865.49 0,1298.28 26.02,122.12 121.18,217.28 243.3,243.29 432.79,92.19 865.5,92.19 1298.28,0 122.13,-26.01 217.29,-121.17 243.3,-243.29 92.19,-432.79 92.19,-865.5 0,-1298.28 -26.01,-122.13 -121.17,-217.29 -243.3,-243.3" /><path
         id="path74"
         style="fill:#ffffff;fill-opacity:1;fill-rule:nonzero;stroke:none"
         d="m 0,1407.34 c -18.88,0 -34.25,-15.36 -34.25,-34.25 v -724.8 c 0,-20.41 -10.59,-39.36 -27.98,-50.05 -35.68,-21.95 -56.99,-59.9 -56.99,-101.49 0,-65.73 53.49,-119.22 119.22,-119.22 65.74,0 119.22,53.49 119.22,119.22 0,41.59 -21.31,79.54 -56.99,101.49 -17.38,10.69 -27.97,29.64 -27.97,50.05 v 724.8 c 0,18.89 -15.37,34.25 -34.26,34.25 z m 0,-1147.34 c -130.54,0 -236.74,106.21 -236.74,236.75 0,71.15 31.22,136.85 84.96,181.53 v 694.81 c 0,83.7 68.09,151.78 151.78,151.78 83.69,0 151.78,-68.08 151.78,-151.78 v -694.81 c 53.74,-44.68 84.97,-110.38 84.97,-181.53 0,-130.54 -106.21,-236.75 -236.75,-236.75" /><path
         id="path76"
         style="fill:#ffffff;fill-opacity:1;fill-rule:nonzero;stroke:none"
         d="m 388.10,1456.65 c -26.51,0 -48.08,-21.57 -48.08,-48.08 0,-26.51 21.57,-48.08 48.08,-48.08 26.51,0 48.08,21.57 48.08,48.08 0,26.51 -21.57,48.08 -48.08,48.08 z m 0,-213.69 c -91.32,0 -165.61,74.29 -165.61,165.61 0,91.32 74.29,165.61 165.61,165.61 91.32,0 165.61,-74.29 165.61,-165.61 0,-91.32 -74.29,-165.61 -165.61,-165.61" />
</g></g></svg>