<?xml version="1.0" encoding="UTF-8" standalone="no"?>
<svg
   xmlns:dc="http://purl.org/dc/elements/1.1/"
   xmlns:cc="http://creativecommons.org/ns#"
   xmlns:rdf="http://www.w3.org/1999/02/22-rdf-syntax-ns#"
   xmlns:svg="http://www.w3.org/2000/svg"
   xmlns="http://www.w3.org/2000/svg"
   viewBox="-1400 -200 2200 2200"
   height="2200"
   width="2200"
   xml:space="preserve"
   id="svg2"
   version="1.1"><metadata
     id="metadata8"><rdf:RDF><cc:Work
         rdf:about=""><dc:format>image/svg+xml</dc:format><dc:type
           rdf:resource="http://purl.org/dc/dcmitype/StillImage" /></cc:Work></rdf:RDF></metadata><defs
     id="defs6" /><g
     id="g10"><g
       id="g12"><path
         id="path14"
         style="fill:#6bc62e;fill-opacity:1;fill-rule:nonzero;stroke:none"
		 d="m 364.06,0 c -432.78,-92.18 -865.49,-92.18 -1298.28,0 -122.12,26.02 -217.28,121.18 -243.3,243.3 -92.18,432.79 -92.18,865.5 0,1298.28 26.02,122.13 121.18,217.29 243.3,243.3 432.79,92.19 865.5,92.19 1298.28,0 122.13,-26.01 217.29,-121.17 243.3,-243.3 92.19,-432.78 92.19,-865.49 0,-1298.28 -26.01,-122.12 -121.17,-217.28 -243.3,-243.3" /><path
         id="path16"
         style="fill:#ffffff;fill-opacity:1;fill-rule:nonzero;stroke:none"
		 d="m 0,1057.97 c -119.21,0 -234.72,46.7 -325.25,131.52 -68.68,64.33 -155.65,99.76 -244.91,99.76 -89.26,0 -176.24,-35.43 -244.91,-99.76 -23.68,-22.2 -60.87,-20.99 -83.06,2.7 -22.18,23.69 -20.97,60.87 2.71,83.06 90.53,84.82 206.05,131.53 325.26,131.53 119.21,0 234.72,-46.71 325.26,-131.53 68.67,-64.33 155.65,-99.76 244.9,-99.76 89.26,0 176.24,35.43 244.92,99.77 23.67,22.17 60.86,20.97 83.06,-2.72 22.19,-23.69 20.97,-60.87 -2.71,-83.06 -90.54,-84.81 -206.06,-131.51 -325.27,-131.51" /><path
         id="path18"
         style="fill:#ffffff;fill-opacity:1;fill-rule:nonzero;stroke:none"         
		 d="m 0,718.03 c -119.21,0 -234.72,46.71 -325.25,131.53 -68.68,64.33 -155.65,99.76 -244.91,99.76 -89.26,0 -176.24,-35.43 -244.91,-99.76 -23.68,-22.19 -60.87,-20.98 -83.06,2.71 -22.18,23.68 -20.97,60.87 2.71,83.06 90.53,84.81 206.05,131.52 325.26,131.52 119.21,0 234.72,-46.71 325.26,-131.52 68.67,-64.34 155.65,-99.77 244.9,-99.77 89.26,0 176.24,35.43 244.91,99.77 23.69,22.19 60.88,20.98 83.06,-2.71 22.19,-23.69 20.98,-60.87 -2.7,-83.06 -90.54,-84.82 -206.05,-131.53 -325.27,-131.53" /><path
 /></g></g></svg>