<?xml version="1.0" encoding="UTF-8" standalone="no"?>
<svg
   xmlns:dc="http://purl.org/dc/elements/1.1/"
   xmlns:cc="http://creativecommons.org/ns#"
   xmlns:rdf="http://www.w3.org/1999/02/22-rdf-syntax-ns#"
   xmlns:svg="http://www.w3.org/2000/svg"
   xmlns="http://www.w3.org/2000/svg"
   viewBox="1800 -200 2200 2200"
   height="2200"
   width="2200"
   xml:space="preserve"
   id="svg2"
   version="1.1"><metadata
     id="metadata8"><rdf:RDF><cc:Work
         rdf:about=""><dc:format>image/svg+xml</dc:format><dc:type
           rdf:resource="http://purl.org/dc/dcmitype/StillImage" /></cc:Work></rdf:RDF></metadata><defs
     id="defs6" /><g
     id="g10"><g
       id="g12"><path
         id="path20"
         style="fill:#ffffff;fill-opacity:1;fill-rule:nonzero;stroke:none"
		 d="m 0,378.11 c -119.21,0 -234.72,46.7 -325.25,131.52 -68.68,64.34 -155.65,99.77 -244.91,99.77 -89.26,0 -176.24,-35.43 -244.91,-99.77 -23.68,-22.19 -60.87,-20.98 -83.06,2.71 -22.18,23.68 -20.97,60.87 2.71,83.06 90.53,84.82 206.05,131.52 325.26,131.52 119.21,0 234.72,-46.7 325.26,-131.52 68.67,-64.34 155.65,-99.77 244.9,-99.77 89.26,0 176.24,35.43 244.91,99.77 23.69,22.19 60.88,20.98 83.06,-2.71 22.19,-23.68 20.98,-60.87 -2.7,-83.06 -90.54,-84.82 -206.05,-131.52 -325.27,-131.52" /><path
         id="path22"
         style="fill:#61ccf5;fill-opacity:1;fill-rule:nonzero;stroke:none"
		 d="m 3599.69,0 c -432.79,-92.18 -865.5,-92.18 -1298.28,0 -122.13,26.02 -217.29,121.18 -243.3,243.3 -92.19,432.79 -92.19,865.5 0,1298.28 26.01,122.13 121.17,217.29 243.3,243.3 432.78,92.19 865.49,92.19 1298.28,0 122.12,-26.01 217.28,-121.17 243.3,-243.3 92.18,-432.78 92.18,-865.49 0,-1298.28 -26.02,-122.12 -121.18,-217.28 -243.3,-243.3" /><path
         id="path24"
         style="fill:#ffffff;fill-opacity:1;fill-rule:nonzero;stroke:none"
		 d="m 3052.62,951.21 c 71.74,101.69 164.59,153.12 276.99,153.12 110.18,0 164.38,-45.2 177.54,-153.12 z m 109.82,-437.83 c 0,-110.17 -45.21,-164.37 -153.13,-177.54 v 454.52 c 101.7,-71.74 153.13,-164.59 153.13,-276.98 z m -590.95,167.18 c -110.18,0 -164.38,45.2 -177.54,153.12 h 454.52 c -71.74,-101.7 -164.6,-153.12 -276.98,-153.12 z m 167.17,590.95 c 0,110.17 45.2,164.37 153.13,177.53 V 994.52 c -101.7,71.74 -153.13,164.6 -153.13,276.99 z m 590.95,-49.65 c -125.05,0 -233.42,-47.39 -320.3,-138.6 v 427.78 c 0,32.45 -26.31,58.76 -58.76,58.76 -272.27,0 -329.42,-162.21 -329.42,-298.29 0,-125.06 47.39,-233.43 138.6,-320.3 h -427.78 c -32.45,0 -58.76,-26.31 -58.76,-58.77 0,-272.26 162.22,-329.41 298.3,-329.41 125.05,0 233.42,47.39 320.3,138.6 v -427.78 c 0,-32.45 26.31,-58.76 58.76,-58.76 272.26,0 329.41,162.21 329.41,298.29 0,125.05 -47.39,233.42 -138.6,320.3 h 427.78 c 32.45,0 58.76,26.31 58.76,58.76 0,272.27 -162.21,329.42 -298.29,329.42" /><path
 /></g></g></svg>