<?xml version="1.0" encoding="iso-8859-1"?>
<!-- Generator: Adobe Illustrator 19.0.0, SVG Export Plug-In . SVG Version: 6.00 Build 0)  -->
<svg version="1.1" id="Layer_1" xmlns="http://www.w3.org/2000/svg" xmlns:xlink="http://www.w3.org/1999/xlink" x="0px" y="0px"
	 viewBox="0 0 512 512" style="enable-background:new 0 0 512 512;" xml:space="preserve">
<path style="fill:#CEE8FA;" d="M309.256,157.801H161.873L75.252,301.353h63.801L89.977,497.759l220.382-249.574h-64.866
	L309.256,157.801z"/>
<path style="fill:#2D527C;" d="M449.726,98.77c-2.301-5.103-7.382-8.385-12.979-8.385h-37.396l47.926-67.938
	c3.066-4.346,3.454-10.039,1.007-14.762C445.836,2.965,440.961,0,435.642,0H288.259c-4.989,0-9.614,2.61-12.193,6.882
	l-82.472,136.679h-31.722c-4.989,0-9.614,2.61-12.193,6.882L63.061,293.997c-2.653,4.398-2.732,9.883-0.208,14.357
	s7.263,7.239,12.399,7.239h45.567L76.162,494.309c-1.591,6.369,1.378,12.999,7.188,16.055c2.099,1.104,4.369,1.636,6.621,1.636
	c3.983,0,7.904-1.672,10.679-4.814l220.382-249.574c3.706-4.196,4.608-10.175,2.305-15.279c-2.301-5.103-7.382-8.385-12.979-8.385
	h-37.395l47.926-67.938c3.064-4.346,3.453-10.039,1.005-14.76s-7.323-7.686-12.642-7.686h-82.398l69.442-115.085h111.874
	l-47.926,67.938c-3.066,4.346-3.454,10.039-1.007,14.762c2.448,4.722,7.323,7.686,12.642,7.686h33.297l-44.177,50.029
	c-5.204,5.895-4.646,14.893,1.249,20.099c2.708,2.391,6.07,3.565,9.419,3.565c3.943,0,7.864-1.628,10.679-4.814l65.073-73.693
	C451.126,109.852,452.029,103.873,449.726,98.77z M233.858,239.978c-3.064,4.346-3.453,10.039-1.005,14.76s7.323,7.686,12.642,7.686
	h33.297L117.944,444.578l34.926-139.772c1.062-4.253,0.105-8.76-2.592-12.216c-2.7-3.456-6.839-5.476-11.223-5.476h-38.58
	l69.436-115.074h111.873L233.858,239.978z"/>
<g>
</g>
<g>
</g>
<g>
</g>
<g>
</g>
<g>
</g>
<g>
</g>
<g>
</g>
<g>
</g>
<g>
</g>
<g>
</g>
<g>
</g>
<g>
</g>
<g>
</g>
<g>
</g>
<g>
</g>
</svg>
