<?xml version="1.0" standalone="no"?><!DOCTYPE svg PUBLIC "-//W3C//DTD SVG 1.1//EN" "http://www.w3.org/Graphics/SVG/1.1/DTD/svg11.dtd"><svg class="icon" height="512" viewBox="0 0 1024 1024" version="1.1" xmlns="http://www.w3.org/2000/svg"><path d="M719.018667 491.163152a321.954909 321.954909 0 0 0-206.211879-74.821819c-75.326061 0-148.324848 26.437818-205.723152 74.488243-11.372606 9.518545-12.877576 26.414545-3.343515 37.655272 9.534061 11.372606 26.430061 12.869818 37.663031 3.351273 47.685818-40.013576 108.629333-61.952 171.403636-61.952s123.710061 22.093576 171.752727 62.409697a26.686061 26.686061 0 0 0 17.237333 6.190546c7.71103 0 15.251394-3.343515 20.619637-9.518546 9.518545-11.535515 8.021333-28.462545-3.351273-37.849212l-0.046545 0.046546z" fill="#1E8ABE" /><path d="M813.412848 396.621576a454.694788 454.694788 0 0 0-301.785212-114.346667c-111.313455 0-218.282667 40.502303-301.296484 113.819152a26.926545 26.926545 0 0 0-2.335031 37.849212 26.957576 26.957576 0 0 0 37.849212 2.33503c73.146182-64.79903 167.563636-100.445091 265.828849-100.445091a401.532121 401.532121 0 0 1 266.139151 100.755394 26.220606 26.220606 0 0 0 17.726061 6.68703c7.385212 0 14.739394-3.025455 20.107636-9.053091a26.585212 26.585212 0 0 0-2.156606-37.66303l-0.077576 0.062061zM620.761212 585.239273a186.174061 186.174061 0 0 0-109.094788-35.149576c-39.493818 0-77.009455 12.070788-108.644848 34.660848a26.771394 26.771394 0 0 0 31.162182 43.52c22.380606-16.089212 49.229576-24.614788 77.490424-24.614787 28.121212 0 55.063273 8.719515 78.025697 24.963878a26.786909 26.786909 0 0 0 15.538424 5.011394 26.561939 26.561939 0 0 0 21.783273-11.225212c8.719515-11.892364 5.880242-28.625455-6.190546-37.158788h-0.069818zM511.813818 684.008727c-7.012848 0-13.917091 2.823758-18.91297 7.881697a27.027394 27.027394 0 0 0-7.873939 18.897455 26.763636 26.763636 0 0 0 7.873939 18.928485 26.841212 26.841212 0 0 0 18.91297 7.866181c7.005091 0 13.901576-2.808242 18.91297-7.866181a26.918788 26.918788 0 0 0 7.873939-18.928485c0-6.997333-2.823758-13.909333-7.873939-18.897455a26.841212 26.841212 0 0 0-18.91297-7.881697z" fill="#1E8ABE" /></svg>