<svg width="64" height="64" viewBox="0 0 64 64" fill="none" xmlns="http://www.w3.org/2000/svg">
<path d="M46.8 6.30078L61.7 32.0008L46.8 57.7008H17.2L2.3 32.0008L17.2 6.30078H46.8ZM48 4.30078H16L0 32.0008L16 59.7008H48L64 32.0008L48 4.30078Z" fill="black"/>
<path d="M22.8389 32.2065L27.1717 31.7853C27.4325 33.2396 27.9591 34.3078 28.7514 34.9898C29.5538 35.6718 30.632 36.0128 31.986 36.0128C33.4202 36.0128 34.4984 35.7119 35.2206 35.1102C35.9527 34.4983 36.3188 33.7862 36.3188 32.9738C36.3188 32.4523 36.1634 32.011 35.8524 31.6499C35.5516 31.2788 35.02 30.9578 34.2577 30.687C33.7362 30.5065 32.5477 30.1856 30.6922 29.7242C28.3051 29.1324 26.6301 28.4053 25.6673 27.5427C24.3133 26.3291 23.6362 24.8497 23.6362 23.1046C23.6362 21.9812 23.9522 20.9331 24.5841 19.9603C25.226 18.9773 26.1437 18.2301 27.3372 17.7186C28.5408 17.2071 29.9901 16.9513 31.6851 16.9513C34.4533 16.9513 36.5345 17.5581 37.9286 18.7717C39.3328 19.9853 40.0699 21.6051 40.1402 23.6311L35.687 23.8267C35.4964 22.6934 35.0852 21.881 34.4533 21.3895C33.8315 20.888 32.8937 20.6373 31.64 20.6373C30.3461 20.6373 29.3331 20.9031 28.601 21.4346C28.1296 21.7756 27.8939 22.232 27.8939 22.8037C27.8939 23.3252 28.1145 23.7716 28.5558 24.1427C29.1175 24.614 30.4815 25.1055 32.648 25.617C34.8144 26.1285 36.4141 26.6601 37.4472 27.2117C38.4903 27.7534 39.3027 28.5006 39.8844 29.4534C40.4761 30.3962 40.772 31.5646 40.772 32.9588C40.772 34.2225 40.421 35.406 39.7189 36.5093C39.0168 37.6126 38.0239 38.435 36.7401 38.9766C35.4563 39.5082 33.8565 39.774 31.9409 39.774C29.1526 39.774 27.0112 39.1321 25.5168 37.8483C24.0224 36.5544 23.1297 34.6739 22.8389 32.2065Z" fill="black"/>
</svg>
