<?xml version="1.0" standalone="no"?><!DOCTYPE svg PUBLIC "-//W3C//DTD SVG 1.1//EN" "http://www.w3.org/Graphics/SVG/1.1/DTD/svg11.dtd"><svg class="icon" height="512" viewBox="0 0 1024 1024" version="1.1" xmlns="http://www.w3.org/2000/svg"><path d="M877.526509 125.812427l-49.620118 50.306756c163.957189 185.934736 163.826206 469.313805 0.065492 656.600329l50.752918 51.472302C1068.559357 684.074054 1068.16743 325.230246 877.526509 125.812427zM761.601266 243.394403l-51.254338 51.972699c99.959619 120.195499 100.003622 297.352315 0.500397 418.46265l50.79692 51.603285C889.114428 615.417371 889.267924 392.135028 761.601266 243.394403zM193.949782 176.119183l-49.609884-50.306756C-46.332746 325.230246-46.703183 684.074054 143.120117 884.190791l50.752918-51.472302C30.102087 645.432988 29.960871 362.053919 193.949782 176.119183zM260.244674 243.394403c-127.677914 148.741649-127.503952 372.022968-0.054235 522.037611l50.818409-51.603285c-99.502202-121.110335-99.469456-298.267151 0.457418-418.46265L260.244674 243.394403zM510.66612 338.888314c-90.854241 0-164.479075 74.735122-164.479075 166.897148 0 92.139513 73.624834 166.897148 164.479075 166.897148 90.833775 0 164.501588-74.757634 164.501588-166.897148C675.167708 413.623435 601.499895 338.888314 510.66612 338.888314z" /></svg>