<?xml version="1.0" encoding="UTF-8"?>
<!-- Generator: Adobe Illustrator 13.0.0, SVG Export Plug-In . SVG Version: 6.00 Build 14948)  -->
<!DOCTYPE svg PUBLIC "-//W3C//DTD SVG 1.1//EN" "http://www.w3.org/Graphics/SVG/1.1/DTD/svg11.dtd">
<svg version="1.1" id="Layer_1" xmlns="http://www.w3.org/2000/svg" xmlns:xlink="http://www.w3.org/1999/xlink" x="0px" y="0px" width="300px" height="300px" viewBox="0 0 300 300" enable-background="new 0 0 300 300" xml:space="preserve">
<g>
	<g>
		<defs>
			<rect id="SVGID_1_" width="300" height="300.006"/>
		</defs>
		<clipPath id="SVGID_2_">
			<use xlink:href="#SVGID_1_" overflow="visible"/>
		</clipPath>
		<polygon clip-path="url(#SVGID_2_)" fill="#002A5F" points="149.997,0 0,0 0,150.003 0,300 149.997,300 300,300 300,150.003     300,0   "/>
		<path clip-path="url(#SVGID_2_)" fill="#FFFFFF" d="M215.544,77.491h6.216c5.879-0.006,8.609,5.475,8.609,9.62v64.514    c0.006,4.649-2.73,8.959-7.996,8.928h-6.829V77.491z M221.799,75.099h-24.727v2.392h6.543v145.018h-6.543v2.565h27.897v-2.565    h-9.426v-59.008h8.128c11.826,0,18.557-6.229,18.557-14.602V90.947C242.229,82.595,236.419,75.086,221.799,75.099"/>
		<path clip-path="url(#SVGID_2_)" fill="#FFFFFF" d="M90.922,77.024c0,2.392-1.395,2.212-2.513,1.427    c-4.017-2.821-8.942-4.85-13.341-4.817c-7.171,0.052-17.447,3.524-17.48,18.644v111.17c0.109,19.31,9.401,22.918,18.561,23.015    c7.131,0.068,10.526-3.697,13.411-4.954c1.522-0.664,3.187,0.872,3.187,3.725h2.961v-70.726h5.941v-2.378H76.557v2.378h7.279    v60.836c0,4.933-3.351,8.666-7.573,8.674c-4.067,0-7.183-3.863-7.183-8.674V87.858c-0.006-3.466,0.609-11.524,5.968-11.486    c10.316,0.077,15.792,30.245,15.868,45.851h2.961V75.016h-2.947L90.922,77.024z"/>
		<path clip-path="url(#SVGID_2_)" fill="#FFFFFF" d="M136.473,160.758l7.228-64.713l7.379,64.713H136.473z M151.382,163.405    l6.722,59.072h-6.607v2.564h24.828v-2.564h-6.542L153.287,75.066h-10.565l-15.324,139.225c-0.902,5.001-1.369,8.082-8.558,8.19    v2.561h18.618v-2.564c-5.269,0.004-7.655-3.365-7.137-6.946l5.853-52.126H151.382z"/>
	</g>
</g>
</svg>