<?xml version="1.0" encoding="utf-8"?>
<!-- Svg Vector Icons : http://www.onlinewebfonts.com/icon -->
<!DOCTYPE svg PUBLIC "-//W3C//DTD SVG 1.1//EN" "http://www.w3.org/Graphics/SVG/1.1/DTD/svg11.dtd">
<svg version="1.1" xmlns="http://www.w3.org/2000/svg" xmlns:xlink="http://www.w3.org/1999/xlink" x="0px" y="0px" viewBox="0 0 1000 1000" enable-background="new 0 0 1000 1000" xml:space="preserve">
<metadata> Svg Vector Icons : http://www.onlinewebfonts.com/icon </metadata>
<g><g><path d="M794,10H206C98.2,10,10,98.2,10,206v588c0,107.8,88.2,196,196,196h588c107.8,0,196-88.2,196-196V206C990,98.2,901.8,10,794,10z M590.4,132.5l131.8,34l-10.6,99.9H590.3H469.1l-10.6-99.9L590.4,132.5z M718.3,325.2c0,70.7-57.2,127.8-127.8,127.8h-0.1c-0.2,0-0.2,0-0.2,0c-70.5,0-127.7-57.2-127.7-127.8c0-13.7,2.8-26.7,6.7-39h121.3h121.3C715.6,298.5,718.3,311.4,718.3,325.2z M749.9,867.5l-18.2-188l-5.9,188H455.1c0,0-4.1-215.2-4.5-220.6L225.6,854.5c-7.2,7.2-16.7,10.8-26.2,10.8c-9.4,0-18.9-3.6-26.1-10.8c-14.5-14.4-14.5-37.8,0-52.3c0,0,236.5-284.2,300.3-304.3c36.8-11.6,61.3-14.9,104.6-14.9h12.2h12.4c119.2,0,167.8,39,199.2,103.1c9.2,18.9,24.3,164.2,35.5,281.5H749.9z M675.2,500.3c20.3,4.1,37.2,10.3,51.5,18L532.5,865.8h-61.6L675.2,500.3z"/></g><g></g><g></g><g></g><g></g><g></g><g></g><g></g><g></g><g></g><g></g><g></g><g></g><g></g><g></g><g></g></g>
</svg>