<?xml version="1.0" encoding="UTF-8" standalone="no"?>
<svg
   xmlns:dc="http://purl.org/dc/elements/1.1/"
   xmlns:cc="http://creativecommons.org/ns#"
   xmlns:rdf="http://www.w3.org/1999/02/22-rdf-syntax-ns#"
   xmlns:svg="http://www.w3.org/2000/svg"
   xmlns="http://www.w3.org/2000/svg"
   viewBox="-1700 -200 2200 2200"
   height="2200"
   width="2200"
   xml:space="preserve"
   id="svg2"
   version="1.1"><metadata
     id="metadata8"><rdf:RDF><cc:Work
         rdf:about=""><dc:format>image/svg+xml</dc:format><dc:type
           rdf:resource="http://purl.org/dc/dcmitype/StillImage" /></cc:Work></rdf:RDF></metadata><defs
     id="defs6" /><g
     id="g10"><g
       id="g12"><path
         id="path32"
         style="fill:#ec008c;fill-opacity:1;fill-rule:nonzero;stroke:none"
         d="m 33.4,0 c -432.8,-92.18 -865.5,-92.18 -1298.3,0 -122.1,26.02 -217.3,121.18 -243.3,243.3 -92.2,432.79 -92.2,865.5 0,1298.28 26,122.13 121.2,217.29 243.3,243.3 432.8,92.19 865.5,92.19 1298.3,0 122.1,-26.01 217.3,-121.17 243.3,-243.3 92.2,-432.78 92.2,-865.49 0,-1298.28 -26,-122.12 -121.2,-217.28 -243.3,-243.3" /><path
         id="path34"
         style="fill:#ffffff;fill-opacity:1;fill-rule:nonzero;stroke:none"
         d="m 0, 792.50 -274.9,-29.02 -223.3,128.96 223.3,128.97 274.9,-29.02 c 2.1,-0.22 4.2,-0.33 6.2,-0.33 29.7,0 55.2,22.42 58.4,52.6 3.4,32.27 -20,61.2 -52.3,64.61 l -114.1,12.05 50.5,29.14 c 28.1,16.23 37.7,52.17 21.5,80.27 -16.3,28.12 -52.2,37.73 -80.3,21.51 l -50.5,-29.14 46.7,104.89 c 13.2,29.65 -0.2,64.38 -29.9,77.57 -29.5,13.18 -64.3,-0.16 -77.5,-29.82 l -112.3,-252.55 -223.4,-128.96 v 257.92 l 162.6,223.54 c 19.1,26.24 13.3,63 -13,82.09 -26.3,19.09 -63,13.27 -82.1,-12.97 l -67.5,-92.84 v 58.28 c 0,32.45 -26.3,58.76 -58.8,58.76 -32.4,0 -58.7,-26.31 -58.7,-58.76 v -58.27 l -67.5,92.83 c -19.1,26.24 -55.9,32.06 -82.1,12.97 -26.3,-19.09 -32.1,-55.85 -13,-82.09 l 162.6,-223.54 v -257.92 l -223.4,128.96 -112.3,252.55 c -13.2,29.65 -47.9,43.03 -77.6,29.82 -29.6,-13.19 -43,-47.92 -29.8,-77.57 l 46.6,-104.89 -50.4,29.14 c -28.1,16.21 -64.1,6.59 -80.3,-21.51 -16.2,-28.1 -6.6,-64.04 21.5,-80.27 l 50.5,-29.14 -114.2,-12.05 c -32.2,-3.41 -55.6,-32.34 -52.2,-64.61 3.2,-30.18 28.6,-52.6 58.3,-52.6 2.1,0 4.2,0.11 6.3,0.33 l 274.8,29.02 223.4,-128.97 -223.4,-128.96 -274.8,29.02 c -32.2,3.31 -61.2,-20 -64.6,-52.28 -3.4,-32.27 20,-61.2 52.2,-64.61 l 114.2,-12.04 -50.5,-29.14 c -28.1,-16.23 -37.7,-52.16 -21.5,-80.27 10.9,-18.86 30.6,-29.39 51,-29.39 9.9,0 20,2.54 29.3,7.88 l 50.4,29.14 -46.6,-104.89 c -13.2,-29.65 0.2,-64.38 29.8,-77.57 7.8,-3.46 15.9,-5.09 23.9,-5.09 22.5,0 44,13.01 53.7,34.9 l 112.3,252.56 223.4,128.96 v -257.93 l -162.6,-223.53 c -19.1,-26.25 -13.3,-63 13,-82.09 10.4,-7.59 22.5,-11.24 34.5,-11.24 18.2,0 36.1,8.39 47.6,24.2 l 67.5,92.83 v -58.27 c 0,-32.45 26.3,-58.76 58.7,-58.76 32.5,0 58.8,26.31 58.8,58.76 v 58.28 l 67.5,-92.84 c 11.5,-15.81 29.4,-24.2 47.6,-24.2 12,0 24.1,3.65 34.5,11.24 26.3,19.09 32.1,55.84 13,82.09 l -162.6,223.53 v 257.93 l 223.4,-128.96 112.3,-252.56 c 9.7,-21.89 31.2,-34.9 53.7,-34.9 8,0 16.1,1.63 23.8,5.09 29.7,13.19 43.1,47.92 29.9,77.57 l -46.7,104.89 50.5,-29.14 c 9.3,-5.34 19.4,-7.88 29.3,-7.88 20.3,0 40.1,10.54 51,29.39 16.2,28.11 6.6,64.04 -21.5,80.27 l -50.5,29.14 114.1,12.04 c 32.3,3.41 55.7,32.34 52.3,64.61 -3.4,32.28 -32.4,55.68 -64.6,52.28" /><path
		 />
		 <path
   /></g></g></svg>