<?xml version="1.0" encoding="iso-8859-1"?>
<!-- Generator: Adobe Illustrator 19.0.0, SVG Export Plug-In . SVG Version: 6.00 Build 0)  -->
<svg version="1.1" id="Layer_1" xmlns="http://www.w3.org/2000/svg" xmlns:xlink="http://www.w3.org/1999/xlink" x="0px" y="0px"
	 viewBox="0 0 502 502" style="enable-background:new 0 0 502 502;" xml:space="preserve">
<g>
	<g>
		<polygon style="fill:#4FC497;" points="368.453,10 200.03,10 147.952,264.851 217.759,264.851 133.547,492 368.453,237.149 
			279.568,237.149 		"/>
		<path style="fill:#333333;" d="M133.543,502c-1.794,0-3.602-0.481-5.221-1.474c-4.072-2.496-5.811-7.524-4.151-12.003
			l79.215-213.673h-55.435c-3.003,0-5.848-1.35-7.747-3.676c-1.899-2.327-2.652-5.384-2.051-8.326l52.08-254.85
			C191.184,3.343,195.279,0,200.03,0h168.423c3.305,0,6.396,1.633,8.26,4.362c1.863,2.73,2.257,6.204,1.053,9.281L294.22,227.149
			h74.233c3.971,0,7.565,2.35,9.159,5.986s0.885,7.872-1.807,10.791L140.901,498.777C138.95,500.894,136.262,502,133.543,502z
			 M160.202,254.851h57.557c3.273,0,6.339,1.602,8.208,4.289c1.87,2.687,2.306,6.118,1.168,9.188l-66.597,179.635L345.635,247.15
			h-66.067c-3.305,0-6.396-1.633-8.26-4.362c-1.863-2.73-2.257-6.204-1.053-9.281L353.802,20H208.193L160.202,254.851z"/>
	</g>
	<g>
		<path style="fill:#333333;" d="M208.203,177.345c-0.714,0-1.439-0.077-2.166-0.237c-5.393-1.191-8.799-6.528-7.608-11.921
			l26.186-118.562c1.191-5.394,6.526-8.798,11.921-7.608c5.393,1.191,8.799,6.528,7.608,11.921L217.958,169.5
			C216.928,174.166,212.793,177.345,208.203,177.345z"/>
	</g>
	<g>
		<path style="fill:#333333;" d="M194.499,239.396c-0.714,0-1.439-0.077-2.166-0.237c-5.393-1.19-8.799-6.528-7.608-11.921
			l4.16-18.838c1.191-5.394,6.528-8.8,11.921-7.608c5.393,1.19,8.799,6.528,7.608,11.921l-4.16,18.838
			C203.224,236.217,199.089,239.396,194.499,239.396z"/>
	</g>
</g>
</svg>
