<?xml version="1.0" encoding="iso-8859-1"?>
<!-- Generator: Adobe Illustrator 18.0.0, SVG Export Plug-In . SVG Version: 6.00 Build 0)  -->
<!DOCTYPE svg PUBLIC "-//W3C//DTD SVG 1.1//EN" "http://www.w3.org/Graphics/SVG/1.1/DTD/svg11.dtd">
<svg version="1.1" id="Capa_1" xmlns="http://www.w3.org/2000/svg" xmlns:xlink="http://www.w3.org/1999/xlink" x="0px" y="0px"
	 viewBox="0 0 512 512" style="enable-background:new 0 0 512 512;" xml:space="preserve">
<path d="M400,224h-32V112C368,50.242,317.758,0,256,0S144,50.242,144,112v112h-32c-17.672,0-32,14.328-32,32v224
	c0,17.672,14.328,32,32,32h288c17.672,0,32-14.328,32-32V256C432,238.328,417.672,224,400,224z M272,397.063V432
	c0,8.836-7.164,16-16,16c-8.836,0-16-7.164-16-16v-34.938c-18.602-6.613-32-24.195-32-45.063c0-26.512,21.488-48,48-48
	c26.512,0,48,21.488,48,48C304,372.867,290.602,390.449,272,397.063z M208,224V112c0-26.469,21.531-48,48-48
	c26.469,0,48,21.531,48,48v112H208z"/>
<g>
</g>
<g>
</g>
<g>
</g>
<g>
</g>
<g>
</g>
<g>
</g>
<g>
</g>
<g>
</g>
<g>
</g>
<g>
</g>
<g>
</g>
<g>
</g>
<g>
</g>
<g>
</g>
<g>
</g>
</svg>
