<?xml version="1.0" encoding="UTF-8" standalone="no"?>
<!-- Created with Inkscape (http://www.inkscape.org/) -->
<svg xmlns:dc="http://purl.org/dc/elements/1.1/" xmlns:cc="http://creativecommons.org/ns#" xmlns:rdf="http://www.w3.org/1999/02/22-rdf-syntax-ns#" xmlns:svg="http://www.w3.org/2000/svg" xmlns="http://www.w3.org/2000/svg" xmlns:sodipodi="http://sodipodi.sourceforge.net/DTD/sodipodi-0.dtd" xmlns:inkscape="http://www.inkscape.org/namespaces/inkscape" width="203.6794" height="203.15108" id="svg3388" version="1.1" inkscape:version="0.48.2 r9819" sodipodi:docname="UNIQLO logo.svg">
  <defs id="defs3390"/>
  <sodipodi:namedview id="base" pagecolor="#ffffff" bordercolor="#666666" borderopacity="1.0" inkscape:pageopacity="0.0" inkscape:pageshadow="2" inkscape:zoom="0.98994949" inkscape:cx="71.552208" inkscape:cy="110.96551" inkscape:document-units="px" inkscape:current-layer="layer1" showgrid="false" inkscape:window-width="477" inkscape:window-height="464" inkscape:window-x="88" inkscape:window-y="88" inkscape:window-maximized="0" fit-margin-top="0" fit-margin-left="0" fit-margin-right="0" fit-margin-bottom="0"/>
  <metadata id="metadata3393">
    <rdf:RDF>
      <cc:Work rdf:about="">
        <dc:format>image/svg+xml</dc:format>
        <dc:type rdf:resource="http://purl.org/dc/dcmitype/StillImage"/>
        <dc:title/>
      </cc:Work>
    </rdf:RDF>
  </metadata>
  <g inkscape:label="Layer 1" inkscape:groupmode="layer" id="layer1" transform="translate(-364.0975,-319.35808)">
    <path inkscape:connector-curvature="0" d="m 364.0975,522.50915 203.6794,0 0,-203.15107 -203.6794,0 0,203.15107 z" style="fill:#ed1d24;fill-opacity:1;fill-rule:nonzero;stroke:none" id="path2995"/>
    <path inkscape:connector-curvature="0" d="m 514.04729,347.07141 13.04016,0 0,64.17615 -13.04016,0 0,-64.17615 z" style="fill:#ffffff;fill-opacity:1;fill-rule:nonzero;stroke:none" id="path2997"/>
    <g id="g3007" transform="matrix(8.0050071,0,0,-8.0050071,432.54511,389.92446)">
      <path d="m 0,0 c 0,-1.504 -1.147,-2.664 -2.647,-2.664 -1.497,0 -2.672,1.16 -2.672,2.664 l 0,5.353 1.589,0 0,-5.353 c 0,-0.608 0.483,-1.098 1.083,-1.098 0.603,0 1.082,0.49 1.082,1.098 l 0,5.353 L 0,5.353 0,0 z" style="fill:#ffffff;fill-opacity:1;fill-rule:nonzero;stroke:none" id="path3009" inkscape:connector-curvature="0"/>
    </g>
    <g id="g3011" transform="matrix(8.0050071,0,0,-8.0050071,492.80124,494.84192)">
      <path d="m 0,0 -5.354,0 0,8.014 1.623,0 0,-6.384 L 0,1.63 0,0 z" style="fill:#ffffff;fill-opacity:1;fill-rule:nonzero;stroke:none" id="path3013" inkscape:connector-curvature="0"/>
    </g>
    <g id="g3015" transform="matrix(8.0050071,0,0,-8.0050071,492.80124,411.24275)">
      <path d="m 0,0 -1.627,0 -2.104,4.593 0,-4.593 -1.623,0 0,8.017 1.623,0 2.104,-4.586 0,4.586 L 0,8.017 0,0 z" style="fill:#ffffff;fill-opacity:1;fill-rule:nonzero;stroke:none" id="path3017" inkscape:connector-curvature="0"/>
    </g>
    <g id="g3019" transform="matrix(8.0050071,0,0,-8.0050071,411.34382,430.69236)">
      <path d="m 0,0 c -1.495,0 -2.671,-1.198 -2.671,-2.648 l 0,-2.718 c 0,-1.431 1.176,-2.648 2.671,-2.648 0.181,0 0.357,0.019 0.525,0.05 l 0.558,-1.673 1.565,0 -0.741,2.408 c 0.434,0.496 0.741,1.171 0.741,1.863 l 0,2.718 C 2.648,-1.198 1.501,0 0,0 m 1.083,-5.366 c 0,-0.527 -0.479,-1.018 -1.083,-1.018 -0.599,0 -1.082,0.491 -1.082,1.018 l 0,2.718 c 0,0.599 0.483,1.08 1.082,1.08 0.604,0 1.083,-0.481 1.083,-1.08 l 0,-2.718 z" style="fill:#ffffff;fill-opacity:1;fill-rule:nonzero;stroke:none" id="path3021" inkscape:connector-curvature="0"/>
    </g>
    <g id="g3023" transform="matrix(8.0050071,0,0,-8.0050071,520.54499,430.69236)">
      <path d="m 0,0 c -1.499,0 -2.649,-1.198 -2.649,-2.648 l 0,-2.718 c 0,-1.431 1.15,-2.648 2.649,-2.648 1.496,0 2.648,1.217 2.648,2.648 l 0,2.718 C 2.648,-1.198 1.496,0 0,0 m 1.086,-5.366 c 0,-0.527 -0.49,-1.018 -1.086,-1.018 -0.599,0 -1.086,0.491 -1.086,1.018 l 0,2.718 c 0,0.599 0.487,1.08 1.086,1.08 0.596,0 1.086,-0.481 1.086,-1.08 l 0,-2.718 z" style="fill:#ffffff;fill-opacity:1;fill-rule:nonzero;stroke:none" id="path3025" inkscape:connector-curvature="0"/>
    </g>
  </g>
</svg>