  0
SECTION
  2
HEADER
  9
$ACADVER
  1
AC1012
  9
$DWGCODEPAGE
  3
ANSI_1252
  9
$INSBASE
 10
0.0
 20
0.0
 30
0.0
  9
$EXTMIN
 10
171.2717808678891
 20
201.3839428504433
 30
0.0
  9
$EXTMAX
 10
195.0303130543146
 20
219.1900383429977
 30
0.0
  9
$LIMMIN
 10
0.0
 20
0.0
  9
$LIMMAX
 10
420.0
 20
297.0
  9
$ORTHOMODE
 70
     0
  9
$REGENMODE
 70
     1
  9
$FILLMODE
 70
     1
  9
$QTEXTMODE
 70
     0
  9
$MIRRTEXT
 70
     1
  9
$DRAGMODE
 70
     2
  9
$LTSCALE
 40
1.0
  9
$OSMODE
 70
    39
  9
$ATTMODE
 70
     1
  9
$TEXTSIZE
 40
2.5
  9
$TRACEWID
 40
1.0
  9
$TEXTSTYLE
  7
STANDARD
  9
$CLAYER
  8
0
  9
$CELTYPE
  6
BYLAYER
  9
$CECOLOR
 62
   256
  9
$CELTSCALE
 40
1.0
  9
$DELOBJ
 70
     1
  9
$DISPSILH
 70
     0
  9
$DIMSCALE
 40
1.0
  9
$DIMASZ
 40
2.5
  9
$DIMEXO
 40
0.625
  9
$DIMDLI
 40
3.75
  9
$DIMRND
 40
0.0
  9
$DIMDLE
 40
0.0
  9
$DIMEXE
 40
1.25
  9
$DIMTP
 40
0.0
  9
$DIMTM
 40
0.0
  9
$DIMTXT
 40
2.5
  9
$DIMCEN
 40
2.5
  9
$DIMTSZ
 40
0.0
  9
$DIMTOL
 70
     0
  9
$DIMLIM
 70
     0
  9
$DIMTIH
 70
     0
  9
$DIMTOH
 70
     0
  9
$DIMSE1
 70
     0
  9
$DIMSE2
 70
     0
  9
$DIMTAD
 70
     1
  9
$DIMZIN
 70
     8
  9
$DIMBLK
  1

  9
$DIMASO
 70
     1
  9
$DIMSHO
 70
     1
  9
$DIMPOST
  1

  9
$DIMAPOST
  1

  9
$DIMALT
 70
     0
  9
$DIMALTD
 70
     3
  9
$DIMALTF
 40
0.03937007874016
  9
$DIMLFAC
 40
1.0
  9
$DIMTOFL
 70
     1
  9
$DIMTVP
 40
0.0
  9
$DIMTIX
 70
     0
  9
$DIMSOXD
 70
     0
  9
$DIMSAH
 70
     0
  9
$DIMBLK1
  1

  9
$DIMBLK2
  1

  9
$DIMSTYLE
  2
ISO-25
  9
$DIMCLRD
 70
     0
  9
$DIMCLRE
 70
     0
  9
$DIMCLRT
 70
     0
  9
$DIMTFAC
 40
1.0
  9
$DIMGAP
 40
0.625
  9
$DIMJUST
 70
     0
  9
$DIMSD1
 70
     0
  9
$DIMSD2
 70
     0
  9
$DIMTOLJ
 70
     0
  9
$DIMTZIN
 70
     8
  9
$DIMALTZ
 70
     0
  9
$DIMALTTZ
 70
     0
  9
$DIMFIT
 70
     3
  9
$DIMUPT
 70
     0
  9
$DIMUNIT
 70
     2
  9
$DIMDEC
 70
     2
  9
$DIMTDEC
 70
     2
  9
$DIMALTU
 70
     2
  9
$DIMALTTD
 70
     3
  9
$DIMTXSTY
  7
STANDARD
  9
$DIMAUNIT
 70
     0
  9
$LUNITS
 70
     2
  9
$LUPREC
 70
     4
  9
$SKETCHINC
 40
1.0
  9
$FILLETRAD
 40
10.0
  9
$AUNITS
 70
     0
  9
$AUPREC
 70
     0
  9
$MENU
  1
.
  9
$ELEVATION
 40
0.0
  9
$PELEVATION
 40
0.0
  9
$THICKNESS
 40
0.0
  9
$LIMCHECK
 70
     0
  9
$BLIPMODE
 70
     0
  9
$CHAMFERA
 40
10.0
  9
$CHAMFERB
 40
10.0
  9
$CHAMFERC
 40
20.0
  9
$CHAMFERD
 40
0.0
  9
$SKPOLY
 70
     0
  9
$TDCREATE
 40
2452466.477179351
  9
$TDUPDATE
 40
2452471.496492326
  9
$TDINDWG
 40
0.0005246296
  9
$TDUSRTIMER
 40
0.0005242708
  9
$USRTIMER
 70
     1
  9
$ANGBASE
 50
0.0
  9
$ANGDIR
 70
     0
  9
$PDMODE
 70
     0
  9
$PDSIZE
 40
0.0
  9
$PLINEWID
 40
0.0
  9
$COORDS
 70
     0
  9
$SPLFRAME
 70
     0
  9
$SPLINETYPE
 70
     6
  9
$SPLINESEGS
 70
     8
  9
$ATTDIA
 70
     0
  9
$ATTREQ
 70
     1
  9
$HANDLING
 70
 10241
  9
$HANDSEED
  5
B7
  9
$SURFTAB1
 70
     6
  9
$SURFTAB2
 70
     6
  9
$SURFTYPE
 70
     6
  9
$SURFU
 70
     6
  9
$SURFV
 70
     6
  9
$UCSNAME
  2

  9
$UCSORG
 10
0.0
 20
0.0
 30
0.0
  9
$UCSXDIR
 10
1.0
 20
0.0
 30
0.0
  9
$UCSYDIR
 10
0.0
 20
1.0
 30
0.0
  9
$PUCSNAME
  2

  9
$PUCSORG
 10
0.0
 20
0.0
 30
0.0
  9
$PUCSXDIR
 10
1.0
 20
0.0
 30
0.0
  9
$PUCSYDIR
 10
0.0
 20
1.0
 30
0.0
  9
$USERI1
 70
     0
  9
$USERI2
 70
     0
  9
$USERI3
 70
     0
  9
$USERI4
 70
     0
  9
$USERI5
 70
     0
  9
$USERR1
 40
0.0
  9
$USERR2
 40
0.0
  9
$USERR3
 40
0.0
  9
$USERR4
 40
0.0
  9
$USERR5
 40
0.0
  9
$WORLDVIEW
 70
     1
  9
$SHADEDGE
 70
     3
  9
$SHADEDIF
 70
    70
  9
$TILEMODE
 70
     1
  9
$MAXACTVP
 70
    64
  9
$PINSBASE
 10
0.0
 20
0.0
 30
0.0
  9
$PLIMCHECK
 70
     0
  9
$PEXTMIN
 10
1.000000000000000E+20
 20
1.000000000000000E+20
 30
1.000000000000000E+20
  9
$PEXTMAX
 10
-1.000000000000000E+20
 20
-1.000000000000000E+20
 30
-1.000000000000000E+20
  9
$PLIMMIN
 10
0.0
 20
0.0
  9
$PLIMMAX
 10
420.0
 20
297.0
  9
$UNITMODE
 70
     0
  9
$VISRETAIN
 70
     1
  9
$PLINEGEN
 70
     0
  9
$PSLTSCALE
 70
     1
  9
$TREEDEPTH
 70
  3020
  9
$PICKSTYLE
 70
     1
  9
$CMLSTYLE
  2
STANDARD
  9
$CMLJUST
 70
     0
  9
$CMLSCALE
 40
20.0
  9
$SAVEIMAGES
 70
     1
  0
ENDSEC
  0
SECTION
  2
CLASSES
  0
CLASS
  1
ACDBDICTIONARYWDFLT
  2
AcDbDictionaryWithDefault
  3
AutoCAD 2000
 90
    32768
280
     0
281
     0
  0
CLASS
  1
ACDBPLACEHOLDER
  2
AcDbPlaceHolder
  3
AutoCAD 2000
 90
    32768
280
     0
281
     0
  0
CLASS
  1
LAYOUT
  2
AcDbLayout
  3
AutoCAD 2000
 90
    32768
280
     0
281
     0
  0
CLASS
  1
LONG_TRANSACTION
  2
AcDbLongTransaction
  3
AutoCAD 2000
 90
    32768
280
     0
281
     0
  0
CLASS
  1
LWPOLYLINE
  2
AcDbPolyline
  3
AutoCAD 2000
 90
    32768
280
     0
281
     1
  0
CLASS
  1
HATCH
  2
AcDbHatch
  3
AutoCAD 2000
 90
    32768
280
     0
281
     1
  0
CLASS
  1
XRECORD
  2
AcDbXrecord
  3
AutoCAD 2000
 90
    32768
280
     0
281
     0
  0
CLASS
  1
LONG_TRANSACTION
  2
AcDbLongTransaction
  3
AutoCAD 2000
 90
    32768
280
     0
281
     0
  0
CLASS
  1
LWPOLYLINE
  2
AcDbPolyline
  3
AutoCAD 2000
 90
    32768
280
     0
281
     1
  0
CLASS
  1
HATCH
  2
AcDbHatch
  3
AutoCAD 2000
 90
    32768
280
     0
281
     1
  0
CLASS
  1
XRECORD
  2
AcDbXrecord
  3
AutoCAD 2000
 90
    32768
280
     0
281
     0
  0
ENDSEC
  0
SECTION
  2
TABLES
  0
TABLE
  2
VPORT
  5
8
330
0
100
AcDbSymbolTable
 70
     2
  0
VPORT
  5
B4
330
8
100
AcDbSymbolTableRecord
100
AcDbViewportTableRecord
  2
*ACTIVE
 70
     0
 10
0.0
 20
0.0
 11
1.0
 21
1.0
 12
183.1475839544409
 22
210.2805870061049
 13
0.0
 23
0.0
 14
10.0
 24
10.0
 15
10.0
 25
10.0
 16
0.0
 26
0.0
 36
1.0
 17
0.0
 27
0.0
 37
0.0
 40
18.00297702796069
 41
1.64968152866242
 42
50.0
 43
0.0
 44
0.0
 50
0.0
 51
0.0
 71
     0
 72
   100
 73
     1
 74
     3
 75
     0
 76
     0
 77
     0
 78
     0
  0
ENDTAB
  0
TABLE
  2
LTYPE
  5
5
330
0
100
AcDbSymbolTable
 70
     1
  0
LTYPE
  5
14
330
5
100
AcDbSymbolTableRecord
100
AcDbLinetypeTableRecord
  2
BYBLOCK
 70
     0
  3

 72
    65
 73
     0
 40
0.0
  0
LTYPE
  5
15
330
5
100
AcDbSymbolTableRecord
100
AcDbLinetypeTableRecord
  2
BYLAYER
 70
     0
  3

 72
    65
 73
     0
 40
0.0
  0
LTYPE
  5
16
330
5
100
AcDbSymbolTableRecord
100
AcDbLinetypeTableRecord
  2
CONTINUOUS
 70
     0
  3
Solid line
 72
    65
 73
     0
 40
0.0
  0
ENDTAB
  0
TABLE
  2
LAYER
  5
2
330
0
100
AcDbSymbolTable
 70
     1
  0
LAYER
  5
10
330
2
100
AcDbSymbolTableRecord
100
AcDbLayerTableRecord
  2
0
 70
     0
 62
     7
  6
CONTINUOUS
  0
ENDTAB
  0
TABLE
  2
STYLE
  5
3
330
0
100
AcDbSymbolTable
 70
     1
  0
STYLE
  5
11
330
3
100
AcDbSymbolTableRecord
100
AcDbTextStyleTableRecord
  2
STANDARD
 70
     0
 40
0.0
 41
1.0
 50
0.0
 71
     0
 42
2.5
  3
txt
  4

  0
ENDTAB
  0
TABLE
  2
VIEW
  5
6
330
0
100
AcDbSymbolTable
 70
     0
  0
ENDTAB
  0
TABLE
  2
UCS
  5
7
330
0
100
AcDbSymbolTable
 70
     0
  0
ENDTAB
  0
TABLE
  2
APPID
  5
9
330
0
100
AcDbSymbolTable
 70
     1
  0
APPID
  5
12
330
9
100
AcDbSymbolTableRecord
100
AcDbRegAppTableRecord
  2
ACAD
 70
     0
  0
ENDTAB
  0
TABLE
  2
DIMSTYLE
  5
A
330
0
100
AcDbSymbolTable
 70
     1
  0
DIMSTYLE
105
27
330
A
100
AcDbSymbolTableRecord
100
AcDbDimStyleTableRecord
  2
ISO-25
 70
     0
  3

  4

  5

  6

  7

 40
1.0
 41
2.5
 42
0.625
 43
3.75
 44
1.25
 45
0.0
 46
0.0
 47
0.0
 48
0.0
140
2.5
141
2.5
142
0.0
143
0.03937007874016
144
1.0
145
0.0
146
1.0
147
0.625
 71
     0
 72
     0
 73
     0
 74
     0
 75
     0
 76
     0
 77
     1
 78
     8
170
     0
171
     3
172
     1
173
     0
174
     0
175
     0
176
     0
177
     0
178
     0
270
     2
271
     2
272
     2
273
     2
274
     3
340
11
275
     0
280
     0
281
     0
282
     0
283
     0
284
     8
285
     0
286
     0
287
     3
288
     0
  0
ENDTAB
  0
TABLE
  2
BLOCK_RECORD
  5
1
330
0
100
AcDbSymbolTable
 70
     4
  0
BLOCK_RECORD
  5
1F
102
{ACAD_XDICTIONARY
360
62
102
}
330
1
100
AcDbSymbolTableRecord
100
AcDbBlockTableRecord
  2
*MODEL_SPACE
  0
BLOCK_RECORD
  5
1B
102
{ACAD_XDICTIONARY
360
60
102
}
330
1
100
AcDbSymbolTableRecord
100
AcDbBlockTableRecord
  2
*PAPER_SPACE
  0
BLOCK_RECORD
  5
66
330
1
100
AcDbSymbolTableRecord
100
AcDbBlockTableRecord
  2
*X0
  0
BLOCK_RECORD
  5
79
330
1
100
AcDbSymbolTableRecord
100
AcDbBlockTableRecord
  2
*X1
  0
BLOCK_RECORD
  5
89
330
1
100
AcDbSymbolTableRecord
100
AcDbBlockTableRecord
  2
*X2
  0
BLOCK_RECORD
  5
9C
330
1
100
AcDbSymbolTableRecord
100
AcDbBlockTableRecord
  2
*X3
  0
ENDTAB
  0
ENDSEC
  0
SECTION
  2
BLOCKS
  0
BLOCK
  5
20
330
1F
100
AcDbEntity
  8
0
100
AcDbBlockBegin
  2
*MODEL_SPACE
 70
     0
 10
0.0
 20
0.0
 30
0.0
  3
*MODEL_SPACE
  1

  0
ENDBLK
  5
21
330
1F
100
AcDbEntity
  8
0
100
AcDbBlockEnd
  0
BLOCK
  5
1C
330
1B
100
AcDbEntity
 67
     1
  8
0
100
AcDbBlockBegin
  2
*PAPER_SPACE
 70
     0
 10
0.0
 20
0.0
 30
0.0
  3
*PAPER_SPACE
  1

  0
ENDBLK
  5
1D
330
1B
100
AcDbEntity
 67
     1
  8
0
100
AcDbBlockEnd
  0
BLOCK
  5
77
330
66
100
AcDbEntity
  8
0
100
AcDbBlockBegin
  2
*X0
 70
     1
 10
0.0
 20
0.0
 30
0.0
  3
*X0
  1

  0
LINE
  5
67
330
66
100
AcDbEntity
  8
0
 62
     0
100
AcDbLine
 10
22.35002495891214
 20
0.126338673514681
 30
0.0
 11
23.75853203662015
 21
1.53484575122269
 31
0.0
  0
LINE
  5
68
330
66
100
AcDbEntity
  8
0
 62
     0
100
AcDbLine
 10
20.93127198449962
 20
0.4753526520685796
 30
0.0
 11
23.08632729576373
 21
2.630407963332628
 31
0.0
  0
LINE
  5
69
330
66
100
AcDbEntity
  8
0
 62
     0
100
AcDbLine
 10
19.68812315783148
 20
0.9999707783667304
 30
0.0
 11
21.64886769704681
 21
2.960715317582071
 31
0.0
  0
LINE
  5
6A
330
66
100
AcDbEntity
  8
0
 62
     0
100
AcDbLine
 10
18.5899986484124
 20
1.669613221914119
 30
0.0
 11
20.45695716224196
 21
3.536571735743621
 31
0.0
  0
LINE
  5
6B
330
66
100
AcDbEntity
  8
0
 62
     0
100
AcDbLine
 10
17.62205874474823
 20
2.469440271216285
 30
0.0
 11
19.45896915297947
 21
4.306350679447461
 31
0.0
  0
LINE
  5
6C
330
66
100
AcDbEntity
  8
0
 62
     0
100
AcDbLine
 10
20.83025163793169
 20
7.445400117366119
 30
0.0
 11
22.58257442895652
 21
9.197722908390886
 31
0.0
  0
LINE
  5
6D
330
66
100
AcDbEntity
  8
0
 62
     0
100
AcDbLine
 10
16.77904673241314
 20
3.394195211847516
 30
0.0
 11
18.63963913698668
 21
5.25478761642111
 31
0.0
  0
LINE
  5
6E
330
66
100
AcDbEntity
  8
0
 62
     0
100
AcDbLine
 10
19.06248468496533
 20
7.445400117366091
 30
0.0
 11
21.80040125242646
 21
10.18331668482727
 31
0.0
  0
LINE
  5
6F
330
66
100
AcDbEntity
  8
0
 62
     0
100
AcDbLine
 10
16.0634817466684
 20
4.446397179069151
 30
0.0
 11
18.00738739404744
 21
6.390302826448247
 31
0.0
  0
LINE
  5
70
330
66
100
AcDbEntity
  8
0
 62
     0
100
AcDbLine
 10
15.48650164640459
 20
5.637184031771794
 30
0.0
 11
20.03263429946011
 21
10.18331668482723
 31
0.0
  0
LINE
  5
71
330
66
100
AcDbEntity
  8
0
 62
     0
100
AcDbLine
 10
23.15575348308398
 20
15.07420282141747
 30
0.0
 11
23.75853203662008
 21
15.67698137495358
 31
0.0
  0
LINE
  5
72
330
66
100
AcDbEntity
  8
0
 62
     0
100
AcDbLine
 10
15.07211336157181
 20
6.990562699905295
 30
0.0
 11
18.26486734649378
 21
10.18331668482727
 31
0.0
  0
LINE
  5
73
330
66
100
AcDbEntity
  8
0
 62
     0
100
AcDbLine
 10
20.50312902429709
 20
14.18934531559694
 30
0.0
 11
23.75853203662007
 21
17.44474832791991
 31
0.0
  0
LINE
  5
74
330
66
100
AcDbEntity
  8
0
 62
     0
100
AcDbLine
 10
14.86960570539997
 20
8.555821996699817
 30
0.0
 11
18.41793543193421
 21
12.10415172323405
 31
0.0
  0
LINE
  5
75
330
66
100
AcDbEntity
  8
0
 62
     0
100
AcDbLine
 10
14.99701402789716
 20
10.45099727216339
 30
0.0
 11
22.2176447886101
 21
17.67162803287638
 31
0.0
  0
LINE
  5
76
330
66
100
AcDbEntity
  8
0
 62
     0
100
AcDbLine
 10
15.94946696594843
 20
13.17121716318103
 30
0.0
 11
19.49742489759245
 21
16.71917509482506
 31
0.0
  0
ENDBLK
  5
78
330
66
100
AcDbEntity
  8
0
100
AcDbBlockEnd
  0
BLOCK
  5
87
330
79
100
AcDbEntity
  8
0
100
AcDbBlockBegin
  2
*X1
 70
     1
 10
0.0
 20
0.0
 30
0.0
  3
*X1
  1

  0
LINE
  5
7A
330
79
100
AcDbEntity
  8
0
 62
     0
100
AcDbLine
 10
8.115825604571256
 20
0.0342749429047729
 30
0.0
 11
8.895983850194651
 21
0.8144331885281701
 31
0.0
  0
LINE
  5
7B
330
79
100
AcDbEntity
  8
0
 62
     0
100
AcDbLine
 10
6.61198426672979
 20
0.2982005580296629
 30
0.0
 11
8.893838595638866
 21
2.580054886938738
 31
0.0
  0
LINE
  5
7C
330
79
100
AcDbEntity
  8
0
 62
     0
100
AcDbLine
 10
5.303610848810308
 20
0.7575940930765343
 30
0.0
 11
7.326254786408981
 21
2.780238030675235
 31
0.0
  0
LINE
  5
7D
330
79
100
AcDbEntity
  8
0
 62
     0
100
AcDbLine
 10
4.149996869365111
 20
1.371747066597748
 30
0.0
 11
6.045575547419217
 21
3.267325744651856
 31
0.0
  0
LINE
  5
7E
330
79
100
AcDbEntity
  8
0
 62
     0
100
AcDbLine
 10
3.131137804567629
 20
2.120654954766564
 30
0.0
 11
4.973431634049575
 21
3.962948784248538
 31
0.0
  0
LINE
  5
7F
330
79
100
AcDbEntity
  8
0
 62
     0
100
AcDbLine
 10
2.238337421594791
 20
2.995621524760109
 30
0.0
 11
4.08299614276393
 21
4.84028024592925
 31
0.0
  0
LINE
  5
80
330
79
100
AcDbEntity
  8
0
 62
     0
100
AcDbLine
 10
1.471048481580425
 20
3.996099537712126
 30
0.0
 11
3.37342449394606
 21
5.898475550077789
 31
0.0
  0
LINE
  5
81
330
79
100
AcDbEntity
  8
0
 62
     0
100
AcDbLine
 10
0.8366911061499422
 20
5.129509115248055
 30
0.0
 11
2.8692070497232
 21
7.162025058821312
 31
0.0
  0
LINE
  5
82
330
79
100
AcDbEntity
  8
0
 62
     0
100
AcDbLine
 10
0.3532877928635685
 20
6.413872754928036
 30
0.0
 11
2.642793005957372
 21
8.703377968021811
 31
0.0
  0
LINE
  5
83
330
79
100
AcDbEntity
  8
0
 62
     0
100
AcDbLine
 10
6.950606323402552
 20
14.77895823843334
 30
0.0
 11
8.895983850194625
 21
16.72433576522546
 31
0.0
  0
LINE
  5
84
330
79
100
AcDbEntity
  8
0
 62
     0
100
AcDbLine
 10
0.0575320823867571
 20
7.88588399741755
 30
0.0
 11
2.951648130799468
 21
10.78000004583028
 31
0.0
  0
LINE
  5
85
330
79
100
AcDbEntity
  8
0
 62
     0
100
AcDbLine
 10
0.030014471412926
 20
9.626133339410101
 30
0.0
 11
8.165834343065027
 21
17.76195321106226
 31
0.0
  0
LINE
  5
86
330
79
100
AcDbEntity
  8
0
 62
     0
100
AcDbLine
 10
0.5150058579256438
 20
11.87889167888919
 30
0.0
 11
5.913076003585955
 21
17.27696182454951
 31
0.0
  0
ENDBLK
  5
88
330
79
100
AcDbEntity
  8
0
100
AcDbBlockEnd
  0
BLOCK
  5
9A
330
89
100
AcDbEntity
  8
0
100
AcDbBlockBegin
  2
*X2
 70
     1
 10
0.0
 20
0.0
 30
0.0
  3
*X2
  1

  0
LINE
  5
8A
330
89
100
AcDbEntity
  8
0
 62
     0
100
AcDbLine
 10
193.6218059766066
 20
201.5102816916773
 30
0.0
 11
195.0303130543146
 21
202.9187887693853
 31
0.0
  0
LINE
  5
8B
330
89
100
AcDbEntity
  8
0
 62
     0
100
AcDbLine
 10
192.2030530021941
 20
201.8592956702313
 30
0.0
 11
194.3581083134583
 21
204.0143509814952
 31
0.0
  0
LINE
  5
8C
330
89
100
AcDbEntity
  8
0
 62
     0
100
AcDbLine
 10
190.959904175526
 20
202.3839137965294
 30
0.0
 11
192.9206487147413
 21
204.3446583357447
 31
0.0
  0
LINE
  5
8D
330
89
100
AcDbEntity
  8
0
 62
     0
100
AcDbLine
 10
189.861779666107
 20
203.0535562400769
 30
0.0
 11
191.7287381799365
 21
204.9205147539063
 31
0.0
  0
LINE
  5
8E
330
89
100
AcDbEntity
  8
0
 62
     0
100
AcDbLine
 10
188.8938397624428
 20
203.853383289379
 30
0.0
 11
190.730750170674
 21
205.6902936976101
 31
0.0
  0
LINE
  5
8F
330
89
100
AcDbEntity
  8
0
 62
     0
100
AcDbLine
 10
192.1020326556261
 20
208.8293431355288
 30
0.0
 11
193.854355446651
 21
210.5816659265536
 31
0.0
  0
LINE
  5
90
330
89
100
AcDbEntity
  8
0
 62
     0
100
AcDbLine
 10
188.0508277501076
 20
204.7781382300101
 30
0.0
 11
189.9114201546812
 21
206.6387306345838
 31
0.0
  0
LINE
  5
91
330
89
100
AcDbEntity
  8
0
 62
     0
100
AcDbLine
 10
190.3342657026598
 20
208.8293431355288
 30
0.0
 11
193.072182270121
 21
211.5672597029899
 31
0.0
  0
LINE
  5
92
330
89
100
AcDbEntity
  8
0
 62
     0
100
AcDbLine
 10
187.335262764363
 20
205.8303401972318
 30
0.0
 11
189.2791684117419
 21
207.774245844611
 31
0.0
  0
LINE
  5
93
330
89
100
AcDbEntity
  8
0
 62
     0
100
AcDbLine
 10
186.7582826640991
 20
207.0211270499345
 30
0.0
 11
191.3044153171547
 21
211.5672597029899
 31
0.0
  0
LINE
  5
94
330
89
100
AcDbEntity
  8
0
 62
     0
100
AcDbLine
 10
194.4275345007785
 20
216.4581458395801
 30
0.0
 11
195.0303130543146
 21
217.0609243931163
 31
0.0
  0
LINE
  5
95
330
89
100
AcDbEntity
  8
0
 62
     0
100
AcDbLine
 10
186.3438943792663
 20
208.374505718068
 30
0.0
 11
189.5366483641883
 21
211.5672597029899
 31
0.0
  0
LINE
  5
96
330
89
100
AcDbEntity
  8
0
 62
     0
100
AcDbLine
 10
191.7749100419915
 20
215.5732883337596
 30
0.0
 11
195.0303130543145
 21
218.8286913460826
 31
0.0
  0
LINE
  5
97
330
89
100
AcDbEntity
  8
0
 62
     0
100
AcDbLine
 10
186.1413867230944
 20
209.9397650148625
 30
0.0
 11
189.6897164496286
 21
213.4880947413968
 31
0.0
  0
LINE
  5
98
330
89
100
AcDbEntity
  8
0
 62
     0
100
AcDbLine
 10
186.2687950455917
 20
211.834940290326
 30
0.0
 11
193.4894258063047
 21
219.0555710510391
 31
0.0
  0
LINE
  5
99
330
89
100
AcDbEntity
  8
0
 62
     0
100
AcDbLine
 10
187.2212479836429
 20
214.5551601813437
 30
0.0
 11
190.769205915287
 21
218.1031181129878
 31
0.0
  0
ENDBLK
  5
9B
330
89
100
AcDbEntity
  8
0
100
AcDbBlockEnd
  0
BLOCK
  5
AA
330
9C
100
AcDbEntity
  8
0
100
AcDbBlockBegin
  2
*X3
 70
     1
 10
0.0
 20
0.0
 30
0.0
  3
*X3
  1

  0
LINE
  5
9D
330
9C
100
AcDbEntity
  8
0
 62
     0
100
AcDbLine
 10
179.3876066222658
 20
201.4182179610675
 30
0.0
 11
180.1677648678891
 21
202.1983762066909
 31
0.0
  0
LINE
  5
9E
330
9C
100
AcDbEntity
  8
0
 62
     0
100
AcDbLine
 10
177.8837652844243
 20
201.6821435761924
 30
0.0
 11
180.1656196133334
 21
203.9639979051015
 31
0.0
  0
LINE
  5
9F
330
9C
100
AcDbEntity
  8
0
 62
     0
100
AcDbLine
 10
176.5753918665049
 20
202.1415371112393
 30
0.0
 11
178.5980358041035
 21
204.164181048838
 31
0.0
  0
LINE
  5
A0
330
9C
100
AcDbEntity
  8
0
 62
     0
100
AcDbLine
 10
175.4217778870596
 20
202.7556900847605
 30
0.0
 11
177.3173565651138
 21
204.6512687628145
 31
0.0
  0
LINE
  5
A1
330
9C
100
AcDbEntity
  8
0
 62
     0
100
AcDbLine
 10
174.4029188222621
 20
203.5045979729293
 30
0.0
 11
176.245212651744
 21
205.3468918024113
 31
0.0
  0
LINE
  5
A2
330
9C
100
AcDbEntity
  8
0
 62
     0
100
AcDbLine
 10
173.5101184392893
 20
204.3795645429228
 30
0.0
 11
175.3547771604585
 21
206.2242232640919
 31
0.0
  0
LINE
  5
A3
330
9C
100
AcDbEntity
  8
0
 62
     0
100
AcDbLine
 10
172.742829499275
 20
205.3800425558748
 30
0.0
 11
174.6452055116406
 21
207.2824185682405
 31
0.0
  0
LINE
  5
A4
330
9C
100
AcDbEntity
  8
0
 62
     0
100
AcDbLine
 10
172.1084721238444
 20
206.5134521334107
 30
0.0
 11
174.1409880674178
 21
208.5459680769839
 31
0.0
  0
LINE
  5
A5
330
9C
100
AcDbEntity
  8
0
 62
     0
100
AcDbLine
 10
171.625068810558
 20
207.7978157730908
 30
0.0
 11
173.9145740236519
 21
210.0873209861844
 31
0.0
  0
LINE
  5
A6
330
9C
100
AcDbEntity
  8
0
 62
     0
100
AcDbLine
 10
178.2223873410971
 20
216.1629012565961
 30
0.0
 11
180.1677648678891
 21
218.1082787833882
 31
0.0
  0
LINE
  5
A7
330
9C
100
AcDbEntity
  8
0
 62
     0
100
AcDbLine
 10
171.3293131000813
 20
209.2698270155803
 30
0.0
 11
174.223429148494
 21
212.1639430639929
 31
0.0
  0
LINE
  5
A8
330
9C
100
AcDbEntity
  8
0
 62
     0
100
AcDbLine
 10
171.3017954891074
 20
211.0100763575728
 30
0.0
 11
179.4376153607595
 21
219.145896229225
 31
0.0
  0
LINE
  5
A9
330
9C
100
AcDbEntity
  8
0
 62
     0
100
AcDbLine
 10
171.7867868756201
 20
213.2628346970518
 30
0.0
 11
177.1848570212805
 21
218.6609048427123
 31
0.0
  0
ENDBLK
  5
AB
330
9C
100
AcDbEntity
  8
0
100
AcDbBlockEnd
  0
ENDSEC
  0
SECTION
  2
ENTITIES
  0
ARC
  5
48
330
1F
100
AcDbEntity
  8
0
100
AcDbCircle
 10
195.0303130543145
 20
210.2940530423161
 30
0.0
 40
8.895984
100
AcDbArc
 50
90.0
 51
270.0
1001
ACAD
1000
ASC_BOUNDS
1002
{
1070
    19
1005
47
1002
}
  0
ARC
  5
4A
330
1F
100
AcDbEntity
  8
0
100
AcDbCircle
 10
180.1677648678891
 20
210.218565537201
 30
0.0
 40
6.254567999999999
100
AcDbArc
 50
90.0
 51
270.0
1001
ACAD
1000
ASC_BOUNDS
1002
{
1070
    19
1005
49
1002
}
  0
ARC
  5
4B
330
1F
100
AcDbEntity
  8
0
100
AcDbCircle
 10
180.1677648678891
 20
210.2799268504432
 30
0.0
 40
8.895984
100
AcDbArc
 50
90.0
 51
270.0
1001
ACAD
1000
ASC_BOUNDS
1002
{
1070
    19
1005
49
1002
}
  0
LINE
  5
4C
330
1F
100
AcDbEntity
  8
0
 62
     7
100
AcDbLine
 10
180.1677648678891
 20
203.9429849337103
 30
0.0
 11
180.1677648678891
 21
201.398069042316
 31
0.0
  0
LINE
  5
4D
330
1F
100
AcDbEntity
  8
0
 62
     7
100
AcDbLine
 10
180.1677648678891
 20
201.398069042316
 30
0.0
 11
180.1677648678891
 21
203.9429849337103
 31
0.0
  0
LINE
  5
4E
330
1F
100
AcDbEntity
  8
0
100
AcDbLine
 10
180.1677648678891
 20
203.963997537201
 30
0.0
 11
180.1677648678891
 21
201.3839428504433
 31
0.0
1001
ACAD
1000
ASC_BOUNDS
1002
{
1070
    19
1005
49
1002
}
  0
LINE
  5
4F
330
1F
100
AcDbEntity
  8
0
 62
     7
100
AcDbLine
 10
180.1677648678891
 20
219.1900383429977
 30
0.0
 11
180.1677648678891
 21
216.4521217755366
 31
0.0
  0
LINE
  5
50
330
1F
100
AcDbEntity
  8
0
 62
     7
100
AcDbLine
 10
180.1677648678891
 20
216.4521217755366
 30
0.0
 11
180.1677648678891
 21
219.1900383429977
 31
0.0
  0
LINE
  5
51
330
1F
100
AcDbEntity
  8
0
100
AcDbLine
 10
180.1677648678891
 20
219.1759108504433
 30
0.0
 11
180.1677648678891
 21
216.4731335372009
 31
0.0
1001
ACAD
1000
ASC_BOUNDS
1002
{
1070
    19
1005
49
1002
}
  0
ARC
  5
52
330
1F
100
AcDbEntity
  8
0
100
AcDbCircle
 10
195.0303130543145
 20
210.2326917290738
 30
0.0
 40
6.254567999999999
100
AcDbArc
 50
90.0
 51
167.584842517169
1001
ACAD
1000
ASC_BOUNDS
1002
{
1070
    19
1005
47
1002
}
  0
LINE
  5
53
330
1F
100
AcDbEntity
  8
0
 62
     7
100
AcDbLine
 10
195.0303130543145
 20
203.9429849337103
 30
0.0
 11
195.0303130543145
 21
201.398069042316
 31
0.0
1001
ACAD
1000
ASC_BOUNDS
1002
{
1070
    19
1005
47
1002
}
  0
ARC
  5
54
330
1F
100
AcDbEntity
  8
0
100
AcDbCircle
 10
195.0303130543145
 20
210.2326917290738
 30
0.0
 40
6.254567999999999
100
AcDbArc
 50
193.0336680380951
 51
270.0
1001
ACAD
1000
ASC_BOUNDS
1002
{
1070
    19
1005
47
1002
}
  0
LINE
  5
55
330
1F
100
AcDbEntity
  8
0
 62
     7
100
AcDbLine
 10
188.9679972448324
 20
211.5672597029899
 30
0.0
 11
193.8543554466509
 21
211.5672597029899
 31
0.0
  0
LINE
  5
56
330
1F
100
AcDbEntity
  8
0
 62
     7
100
AcDbLine
 10
193.8543554466509
 20
211.5672597029899
 30
0.0
 11
188.9679972448324
 21
211.5672597029899
 31
0.0
  0
LINE
  5
57
330
1F
100
AcDbEntity
  8
0
100
AcDbLine
 10
188.9679972448324
 20
211.5672597029899
 30
0.0
 11
193.8543554466509
 21
211.5672597029899
 31
0.0
1001
ACAD
1000
ASC_BOUNDS
1002
{
1070
    19
1005
47
1002
}
  0
LINE
  5
58
330
1F
100
AcDbEntity
  8
0
 62
     7
100
AcDbLine
 10
193.8543554466509
 20
208.8293431355288
 30
0.0
 11
188.9679972448324
 21
208.8293431355288
 31
0.0
  0
LINE
  5
59
330
1F
100
AcDbEntity
  8
0
 62
     7
100
AcDbLine
 10
188.9679972448324
 20
208.8293431355288
 30
0.0
 11
193.8543554466509
 21
208.8293431355288
 31
0.0
  0
LINE
  5
5A
330
1F
100
AcDbEntity
  8
0
100
AcDbLine
 10
193.8543554466509
 20
208.8293431355288
 30
0.0
 11
188.9679972448324
 21
208.8293431355288
 31
0.0
1001
ACAD
1000
ASC_BOUNDS
1002
{
1070
    19
1005
47
1002
}
  0
LINE
  5
5B
330
1F
100
AcDbEntity
  8
0
 62
     7
100
AcDbLine
 10
193.8543554466509
 20
211.5672597029899
 30
0.0
 11
193.8543554466509
 21
208.8293431355288
 31
0.0
  0
LINE
  5
5C
330
1F
100
AcDbEntity
  8
0
 62
     7
100
AcDbLine
 10
193.8543554466509
 20
208.8293431355288
 30
0.0
 11
193.8543554466509
 21
211.5672597029899
 31
0.0
  0
LINE
  5
5D
330
1F
100
AcDbEntity
  8
0
100
AcDbLine
 10
193.8543554466509
 20
211.5672597029899
 30
0.0
 11
193.8543554466509
 21
208.8293431355288
 31
0.0
1001
ACAD
1000
ASC_BOUNDS
1002
{
1070
    19
1005
47
1002
}
  0
LINE
  5
5E
330
1F
100
AcDbEntity
  8
0
 62
     7
100
AcDbLine
 10
195.0303130543145
 20
219.190037042316
 30
0.0
 11
195.0303130543145
 21
216.4872597290738
 31
0.0
1001
ACAD
1000
ASC_BOUNDS
1002
{
1070
    19
1005
47
1002
}
  0
ENDSEC
  0
SECTION
  2
OBJECTS
  0
DICTIONARY
  5
C
330
0
100
AcDbDictionary
  3
ACAD_GROUP
350
D
  3
ACAD_MLINESTYLE
350
17
  3
ACAD_PLOTSETTINGS
350
19
  3
ACAD_LAYOUT
350
1A
1001
ACAD
1000
TREAT_AS_HARD
1070
     0
1000
TREAT_AS_HARD
1070
     0
  0
DICTIONARY
  5
62
330
1F
100
AcDbDictionary
  3
ACAD_LAYOUTSELFREF
350
B6
1001
ACAD
1000
TREAT_AS_HARD
1070
     0
  0
DICTIONARY
  5
60
330
1B
100
AcDbDictionary
  3
ACAD_LAYOUTSELFREF
350
B5
1001
ACAD
1000
TREAT_AS_HARD
1070
     0
  0
DICTIONARY
  5
D
102
{ACAD_REACTORS
330
C
102
}
330
C
100
AcDbDictionary
1001
ACAD
1000
TREAT_AS_HARD
1070
     0
1000
TREAT_AS_HARD
1070
     0
  0
DICTIONARY
  5
17
102
{ACAD_REACTORS
330
C
102
}
330
C
100
AcDbDictionary
  3
STANDARD
350
18
1001
ACAD
1000
TREAT_AS_HARD
1070
     0
1000
TREAT_AS_HARD
1070
     0
  0
DICTIONARY
  5
19
102
{ACAD_REACTORS
330
C
102
}
330
C
100
AcDbDictionary
1001
ACAD
1000
TREAT_AS_HARD
1070
     0
1000
TREAT_AS_HARD
1070
     0
  0
DICTIONARY
  5
1A
102
{ACAD_REACTORS
330
C
102
}
330
C
100
AcDbDictionary
1001
ACAD
1000
TREAT_AS_HARD
1070
     0
1000
TREAT_AS_HARD
1070
     0
  0
XRECORD
  5
B6
102
{ACAD_REACTORS
330
62
102
}
330
62
100
AcDbXrecord
340
1F
  0
XRECORD
  5
B5
102
{ACAD_REACTORS
330
60
102
}
330
60
100
AcDbXrecord
340
1B
  0
MLINESTYLE
  5
18
102
{ACAD_REACTORS
330
17
102
}
330
17
100
AcDbMlineStyle
  2
STANDARD
 70
     0
  3

 62
   256
 51
90.0
 52
90.0
 71
     2
 49
0.5
 62
   256
  6
BYLAYER
 49
-0.5
 62
   256
  6
BYLAYER
  0
ENDSEC
  0
EOF
