<?xml version="1.0" encoding="utf-8" ?>
<!-- Generated by AutoXChange V23.12.108 RC2  64-bit from Tailor Made Software -->
<!-- www.tailormade.com and www.cadviewer.com -->
<!DOCTYPE svg PUBLIC '-//W3C//DTD SVG 1.0//EN' 
'http://www.w3.org/TR/2001/REC-SVG-20010904/DTD/svg10.dtd'>
<svg id="tmsSVG48" contentScriptType="text/ecmascript" xmlns:xlink="http://www.w3.org/1999/xlink" zoomAndPan="magnify" 
contentStyleType="text/css" preserveAspectRatio="xMidYMid meet" 
width="2500" height="1122.77" viewBox="0 0 2500 1122.77" 
version="1.1" xmlns="http://www.w3.org/2000/svg" xmlns:cvjs="http://www.tailormade.com/" stroke-linecap="butt" stroke-linejoin="round" fill-rule="evenodd" >
<defs>
	<style id="cv_styles" type = "text/css">
	    <![CDATA[
	   #tmsSVG48 { background-color: white; opacity: 1.}
		:root {
		    --tmsMinLineWidth: 0.6;
		    --tmsMinDashLength: 0.6;
		    --tmsHLWidth: 0.6;
		    --tmsNumberOfLayouts: 1;
		    --tmsNumberOfSVGViewports: 0;
         --tmsMinFixedLineWidth: 0.6;
		    --tmsbPostFix: 0;
		}
		.tmsPoints {
		    fill: none;
		    stroke-width: var(--tmsMinLineWidth);
		    r: calc(var(--tmsMinLineWidth)/2.0);
		}
		.ZWhl {
		    stroke-width: var(--tmsHLWidth);
		}
		.ZW {
		    stroke-width: var(--tmsMinLineWidth);
		}
		.ZW6 {
		    stroke-width: calc(var(--tmsMinLineWidth)*6);
		}
		.ZW10 {
		    stroke-width: calc(var(--tmsMinLineWidth)*10);
		}
		.ZW20 {
		    stroke-width: calc(var(--tmsMinLineWidth)*20);
		}
		.ZW100 {
		    stroke-width: calc(var(--tmsMinLineWidth)*100);
		}
		.nZW {
		}
		.sLW_0_2{
		    stroke-width: calc(var(--tmsMinFixedLineWidth)*0.333333);
		}
		.sLW_0_6{
		    stroke-width: var(--tmsMinFixedLineWidth);
		}
		.sRGB_7 {
		    stroke: #000;
		    fill: none;
		}
		.fRGB_7 {
		    stroke: #000;
		    fill: #000;
		}
		.hyperlinks:hover {
		    stroke-width: 3;
		}
		.hyperimage image{
			opacity: 0;
		}
		.hyperimage:hover image{
			opacity: 1;
		}
		.hyperimage:hover path{
			stroke-width: 3;
		}
		.hyperimage:visited{
			color: red;
		}
	]]></style>
	</defs>
<metadata>
<text id="cadviewer_Used_Colors">[7]</text>
<text id="cadviewer_worldUnits">
{ "globalOrigin": { "x": -0.201633, "y" : -0.143946}, 
						"units": "in",
						"measurementType": "English",
						"lengthType": "Decimal",
						"lengthPrecision": 4,
						"blockUnitsFormat": "Inches",
						"svgToWorldUnits": 0.007546,
						"worldToSVGUnits": 132.516846
}
</text>
<text id="cadviewer_drawingCoordinates">
{ "DWG": 
    { "lowerLeft": { "x": -0.201633, "y" : -0.143946}, 
      "upperRight": { "x": 18.663893, "y" : 8.328707} 
    },
 "SVG": 
    { "lowerLeft": { "x": 0.000000, "y" : 1205.884632}, 
      "upperRight": { "x": 2500.000000, "y" : 83.115368} 
    },
 "Drawing Height": 1289
}
</text>
<text id="cadviewer_vqBuilding"></text>
<text id="cadviewer_vqFloor"></text>
<text id="cadviewer_multiPages">
{ "multiPages": 3, 
                   "currentPage":1,
                   "pages" : [
                        { "fileName":"F651c499dd914ab4e610ea4f0d8cd829bdd5f17b3.svgz", "pageName":"ModelSpace"},
                        { "fileName":"F651c499dd914ab4e610ea4f0d8cd829bdd5f17b3_Layout_Sheet1.svgz", "pageName":"Sheet1"},
                        { "fileName":"F651c499dd914ab4e610ea4f0d8cd829bdd5f17b3_Layout_Sheet2.svgz", "pageName":"Sheet2"}
                   ]
}
</text>
</metadata>
<g id="cv_main_drawing">
<g id="layer_0" class="layer_0"  cvjs:layerName="0" cvjs:plottable="YES"
 cvjs:status="ON" visibility="visible">
<g id="cvclr_1" class="sRGB_7" >
<path id="cv_2" class=" ZW" d="M0,0V1122.77H2178.02V0H0" />
<path id="cv_3" class=" ZW" d="M586.98,117.68l-0.01,-1.1l-0.03,-1.1l-0.05,-1.1l-0.07,-1.1l-0.09,-1.1l-0.11,-1.09l-0.13,-1.09l-0.16,-1.09l-0.18,-1.09l-0.2,-1.08l-0.22,-1.08l-0.24,-1.07l-0.26,-1.07l-0.28,-1.07l-0.3,-1.06l-0.32,-1.05l-0.34,-1.05l-0.36,-1.04l-0.38,-1.03l-0.4,-1.03l-0.41,-1.02l-0.43,-1.01l-0.45,-1l-0.47,-0.99l-0.49,-0.99l-0.51,-0.98l-0.53,-0.97l-0.55,-0.96l-0.56,-0.95l-0.58,-0.93l-0.6,-0.92l-0.62,-0.91l-0.63,-0.9l-0.65,-0.89l-0.67,-0.88l-0.68,-0.86l-0.7,-0.85l-0.71,-0.84l-0.73,-0.82l-0.75,-0.81l-1.02,-1.06l-1.04,-1.03l-0.8,-0.76l-0.81,-0.74l-0.83,-0.73l-0.84,-0.71l-0.85,-0.69l-0.87,-0.68l-0.88,-0.66l-0.89,-0.64l-0.9,-0.63l-0.92,-0.61l-0.93,-0.59l-0.94,-0.58l-0.95,-0.56l-0.96,-0.54l-0.97,-0.52l-0.98,-0.5l-0.99,-0.48l-1,-0.47l-1.01,-0.45l-1.01,-0.43l-1.02,-0.41l-1.03,-0.39l-1.04,-0.37l-1.04,-0.35l-1.05,-0.33l-1.06,-0.31l-1.06,-0.29l-1.07,-0.27l-1.07,-0.25l-1.08,-0.23l-1.08,-0.21l-1.08,-0.19l-1.09,-0.17l-1.09,-0.15l-1.09,-0.13l-1.1,-0.11l-1.1,-0.09l-1.1,-0.07l-1.1,-0.04l-1.1,-0.02l-1.1,-0l-1.1,0.02l-1.1,0.04l-1.1,0.06l-1.1,0.08l-1.1,0.1l-1.09,0.12l-1.09,0.14l-1.09,0.16l-1.09,0.18l-1.08,0.2l-1.08,0.22l-1.07,0.24l-1.07,0.26l-1.06,0.28l-1.06,0.3l-1.05,0.32l-1.05,0.34l-1.04,0.36l-1.03,0.38l-1.02,0.4l-1.02,0.42l-1.01,0.44l-1,0.46l-0.99,0.48l-0.98,0.5l-0.97,0.51l-0.96,0.53l-0.95,0.55l-0.94,0.57l-0.93,0.59l-0.92,0.6l-0.91,0.62l-0.9,0.64l-0.88,0.66l-0.87,0.67l-0.86,0.69l-0.85,0.7l-0.83,0.72l-0.82,0.74l-0.8,0.75l-1.05,1.02l-1.02,1.05l-0.75,0.8l-0.74,0.82l-0.72,0.83l-0.7,0.85l-0.69,0.86l-0.67,0.87l-0.66,0.88l-0.64,0.9l-0.62,0.91l-0.6,0.92l-0.59,0.93l-0.57,0.94l-0.55,0.95l-0.53,0.96l-0.51,0.97l-0.5,0.98l-0.48,0.99l-0.46,1l-0.44,1.01l-0.42,1.02l-0.4,1.02l-0.38,1.03l-0.36,1.04l-0.34,1.05l-0.32,1.05l-0.3,1.06l-0.28,1.06l-0.26,1.07l-0.24,1.07l-0.22,1.08l-0.2,1.08l-0.18,1.09l-0.16,1.09l-0.14,1.09l-0.12,1.09l-0.1,1.1l-0.08,1.1l-0.06,1.1l-0.04,1.1l-0.02,1.1l0,1.1l0.02,1.1l0.04,1.1l0.07,1.1l0.09,1.1l0.11,1.1l0.13,1.09l0.15,1.09l0.17,1.09l0.19,1.08l0.21,1.08l0.23,1.08l0.25,1.07l0.27,1.07l0.29,1.06l0.31,1.06l0.33,1.05l0.35,1.04l0.37,1.04l0.39,1.03l0.41,1.02l0.43,1.01l0.45,1.01l0.47,1l0.48,0.99l0.5,0.98l0.52,0.97l0.54,0.96l0.56,0.95l0.58,0.94l0.59,0.93l0.61,0.92l0.63,0.9l0.64,0.89l0.66,0.88l0.68,0.87l0.69,0.85l0.71,0.84l0.73,0.83l0.74,0.81l0.76,0.8l1.03,1.04l1.06,1.02l0.81,0.75l0.82,0.73l0.84,0.71l0.85,0.7l0.86,0.68l0.88,0.67l0.89,0.65l0.9,0.63l0.91,0.62l0.92,0.6l0.93,0.58l0.95,0.56l0.96,0.55l0.97,0.53l0.98,0.51l0.99,0.49l0.99,0.47l1,0.45l1.01,0.43l1.02,0.41l1.03,0.4l1.03,0.38l1.04,0.36l1.05,0.34l1.05,0.32l1.06,0.3l1.07,0.28l1.07,0.26l1.07,0.24l1.08,0.22l1.08,0.2l1.09,0.18l1.09,0.16l1.09,0.13l1.09,0.11l1.1,0.09l1.1,0.07l1.1,0.05l1.1,0.03l1.1,0.01l1.1,-0.01l1.1,-0.03l1.1,-0.05l1.1,-0.07l1.1,-0.09l1.09,-0.11l1.09,-0.13l1.09,-0.16l1.09,-0.18l1.08,-0.2l1.08,-0.22l1.07,-0.24l1.07,-0.26l1.07,-0.28l1.06,-0.3l1.05,-0.32l1.05,-0.34l1.04,-0.36l1.03,-0.38l1.03,-0.4l1.02,-0.41l1.01,-0.43l1,-0.45l0.99,-0.47l0.99,-0.49l0.98,-0.51l0.97,-0.53l0.96,-0.55l0.95,-0.56l0.93,-0.58l0.92,-0.6l0.91,-0.62l0.9,-0.63l0.89,-0.65l0.88,-0.67l0.86,-0.68l0.85,-0.7l0.84,-0.71l0.82,-0.73l0.81,-0.75l1.06,-1.02l1.03,-1.04l0.76,-0.8l0.74,-0.81l0.73,-0.83l0.71,-0.84l0.69,-0.85l0.68,-0.87l0.66,-0.88l0.64,-0.89l0.63,-0.9l0.61,-0.92l0.59,-0.93l0.58,-0.94l0.56,-0.95l0.54,-0.96l0.52,-0.97l0.5,-0.98l0.48,-0.99l0.47,-1l0.45,-1.01l0.43,-1.01l0.41,-1.02l0.39,-1.03l0.37,-1.04l0.35,-1.04l0.33,-1.05l0.31,-1.06l0.29,-1.06l0.27,-1.07l0.25,-1.07l0.23,-1.08l0.21,-1.08l0.19,-1.08l0.17,-1.09l0.15,-1.09l0.13,-1.09l0.11,-1.1l0.09,-1.1l0.07,-1.1l0.04,-1.1l0.02,-1.1l0,-0.73M1074.18,256.6l3.03,-8.08l30.48,-77.89l18.6,-40.6l0.78,-1.54l0.78,-1.52l0.78,-1.51l0.79,-1.49l0.79,-1.48l0.79,-1.46l0.79,-1.45l0.79,-1.43l0.79,-1.42l0.79,-1.4l0.79,-1.38l0.79,-1.37l0.79,-1.35l0.79,-1.33l0.79,-1.32l0.79,-1.3l0.8,-1.28l0.8,-1.27l0.8,-1.25l0.8,-1.23l0.8,-1.21l0.8,-1.19l0.8,-1.17l0.8,-1.16l0.8,-1.14l0.8,-1.12l0.81,-1.1l0.81,-1.08l0.81,-1.06l0.81,-1.04l0.81,-1.02l0.81,-1l0.81,-0.98l0.81,-0.96l0.81,-0.93l0.81,-0.91l0.82,-0.89l0.82,-0.87l0.82,-0.85l0.82,-0.83l0.82,-0.8l0.82,-0.78l0.82,-0.76l0.82,-0.74l0.82,-0.71l0.83,-0.69l0.83,-0.67l0.83,-0.64l0.83,-0.62l0.83,-0.59l0.83,-0.57l0.83,-0.54l0.83,-0.52l0.84,-0.49l0.84,-0.47l0.84,-0.44l0.84,-0.42l0.84,-0.39l0.84,-0.37l0.84,-0.34l0.85,-0.31l0.85,-0.29l0.85,-0.26l0.85,-0.23l0.85,-0.21l0.85,-0.18l0.85,-0.15l0.85,-0.12l0.86,-0.09l0.86,-0.07l0.86,-0.04l0.86,-0.01l0.86,0.02l0.86,0.05l0.86,0.08l0.87,0.11l0.87,0.14l0.87,0.17l0.87,0.2l0.87,0.23l0.87,0.26l0.88,0.29l0.88,0.32l0.88,0.35l0.88,0.38l0.88,0.41l0.88,0.45l0.89,0.48l0.89,0.51l0.89,0.54l0.89,0.57l0.89,0.6l0.89,0.63l0.89,0.66l0.9,0.69l0.9,0.72l0.9,0.74l0.9,0.77l0.9,0.8l0.9,0.82l0.9,0.85l0.9,0.88l0.9,0.9l0.91,0.93l0.91,0.95l0.91,0.98l0.91,1l0.91,1.02l0.91,1.04l0.91,1.07l0.91,1.09l0.91,1.11l0.91,1.13l0.91,1.15l0.91,1.17l0.92,1.19l0.92,1.21l0.92,1.23l0.92,1.25l0.92,1.27l0.92,1.28l0.92,1.3l0.92,1.32l0.92,1.34l0.92,1.35l0.92,1.37l0.92,1.38l0.92,1.4l0.92,1.41l0.92,1.43l0.92,1.44l8.28,13.48l1.84,3.11l1.84,3.14l1.83,3.17l47.83,84.73l0.84,1.33l0.83,1.32l0.83,1.3l0.83,1.28l0.83,1.26l0.82,1.24l0.82,1.23l0.82,1.21l0.82,1.19l0.81,1.17l0.81,1.15l0.81,1.13l0.8,1.11l0.8,1.08l0.8,1.06l0.8,1.04l0.79,1.02l0.79,0.99l0.79,0.97l0.78,0.95l0.78,0.92l0.78,0.9l0.77,0.87l0.77,0.84l0.77,0.82l0.76,0.79l0.76,0.77l0.76,0.74l0.75,0.71l0.75,0.68l0.75,0.65l0.74,0.62l0.74,0.59l0.74,0.56l0.73,0.53l0.73,0.5l0.72,0.47l0.72,0.44l0.72,0.41l0.71,0.37l0.71,0.34l0.71,0.31l0.7,0.27l0.7,0.24l0.69,0.21l0.69,0.17l0.69,0.13l0.68,0.1l0.68,0.06l0.67,0.03l0.67,-0.01l0.67,-0.05l0.66,-0.09l0.66,-0.12l0.65,-0.16l0.65,-0.19l0.65,-0.23l0.64,-0.26l0.64,-0.3l0.64,-0.33l0.64,-0.36l0.63,-0.4l0.63,-0.43l0.63,-0.46l0.63,-0.49l0.62,-0.52l0.62,-0.55l0.62,-0.58l0.62,-0.61l0.62,-0.64l0.62,-0.67l0.62,-0.7l0.62,-0.73l0.62,-0.75l0.62,-0.78l0.62,-0.81l0.62,-0.83l0.62,-0.86l0.62,-0.88l0.62,-0.91l0.62,-0.93l0.62,-0.95l0.62,-0.98l0.62,-1l0.62,-1.02l0.63,-1.04l0.63,-1.06l0.63,-1.08l0.63,-1.1l0.64,-1.12l0.64,-1.14l0.64,-1.16l0.64,-1.18l19.16,-36.93l1.61,-2.99l1.64,-3.01l1.67,-3.02l1.71,-3.03l0.87,-1.51l0.88,-1.52l0.89,-1.52l0.9,-1.51l0.91,-1.51l0.92,-1.51l0.93,-1.51l0.94,-1.51l0.95,-1.51l0.96,-1.5l0.97,-1.5l0.98,-1.49l0.99,-1.49l1.01,-1.49l1.02,-1.48l1.03,-1.47l1.04,-1.47l1.05,-1.46l1.07,-1.45l1.08,-1.44l1.09,-1.44l1.11,-1.43l1.12,-1.42l1.13,-1.41l1.15,-1.4l1.16,-1.39l1.17,-1.38l1.19,-1.36l1.2,-1.35l1.22,-1.34l1.23,-1.33l1.25,-1.31l1.26,-1.3l1.28,-1.28l1.29,-1.27l1.31,-1.25l1.32,-1.24l1.34,-1.22l1.35,-1.2l1.37,-1.19l1.39,-1.17l1.4,-1.15l1.42,-1.13l1.44,-1.11l1.45,-1.09l1.47,-1.07l1.49,-1.05l1.51,-1.03l1.52,-1.01l1.54,-0.99l1.56,-0.96l1.58,-0.94l1.6,-0.92l1.62,-0.89l1.63,-0.87l1.65,-0.84l1.67,-0.82l1.68,-0.79l1.7,-0.77l1.71,-0.74l1.72,-0.71l1.73,-0.69l1.74,-0.66l1.75,-0.63l1.76,-0.6l1.77,-0.57l1.77,-0.54l1.77,-0.52l1.77,-0.49l1.78,-0.46l1.78,-0.42l1.77,-0.39l1.77,-0.36l1.77,-0.33l1.76,-0.3l1.76,-0.27l1.75,-0.23l1.74,-0.2l1.73,-0.17l1.72,-0.13l1.7,-0.1l0.85,-0.04l0.84,-0.03l0.84,-0.02l0.84,-0.01l0.83,-0l0.83,0.01l0.82,0.02l0.82,0.03l0.81,0.03l0.81,0.04l0.8,0.05l0.8,0.06l0.79,0.07l0.79,0.08l0.78,0.09l0.78,0.1l0.77,0.11l0.77,0.12l0.76,0.13l0.75,0.14l0.75,0.15l0.74,0.16l0.73,0.17l0.73,0.18l0.72,0.19l0.71,0.2l0.7,0.21l0.7,0.22l0.69,0.23l0.68,0.24l0.67,0.25l0.66,0.26l0.66,0.27l0.65,0.28l0.64,0.29l0.63,0.3l0.62,0.31l0.61,0.32l0.6,0.33l0.59,0.34l0.58,0.35l0.57,0.36l0.56,0.37l0.55,0.38l0.54,0.39l0.53,0.4l0.52,0.41l0.51,0.42l0.5,0.44l0.49,0.45l0.48,0.46l0.47,0.47l0.46,0.48l0.45,0.49l0.43,0.5l0.42,0.51l0.41,0.52l0.4,0.54l0.39,0.55l0.37,0.56l0.36,0.57l0.35,0.58l0.34,0.59l0.32,0.61l0.31,0.62l0.3,0.63l0.28,0.64l0.27,0.65l0.25,0.66l0.24,0.68M536.31,437.92V652.06H773.59V437.92H536.31M1022.45,790.95L1116.98,557.53L1226.94,783.24L1319.54,571.03L1379.35,798.67L1470.02,574.89M1711.16,723.43L1749.75,540.16L1803.76,808.32L1869.35,598.04L1913.72,740.8M1713.09,94.53L1898.29,270.08L2012.11,146.62M1621.93,190.7L1904.65,458.7L2109.54,236.44" />
<path id="cv_4" class="ZW" d="M92.6,54.02L273.94,156.26M536.31,453.55l15.63,-15.63M536.31,476.98l39.06,-39.06M536.31,500.4l62.49,-62.49M536.31,523.83l85.91,-85.91M536.31,547.26L645.64,437.92M536.31,570.68L669.07,437.92M536.31,594.11L692.5,437.92M536.31,617.53L715.92,437.92M536.31,640.96L739.35,437.92M548.64,652.06L762.77,437.92M572.06,652.06L773.59,450.53M595.49,652.06L773.59,473.95M618.91,652.06L773.59,497.38M642.34,652.06L773.59,520.8M665.77,652.06L773.59,544.23M689.19,652.06l84.4,-84.4M712.62,652.06l60.97,-60.97M736.04,652.06l37.55,-37.55M759.47,652.06l14.12,-14.12" />
<path id="cv_5" class="tmsPoints" d="M1676.14,92.6h0.600000" />
<path id="cv_6" class="ZW" d="M123.46,617.33A 96.779577 96.779577 0 1 0 111.9 470.7" />
<g class="sRGB_7" >
<ellipse id="cv_7" class="ZW " cx="868.12" cy="108.03" rx="46.620181" ry="22.580202" transform="rotate(335 868.12 108.03)" />
</g>
</g>
<g style="font-family: arial, helvetica, sans-serif" class="fRGB_7" >
<g font-size="70.533287" class="fRGB_7" >
<text id="cv_8" transform="scale(1.055556 1) translate(999.71 468.79) " >This is a simple text</text>
<text id="cv_9" transform="scale(1.055556 1) translate(997.96 950.46) " >This is a multiline text, see</text>
<text id="cv_10" transform="scale(1.055556 1) translate(994.83 1044.71) " >how it flows to the next line</text>
</g>
</g>
<g class="Block1" id="cv_Block_Block1_1">
<g id="cvclr_11" class="sRGB_7" >
<path id="cv_12" class=" ZW" d="M493.88,958.79l-0.01,-1.16l-0.02,-1.16l-0.04,-1.16l-0.05,-1.16l-0.07,-1.16l-0.08,-1.16l-0.09,-1.16l-0.11,-1.16l-0.12,-1.16l-0.14,-1.16l-0.15,-1.15l-0.17,-1.15l-0.18,-1.15l-0.2,-1.15l-0.21,-1.14l-0.23,-1.14l-0.24,-1.14l-0.25,-1.14l-0.27,-1.13l-0.28,-1.13l-0.3,-1.13l-0.31,-1.12l-0.32,-1.12l-0.34,-1.11l-0.35,-1.11l-0.37,-1.1l-0.38,-1.1l-0.39,-1.1l-0.41,-1.09l-0.42,-1.08l-0.44,-1.08l-0.45,-1.07l-0.46,-1.07l-0.48,-1.06l-0.49,-1.06l-0.5,-1.05l-0.52,-1.04l-0.53,-1.04l-0.54,-1.03l-0.55,-1.02l-0.57,-1.02l-0.58,-1.01l-0.59,-1l-0.61,-0.99l-0.62,-0.99l-0.63,-0.98l-0.64,-0.97l-0.65,-0.96l-0.67,-0.95l-0.68,-0.95l-0.69,-0.94l-0.7,-0.93l-0.71,-0.92l-0.72,-0.91l-0.74,-0.9l-0.75,-0.89l-0.76,-0.88l-0.77,-0.87l-0.78,-0.86l-0.79,-0.85l-0.8,-0.84l-0.81,-0.83l-0.82,-0.82l-0.83,-0.81l-0.84,-0.8l-0.85,-0.79l-0.86,-0.78l-0.87,-0.77l-0.88,-0.76l-0.89,-0.75l-0.9,-0.74l-0.91,-0.72l-0.92,-0.71l-0.93,-0.7l-0.94,-0.69l-0.95,-0.68l-0.95,-0.67l-0.96,-0.65l-0.97,-0.64l-0.98,-0.63l-0.99,-0.62l-0.99,-0.61l-1,-0.59l-1.01,-0.58l-1.02,-0.57l-1.02,-0.55l-1.03,-0.54l-1.04,-0.53l-1.04,-0.52l-1.05,-0.5l-1.06,-0.49l-1.06,-0.48l-1.07,-0.46l-1.07,-0.45l-1.08,-0.44l-1.08,-0.42l-1.09,-0.41l-1.1,-0.39l-1.1,-0.38l-1.1,-0.37l-1.11,-0.35l-1.11,-0.34l-1.12,-0.32l-1.12,-0.31l-1.13,-0.3l-1.13,-0.28l-1.13,-0.27l-1.14,-0.25l-1.14,-0.24l-1.14,-0.23l-1.14,-0.21l-1.15,-0.2l-1.15,-0.18l-1.15,-0.17l-1.15,-0.15l-1.16,-0.14l-1.16,-0.12l-1.16,-0.11l-1.16,-0.09l-1.16,-0.08l-1.16,-0.07l-1.16,-0.05l-1.16,-0.04l-1.16,-0.02l-1.16,-0.01l-1.16,0.01l-1.16,0.02l-1.16,0.04l-1.16,0.05l-1.16,0.07l-1.16,0.08l-1.16,0.09l-1.16,0.11l-1.16,0.12l-1.16,0.14l-1.15,0.15l-1.15,0.17l-1.15,0.18l-1.15,0.2l-1.14,0.21l-1.14,0.23l-1.14,0.24l-1.14,0.25l-1.13,0.27l-1.13,0.28l-1.13,0.3l-1.12,0.31l-1.12,0.32l-1.11,0.34l-1.11,0.35l-1.1,0.37l-1.1,0.38l-1.1,0.39l-1.09,0.41l-1.08,0.42l-1.08,0.44l-1.07,0.45l-1.07,0.46l-1.06,0.48l-1.06,0.49l-1.05,0.5l-1.04,0.52l-1.04,0.53l-1.03,0.54l-1.02,0.55l-1.02,0.57l-1.01,0.58l-1,0.59l-0.99,0.61l-0.99,0.62l-0.98,0.63l-0.97,0.64l-0.96,0.65l-0.95,0.67l-0.95,0.68l-0.94,0.69l-0.93,0.7l-0.92,0.71l-0.91,0.72l-0.9,0.74l-0.89,0.75l-0.88,0.76l-0.87,0.77l-0.86,0.78l-0.85,0.79l-0.84,0.8l-0.83,0.81l-0.82,0.82l-0.81,0.83l-0.8,0.84l-0.79,0.85l-0.78,0.86l-0.77,0.87l-0.76,0.88l-0.75,0.89l-0.74,0.9l-0.72,0.91l-0.71,0.92l-0.7,0.93l-0.69,0.94l-0.68,0.95l-0.67,0.95l-0.65,0.96l-0.64,0.97l-0.63,0.98l-0.62,0.99l-0.61,0.99l-0.59,1l-0.58,1.01l-0.57,1.02l-0.55,1.02l-0.54,1.03l-0.53,1.04l-0.52,1.04l-0.5,1.05l-0.49,1.06l-0.48,1.06l-0.46,1.07l-0.45,1.07l-0.44,1.08l-0.42,1.08l-0.41,1.09l-0.39,1.1l-0.38,1.1l-0.37,1.1l-0.35,1.11l-0.34,1.11l-0.32,1.12l-0.31,1.12l-0.3,1.13l-0.28,1.13l-0.27,1.13l-0.25,1.14l-0.24,1.14l-0.23,1.14l-0.21,1.14l-0.2,1.15l-0.18,1.15l-0.17,1.15l-0.15,1.15l-0.14,1.16l-0.12,1.16l-0.11,1.16l-0.09,1.16l-0.08,1.16l-0.07,1.16l-0.05,1.16l-0.04,1.16l-0.02,1.16l-0.01,1.16l0.01,1.16l0.02,1.16l0.04,1.16l0.05,1.16l0.07,1.16l0.08,1.16l0.09,1.16l0.11,1.16l0.12,1.16l0.14,1.16l0.15,1.15l0.17,1.15l0.18,1.15l0.2,1.15l0.21,1.14l0.23,1.14l0.24,1.14l0.25,1.14l0.27,1.13l0.28,1.13l0.3,1.13l0.31,1.12l0.32,1.12l0.34,1.11l0.35,1.11l0.37,1.1l0.38,1.1l0.39,1.1l0.41,1.09l0.42,1.08l0.44,1.08l0.45,1.07l0.46,1.07l0.48,1.06l0.49,1.06l0.5,1.05l0.52,1.04l0.53,1.04l0.54,1.03l0.55,1.02l0.57,1.02l0.58,1.01l0.59,1l0.61,0.99l0.62,0.99l0.63,0.98l0.64,0.97l0.65,0.96l0.67,0.95l0.68,0.95l0.69,0.94l0.7,0.93l0.71,0.92l0.72,0.91l0.74,0.9l0.75,0.89l0.76,0.88l0.77,0.87l0.78,0.86l0.79,0.85l0.8,0.84l0.81,0.83l0.82,0.82l0.83,0.81l0.84,0.8l0.85,0.79l0.86,0.78l0.87,0.77l0.88,0.76l0.89,0.75l0.9,0.74l0.91,0.72l0.92,0.71l0.93,0.7l0.94,0.69l0.95,0.68l0.95,0.67l0.96,0.65l0.97,0.64l0.98,0.63l0.99,0.62l0.99,0.61l1,0.59l1.01,0.58l1.02,0.57l1.02,0.55l1.03,0.54l1.04,0.53l1.04,0.52l1.05,0.5l1.06,0.49l1.06,0.48l1.07,0.46l1.07,0.45l1.08,0.44l1.08,0.42l1.09,0.41l1.1,0.39l1.1,0.38l1.1,0.37l1.11,0.35l1.11,0.34l1.12,0.32l1.12,0.31l1.13,0.3l1.13,0.28l1.13,0.27l1.14,0.25l1.14,0.24l1.14,0.23l1.14,0.21l1.15,0.2l1.15,0.18l1.15,0.17l1.15,0.15l1.16,0.14l1.16,0.12l1.16,0.11l1.16,0.09l1.16,0.08l1.16,0.07l1.16,0.05l1.16,0.04l1.16,0.02l1.16,0.01l1.16,-0.01l1.16,-0.02l1.16,-0.04l1.16,-0.05l1.16,-0.07l1.16,-0.08l1.16,-0.09l1.16,-0.11l1.16,-0.12l1.16,-0.14l1.15,-0.15l1.15,-0.17l1.15,-0.18l1.15,-0.2l1.14,-0.21l1.14,-0.23l1.14,-0.24l1.14,-0.25l1.13,-0.27l1.13,-0.28l1.13,-0.3l1.12,-0.31l1.12,-0.32l1.11,-0.34l1.11,-0.35l1.1,-0.37l1.1,-0.38l1.1,-0.39l1.09,-0.41l1.08,-0.42l1.08,-0.44l1.07,-0.45l1.07,-0.46l1.06,-0.48l1.06,-0.49l1.05,-0.5l1.04,-0.52l1.04,-0.53l1.03,-0.54l1.02,-0.55l1.02,-0.57l1.01,-0.58l1,-0.59l0.99,-0.61l0.99,-0.62l0.98,-0.63l0.97,-0.64l0.96,-0.65l0.95,-0.67l0.95,-0.68l0.94,-0.69l0.93,-0.7l0.92,-0.71l0.91,-0.72l0.9,-0.74l0.89,-0.75l0.88,-0.76l0.87,-0.77l0.86,-0.78l0.85,-0.79l0.84,-0.8l0.83,-0.81l0.82,-0.82l0.81,-0.83l0.8,-0.84l0.79,-0.85l0.78,-0.86l0.77,-0.87l0.76,-0.88l0.75,-0.89l0.74,-0.9l0.72,-0.91l0.71,-0.92l0.7,-0.93l0.69,-0.94l0.68,-0.95l0.67,-0.95l0.65,-0.96l0.64,-0.97l0.63,-0.98l0.62,-0.99l0.61,-0.99l0.59,-1l0.58,-1.01l0.57,-1.02l0.55,-1.02l0.54,-1.03l0.53,-1.04l0.52,-1.04l0.5,-1.05l0.49,-1.06l0.48,-1.06l0.46,-1.07l0.45,-1.07l0.44,-1.08l0.42,-1.08l0.41,-1.09l0.39,-1.1l0.38,-1.1l0.37,-1.1l0.35,-1.11l0.34,-1.11l0.32,-1.12l0.31,-1.12l0.3,-1.13l0.28,-1.13l0.27,-1.13l0.25,-1.14l0.24,-1.14l0.23,-1.14l0.21,-1.14l0.2,-1.15l0.18,-1.15l0.17,-1.15l0.15,-1.15l0.14,-1.16l0.12,-1.16l0.11,-1.16l0.09,-1.16l0.08,-1.16l0.07,-1.16l0.05,-1.16l0.04,-1.16l0.02,-1.16l0.01,-1.16M283.59,841.11V1068.75H520.87V841.11H283.59" />
<g style="font-family: arial, helvetica, sans-serif" class="fRGB_7" >
<g font-size="70.528646" class="fRGB_7" >
<text id="cv_13" transform="scale(1.055556 1) translate(341.77 987.73) "  cvjs:tag='ID' >1</text>
</g>
</g>
</g>
</g>
<g class="Block1" id="cv_Block_Block1_2">
<g id="cvclr_14" class="sRGB_7" >
<path id="cv_15" class=" ZW" d="M813.93,923.95l-0.83,-0.81l-0.85,-0.79l-0.87,-0.77l-0.89,-0.75l-0.91,-0.72l-0.93,-0.7l-0.95,-0.68l-0.96,-0.65l-0.98,-0.63l-0.99,-0.6l-1.01,-0.58l-1.02,-0.55l-1.04,-0.53l-1.05,-0.5l-0.8,-0.36l-0.8,-0.34l-0.81,-0.33l-0.81,-0.31l-0.82,-0.3l-0.83,-0.28l-0.83,-0.27l-0.84,-0.25l-0.84,-0.24l-0.84,-0.22l-0.85,-0.2l-0.85,-0.19l-0.86,-0.17l-0.86,-0.16l-0.86,-0.14l-0.86,-0.12l-0.87,-0.11l-0.87,-0.09l-0.87,-0.07l-0.87,-0.06l-0.87,-0.04l-0.87,-0.02l-0.87,-0.01l-0.87,0.01l-0.87,0.02l-0.87,0.04l-0.87,0.06l-0.87,0.07l-0.87,0.09l-0.87,0.11l-0.86,0.12l-0.86,0.14l-0.86,0.16l-0.86,0.17l-0.85,0.19l-0.85,0.2l-0.84,0.22l-0.84,0.24l-0.84,0.25l-0.83,0.27l-0.83,0.28l-0.82,0.3l-0.81,0.31l-0.81,0.33l-0.8,0.34l-1.06,0.48l-1.05,0.51l-1.03,0.53l-1.02,0.56l-1.01,0.59l-0.99,0.61l-0.97,0.64l-0.96,0.66l-0.94,0.68l-0.92,0.71l-0.91,0.73l-0.89,0.75l-0.87,0.78l-0.85,0.8l-0.83,0.82l-0.81,0.84l-0.79,0.86l-0.76,0.88l-0.74,0.9l-0.72,0.92l-0.7,0.93l-0.67,0.95l-0.65,0.97l-0.62,0.98l-0.6,1l-0.57,1.01l-0.55,1.03l-0.52,1.04l-0.5,1.05l-0.35,0.8l-0.34,0.8l-0.32,0.81l-0.31,0.82l-0.29,0.82l-0.28,0.83l-0.26,0.83l-0.25,0.84l-0.23,0.84l-0.21,0.85l-0.2,0.85l-0.18,0.85l-0.17,0.86l-0.15,0.86l-0.13,0.86l-0.12,0.86l-0.1,0.87l-0.08,0.87l-0.07,0.87l-0.05,0.87l-0.04,0.87l-0.02,0.87l-0,0.87l0.01,0.87l0.03,0.87l0.05,0.87l0.06,0.87l0.08,0.87l0.1,0.87l0.11,0.87l0.13,0.86l0.14,0.86l0.16,0.86l0.18,0.85l0.19,0.85l0.21,0.85l0.23,0.84l0.24,0.84l0.26,0.83l0.27,0.83l0.29,0.82l0.3,0.82l0.32,0.81l0.33,0.81l0.35,0.8l0.49,1.06l0.52,1.04l0.54,1.03l0.57,1.02l0.59,1l0.62,0.99l0.64,0.97l0.67,0.95l0.69,0.94l0.71,0.92l0.74,0.9l0.76,0.88l0.78,0.86l0.8,0.84l0.82,0.82l0.84,0.8l0.86,0.78l0.88,0.76l0.9,0.74l0.92,0.71l0.94,0.69l0.95,0.67l0.97,0.64l0.99,0.62l1,0.59l1.02,0.57l1.03,0.54l1.04,0.52l1.06,0.49l0.8,0.35l0.81,0.33l0.81,0.32l0.82,0.3l0.82,0.29l0.83,0.27l0.83,0.26l0.84,0.24l0.84,0.23l0.85,0.21l0.85,0.19l0.85,0.18l0.86,0.16l0.86,0.14l0.86,0.13l0.87,0.11l0.87,0.1l0.87,0.08l0.87,0.06l0.87,0.05l0.87,0.03l0.87,0.01l0.87,-0l0.87,-0.02l0.87,-0.04l0.87,-0.05l0.87,-0.07l0.87,-0.08l0.87,-0.1l0.86,-0.12l0.86,-0.13l0.86,-0.15l0.86,-0.17l0.85,-0.18l0.85,-0.2l0.85,-0.21l0.84,-0.23l0.84,-0.25l0.83,-0.26l0.83,-0.28l0.82,-0.29l0.82,-0.31l0.81,-0.32l0.8,-0.34l0.8,-0.35l1.05,-0.5l1.04,-0.52l1.03,-0.55l1.01,-0.57l1,-0.6l0.98,-0.62l0.97,-0.65l0.95,-0.67l0.93,-0.7l0.92,-0.72l0.9,-0.74l0.88,-0.76l0.86,-0.79l0.84,-0.81l0.82,-0.83l0.8,-0.85l0.78,-0.87l0.75,-0.89l0.73,-0.91l0.71,-0.92l0.68,-0.94l0.66,-0.96l0.64,-0.97l0.61,-0.99l0.59,-1.01l0.56,-1.02l0.53,-1.03l0.51,-1.05l0.48,-1.06l0.34,-0.8l0.33,-0.81l0.31,-0.81l0.3,-0.82l0.28,-0.83l0.27,-0.83l0.25,-0.84l0.24,-0.84l0.22,-0.84l0.2,-0.85l0.19,-0.85l0.17,-0.86l0.16,-0.86l0.14,-0.86l0.12,-0.86l0.11,-0.87l0.09,-0.87l0.07,-0.87l0.06,-0.87l0.04,-0.87l0.02,-0.87l0.01,-0.87l-0.01,-0.87l-0.02,-0.87l-0.04,-0.87l-0.06,-0.87l-0.07,-0.87l-0.09,-0.87l-0.11,-0.87l-0.12,-0.86l-0.14,-0.86l-0.16,-0.86l-0.17,-0.86l-0.19,-0.85l-0.2,-0.85l-0.22,-0.84l-0.24,-0.84l-0.25,-0.84l-0.27,-0.83l-0.28,-0.83l-0.3,-0.82l-0.31,-0.81l-0.33,-0.81l-0.34,-0.8l-0.48,-1.06l-0.51,-1.05l-0.53,-1.03l-0.56,-1.02l-0.59,-1.01l-0.61,-0.99l-0.64,-0.97l-0.66,-0.96l-0.68,-0.94l-0.71,-0.92l-0.73,-0.91l-0.75,-0.89l-0.78,-0.87l-0.8,-0.85l-0.61,-0.62M697.97,956.7l80.48,80.48l83.89,-83.89l-80.48,-80.48l-83.89,83.89" />
<g style="font-family: arial, helvetica, sans-serif" class="fRGB_7" >
<g font-size="35.264323" class="fRGB_7" >
<text id="cv_16" transform="scale(1.055556 1) translate(736.2 981.25) rotate(315) "  cvjs:tag='ID' >2</text>
</g>
</g>
</g>
</g>
</g>
</g></svg>