<?xml version="1.0" encoding="utf-8" ?>
<!-- Generated by AutoXChange 64-bit  V23.05.87 from Tailor Made Software -->
<!-- www.tailormade.com -->
<!DOCTYPE svg PUBLIC '-//W3C//DTD SVG 1.0//EN' 
'http://www.w3.org/TR/2001/REC-SVG-20010904/DTD/svg10.dtd'>
<svg id="tmsSVG29" contentScriptType="text/ecmascript" xmlns:xlink="http://www.w3.org/1999/xlink" zoomAndPan="magnify" 
contentStyleType="text/css" preserveAspectRatio="xMidYMid meet" 
width="2500" height="1288.75" viewBox="0 0 2500 1288.75" 
version="1.1" xmlns="http://www.w3.org/2000/svg" xmlns:cvjs="http://www.tailormade.com/" stroke-linecap="butt" stroke-linejoin="round" fill-rule="evenodd" >
<defs>
	<style id="cv_styles" type = "text/css">
	    <![CDATA[
	   #tmsSVG29 { background-color: white; opacity: 1.}
		:root {
		    --tmsMinLineWidth: 0.6;
		    --tmsMinDashLength: 0.6;
		    --tmsHLWidth: 0.6;
		    --tmsNumberOfLayouts: 1;
		    --tmsNumberOfSVGViewports: 0;
         --tmsMinFixedLineWidth: 0.6;
		    --tmsbPostFix: 0;
		}
		.tmsPoints {
		    fill: none;
		    stroke-width: var(--tmsMinLineWidth);
		    r: calc(var(--tmsMinLineWidth)/2.0);
		}
		.ZWhl {
		    stroke-width: var(--tmsHLWidth);
		}
		.ZW {
		    stroke-width: var(--tmsMinLineWidth);
		}
		.ZW6 {
		    stroke-width: calc(var(--tmsMinLineWidth)*6);
		}
		.ZW10 {
		    stroke-width: calc(var(--tmsMinLineWidth)*10);
		}
		.ZW20 {
		    stroke-width: calc(var(--tmsMinLineWidth)*20);
		}
		.ZW100 {
		    stroke-width: calc(var(--tmsMinLineWidth)*100);
		}
		.nZW {
		}
		.sLW_0_2{
		    stroke-width: calc(var(--tmsMinFixedLineWidth)*0.333333);
		}
		.sLW_0_6{
		    stroke-width: var(--tmsMinFixedLineWidth);
		}
		.hyperlinks:hover {
		    stroke-width: 3;
		}
		.hyperimage image{
			opacity: 0;
		}
		.hyperimage:hover image{
			opacity: 1;
		}
		.hyperimage:hover path{
			stroke-width: 3;
		}
		.hyperimage:visited{
			color: red;
		}
	]]></style>
	</defs>
<metadata>
<text id="cadviewer_worldUnits">
{ "globalOrigin": { "x": -0.201633, "y" : -0.143946}, 
						"units": "in",
						"measurementType": "English",
						"lengthType": "Decimal",
						"lengthPrecision": 4,
						"blockUnitsFormat": "Inches",
						"svgToWorldUnits": 0.006574,
						"worldToSVGUnits": 152.107150
}
</text>
<text id="cadviewer_drawingCoordinates">
{ "DWG": 
    { "lowerLeft": { "x": -0.201633, "y" : -0.143946}, 
      "upperRight": { "x": 16.234150, "y" : 8.328707} 
    },
 "SVG": 
    { "lowerLeft": { "x": 0.000000, "y" : 1288.875554}, 
      "upperRight": { "x": 2500.000000, "y" : 0.124446} 
    },
 "Drawing Height": 1289
}
</text>
<text id="cadviewer_vqBuilding"></text>
<text id="cadviewer_vqFloor"></text>
<text id="cadviewer_multiPages">
{ "multiPages": 1, 
                   "currentPage":1,
                   "pages" : [
                        { "fileName":"one_of_simple", "pageName":"ModelSpace"}
                   ]
}
</text>
</metadata>
<g id="cv_main_drawing">
<g id="layer_0" class="layer_0"  cvjs:layerName="0" cvjs:plottable="YES"
 cvjs:status="ON" visibility="visible">
<g id="cvclr_1" stroke="#000" fill="none">
<path id="cv_2" class=" ZW cvjs_handles AcDbPolyline" cvjs:handle="12A" d="M0,0V1288.75H2500V0H0" />
<path id="cv_3" class=" ZW cvjs_handles AcDbSpline" cvjs:handle="12E" d="M1232.98,294.53l3.48,-9.28l3.48,-9.26l3.48,-9.23l1.74,-4.6l1.74,-4.59l1.74,-4.57l1.75,-4.55l1.75,-4.53l1.75,-4.51l1.75,-4.49l1.75,-4.47l1.75,-4.44l1.75,-4.41l1.75,-4.38l1.76,-4.35l1.76,-4.31l1.76,-4.28l1.76,-4.24l1.76,-4.2l1.77,-4.16l0.88,-2.06l0.88,-2.05l0.88,-2.04l0.89,-2.03l0.89,-2.02l0.89,-2l0.89,-1.99l0.89,-1.98l0.89,-1.97l0.89,-1.95l0.89,-1.94l0.89,-1.93l0.89,-1.91l0.89,-1.9l0.89,-1.89l0.89,-1.87l0.89,-1.86l0.89,-1.84l0.9,-1.83l0.9,-1.81l0.9,-1.79l0.9,-1.78l0.9,-1.76l0.9,-1.75l0.9,-1.73l0.9,-1.71l0.9,-1.7l0.9,-1.68l0.9,-1.66l0.9,-1.64l0.91,-1.63l0.91,-1.61l0.91,-1.59l0.91,-1.57l0.91,-1.55l0.91,-1.53l0.91,-1.51l0.91,-1.49l0.91,-1.47l0.91,-1.45l0.92,-1.43l0.92,-1.41l0.92,-1.39l0.92,-1.37l0.92,-1.35l0.92,-1.33l0.92,-1.3l0.92,-1.28l0.92,-1.26l0.93,-1.24l0.93,-1.21l0.93,-1.19l0.93,-1.17l0.93,-1.14l0.93,-1.12l0.93,-1.1l0.93,-1.07l0.94,-1.05l0.94,-1.02l0.94,-1l0.94,-0.97l0.94,-0.95l0.94,-0.92l0.94,-0.9l0.94,-0.87l0.95,-0.84l0.95,-0.82l0.95,-0.79l0.95,-0.76l0.95,-0.74l0.95,-0.71l0.95,-0.68l0.96,-0.65l0.96,-0.63l0.96,-0.6l0.96,-0.57l0.96,-0.54l0.96,-0.51l0.96,-0.48l0.97,-0.45l0.97,-0.42l0.97,-0.39l0.97,-0.36l0.97,-0.33l0.97,-0.3l0.97,-0.27l0.98,-0.24l0.98,-0.2l0.98,-0.17l0.98,-0.14l0.98,-0.11l0.98,-0.08l0.99,-0.04l0.99,-0.01l0.99,0.02l0.99,0.06l0.99,0.09l0.99,0.12l1,0.16l1,0.19l1,0.23l1,0.26l1,0.3l1.01,0.33l1.01,0.37l1.01,0.4l1.01,0.44l1.01,0.48l1.01,0.51l1.02,0.55l1.02,0.58l1.02,0.62l1.02,0.66l1.02,0.69l1.02,0.72l1.03,0.76l1.03,0.79l1.03,0.82l1.03,0.85l1.03,0.89l1.03,0.92l1.03,0.95l1.04,0.98l1.04,1.01l1.04,1.04l1.04,1.06l1.04,1.09l1.04,1.12l1.04,1.15l1.04,1.17l1.05,1.2l1.05,1.22l1.05,1.25l1.05,1.27l1.05,1.3l1.05,1.32l1.05,1.35l1.05,1.37l1.05,1.39l1.05,1.41l1.05,1.43l1.05,1.45l1.05,1.47l1.05,1.49l1.05,1.51l1.05,1.53l1.06,1.55l1.06,1.57l1.06,1.59l1.06,1.6l1.06,1.62l1.06,1.64l1.06,1.65l1.06,1.67l1.06,1.68l1.06,1.69l1.06,1.71l1.06,1.72l1.06,1.73l1.06,1.75l1.06,1.76l1.06,1.77l2.11,3.57l2.11,3.61l2.11,3.64l2.1,3.67l2.1,3.7l2.1,3.72l2.09,3.74l2.09,3.76l4.17,7.54l4.15,7.56l4.13,7.54l2.06,3.76l2.05,3.74l2.04,3.72l2.04,3.7l2.03,3.67l2.02,3.64l2.01,3.6l2.01,3.56l1,1.77l1,1.75l1,1.74l0.99,1.73l0.99,1.72l0.99,1.71l0.99,1.69l0.98,1.68l0.98,1.66l0.98,1.65l0.98,1.63l0.97,1.62l0.97,1.6l0.97,1.58l0.97,1.57l0.96,1.55l0.96,1.53l0.96,1.51l0.95,1.49l0.95,1.47l0.95,1.45l0.95,1.43l0.94,1.41l0.94,1.39l0.94,1.36l0.93,1.34l0.93,1.32l0.93,1.29l0.92,1.27l0.92,1.24l0.92,1.22l0.91,1.19l0.91,1.17l0.91,1.14l0.9,1.11l0.9,1.09l0.9,1.06l0.89,1.03l0.89,1l0.88,0.97l0.88,0.94l0.88,0.91l0.87,0.88l0.87,0.85l0.87,0.81l0.86,0.78l0.86,0.75l0.85,0.72l0.85,0.68l0.84,0.65l0.84,0.61l0.84,0.58l0.83,0.54l0.83,0.5l0.82,0.47l0.82,0.43l0.81,0.39l0.81,0.35l0.81,0.31l0.8,0.28l0.8,0.24l0.79,0.2l0.79,0.15l0.78,0.11l0.78,0.07l0.77,0.03l0.77,-0.01l0.76,-0.06l0.76,-0.1l0.75,-0.14l0.75,-0.18l0.75,-0.22l0.74,-0.26l0.74,-0.3l0.74,-0.34l0.73,-0.38l0.73,-0.42l0.73,-0.46l0.72,-0.49l0.72,-0.53l0.72,-0.57l0.72,-0.6l0.72,-0.64l0.71,-0.67l0.71,-0.7l0.71,-0.74l0.71,-0.77l0.71,-0.8l0.71,-0.83l0.71,-0.87l0.71,-0.9l0.71,-0.93l0.71,-0.96l0.71,-0.98l0.71,-1.01l0.71,-1.04l0.71,-1.07l0.71,-1.09l0.71,-1.12l0.72,-1.15l0.72,-1.17l0.72,-1.2l0.72,-1.22l0.72,-1.24l0.73,-1.27l0.73,-1.29l0.73,-1.31l0.74,-1.33l0.74,-1.35l0.74,-1.37l0.75,-1.39l0.75,-1.41l0.75,-1.43l0.76,-1.45l0.76,-1.47l0.77,-1.48l0.77,-1.5l0.78,-1.52l0.78,-1.53l0.79,-1.55l0.8,-1.56l0.8,-1.57l0.81,-1.59l0.81,-1.6l0.82,-1.61l0.83,-1.62l0.84,-1.63l1.69,-3.3l1.72,-3.34l1.76,-3.37l0.89,-1.7l1.81,-3.41l1.84,-3.43l1.88,-3.45l1.92,-3.46l1.96,-3.47l1,-1.74l1.01,-1.74l1.02,-1.74l1.03,-1.74l1.04,-1.74l1.05,-1.74l1.07,-1.73l1.08,-1.73l1.09,-1.73l1.1,-1.72l1.12,-1.72l1.13,-1.72l1.14,-1.71l1.16,-1.7l1.17,-1.7l1.18,-1.69l1.2,-1.68l1.21,-1.68l1.23,-1.67l1.24,-1.66l1.25,-1.65l1.27,-1.64l1.28,-1.63l1.3,-1.62l1.32,-1.6l1.33,-1.59l1.35,-1.58l1.36,-1.57l1.38,-1.55l1.4,-1.54l1.41,-1.52l1.43,-1.51l1.45,-1.49l1.46,-1.47l1.48,-1.46l1.5,-1.44l1.52,-1.42l1.54,-1.4l1.55,-1.38l1.57,-1.36l1.59,-1.34l1.61,-1.32l1.63,-1.3l1.65,-1.28l1.67,-1.25l1.69,-1.23l1.71,-1.21l1.73,-1.18l1.75,-1.16l1.77,-1.13l1.79,-1.11l1.81,-1.08l1.83,-1.05l1.85,-1.02l1.88,-1l1.9,-0.97l1.92,-0.94l1.93,-0.91l1.95,-0.88l1.97,-0.85l1.98,-0.82l1.99,-0.79l2,-0.76l2.01,-0.72l2.02,-0.69l2.03,-0.66l2.03,-0.63l2.03,-0.59l2.04,-0.56l2.04,-0.52l2.04,-0.49l2.04,-0.45l2.03,-0.42l2.03,-0.38l2.02,-0.34l2.01,-0.31l2.01,-0.27l2,-0.23l1.98,-0.19l1.97,-0.15l1.96,-0.11l0.97,-0.04l0.97,-0.03l0.96,-0.02l0.96,-0.01l0.95,-0l0.95,0.01l0.95,0.02l0.94,0.03l0.93,0.04l0.93,0.05l0.92,0.06l0.92,0.07l0.91,0.08l0.91,0.09l0.9,0.1l0.89,0.11l0.89,0.13l0.88,0.14l0.87,0.15l0.86,0.16l0.86,0.17l0.85,0.18l0.84,0.19l0.83,0.2l0.83,0.21l0.82,0.22l0.81,0.24l0.8,0.25l0.79,0.26l0.78,0.27l0.77,0.28l0.76,0.29l0.75,0.31l0.74,0.32l0.73,0.33l0.72,0.34l0.71,0.35l0.7,0.36l0.69,0.38l0.68,0.39l0.67,0.4l0.66,0.41l0.65,0.43l0.64,0.44l0.63,0.45l0.61,0.46l0.6,0.47l0.59,0.49l0.58,0.5l0.56,0.51l0.55,0.53l0.54,0.54l0.53,0.55l0.51,0.56l0.5,0.58l0.49,0.59l0.47,0.6l0.46,0.62l0.44,0.63l0.43,0.64l0.41,0.65l0.4,0.67l0.39,0.68l0.37,0.69l0.36,0.71l0.34,0.72l0.32,0.74l0.31,0.75l0.29,0.76l0.28,0.78" />
<path id="cv_4" class=" ZW cvjs_handles AcDbPolyline" cvjs:handle="135" d="M615.59,502.66V748.45H887.95V502.66H615.59" />
<path id="cv_5" class=" ZW cvjs_handles AcDbPolyline" cvjs:handle="139" d="M1173.6,907.88L1282.11,639.95L1408.33,899.03L1514.61,655.45L1583.26,916.74L1687.33,659.88" />
<path id="cv_6" class=" ZW cvjs_handles AcDb3dPolyline" cvjs:handle="157" d="M1964.13,830.38L2008.41,620.02L2070.42,927.81L2145.7,686.45L2196.63,850.31" />
<path id="cv_7" class=" ZW cvjs_handles AcDbMline" cvjs:handle="15E" d="M1966.34,108.5L2178.92,310.01L2309.57,168.29M1861.7,218.9L2186.21,526.51L2421.4,271.39" />
<path id="cv_8" class="ZW cvjs_handles AcDbLine" cvjs:handle='12B' d="M106.29,62L314.44,179.36" />
<path id="cv_9" class="ZW cvjs_handles AcDbHatch" cvjs:handle='138' d="M615.59,520.6l17.95,-17.95" />
<path id="cv_10" class="ZW cvjs_handles AcDbHatch" cvjs:handle='138' d="M615.59,547.49l44.83,-44.83" />
<path id="cv_11" class="ZW cvjs_handles AcDbHatch" cvjs:handle='138' d="M615.59,574.38l71.72,-71.72" />
<path id="cv_12" class="ZW cvjs_handles AcDbHatch" cvjs:handle='138' d="M615.59,601.27l98.61,-98.61" />
<path id="cv_13" class="ZW cvjs_handles AcDbHatch" cvjs:handle='138' d="M615.59,628.16L741.09,502.66" />
<path id="cv_14" class="ZW cvjs_handles AcDbHatch" cvjs:handle='138' d="M615.59,655.05L767.98,502.66" />
<path id="cv_15" class="ZW cvjs_handles AcDbHatch" cvjs:handle='138' d="M615.59,681.94L794.87,502.66" />
<path id="cv_16" class="ZW cvjs_handles AcDbHatch" cvjs:handle='138' d="M615.59,708.83L821.76,502.66" />
<path id="cv_17" class="ZW cvjs_handles AcDbHatch" cvjs:handle='138' d="M615.59,735.71L848.65,502.66" />
<path id="cv_18" class="ZW cvjs_handles AcDbHatch" cvjs:handle='138' d="M629.74,748.45L875.54,502.66" />
<path id="cv_19" class="ZW cvjs_handles AcDbHatch" cvjs:handle='138' d="M656.63,748.45L887.95,517.13" />
<path id="cv_20" class="ZW cvjs_handles AcDbHatch" cvjs:handle='138' d="M683.52,748.45L887.95,544.02" />
<path id="cv_21" class="ZW cvjs_handles AcDbHatch" cvjs:handle='138' d="M710.41,748.45L887.95,570.91" />
<path id="cv_22" class="ZW cvjs_handles AcDbHatch" cvjs:handle='138' d="M737.3,748.45L887.95,597.79" />
<path id="cv_23" class="ZW cvjs_handles AcDbHatch" cvjs:handle='138' d="M764.19,748.45L887.95,624.68" />
<path id="cv_24" class="ZW cvjs_handles AcDbHatch" cvjs:handle='138' d="M791.08,748.45l96.88,-96.88" />
<path id="cv_25" class="ZW cvjs_handles AcDbHatch" cvjs:handle='138' d="M817.97,748.45l69.99,-69.99" />
<path id="cv_26" class="ZW cvjs_handles AcDbHatch" cvjs:handle='138' d="M844.85,748.45l43.1,-43.1" />
<path id="cv_27" class="ZW cvjs_handles AcDbHatch" cvjs:handle='138' d="M871.74,748.45l16.21,-16.21" />
<path id="cv_28" class="tmsPoints" d="M1923.97,106.29h0.600000" />
<path id="cv_29" class="ZW cvjs_handles AcDbArc" cvjs:handle='130' d="M141.71,708.59A 111.086748 111.086748 0 1 0 128.44 540.29" />
<circle id="cv_30" class="cvjs_handles AcDbCircle ZW" cvjs:handle='12C' cx="606.73" cy="135.08" r="67.018361" />
<ellipse id="cv_31" class="cvjs_handles AcDbEllipse ZW" cvjs:handle='12D' cx="996.46" cy="124" rx="53.512161" ry="25.918290" transform="rotate(335 996.46 124)" />
</g>
<g style="font-family: arial, helvetica, sans-serif" stroke="none" fill="#000">
<g font-size="80.960402" stroke="none" fill="#000">
<text id="cv_32" class="cvjs_handles AcDbText" cvjs:handle='143' transform="scale(0.950000 1) translate(1275 538.09) " >This is a simple text</text>
<text id="cv_33" class="cvjs_handles AcDbMText" cvjs:handle='144' transform="scale(0.950000 1) translate(1272.77 1090.97) " >This is a multiline text, see</text>
<text id="cv_34" class="cvjs_handles AcDbMText" cvjs:handle='144' transform="scale(0.950000 1) translate(1268.78 1199.15) " >how it flows to the next line</text>
</g>
</g>
<g class="Block1" id="cv_Block_Block1_1">
<g id="cvclr_35" stroke="#000" fill="none">
<path id="cv_36" class=" ZW cvjs_handles AcDbPolyline" cvjs:handle="14A" cvjs:bhandle='14B' d="M325.51,965.46V1226.75H597.87V965.46H325.51" />
<circle id="cv_37" class="cvjs_handles AcDbCircle ZW" cvjs:handle='149' cvjs:bhandle='14B' cx="460.58" cy="1100.53" r="106.311815" />
<g style="font-family: arial, helvetica, sans-serif" stroke="none" fill="#000">
<g font-size="80.955076" stroke="none" fill="#000">
<text id="cv_38" class="cvjs_handles AcDbAttribute cvjs_attribute" cvjs:handle='14C' cvjs:bhandle='14B' transform="scale(0.950000 1) translate(435.88 1133.75) "  cvjs:tag='ID' >1</text>
</g>
</g>
</g>
</g>
<g class="Block1" id="cv_Block_Block1_2">
<g id="cvclr_39" stroke="#000" fill="none">
<path id="cv_40" class=" ZW cvjs_handles AcDbPolyline" cvjs:handle="14A" cvjs:bhandle='154' d="M801.16,1098.13l92.38,92.38l96.3,-96.3l-92.38,-92.38l-96.3,96.3" />
<circle id="cv_41" class="cvjs_handles AcDbCircle ZW" cvjs:handle='149' cvjs:bhandle='154' cx="896.67" cy="1098.13" r="53.155907" />
<g style="font-family: arial, helvetica, sans-serif" stroke="none" fill="#000">
<g font-size="40.477538" stroke="none" fill="#000">
<text id="cv_42" class="cvjs_handles AcDbAttribute cvjs_attribute" cvjs:handle='155' cvjs:bhandle='154' transform="scale(0.950000 1) translate(938.92 1126.31) rotate(315) "  cvjs:tag='ID' >2</text>
</g>
</g>
</g>
</g>
</g>
</g></svg>