<?xml version="1.0" encoding="utf-8"?>
<!-- Generator: Adobe Illustrator 24.0.2, SVG Export Plug-In . SVG Version: 6.00 Build 0)  -->
<svg version="1.0" id="Edited_x5F_1" xmlns="http://www.w3.org/2000/svg" xmlns:xlink="http://www.w3.org/1999/xlink" x="0px"
	 y="0px" viewBox="0 0 393.7 304.09" style="enable-background:new 0 0 393.7 304.09;" xml:space="preserve">
<style type="text/css">
	.st0{fill:none;stroke:#000000;stroke-width:0.6;stroke-miterlimit:10;}
	.st1{font-family:'MyriadPro-Regular';}
	.st2{font-size:8px;}
	.st3{font-size:10px;}
</style>
<rect x="75.55" y="58.91" class="st0" width="35.2" height="22.88"/>
<path id="p8t1" class="st0" d="M75.55,81.67l0.36,37.06h34.84V82.09L75.55,81.67z"/>
<polygon class="st0" points="110.75,118.85 110.75,132.74 75.55,132.74 75.91,118.85 "/>
<rect x="110.75" y="100.53" class="st0" width="36.64" height="32.21"/>
<rect x="110.75" y="58.91" class="st0" width="36.64" height="4.98"/>
<path id="p8t2" class="st0" d="M110.75,63.89v36.64h36.64V63.89H110.75z"/>
<path id="_x3C_Path_x3E_" class="st0" d="M147.39,58.91v23.3h36.64v-23.3H147.39z"/>
<path id="p8t3" class="st0" d="M147.39,82.21v36.64h36.64V82.21H147.39z"/>
<rect x="147.39" y="118.85" class="st0" width="36.64" height="13.89"/>
<rect x="184.03" y="58.91" class="st0" width="36.64" height="4.98"/>
<path id="p8t4" class="st0" d="M184.03,63.89v36.64h36.64V63.89H184.03z"/>
<rect x="184.03" y="100.53" class="st0" width="36.64" height="32.21"/>
<rect x="220.67" y="58.91" class="st0" width="36.64" height="23.3"/>
<path id="p8t5" class="st0" d="M220.67,82.21v36.64h36.64V82.21H220.67z"/>
<rect x="220.67" y="118.85" class="st0" width="36.64" height="13.89"/>
<rect x="257.31" y="58.91" class="st0" width="36.64" height="4.98"/>
<path id="p8t6" class="st0" d="M257.31,63.89v36.64h36.64V63.89H257.31z"/>
<rect x="257.31" y="100.53" class="st0" width="36.64" height="32.21"/>
<polygon class="st0" points="327.48,132.74 293.95,132.74 293.95,118.85 327.46,118.85 "/>
<path id="p8t7" class="st0" d="M327.41,82.21h-33.46v36.64h33.51L327.41,82.21z"/>
<path id="_x3C_Path_x3E__1_" class="st0" d="M327.38,58.91h-33.43v23.3h33.46L327.38,58.91z"/>
<g id="Names">
	<text transform="matrix(1 0 0 1 79.2935 65.4855)" class="st1 st2">A</text>
	<text transform="matrix(1 0 0 1 111.0187 57.4453)" class="st1 st2">A</text>
	<text transform="matrix(1 0 0 1 76.825 124.8755)" class="st1 st2">A</text>
	<text transform="matrix(1 0 0 1 111.7187 106.6955)" class="st1 st2">A</text>
	<text transform="matrix(1 0 0 1 148.5987 124.8755)" class="st1 st2">A</text>
	<text transform="matrix(1 0 0 1 147.5988 89.4054)" class="st1 st2">A</text>
	<text transform="matrix(1 0 0 1 184.9984 57.4453)" class="st1 st2">A</text>
	<text transform="matrix(1 0 0 1 185.3788 106.9983)" class="st1 st2">A</text>
	<text transform="matrix(1 0 0 1 221.8683 124.8755)" class="st1 st2">A</text>
	<text transform="matrix(1 0 0 1 222.1683 65.1955)" class="st1 st2">A</text>
	<text transform="matrix(1 0 0 1 258.2683 57.4455)" class="st1 st2">A</text>
	<text transform="matrix(1 0 0 1 258.6588 106.9983)" class="st1 st2">A</text>
	<text transform="matrix(1 0 0 1 295.1286 125.3183)" class="st1 st2">A</text>
	<text transform="matrix(1 0 0 1 295.6486 88.597)" class="st1 st2">B</text>
	<text transform="matrix(1 0 0 1 294.869 65.2363)" class="st1 st2">B</text>
	<text transform="matrix(1 0 0 1 258.5084 70.1455)" class="st1 st2">B</text>
	<text transform="matrix(1 0 0 1 221.8683 88.4654)" class="st1 st2">B</text>
	<text transform="matrix(1 0 0 1 184.9987 70.3462)" class="st1 st2">B</text>
	<text transform="matrix(1 0 0 1 148.1288 65.087)" class="st1 st2">B</text>
	<text transform="matrix(1 0 0 1 111.7183 70.1455)" class="st1 st2">B</text>
	<text transform="matrix(1 0 0 1 79.1183 90.2455)" class="st1 st2">B</text>
	<text transform="matrix(1 0 0 1 87.3942 103.0954)" class="st1 st3">8/1</text>
	<text transform="matrix(1 0 0 1 121.8675 94.9057)" class="st1 st3">8/2</text>
	<text transform="matrix(1 0 0 1 160.2084 104.0805)" class="st1 st3">8/3</text>
	<text transform="matrix(1 0 0 1 196.1193 94.9056)" class="st1 st3">8/4</text>
	<text transform="matrix(1 0 0 1 232.8026 104.0806)" class="st1 st3">8/5</text>
	<text transform="matrix(1 0 0 1 269.5692 94.9058)" class="st1 st3">8/6</text>
	<text transform="matrix(1 0 0 1 304.928 104.0804)" class="st1 st3">8/7</text>
</g>
<g id="Extras">
	<text transform="matrix(0 -1 1 0 325.0656 250.3669)" class="st1 st3">CH  -0.126</text>
	<text transform="matrix(0 -1 1 0 73.1251 250.3669)" class="st1 st3">CH  13.626</text>
	<line class="st0" x1="327.48" y1="132.74" x2="327.48" y2="249.58"/>
	<line class="st0" x1="75.55" y1="132.74" x2="75.55" y2="249.58"/>
</g>
</svg>
