<?xml version="1.0" encoding="utf-8" ?> <!DOCTYPE svg PUBLIC "-//W3C//DTD SVG 1.1//EN" "http://www.w3.org/Graphics/SVG/1.1/DTD/svg11.dtd"><svg contentScriptType="text/ecmascript" xmlns:xlink="http://www.w3.org/1999/xlink" zoomAndPan="magnify" contentStyleType="text/css" preserveAspectRatio="xMidYMid meet" width="7500" height="6347.5205078125" viewbox="-2500 -2115.840087890625 7500 6347.5205078125" version="1.1" xmlns="http://www.w3.org/2000/svg" xmlns:cvjs="http://www.tailormade.com/" stroke-linecap="butt" stroke-linejoin="round" fill-rule="evenodd" filter="url(#grayscale)"> <filter id="grayscale"><feColorMatrix type="matrix" values="0.1 0.1 0.1 0 0 0.1 0.1 0.1 0 0 0.1 0.1 0.1 0 0 0 0 0 1 0"/></filter><svg id="floorPlan_svg" style="position: absolute; display: block; overflow: hidden; width: 870px; height: 501.469px; background-color: white;" viewBox="0 0 2500 2115.84" xmlns="http://www.w3.org/2000/svg"><g fill="#ffffff" id="master_floorPlan_svg" style="fill-opacity: 0.01; stroke-width: 0;" transform="matrix(3,0,0,3,-2500,-2115.8401)"><rect x="0" y="0" width="2500" height="2115.840087890625"></rect></g><g id="main_master_floorPlan_svg"><svg x="0" y="0" width="10000" height="10000" viewBox="0 0 10000 10000"><desc>Created with Snap</desc><defs></defs><!--?xml version="1.0" encoding="utf-8" ?-->
<!-- Generated by AutoXChange V24.01.109c  64-bit from Tailor Made Software -->
<!-- www.tailormade.com and www.cadviewer.com -->

<svg id="tmsSVG11" contentscripttype="text/ecmascript" xmlns:xlink="http://www.w3.org/1999/xlink" zoomAndPan="magnify" contentstyletype="text/css" preserveAspectRatio="xMidYMid meet" width="2500" height="2115.84" viewBox="0 0 2500 2115.84" version="1.1" xmlns="http://www.w3.org/2000/svg" xmlns:cvjs="http://www.tailormade.com/" stroke-linecap="butt" stroke-linejoin="round" fill-rule="evenodd">
<defs>
	<style id="cv_styles" type="text/css">
	    
	   #tmsSVG11 { background-color: white; opacity: 1.}
		:root {
		    --tmsLineWeightScale: 1;
		    --tmsMinLineWidth: 0.6;
		    --tmsCalcMinLineWeight: calc(var(--tmsMinLineWidth)*var(--tmsLineWeightScale));
		    --tmsMinDashLength: 0.6;
		    --tmsHLWidth: 0.6;
		    --tmsNumberOfLayouts: 1;
		    --tmsNumberOfSVGViewports: 0;
         --tmsMinFixedLineWidth: 0.6;
         --tmsCalcFixedLineWidth:  calc(var(--tmsMinFixedLineWidth)*var(--tmsLineWeightScale));
		    --tmsbPostFix: 0;
		}
		.tmsPoints {
		    fill: none;
		    stroke-width: var(--tmsCalcFixedLineWidth);
		    r: calc(var(--tmsCalcFixedLineWidth)/2.0);
		}
		.ZWhl {
		    stroke-width: var(--tmsHLWidth);
		}
		.ZW {
		    stroke-width: var(--tmsCalcMinLineWeight);
		}
		.ZW6 {
		    stroke-width: calc(var(--tmsCalcMinLineWeight)*6);
		}
		.ZW10 {
		    stroke-width: calc(var(--tmsCalcMinLineWeight)*10);
		}
		.ZW20 {
		    stroke-width: calc(var(--tmsCalcMinLineWeight)*20);
		}
		.ZW100 {
		    stroke-width: calc(var(--tmsCalcMinLineWeight)*100);
		}
		.nZW {
		}
		.sLW_0_0{
		    stroke-width: calc(var(--tmsCalcFixedLineWidth)*0.25);
		}
		.sLW_0_2{
		    stroke-width: calc(var(--tmsCalcFixedLineWidth)*0.333333);
		}
		.sRGB_5 {
		    stroke: #00F;
		    fill: none;
		}
		.fRGB_5 {
		    stroke: #00F;
		    fill: #00F;
		}
		.sRGB_7 {
		    stroke: #000;
		    fill: none;
		}
		.fRGB_7 {
		    stroke: #000;
		    fill: #000;
		}
		.hyperlinks:hover {
		    stroke-width: 3;
		}
		.hyperimage image{
			opacity: 0;
		}
		.hyperimage:hover image{
			opacity: 1;
		}
		.hyperimage:hover path{
			stroke-width: 3;
		}
		.hyperimage:visited{
			color: red;
		}
	</style>
	</defs>
<metadata>
<text id="cadviewer_Used_Colors" style="stroke-width: 0;">[5,7]</text>
<text id="cadviewer_worldUnits" style="stroke-width: 0;">
{ "globalOrigin": { "x": -136.767903, "y" : -196.014668}, 
						"units": "mm",
						"measurementType": "Metric",
						"lengthType": "Decimal",
						"lengthPrecision": 4,
						"blockUnitsFormat": "Millimeters",
						"svgToWorldUnits": 0.246637,
						"worldToSVGUnits": 4.054541
}
</text>
<text id="cadviewer_drawingCoordinates" style="stroke-width: 0;">
{ "DWG": 
    { "lowerLeft": { "x": -136.767903, "y" : -196.014668}, 
      "upperRight": { "x": 479.824664, "y" : 325.830703} 
    },
 "SVG": 
    { "lowerLeft": { "x": 0.000000, "y" : 2115.921792}, 
      "upperRight": { "x": 2500.000000, "y" : 0.078208} 
    },
 "Drawing Height": 2116
}
</text>
<text id="cadviewer_vqBuilding" style="stroke-width: 0;"></text>
<text id="cadviewer_vqFloor" style="stroke-width: 0;"></text>
<text id="cadviewer_multiPages" style="stroke-width: 0;">
{ "multiPages": 3, 
                   "currentPage":1,
                   "pages" : [
                        { "fileName":"F35e5b8dcd800eaae545a4bbc6a56b73839116938.svg", "pageName":"ModelSpace"},
                        { "fileName":"F35e5b8dcd800eaae545a4bbc6a56b73839116938_Layout__uBC30_uCE581.svg", "pageName":"\uBC30\uCE581"},
                        { "fileName":"F35e5b8dcd800eaae545a4bbc6a56b73839116938_Layout__uBC30_uCE582.svg", "pageName":"\uBC30\uCE582"}
                   ]
}
</text>
</metadata>
<g id="cv_main_drawing">
<g id="layer_0" class="layer_0" cvjs:layername="0" cvjs:plottable="YES" cvjs:status="ON" visibility="visible" display="inline">
<g id="cvclr_1" class="fRGB_5">
<path id="cv_2" class="cvjs_handles AcDbSolid" cvjs:handle="E32" opacity="0.5" d="M1941.18,457.82l32.44,5.41l-32.44,5.41v-10.81 Z " style="stroke-linejoin: round;"></path>
<path id="cv_3" class="cvjs_handles AcDbSolid" cvjs:handle="E33" opacity="0.5" d="M992.42,457.82l-32.44,5.41l32.44,5.41v-10.81 Z " style="stroke-linejoin: round;"></path>
<path id="cv_4" class="cvjs_handles AcDbSolid" cvjs:handle="DD5" opacity="0.5" d="M927.55,457.82l32.44,5.41l-32.44,5.41v-10.81 Z " style="stroke-linejoin: round;"></path>
<path id="cv_5" class="cvjs_handles AcDbSolid" cvjs:handle="DD6" opacity="0.5" d="M586.97,457.82l-32.44,5.41l32.44,5.41v-10.81 Z " style="stroke-linejoin: round;"></path>
<path id="cv_6" class="cvjs_handles AcDbSolid" cvjs:handle="E29" opacity="0.5" d="M494.71,542.62l5.41,-32.44l5.41,32.44h-10.81 Z " style="stroke-linejoin: round;"></path>
<path id="cv_7" class="cvjs_handles AcDbSolid" cvjs:handle="E2A" opacity="0.5" d="M494.71,1288.66l5.41,32.44l5.41,-32.44h-10.81 Z " style="stroke-linejoin: round;"></path>
<path id="cv_8" class="cvjs_handles AcDbSolid" cvjs:handle="E17" opacity="0.5" d="M1031.87,484.17l-26.76,-19.11l19.11,26.76l7.65,-7.65 Z " style="stroke-linejoin: round;"></path>
<path id="cv_9" class="cvjs_handles AcDbSolid" cvjs:handle="E18" opacity="0.5" d="M1796.91,1249.2l19.11,26.76l-26.76,-19.11l7.65,-7.65 Z " style="stroke-linejoin: round;"></path>
<path id="cv_10" class="cvjs_handles AcDbSolid" cvjs:handle="DE9" opacity="0.5" d="M2202.67,862.11l-30.64,11.94l32.86,-1.36l-2.22,-10.58 Z " style="stroke-linejoin: round;"></path>
<path id="cv_11" class="cvjs_handles AcDbSolid" cvjs:handle="DF0" opacity="0.5" d="M1816.84,740.28l18.22,27.37l-26.12,-19.98l7.89,-7.39 Z " style="stroke-linejoin: round;"></path>
<path id="cv_12" class="cvjs_handles AcDbSolid" cvjs:handle="DF1" opacity="0.5" d="M2138.29,1083.61l-26.12,-19.98l18.22,27.37l7.89,-7.39 Z " style="stroke-linejoin: round;"></path>
<path id="cv_13" class="cvjs_handles AcDbSolid" cvjs:handle="1047" opacity="0.5" d="M1469.83,1066.18l25.94,-20.21l-17.98,27.53l-7.96,-7.32 Z " style="stroke-linejoin: round;"></path>
<path id="cv_14" class="cvjs_handles AcDbSolid" cvjs:handle="1048" opacity="0.5" d="M1388.56,1288.91l-6.75,32.18l-4.05,-32.63l10.8,0.45 Z " style="stroke-linejoin: round;"></path>
<path id="cv_15" class="cvjs_handles AcDbSolid" cvjs:handle="1062" opacity="0.5" d="M992.64,864.82l-32.65,-3.9l32.15,-6.9l0.5,10.8 Z " style="stroke-linejoin: round;"></path>
<path id="cv_16" class="cvjs_handles AcDbSolid" cvjs:handle="1063" opacity="0.5" d="M1180.37,776.04l27.61,-17.86l-20.33,25.85l-7.28,-7.99 Z " style="stroke-linejoin: round;"></path>
<path id="cv_17" class="cvjs_handles AcDbSolid" cvjs:handle="106D" opacity="0.5" d="M1073.34,1352.53l9.64,-31.44l1.08,32.87l-10.72,-1.43 Z " style="stroke-linejoin: round;"></path>
<path id="cv_18" class="cvjs_handles AcDbSolid" cvjs:handle="106E" opacity="0.5" d="M927.12,1197.03l32.87,1.08l-31.44,9.64l-1.43,-10.72 Z " style="stroke-linejoin: round;"></path>
<path id="cv_19" class="cvjs_handles AcDbSolid" cvjs:handle="108D" opacity="0.5" d="M1534.83,1353.83l3.13,-32.73l7.65,31.98l-10.79,0.75 Z " style="stroke-linejoin: round;"></path>
<path id="cv_20" class="cvjs_handles AcDbSolid" cvjs:handle="108E" opacity="0.5" d="M1630.56,1500.2l23.87,22.62l-29.92,-13.65l6.04,-8.96 Z " style="stroke-linejoin: round;"></path>
<path id="cv_21" class="cvjs_handles AcDbSolid" cvjs:handle="1083" opacity="0.5" d="M947.66,1510.4l-19.93,26.16l10.37,-31.21l9.56,5.05 Z " style="stroke-linejoin: round;"></path>
<path id="cv_22" class="cvjs_handles AcDbSolid" cvjs:handle="1084" opacity="0.5" d="M978.84,1353.3l6.62,-32.21l4.18,32.62l-10.8,-0.41 Z " style="stroke-linejoin: round;"></path>
<path id="cv_23" class="cvjs_handles AcDbSolid" cvjs:handle="1078" opacity="0.5" d="M1550.7,1765.36l-22.41,-24.07l29,15.5l-6.59,8.57 Z " style="stroke-linejoin: round;"></path>
<path id="cv_24" class="cvjs_handles AcDbSolid" cvjs:handle="1079" opacity="0.5" d="M1342.93,1814.23l17.37,-27.92l-7.37,32.05l-9.99,-4.12 Z " style="stroke-linejoin: round;"></path>
<path id="cv_25" class="cvjs_handles AcDbSolid" cvjs:handle="E20" opacity="0.5" d="M1822.39,1388.28l20.9,-25.39l-11.54,30.79l-9.36,-5.41 Z " style="stroke-linejoin: round;"></path>
<path id="cv_26" class="cvjs_handles AcDbSolid" cvjs:handle="E21" opacity="0.5" d="M1550.74,1858.8l-11.54,30.79l20.9,-25.39l-9.36,-5.41 Z " style="stroke-linejoin: round;"></path>
<path id="cv_27" class="cvjs_handles AcDbSolid" cvjs:handle="E3B" opacity="0.5" d="M549.26,1395.1l-30.79,-11.54l25.39,20.9l5.41,-9.36 Z " style="stroke-linejoin: round;"></path>
<path id="cv_28" class="cvjs_handles AcDbSolid" cvjs:handle="E3C" opacity="0.5" d="M1405.35,1889.37l25.39,20.9l-30.79,-11.54l5.41,-9.36 Z " style="stroke-linejoin: round;"></path>
</g>
<g id="cvclr_29" class="sRGB_7">
<path id="cv_30" class=" ZW cvjs_handles AcDbCircle" cvjs:handle="2A2" d="M2176.35,915.64l-0,-1.27l-0.01,-1.27l-0.02,-1.27l-0.03,-1.27l-0.04,-1.27l-0.04,-1.27l-0.05,-1.27l-0.06,-1.27l-0.07,-1.27l-0.08,-1.27l-0.08,-1.27l-0.09,-1.27l-0.1,-1.27l-0.11,-1.27l-0.12,-1.27l-0.12,-1.27l-0.13,-1.27l-0.14,-1.27l-0.15,-1.27l-0.16,-1.26l-0.16,-1.26l-0.17,-1.26l-0.18,-1.26l-0.19,-1.26l-0.2,-1.26l-0.2,-1.26l-0.21,-1.26l-0.22,-1.25l-0.23,-1.25l-0.23,-1.25l-0.24,-1.25l-0.25,-1.25l-0.26,-1.25l-0.27,-1.25l-0.27,-1.24l-0.28,-1.24l-0.29,-1.24l-0.3,-1.24l-0.31,-1.24l-0.31,-1.23l-0.32,-1.23l-0.33,-1.23l-0.34,-1.23l-0.34,-1.23l-0.35,-1.22l-0.36,-1.22l-0.37,-1.22l-0.37,-1.22l-0.38,-1.22l-0.39,-1.21l-0.4,-1.21l-0.41,-1.21l-0.41,-1.21l-0.42,-1.2l-0.43,-1.2l-0.44,-1.2l-0.44,-1.19l-0.45,-1.19l-0.46,-1.19l-0.47,-1.19l-0.47,-1.18l-0.48,-1.18l-0.49,-1.18l-0.49,-1.17l-0.5,-1.17l-0.51,-1.17l-0.52,-1.16l-0.52,-1.16l-0.53,-1.16l-0.54,-1.15l-0.55,-1.15l-0.55,-1.15l-0.56,-1.14l-0.57,-1.14l-0.57,-1.14l-0.58,-1.13l-0.59,-1.13l-0.6,-1.13l-0.6,-1.12l-0.61,-1.12l-0.62,-1.11l-0.62,-1.11l-0.63,-1.11l-0.64,-1.1l-0.64,-1.1l-0.65,-1.09l-0.66,-1.09l-0.67,-1.09l-0.67,-1.08l-0.68,-1.08l-0.69,-1.07l-0.69,-1.07l-0.7,-1.06l-0.71,-1.06l-0.71,-1.06l-0.72,-1.05l-0.73,-1.05l-0.73,-1.04l-0.74,-1.04l-0.75,-1.03l-0.75,-1.03l-0.76,-1.02l-0.76,-1.02l-0.77,-1.01l-0.78,-1.01l-0.78,-1l-0.79,-1l-0.8,-0.99l-0.8,-0.99l-0.81,-0.98l-0.82,-0.98l-0.82,-0.97l-0.83,-0.97l-0.83,-0.96l-0.84,-0.96l-0.85,-0.95l-0.85,-0.95l-0.86,-0.94l-0.86,-0.94l-0.87,-0.93l-0.87,-0.93l-0.88,-0.92l-0.89,-0.91l-0.89,-0.91l-0.9,-0.9l-0.9,-0.9l-0.91,-0.89l-0.91,-0.89l-0.92,-0.88l-0.93,-0.87l-0.93,-0.87l-0.94,-0.86l-0.94,-0.86l-0.95,-0.85l-0.95,-0.85l-0.96,-0.84l-0.96,-0.83l-0.97,-0.83l-0.97,-0.82l-0.98,-0.82l-0.98,-0.81l-0.99,-0.8l-0.99,-0.8l-1,-0.79l-1,-0.78l-1.01,-0.78l-1.01,-0.77l-1.02,-0.76l-1.02,-0.76l-1.03,-0.75l-1.03,-0.75l-1.04,-0.74l-1.04,-0.73l-1.05,-0.73l-1.05,-0.72l-1.06,-0.71l-1.06,-0.71l-1.06,-0.7l-1.07,-0.69l-1.07,-0.69l-1.08,-0.68l-1.08,-0.67l-1.09,-0.67l-1.09,-0.66l-1.09,-0.65l-1.1,-0.64l-1.1,-0.64l-1.11,-0.63l-1.11,-0.62l-1.11,-0.62l-1.12,-0.61l-1.12,-0.6l-1.13,-0.6l-1.13,-0.59l-1.13,-0.58l-1.14,-0.57l-1.14,-0.57l-1.14,-0.56l-1.15,-0.55l-1.15,-0.55l-1.15,-0.54l-1.16,-0.53l-1.16,-0.52l-1.16,-0.52l-1.17,-0.51l-1.17,-0.5l-1.17,-0.49l-1.18,-0.49l-1.18,-0.48l-1.18,-0.47l-1.19,-0.47l-1.19,-0.46l-1.19,-0.45l-1.19,-0.44l-1.2,-0.44l-1.2,-0.43l-1.2,-0.42l-1.21,-0.41l-1.21,-0.41l-1.21,-0.4l-1.21,-0.39l-1.22,-0.38l-1.22,-0.37l-1.22,-0.37l-1.22,-0.36l-1.22,-0.35l-1.23,-0.34l-1.23,-0.34l-1.23,-0.33l-1.23,-0.32l-1.23,-0.31l-1.24,-0.31l-1.24,-0.3l-1.24,-0.29l-1.24,-0.28l-1.24,-0.27l-1.25,-0.27l-1.25,-0.26l-1.25,-0.25l-1.25,-0.24l-1.25,-0.23l-1.25,-0.23l-1.25,-0.22l-1.26,-0.21l-1.26,-0.2l-1.26,-0.2l-1.26,-0.19l-1.26,-0.18l-1.26,-0.17l-1.26,-0.16l-1.26,-0.16l-1.27,-0.15l-1.27,-0.14l-1.27,-0.13l-1.27,-0.12l-1.27,-0.12l-1.27,-0.11l-1.27,-0.1l-1.27,-0.09l-1.27,-0.08l-1.27,-0.08l-1.27,-0.07l-1.27,-0.06l-1.27,-0.05l-1.27,-0.04l-1.27,-0.04l-1.27,-0.03l-1.27,-0.02l-1.27,-0.01l-1.27,-0l-1.27,0l-1.27,0.01l-1.27,0.02l-1.27,0.03l-1.27,0.04l-1.27,0.04l-1.27,0.05l-1.27,0.06l-1.27,0.07l-1.27,0.08l-1.27,0.08l-1.27,0.09l-1.27,0.1l-1.27,0.11l-1.27,0.12l-1.27,0.12l-1.27,0.13l-1.27,0.14l-1.27,0.15l-1.26,0.16l-1.26,0.16l-1.26,0.17l-1.26,0.18l-1.26,0.19l-1.26,0.2l-1.26,0.2l-1.26,0.21l-1.25,0.22l-1.25,0.23l-1.25,0.23l-1.25,0.24l-1.25,0.25l-1.25,0.26l-1.25,0.27l-1.24,0.27l-1.24,0.28l-1.24,0.29l-1.24,0.3l-1.24,0.31l-1.23,0.31l-1.23,0.32l-1.23,0.33l-1.23,0.34l-1.23,0.34l-1.22,0.35l-1.22,0.36l-1.22,0.37l-1.22,0.37l-1.22,0.38l-1.21,0.39l-1.21,0.4l-1.21,0.41l-1.21,0.41l-1.2,0.42l-1.2,0.43l-1.2,0.44l-1.19,0.44l-1.19,0.45l-1.19,0.46l-1.19,0.47l-1.18,0.47l-1.18,0.48l-1.18,0.49l-1.17,0.49l-1.17,0.5l-1.17,0.51l-1.16,0.52l-1.16,0.52l-1.16,0.53l-1.15,0.54l-1.15,0.55l-1.15,0.55l-1.14,0.56l-1.14,0.57l-1.14,0.57l-1.13,0.58l-1.13,0.59l-1.13,0.6l-1.12,0.6l-1.12,0.61l-1.11,0.62l-1.11,0.62l-1.11,0.63l-1.1,0.64l-1.1,0.64l-1.09,0.65l-1.09,0.66l-1.09,0.67l-1.08,0.67l-1.08,0.68l-1.07,0.69l-1.07,0.69l-1.06,0.7l-1.06,0.71l-1.06,0.71l-1.05,0.72l-1.05,0.73l-1.04,0.73l-1.04,0.74l-1.03,0.75l-1.03,0.75l-1.02,0.76l-1.02,0.76l-1.01,0.77l-1.01,0.78l-1,0.78l-1,0.79l-0.99,0.8l-0.99,0.8l-0.98,0.81l-0.98,0.82l-0.97,0.82l-0.97,0.83l-0.96,0.83l-0.96,0.84l-0.95,0.85l-0.95,0.85l-0.94,0.86l-0.94,0.86l-0.93,0.87l-0.93,0.87l-0.92,0.88l-0.91,0.89l-0.91,0.89l-0.9,0.9l-0.9,0.9l-0.89,0.91l-0.89,0.91l-0.88,0.92l-0.87,0.93l-0.87,0.93l-0.86,0.94l-0.86,0.94l-0.85,0.95l-0.85,0.95l-0.84,0.96l-0.83,0.96l-0.83,0.97l-0.82,0.97l-0.82,0.98l-0.81,0.98l-0.8,0.99l-0.8,0.99l-0.79,1l-0.78,1l-0.78,1.01l-0.77,1.01l-0.76,1.02l-0.76,1.02l-0.75,1.03l-0.75,1.03l-0.74,1.04l-0.73,1.04l-0.73,1.05l-0.72,1.05l-0.71,1.06l-0.71,1.06l-0.7,1.06l-0.69,1.07l-0.69,1.07l-0.68,1.08l-0.67,1.08l-0.67,1.09l-0.66,1.09l-0.65,1.09l-0.64,1.1l-0.64,1.1l-0.63,1.11l-0.62,1.11l-0.62,1.11l-0.61,1.12l-0.6,1.12l-0.6,1.13l-0.59,1.13l-0.58,1.13l-0.57,1.14l-0.57,1.14l-0.56,1.14l-0.55,1.15l-0.55,1.15l-0.54,1.15l-0.53,1.16l-0.52,1.16l-0.52,1.16l-0.51,1.17l-0.5,1.17l-0.49,1.17l-0.49,1.18l-0.48,1.18l-0.47,1.18l-0.47,1.19l-0.46,1.19l-0.45,1.19l-0.44,1.19l-0.44,1.2l-0.43,1.2l-0.42,1.2l-0.41,1.21l-0.41,1.21l-0.4,1.21l-0.39,1.21l-0.38,1.22l-0.37,1.22l-0.37,1.22l-0.36,1.22l-0.35,1.22l-0.34,1.23l-0.34,1.23l-0.33,1.23l-0.32,1.23l-0.31,1.23l-0.31,1.24l-0.3,1.24l-0.29,1.24l-0.28,1.24l-0.27,1.24l-0.27,1.25l-0.26,1.25l-0.25,1.25l-0.24,1.25l-0.23,1.25l-0.23,1.25l-0.22,1.25l-0.21,1.26l-0.2,1.26l-0.2,1.26l-0.19,1.26l-0.18,1.26l-0.17,1.26l-0.16,1.26l-0.16,1.26l-0.15,1.27l-0.14,1.27l-0.13,1.27l-0.12,1.27l-0.12,1.27l-0.11,1.27l-0.1,1.27l-0.09,1.27l-0.08,1.27l-0.08,1.27l-0.07,1.27l-0.06,1.27l-0.05,1.27l-0.04,1.27l-0.04,1.27l-0.03,1.27l-0.02,1.27l-0.01,1.27l-0,1.27l0,1.27l0.01,1.27l0.02,1.27l0.03,1.27l0.04,1.27l0.04,1.27l0.05,1.27l0.06,1.27l0.07,1.27l0.08,1.27l0.08,1.27l0.09,1.27l0.1,1.27l0.11,1.27l0.12,1.27l0.12,1.27l0.13,1.27l0.14,1.27l0.15,1.27l0.16,1.26l0.16,1.26l0.17,1.26l0.18,1.26l0.19,1.26l0.2,1.26l0.2,1.26l0.21,1.26l0.22,1.25l0.23,1.25l0.23,1.25l0.24,1.25l0.25,1.25l0.26,1.25l0.27,1.25l0.27,1.24l0.28,1.24l0.29,1.24l0.3,1.24l0.31,1.24l0.31,1.23l0.32,1.23l0.33,1.23l0.34,1.23l0.34,1.23l0.35,1.22l0.36,1.22l0.37,1.22l0.37,1.22l0.38,1.22l0.39,1.21l0.4,1.21l0.41,1.21l0.41,1.21l0.42,1.2l0.43,1.2l0.44,1.2l0.44,1.19l0.45,1.19l0.46,1.19l0.47,1.19l0.47,1.18l0.48,1.18l0.49,1.18l0.49,1.17l0.5,1.17l0.51,1.17l0.52,1.16l0.52,1.16l0.53,1.16l0.54,1.15l0.55,1.15l0.55,1.15l0.56,1.14l0.57,1.14l0.57,1.14l0.58,1.13l0.59,1.13l0.6,1.13l0.6,1.12l0.61,1.12l0.62,1.11l0.62,1.11l0.63,1.11l0.64,1.1l0.64,1.1l0.65,1.09l0.66,1.09l0.67,1.09l0.67,1.08l0.68,1.08l0.69,1.07l0.69,1.07l0.7,1.06l0.71,1.06l0.71,1.06l0.72,1.05l0.73,1.05l0.73,1.04l0.74,1.04l0.75,1.03l0.75,1.03l0.76,1.02l0.76,1.02l0.77,1.01l0.78,1.01l0.78,1l0.79,1l0.8,0.99l0.8,0.99l0.81,0.98l0.82,0.98l0.82,0.97l0.83,0.97l0.83,0.96l0.84,0.96l0.85,0.95l0.85,0.95l0.86,0.94l0.86,0.94l0.87,0.93l0.87,0.93l0.88,0.92l0.89,0.91l0.89,0.91l0.9,0.9l0.9,0.9l0.91,0.89l0.91,0.89l0.92,0.88l0.93,0.87l0.93,0.87l0.94,0.86l0.94,0.86l0.95,0.85l0.95,0.85l0.96,0.84l0.96,0.83l0.97,0.83l0.97,0.82l0.98,0.82l0.98,0.81l0.99,0.8l0.99,0.8l1,0.79l1,0.78l1.01,0.78l1.01,0.77l1.02,0.76l1.02,0.76l1.03,0.75l1.03,0.75l1.04,0.74l1.04,0.73l1.05,0.73l1.05,0.72l1.06,0.71l1.06,0.71l1.06,0.7l1.07,0.69l1.07,0.69l1.08,0.68l1.08,0.67l1.09,0.67l1.09,0.66l1.09,0.65l1.1,0.64l1.1,0.64l1.11,0.63l1.11,0.62l1.11,0.62l1.12,0.61l1.12,0.6l1.13,0.6l1.13,0.59l1.13,0.58l1.14,0.57l1.14,0.57l1.14,0.56l1.15,0.55l1.15,0.55l1.15,0.54l1.16,0.53l1.16,0.52l1.16,0.52l1.17,0.51l1.17,0.5l1.17,0.49l1.18,0.49l1.18,0.48l1.18,0.47l1.19,0.47l1.19,0.46l1.19,0.45l1.19,0.44l1.2,0.44l1.2,0.43l1.2,0.42l1.21,0.41l1.21,0.41l1.21,0.4l1.21,0.39l1.22,0.38l1.22,0.37l1.22,0.37l1.22,0.36l1.22,0.35l1.23,0.34l1.23,0.34l1.23,0.33l1.23,0.32l1.23,0.31l1.24,0.31l1.24,0.3l1.24,0.29l1.24,0.28l1.24,0.27l1.25,0.27l1.25,0.26l1.25,0.25l1.25,0.24l1.25,0.23l1.25,0.23l1.25,0.22l1.26,0.21l1.26,0.2l1.26,0.2l1.26,0.19l1.26,0.18l1.26,0.17l1.26,0.16l1.26,0.16l1.27,0.15l1.27,0.14l1.27,0.13l1.27,0.12l1.27,0.12l1.27,0.11l1.27,0.1l1.27,0.09l1.27,0.08l1.27,0.08l1.27,0.07l1.27,0.06l1.27,0.05l1.27,0.04l1.27,0.04l1.27,0.03l1.27,0.02l1.27,0.01l1.27,0l1.27,-0l1.27,-0.01l1.27,-0.02l1.27,-0.03l1.27,-0.04l1.27,-0.04l1.27,-0.05l1.27,-0.06l1.27,-0.07l1.27,-0.08l1.27,-0.08l1.27,-0.09l1.27,-0.1l1.27,-0.11l1.27,-0.12l1.27,-0.12l1.27,-0.13l1.27,-0.14l1.27,-0.15l1.26,-0.16l1.26,-0.16l1.26,-0.17l1.26,-0.18l1.26,-0.19l1.26,-0.2l1.26,-0.2l1.26,-0.21l1.25,-0.22l1.25,-0.23l1.25,-0.23l1.25,-0.24l1.25,-0.25l1.25,-0.26l1.25,-0.27l1.24,-0.27l1.24,-0.28l1.24,-0.29l1.24,-0.3l1.24,-0.31l1.23,-0.31l1.23,-0.32l1.23,-0.33l1.23,-0.34l1.23,-0.34l1.22,-0.35l1.22,-0.36l1.22,-0.37l1.22,-0.37l1.22,-0.38l1.21,-0.39l1.21,-0.4l1.21,-0.41l1.21,-0.41l1.2,-0.42l1.2,-0.43l1.2,-0.44l1.19,-0.44l1.19,-0.45l1.19,-0.46l1.19,-0.47l1.18,-0.47l1.18,-0.48l1.18,-0.49l1.17,-0.49l1.17,-0.5l1.17,-0.51l1.16,-0.52l1.16,-0.52l1.16,-0.53l1.15,-0.54l1.15,-0.55l1.15,-0.55l1.14,-0.56l1.14,-0.57l1.14,-0.57l1.13,-0.58l1.13,-0.59l1.13,-0.6l1.12,-0.6l1.12,-0.61l1.11,-0.62l1.11,-0.62l1.11,-0.63l1.1,-0.64l1.1,-0.64l1.09,-0.65l1.09,-0.66l1.09,-0.67l1.08,-0.67l1.08,-0.68l1.07,-0.69l1.07,-0.69l1.06,-0.7l1.06,-0.71l1.06,-0.71l1.05,-0.72l1.05,-0.73l1.04,-0.73l1.04,-0.74l1.03,-0.75l1.03,-0.75l1.02,-0.76l1.02,-0.76l1.01,-0.77l1.01,-0.78l1,-0.78l1,-0.79l0.99,-0.8l0.99,-0.8l0.98,-0.81l0.98,-0.82l0.97,-0.82l0.97,-0.83l0.96,-0.83l0.96,-0.84l0.95,-0.85l0.95,-0.85l0.94,-0.86l0.94,-0.86l0.93,-0.87l0.93,-0.87l0.92,-0.88l0.91,-0.89l0.91,-0.89l0.9,-0.9l0.9,-0.9l0.89,-0.91l0.89,-0.91l0.88,-0.92l0.87,-0.93l0.87,-0.93l0.86,-0.94l0.86,-0.94l0.85,-0.95l0.85,-0.95l0.84,-0.96l0.83,-0.96l0.83,-0.97l0.82,-0.97l0.82,-0.98l0.81,-0.98l0.8,-0.99l0.8,-0.99l0.79,-1l0.78,-1l0.78,-1.01l0.77,-1.01l0.76,-1.02l0.76,-1.02l0.75,-1.03l0.75,-1.03l0.74,-1.04l0.73,-1.04l0.73,-1.05l0.72,-1.05l0.71,-1.06l0.71,-1.06l0.7,-1.06l0.69,-1.07l0.69,-1.07l0.68,-1.08l0.67,-1.08l0.67,-1.09l0.66,-1.09l0.65,-1.09l0.64,-1.1l0.64,-1.1l0.63,-1.11l0.62,-1.11l0.62,-1.11l0.61,-1.12l0.6,-1.12l0.6,-1.13l0.59,-1.13l0.58,-1.13l0.57,-1.14l0.57,-1.14l0.56,-1.14l0.55,-1.15l0.55,-1.15l0.54,-1.15l0.53,-1.16l0.52,-1.16l0.52,-1.16l0.51,-1.17l0.5,-1.17l0.49,-1.17l0.49,-1.18l0.48,-1.18l0.47,-1.18l0.47,-1.19l0.46,-1.19l0.45,-1.19l0.44,-1.19l0.44,-1.2l0.43,-1.2l0.42,-1.2l0.41,-1.21l0.41,-1.21l0.4,-1.21l0.39,-1.21l0.38,-1.22l0.37,-1.22l0.37,-1.22l0.36,-1.22l0.35,-1.22l0.34,-1.23l0.34,-1.23l0.33,-1.23l0.32,-1.23l0.31,-1.23l0.31,-1.24l0.3,-1.24l0.29,-1.24l0.28,-1.24l0.27,-1.24l0.27,-1.25l0.26,-1.25l0.25,-1.25l0.24,-1.25l0.23,-1.25l0.23,-1.25l0.22,-1.25l0.21,-1.26l0.2,-1.26l0.2,-1.26l0.19,-1.26l0.18,-1.26l0.17,-1.26l0.16,-1.26l0.16,-1.26l0.15,-1.27l0.14,-1.27l0.13,-1.27l0.12,-1.27l0.12,-1.27l0.11,-1.27l0.1,-1.27l0.09,-1.27l0.08,-1.27l0.08,-1.27l0.07,-1.27l0.06,-1.27l0.05,-1.27l0.04,-1.27l0.04,-1.27l0.03,-1.27l0.02,-1.27l0.01,-1.27l0,-1.27" style="stroke-linejoin: round;"></path>
<path id="cv_31" class="ZW cvjs_handles AcDbLine" cvjs:handle="29E" d="M554.53,1321.09H959.99" style="stroke-linejoin: round;"></path>
<path id="cv_32" class="ZW cvjs_handles AcDbLine" cvjs:handle="29F" d="M959.99,1321.09L959.99,510.19" style="stroke-linejoin: round;"></path>
<path id="cv_33" class="ZW cvjs_handles AcDbLine" cvjs:handle="2A0" d="M959.99,510.19H554.53" style="stroke-linejoin: round;"></path>
<path id="cv_34" class="ZW cvjs_handles AcDbLine" cvjs:handle="2A1" d="M554.53,510.19L554.53,1321.09" style="stroke-linejoin: round;"></path>
<path id="cv_35" class="ZW cvjs_handles AcDbLine" cvjs:handle="2ED" d="M1973.62,915.64H959.99" style="stroke-linejoin: round;"></path>
<path id="cv_36" class="ZW cvjs_handles AcDbLine" cvjs:handle="3EA" d="M959.99,1321.09H1770.89" style="stroke-linejoin: round;"></path>
<path id="cv_37" class="ZW cvjs_handles AcDbLine" cvjs:handle="3EB" d="M959.99,510.19L1770.89,1321.09" style="stroke-linejoin: round;"></path>
<path id="cv_38" class="ZW cvjs_handles AcDbLine" cvjs:handle="5B1" d="M554.53,1321.09L1466.8,1847.79" style="stroke-linejoin: round;"></path>
<path id="cv_39" class="ZW cvjs_handles AcDbLine" cvjs:handle="598" d="M1770.89,1321.09L1466.8,1847.79" style="stroke-linejoin: round;"></path>
<path id="cv_40" class="ZW cvjs_handles AcDbLine" cvjs:handle="10A2" d="M0,0L0,2115.84" style="stroke-linejoin: round;"></path>
<path id="cv_41" class="ZW cvjs_handles AcDbLine" cvjs:handle="10A3" d="M0,2115.84H2500" style="stroke-linejoin: round;"></path>
<path id="cv_42" class="ZW cvjs_handles AcDbLine" cvjs:handle="10A4" d="M2500,2115.84L2500,0" style="stroke-linejoin: round;"></path>
<path id="cv_43" class="ZW cvjs_handles AcDbLine" cvjs:handle="10A5" d="M2500,0H0" style="stroke-linejoin: round;"></path>
</g>
<g id="cvclr_44" class="sRGB_5">
<path id="cv_45" class="ZW cvjs_handles AcDbLine" cvjs:handle="E2F" d="M1973.62,883.2L1973.62,458.16" style="stroke-linejoin: round;"></path>
<path id="cv_46" class="ZW cvjs_handles AcDbLine" cvjs:handle="E30" d="M959.99,883.2L959.99,458.16" style="stroke-linejoin: round;"></path>
<path id="cv_47" class="ZW cvjs_handles AcDbLine" cvjs:handle="E31" d="M1941.18,463.23H992.42" style="stroke-linejoin: round;"></path>
<path id="cv_48" class="ZW cvjs_handles AcDbLine" cvjs:handle="DD2" d="M959.99,477.75l0,-19.59" style="stroke-linejoin: round;"></path>
<path id="cv_49" class="ZW cvjs_handles AcDbLine" cvjs:handle="DD3" d="M554.53,477.75l0,-19.59" style="stroke-linejoin: round;"></path>
<path id="cv_50" class="ZW cvjs_handles AcDbLine" cvjs:handle="DD4" d="M927.55,463.23H586.97" style="stroke-linejoin: round;"></path>
<path id="cv_51" class="ZW cvjs_handles AcDbLine" cvjs:handle="E26" d="M522.09,510.19h-27.05" style="stroke-linejoin: round;"></path>
<path id="cv_52" class="ZW cvjs_handles AcDbLine" cvjs:handle="E27" d="M522.09,1321.09h-27.05" style="stroke-linejoin: round;"></path>
<path id="cv_53" class="ZW cvjs_handles AcDbLine" cvjs:handle="E28" d="M500.12,542.62L500.12,1288.66" style="stroke-linejoin: round;"></path>
<path id="cv_54" class="ZW cvjs_handles AcDbLine" cvjs:handle="E14" d="M982.92,487.25l25.78,-25.78" style="stroke-linejoin: round;"></path>
<path id="cv_55" class="ZW cvjs_handles AcDbLine" cvjs:handle="E15" d="M1793.83,1298.16l25.78,-25.78" style="stroke-linejoin: round;"></path>
<path id="cv_56" class="ZW cvjs_handles AcDbLine" cvjs:handle="E16" d="M1028.05,487.99L1793.09,1253.03" style="stroke-linejoin: round;"></path>
<path id="cv_57" class="ZW cvjs_handles AcDbLine" cvjs:handle="DE6" d="M2399.93,826.3L2203.78,867.4" style="stroke-linejoin: round;"></path>
<path id="cv_58" class="ZW cvjs_handles AcDbLine" cvjs:handle="DE8" d="M1973.62,915.64L2172.04,874.06" style="stroke-linejoin: round;"></path>
<path id="cv_59" class="ZW cvjs_handles AcDbLine" cvjs:handle="DEC" d="M2293.48,1257.29L2134.34,1087.31" style="stroke-linejoin: round;"></path>
<path id="cv_60" class="ZW cvjs_handles AcDbLine" cvjs:handle="DED" d="M1812.9,743.97l-22.17,-23.68" style="stroke-linejoin: round;"></path>
<path id="cv_61" class="ZW cvjs_handles AcDbLine" cvjs:handle="DEF" d="M1835.07,767.65L2112.17,1063.63" style="stroke-linejoin: round;"></path>
<path id="cv_62" class="ZW cvjs_handles AcDbLine" cvjs:handle="108B" d="M1708.81,1428.63l-56.91,98.58" style="stroke-linejoin: round;"></path>
<path id="cv_63" class="ZW cvjs_handles AcDbLine" cvjs:handle="1080" d="M662.07,1383.18L932.12,1539.1" style="stroke-linejoin: round;"></path>
<path id="cv_64" class="ZW cvjs_handles AcDbLine" cvjs:handle="1081" d="M962.52,1321.09h28.01" style="stroke-linejoin: round;"></path>
<path id="cv_65" class="ZW cvjs_handles AcDbLine" cvjs:handle="E1D" d="M1798.98,1337.31l48.7,28.12" style="stroke-linejoin: round;"></path>
<path id="cv_66" class="ZW cvjs_handles AcDbLine" cvjs:handle="E1E" d="M1494.89,1864.01l48.7,28.12" style="stroke-linejoin: round;"></path>
<path id="cv_67" class="ZW cvjs_handles AcDbLine" cvjs:handle="E1F" d="M1827.08,1390.98L1555.42,1861.5" style="stroke-linejoin: round;"></path>
<path id="cv_68" class="ZW cvjs_handles AcDbLine" cvjs:handle="E38" d="M538.31,1349.18l-22.38,38.77" style="stroke-linejoin: round;"></path>
<path id="cv_69" class="ZW cvjs_handles AcDbLine" cvjs:handle="E39" d="M1450.58,1875.89l-22.38,38.77" style="stroke-linejoin: round;"></path>
<path id="cv_70" class="ZW cvjs_handles AcDbLine" cvjs:handle="E3A" d="M546.55,1399.78L1402.64,1894.05" style="stroke-linejoin: round;"></path>
<path id="cv_71" class="ZW cvjs_handles AcDbArc" cvjs:handle="1046" d="M1473.82,1069.83A 389.090582 389.090582 0 0 0 1383.16 1288.67" style="stroke-linejoin: round;"></path><path id="cv_72" class="ZW cvjs_handles AcDbArc" cvjs:handle="1061" d="M992.36,859.42A 350.729587 350.729587 0 0 0 1183.99 780.06" style="stroke-linejoin: round;"></path><path id="cv_73" class="ZW cvjs_handles AcDbArc" cvjs:handle="106A" d="M1066.15,1383.17A 122.986480 122.986480 0 0 0 1078.69 1353.26" style="stroke-linejoin: round;"></path><path id="cv_74" class="ZW cvjs_handles AcDbArc" cvjs:handle="106B" d="M927.84,1202.38A 122.986480 122.986480 0 0 0 897.92 1214.92" style="stroke-linejoin: round;"></path><path id="cv_75" class="ZW cvjs_handles AcDbArc" cvjs:handle="106C" d="M1082.97,1321.09A 122.986480 122.986480 0 0 0 959.99 1198.11" style="stroke-linejoin: round;"></path><path id="cv_76" class="ZW cvjs_handles AcDbArc" cvjs:handle="108C" d="M1540.22,1353.44A 232.927529 232.927529 0 0 0 1627.52 1504.67" style="stroke-linejoin: round;"></path><path id="cv_77" class="ZW cvjs_handles AcDbArc" cvjs:handle="1082" d="M942.86,1507.92A 430.934324 430.934324 0 0 0 984.24 1353.55" style="stroke-linejoin: round;"></path><path id="cv_78" class="ZW cvjs_handles AcDbArc" cvjs:handle="1075" d="M1573.64,1786.89A 122.978536 122.978536 0 0 0 1554 1761.07" style="stroke-linejoin: round;"></path><path id="cv_79" class="ZW cvjs_handles AcDbArc" cvjs:handle="1076" d="M1347.93,1816.28A 122.978536 122.978536 0 0 0 1343.83 1848.46" style="stroke-linejoin: round;"></path><path id="cv_80" class="ZW cvjs_handles AcDbArc" cvjs:handle="1077" d="M1528.29,1741.29A 122.978536 122.978536 0 0 0 1360.3 1786.3" style="stroke-linejoin: round;"></path>
</g>
<g style="font-family: gulim, , arial, helvetica, sans-serif" class="fRGB_7">
<g font-size="68.116293" class="fRGB_7">
<text id="cv_81" class="cvjs_handles AcDbMText" cvjs:handle="4B8" transform="scale(1.111111 1) translate(694.88 304.13) " style="stroke-width: 0;">Sample for</text>
<text id="cv_82" class="cvjs_handles AcDbMText" cvjs:handle="4B8" transform="scale(1.111111 1) translate(694.88 398.73) " style="stroke-width: 0;">Measurement</text>
</g>
</g>
<g style="font-family: arial black, ariblk, arial, helvetica, sans-serif" class="fRGB_5">
<g font-size="61.304664" class="fRGB_5">
<text id="cv_83" class="cvjs_handles AcDbMText" cvjs:handle="E34" transform="scale(1.055556 1) translate(1325.63 442.95) " style="stroke-width: 0;">250</text>
<text id="cv_84" class="cvjs_handles AcDbMText" cvjs:handle="DD7" transform="scale(1.055556 1) translate(651.65 442.95) " style="stroke-width: 0;">100</text>
<text id="cv_85" class="cvjs_handles AcDbMText" cvjs:handle="E2B" font-size="71.701361" transform="scale(1.055556 1.055556) translate(454.59 931.42) rotate(270) " style="stroke-width: 0;">200</text>
<text id="cv_86" class="cvjs_handles AcDbMText" cvjs:handle="E19" font-size="71.701361" transform="scale(1.055556 1.055556) translate(1236.37 697.57) rotate(45) " style="stroke-width: 0;">282.8427</text>
<text id="cv_87" class="cvjs_handles AcDbMText" cvjs:handle="DE7" font-size="71.701361" transform="scale(1.055556 1.055556) translate(2124.14 794.51) rotate(348) " style="stroke-width: 0;">R50</text>
<text id="cv_88" class="cvjs_handles AcDbMText" cvjs:handle="1064" font-size="71.701361" transform="scale(1.055556 1.055556) translate(995.14 788.13) rotate(334) " style="stroke-width: 0;">45°</text>
<text id="cv_89" class="cvjs_handles AcDbMText" cvjs:handle="106F" font-size="71.701361" transform="scale(1.055556 1.055556) translate(967.4 1115.9) rotate(45) " style="stroke-width: 0;">90°</text>
<text id="cv_90" class="cvjs_handles AcDbMText" cvjs:handle="107A" font-size="71.701361" transform="scale(1.055556 1.055556) translate(1301.09 1632.54) rotate(345) " style="stroke-width: 0;">90°</text>
<text id="cv_91" class="cvjs_handles AcDbMText" cvjs:handle="E3D" font-size="71.701361" transform="scale(1.055556 1.055556) translate(751.4 1536.39) rotate(30) " style="stroke-width: 0;">259.8076</text>
</g>
</g>
<g style="font-family: pmingliu, mingliub.ttc, arial, helvetica, sans-serif" class="fRGB_5">
<g font-size="58.385394" class="fRGB_5">
<text id="cv_92" class="cvjs_handles AcDbMText" cvjs:handle="DEE" font-size="64.872660" transform="scale(1.111111 1.111111) translate(1966.65 1000.74) rotate(46) " style="stroke-width: 0;">∅100</text>
</g>
</g>
<g style="font-family: malgun gothic, malgun, arial, helvetica, sans-serif" class="fRGB_5">
<g font-size="61.304664" class="fRGB_5">
<text id="cv_93" class="cvjs_handles AcDbMText" cvjs:handle="1049" font-size="71.701361" transform="scale(1.055556 1.055556) translate(1300.99 1145.52) rotate(292) " style="stroke-width: 0;">45°</text>
</g>
</g>
<g style="font-family: arial black, ariblk, arial, helvetica, sans-serif" class="fRGB_5">
<g font-size="61.304664" class="fRGB_5">
<text id="cv_94" class="cvjs_handles AcDbMText" cvjs:handle="108F" font-size="71.701361" transform="scale(1.055556 1.055556) translate(1476.63 1303.89) rotate(60) " style="stroke-width: 0;">60°</text>
<text id="cv_95" class="cvjs_handles AcDbMText" cvjs:handle="1085" font-size="71.701361" transform="scale(1.055556 1.055556) translate(885.77 1405.05) rotate(285) " style="stroke-width: 0;">30°</text>
<text id="cv_96" class="cvjs_handles AcDbMText" cvjs:handle="E22" font-size="71.701361" transform="scale(1.055556 1.055556) translate(1625.91 1630.24) rotate(300) " style="stroke-width: 0;">150</text>
</g>
</g>
</g>
</g><desc>Created with Snap</desc></svg></svg></g><g></g><g style="display: inline;"></g><g></g><g></g></svg></svg>