<svg id="Icon" xmlns="http://www.w3.org/2000/svg" viewBox="0 0 90 90"><defs><style>.cls-1{fill:#fff;}.cls-2,.cls-3,.cls-4{fill:none;stroke:#000;stroke-width:4px;}.cls-2,.cls-4{stroke-linecap:round;}.cls-2{stroke-miterlimit:10;}.cls-3,.cls-4{stroke-linejoin:round;}</style></defs><g id="Background"><rect class="cls-1" width="90" height="90"/></g><path class="cls-2" d="M47.76,18H70.5c.83,0,1.5.9,1.5,2V70c0,1.1-.67,2-1.5,2h-51c-.83,0-1.5-.9-1.5-2V55.65"/><path class="cls-3" d="M26.54,25.18H44.74a2,2,0,0,1,2,2V54.79a0,0,0,0,1,0,0H24.54a0,0,0,0,1,0,0V27.18A2,2,0,0,1,26.54,25.18Z" transform="translate(32.57 93.45) rotate(-135)"/><line class="cls-4" x1="38.26" y1="21.66" x2="34.59" y2="18"/><path d="M49.23,42.1,25.05,34.86,18.62,41.3a1.64,1.64,0,0,0,0,2.32L32,57a1.65,1.65,0,0,0,2.33,0Z"/><path d="M59.7,50.81c0-2.51-4.54-7.4-4.54-7.4s-4.55,4.89-4.55,7.4a4.55,4.55,0,1,0,9.09,0Z"/></svg>