<svg id="Icon" xmlns="http://www.w3.org/2000/svg" viewBox="0 0 90 90"><defs><style>.cls-1{fill:#fff;}.cls-2,.cls-3{fill:none;stroke-linecap:round;stroke-linejoin:round;stroke-width:4px;}.cls-2{stroke:#000;}.cls-3{stroke:#e22f30;}</style></defs><g id="Background"><rect class="cls-1" width="90" height="90"/></g><path d="M44.15,53.27l12-12a2.94,2.94,0,0,1,4.16,0l9.89,9.88a2.94,2.94,0,0,1,0,4.16l-12,12Z"/><path class="cls-2" d="M44.15,72l-7.29-7.28a2.94,2.94,0,0,1,0-4.16L56.11,41.31a2.94,2.94,0,0,1,4.16,0l9.89,9.88a2.94,2.94,0,0,1,0,4.16L53.51,72Z"/><line class="cls-3" x1="18" y1="18" x2="40.45" y2="40.45"/><line class="cls-3" x1="18" y1="40.45" x2="40.45" y2="18"/></svg>