<svg id="Icon" xmlns="http://www.w3.org/2000/svg" viewBox="0 0 90 90"><defs><style>.cls-1{fill:#fff;}.cls-2{fill:#1ccbd1;}</style></defs><g id="Background"><rect class="cls-1" width="90" height="90"/></g><path class="cls-2" d="M40.7,56v-1.2a20.56,20.56,0,0,1,1-7.15,9.63,9.63,0,0,1,2.78-4,39.85,39.85,0,0,1,4.25-3,13.81,13.81,0,0,0,4-3.79,8.8,8.8,0,0,0,1.5-5.1A7.68,7.68,0,0,0,53,27.4a7.94,7.94,0,0,0-3.15-2.78,10.62,10.62,0,0,0-8.89,0,7.89,7.89,0,0,0-3.29,2.92,10,10,0,0,0-1.42,5H29.62a14.79,14.79,0,0,1,2.25-7.81,13.83,13.83,0,0,1,5.61-5A17.39,17.39,0,0,1,45.34,18a17.21,17.21,0,0,1,8,1.79,13.21,13.21,0,0,1,5.33,4.92,13.61,13.61,0,0,1,1.89,7.17,13.8,13.8,0,0,1-1.88,7.28,16.12,16.12,0,0,1-5.38,5.29,26,26,0,0,0-3.68,2.73,7.27,7.27,0,0,0-2,3,14.64,14.64,0,0,0-.61,4.72V56ZM44,72a4.69,4.69,0,1,1,0-9.38A4.48,4.48,0,0,1,47.27,64a4.71,4.71,0,0,1,0,6.62A4.48,4.48,0,0,1,44,72Z"/></svg>