<svg id="Icon" xmlns="http://www.w3.org/2000/svg" viewBox="0 0 90 90"><defs><style>.cls-1{fill:#fff;}.cls-2{fill:none;stroke:#000;stroke-linecap:round;stroke-linejoin:round;stroke-width:4px;}</style></defs><g id="Background"><rect class="cls-1" width="90" height="90"/></g><polygon points="72 42.29 45 57.58 18 42.29 27 37.19 27 45 63 45 63 37.19 72 42.29"/><polyline class="cls-2" points="26.39 37.54 18 42.29 45 57.58 72 42.29 63.61 37.54"/><path class="cls-2" d="M24.08,46.27,18,49.72,43.6,64.21a2.85,2.85,0,0,0,2.8,0L72,49.72l-5.82-3.3" transform="translate(0 0)"/><path class="cls-2" d="M23.64,54,18,57.14l25.6,14.5a2.9,2.9,0,0,0,2.8,0L72,57.14l-5.23-3" transform="translate(0 0)"/><polyline class="cls-2" points="27 45 27 18 63 18 63 45"/><line class="cls-2" x1="38.5" y1="32.5" x2="51.5" y2="32.5"/></svg>