<svg id="Icon" xmlns="http://www.w3.org/2000/svg" viewBox="0 0 90 90"><defs><style>.cls-1{fill:#fff;}.cls-2,.cls-3,.cls-4{fill:none;stroke-width:4px;}.cls-2,.cls-3{stroke:#000;stroke-linejoin:round;}.cls-3,.cls-4{stroke-linecap:round;}.cls-4{stroke:#e22f30;stroke-miterlimit:10;}</style></defs><g id="Background"><rect class="cls-1" width="90" height="90"/></g><path class="cls-2" d="M26.39,23.82H44.6a2,2,0,0,1,2,2V53.43a0,0,0,0,1,0,0H24.39a0,0,0,0,1,0,0V25.82A2,2,0,0,1,26.39,23.82Z" transform="translate(33.29 91.04) rotate(-135)"/><line class="cls-3" x1="38.12" y1="20.31" x2="34.45" y2="16.65"/><path d="M49.09,40.74,24.91,33.51l-6.43,6.43a1.65,1.65,0,0,0,0,2.33L31.86,55.64a1.62,1.62,0,0,0,2.32,0Z" transform="translate(0)"/><path d="M59.56,49.46c0-2.51-4.54-7.4-4.54-7.4s-4.55,4.89-4.55,7.4a4.55,4.55,0,1,0,9.09,0Z" transform="translate(0)"/><line class="cls-4" x1="18" y1="72" x2="45" y2="72"/><line class="cls-4" x1="45" y1="63" x2="72" y2="63"/></svg>