<svg id="Icon" xmlns="http://www.w3.org/2000/svg" viewBox="0 0 90 90"><defs><style>.cls-1{fill:#fff;}.cls-2{fill:none;stroke:#000;stroke-linecap:round;stroke-linejoin:round;stroke-width:4px;}</style></defs><g id="Background"><rect class="cls-1" width="90" height="90"/></g><polyline class="cls-2" points="54 18 72 18 72 72 18 72 18 27 27 18 36 18"/><line class="cls-2" x1="45" y1="36" x2="45" y2="9"/><polyline class="cls-2" points="36 27 45 36 54 27"/><path d="M31.88,54.13H29.45V57.9h2.43a1.89,1.89,0,1,0,0-3.77Z" transform="translate(0)"/><path d="M44,54.13h-1.7v8.74H44a4.09,4.09,0,0,0,4.37-4.38A4.08,4.08,0,0,0,44,54.13Z" transform="translate(0)"/><path d="M72,43H27a2,2,0,0,0-1.41.59l-9,9A2,2,0,0,0,16,54V72a2,2,0,0,0,2,2H72a2,2,0,0,0,2-2V45A2,2,0,0,0,72,43ZM31.86,60.39H29.45v5H26.6V51.65h5.26c2.83,0,4.86,1.51,4.86,4.38S34.66,60.39,31.86,60.39Zm12.1,5H39.49V51.65H44c4.45,0,7.3,2.87,7.3,6.84S48.39,65.35,44,65.35ZM63.42,54.13H56.89v3.48H62.5v2.48H56.89v5.26H54V51.65h9.38Z" transform="translate(0)"/></svg>