<svg id="Icon" xmlns="http://www.w3.org/2000/svg" viewBox="0 0 144 90"><defs><style>.cls-1{fill:#fff;}.cls-2,.cls-3{fill:none;stroke:#000;}.cls-2{stroke-linecap:round;stroke-linejoin:round;stroke-width:4px;}.cls-3{stroke-miterlimit:10;}</style></defs><g id="Background"><rect class="cls-1" width="144" height="90"/></g><line class="cls-2" x1="45" y1="18" x2="45" y2="36"/><polyline class="cls-2" points="54 27 45 18 36 27"/><line class="cls-2" x1="45" y1="72" x2="45" y2="54"/><polyline class="cls-2" points="36 63 45 72 54 63"/><line class="cls-2" x1="18" y1="45" x2="36" y2="45"/><polyline class="cls-2" points="27 36 18 45 27 54"/><line class="cls-2" x1="72" y1="45" x2="54" y2="45"/><polyline class="cls-2" points="63 54 72 45 63 36"/><path class="cls-2" d="M108,63Q90,81,72,63,90,45,108,63Z" transform="translate(27 0)"/><rect class="cls-2" x="99" y="18" width="18" height="18"/><rect class="cls-2" x="117" y="18" width="18" height="18"/><circle class="cls-2" cx="117" cy="63" r="6.28"/><line class="cls-3" x1="90" x2="90" y2="90"/></svg>