<svg id="Icon" xmlns="http://www.w3.org/2000/svg" viewBox="0 0 90 90"><defs><style>.cls-1{fill:#0F3557;}.cls-2{fill:#1ccbd1;}.cls-2,.cls-4{fill-rule:evenodd;}.cls-3{fill:none;stroke:#1ccbd1;stroke-miterlimit:10;stroke-width:4px;}.cls-4{fill:#a8a8a8;}</style></defs><g id="Background"><rect class="cls-1" width="90" height="90"/></g><polygon class="cls-2" points="31.5 29.51 15 29.51 21.44 36 31.5 29.51"/><circle class="cls-3" cx="31.5" cy="45" r="13.5"/><path class="cls-4" d="M31.5,39.38a5.53,5.53,0,0,0-1.87.33,2.52,2.52,0,1,1-3.42,3.42A5.53,5.53,0,0,0,25.88,45a5.62,5.62,0,1,0,5.62-5.62Z" transform="translate(0 0)"/><polygon class="cls-2" points="58.5 29.51 75 29.51 68.56 36 58.5 29.51"/><circle class="cls-3" cx="58.5" cy="45" r="13.5"/><path class="cls-4" d="M58.5,39.38a5.57,5.57,0,0,0-1.87.33,2.52,2.52,0,1,1-3.42,3.42A5.53,5.53,0,0,0,52.88,45a5.62,5.62,0,1,0,5.62-5.62Z" transform="translate(0 0)"/></svg>