<svg id="Icon" xmlns="http://www.w3.org/2000/svg" viewBox="0 0 90 90"><defs><style>.cls-1{fill:#333;}.cls-2{fill:none;stroke:#e22f30;stroke-linecap:round;stroke-linejoin:round;stroke-width:4px;}</style></defs><rect id="Background" class="cls-1" width="90" height="90"/><ellipse class="cls-2" cx="45" cy="36" rx="27" ry="18"/><path class="cls-2" d="M18,54c0,2.68,2.64,5,6.28,5.72-1.76,2.26-1.22,5.11,1.63,7h0a12.58,12.58,0,0,0,10.51,1.08C37.57,70.24,41,72,45,72s7.43-1.76,8.58-4.19a12.58,12.58,0,0,0,10.51-1.08h0c2.85-1.9,3.39-4.75,1.63-7C69.36,59,72,56.68,72,54"/><path class="cls-2" d="M60.92,39.9a13.17,13.17,0,0,0-7.34.29C52.43,37.76,49,36,45,36s-7.43,1.76-8.58,4.19a13.13,13.13,0,0,0-7.8-.16"/></svg>