<svg id="Icon" xmlns="http://www.w3.org/2000/svg" viewBox="0 0 90 90"><defs><style>.cls-1{fill:#333;}.cls-2{fill:#a8a8a8;}.cls-3,.cls-4{fill:none;stroke-linecap:round;stroke-linejoin:round;stroke-width:4px;}.cls-3{stroke:#a8a8a8;}.cls-4{stroke:#e22f30;}</style></defs><rect id="Background" class="cls-1" width="90" height="90"/><path class="cls-2" d="M44.15,53.27l12-12a2.94,2.94,0,0,1,4.16,0l9.89,9.88a2.94,2.94,0,0,1,0,4.16l-12,12Z"/><path class="cls-3" d="M44.15,72l-7.29-7.28a2.94,2.94,0,0,1,0-4.16L56.11,41.31a2.94,2.94,0,0,1,4.16,0l9.89,9.88a2.94,2.94,0,0,1,0,4.16L53.51,72Z"/><path class="cls-4" d="M18,23H36a9,9,0,0,1,9,9h0a9,9,0,0,1-9,9H18"/><polyline class="cls-4" points="24.77 16.23 18 23 24.77 29.77"/></svg>