<svg id="Icon" xmlns="http://www.w3.org/2000/svg" viewBox="0 0 90 90"><defs><style>.cls-1{fill:#333;}.cls-2{fill:none;stroke:#a8a8a8;stroke-linecap:round;stroke-linejoin:round;stroke-width:4px;}.cls-3{fill:#a8a8a8;}</style></defs><rect id="Sq_guide" data-name="Sq guide" class="cls-1" width="90" height="90"/><polyline class="cls-2" points="54 18 72 18 72 72 18 72 18 27 27 18 36 18"/><line class="cls-2" x1="45" y1="36" x2="45" y2="9"/><polyline class="cls-2" points="36 27 45 36 54 27"/><path class="cls-3" d="M72,43H27a2,2,0,0,0-1.41.59l-9,9A2,2,0,0,0,16,54V72a2,2,0,0,0,2,2H72a2,2,0,0,0,2-2V45A2,2,0,0,0,72,43ZM30.75,57l2.39.77c2,.65,3,1.81,3,3.48,0,2.2-1.83,3.74-4.45,3.74a5.2,5.2,0,0,1-5.09-3.5l2.12-1a3.46,3.46,0,0,0,3.13,2.2c1.06,0,1.75-.52,1.75-1.33,0-.58-.36-1-1.11-1.24l-2.44-.8c-2-.65-3-1.86-3-3.53,0-2.19,1.76-3.72,4.32-3.72a4.86,4.86,0,0,1,4.77,3.17l-2.11,1a2.84,2.84,0,0,0-2.66-1.86c-1.06,0-1.76.56-1.76,1.36C29.61,56.27,30,56.7,30.75,57Zm14.6,7.78h-3L38.06,52.27h2.85l2.93,9.12,2.93-9.12h2.84Zm18.07-5.79a5.67,5.67,0,0,1-5.85,6,6.27,6.27,0,0,1-6.36-6.45,6.18,6.18,0,0,1,6.29-6.43,5.46,5.46,0,0,1,5.34,3.34l-2.3,1.1a3.13,3.13,0,0,0-3-2.09c-2.21,0-3.7,1.65-3.7,4.08s1.56,4.1,3.77,4.1c1.7,0,3.26-1,3.26-2.76v0H57.5V57.62h5.92Z" transform="translate(0 0)"/></svg>