<svg id="Icon" xmlns="http://www.w3.org/2000/svg" viewBox="0 0 90 90"><defs><style>.cls-1{fill:#333;}.cls-2{fill:#a8a8a8;}</style></defs><g id="Background"><rect class="cls-1" width="90" height="90"/></g><path class="cls-2" d="M70.5,40.53H63.8a1.74,1.74,0,0,1-1.61-1.08l-1.11-2.68a1.74,1.74,0,0,1,.37-1.9l4.74-4.74a1.49,1.49,0,0,0,0-2.12L62,23.81a1.49,1.49,0,0,0-2.12,0l-4.73,4.73a1.77,1.77,0,0,1-1.92.38l-2.67-1.11a1.74,1.74,0,0,1-1.08-1.61V19.5A1.5,1.5,0,0,0,48,18H42a1.5,1.5,0,0,0-1.5,1.5v6.69a1.76,1.76,0,0,1-1.08,1.62l-2.68,1.11a1.74,1.74,0,0,1-1.9-.37l-4.74-4.74a1.49,1.49,0,0,0-2.12,0L23.81,28a1.49,1.49,0,0,0,0,2.12l4.73,4.73a1.77,1.77,0,0,1,.38,1.92l-1.11,2.67a1.76,1.76,0,0,1-1.62,1.08H19.5A1.5,1.5,0,0,0,18,42V48a1.5,1.5,0,0,0,1.5,1.5h6.7a1.73,1.73,0,0,1,1.61,1.08l1.11,2.68a1.74,1.74,0,0,1-.37,1.9l-4.74,4.74a1.49,1.49,0,0,0,0,2.12l4.2,4.2a1.49,1.49,0,0,0,2.12,0l4.73-4.73a1.77,1.77,0,0,1,1.92-.38l2.67,1.11a1.74,1.74,0,0,1,1.08,1.61v6.7A1.5,1.5,0,0,0,42,72H48a1.5,1.5,0,0,0,1.5-1.5V63.81a1.76,1.76,0,0,1,1.08-1.62l2.67-1.11a1.77,1.77,0,0,1,1.92.38l4.73,4.73a1.49,1.49,0,0,0,2.12,0l4.2-4.2a1.49,1.49,0,0,0,0-2.12l-4.73-4.73a1.77,1.77,0,0,1-.38-1.92l1.11-2.67a1.73,1.73,0,0,1,1.61-1.08h6.7A1.5,1.5,0,0,0,72,48V42A1.5,1.5,0,0,0,70.5,40.53ZM45,54a9,9,0,1,1,9-9A9,9,0,0,1,45,54Z"/></svg>