<svg id="Icon" xmlns="http://www.w3.org/2000/svg" viewBox="0 0 90 90"><defs><style>.cls-1{fill:#333;}.cls-2{fill:#a8a8a8;}.cls-3{fill:none;stroke:#a8a8a8;stroke-linecap:round;stroke-linejoin:round;stroke-width:4px;}</style></defs><g id="Background"><rect class="cls-1" width="90" height="90"/></g><path class="cls-2" d="M72,42.29,45,57.58,18,42.29l9-5.12a18,18,0,0,0,35.92,0Z" transform="translate(0 0)"/><polyline class="cls-3" points="25.88 37.83 18 42.29 45 57.58 72 42.29 63.87 37.68"/><path class="cls-3" d="M24.08,46.27,18,49.72,43.6,64.21a2.85,2.85,0,0,0,2.8,0L72,49.72l-5.82-3.3" transform="translate(0 0)"/><path class="cls-3" d="M23.64,54,18,57.14l25.6,14.5a2.9,2.9,0,0,0,2.8,0L72,57.14l-5.23-3" transform="translate(0 0)"/><circle class="cls-3" cx="45" cy="36" r="18"/><path class="cls-3" d="M36,36a9,9,0,0,1,13.53-7.78" transform="translate(0 0)"/><path class="cls-3" d="M54,36a9,9,0,0,1-13.64,7.72" transform="translate(0 0)"/><polygon class="cls-2" points="31.82 36 36 40.88 40.18 36 31.82 36"/><polygon class="cls-2" points="58.18 36 54 31.12 49.82 36 58.18 36"/></svg>