<?xml version="1.0" encoding="UTF-8" standalone="no"?>
<!-- Created with Inkscape (http://www.inkscape.org/) -->

<svg
   width="200mm"
   height="200mm"
   viewBox="0 0 200 200"
   version="1.1"
   id="svg36"
   inkscape:version="1.1.2 (b8e25be833, 2022-02-05)"
   sodipodi:docname="freehand.svg"
   xmlns:inkscape="http://www.inkscape.org/namespaces/inkscape"
   xmlns:sodipodi="http://sodipodi.sourceforge.net/DTD/sodipodi-0.dtd"
   xmlns="http://www.w3.org/2000/svg"
   xmlns:svg="http://www.w3.org/2000/svg">
  <sodipodi:namedview
     id="namedview38"
     pagecolor="#ffffff"
     bordercolor="#666666"
     borderopacity="1.0"
     inkscape:pageshadow="2"
     inkscape:pageopacity="0.0"
     inkscape:pagecheckerboard="0"
     inkscape:document-units="mm"
     showgrid="false"
     inkscape:zoom="0.733172"
     inkscape:cx="388.72188"
     inkscape:cy="483.51546"
     inkscape:window-width="1285"
     inkscape:window-height="928"
     inkscape:window-x="72"
     inkscape:window-y="41"
     inkscape:window-maximized="0"
     inkscape:current-layer="layer1" />
  <defs
     id="defs33">
    <linearGradient
       id="linearGradient1137"
       inkscape:swatch="solid">
      <stop
         style="stop-color:#333333;stop-opacity:1;"
         offset="0"
         id="stop1135" />
    </linearGradient>
  </defs>
  <g
     inkscape:label="Lager 1"
     inkscape:groupmode="layer"
     id="layer1"
     style="display:none" />
  <g
     inkscape:groupmode="layer"
     id="layer2"
     inkscape:label="Lager 2"
     style="display:inline">
    <rect
       style="opacity:1;fill:#333333;fill-opacity:1;fill-rule:evenodd;stroke:#333333;stroke-width:4;stroke-opacity:1"
       id="rect1472"
       width="196"
       height="196"
       x="2"
       y="2" />
  </g>
  <g
     inkscape:groupmode="layer"
     id="layer3"
     inkscape:label="Lager 3"
     style="display:inline">
    <path
       style="fill:#ff2a2a;stroke:#ff2a2a;stroke-width:7.99999;stroke-linecap:round;stroke-linejoin:round;paint-order:stroke fill markers"
       id="path16306"
       d="m 43.680459,84.811279 c 0.22751,-1.062802 0.927036,-1.92464 1.461047,-2.844932 0.501722,-0.739135 1.054664,-1.46934 1.74197,-2.049439 0.335502,-0.283168 0.710924,-0.515353 1.0644,-0.775742 1.015547,-0.625081 4.199625,-2.783825 -0.390202,0.104595 -0.441452,0.277812 0.910396,-0.50936 1.36761,-0.760392 0.4758,-0.261239 0.954264,-0.517599 1.431395,-0.776396 2.22362,-1.203481 4.412173,-2.473192 6.572335,-3.787026 0.267581,-0.162748 0.528836,-0.335777 0.797023,-0.497528 0.244295,-0.147338 0.982149,-0.580813 0.740219,-0.429622 -0.8167,0.510386 -1.6432,1.004919 -2.4648,1.507379 1.756273,-0.878226 3.665038,-1.04217 5.591503,-1.170853 2.164056,-0.171037 4.312185,0.05349 6.450947,0.353364 1.517983,0.238697 3.042655,0.433547 4.522803,0.852834 1.674789,0.506289 3.133857,1.458979 4.347834,2.703225 1.025726,0.926425 1.628135,2.133877 2.17637,3.377295 0.51566,1.252241 0.947224,2.540653 1.36302,3.829542 0.357843,1.237022 0.414284,2.528416 0.466577,3.806748 0.07343,1.66179 0.07203,3.332382 -0.400508,4.937191 -0.545555,1.373698 -1.459667,2.567323 -2.408158,3.688038 -0.777698,1.066321 -1.817323,1.88609 -2.799461,2.751502 -1.372397,0.984958 -2.685389,2.044658 -3.964043,3.147378 -1.483281,1.14258 -2.797411,2.48268 -4.139986,3.7834 -1.587005,1.41044 -3.145237,2.84244 -4.539998,4.44478 -0.990812,1.24226 -1.216936,1.78906 -0.760802,3.3289 0.496525,1.33802 1.274387,2.0292 2.525977,2.64593 1.486077,0.59596 3.039565,1.02297 4.639577,1.1123 1.922106,-0.0306 3.746749,-0.5588 5.503654,-1.29783 2.508546,-1.25372 4.941276,-2.6938 7.305119,-4.19492 0.375214,-0.23828 0.700741,-0.54704 1.054783,-0.81577 0.398613,-0.30256 0.80206,-0.5987 1.203092,-0.89805 1.752793,-1.23381 0.865984,-0.63526 2.665775,-1.79941 0.430651,-0.27856 1.755362,-1.05547 1.291971,-0.83564 -0.645687,0.3063 -1.249225,0.69787 -1.842252,1.09668 -0.392202,0.26376 0.823535,-0.46413 1.238393,-0.69058 0.461783,-0.25207 0.927624,-0.49663 1.391436,-0.74495 2.938343,-1.55199 5.906355,-3.03706 8.97409,-4.31503 2.889211,-1.08505 5.829761,-2.03009 8.794941,-2.8835 3.63333,-0.928806 7.34201,-1.504299 11.04818,-2.049412 2.78969,-0.380394 5.5682,-0.827399 8.37538,-1.05833 2.49813,-0.307176 4.95548,0.01889 7.41531,0.436234 2.41906,0.487101 4.81323,1.091348 7.20054,1.714431 1.98252,0.549827 3.94692,1.127357 5.85616,1.895347 0.89207,0.36957 0.47033,0.17534 1.26849,0.57555 0,0 3.20838,-2.11283 3.20838,-2.11283 v 0 c -0.83745,-0.409483 -0.3994,-0.212956 -1.31662,-0.584063 -1.95886,-0.738841 -3.9511,-1.320525 -5.97322,-1.864694 -2.39002,-0.666879 -4.80478,-1.250659 -7.23949,-1.729779 -2.46306,-0.42305 -4.91582,-0.869157 -7.42509,-0.543378 -2.87195,0.233786 -5.70279,0.735793 -8.5511,1.159584 -3.69293,0.550485 -7.39642,1.062149 -11.023,1.973996 -2.97149,0.809281 -5.90095,1.765884 -8.79229,2.826834 -0.67129,0.27629 -2.226441,0.90757 -2.884936,1.21371 -2.066615,0.96077 -4.058443,2.0831 -6.110242,3.07436 -3.774456,1.9765 -7.498996,4.07718 -10.948792,6.5863 -0.414012,0.30563 -0.828037,0.61125 -1.242041,0.9169 -0.362614,0.26771 -1.514264,0.94909 -1.087811,0.80316 0.767046,-0.26247 1.415794,-0.79091 2.136569,-1.16203 0.355684,-0.18314 -0.69315,0.39969 -1.040726,0.59779 -0.332245,0.18936 -0.661992,0.38332 -0.99872,0.56459 -0.329567,0.17742 -0.666488,0.34083 -0.99973,0.51124 -1.708941,0.76539 -3.492685,1.33422 -5.37903,1.41347 -0.277889,-0.003 -0.556969,0.0177 -0.833662,-0.008 -1.263237,-0.1181 -2.489131,-0.59691 -3.677864,-1.00277 -1.169787,-0.53064 -1.88731,-1.13129 -2.34695,-2.3663 -0.349202,-1.42587 0.0149,-1.86096 0.893218,-2.97516 1.362178,-1.56625 2.885471,-2.96989 4.425238,-4.35952 1.384482,-1.30516 2.768523,-2.61442 4.253172,-3.80643 1.299643,-1.0919 2.6289,-2.142557 3.98608,-3.161761 1.004392,-0.871519 2.017254,-1.739794 2.805692,-2.822363 0.92937,-1.164688 1.812427,-2.402827 2.306052,-3.821441 0.397815,-1.649079 0.393642,-3.357287 0.366837,-5.046742 -0.0384,-1.317871 -0.130466,-2.641848 -0.49566,-3.916021 -0.443174,-1.290791 -0.894437,-2.581209 -1.407427,-3.845679 -0.56634,-1.290651 -1.16663,-2.552329 -2.254419,-3.494111 -1.271135,-1.261449 -2.756424,-2.277129 -4.468498,-2.845734 -0.615198,-0.210323 -0.898459,-0.334113 -1.5211,-0.451848 -1.001117,-0.189298 -2.031828,-0.236238 -3.02809,-0.461618 -2.190448,-0.27545 -4.388122,-0.477584 -6.599642,-0.329655 -1.917946,0.05815 -3.823404,0.120568 -5.579957,0.988743 -2.043403,1.115822 -3.141641,1.644406 -4.771271,2.644298 -0.559593,0.34335 -2.258242,1.338485 -1.677963,1.03138 0.674306,-0.35687 1.335301,-0.738674 1.993421,-1.124582 0.442828,-0.259665 -0.898274,0.497184 -1.347412,0.745776 -2.982,1.602295 -6.008912,3.157609 -8.780608,5.109853 -1.101204,0.820187 -2.062422,1.771787 -2.759533,2.97022 -0.586509,0.959292 -1.248878,1.892898 -1.501097,3.009403 0,0 3.551621,-1.7222 3.551621,-1.7222 z" />
  </g>
</svg>
