<?xml version="1.0" encoding="utf-8" ?> <!DOCTYPE svg PUBLIC "-//W3C//DTD SVG 1.1//EN" "http://www.w3.org/Graphics/SVG/1.1/DTD/svg11.dtd"><svg contentScriptType="text/ecmascript" xmlns:xlink="http://www.w3.org/1999/xlink" zoomAndPan="magnify" contentStyleType="text/css" preserveAspectRatio="xMidYMid meet" width="7339.94970703125" height="4764" viewbox="-2446.64990234375 -1588 7339.94970703125 4764" version="1.1" xmlns="http://www.w3.org/2000/svg" xmlns:cvjs="http://www.tailormade.com/" stroke-linecap="butt" stroke-linejoin="round" fill-rule="evenodd" ><svg id="floorPlan_svg" style="position: absolute; display: block; overflow: hidden; width: 850px; height: 797.944px; background-color: white;" viewBox="0 0 2446.65 1588" xmlns="http://www.w3.org/2000/svg"><g fill="#ffffff" id="master_floorPlan_svg" style="fill-opacity: 0.01; stroke-width: 0;" transform="matrix(3,0,0,3,-2446.6499,-1588)"><rect x="-9.5367431640625e-7" y="0" width="2446.64990234375" height="1588"></rect></g><g id="main_master_floorPlan_svg"><svg x="0" y="0" width="10000" height="10000" viewBox="0 0 10000 10000"><desc>Created with Snap</desc><defs></defs><!--?xml version="1.0" encoding="utf-8" ?-->
<!-- Generated by AutoXChange 64-bit  V23.03.81 from Tailor Made Software -->
<!-- www.tailormade.com -->

<svg id="tmsSVG77" contentscripttype="text/ecmascript" xmlns:xlink="http://www.w3.org/1999/xlink" zoomAndPan="magnify" contentstyletype="text/css" preserveAspectRatio="xMidYMid meet" width="2446.65" height="1588" viewBox="0 0 2446.65 1588" version="1.1" xmlns="http://www.w3.org/2000/svg" xmlns:cvjs="http://www.tailormade.com/" stroke-linecap="butt" stroke-linejoin="round" fill-rule="evenodd">
<defs>
	<style id="cv_styles" type="text/css">
	    
	   #tmsSVG77 { background-color: white; opacity: 1.}
		:root {
		    --tmsMinLineWidth: 0.0242780955064712;
		    --tmsMinDashLength: 0.6;
		    --tmsHLWidth: 0.6;
		    --tmsNumberOfLayouts: 1;
		    --tmsNumberOfSVGViewports: 0;
         --tmsMinFixedLineWidth: 0.6;
		    --tmsbPostFix: 0;
		}
		.tmsPoints {
		    fill: none;
		    stroke-width: var(--tmsMinLineWidth);
		    r: calc(var(--tmsMinLineWidth)/2.0);
		}
		.ZWhl {
		    stroke-width: var(--tmsHLWidth);
		}
		.ZW {
		    stroke-width: var(--tmsMinLineWidth);
		}
		.ZW6 {
		    stroke-width: calc(var(--tmsMinLineWidth)*6);
		}
		.ZW10 {
		    stroke-width: calc(var(--tmsMinLineWidth)*10);
		}
		.ZW20 {
		    stroke-width: calc(var(--tmsMinLineWidth)*20);
		}
		.ZW100 {
		    stroke-width: calc(var(--tmsMinLineWidth)*100);
		}
		.nZW {
		}
		.sLW_0_2{
		    stroke-width: calc(var(--tmsMinFixedLineWidth)*0.333333);
		}
		.sLW_0_6{
		    stroke-width: var(--tmsMinFixedLineWidth);
		}
		.hyperlinks:hover {
		    stroke-width: 3;
		}
		.hyperimage image{
			opacity: 0;
		}
		.hyperimage:hover image{
			opacity: 1;
		}
		.hyperimage:hover path{
			stroke-width: 3;
		}
		.hyperimage:visited{
			color: red;
		}
		.sLt_CENTER {
		    stroke-dasharray: calc(var(--tmsMinDashLength)*2.112298) calc(var(--tmsMinDashLength)*0.42246) calc(var(--tmsMinDashLength)*0.42246) calc(var(--tmsMinDashLength)*0.42246);
		}
	</style>
	</defs>
<metadata>
<text id="cadviewer_worldUnits" style="stroke-width: 0;">
{ "globalOrigin": { "x": 17.448914, "y" : -258.016026}, 
						"units": "in",
						"measurementType": "English",
						"lengthType": "Architectural",
						"lengthPrecision": 4,
						"blockUnitsFormat": "Undefined",
						"svgToWorldUnits": 0.603275,
						"worldToSVGUnits": 1.657620
}
</text>
<text id="cadviewer_drawingCoordinates" style="stroke-width: 0;">
{ "DWG": 
    { "lowerLeft": { "x": 17.448914, "y" : -258.016026}, 
      "upperRight": { "x": 1493.448914, "y" : 699.983974} 
    },
 "SVG": 
    { "lowerLeft": { "x": 26.676409, "y" : 1588.000000}, 
      "upperRight": { "x": 2473.323591, "y" : 0.000000} 
    },
 "Drawing Height": 1588
}
</text>
<text id="cadviewer_vqBuilding" style="stroke-width: 0;"></text>
<text id="cadviewer_vqFloor" style="stroke-width: 0;"></text>
<text id="cadviewer_multiPages" style="stroke-width: 0;">
{ "multiPages": 1, 
                   "currentPage":1,
                   "pages" : [
                        { "fileName":"F843770", "pageName":"ModelSpace"}
                   ]
}
</text>
</metadata>
<g id="cv_main_drawing">
<g id="layer_WA_2D_EXT" class="layer_WA_2D_EXT" cvjs:layername="WA-EXT" cvjs:plottable="YES" cvjs:status="ON" visibility="visible" display="inline">
<g id="cvclr_1" stroke="none" fill="#91A552" opacity="1.">
<path id="cv_2" d="M830.47,147.53v-89.51h34.81v-23.21h14.5v-4.97h22.38v-8.29h3.32v-11.6h-59.67v4.97h-30.25v23.21h-4.97v89.51h-10.36v-4.97h-36.47v11.6h3.32v8.29h11.19v4.97h52.22 Z " style="stroke-linejoin: round; stroke-width: 1px;"></path>
<path id="cv_3" d="M659.32,117.69h-32.32v4.97h-11.6v11.6h3.32v8.29h48.9v-8.29h3.32v-11.6h-11.6v-4.97 Z " style="stroke-linejoin: round; stroke-width: 1px;"></path>
<path id="cv_4" d="M401.14,265.22h51.39v-94.48h36.47v-23.21h14.5v-4.97h15.75v-8.29h3.32v-11.6h-54.7v4.97h-30.25v23.21h-4.97v94.48h-9.53v-4.97h-37.3v11.6h3.32v8.29h12.02v4.97 Z " style="stroke-linejoin: round; stroke-width: 1px;"></path>
<path id="cv_5" d="M289.67,251.96v8.29h-48.9v-8.29h-3.32v-11.6h11.6v-4.97h32.32v4.97h11.6v11.6h-3.32 Z " style="stroke-linejoin: round; stroke-width: 1px;"></path>
<path id="cv_6" d="M503.5,1440.47v4.97h15.75v8.29h3.32v11.6h-54.7v-4.97h-30.25v-23.21h-4.97v-94.48h-9.53v4.97h-37.3v-11.6h3.32v-8.29h12.02v-4.97h51.39v94.48h36.47v23.21h14.5 Z " style="stroke-linejoin: round; stroke-width: 1px;"></path>
<path id="cv_7" d="M778.25,1440.47h52.22v89.51h34.81v23.21h14.5v4.97h22.38v8.29h3.32v11.6h-59.67v-4.97h-30.25v-23.21h-4.97v-89.51h-10.36v4.97h-36.47v-11.6h3.32v-8.29h11.19v-4.97 Z " style="stroke-linejoin: round; stroke-width: 1px;"></path>
<path id="cv_8" d="M1057.98,1563.14v-4.97h-56.36v8.29h-3.32v11.6h25.69v4.97h59.67v-11.6h-3.32v-8.29h-22.38 Z " style="stroke-linejoin: round; stroke-width: 1px;"></path>
<path id="cv_9" d="M1246.53,1563.14v-33.15h-46.41v33.15h-20.31v8.29h-3.32v11.6h23.62v4.97h46.41v-4.97h23.62v-11.6h-3.32v-8.29h-20.31 Z " style="stroke-linejoin: round; stroke-width: 1px;"></path>
<path id="cv_10" d="M1670.88,1423.9h-54.7V1529.98h-34.81v23.21h-14.5v4.97h-22.38v8.29h-3.32v11.6h59.67v-4.97h30.25v-23.21h4.97V1443.79h10.36v4.97h39.78v-11.6h-3.32v-8.29h-12.02v-4.97 Z " style="stroke-linejoin: round; stroke-width: 1px;"></path>
<path id="cv_11" d="M1422.65,1583.03h-59.67v-11.6h3.32v-8.29h22.38v-4.97h56.36v8.29h3.32v11.6h-25.69v4.97 Z " style="stroke-linejoin: round; stroke-width: 1px;"></path>
<path id="cv_12" d="M2200.91,1319.47h-32.32v-4.97h-11.6v-11.6h3.32v-8.29h48.9v8.29h3.32v11.6h-11.6v4.97 Z " style="stroke-linejoin: round; stroke-width: 1px;"></path>
<path id="cv_13" d="M1994.12,1400.69V1289.63h54.7v4.97h12.02v8.29h3.32v11.6h-39.78v-4.97h-10.36V1420.58h-4.97v23.21h-30.25v4.97h-51.39v-11.6h3.32v-8.29h14.92v-4.97h14.5v-23.21h33.98 Z " style="stroke-linejoin: round; stroke-width: 1px;"></path>
<path id="cv_14" d="M2305.34,1302.89v11.6h49.73v-4.97h31.91v-23.21h4.97v-71.28h-11.6v3.32h-8.29v48.07h-34.81v23.21h-14.5v4.97h-14.09v8.29h-3.32 Z " style="stroke-linejoin: round; stroke-width: 1px;"></path>
<path id="cv_15" d="M1246.53,58.02h-46.41v-33.15h-20.31v-8.29h-3.32v-11.6h23.62v-4.97h46.41v4.97h23.62v11.6h-3.32v8.29h-20.31v33.15 Z " style="stroke-linejoin: round; stroke-width: 1px;"></path>
<path id="cv_16" d="M1822.97,134.27h-32.32v4.97h-11.6v11.6h3.32v8.29h48.9v-8.29h3.32v-11.6h-11.6v-4.97 Z " style="stroke-linejoin: round; stroke-width: 1px;"></path>
<path id="cv_17" d="M2200.91,268.53h-32.32v4.97h-11.6v11.6h3.32v8.29h48.9v-8.29h3.32v-11.6h-11.6v-4.97 Z " style="stroke-linejoin: round; stroke-width: 1px;"></path>
<path id="cv_18" d="M2305.34,285.11v-11.6h49.73v4.97h31.91v23.21h4.97v71.28h-11.6v-3.32h-8.29v-48.07h-34.81v-23.21h-14.5v-4.97h-14.09v-8.29h-3.32 Z " style="stroke-linejoin: round; stroke-width: 1px;"></path>
<path id="cv_19" d="M2446.65,867.35h-4.97v11.6h-11.6v-3.32h-8.29v-35.64h8.29v-3.32h11.6v11.6h4.97v19.06 Z " style="stroke-linejoin: round; stroke-width: 1px;"></path>
<path id="cv_20" d="M1023.99,4.97h59.67v11.6h-3.32v8.29h-22.38v4.97h-56.36v-8.29h-3.32v-11.6h25.69v-4.97 Z " style="stroke-linejoin: round; stroke-width: 1px;"></path>
<path id="cv_21" d="M1422.65,4.97h-59.67v11.6h3.32v8.29h22.38v4.97h56.36v-8.29h3.32v-11.6h-25.69v-4.97 Z " style="stroke-linejoin: round; stroke-width: 1px;"></path>
<path id="cv_22" d="M1616.18,164.1V58.02h-34.81v-23.21h-14.5v-4.97h-22.38v-8.29h-3.32v-11.6h59.67v4.97h30.25v23.21h4.97V144.21h10.36v-4.97h39.78v11.6h-3.32v8.29h-12.02v4.97h-54.7 Z " style="stroke-linejoin: round; stroke-width: 1px;"></path>
<path id="cv_23" d="M1994.12,187.31V298.37h54.7v-4.97h12.02v-8.29h3.32v-11.6h-39.78v4.97h-10.36V167.42h-4.97v-23.21h-30.25v-4.97h-51.39v11.6h3.32v8.29h14.92v4.97h14.5v23.21h33.98 Z " style="stroke-linejoin: round; stroke-width: 1px;"></path>
<path id="cv_24" d="M2405.19,580.58v-20.31h-69.6v-39.78h36.47v-51.39h8.29v-3.32h11.6v49.73h21.55v4.97h23.21v31.91h4.97v71.28h-11.6v-3.32h-8.29v-39.78h-16.6 Z " style="stroke-linejoin: round; stroke-width: 1px;"></path>
<path id="cv_25" d="M2405.21,1027.72h-69.62v39.78h36.47v51.39h8.29v3.32h11.6v-49.73h21.55v-4.97h23.21v-31.91h4.97v-71.28h-11.6v3.32h-8.29v39.78h-16.58v20.31 Z " style="stroke-linejoin: round; stroke-width: 1px;"></path>
<path id="cv_26" d="M2421.78,712.36v35.64h8.29v3.32h11.6v-11.6h4.97v-19.06h-4.97v-11.6h-11.6v3.32h-8.29 Z " style="stroke-linejoin: round; stroke-width: 1px;"></path>
<path id="cv_27" d="M2004.06,1022.75v49.73h-49.73v-49.73h49.73 Z " style="stroke-linejoin: round; stroke-width: 1px;"></path>
<path id="cv_28" d="M2004.06,515.52h-49.73v49.73h49.73v-49.73 Z " style="stroke-linejoin: round; stroke-width: 1px;"></path>
<path id="cv_29" d="M487.34,570.22v-59.67h-39.78v59.67h39.78 Z " style="stroke-linejoin: round; stroke-width: 1px;"></path>
<path id="cv_30" d="M1243.22,510.55h-39.78v59.67h39.78v-59.67 Z " style="stroke-linejoin: round; stroke-width: 1px;"></path>
<path id="cv_31" d="M1626.13,510.55v54.7h-49.73v-54.7h49.73 Z " style="stroke-linejoin: round; stroke-width: 1px;"></path>
<path id="cv_32" d="M1576.4,1022.75h46.41v49.73h-46.41v-49.73 Z " style="stroke-linejoin: round; stroke-width: 1px;"></path>
<path id="cv_33" d="M865.28,510.55h-39.78v59.67h39.78v-59.67 Z " style="stroke-linejoin: round; stroke-width: 1px;"></path>
<path id="cv_34" d="M825.49,1017.78h39.78v59.67h-39.78v-59.67 Z " style="stroke-linejoin: round; stroke-width: 1px;"></path>
<path id="cv_35" d="M487.34,1017.78v59.67h-39.78v-59.67h39.78 Z " style="stroke-linejoin: round; stroke-width: 1px;"></path>
<path id="cv_36" d="M1203.43,1017.78h39.78v59.67h-39.78v-59.67 Z " style="stroke-linejoin: round; stroke-width: 1px;"></path>
<path id="cv_37" d="M-0,880.61h4.97l-4.97,-32.32v32.32 Z " style="stroke-linejoin: round; stroke-width: 1px;"></path>
<path id="cv_38" d="M4.97,880.61v-32.32h-4.97l4.97,32.32 Z " style="stroke-linejoin: round; stroke-width: 1px;"></path>
<path id="cv_39" d="M4.97,892.21h11.6l-11.6,-55.53v55.53 Z " style="stroke-linejoin: round; stroke-width: 1px;"></path>
<path id="cv_40" d="M16.58,892.21v-55.53h-11.6l11.6,55.53 Z " style="stroke-linejoin: round; stroke-width: 1px;"></path>
<path id="cv_41" d="M16.58,888.9h8.29l-8.29,-48.9v48.9 Z " style="stroke-linejoin: round; stroke-width: 1px;"></path>
<path id="cv_42" d="M24.86,888.9v-48.9h-8.29l8.29,48.9 Z " style="stroke-linejoin: round; stroke-width: 1px;"></path>
</g>
<g id="cvclr_43" stroke="#000" fill="none">
<path id="cv_44" class="ZW" d="M54.7,1072.48l0,69.62M74.59,1138.78l-0,-71.28M54.7,1142.1h11.6l0,-3.32h8.29M9.95,1035.6l0,31.91h23.21l0,4.97h21.55M48.07,1007.42h-23.21M4.97,977.58l0,58.02M24.86,1007.42l0,-26.52M4.97,1035.6h4.97M16.58,980.9l0,-3.32M24.86,980.9h-8.29M16.58,977.58h-11.6M48.07,1027.72l0,-20.31M54.7,515.52l0,-69.62M74.59,449.22l-0,71.28M4.97,610.42l0,-58.02M48.07,560.28l0,20.31h-23.21l0,26.52M16.58,607.1l0,3.32h-11.6M24.86,607.1h-8.29M9.95,520.49h23.21M4.97,552.4h4.97l0,-31.91M33.15,520.49l0,-4.97h21.55M54.7,445.9h11.6l0,3.32h8.29M1246.53,1588h-46.41M1246.53,1529.98h-46.41M1200.12,1563.14l0,-33.15M1179.81,1563.14h20.31M1179.81,1571.42l0,-8.29M1176.5,1571.42h3.32M1176.5,1583.03l0,-11.6M1176.5,1583.03h23.62M1200.12,1588l0,-4.97M1266.84,1571.42l0,-8.29h-20.31M1270.15,1571.42h-3.32M1270.15,1583.03l0,-11.6M1270.15,1583.03h-23.62M1246.53,1588l0,-4.97M2391.95,1072.48l0,49.73M2380.34,1122.21l0,-3.32M2391.95,1122.21h-11.6M2436.7,1035.6l0,31.91M2372.05,1118.89l0,-51.39M2380.34,1118.89h-8.29M2436.7,1067.51h-23.21M2413.49,1072.48h-21.55M2413.49,1067.51l0,4.97M2441.67,964.32l0,71.28M2421.78,1007.42l0,-39.78M2405.21,1007.42h16.58M2441.67,1035.6h-4.97M2430.07,964.32h11.6M2430.07,967.64l0,-3.32M2421.78,967.64h8.29M1626.13,510.55h-49.73M1200.12,0l0,4.97M1246.53,0l0,4.97M1200.12,24.86l0,33.15M1179.81,24.86h20.31M1179.81,16.58l0,8.29M1176.5,16.58h3.32M1176.5,4.97h23.62M1176.5,4.97l0,11.6M1246.53,24.86l0,33.15M1266.84,16.58l0,8.29h-20.31M1270.15,16.58h-3.32M1270.15,4.97h-23.62M1270.15,4.97l0,11.6M1246.53,0h-46.41M2372.05,469.11l0,51.39M2391.95,515.52l0,-49.73M2441.67,623.68l0,-71.28M2421.78,580.58l0,39.78h8.29l0,3.32h11.6M2413.49,520.49l0,-4.97M2436.7,520.49h-23.21M2441.67,552.4h-4.97l0,-31.91M2413.49,515.52h-21.55M2391.95,465.79h-11.6M2380.34,469.11h-8.29M2380.34,465.79l0,3.32M1246.53,1563.14l0,-33.15M1246.53,58.02h-46.41M1566.87,29.84h-22.38l0,-8.29h-3.32l0,-11.6h59.67l0,4.97h30.25l0,23.21h4.97L1636.07,144.21h10.36l0,-4.97h39.78l0,11.6h-3.32l0,8.29h-12.02l0,4.97M1616.18,58.02h-34.81l0,-23.21h-14.5l0,-4.97M1954.33,565.25h49.73M1954.33,565.25l0,-49.73M1994.12,187.31h-33.98l0,-23.21h-14.5l0,-4.97M2335.59,560.28l0,-39.78M2372.05,520.49h-36.47M2421.78,580.58h-16.6M1954.33,1022.75h49.73M2004.06,1072.48h-49.73l0,-49.73M1945.63,1428.87h-14.92l0,8.29h-3.32l0,11.6h51.39l0,-4.97h30.25l0,-23.21h4.97L2014.01,1309.52h10.36l0,4.97h39.78l0,-11.6h-3.32l0,-8.29h-12.02l0,-4.97h-54.7M1994.12,1400.69h-33.98l0,23.21h-14.5l0,4.97M1622.81,1022.75l0,49.73M1083.67,1583.03l0,-11.6h-3.32l0,-8.29h-22.38M1057.98,1558.16h-56.36l0,8.29h-3.32l0,11.6h25.69l0,4.97h59.67M487.34,1077.45h-39.78M1576.4,510.55l-0,54.7M879.78,29.84h22.38l0,-8.29h3.32l0,-11.6h-59.67l0,4.97h-30.25l0,23.21h-4.97l0,89.51h-10.36l0,-4.97h-36.47l0,11.6h3.32l0,8.29h11.19l0,4.97h52.22M830.47,58.02h34.81l0,-23.21h14.5l0,-4.97M626.99,117.69l0,4.97h-11.6l0,11.6h3.32l-0,8.29h48.9l0,-8.29h3.32l0,-11.6h-11.6l0,-4.97h-32.32M1362.98,4.97l0,11.6h3.32l0,8.29h22.38l0,4.97h56.36l0,-8.29h3.32l0,-11.6h-25.69l0,-4.97h-59.67M1670.88,164.1h-54.7M2004.06,515.52l0,49.73M1945.63,159.13h-14.92l0,-8.29h-3.32l0,-11.6h51.39l0,4.97h30.25l0,23.21h4.97L2014.01,278.48h10.36l0,-4.97h39.78l0,11.6h-3.32l0,8.29h-12.02l0,4.97h-54.7M1994.12,187.31L1994.12,298.37M2004.06,515.52h-49.73M1626.13,565.25h-49.73M2405.19,560.28h-69.6M2405.19,580.58l0,-20.31M2405.21,1007.42l0,20.31M2335.59,1027.72l0,39.78h36.47M2004.06,1022.75l0,49.73M1994.12,1400.69L1994.12,1289.63M1083.67,4.97l0,11.6h-3.32l0,8.29h-22.38l0,4.97h-56.36M503.5,142.56h15.75l0,-8.29h3.32l0,-11.6h-54.7l0,4.97h-30.25l0,23.21h-4.97l0,94.48h-9.53l0,-4.97h-37.3l0,11.6h3.32l0,8.29h12.02l0,4.97M452.53,265.22l0,-94.48h36.47l0,-23.21h14.5l0,-4.97M1622.81,1072.48h-46.41l0,-49.73M503.5,1445.44h15.75l0,8.29h3.32l0,11.6h-54.7l0,-4.97h-30.25l0,-23.21h-4.97l0,-94.48h-9.53l0,4.97h-37.3l0,-11.6h3.32l0,-8.29h12.02l0,-4.97h51.39l0,94.48h36.47l0,23.21h14.5l0,4.97M1626.13,510.55l0,54.7M1057.98,1563.14l0,-4.97M401.14,265.22h51.39M2405.21,1027.72h-69.62M626.99,1470.31l0,-4.97h-11.6l0,-11.6h3.32l0,-8.29h48.9l0,8.29h3.32l0,11.6h-11.6l0,4.97h-32.32M144.63,1347.65h-53.04l0,-4.97h-31.91l0,-23.21h-4.97l0,-84.54h11.6l0,3.32h8.29l0,61.33h38.13l0,23.21h14.5l0,4.97h14.09l0,8.29h3.32l0,11.6M48.07,1027.72h62.99l0,39.78M74.59,1067.51h36.47M249.06,1352.62l0,-4.97h-11.6l0,-11.6h3.32l0,-8.29h48.9l0,8.29h3.32l0,11.6h-11.6l0,4.97h-32.32M447.56,1077.45l0,-59.67h39.78l0,59.67M-0,848.29h4.97l0,-11.6h11.6l0,3.32h8.29l0,48.9h-8.29l0,3.32h-11.6l0,-11.6h-4.97l0,-32.32M24.86,699.1h-8.29l0,-3.32h-11.6l0,11.6h-4.97l0,32.32h4.97l0,11.6h11.6l0,-3.32h8.29l0,-48.9M111.06,560.28l0,-39.78M74.59,520.49h36.47M48.07,560.28h62.99M487.34,510.55h-39.78l0,59.67h39.78l-0,-59.67M142.97,240.35h-51.39l0,4.97h-31.91l0,23.21h-4.97l0,84.54h11.6l0,-3.32h8.29l0,-61.33h36.47l0,-23.21h14.5l0,-4.97h14.09l0,-8.29h3.32l0,-11.6M289.67,260.25h-48.9l0,-8.29h-3.32l0,-11.6h11.6l0,-4.97h32.32l0,4.97h11.6l0,11.6h-3.32l0,8.29M1790.64,1453.73l0,-4.97h-11.6l0,-11.6h3.32l0,-8.29h48.9l0,8.29h3.32l0,11.6h-11.6l0,4.97h-32.32M830.47,1440.47l0,89.51h34.81l0,23.21h14.5l0,4.97h22.38l0,8.29h3.32l0,11.6h-59.67l0,-4.97h-30.25l0,-23.21h-4.97l0,-89.51h-10.36l0,4.97h-36.47l0,-11.6h3.32l0,-8.29h11.19l0,-4.97h52.22M865.28,1077.45h-39.78M865.28,1017.78l0,59.67M825.49,1077.45l0,-59.67h39.78M1243.22,1017.78l0,59.67h-39.78l0,-59.67h39.78M1362.98,1583.03l0,-11.6h3.32l0,-8.29h22.38l0,-4.97h56.36l0,8.29h3.32l0,11.6h-25.69l0,4.97h-59.67M1616.18,1423.9L1616.18,1529.98h-34.81l0,23.21h-14.5l0,4.97h-22.38l0,8.29h-3.32l0,11.6h59.67l0,-4.97h30.25l0,-23.21h4.97L1636.07,1443.79h10.36l0,4.97h39.78l0,-11.6h-3.32l0,-8.29h-12.02l0,-4.97h-54.7M1576.4,1022.75h46.41M2305.34,1314.49h49.73l0,-4.97h31.91l0,-23.21h4.97l0,-71.28h-11.6l0,3.32h-8.29l0,48.07h-34.81l0,23.21h-14.5l0,4.97h-14.09l0,8.29h-3.32l0,11.6M2168.58,1319.47l0,-4.97h-11.6l0,-11.6h3.32l0,-8.29h48.9l0,8.29h3.32l0,11.6h-11.6l0,4.97h-32.32M1790.64,134.27l0,4.97h-11.6l0,11.6h3.32l0,8.29h48.9l0,-8.29h3.32l0,-11.6h-11.6l0,-4.97h-32.32M825.49,510.55l0,59.67h39.78l0,-59.67h-39.78M1203.43,570.22h39.78l0,-59.67M1203.43,510.55l0,59.67M1243.22,510.55h-39.78M1001.62,29.84l0,-8.29h-3.32l0,-11.6h25.69l0,-4.97h59.67M2305.34,273.51h49.73l0,4.97h31.91l0,23.21h4.97l0,71.28h-11.6l0,-3.32h-8.29l0,-48.07h-34.81l0,-23.21h-14.5l0,-4.97h-14.09l0,-8.29h-3.32l0,-11.6M2441.67,867.35l0,11.6h-11.6l0,-3.32h-8.29l-0,-35.64h8.29l0,-3.32h11.6l0,11.6h4.97l0,19.06h-4.97M2430.07,751.32h11.6l0,-11.6h4.97l0,-19.06h-4.97l0,-11.6h-11.6l0,3.32h-8.29l-0,35.64M2168.58,268.53l0,4.97h-11.6l0,11.6h3.32l0,8.29h48.9l0,-8.29h3.32l0,-11.6h-11.6l0,-4.97h-32.32M830.47,147.53l0,-89.51M1616.18,164.1L1616.18,58.02" style="stroke-linejoin: round;"></path>
</g>
</g>
<g id="layer_WA" class="layer_WA" cvjs:layername="WA" cvjs:plottable="YES" cvjs:status="ON" visibility="visible" display="inline">
<g id="cvclr_45" stroke="#FF7F00" fill="none">
<path id="cv_46" class="ZW" d="M111.06,1047.62H338.15M328.21,1037.67h9.95M338.15,1047.62l0,-9.95M397.83,1047.62l0,-9.95M407.77,1037.67h-9.95M447.56,1047.62h-49.73M328.21,550.33h9.95l0,-9.95M387.88,550.33l0,-9.95M407.77,550.33h-19.89M1375,910.03h-23.2M1375,916.66h-23.2M1256.48,916.66h35.64l0,-6.63M1351.79,916.66l0,-6.63M1375,786.41h6.63M1381.63,794l0,-7.59M1375,830.47l0,-44.06M447.56,1077.45l0,-29.84M1375,910.03l0,-19.89M1158.26,910.03H1292.12M1375,686.95h6.63M1381.63,677.97l0,8.98M1375,686.95l0,-8.98h-22.38M277.65,540.38h60.5M447.56,540.38h-59.67M825.49,1057.56H487.34M855.33,1104.8H616.63M865.28,1094.86H626.58M825.49,1067.51H626.58M910.45,910.03H780.32M840.41,919.98h-60.09M825.49,530.44H487.34M825.49,520.49H487.34M910.45,677.97H780.32M840.41,668.02h-60.09M328.21,975.48L328.21,712.78M462.48,1017.78l0,-97.8M472.42,1017.78l0,-97.8M407.77,1037.67L407.77,910.03M417.72,1037.67L417.72,919.98M261.9,963.08l0,-91.17M318.26,1037.67H111.06M328.12,1047.62H111.06M54.7,1072.48l0,69.62M74.59,1138.78l0,-71.28M54.7,1142.1h11.6l0,-3.32h8.29M9.95,1035.6l0,31.91h23.21l0,4.97h21.55M48.07,1007.42h-23.21M4.97,977.58l0,58.02M24.86,1007.42l0,-26.52M4.97,1035.6h4.97M16.58,980.9l0,-3.32M24.86,980.9h-8.29M16.58,977.58h-11.6M48.07,1027.72l0,-20.31M616.63,1067.51H487.34M328.21,1025.21l0,12.46M318.26,963.08h-56.36M318.26,1037.67l0,-12.46h9.95M318.26,975.48l0,-12.41M318.26,975.48h9.95M447.56,1037.67h-29.84M616.63,1067.51l0,37.3M626.58,1067.51l0,27.35M264.39,540.38L264.39,260.25M277.65,540.38L277.65,260.25M261.9,861.96H24.86M261.9,871.91H24.86M318.26,649.79H96.53M318.26,639.84H92.41M24.86,707.39l67.55,-67.55M24.86,721.45l71.67,-71.67M54.7,515.52l0,-69.62M74.59,449.22l0,71.28M4.97,610.42l0,-58.02M48.07,560.28l0,20.31h-23.21l0,26.52M16.58,607.1l0,3.32h-11.6M24.86,607.1h-8.29M9.95,520.49h23.21M4.97,552.4h4.97l0,-31.91M33.15,520.49l0,-4.97h21.55M194.77,540.38h-83.71M194.77,550.33h-83.71M194.77,540.38l0,9.95M54.7,445.9h11.6l0,3.32h8.29M462.48,570.22l0,97.8M472.42,570.22l0,97.8M328.21,663.05l0,-38.13M407.77,619.95l0,58.02M417.72,619.95l0,48.07M530.85,919.98h-58.43M530.85,910.03H407.77M532.51,677.97H407.77M532.51,668.02h-60.09M318.26,823.84L318.26,712.78M271.85,953.13L271.85,833.78M318.26,953.13L318.26,833.78M318.26,953.13h-46.41M318.26,833.78h-46.41M318.26,823.84h-56.36M261.9,861.96l0,-38.13M462.48,919.98h-44.76M318.26,712.78h9.95M318.26,663.05l0,-13.26M318.26,663.05h9.95M462.48,668.02h-44.76M710.7,919.98H603.79M710.7,910.03H603.79M530.85,919.98l0,-9.95M603.79,919.98l0,-9.95M710.7,919.98l0,-9.95M780.32,919.98l0,-9.95M710.7,668.02H602.13M710.7,677.97H602.13M532.51,668.02l0,9.95M602.13,668.02l0,9.95M710.7,668.02l0,9.95M780.32,668.02l0,9.95M318.26,565.25l0,-14.92M328.21,565.25l0,-14.92M318.26,639.84l0,-14.92h9.95M318.26,565.25h9.95M318.26,550.33h-63.82M264.39,540.38h-9.95l0,9.95M407.77,619.95h9.95M447.56,550.33h-29.84M407.77,560.28h9.95M407.77,550.33l0,9.95M417.72,550.33l0,9.95M850.36,1017.78l0,-97.8M840.41,1017.78l0,-97.8M1256.48,1052.59L1256.48,916.66M1246.53,1042.64L1246.53,919.98M1228.3,1017.78l0,-97.8M1218.35,1017.78l0,-97.8M1375,1052.59L1375,916.66M1384.94,1042.64L1384.94,890.14M1650.91,913.49L1650.91,1072.48M1644.28,920.12L1644.28,1022.75M1591.32,1022.75L1591.32,803.95M1601.26,1022.75L1601.26,920.12M1246.53,1588h-46.41M1246.53,1529.98h-46.41M1200.12,1563.14l0,-33.15M1179.81,1563.14h20.31M1179.81,1571.42l0,-8.29M1176.5,1571.42h3.32M1176.5,1583.03l0,-11.6M1176.5,1583.03h23.62M1200.12,1588l0,-4.97M1246.53,1563.14l0,-33.15M1266.84,1571.42l0,-8.29h-20.31M1270.15,1571.42h-3.32M1270.15,1583.03l0,-11.6M1270.15,1583.03h-23.62M1246.53,1588l0,-4.97M1203.43,1057.56H865.28M944.84,1067.51h-79.57M954.79,1114.75h-99.46M944.84,1104.8h-79.57M855.33,1104.8l0,9.95M865.28,1094.86l0,9.95M954.79,1067.51l0,47.24M944.84,1067.51l0,37.3M1256.48,1052.59h-13.26M1246.53,1042.64h-3.32M1576.4,1052.59H1375M1576.4,1042.64H1384.94M1650.91,1072.48h-24.79M1644.28,1065.85h-18.15M1626.13,1022.75h18.15M1626.13,1029.38h18.15M2391.95,1072.48l0,49.73M2380.34,1122.21l0,-3.32M2391.95,1122.21h-11.6M2436.7,1035.6l0,31.91M2372.05,1118.89l0,-51.39M2380.34,1118.89h-8.29M2436.7,1067.51h-23.21M2413.49,1072.48h-21.55M2413.49,1067.51l0,4.97M2441.67,964.32l0,71.28M2421.78,1007.42l0,-39.78M2398.58,1007.42h23.21M2398.58,1027.72l0,-20.31M2441.67,1035.6h-4.97M2430.07,964.32h11.6M2430.07,967.64l0,-3.32M2421.78,967.64h8.29M1362.56,520.49H1243.22M1442.13,510.55H1243.22M850.36,570.22l0,97.8M840.41,570.22l0,97.8M1218.35,570.22l0,97.8M1228.3,570.22l0,97.8M1088.64,910.03H980.07M1088.64,919.98H980.07M1088.64,677.97H980.07M1088.64,668.02H980.07M910.45,919.98h-60.09M910.45,919.98l0,-9.95M980.07,919.98l0,-9.95M910.45,668.02h-60.09M910.45,668.02l0,9.95M980.07,668.02l0,9.95M1218.35,919.98h-60.09M1088.64,919.98l0,-9.95M1158.26,919.98l0,-9.95M1246.53,919.98h-18.23M1292.94,677.97H1158.26M1218.35,668.02h-60.09M1088.64,668.02l0,9.95M1158.26,668.02l0,9.95M1292.94,668.02h-64.65M1292.86,678.03l0,-10.01M1203.43,530.44H865.28M1203.43,520.49H954.79M855.33,510.55l0,-43.1M865.28,510.55l0,-33.15M944.84,520.49l0,-43.1M954.79,520.49l0,-53.04M944.84,477.39h-79.57M954.79,467.45h-99.46M1372.51,668.02L1372.51,520.49M1362.56,668.02L1362.56,520.49M1442.13,677.97l0,-39.55M1432.18,668.02l0,-29.6M1601.26,920.12h43.02M1601.26,913.49h49.65M1375,830.47l0,-36.47M1591.32,803.95H1384.94M1384.94,890.14h-9.95M1384.94,830.47h-9.95M1384.94,830.47l0,-26.52M1601.26,794H1381.63M1432.18,668.02h-59.67M1442.13,677.97h-60.5M1352.62,678.03l0,-10.01M1362.56,668.02h-9.95M1442.13,578.74l0,-68.2M1432.18,578.74l-0,-58.25M1442.13,638.42h-9.95M1442.13,578.74h-9.95M1432.18,520.49h-59.67M1200.12,0l0,4.97M1246.53,0l0,4.97M1246.53,58.02h-46.41M1200.12,24.86l0,33.15M1179.81,24.86h20.31M1179.81,16.58l0,8.29M1176.5,16.58h3.32M1176.5,4.97h23.62M1176.5,4.97l0,11.6M1246.53,24.86l0,33.15M1266.84,16.58l0,8.29h-20.31M1270.15,16.58h-3.32M1270.15,4.97h-23.62M1270.15,4.97l0,11.6M1246.53,0h-46.41M2372.05,469.11l0,51.39M2391.95,515.52l0,-49.73M2441.67,623.68l0,-71.28M2398.58,560.28l0,20.31M2421.78,580.58l0,39.78h8.29l0,3.32h11.6M2398.58,580.58h23.21M2413.49,520.49l0,-4.97M2436.7,520.49h-23.21M2441.67,552.4h-4.97l0,-31.91M2413.49,515.52h-21.55M2391.95,465.79h-11.6M2380.34,469.11h-8.29M2380.34,465.79l0,3.32M944.84,520.49h-79.57M1601.26,913.49L1601.26,794M1644.28,1029.38l0,36.47M144.63,1347.65h-53.04l0,-4.97h-31.91l0,-23.21h-4.97l0,-84.54h11.6l0,3.32h8.29l0,61.33h38.13l0,23.21h14.5l0,4.97h14.09l0,8.29h3.32l0,11.6M48.07,1027.72h62.99l0,9.95M111.06,1047.62l0,19.89M74.59,1067.51h36.47M503.5,1445.44h15.75l0,8.29h3.32l0,11.6h-54.7l0,-4.97h-30.25l0,-23.21h-4.97l0,-94.48h-9.53l0,4.97h-37.3l0,-11.6h3.32l0,-8.29h12.02l0,-4.97h51.39l0,94.48h36.47l0,23.21h14.5l0,4.97M249.06,1352.62l0,-4.97h-11.6l0,-11.6h3.32l0,-8.29h48.9l0,8.29h3.32l0,11.6h-11.6l0,4.97h-32.32M626.99,1470.31l0,-4.97h-11.6l0,-11.6h3.32l0,-8.29h48.9l0,8.29h3.32l0,11.6h-11.6l0,4.97h-32.32M487.34,1067.51l0,9.95h-39.78M447.56,1037.67l0,-19.89h14.92M472.42,1017.78h14.92l0,39.78M0,848.29h4.97l0,-11.6h11.6l0,3.32h8.29l0,21.96M24.86,871.91l0,16.99h-8.29l0,3.32h-11.6l0,-11.6h-4.97l0,-32.32M24.86,707.39l0,-8.29h-8.29l0,-3.32h-11.6l0,11.6h-4.97l0,32.32h4.97l0,11.6h11.6l0,-3.32h8.29l0,-26.55M111.06,540.38l0,-19.89M74.59,520.49h36.47M48.07,560.28h62.99l0,-9.95M487.34,520.49l0,-9.95h-39.78l0,29.84M447.56,550.33l0,19.89h14.92M472.42,570.22h14.92l0,-39.78M142.97,240.35h-51.39l0,4.97h-31.91l0,23.21h-4.97l0,84.54h11.6l0,-3.32h8.29l0,-61.33h36.47l0,-23.21h14.5l0,-4.97h14.09l0,-8.29h3.32l0,-11.6M503.5,142.56h15.75l0,-8.29h3.32l0,-11.6h-54.7l0,4.97h-30.25l0,23.21h-4.97l0,94.48h-9.53l0,-4.97h-37.3l0,11.6h3.32l0,8.29h12.02l0,4.97h51.39l0,-94.48h36.47l0,-23.21h14.5l0,-4.97M264.39,260.25h-23.62l0,-8.29h-3.32l0,-11.6h11.6l0,-4.97h32.32l0,4.97h11.6l0,11.6h-3.32l0,8.29h-12.02M626.99,117.69l0,4.97h-11.6l0,11.6h3.32l0,8.29h48.9l0,-8.29h3.32l0,-11.6h-11.6l0,-4.97h-32.32M1790.64,1453.73l0,-4.97h-11.6l0,-11.6h3.32l0,-8.29h48.9l0,8.29h3.32l0,11.6h-11.6l0,4.97h-32.32M1083.67,1583.03l0,-11.6h-3.32l0,-8.29h-22.38l0,-4.97h-56.36l0,8.29h-3.32l0,11.6h25.69l0,4.97h59.67M879.78,1558.16h22.38l0,8.29h3.32l0,11.6h-59.67l0,-4.97h-30.25l0,-23.21h-4.97l0,-89.51h-10.36l0,4.97h-36.47l0,-11.6h3.32l0,-8.29h11.19l0,-4.97h52.22l0,89.51h34.81l0,23.21h14.5l0,4.97M1203.43,1067.51H954.79M825.49,1077.45l0,-9.95M865.28,1067.51l0,9.95h-39.78M850.36,1017.78h14.92l0,39.78M825.49,1057.56l0,-39.78h14.92M1243.22,1052.59l0,24.86h-39.78l0,-59.67h14.92M1228.3,1017.78h14.92l0,24.86M1362.98,1583.03l0,-11.6h3.32l0,-8.29h22.38l0,-4.97h56.36l0,8.29h3.32l0,11.6h-25.69l0,4.97h-59.67M1566.87,1558.16h-22.38l0,8.29h-3.32l0,11.6h59.67l0,-4.97h30.25l0,-23.21h4.97L1636.07,1443.79h10.36l0,4.97h39.78l0,-11.6h-3.32l0,-8.29h-12.02l0,-4.97h-54.7L1616.18,1529.98h-34.81l0,23.21h-14.5l0,4.97M1626.13,1072.48h-49.73l0,-19.89M1601.26,1022.75h24.86M1576.4,1042.64l0,-19.89h14.92M1626.13,1029.38l0,36.47M2398.58,1027.72h-62.99l0,39.78M2372.05,1067.51h-36.47M2305.34,1314.49h49.73l0,-4.97h31.91l0,-23.21h4.97l0,-71.28h-11.6l0,3.32h-8.29l0,48.07h-34.81l0,23.21h-14.5l0,4.97h-14.09l0,8.29h-3.32l0,11.6M2168.58,1319.47l0,-4.97h-11.6l0,-11.6h3.32l0,-8.29h48.9l0,8.29h3.32l0,11.6h-11.6l0,4.97h-32.32M1945.63,1428.87h-14.92l0,8.29h-3.32l0,11.6h51.39l0,-4.97h30.25l0,-23.21h4.97L2014.01,1309.52h10.36l0,4.97h39.78l0,-11.6h-3.32l0,-8.29h-12.02l0,-4.97h-54.7L1994.12,1400.69h-33.98l0,23.21h-14.5l0,4.97M1954.33,1022.75h49.73l0,49.73h-49.73l0,-49.73M1790.64,134.27l0,4.97h-11.6l0,11.6h3.32l0,8.29h48.9l0,-8.29h3.32l0,-11.6h-11.6l0,-4.97h-32.32M825.49,530.44l0,39.78h39.78l0,-39.78M855.33,510.55h-29.84l0,9.95M865.28,520.49l0,-9.95M1228.3,570.22h14.92l0,-49.73M1203.43,530.44l0,39.78h14.92M1243.22,510.55h-39.78l0,9.95M1576.4,565.25h49.73l0,-49.73h-49.73l0,49.73M879.78,29.84h22.38l0,-8.29h3.32l0,-11.6h-59.67l0,4.97h-30.25l0,23.21h-4.97l0,89.51h-10.36l0,-4.97h-36.47l0,11.6h3.32l0,8.29h11.19l0,4.97h52.22l0,-89.51h34.81l0,-23.21h14.5l0,-4.97M1083.67,4.97l0,11.6h-3.32l0,8.29h-22.38l0,4.97h-56.36l0,-8.29h-3.32l0,-11.6h25.69l0,-4.97h59.67M1566.87,29.84h-22.38l0,-8.29h-3.32l0,-11.6h59.67l0,4.97h30.25l0,23.21h4.97L1636.07,144.21h10.36l0,-4.97h39.78l0,11.6h-3.32l0,8.29h-12.02l0,4.97h-54.7L1616.18,58.02h-34.81l0,-23.21h-14.5l0,-4.97M1362.98,4.97l0,11.6h3.32l0,8.29h22.38l0,4.97h56.36l0,-8.29h3.32l0,-11.6h-25.69l0,-4.97h-59.67M2305.34,273.51h49.73l0,4.97h31.91l0,23.21h4.97l0,71.28h-11.6l0,-3.32h-8.29l0,-48.07h-34.81l0,-23.21h-14.5l0,-4.97h-14.09l0,-8.29h-3.32l0,-11.6M2398.58,560.28h-62.99l0,-39.78M2372.05,520.49h-36.47M1954.33,565.25h49.73l0,-49.73h-49.73l0,49.73M2441.67,867.35l0,11.6h-11.6l0,-3.32h-8.29l0,-35.64h8.29l0,-3.32h11.6l0,11.6h4.97l0,19.06h-4.97M2441.67,720.65l0,-11.6h-11.6l0,3.32h-8.29l0,35.64h8.29l0,3.32h11.6l0,-11.6h4.97l0,-19.06h-4.97M1945.63,159.13h-14.92l0,-8.29h-3.32l0,-11.6h51.39l0,4.97h30.25l0,23.21h4.97L2014.01,278.48h10.36l0,-4.97h39.78l0,11.6h-3.32l0,8.29h-12.02l0,4.97h-54.7L1994.12,187.31h-33.98l0,-23.21h-14.5l0,-4.97M2168.58,268.53l0,4.97h-11.6l0,11.6h3.32l0,8.29h48.9l0,-8.29h3.32l0,-11.6h-11.6l0,-4.97h-32.32" style="stroke-linejoin: round;"></path>
</g>
</g>
<g id="layer_RM_" class="layer_RM_" cvjs:layername="RM_" cvjs:plottable="YES" cvjs:status="ON" visibility="visible" display="inline">
<g id="cvclr_47" stroke="#007CA5" fill="none">
<path id="cv_48" class=" ZW" d="M326.55,1047.62H111.06v19.89h-36.47V1322.78h52.63v4.97H326.55V1047.62" style="stroke-linejoin: round;"></path>
<path id="cv_49" class=" ZW" d="M450.87,1203.43V1322.78h1.66V1440.47h50.97v4.97H778.25v-4.97h53.87V1203.43H450.87" style="stroke-linejoin: round;"></path>
<path id="cv_50" class=" ZW" d="M1014.46,1203.43H832.13V1365.88H1014.46V1203.43" style="stroke-linejoin: round;"></path>
<path id="cv_51" class=" ZW" d="M832.13,1365.88V1528.33H1014.46V1365.88H832.13" style="stroke-linejoin: round;"></path>
<path id="cv_52" class=" ZW" d="M1299.57,1203.43H1117.24V1365.88H1299.57V1203.43" style="stroke-linejoin: round;"></path>
<path id="cv_53" class=" ZW" d="M1299.57,1365.88H1117.24V1528.33H1299.57V1365.88" style="stroke-linejoin: round;"></path>
<path id="cv_54" class=" ZW" d="M1481.91,1365.88H1299.57V1528.33H1481.91V1365.88" style="stroke-linejoin: round;"></path>
<path id="cv_55" class=" ZW" d="M1481.91,1203.43H1299.57V1365.88H1481.91V1203.43" style="stroke-linejoin: round;"></path>
<path id="cv_56" class=" ZW" d="M1932.78,891.8V729.35H1750.45V891.8H1932.78" style="stroke-linejoin: round;"></path>
<path id="cv_57" class=" ZW" d="M1932.78,566.91H1750.45V729.35H1932.78V566.91" style="stroke-linejoin: round;"></path>
<path id="cv_58" class=" ZW" d="M1932.78,729.35H2115.12V566.91H1932.78V729.35" style="stroke-linejoin: round;"></path>
<path id="cv_59" class=" ZW" d="M1932.78,891.8H2115.12V729.35H1932.78V891.8" style="stroke-linejoin: round;"></path>
<path id="cv_60" class=" ZW" d="M1995.77,1024.41H1833.33V1168.6H1995.77V1024.41" style="stroke-linejoin: round;"></path>
<path id="cv_61" class=" ZW" d="M1995.77,1289.63V1168.6H1617.84V1423.9h53.04v4.97H1945.63v-4.97h48.49V1289.63h1.66" style="stroke-linejoin: round;"></path>
<path id="cv_62" class=" ZW" d="M2372.05,1029.38H2081.97v-4.97h-86.2V1289.63h53.04v4.97H2322.74v-4.97h49.31V1029.38" style="stroke-linejoin: round;"></path>
<path id="cv_63" class=" ZW" d="M2207.21,795.66V1029.38H2372.05v-1.66h26.52v-20.31h23.21V795.66H2207.21" style="stroke-linejoin: round;"></path>
<path id="cv_64" class=" ZW" d="M2207.21,795.66H2421.78V580.58h-23.21v-20.31h-26.52v-1.66H2207.21V795.66" style="stroke-linejoin: round;"></path>
<path id="cv_65" class=" ZW" d="M2048.82,293.4v4.97h-53.04V566.91H2115.12v-8.29H2372.05V298.37h-49.31v-4.97H2048.82" style="stroke-linejoin: round;"></path>
<path id="cv_66" class=" ZW" d="M1995.77,389.51v-91.14h-1.66V164.1h-48.49v-4.97H1670.88v4.97h-53.04V389.51H1995.77" style="stroke-linejoin: round;"></path>
<path id="cv_67" class=" ZW" d="M1481.91,384.57V222.12H1299.57V384.57H1481.91" style="stroke-linejoin: round;"></path>
<path id="cv_68" class=" ZW" d="M1299.57,384.57V222.12H1117.24V384.57H1299.57" style="stroke-linejoin: round;"></path>
<path id="cv_69" class=" ZW" d="M1117.24,222.12H1299.57V59.67H1117.24V222.12" style="stroke-linejoin: round;"></path>
<path id="cv_70" class=" ZW" d="M1014.46,384.57V222.12H832.13V384.57H1014.46" style="stroke-linejoin: round;"></path>
<path id="cv_71" class=" ZW" d="M1014.46,222.12V59.67H832.13V222.12H1014.46" style="stroke-linejoin: round;"></path>
<path id="cv_72" class=" ZW" d="M601.89,384.57H832.13V147.53h-53.87v-4.97H601.89V384.57" style="stroke-linejoin: round;"></path>
<path id="cv_73" class=" ZW" d="M601.89,142.56h-98.38v4.97h-50.97V265.22h-9.78V384.57H601.89V142.56" style="stroke-linejoin: round;"></path>
<path id="cv_74" class=" ZW" d="M1299.57,222.12H1481.91V59.67H1299.57V222.12" style="stroke-linejoin: round;"></path>
<path id="cv_75" class=" ZW" d="M1362.56,677.97V510.55h79.57V677.97h-79.57" style="stroke-linejoin: round;"></path>
<path id="cv_76" class=" ZW" d="M954.79,1067.51H616.63v37.3H855.33v9.95h99.46v-47.24" style="stroke-linejoin: round;"></path>
<path id="cv_77" class=" ZW" d="M1362.56,510.55H1243.22v59.67h-14.92V677.97H1362.56V510.55" style="stroke-linejoin: round;"></path>
<path id="cv_78" class=" ZW" d="M462.48,570.22h-14.92v-29.84h-39.78V677.97h54.7V570.22" style="stroke-linejoin: round;"></path>
<path id="cv_79" class=" ZW" d="M328.21,823.84h-66.3V963.08h66.3V823.84" style="stroke-linejoin: round;"></path>
<path id="cv_80" class=" ZW" d="M261.9,866.94H24.86V1007.42h23.21v20.31h26.52v39.78h36.47v-19.89H328.21v-84.54h-66.3v-96.14" style="stroke-linejoin: round;"></path>
<path id="cv_81" class=" ZW" d="M328.21,644.81H94.47l-69.61,69.61V866.94H261.9v-43.1h66.3V644.81" style="stroke-linejoin: round;"></path>
<path id="cv_82" class=" ZW" d="M328.21,540.38h-50.56v9.95H111.06v9.95h-62.99v20.31h-23.21V714.42l69.61,-69.61H328.21V540.38" style="stroke-linejoin: round;"></path>
<path id="cv_83" class=" ZW" d="M277.65,260.25H125.56v4.97h-50.97V560.28h36.47v-9.95H277.65v-9.95V260.25" style="stroke-linejoin: round;"></path>
<path id="cv_84" class=" ZW" d="M1378.31,677.97H407.77V540.38h-79.57V1047.62h79.57V910.03H1256.48v3.32H1375V794h3.32V677.97M656.42,677.97V520.49H487.34v-9.95h-39.78v59.67h14.92V677.97H656.42M845.39,677.97V570.22h19.89v-59.67h-39.78v9.95H656.42V677.97H845.39M1034.35,677.97V520.49H865.28v49.73h-19.89V677.97H1034.35M1228.3,677.97V570.22h14.92v-59.67h-39.78v9.95H1034.35V677.97H1228.3M1034.35,1067.51V910.03H1256.48V1052.59h-13.26v24.86h-39.78v-9.95H1034.35M845.39,910.03H1034.35V1067.51H845.39V910.03M656.42,910.03H845.39V1067.51H656.42V910.03M462.48,910.03V1017.78h24.86v49.73H656.42V910.03H462.48" style="stroke-linejoin: round;"></path>
<path id="cv_85" class=" ZW" d="M954.79,467.45h-99.46v43.1h9.95v9.95h89.51v-53.04" style="stroke-linejoin: round;"></path>
<path id="cv_86" class=" ZW" d="M1601.26,913.49V794H1375V1052.59H1576.4v19.89h46.41v-49.73h-21.55V913.49" style="stroke-linejoin: round;"></path>
<path id="cv_87" class=" ZW" d="M1650.91,913.49h-49.65V1022.75h21.55v6.63h28.1V913.49" style="stroke-linejoin: round;"></path>
<path id="cv_88" class=" ZW" d="M487.34,1017.78h-24.86V910.03h-54.7V1047.62h39.78v29.84h39.78v-9.95v-49.73" style="stroke-linejoin: round;"></path>
</g>
</g>
<g id="layer_GROS_24_" class="layer_GROS_24_" cvjs:layername="GROS$" cvjs:plottable="YES" cvjs:status="ON" visibility="visible" display="inline">
<g id="cvclr_89" stroke="#FF3F00" fill="none">
<path id="cv_90" class=" ZW" d="M91.58,240.35v4.97h-31.91v23.21h-4.97V515.52h-21.55v4.97h-23.21v31.91h-4.97V707.39h-4.97v32.32h4.97V848.29h-4.97v32.32h4.97V1035.6h4.97v31.91h23.21v4.97h21.55V1319.47h4.97v23.21h31.91v4.97H249.06v4.97h32.32v-4.97H423.11v-4.97h9.53v94.48h4.97v23.21h30.25v4.97H626.99v4.97h32.32v-4.97H800.22v-4.97h10.36v89.51h4.97v23.21h30.25v4.97H1023.99v4.97H1200.12v4.97h46.41v-4.97H1422.65v-4.97H1600.85v-4.97h30.25v-23.21h4.97V1443.79h10.36v4.97H1790.64v4.97h32.32v-4.97H1978.78v-4.97h30.25v-23.21h4.97V1309.52h10.36v4.97H2168.58v4.97h32.32v-4.97H2355.06v-4.97h31.91v-23.21h4.97V1072.48h21.55v-4.97h23.21v-31.91h4.97V867.35h4.97v-19.06h-4.97V739.71h4.97v-19.06h-4.97V552.4h-4.97v-31.91h-23.21v-4.97h-21.55V301.69h-4.97v-23.21h-31.91v-4.97H2200.91v-4.97h-32.32v4.97H2024.37v4.97h-10.36V167.42h-4.97v-23.21h-30.25v-4.97H1822.97v-4.97h-32.32v4.97H1646.43v4.97h-10.36V38.13h-4.97v-23.21h-30.25v-4.97H1422.65v-4.97H1246.53v-4.97h-46.41v4.97H1023.99v4.97H845.8v4.97h-30.25v23.21h-4.97v89.51h-10.36v-4.97H659.32v-4.97h-32.32v4.97H467.86v4.97h-30.25v23.21h-4.97v94.48h-9.53v-4.97H281.38v-4.97h-32.32v4.97H91.58" style="stroke-linejoin: round;"></path>
<path id="cv_91" class=" ZW" d="M830.47,147.53h-52.22v-4.97H503.5v4.97h-50.97V265.22h-51.39v-4.97H125.56v4.97h-50.97V560.28h-26.52v20.31h-23.21V1007.42h23.21v20.31h26.52V1322.78h52.63v4.97H401.14v-4.97h51.39V1440.47h50.97v4.97H778.25v-4.97h52.22V1553.19h49.31v4.97H1057.98v4.97H1388.67v-4.97H1566.87v-4.97h49.31V1423.9h54.7v4.97H1945.63v-4.97h48.49V1289.63h54.7v4.97H2322.74v-4.97h49.31V1027.72h26.52v-20.31h23.21V580.58h-23.21v-20.31h-26.52V298.37h-49.31v-4.97H2048.82v4.97h-54.7V164.1h-48.49v-4.97H1670.88v4.97h-54.7V34.81h-49.31v-4.97H1388.67v-4.97H1057.98v4.97H879.78v4.97h-49.31V147.53" style="stroke-linejoin: round;"></path>
</g>
</g>
<g id="layer_PL_2D_MISC" class="layer_PL_2D_MISC" cvjs:layername="PL-MISC" cvjs:plottable="YES" cvjs:status="ON" visibility="visible" display="inline">
<g id="cvclr_92" stroke="#29A500" fill="none">
<path id="cv_93" class="ZW" d="M626.58,1074.97L825.49,1094.86M626.58,1094.86L825.49,1074.97M462.48,919.98l-44.76,97.8M417.72,919.98l44.76,97.8M653.1,919.98L653.1,1057.56M659.73,919.98L659.73,1057.56M653.1,668.02L653.1,530.44M659.73,668.02L659.73,530.44M318.26,833.78L271.85,953.13M271.85,833.78L318.26,953.13M1031.04,919.98L1031.04,1057.56M1037.67,919.98L1037.67,1057.56M1601.26,920.12L1644.28,1022.75M1601.26,1022.75L1644.28,920.12M865.28,1074.97l79.57,29.84M865.28,1104.8l79.57,-29.84M1031.04,668.02L1031.04,530.44M1037.67,668.02L1037.67,530.44M865.28,477.39l79.57,29.84M865.28,507.23l79.57,-29.84M865.28,507.23h79.57M447.56,1017.78h-29.84M865.28,1077.45l0,17.41M825.49,1077.45l0,17.41" style="stroke-linejoin: round;"></path>
</g>
</g>
<g id="layer_PL_2D_TOIL" class="layer_PL_2D_TOIL" cvjs:layername="PL-TOIL" cvjs:plottable="YES" cvjs:status="ON" visibility="visible" display="inline">
<g id="cvclr_94" stroke="#29A500" fill="none">
<path id="cv_95" class="ZW" d="M155.82,959.76l0,3.32M164.1,959.76l0,3.32M203.89,959.76l0,3.32M217.15,959.76l0,3.32M256.93,959.76l0,3.32M226.74,1010.65l35.16,-35.16M164.1,963.08h-8.29M217.15,963.08h-13.26M261.9,1025.21l0,12.46M265.22,1025.21l0,12.46M261.9,1025.21h3.32M261.9,963.08h-4.97M265.22,963.08l0,12.41M261.9,963.08l0,12.41h3.32M106.09,861.96l0,-87.03M102.77,861.96l0,-87.03M159.13,861.96l0,-87.03M155.82,861.96l0,-87.03M208.86,861.96l0,-87.03M212.18,861.96l0,-87.03M159.13,958.93l0,-87.03M155.82,958.93l0,-87.03M208.86,958.93l0,-87.03M212.18,958.93l0,-87.03M164.1,959.76h-8.29M155.82,958.93h3.32M217.15,959.76h-13.26M212.18,958.93h-3.32M111.06,774.11h-8.29M111.06,770.79h-8.29M111.06,774.11l0,-3.32M102.77,770.79l0,3.32M106.09,774.94h-3.32M164.1,774.11h-13.26M164.1,770.79h-13.26M150.84,774.11l0,-3.32M159.13,774.94h-3.32M164.1,774.11l0,-3.32M217.15,770.79h-13.26M217.15,774.11h-13.26M217.15,774.11l0,-3.32M203.89,774.11l0,-3.32M212.18,774.94h-3.32M261.9,823.84l0,-49.73M265.22,823.84l0,-49.73M261.9,959.76h-4.97M261.9,724.38l0,-74.59M265.22,724.38l0,-74.59M265.22,764.16h-3.32M261.9,770.79h-4.97M261.9,774.11h-4.97M265.22,770.79l0,-6.63M261.9,770.79l0,-6.63M271.85,770.79h-6.63M271.85,774.11h-6.63M265.22,764.16h-3.32M271.85,770.79l0,3.32M256.93,774.11l0,-3.32M265.22,724.38h-3.32M318.26,774.11h-6.63M318.26,770.79h-6.63M311.63,774.11l0,-3.32M96.53,649.79l-71.67,71.67M261.9,959.76L261.9,774.11M1576.77,1042.76H1385.24M1385.01,1042.2L1385.01,890.14M1591.13,804.04L1591.13,1022.82M1385.01,804.04H1591.13M1385.01,830.47l0,-26.43M96.53,649.79H261.9" style="stroke-linejoin: round;"></path>
<path id="cv_96" class="ZW" d="M226.74,1010.64A 49.728601 49.728601 0 0 0 261.9 1025.21" style="stroke-linejoin: round;"></path>
</g>
<g class="SINK" id="cv_Block_SINK_1">
<g id="cvclr_97" stroke="#29A500" fill="none">
<path id="cv_98" class="ZW" d="M101.36,871.91l0,31.63M103.18,905.37h43.85M148.85,903.54l0,-31.63h-47.49M109.35,901.15h31.51M144.63,897.37l0,-13.76M105.58,883.61l0,13.76M140.86,879.84h-14.48M123.72,877.02l0,10.47h2.66l0,-10.47h-2.66M123.72,879.84h-14.37" style="stroke-linejoin: round;"></path>
<path id="cv_99" class="ZW" d="M109.35,879.84A 3.772713 3.772713 0 0 0 105.58 883.61M105.58,897.37A 3.772713 3.772713 0 0 0 109.35 901.15M140.86,901.15A 3.772713 3.772713 0 0 0 144.63 897.37M144.63,883.61A 3.772713 3.772713 0 0 0 140.86 879.84M101.36,903.54A 1.823382 1.823382 0 0 0 103.18 905.37M147.03,905.37A 1.823382 1.823382 0 0 0 148.85 903.54" style="stroke-linejoin: round;"></path>
<circle id="cv_100" class="ZW" cx="118.3" cy="876.25" r="2.448921"></circle>
<circle id="cv_101" class="ZW" cx="131.8" cy="876.25" r="2.448921"></circle>
</g>
</g>
<g class="SINK" id="cv_Block_SINK_2">
<g id="cvclr_102" stroke="#29A500" fill="none">
<path id="cv_103" class="ZW" d="M44.71,871.91l0,31.63M46.53,905.37h43.85M92.2,903.54l0,-31.63h-47.49M52.7,901.15h31.51M87.98,897.37l0,-13.76M48.93,883.61l0,13.76M84.21,879.84h-14.48M67.07,877.02l0,10.47h2.66l0,-10.47h-2.66M67.07,879.84h-14.37" style="stroke-linejoin: round;"></path>
<path id="cv_104" class="ZW" d="M52.7,879.84A 3.772713 3.772713 0 0 0 48.93 883.61M48.93,897.37A 3.772713 3.772713 0 0 0 52.7 901.15M84.21,901.15A 3.772713 3.772713 0 0 0 87.98 897.37M87.98,883.61A 3.772713 3.772713 0 0 0 84.21 879.84M44.71,903.54A 1.823382 1.823382 0 0 0 46.53 905.37M90.38,905.37A 1.823382 1.823382 0 0 0 92.2 903.54" style="stroke-linejoin: round;"></path>
<circle id="cv_105" class="ZW" cx="61.65" cy="876.25" r="2.448921"></circle>
<circle id="cv_106" class="ZW" cx="75.16" cy="876.25" r="2.448921"></circle>
</g>
</g>
<g class="SINK" id="cv_Block_SINK_3">
<g id="cvclr_107" stroke="#29A500" fill="none">
<path id="cv_108" class="ZW" d="M44.71,861.96l0,-31.63M46.53,828.51h43.85M92.2,830.33l0,31.63h-47.49M52.7,832.73h31.51M87.98,836.5l0,13.76M48.93,850.26l0,-13.76M84.21,854.03h-14.48M67.07,856.85l0,-10.47h2.66l0,10.47h-2.66M67.07,854.03h-14.37" style="stroke-linejoin: round;"></path>
<path id="cv_109" class="ZW" d="M48.93,850.26A 3.772713 3.772713 0 0 0 52.7 854.03M52.7,832.73A 3.772713 3.772713 0 0 0 48.93 836.5M87.98,836.5A 3.772713 3.772713 0 0 0 84.21 832.73M84.21,854.03A 3.772713 3.772713 0 0 0 87.98 850.26M46.53,828.51A 1.823382 1.823382 0 0 0 44.71 830.33M92.2,830.33A 1.823382 1.823382 0 0 0 90.38 828.51" style="stroke-linejoin: round;"></path>
<circle id="cv_110" class="ZW" cx="61.65" cy="857.62" r="2.448921"></circle>
<circle id="cv_111" class="ZW" cx="75.16" cy="857.62" r="2.448921"></circle>
</g>
</g>
<g class="SINK" id="cv_Block_SINK_4">
<g id="cvclr_112" stroke="#29A500" fill="none">
<path id="cv_113" class="ZW" d="M164.19,653.1l0,31.63M162.37,686.56h-43.85M116.7,684.74l0,-31.63h47.49M156.2,682.34h-31.51M120.92,678.57l0,-13.76M159.97,664.8l0,13.76M124.69,661.03h14.48M141.83,658.21l0,10.47h-2.66l0,-10.47h2.66M141.83,661.03h14.37" style="stroke-linejoin: round;"></path>
<path id="cv_114" class="ZW" d="M159.97,664.81A 3.772713 3.772713 0 0 0 156.2 661.03M156.2,682.34A 3.772713 3.772713 0 0 0 159.97 678.57M120.92,678.57A 3.772713 3.772713 0 0 0 124.69 682.34M124.69,661.03A 3.772713 3.772713 0 0 0 120.92 664.8M162.37,686.56A 1.823382 1.823382 0 0 0 164.19 684.74M116.7,684.74A 1.823382 1.823382 0 0 0 118.52 686.56" style="stroke-linejoin: round;"></path>
<circle id="cv_115" class="ZW" cx="147.25" cy="657.44" r="2.448921"></circle>
<circle id="cv_116" class="ZW" cx="133.75" cy="657.44" r="2.448921"></circle>
</g>
</g>
<g class="WC_2D_DOOR" id="cv_Block_WC_2D_DOOR_5">
<g id="cvclr_117" stroke="#29A500" fill="none">
<path id="cv_118" class="ZW" d="M256.93,774.11l-28.13,28.13" style="stroke-linejoin: round;"></path>
<path id="cv_119" class="ZW" d="M217.15,774.11A 39.782881 39.782881 0 0 0 228.8 802.24" style="stroke-linejoin: round;"></path>
</g>
</g>
<g class="TOILET" id="cv_Block_TOILET_6">
<g id="cvclr_120" stroke="#29A500" fill="none">
<path id="cv_121" class="ZW" d="M248.64,871.91h-23.21M248.64,871.91l-4.14,7.46M225.44,871.91l4.14,7.46" style="stroke-linejoin: round;"></path>
<path id="cv_122" class="ZW" d="M244.5,879.37A 8.533121 8.533121 0 0 0 244.5 887.66M244.5,910.86A 18.316701 18.316701 0 0 0 244.5 887.66M229.58,910.86A 8.785386 8.785386 0 0 0 244.5 910.86M229.58,887.65A 18.316701 18.316701 0 0 0 229.58 910.86M229.58,887.66A 8.533121 8.533121 0 0 0 229.58 879.37" style="stroke-linejoin: round;"></path>
<circle id="cv_123" class="ZW" cx="237.04" cy="875.22" r="1.657620"></circle>
</g>
</g>
<g class="TOILET" id="cv_Block_TOILET_7">
<g id="cvclr_124" stroke="#29A500" fill="none">
<path id="cv_125" class="ZW" d="M248.64,861.96h-23.21M248.64,861.96l-4.14,-7.46M225.44,861.96l4.14,-7.46" style="stroke-linejoin: round;"></path>
<path id="cv_126" class="ZW" d="M244.5,846.21A 8.533121 8.533121 0 0 0 244.5 854.5M244.5,846.22A 18.316701 18.316701 0 0 0 244.5 823.01M244.5,823.01A 8.785386 8.785386 0 0 0 229.58 823.01M229.58,823.01A 18.316701 18.316701 0 0 0 229.58 846.21M229.58,854.5A 8.533121 8.533121 0 0 0 229.58 846.22" style="stroke-linejoin: round;"></path>
<circle id="cv_127" class="ZW" cx="237.04" cy="858.65" r="1.657620"></circle>
</g>
</g>
<g class="WC_2D_DOOR" id="cv_Block_WC_2D_DOOR_8">
<g id="cvclr_128" stroke="#29A500" fill="none">
<path id="cv_129" class="ZW" d="M256.93,959.76l-28.13,-28.13" style="stroke-linejoin: round;"></path>
<path id="cv_130" class="ZW" d="M228.8,931.63A 39.782881 39.782881 0 0 0 217.15 959.76" style="stroke-linejoin: round;"></path>
</g>
</g>
<g class="URINAL" id="cv_Block_URINAL_9">
<g id="cvclr_131" stroke="#29A500" fill="none">
<path id="cv_132" class="ZW" d="M222.48,653.1h29.84M222.48,664.71l0,-11.6M225.8,663.05l0,1.66M234.92,672.16l-6.63,-9.12M246.52,663.05l-6.63,9.12M249,664.71l0,-1.66M252.32,653.1l0,11.6M247.35,662.22h-19.89" style="stroke-linejoin: round;"></path>
<path id="cv_133" class="ZW" d="M222.48,664.71A 1.657620 1.657620 0 1 0 225.8 664.71M228.28,663.05A 1.310463 1.310463 0 0 0 225.8 663.05M234.91,672.16A 4.144050 4.144050 0 0 0 239.89 672.17M249,663.05A 1.310463 1.310463 0 0 0 246.52 663.05M249,664.71A 1.657620 1.657620 0 1 0 252.32 664.71" style="stroke-linejoin: round;"></path>
<circle id="cv_134" class="ZW" cx="237.4" cy="656.42" r="1.657620"></circle>
</g>
</g>
<g class="WC_2D_DOOR" id="cv_Block_WC_2D_DOOR_10">
<g id="cvclr_135" stroke="#29A500" fill="none">
<path id="cv_136" class="ZW" d="M261.9,764.16l-28.13,-28.13" style="stroke-linejoin: round;"></path>
<path id="cv_137" class="ZW" d="M261.91,724.38A 39.782881 39.782881 0 0 0 233.77 736.03" style="stroke-linejoin: round;"></path>
</g>
</g>
<g class="WC_2D_DOOR" id="cv_Block_WC_2D_DOOR_11">
<g id="cvclr_138" stroke="#29A500" fill="none">
<path id="cv_139" class="ZW" d="M203.89,774.11l-28.13,28.13" style="stroke-linejoin: round;"></path>
<path id="cv_140" class="ZW" d="M164.1,774.11A 39.782881 39.782881 0 0 0 175.75 802.24" style="stroke-linejoin: round;"></path>
</g>
</g>
<g class="WC_2D_DOOR" id="cv_Block_WC_2D_DOOR_12">
<g id="cvclr_141" stroke="#29A500" fill="none">
<path id="cv_142" class="ZW" d="M150.84,774.11l-28.13,28.13" style="stroke-linejoin: round;"></path>
<path id="cv_143" class="ZW" d="M111.06,774.11A 39.782881 39.782881 0 0 0 122.71 802.24" style="stroke-linejoin: round;"></path>
</g>
</g>
<g class="TOILET" id="cv_Block_TOILET_13">
<g id="cvclr_144" stroke="#29A500" fill="none">
<path id="cv_145" class="ZW" d="M195.6,871.91h-23.21M195.6,871.91l-4.14,7.46M172.39,871.91l4.14,7.46" style="stroke-linejoin: round;"></path>
<path id="cv_146" class="ZW" d="M191.46,879.37A 8.533121 8.533121 0 0 0 191.45 887.66M191.46,910.86A 18.316701 18.316701 0 0 0 191.46 887.66M176.54,910.86A 8.785386 8.785386 0 0 0 191.45 910.86M176.54,887.65A 18.316701 18.316701 0 0 0 176.54 910.86M176.54,887.66A 8.533121 8.533121 0 0 0 176.54 879.37" style="stroke-linejoin: round;"></path>
<circle id="cv_147" class="ZW" cx="184" cy="875.22" r="1.657620"></circle>
</g>
</g>
<g class="WC_2D_DOOR" id="cv_Block_WC_2D_DOOR_14">
<g id="cvclr_148" stroke="#29A500" fill="none">
<path id="cv_149" class="ZW" d="M203.89,959.76l-28.13,-28.13" style="stroke-linejoin: round;"></path>
<path id="cv_150" class="ZW" d="M175.76,931.63A 39.782881 39.782881 0 0 0 164.1 959.76" style="stroke-linejoin: round;"></path>
</g>
</g>
<g class="TOILET" id="cv_Block_TOILET_15">
<g id="cvclr_151" stroke="#29A500" fill="none">
<path id="cv_152" class="ZW" d="M142.56,861.96h-23.21M142.56,861.96l-4.14,-7.46M119.35,861.96l4.14,-7.46" style="stroke-linejoin: round;"></path>
<path id="cv_153" class="ZW" d="M138.41,846.21A 8.533121 8.533121 0 0 0 138.41 854.5M138.41,846.22A 18.316701 18.316701 0 0 0 138.41 823.01M138.41,823.01A 8.785386 8.785386 0 0 0 123.49 823.01M123.49,823.01A 18.316701 18.316701 0 0 0 123.49 846.21M123.49,854.5A 8.533121 8.533121 0 0 0 123.49 846.22" style="stroke-linejoin: round;"></path>
<circle id="cv_154" class="ZW" cx="130.95" cy="858.65" r="1.657620"></circle>
</g>
</g>
<g class="TOILET" id="cv_Block_TOILET_16">
<g id="cvclr_155" stroke="#29A500" fill="none">
<path id="cv_156" class="ZW" d="M195.6,861.96h-23.21M195.6,861.96l-4.14,-7.46M172.39,861.96l4.14,-7.46" style="stroke-linejoin: round;"></path>
<path id="cv_157" class="ZW" d="M191.46,846.21A 8.533121 8.533121 0 0 0 191.45 854.5M191.45,846.22A 18.316701 18.316701 0 0 0 191.46 823.01M191.46,823.01A 8.785386 8.785386 0 0 0 176.54 823.01M176.54,823.01A 18.316701 18.316701 0 0 0 176.54 846.21M176.54,854.5A 8.533121 8.533121 0 0 0 176.54 846.22" style="stroke-linejoin: round;"></path>
<circle id="cv_158" class="ZW" cx="184" cy="858.65" r="1.657620"></circle>
</g>
</g>
<g class="URINAL" id="cv_Block_URINAL_17">
<g id="cvclr_159" stroke="#29A500" fill="none">
<path id="cv_160" class="ZW" d="M184.12,653.1h29.84M184.12,664.71l0,-11.6M187.43,663.05l0,1.66M196.55,672.16l-6.63,-9.12M208.15,663.05l-6.63,9.12M210.64,664.71l0,-1.66M213.96,653.1l0,11.6M208.98,662.22h-19.89" style="stroke-linejoin: round;"></path>
<path id="cv_161" class="ZW" d="M184.12,664.71A 1.657620 1.657620 0 1 0 187.43 664.71M189.92,663.05A 1.310463 1.310463 0 0 0 187.43 663.05M196.55,672.16A 4.144050 4.144050 0 0 0 201.52 672.17M210.64,663.05A 1.310463 1.310463 0 0 0 208.15 663.05M210.64,664.71A 1.657620 1.657620 0 1 0 213.96 664.71" style="stroke-linejoin: round;"></path>
<circle id="cv_162" class="ZW" cx="199.04" cy="656.42" r="1.657620"></circle>
</g>
</g>
<g class="WC_2D_DOOR" id="cv_Block_WC_2D_DOOR_18">
<g id="cvclr_163" stroke="#29A500" fill="none">
<path id="cv_164" class="ZW" d="M271.85,770.79l28.13,-28.13" style="stroke-linejoin: round;"></path>
<path id="cv_165" class="ZW" d="M311.63,770.8A 39.782881 39.782881 0 0 0 299.98 742.67" style="stroke-linejoin: round;"></path>
</g>
</g>
</g>
<g id="layer_DR" class="layer_DR" cvjs:layername="DR" cvjs:plottable="YES" cvjs:status="ON" visibility="visible" display="inline">
<g id="cvclr_166" stroke="#FF7F00" fill="none">
<path id="cv_167" class="ZW" d="M283.1,1010.65l35.16,-35.16M212.25,498.19l42.2,42.2M283.1,698.21l35.16,-35.16M365.58,602.47l42.2,-42.2M276.07,582.73l42.2,42.2M1332.8,847.95l42.2,42.2M1310.42,720.16l42.2,-42.2M1484.35,620.8l-42.2,-42.2" style="stroke-linejoin: round;"></path>
<path id="cv_168" class="ZW" d="M283.1,1010.64A 49.728601 49.728601 0 0 0 318.26 1025.21M212.25,498.19A 59.674321 59.674321 0 0 0 194.77 540.38M283.1,698.21A 49.728601 49.728601 0 0 0 318.26 712.78M365.58,602.47A 59.674321 59.674321 0 0 0 407.77 619.95M318.26,565.25A 59.674321 59.674321 0 0 0 276.07 582.72M1375,830.47A 59.674321 59.674321 0 0 0 1332.8 847.94M1292.94,677.96A 59.674321 59.674321 0 0 0 1310.42 720.16M1442.15,638.27A 59.674321 59.674321 0 0 0 1484.35 620.8" style="stroke-linejoin: round;"></path>
</g>
<g class="90S2" id="cv_Block_90S2_19">
<g id="cvclr_169" stroke="#FF7F00" fill="none">
<path id="cv_170" class=" ZW" d="M338.15,1047.62l0.03,1.87l0.09,1.87l0.15,1.87l0.21,1.86l0.26,1.85l0.32,1.84l0.38,1.83l0.44,1.82l0.49,1.81l0.55,1.79l0.61,1.77l0.66,1.75l0.72,1.73l0.77,1.71l0.82,1.68l0.88,1.66l0.93,1.63l0.98,1.6l1.24,1.88l1.31,1.83l1.38,1.78l1.44,1.72l1.51,1.67l1.57,1.61l1.63,1.55l1.68,1.49l1.74,1.42l1.79,1.36l1.84,1.29l1.89,1.22l1.61,0.96l1.64,0.91l1.66,0.86l1.69,0.8l1.72,0.75l1.74,0.7l1.76,0.64l1.78,0.59l1.8,0.53l1.81,0.47l1.83,0.42l1.84,0.36l1.85,0.3l1.86,0.24l1.86,0.18l1.87,0.13l1.87,0.07h1.87l0.75,-0.01h0.37" style="stroke-linejoin: round;"></path>
<path id="cv_171" class="ZW" d="M397.83,1047.62l0,59.67M395.96,1047.62l0,59.56M397.83,1047.62h-1.86" style="stroke-linejoin: round;"></path>
</g>
</g>
<g class="DR_2D_S90" id="cv_Block_DR_2D_S90_20">
<g id="cvclr_172" stroke="#FF7F00" fill="none">
<path id="cv_173" class=" ZW" d="M387.14,540.38l-0.03,-1.81l-0.1,-1.81l-0.17,-1.8l-0.24,-1.8l-0.31,-1.79l-0.37,-1.77l-0.44,-1.76l-0.5,-1.74l-0.57,-1.72l-0.63,-1.7l-0.7,-1.67l-0.76,-1.65l-0.82,-1.62l-1.03,-1.85l-1.11,-1.8l-1.19,-1.75l-1.27,-1.69l-1.34,-1.64l-1.62,-1.8l-1.71,-1.71l-1.79,-1.63l-1.63,-1.35l-1.69,-1.27l-1.74,-1.2l-1.79,-1.12l-1.84,-1.04l-1.61,-0.83l-1.64,-0.77l-1.67,-0.7l-1.7,-0.64l-1.72,-0.58l-1.74,-0.51l-1.76,-0.45l-1.77,-0.38l-1.79,-0.31l-1.8,-0.25l-1.8,-0.18l-1.21,-0.08l-0.3,-0.02" style="stroke-linejoin: round;"></path>
<path id="cv_174" class="ZW" d="M341.25,492.15l0,48h-2.34l0,-48h2.34" style="stroke-linejoin: round;"></path>
</g>
</g>
<g class="90S2" id="cv_Block_90S2_21">
<g id="cvclr_175" stroke="#FF7F00" fill="none">
<path id="cv_176" class=" ZW" d="M1292.12,916.66l0.03,1.87l0.09,1.87l0.15,1.87l0.21,1.86l0.26,1.85l0.32,1.84l0.38,1.83l0.44,1.82l0.49,1.81l0.55,1.79l0.61,1.77l0.66,1.75l0.72,1.73l0.77,1.71l0.82,1.68l0.88,1.66l0.93,1.63l0.98,1.6l1.24,1.88l1.31,1.83l1.38,1.78l1.44,1.72l1.51,1.67l1.57,1.61l1.63,1.55l1.68,1.49l1.74,1.42l1.79,1.36l1.84,1.29l1.89,1.22l1.61,0.96l1.64,0.91l1.66,0.86l1.69,0.8l1.72,0.75l1.74,0.7l1.76,0.64l1.78,0.59l1.8,0.53l1.81,0.47l1.83,0.42l1.84,0.36l1.85,0.3l1.86,0.24l1.86,0.18l1.87,0.13l1.87,0.07h1.87l0.75,-0.01h0.37" style="stroke-linejoin: round;"></path>
<path id="cv_177" class="ZW" d="M1351.79,916.66l0,59.67M1349.93,916.66l0,59.56M1351.79,916.66h-1.86" style="stroke-linejoin: round;"></path>
</g>
</g>
<g class="DR_2D_DOUB" id="cv_Block_DR_2D_DOUB_22">
<g id="cvclr_178" stroke="#FF7F00" fill="none">
<path id="cv_179" class=" ZW" d="M1431.35,686.95l-0.04,1.87l-0.11,1.87l-0.18,1.87l-0.25,1.86l-0.32,1.85l-0.39,1.83l-0.45,1.82l-0.52,1.8l-0.59,1.78l-0.66,1.76l-0.72,1.73l-0.79,1.7l-0.85,1.67l-0.91,1.64l-0.97,1.6l-1.21,1.82l-1.29,1.77l-1.37,1.71l-1.44,1.65l-1.73,1.8l-1.59,1.5l-1.65,1.43l-1.72,1.36l-1.77,1.28l-1.83,1.2l-1.61,0.96l-1.64,0.9l-1.68,0.84l-1.71,0.78l-1.73,0.71l-1.76,0.65l-1.78,0.58l-1.8,0.51l-1.82,0.44l-1.84,0.37l-1.85,0.3l-1.86,0.23l-1.87,0.16l-1.87,0.09l-1.25,0.02h-0.31M1381.63,736.68l1.87,0.04l1.87,0.11l1.87,0.18l1.86,0.25l1.85,0.32l1.83,0.39l1.82,0.45l1.8,0.52l1.78,0.59l1.76,0.66l1.73,0.72l1.7,0.79l1.67,0.85l1.64,0.91l1.6,0.97l1.82,1.21l1.77,1.29l1.71,1.37l1.65,1.44l1.8,1.73l1.5,1.59l1.43,1.65l1.36,1.72l1.28,1.77l1.2,1.83l0.96,1.61l0.9,1.64l0.84,1.68l0.78,1.71l0.71,1.73l0.65,1.76l0.58,1.78l0.51,1.8l0.44,1.82l0.37,1.84l0.3,1.85l0.23,1.86l0.16,1.87l0.09,1.87l0.02,1.25v0.31" style="stroke-linejoin: round;"></path>
<path id="cv_180" class="ZW" d="M1381.63,686.95h49.73l0,1.55h-49.73l0,-1.55M1381.63,784.85l0,1.55M1431.35,784.85h-49.73M1431.35,786.41l0,-1.55M1381.63,786.41h49.73" style="stroke-linejoin: round;"></path>
</g>
</g>
</g>
<g id="layer_PL" class="layer_PL" cvjs:layername="PL" cvjs:plottable="YES" cvjs:status="ON" visibility="visible" display="inline">
<g id="cvclr_181" stroke="#29A500" fill="none">
<path id="cv_182" class="ZW" d="M89.51,520.49L89.51,288.43M4.97,695.79l0,-85.37M54.7,445.9l0,-92.83M142.97,240.35h94.48" style="stroke-linejoin: round;"></path>
</g>
</g>
<g id="layer_PL_2D_STAIR" class="layer_PL_2D_STAIR" cvjs:layername="PL-STAIR" cvjs:plottable="YES" cvjs:status="ON" visibility="visible" display="inline">
<g id="cvclr_183" stroke="none" fill="#29A500" opacity="1.">
<path id="cv_184" d="M128.6,377.94l2.76,-16.58l2.76,16.58h-5.53 Z " style="stroke-linejoin: round; stroke-width: 1px;"></path>
<path id="cv_185" d="M219.77,377.94l2.76,-16.58l2.76,16.58h-5.53 Z " style="stroke-linejoin: round; stroke-width: 1px;"></path>
<path id="cv_186" d="M1430.8,946.5l-2.76,16.58l-2.76,-16.58h5.53 Z " style="stroke-linejoin: round; stroke-width: 1px;"></path>
<path id="cv_187" d="M1495.17,852.57l16.58,2.76l-16.58,2.76v-5.53 Z " style="stroke-linejoin: round; stroke-width: 1px;"></path>
</g>
<g id="cvclr_188" stroke="#29A500" fill="none">
<path id="cv_189" class=" ZW" d="M165.76,459.16v-6.63h6.63v6.63h-6.63" style="stroke-linejoin: round;"></path>
<path id="cv_190" class=" ZW" d="M181.51,459.16v-6.63h6.63v6.63h-6.63" style="stroke-linejoin: round;"></path>
<path id="cv_191" class=" nZW sLW_0_6" d="M165.76,364.68v-6.63h6.63v6.63h-6.63" style="stroke-linejoin: round; stroke-width: 0.6px;"></path>
<path id="cv_192" class=" ZW" d="M181.51,364.68v-6.63h6.63v6.63h-6.63" style="stroke-linejoin: round;"></path>
<path id="cv_193" class=" ZW" d="M1461.19,966.39v-6.63h6.63v6.63h-6.63" style="stroke-linejoin: round;"></path>
<path id="cv_194" class=" ZW" d="M1508.43,966.39v-6.63h6.63v6.63h-6.63" style="stroke-linejoin: round;"></path>
<path id="cv_195" class=" nZW sLW_0_6" d="M1461.19,903.4v-6.63h6.63v6.63h-6.63" style="stroke-linejoin: round; stroke-width: 0.6px;"></path>
<path id="cv_196" class=" ZW" d="M1508.43,903.4v-6.63h6.63v6.63h-6.63" style="stroke-linejoin: round;"></path>
<path id="cv_197" class="ZW" d="M169.08,358.05l0,-97.8M184.82,358.05l0,-97.8M264.39,424.35h-79.57M256.93,424.35h-72.11M256.93,440.1h-72.11M256.93,455.85h-68.79M256.93,361.36h-68.79M256.93,377.11h-72.11M256.93,392.86h-72.11M256.93,408.6h-72.11M131.37,377.94L131.37,499.77M169.08,540.38l0,-81.22M184.82,540.38l0,-81.22M131.37,499.77h53.46" style="stroke-linejoin: round;"></path>
<path id="cv_198" class="nZW sLW_0_6" d="M169.08,424.35h-79.57" style="stroke-linejoin: round; stroke-width: 0.6px;"></path>
<path id="cv_199" class="ZW" d="M169.08,424.35h-72.11M169.08,440.1h-72.11M165.76,455.85h-68.79M169.08,377.11h-72.11M169.08,392.86h-72.11M169.08,408.6h-72.11M165.76,361.36h-68.79M94.48,459.16L94.48,358.05M96.97,459.16L96.97,358.05M96.97,459.16h-2.49M94.48,455.85h-4.97M94.48,424.35h-4.97M94.48,440.1h-4.97M94.48,408.6h-4.97M94.48,361.36h-4.97M94.48,377.11h-4.97M94.48,392.86h-4.97M96.97,358.05h-2.49M184.82,452.53l0,-87.85M169.08,452.53l0,-87.85M171.56,452.53l0,-87.85M182.34,452.53l0,-87.85M222.54,377.94l0,77.91M181.51,455.85h-9.12M181.51,453.36h-9.12M181.51,361.36h-9.12M181.51,363.85h-9.12M259.42,459.16L259.42,358.05M256.93,459.16L256.93,358.05M264.39,455.85h-4.97M259.42,459.16h-2.49M264.39,424.35h-4.97M264.39,440.1h-4.97M264.39,408.6h-4.97M264.39,361.36h-4.97M264.39,377.11h-4.97M264.39,392.86h-4.97M259.42,358.05h-2.49M1391.57,966.39l0,-69.62M1394.89,966.39l0,-69.62M1581.37,966.39l0,-69.62M1584.68,966.39l0,-69.62M1515.06,1032.7h-53.87M1515.06,1036.01h-53.87M1508.43,963.08h-40.61M1464.51,1036.01l0,6.63M1480.25,1036.01l0,6.63M1461.19,963.08h-66.3M1394.89,966.39h-3.32M1391.57,963.08h-6.63M1464.51,966.39l0,66.3M1464.51,1026.07l0,-59.67M1480.25,963.08l0,69.62M1461.19,1032.7l0,3.32M1511.75,1036.01l0,6.63M1496,1036.01l0,6.63M1581.37,963.08h-66.3h66.3M1511.75,966.39l0,66.3M1511.75,1026.07l0,-59.67M1496,963.08l0,69.62M1515.06,1032.7l0,3.32M1591.32,963.08h-6.63h6.63M1581.37,966.39h3.32M1508.43,900.09h-40.61M1508.43,903.4h-40.61M1508.43,959.76h-40.61M1515.06,810.58h-53.87M1515.06,813.89h-53.87M1495.17,855.33h-30.67M1480.25,900.09l0,-86.2M1464.51,896.77l0,-82.88M1464.51,915.84h-69.62M1464.51,931.58h-69.62M1464.51,947.33h-69.62M1461.19,900.09h-66.3M1391.57,931.58h-6.63M1391.57,947.33h-6.63M1394.89,896.77h-3.32M1391.57,915.84h-6.63M1464.51,959.76l0,-56.36M1428.04,946.5l0,-46.41M1467.82,959.76l0,-56.36M1464.51,949.82l0,9.95l0,-9.95M1461.19,813.89l0,-3.32M1464.51,810.58l0,-6.63M1480.25,810.58l0,-6.63M1496,900.09l0,-86.2M1511.75,896.77l0,-82.88M1581.37,900.09h-66.3M1511.75,947.33h69.62M1511.75,931.58h69.62M1511.75,915.84h69.62M1515.06,900.09h66.3M1511.75,959.76l0,-56.36M1508.43,959.76l0,-56.36M1511.75,949.82l0,9.95l0,-9.95M1584.68,947.33h6.63M1584.68,931.58h6.63M1591.32,900.09h-6.63M1584.68,915.84h6.63M1584.68,900.09h6.63M1581.37,896.77h3.32M1515.06,813.89l0,-3.32M1496,810.58l0,-6.63M1511.75,810.58l0,-6.63M264.39,540.38L264.39,260.25" style="stroke-linejoin: round;"></path>
<circle id="cv_200" class="nZW sLW_0_6" cx="184.82" cy="499.77" r="1.289669" style="stroke-width: 0.6px;"></circle>
<circle id="cv_201" class="nZW sLW_0_6" cx="222.54" cy="455.85" r="1.289669" style="stroke-width: 0.6px;"></circle>
<circle id="cv_202" class="nZW sLW_0_6" cx="1428.04" cy="900.09" r="1.289669" style="stroke-width: 0.6px;"></circle>
<circle id="cv_203" class="nZW sLW_0_6" cx="1464.51" cy="855.33" r="1.289669" style="stroke-width: 0.6px;"></circle>
</g>
<g style="font-family: simplex, , arial, helvetica, sans-serif" stroke="none" fill="#29A500">
<g font-size="17.902296" stroke="none" fill="#29A500">
<text id="cv_204" transform="scale(0.833333 1) translate(178.21 489.83) " style="stroke-width: 0px;">UP</text>
<text id="cv_205" transform="scale(0.833333 1) translate(255.85 491.19) " style="stroke-width: 0px;">DN</text>
<text id="cv_206" transform="scale(0.833333 1) translate(1700.97 890.14) " style="stroke-width: 0px;">DN</text>
<text id="cv_207" transform="scale(0.833333 1) translate(1727.17 870.25) " style="stroke-width: 0px;">UP</text>
</g>
<g font-size="0.358046" stroke="none" fill="#29A500">
<text id="cv_208" transform="scale(0.833333 1) translate(1756.77 855.63) " style="stroke-width: 0px;">UP</text>
</g>
</g>
</g>
<g id="layer_WN" class="layer_WN" cvjs:layername="WN" cvjs:plottable="YES" cvjs:status="ON" visibility="visible" display="inline">
<g id="cvclr_209" stroke="#808080" fill="none">
<path id="cv_210" class="ZW" d="M24.86,699.1l0,-92M16.58,695.79l0,-85.37M74.59,349.76l0,99.46M66.3,353.07l0,92.83M139.65,260.25H240.77M142.97,251.96h94.48" style="stroke-linejoin: round;"></path>
</g>
<g class="WNV" id="cv_Block_WNV_23">
<g id="cvclr_211" stroke="#29A500" fill="none">
<path id="cv_212" class="ZW" d="M20.72,888.9l0,92M16.58,977.58l0,-85.37M24.86,888.9l0,92" style="stroke-linejoin: round;"></path>
</g>
<g id="cvclr_213" stroke="#808080" fill="none">
<path id="cv_214" class="ZW" d="M4.97,977.58l0,-85.37" style="stroke-linejoin: round;"></path>
</g>
</g>
<g class="WNH" id="cv_Block_WNH_24">
<g id="cvclr_215" stroke="#808080" fill="none">
<path id="cv_216" class="ZW" d="M237.45,1347.65h-92.83" style="stroke-linejoin: round;"></path>
</g>
<g id="cvclr_217" stroke="#29A500" fill="none">
<path id="cv_218" class="ZW" d="M240.77,1331.9h-99.46M237.45,1336.04h-92.83M240.77,1327.75h-99.46" style="stroke-linejoin: round;"></path>
</g>
</g>
<g class="WNH" id="cv_Block_WNH_25">
<g id="cvclr_219" stroke="#808080" fill="none">
<path id="cv_220" class="ZW" d="M54.7,1234.93l0,-92.83" style="stroke-linejoin: round;"></path>
</g>
<g id="cvclr_221" stroke="#29A500" fill="none">
<path id="cv_222" class="ZW" d="M70.45,1238.24l0,-99.46M66.3,1234.93l0,-92.83M74.59,1238.24l0,-99.46" style="stroke-linejoin: round;"></path>
</g>
</g>
<g class="WNH" id="cv_Block_WNH_26">
<g id="cvclr_223" stroke="#808080" fill="none">
<path id="cv_224" class="ZW" d="M385.81,1347.65h-92.83" style="stroke-linejoin: round;"></path>
</g>
<g id="cvclr_225" stroke="#29A500" fill="none">
<path id="cv_226" class="ZW" d="M389.13,1331.9h-99.46M385.81,1336.04h-92.83M389.13,1327.75h-99.46" style="stroke-linejoin: round;"></path>
</g>
</g>
<g class="WNH" id="cv_Block_WNH_27">
<g id="cvclr_227" stroke="#808080" fill="none">
<path id="cv_228" class="ZW" d="M615.39,1465.34h-92.83" style="stroke-linejoin: round;"></path>
</g>
<g id="cvclr_229" stroke="#29A500" fill="none">
<path id="cv_230" class="ZW" d="M618.71,1449.59h-99.46M615.39,1453.73h-92.83M618.71,1445.44h-99.46" style="stroke-linejoin: round;"></path>
</g>
</g>
<g class="WNH" id="cv_Block_WNH_28">
<g id="cvclr_231" stroke="#808080" fill="none">
<path id="cv_232" class="ZW" d="M763.75,1465.34h-92.83" style="stroke-linejoin: round;"></path>
</g>
<g id="cvclr_233" stroke="#29A500" fill="none">
<path id="cv_234" class="ZW" d="M767.06,1449.59h-99.46M763.75,1453.73h-92.83M767.06,1445.44h-99.46" style="stroke-linejoin: round;"></path>
</g>
</g>
<g class="WNV" id="cv_Block_WNV_29">
<g id="cvclr_235" stroke="#29A500" fill="none">
<path id="cv_236" class="ZW" d="M20.72,840l0,-92M16.58,751.32l0,85.37M24.86,840l0,-92" style="stroke-linejoin: round;"></path>
</g>
<g id="cvclr_237" stroke="#808080" fill="none">
<path id="cv_238" class="ZW" d="M4.97,751.32l0,85.37" style="stroke-linejoin: round;"></path>
</g>
</g>
<g class="WNV" id="cv_Block_WNV_30">
<g id="cvclr_239" stroke="#29A500" fill="none">
<path id="cv_240" class="ZW" d="M20.72,748l0,92M16.58,836.68l0,-85.37M24.86,748l0,92" style="stroke-linejoin: round;"></path>
</g>
<g id="cvclr_241" stroke="#808080" fill="none">
<path id="cv_242" class="ZW" d="M4.97,836.68l0,-85.37" style="stroke-linejoin: round;"></path>
</g>
</g>
<g class="WNH" id="cv_Block_WNH_31">
<g id="cvclr_243" stroke="#808080" fill="none">
<path id="cv_244" class="ZW" d="M385.81,240.35h-92.83" style="stroke-linejoin: round;"></path>
</g>
<g id="cvclr_245" stroke="#29A500" fill="none">
<path id="cv_246" class="ZW" d="M389.13,256.1h-99.46M385.81,251.96h-92.83M389.13,260.25h-99.46" style="stroke-linejoin: round;"></path>
</g>
</g>
<g class="WNH" id="cv_Block_WNH_32">
<g id="cvclr_247" stroke="#808080" fill="none">
<path id="cv_248" class="ZW" d="M615.39,122.66h-92.83" style="stroke-linejoin: round;"></path>
</g>
<g id="cvclr_249" stroke="#29A500" fill="none">
<path id="cv_250" class="ZW" d="M618.71,138.41h-99.46M615.39,134.27h-92.83M618.71,142.56h-99.46" style="stroke-linejoin: round;"></path>
</g>
</g>
<g class="WNH" id="cv_Block_WNH_33">
<g id="cvclr_251" stroke="#808080" fill="none">
<path id="cv_252" class="ZW" d="M763.75,122.66h-92.83" style="stroke-linejoin: round;"></path>
</g>
<g id="cvclr_253" stroke="#29A500" fill="none">
<path id="cv_254" class="ZW" d="M767.06,138.41h-99.46M763.75,134.27h-92.83M767.06,142.56h-99.46" style="stroke-linejoin: round;"></path>
</g>
</g>
<g class="WNV" id="cv_Block_WNV_34">
<g id="cvclr_255" stroke="#29A500" fill="none">
<path id="cv_256" class="ZW" d="M2425.93,875.64l0,92M2430.07,964.32l0,-85.37M2421.78,875.64l0,92" style="stroke-linejoin: round;"></path>
</g>
<g id="cvclr_257" stroke="#808080" fill="none">
<path id="cv_258" class="ZW" d="M2441.67,964.32l0,-85.37" style="stroke-linejoin: round;"></path>
</g>
</g>
<g class="WNH" id="cv_Block_WNH_35">
<g id="cvclr_259" stroke="#808080" fill="none">
<path id="cv_260" class="ZW" d="M1834.57,1448.76h92.83" style="stroke-linejoin: round;"></path>
</g>
<g id="cvclr_261" stroke="#29A500" fill="none">
<path id="cv_262" class="ZW" d="M1831.26,1433.01h99.46M1834.57,1437.16h92.83M1831.26,1428.87h99.46" style="stroke-linejoin: round;"></path>
</g>
</g>
<g class="WNH" id="cv_Block_WNH_36">
<g id="cvclr_263" stroke="#808080" fill="none">
<path id="cv_264" class="ZW" d="M1270.15,1583.03h92.83" style="stroke-linejoin: round;"></path>
</g>
<g id="cvclr_265" stroke="#29A500" fill="none">
<path id="cv_266" class="ZW" d="M1266.84,1567.28h99.46M1270.15,1571.42h92.83M1266.84,1563.14h99.46" style="stroke-linejoin: round;"></path>
</g>
</g>
<g class="WNH" id="cv_Block_WNH_37">
<g id="cvclr_267" stroke="#808080" fill="none">
<path id="cv_268" class="ZW" d="M998.3,1578.05h-92.83" style="stroke-linejoin: round;"></path>
</g>
<g id="cvclr_269" stroke="#29A500" fill="none">
<path id="cv_270" class="ZW" d="M1001.62,1562.31h-99.46M998.3,1566.45h-92.83M1001.62,1558.16h-99.46" style="stroke-linejoin: round;"></path>
</g>
</g>
<g class="WNH" id="cv_Block_WNH_38">
<g id="cvclr_271" stroke="#808080" fill="none">
<path id="cv_272" class="ZW" d="M1176.5,1583.03h-92.83" style="stroke-linejoin: round;"></path>
</g>
<g id="cvclr_273" stroke="#29A500" fill="none">
<path id="cv_274" class="ZW" d="M1179.81,1567.28h-99.46M1176.5,1571.42h-92.83M1179.81,1563.14h-99.46" style="stroke-linejoin: round;"></path>
</g>
</g>
<g class="WNH" id="cv_Block_WNH_39">
<g id="cvclr_275" stroke="#808080" fill="none">
<path id="cv_276" class="ZW" d="M1448.35,1578.05h92.83" style="stroke-linejoin: round;"></path>
</g>
<g id="cvclr_277" stroke="#29A500" fill="none">
<path id="cv_278" class="ZW" d="M1445.03,1562.31h99.46M1448.35,1566.45h92.83M1445.03,1558.16h99.46" style="stroke-linejoin: round;"></path>
</g>
</g>
<g class="WNH" id="cv_Block_WNH_40">
<g id="cvclr_279" stroke="#808080" fill="none">
<path id="cv_280" class="ZW" d="M1686.21,1448.76h92.83" style="stroke-linejoin: round;"></path>
</g>
<g id="cvclr_281" stroke="#29A500" fill="none">
<path id="cv_282" class="ZW" d="M1682.9,1433.01h99.46M1686.21,1437.16h92.83M1682.9,1428.87h99.46" style="stroke-linejoin: round;"></path>
</g>
</g>
<g class="WNH" id="cv_Block_WNH_41">
<g id="cvclr_283" stroke="#808080" fill="none">
<path id="cv_284" class="ZW" d="M2064.15,1314.49h92.83" style="stroke-linejoin: round;"></path>
</g>
<g id="cvclr_285" stroke="#29A500" fill="none">
<path id="cv_286" class="ZW" d="M2060.84,1298.75h99.46M2064.15,1302.89h92.83M2060.84,1294.6h99.46" style="stroke-linejoin: round;"></path>
</g>
</g>
<g class="WNH" id="cv_Block_WNH_42">
<g id="cvclr_287" stroke="#808080" fill="none">
<path id="cv_288" class="ZW" d="M2212.51,1314.49h92.83" style="stroke-linejoin: round;"></path>
</g>
<g id="cvclr_289" stroke="#29A500" fill="none">
<path id="cv_290" class="ZW" d="M2209.19,1298.75h99.46M2212.51,1302.89h92.83M2209.19,1294.6h99.46" style="stroke-linejoin: round;"></path>
</g>
</g>
<g class="WNH" id="cv_Block_WNH_43">
<g id="cvclr_291" stroke="#808080" fill="none">
<path id="cv_292" class="ZW" d="M2391.95,1122.21l0,92.83" style="stroke-linejoin: round;"></path>
</g>
<g id="cvclr_293" stroke="#29A500" fill="none">
<path id="cv_294" class="ZW" d="M2376.2,1118.89l0,99.46M2380.34,1122.21l0,92.83M2372.05,1118.89l0,99.46" style="stroke-linejoin: round;"></path>
</g>
</g>
<g class="WNH" id="cv_Block_WNH_44">
<g id="cvclr_295" stroke="#808080" fill="none">
<path id="cv_296" class="ZW" d="M1834.57,139.24h92.83" style="stroke-linejoin: round;"></path>
</g>
<g id="cvclr_297" stroke="#29A500" fill="none">
<path id="cv_298" class="ZW" d="M1831.26,154.99h99.46M1834.57,150.84h92.83M1831.26,159.13h99.46" style="stroke-linejoin: round;"></path>
</g>
</g>
<g class="WNH" id="cv_Block_WNH_45">
<g id="cvclr_299" stroke="#808080" fill="none">
<path id="cv_300" class="ZW" d="M1270.15,4.97h92.83" style="stroke-linejoin: round;"></path>
</g>
<g id="cvclr_301" stroke="#29A500" fill="none">
<path id="cv_302" class="ZW" d="M1266.84,20.72h99.46M1270.15,16.58h92.83M1266.84,24.86h99.46" style="stroke-linejoin: round;"></path>
</g>
</g>
<g class="WNH" id="cv_Block_WNH_46">
<g id="cvclr_303" stroke="#808080" fill="none">
<path id="cv_304" class="ZW" d="M998.3,9.95h-92.83" style="stroke-linejoin: round;"></path>
</g>
<g id="cvclr_305" stroke="#29A500" fill="none">
<path id="cv_306" class="ZW" d="M1001.62,25.69h-99.46M998.3,21.55h-92.83M1001.62,29.84h-99.46" style="stroke-linejoin: round;"></path>
</g>
</g>
<g class="WNH" id="cv_Block_WNH_47">
<g id="cvclr_307" stroke="#808080" fill="none">
<path id="cv_308" class="ZW" d="M1176.5,4.97h-92.83" style="stroke-linejoin: round;"></path>
</g>
<g id="cvclr_309" stroke="#29A500" fill="none">
<path id="cv_310" class="ZW" d="M1179.81,20.72h-99.46M1176.5,16.58h-92.83M1179.81,24.86h-99.46" style="stroke-linejoin: round;"></path>
</g>
</g>
<g class="WNH" id="cv_Block_WNH_48">
<g id="cvclr_311" stroke="#808080" fill="none">
<path id="cv_312" class="ZW" d="M1448.35,9.95h92.83" style="stroke-linejoin: round;"></path>
</g>
<g id="cvclr_313" stroke="#29A500" fill="none">
<path id="cv_314" class="ZW" d="M1445.03,25.69h99.46M1448.35,21.55h92.83M1445.03,29.84h99.46" style="stroke-linejoin: round;"></path>
</g>
</g>
<g class="WNH" id="cv_Block_WNH_49">
<g id="cvclr_315" stroke="#808080" fill="none">
<path id="cv_316" class="ZW" d="M1686.21,139.24h92.83" style="stroke-linejoin: round;"></path>
</g>
<g id="cvclr_317" stroke="#29A500" fill="none">
<path id="cv_318" class="ZW" d="M1682.9,154.99h99.46M1686.21,150.84h92.83M1682.9,159.13h99.46" style="stroke-linejoin: round;"></path>
</g>
</g>
<g class="WNV" id="cv_Block_WNV_50">
<g id="cvclr_319" stroke="#29A500" fill="none">
<path id="cv_320" class="ZW" d="M2425.93,712.36l0,-92M2430.07,623.68l0,85.37M2421.78,712.36l0,-92" style="stroke-linejoin: round;"></path>
</g>
<g id="cvclr_321" stroke="#808080" fill="none">
<path id="cv_322" class="ZW" d="M2441.67,623.68l0,85.37" style="stroke-linejoin: round;"></path>
</g>
</g>
<g class="WNV" id="cv_Block_WNV_51">
<g id="cvclr_323" stroke="#29A500" fill="none">
<path id="cv_324" class="ZW" d="M2425.93,840l0,-92M2430.07,751.32l0,85.37M2421.78,840l0,-92" style="stroke-linejoin: round;"></path>
</g>
<g id="cvclr_325" stroke="#808080" fill="none">
<path id="cv_326" class="ZW" d="M2441.67,751.32l0,85.37" style="stroke-linejoin: round;"></path>
</g>
</g>
<g class="WNV" id="cv_Block_WNV_52">
<g id="cvclr_327" stroke="#29A500" fill="none">
<path id="cv_328" class="ZW" d="M2425.93,748l0,92M2430.07,836.68l0,-85.37M2421.78,748l0,92" style="stroke-linejoin: round;"></path>
</g>
<g id="cvclr_329" stroke="#808080" fill="none">
<path id="cv_330" class="ZW" d="M2441.67,836.68l0,-85.37" style="stroke-linejoin: round;"></path>
</g>
</g>
<g class="WNH" id="cv_Block_WNH_53">
<g id="cvclr_331" stroke="#808080" fill="none">
<path id="cv_332" class="ZW" d="M2391.95,465.79l0,-92.83" style="stroke-linejoin: round;"></path>
</g>
<g id="cvclr_333" stroke="#29A500" fill="none">
<path id="cv_334" class="ZW" d="M2376.2,469.11l0,-99.46M2380.34,465.79l0,-92.83M2372.05,469.11l0,-99.46" style="stroke-linejoin: round;"></path>
</g>
</g>
<g class="WNH" id="cv_Block_WNH_54">
<g id="cvclr_335" stroke="#808080" fill="none">
<path id="cv_336" class="ZW" d="M2064.15,273.51h92.83" style="stroke-linejoin: round;"></path>
</g>
<g id="cvclr_337" stroke="#29A500" fill="none">
<path id="cv_338" class="ZW" d="M2060.84,289.25h99.46M2064.15,285.11h92.83M2060.84,293.4h99.46" style="stroke-linejoin: round;"></path>
</g>
</g>
<g class="WNH" id="cv_Block_WNH_55">
<g id="cvclr_339" stroke="#808080" fill="none">
<path id="cv_340" class="ZW" d="M2212.51,273.51h92.83" style="stroke-linejoin: round;"></path>
</g>
<g id="cvclr_341" stroke="#29A500" fill="none">
<path id="cv_342" class="ZW" d="M2209.19,289.25h99.46M2212.51,285.11h92.83M2209.19,293.4h99.46" style="stroke-linejoin: round;"></path>
</g>
</g>
</g>
<g id="layer_PL_2D_ELVTR_block" class="layer_PL_2D_ELVTR_block" cvjs:layername="PL-ELVTR" cvjs:plottable="YES" cvjs:status="ON" visibility="visible" display="inline">
<g class="ELEV" id="cv_Block_ELEV_56">
<g id="cvclr_343" stroke="#29A500" fill="none">
<path id="cv_344" class=" ZW" d="M675.89,1039.33V929.92H815.13V1039.33H675.89" style="stroke-linejoin: round;"></path>
<path id="cv_345" class="ZW" d="M815.13,929.92L675.89,1039.33M675.89,929.92L815.13,1039.33" style="stroke-linejoin: round;"></path>
</g>
</g>
<g class="ELEV" id="cv_Block_ELEV_57">
<g id="cvclr_346" stroke="#29A500" fill="none">
<path id="cv_347" class=" ZW" d="M675.89,548.73V658.13H815.13V548.73H675.89" style="stroke-linejoin: round;"></path>
<path id="cv_348" class="ZW" d="M815.13,658.13L675.89,548.73M675.89,658.13L815.13,548.73" style="stroke-linejoin: round;"></path>
</g>
</g>
<g class="ELEV" id="cv_Block_ELEV_58">
<g id="cvclr_349" stroke="#29A500" fill="none">
<path id="cv_350" class=" ZW" d="M497.7,1039.33V929.92H636.94V1039.33H497.7" style="stroke-linejoin: round;"></path>
<path id="cv_351" class="ZW" d="M636.94,929.92L497.7,1039.33M497.7,929.92L636.94,1039.33" style="stroke-linejoin: round;"></path>
</g>
</g>
<g class="ELEV" id="cv_Block_ELEV_59">
<g id="cvclr_352" stroke="#29A500" fill="none">
<path id="cv_353" class=" ZW" d="M497.7,548.73V658.13H636.94V548.73H497.7" style="stroke-linejoin: round;"></path>
<path id="cv_354" class="ZW" d="M636.94,658.13L497.7,548.73M497.7,658.13L636.94,548.73" style="stroke-linejoin: round;"></path>
</g>
</g>
<g class="ELEV" id="cv_Block_ELEV_60">
<g id="cvclr_355" stroke="#29A500" fill="none">
<path id="cv_356" class=" ZW" d="M875.64,1039.33V929.92H1014.88V1039.33H875.64" style="stroke-linejoin: round;"></path>
<path id="cv_357" class="ZW" d="M1014.88,929.92L875.64,1039.33M875.64,929.92L1014.88,1039.33" style="stroke-linejoin: round;"></path>
</g>
</g>
<g class="ELEV" id="cv_Block_ELEV_61">
<g id="cvclr_358" stroke="#29A500" fill="none">
<path id="cv_359" class=" ZW" d="M1053.83,1039.33V929.92H1193.07V1039.33H1053.83" style="stroke-linejoin: round;"></path>
<path id="cv_360" class="ZW" d="M1193.07,929.92L1053.83,1039.33M1053.83,929.92L1193.07,1039.33" style="stroke-linejoin: round;"></path>
</g>
</g>
<g class="ELEV" id="cv_Block_ELEV_62">
<g id="cvclr_361" stroke="#29A500" fill="none">
<path id="cv_362" class=" ZW" d="M875.64,548.73V658.13H1014.88V548.73H875.64" style="stroke-linejoin: round;"></path>
<path id="cv_363" class="ZW" d="M1014.88,658.13L875.64,548.73M875.64,658.13L1014.88,548.73" style="stroke-linejoin: round;"></path>
</g>
</g>
<g class="ELEV" id="cv_Block_ELEV_63">
<g id="cvclr_364" stroke="#29A500" fill="none">
<path id="cv_365" class=" ZW" d="M1053.83,548.73V658.13H1193.07V548.73H1053.83" style="stroke-linejoin: round;"></path>
<path id="cv_366" class="ZW" d="M1193.07,658.13L1053.83,548.73M1053.83,658.13L1193.07,548.73" style="stroke-linejoin: round;"></path>
</g>
</g>
</g>
</g><desc>Created with Snap</desc></svg></svg></g><g></g><g style="display: inline;"></g><g></g><g></g></svg></svg>