<?xml version="1.0" encoding="utf-8" ?>
<!-- Generated by AutoXChange 64-bit  V23.09.96 from Tailor Made Software -->
<!-- www.tailormade.com and www.cadviewer.com -->
<!DOCTYPE svg PUBLIC '-//W3C//DTD SVG 1.0//EN' 
'http://www.w3.org/TR/2001/REC-SVG-20010904/DTD/svg10.dtd'>
<svg id="tmsSVG38" contentScriptType="text/ecmascript" xmlns:xlink="http://www.w3.org/1999/xlink" zoomAndPan="magnify" 
contentStyleType="text/css" preserveAspectRatio="xMidYMid meet" 
width="1883" height="1417.66" viewBox="0 0 1883 1417.66" 
version="1.1" xmlns="http://www.w3.org/2000/svg" xmlns:cvjs="http://www.tailormade.com/" stroke-linecap="butt" stroke-linejoin="round" fill-rule="evenodd" >
<defs>
	<style id="cv_styles" type = "text/css">
	    <![CDATA[
	   #tmsSVG38 { background-color: white; opacity: 1.}
		:root {
		    --tmsMinLineWidth: 0.6;
		    --tmsMinDashLength: 0.6;
		    --tmsHLWidth: 0.6;
		    --tmsNumberOfLayouts: 1;
		    --tmsNumberOfSVGViewports: 0;
         --tmsMinFixedLineWidth: 0.6;
		    --tmsbPostFix: 0;
		}
		.tmsPoints {
		    fill: none;
		    stroke-width: var(--tmsMinLineWidth);
		    r: calc(var(--tmsMinLineWidth)/2.0);
		}
		.ZWhl {
		    stroke-width: var(--tmsHLWidth);
		}
		.ZW {
		    stroke-width: var(--tmsMinLineWidth);
		}
		.ZW6 {
		    stroke-width: calc(var(--tmsMinLineWidth)*6);
		}
		.ZW10 {
		    stroke-width: calc(var(--tmsMinLineWidth)*10);
		}
		.ZW20 {
		    stroke-width: calc(var(--tmsMinLineWidth)*20);
		}
		.ZW100 {
		    stroke-width: calc(var(--tmsMinLineWidth)*100);
		}
		.nZW {
		}
		.sLW_0_2{
		    stroke-width: calc(var(--tmsMinFixedLineWidth)*0.333333);
		}
		.sLW_0_6{
		    stroke-width: var(--tmsMinFixedLineWidth);
		}
		.hyperlinks:hover {
		    stroke-width: 3;
		}
		.hyperimage image{
			opacity: 0;
		}
		.hyperimage:hover image{
			opacity: 1;
		}
		.hyperimage:hover path{
			stroke-width: 3;
		}
		.hyperimage:visited{
			color: red;
		}
	]]></style>
	</defs>
<metadata>
<text id="cadviewer_worldUnits">
{ "globalOrigin": { "x": -1.271723, "y" : -3.757153}, 
						"units": "in",
						"measurementType": "English",
						"lengthType": "Decimal",
						"lengthPrecision": 4,
						"blockUnitsFormat": "Inches",
						"svgToWorldUnits": 0.002240,
						"worldToSVGUnits": 446.499346
}
</text>
<text id="cadviewer_drawingCoordinates">
{ "DWG": 
    { "lowerLeft": { "x": -1.271723, "y" : -3.757153}, 
      "upperRight": { "x": 2.945529, "y" : 4.266452} 
    },
 "SVG": 
    { "lowerLeft": { "x": 0.000000, "y" : 1958.827763}, 
      "upperRight": { "x": 1883.000000, "y" : 541.172237} 
    },
 "Drawing Height": 2500
}
</text>
<text id="cadviewer_vqBuilding"></text>
<text id="cadviewer_vqFloor"></text>
<text id="cadviewer_multiPages">
{ "multiPages": 2, 
                   "currentPage":1,
                   "pages" : [
                        { "fileName":"EdwardsRoadShow_Build1_Admin_Floor 1-ak96", "pageName":"ModelSpace"},
                        { "fileName":"EdwardsRoadShow_Build1_Admin_Floor 1-ak96__Layout1", "pageName":"Layout1 (Uninitialized)"}
                   ]
}
</text>
</metadata>
<g id="cv_main_drawing">
<g id="layer_Layer_20_1" class="layer_Layer_20_1"  cvjs:layerName="Layer 1" cvjs:plottable="YES"
 cvjs:status="ON" visibility="visible">
<g id="cvclr_1" stroke="#000" fill="none">
<path id="cv_2" class=" nZW sLW_0_6" d="M1883,1178.48V1417.64v0.01H1284.03V1178.49H1883M1284.03,1215.66H1882.37M1284.65,1389.15H1882.37M1284.03,1351.35H1882.37M1284.03,1317.27H1882.99M1284.03,1280.1H1882.37M1629.66,1317.9v34.08M898.52,1195.91v43.99h-42.12v-43.99h42.12" />
<path id="cv_3" class=" nZW sLW_0_6" d="M871.27,1197.77h12.39l0.02,0.02l0.57,0.57l0.04,0.04l0.57,0.57l0.03,0.03v37.8l-0.02,0.02l-0.57,0.57l-0.05,0.05l-0.58,0.58l-0.02,0.02h-12.39l-0.05,-0.03l-1.14,-0.57l-0.05,-0.02v-39.04l0.05,-0.03l1.14,-0.57l0.04,-0.02M858.26,1199.62v36.56M896.04,1199.62v36.56M861.36,1199.62v36.56M893.57,1199.62v36.56M890.47,1199.62v36.56M887.37,1199.62v36.56M866.93,1199.62v36.56M863.84,1199.62v36.56" />
<path id="cv_4" class=" nZW sLW_0_6" d="M478.56,1195.91h0.05l3,0.6l0.09,0.03l3,1.2l0.08,0.03l3.01,1.21l0.11,0.08l2.36,2.36l0.1,0.12l1.77,2.36l0.08,0.11l1.77,2.37l0.05,0.1l0.61,3.65l0.02,0.08l0.6,3v0.08l-0.61,3.65l-0.01,0.08l-0.6,3l-0.04,0.09l-1.8,3l-0.08,0.11l-1.77,2.36l-0.1,0.1l-2.36,1.77l-0.11,0.08l-3,1.8l-0.09,0.05l-3,1.2l-0.04,0.02h-6.81l-0.05,-0.02l-3,-1.2l-0.09,-0.05l-3,-1.8l-0.11,-0.08l-2.36,-1.77l-0.1,-0.11l-1.77,-2.36l-0.06,-0.1l-1.21,-3.01l-0.03,-0.08l-1.21,-3.01l-0.02,-0.08l-0.61,-3.65v-0.08l0.6,-3l0.02,-0.08l1.22,-3.65l0.04,-0.1l1.18,-2.36l0.08,-0.12l1.77,-2.36l0.11,-0.12l2.36,-2.36l0.1,-0.08l3.01,-1.21l0.08,-0.03l3.01,-1.21l0.08,-0.02l3.65,-0.61h0.03" />
<path id="cv_5" class=" ZW" d="M471.75,1203.34h4.34v7.44h7.43v-7.44h4.34v19.83h-4.34v-8.67h-7.43v8.67h-4.34v-19.83" />
<path id="cv_6" class=" nZW sLW_0_6" d="M477.94,1337.8h0.03l3.65,0.61l0.08,0.02l3,1.2l0.08,0.03l3.01,1.21l0.11,0.08l2.36,2.36l0.1,0.12l1.77,2.36l0.08,0.11l1.77,2.37l0.05,0.1l0.61,3.65l0.02,0.08l0.6,3v0.08l-0.61,3.65l-0.01,0.08l-0.6,3l-0.04,0.09l-1.8,3l-0.08,0.11l-1.77,2.36l-0.1,0.1l-2.36,1.77l-0.11,0.08l-3,1.8l-0.09,0.05l-3,1.2l-0.04,0.02h-6.81l-0.05,-0.02l-3,-1.2l-0.09,-0.05l-3,-1.8l-0.11,-0.08l-2.36,-1.77l-0.1,-0.1l-1.77,-2.36l-0.07,-0.1l-1.81,-3.01l-0.04,-0.09l-0.6,-3l-0.01,-0.08l-0.61,-3.65v-0.08l0.6,-3l0.01,-0.08l0.61,-3.65l0.05,-0.1l1.77,-2.36l0.08,-0.11l1.77,-2.37l0.11,-0.12l2.36,-2.36l0.1,-0.08l3.01,-1.21l0.08,-0.03l3.01,-1.21l0.09,-0.03l3,-0.6h0.05" />
<path id="cv_7" class=" ZW" d="M473.61,1358.86l0.03,0.09l0.57,1.7l0.07,0.12l1.16,1.16l0.07,0.05l1.16,0.58l0.12,0.05l1.7,0.57h0.15l1.71,-0.57l0.1,-0.04l1.16,-0.58l0.14,-0.12l0.43,-0.43l0.11,-0.13l0.58,-1.17l0.02,-0.04v-0.62l-0.1,-0.1l-0.43,-0.43l-0.19,-0.19l-0.43,-0.43l-0.14,-0.12l-1.16,-0.58l-0.06,-0.03l-1.17,-0.59l-0.04,-0.02h-1.86l-0.06,-0.02l-2.98,-1.19l-0.14,-0.06l-2.33,-1.16l-0.15,-0.15l-1.09,-1.64l-0.09,-0.19l-0.58,-2.33v-0.15l0.57,-1.7l0.05,-0.12l0.58,-1.16l0.09,-0.15l1.1,-1.65l0.1,-0.12l1.16,-0.58l0.12,-0.05l1.7,-0.57l0.08,-0.03h6.2l0.05,0.03l2.99,1.79l0.13,0.14l1.1,1.65l0.08,0.16l0.6,2.98l0.01,0.06h-4.34l-0.02,-0.04l-0.58,-1.15l-0.04,-0.07l-0.59,-1.17l-0.05,-0.05l-1.16,-0.58l-0.04,-0.02h-3.72l-0.04,0.02l-1.16,0.58l-0.13,0.11l-0.43,0.43l-0.1,0.1v1.24l0.09,0.09l0.43,0.43l0.2,0.17l1.65,1.1l0.18,0.09l2.33,0.58l0.14,0.04l2.34,0.58l0.14,0.04l2.34,0.58l0.11,0.05l1.16,1.16l0.07,0.07l1.17,1.17l0.06,0.12l0.57,1.7l0.03,0.08v3.72l-0.07,0.11l-1.09,1.64l-0.11,0.15l-1.16,1.16l-0.06,0.06l-1.17,1.17l-0.12,0.06l-2.33,0.58l-0.07,0.02h-2.48h-0.05l-3.63,-0.61l-0.1,-0.03l-2.98,-1.19l-0.12,-0.1l-1.75,-2.33l-0.07,-0.14l-0.6,-2.98l0.01,-0.06h0.02l4.25,-0.61h0.04" />
<path id="cv_8" class=" nZW sLW_0_6" d="M495.29,1238.66v47.71h-29.73v-47.71h29.73" />
<path id="cv_9" class=" ZW" d="M866.31,1272.74h10.53l0.05,0.02l1.75,0.59l0.1,0.03l1.75,0.58l0.11,0.05l1.75,1.17l0.06,0.08l0.6,2.4l0.03,0.09l0.58,1.74v0.11l-0.58,1.76l-0.03,0.1l-0.59,1.75l-0.06,0.14l-0.53,1.06l-0.14,0.18l-1.06,1.06l-0.17,0.13l-1.06,0.53l-0.09,0.04h-0.62l-0.04,0.01l-2.4,0.6h-0.04h-5.57v8.06h-4.34v-22.31M878.08,1277.69l-0.1,-0.1l-0.43,-0.43l-0.1,-0.1h-1.24l-0.15,-0.08l-0.93,-0.47l-0.15,-0.08h-4.34v6.82h4.96l0.15,-0.08l0.94,-0.47l0.25,-0.17l0.43,-0.43l0.19,-0.19l0.43,-0.43l0.19,-0.19l0.43,-0.43l0.1,-0.1v-1.86l-0.08,-0.15l-0.47,-0.94l-0.08,-0.15M885.51,1283.89h8.67v1.86h-3.1v9.29h-2.48v-9.29h-3.1v-1.86" />
<path id="cv_10" class=" nZW sLW_0_6" d="M898.52,1256.01v56.38h-36.54v-56.38h36.54" />
<path id="cv_11" class=" nZW sLW_0_6" d="M879.32,1329.12h0.03l4.28,0.61l0.06,0.02l3.65,1.22l0.08,0.03l3.64,1.82l0.08,0.05l3.01,2.41l0.07,0.07l2.41,3.01l0.05,0.08l1.82,3.64l0.03,0.07l1.22,4.28l0.01,0.06l0.61,4.28v0.06l-0.61,4.28l-0.01,0.06l-1.22,4.28l-0.03,0.07l-1.82,3.64l-0.05,0.08l-2.41,3.01l-0.07,0.07l-3.01,2.41l-0.08,0.06l-3.64,2.43l-0.08,0.04l-3.64,1.21l-0.04,0.01h-8.05h-0.03l-4.28,-1.22l-0.08,-0.04l-3,-2.4l-0.08,-0.07l-3.01,-2.41l-0.09,-0.08l-3.01,-3.01l-0.06,-0.08l-1.82,-3.64l-0.03,-0.07l-1.22,-4.28v-0.03v-8.67v-0.03l1.22,-4.28l0.03,-0.06l1.82,-3.65l0.06,-0.08l3,-3l0.09,-0.08l3.01,-2.41l0.08,-0.06l3.01,-1.81l0.08,-0.04l4.28,-1.22l0.06,-0.01l3.65,-0.61h0.03" />
<path id="cv_12" class=" ZW" d="M873.13,1353.29l0.02,0.04l0.58,1.16l0.04,0.07l0.59,1.17l0.05,0.05l1.16,0.58l0.04,0.02h3.1l0.09,-0.09l0.43,-0.43l0.19,-0.19l0.44,-0.44l0.11,-0.13l0.58,-1.17l0.02,-0.04v-0.62l-0.1,-0.1l-0.43,-0.43l-0.1,-0.1h-0.62l-0.1,-0.1l-0.43,-0.43l-0.09,-0.09h-1.24l-0.1,-0.03l-1.65,-0.55l-0.2,-0.07l-1.65,-0.55l-0.22,-0.11l-1.64,-1.09l-0.18,-0.18l-1.09,-1.64l-0.11,-0.22l-0.55,-1.64l-0.02,-0.15l0.58,-1.17l0.03,-0.06l0.59,-1.17l0.12,-0.14l0.43,-0.43l0.17,-0.17l1.07,-1.07l0.09,-0.09h1.86l0.11,-0.04l1.64,-0.55l0.19,-0.02l2.33,0.58l0.15,0.06l2.33,1.17l0.15,0.12l1.07,1.07l0.11,0.16l0.58,2.33l0.02,0.08h-3.72l-0.02,-0.04l-0.58,-1.15l-0.12,-0.14l-0.43,-0.43l-0.18,-0.18l-0.44,-0.44l-0.1,-0.1h-3.1l-0.1,0.1l-0.43,0.43l-0.18,0.18l-0.44,0.44l-0.1,0.1v1.24l0.09,0.09l0.43,0.43l0.14,0.12l1.16,0.58l0.14,0.05l1.65,0.55l0.18,0.05l2.33,0.58l0.11,0.04l1.17,0.58l0.06,0.03l1.17,0.59l0.06,0.06l0.58,1.16l0.03,0.06l0.59,1.17l0.04,0.07l0.59,1.17l-0.02,0.14l-0.55,1.64l-0.06,0.15l-0.58,1.16l-0.03,0.06l-0.59,1.17l-0.13,0.07l-1.64,0.55l-0.15,0.06l-1.16,0.58l-0.04,0.02h-2.48l-0.06,-0.01l-2.98,-0.6l-0.17,-0.05l-1.64,-0.55l-0.17,-0.11l-1.75,-2.33l-0.08,-0.15l-0.58,-2.33l-0.02,-0.07h3.72M885.51,1350.19h6.81v1.86h-2.48v7.44h-1.86v-7.44h-2.48v-1.86" />
<path id="cv_13" class=" nZW sLW_0_6" d="M89.58,1341.51v27.88h-41.8v-27.88h41.8" />
<path id="cv_14" class=" ZW" d="M439.54,1303.1h5.57l0.01,0.06l2.45,11.64l0.01,0.07l0.02,-0.07l3.06,-11.64l0.02,-0.06h5.58v16.73h-3.72v-13.01l-0.01,0.05l-3.07,12.9l-0.01,0.06h-3.1l-0.02,-0.06l-3.68,-12.89l-0.02,-0.06v13.01h-3.1v-16.73M459.36,1303.1h4.96l0.02,0.06l3.06,11.64l0.02,0.07l0.02,-0.07l3.06,-11.64l0.02,-0.06h4.96v16.73h-3.1v-13.01l-0.01,0.05l-3.07,12.9l-0.01,0.06h-3.72l-0.01,-0.06l-3.07,-12.89l-0.01,-0.06v13.01h-3.1v-16.73M479.18,1307.43l0.06,-0.03l1.12,-0.56l0.12,-0.09l1.11,-1.11l0.11,-0.11l1.13,-1.13l0.08,-0.11l0.56,-1.12l0.03,-0.06h3.1v16.73h-3.1v-11.77l-0.12,0.06l-2.24,1.12l-0.22,0.13l-1.67,1.11l-0.09,0.06v-3.1" />
<path id="cv_15" class=" nZW sLW_0_6" d="M495.29,1296.9v29.74h-64.42v-29.74h64.42M1240.06,1176.27V1417.64v0.01H0.01V1176.27H1240.06M89.59,1275.87v56.38h-35.92v-56.38h35.92" />
<path id="cv_16" class=" nZW sLW_0_6" d="M61.09,1327.3l0.01,-0.03l4.31,-9.24l0.01,-0.03h3.72h0.01l1.21,-0.6l0.07,-0.07l1.12,-1.12l0.08,-0.09l1.2,-1.79l0.04,-0.06l1.21,-2.43l0.02,-0.05l0.61,-2.43l0.01,-0.05l0.61,-2.43v-0.03v-5.58v-0.02l-0.61,-3.06l-0.01,-0.04l-0.61,-2.43l-0.03,-0.06l-1.19,-1.78l-0.04,-0.06l-1.2,-1.8l-0.08,-0.09l-1.12,-1.12l-0.07,-0.07l-1.21,-0.6l-0.05,-0.02l-1.79,-0.6h-0.05l-1.21,0.6h-0.02h-1.24l-0.01,-0.03l-3.7,-9.24v-0.05l0.04,-0.04l1.12,-1.12l0.09,-0.08l1.78,-1.19l0.07,-0.04l1.79,-0.6l0.03,-0.01h1.86h0.02l2.43,0.61l0.04,0.01l3.06,1.23l0.04,0.03l2.42,2.43l0.04,0.04l2.44,3.06l0.02,0.04l1.85,4.31l0.01,0.03l1.23,4.3v0.03l0.62,4.93v0.04l0.61,5.52v0.04l-0.62,4.93v0.03l-0.62,4.94v0.02l-1.23,4.31l-0.01,0.03l-1.84,4.3l-0.02,0.04l-2.44,3.06l-0.05,0.05l-2.41,2.42l-0.05,0.04l-3.05,1.22l-0.04,0.01l-2.43,0.61h-0.03h-1.86l-0.04,-0.01l-1.78,-0.6l-0.07,-0.04l-1.78,-1.19l-0.1,-0.09l-1.12,-1.12l-0.06,-0.06M63.57,1278.97l0.1,0.24l4.14,10.05l0.1,0.24M67.91,1318.62l-0.11,0.24l-4.73,10.05l-0.11,0.24" />
<path id="cv_17" class=" nZW sLW_0_6" d="M89.59,1235.6v27.88h-78.05v-27.88h78.04M89.59,1195.32v27.88h-78.05v-27.88h78.04M86.95,1382.25v27.88h-78.05v-27.88h78.04M1883,0V1417.64H0v-0.02V0.02l0.01,-0.02H1883M1883,0V1417.64H0v-0.02V0.02l0.01,-0.02H1883" />
<path id="cv_18" class=" nZW sLW_0_6" d="M75.11,409.91v70.96h-19.29v-70.96h19.29M93.77,409.91v70.96h-18.67v-70.96h18.67M112.44,409.91v70.96h-18.67v-70.96h18.67M131.73,409.91v70.96h-19.29v-70.96h19.29M150.4,409.91v70.96h-18.67v-70.96h18.67M169.69,409.91v70.96h-19.29v-70.96h19.29M75.11,496.43v70.95h-19.29v-70.95h19.29M93.77,496.43v70.95h-18.67v-70.95h18.67M112.44,496.43v70.96h-18.67v-70.96h18.67M131.73,496.43v70.96h-19.29v-70.96h19.29M150.4,496.43v70.96h-18.67v-70.96h18.67M169.69,496.43v70.96h-19.29v-70.96h19.29M1734.09,409.91v71.58h-19.29v-71.58h19.29M1752.76,409.91v71.58h-18.67v-71.58h18.67M1771.42,409.91v71.58h-18.67v-71.58h18.67M1790.72,409.91v71.58h-19.29v-71.58h19.29M1809.38,409.91v71.58h-18.67v-71.58h18.67M1828.05,409.91v71.58h-18.67v-71.58h18.67M1734.09,496.43v70.96h-19.29v-70.96h19.29M1752.76,496.43v70.96h-18.67v-70.96h18.67M1771.42,496.43v70.96h-18.67v-70.96h18.67M1790.72,496.43v70.96h-19.29v-70.96h19.29M1809.38,496.43v70.96h-18.67v-70.96h18.67M1828.05,496.43v70.96h-18.67v-70.96h18.67M1828.05,477.76v23.65M169.69,476.51v24.27" />
<path id="cv_19" class=" ZW" d="M143.56,445.39v1.24h-79.03v-1.24h79.03M142.93,438.55l0.15,0.07l15.88,7.33l0.15,0.07l-0.15,0.07l-15.88,7.94l-0.15,0.07v-15.56M160.36,533.15v1.87h-79.03v-1.87h79.03M82.57,526.31v15.56l-0.15,-0.07l-15.88,-7.94l-0.15,-0.08l0.15,-0.07l15.88,-7.33l0.15,-0.07M1818.72,444.77v1.25h-79.03v-1.25h79.03M1740.31,437.3v16.18l-0.15,-0.07l-15.88,-7.94l-0.15,-0.08l0.15,-0.07l15.88,-7.94l0.15,-0.07M1805.03,531.91v1.24h-79.03v-1.24h79.03M1803.78,524.44l0.15,0.07l15.88,7.94l0.15,0.08l-0.15,0.07l-15.88,7.94l-0.15,0.07v-16.18" />
<path id="cv_20" class=" nZW sLW_0_6" d="M892.77,571.74V685.02h-97.07V571.74h97.07M989.85,571.74V685.02h-97.07V571.74h97.07M1086.92,571.74V685.02h-97.07V571.74h97.07M795.7,571.74l0.02,0.02L892.76,685l0.02,0.02M892.77,571.74l-0.02,0.02L795.72,685l-0.02,0.02M989.85,571.74l-0.02,0.02L892.79,685l-0.02,0.02M990.47,628.38h95.83M1035.9,571.74v0.06L1036.52,684.4M989.85,628.38l0.03,0.04l46.6,55.94l0.03,0.04M990.47,684.4l0.03,-0.04l44.74,-55.94l0.03,-0.04M1036.52,628.38l0.04,0.04l50.95,55.94l0.04,0.04M1085.68,628.38l-0.04,0.04l-49.09,55.94l-0.04,0.04M891.53,571.74l0.02,0.02L989.21,685.62l0.02,0.02M465.89,571.74v6.85M536.83,571.74v6.85M607.15,571.12v6.85M1207.64,400.58v6.85M1276.72,400.58v6.85M1363.21,400.58v6.85M1431.66,400.58v6.85M676.22,570.5v7.47M1207.64,571.12v6.85M1276.72,571.12v7.47M1363.21,571.12v6.85M1431.66,571.12v6.85" />
<path id="cv_21" class=" ZW" d="M836.15,421.74h10.58v2.49h-7.47v3.11h6.84v2.49h-6.84v3.11h7.47v2.49h-10.58v-13.69M849.21,422.36h2.49v10.58h6.84v2.49h-9.33v-13.07M860.42,421.74h9.96v2.49h-6.84v3.11h6.84v2.49h-6.84v3.11h7.47v2.49h-10.58v-13.69M874.73,421.74l0.02,0.05l3.69,9.85l0.02,0.05l0.02,-0.05l3.08,-9.85l0.02,-0.05h3.11l-0.06,0.17l-4.85,13.35l-0.06,0.17h-3.11l-0.06,-0.17l-4.85,-13.35l-0.06,-0.17h3.11M888.42,421.74h3.11l0.05,0.14l4.88,13.41l0.05,0.14h-3.11l-0.03,-0.14l-0.57,-2.84l-0.03,-0.13h-5.6l-0.07,0.17l-1.11,2.77l-0.07,0.17h-3.11l0.06,-0.14l5.49,-13.41l0.06,-0.14M889.66,424.85l-0.04,0.12l-1.79,5.37l-0.04,0.12h3.73l-0.04,-0.12l-1.79,-5.37l-0.04,-0.12M895.89,421.74h10.58v2.49h-3.73v11.2h-3.11v-11.2h-3.73v-2.49" />
<path id="cv_22" class=" ZW" d="M907.71,426.72v-1.24l0.04,-0.08l0.54,-1.08l0.13,-0.17l0.44,-0.44l0.18,-0.14l1.08,-0.54l0.17,-0.13l0.44,-0.44l0.17,-0.13l1.08,-0.54l0.08,-0.04h1.87l0.15,0.04l2.2,0.55l0.3,0.11l2.17,1.09l0.25,0.25l1.08,2.16l0.12,0.32l0.54,2.18l0.01,0.28l-0.57,2.86l-0.11,0.29l-1.09,2.17l-0.24,0.24l-2.17,1.09l-0.31,0.12l-2.2,0.55h-0.28l-2.2,-0.55l-0.31,-0.12l-2.17,-1.09l-0.24,-0.24l-1.09,-2.17l-0.1,-0.28l-0.57,-2.87v-0.17l0.59,-1.77l0.01,-0.04" />
<path id="cv_23" class=" ZW" d="M916.42,425.48l-0.13,-0.13l-0.98,-0.98l-0.13,-0.13h-2.49l-0.13,0.13l-0.98,0.98l-0.25,0.25l-0.99,0.99l-0.13,0.13v3.74l0.05,0.08l1.14,1.71l0.18,0.14l0.98,0.49l0.26,0.13l0.98,0.49h0.27l0.98,-0.49l0.26,-0.13l0.98,-0.49l0.18,-0.14l1.14,-1.71l0.05,-0.08v-3.74l-0.13,-0.13l-0.98,-0.98l-0.13,-0.13" />
<path id="cv_24" class=" ZW" d="M922.64,421.74h5.6l0.11,0.04l1.65,0.55l0.11,0.04h1.24l0.1,0.05l1.04,0.52l0.2,0.15l0.42,0.42l0.15,0.2l0.53,1.06l0.05,0.09v0.62l-0.04,0.11l-0.55,1.64l-0.09,0.21l-0.52,1.04l-0.15,0.2l-0.42,0.42l-0.21,0.14l-1.65,0.55l-0.11,0.04h0.62l0.1,0.1l0.42,0.42l0.27,0.27l0.9,0.9l0.23,0.28l0.52,1.04l0.11,0.18l1.75,2.33l0.06,0.08h-3.73l-0.04,-0.06l-1.8,-2.99l-0.08,-0.15l-0.53,-1.06l-0.15,-0.2l-0.42,-0.42l-0.09,-0.09h-0.62v-0.62h-2.49v5.6h-2.49v-13.69M930.11,424.23h-0.62h-4.36v3.74h3.73l0.22,-0.11l0.81,-0.4l0.29,-0.18l0.49,-0.49l0.07,-0.07v-1.87l-0.07,-0.07l-0.49,-0.49l-0.07,-0.07M941.93,422.36h2.49v10.58h6.84v2.49h-9.33v-13.07" />
<path id="cv_25" class=" ZW" d="M952.51,426.72l0.04,-0.08l0.54,-1.08l0.08,-0.16l0.55,-1.09l0.13,-0.17l0.44,-0.44l0.18,-0.18l0.44,-0.44l0.17,-0.13l1.09,-0.55l0.15,-0.07l1.09,-0.55l0.08,-0.04h1.87l0.15,0.04l2.2,0.55l0.2,0.07l1.76,1.18l0.13,0.2l1.08,2.16l0.12,0.32l0.55,2.18l0.04,0.15v3.11l-0.12,0.16l-1.63,2.17l-0.16,0.19l-1.77,1.18l-0.2,0.07l-2.2,0.55h-0.26l-2.87,-0.57l-0.17,-0.06l-1.77,-1.18l-0.12,-0.19l-1.09,-2.17l-0.1,-0.28l-0.57,-2.87l-0.02,-0.12v-1.87" />
<path id="cv_26" class=" ZW" d="M962.47,426.72l-0.06,-0.13l-0.49,-0.98l-0.2,-0.27l-0.98,-0.98l-0.13,-0.13h-3.11l-0.13,0.13l-0.98,0.98l-0.2,0.27l-0.49,0.97l-0.07,0.14v3.74l0.03,0.08l0.57,1.7l0.16,0.15l0.97,0.49l0.21,0.09l1.71,0.57l0.22,-0.04l0.97,-0.49l0.26,-0.13l0.99,-0.5l0.16,-0.14l0.57,-1.71l0.05,-0.14l0.57,-1.72v-0.15l-0.57,-1.71l-0.03,-0.08M968.07,421.74h6.85l0.11,0.11l0.4,0.4l0.11,0.11h1.25l0.11,0.11l0.4,0.4l0.21,0.21l0.41,0.41l0.15,0.19l0.55,1.09l0.04,0.08v1.24l-0.04,0.07l-0.55,1.1l-0.14,0.18l-0.4,0.4l-0.21,0.21l-0.41,0.41l-0.11,0.11h1.24l0.04,0.08l0.55,1.09l0.15,0.19l0.4,0.4l0.11,0.11v1.87l-0.03,0.07l-0.55,1.1l-0.14,0.18l-0.4,0.4l-0.21,0.21l-0.41,0.41l-0.22,0.22l-0.41,0.41l-0.11,0.11h-8.71v-13.69M975.54,429.83h-4.98v3.11h4.98l0.07,-0.07l0.49,-0.49l0.07,-0.07v-1.87l-0.07,-0.07l-0.49,-0.49l-0.07,-0.07M974.91,424.23h-1.25h-3.11v3.11h4.36l0.11,-0.11l0.39,-0.39l0.11,-0.11v-0.62l0.11,-0.11l0.39,-0.39l0.11,-0.11h-0.62v-0.62l-0.11,-0.11l-0.39,-0.39l-0.11,-0.11M981.76,421.74h6.85l0.11,0.11l0.4,0.4l0.11,0.11h1.24l0.11,0.11l0.4,0.4l0.21,0.21l0.41,0.41l0.15,0.19l0.55,1.09l0.04,0.08v1.24l-0.04,0.07l-0.55,1.1l-0.14,0.18l-0.4,0.4l-0.21,0.21l-0.41,0.41l-0.11,0.11h0.62l0.15,0.15l0.94,0.94l0.26,0.26l0.41,0.41l0.11,0.11v1.87l-0.03,0.07l-0.55,1.1l-0.14,0.18l-0.4,0.4l-0.21,0.21l-0.41,0.41l-0.22,0.22l-0.41,0.41l-0.11,0.11h-8.71v-13.69M989.23,429.83h-0.62h-4.36v3.11h4.98l0.09,-0.09l0.44,-0.44l0.09,-0.09v-1.87l-0.09,-0.09l-0.44,-0.44l-0.09,-0.09M988.6,424.23h-1.24h-3.11v3.11h4.36l0.11,-0.11l0.39,-0.39l0.11,-0.11v-0.62l0.11,-0.11l0.39,-0.39l0.11,-0.11h-0.62v-0.62l-0.11,-0.11l-0.39,-0.39l-0.11,-0.11M996.69,421.74l0.04,0.06l3.64,5.46l0.05,0.07l0.04,-0.07l3.04,-5.46l0.04,-0.07h3.11l-0.12,0.2l-4.73,7.69l-0.12,0.2v5.6h-3.11v-5.6l-0.12,-0.19l-4.74,-7.7l-0.12,-0.19h3.11M1083.81,609.09l-0.08,-0.01l-13.54,-2.46l-0.07,-0.01l0.07,0.01l13.54,2.46l0.08,0.01M1083.81,609.09l-0.06,0.08l-7.97,10.42l-0.07,0.05l-0.07,-0.16l-5.44,-12.7l-0.08,-0.18l0.17,0.03l13.34,2.43l0.17,0.03M1079.46,613.45l0.06,0.05l24.77,18.58l0.06,0.04l-0.09,0.09l-1.07,1.07l-0.09,0.09l-0.06,-0.05l-24.15,-19.2l-0.06,-0.05l0.04,-0.04l0.54,-0.54l0.04,-0.04M1108.7,627.14h6.84v1.87h-4.98v1.87h4.98v1.24h-4.98v2.49h5.6v1.87h-7.47v-9.34M1117.42,627.14h1.87v7.47h4.98v1.87h-6.84v-9.34M1125.5,627.14h6.84v1.87h-4.98v1.87h4.36v1.24h-4.36v2.49h4.98v1.87h-6.84v-9.34" />
<path id="cv_27" class=" ZW" d="M1134.22,629.63l0.06,-0.13l0.5,-0.99l0.19,-0.25l0.99,-0.99l0.13,-0.13h3.73l0.12,0.06l0.99,0.5l0.19,0.19l0.5,0.99l0.06,0.13v0.62l-0.07,0.02l-1.72,0.57l-0.08,0.03v-0.62l-0.11,-0.11l-0.41,-0.41l-0.1,-0.1h-0.62l-0.11,-0.11l-0.41,-0.41l-0.14,-0.07l-0.07,0.07l-0.42,0.42l-0.22,0.16l-1,0.5l-0.12,0.06v0.62l-0.06,0.12l-0.5,1l-0.04,0.19l0.58,1.73l0.02,0.07v0.62l0.1,0.1l0.43,0.43l0.22,0.16l1,0.5h0.19l0.03,-0.03l0.42,-0.42l0.1,-0.1h0.62l0.1,-0.1l0.42,-0.42l0.1,-0.1v-1.24l0.08,0.03l1.72,0.57l0.07,0.03l-0.02,0.07l-0.57,1.72l-0.12,0.17l-0.42,0.42l-0.23,0.16l-0.99,0.5l-0.12,0.06h-3.11l-0.13,-0.13l-0.99,-0.99l-0.19,-0.25l-0.5,-0.99l-0.09,-0.2l-0.57,-1.72l0.02,-0.27l0.53,-2.1l0.05,-0.19M1142.93,627.14h7.47v1.87h-3.11v7.47h-1.87v-7.47h-2.49v-1.87" />
<path id="cv_28" class=" ZW" d="M1151.02,627.14h4.36h1.87l0.12,0.12l0.38,0.38l0.23,0.23l0.39,0.39l0.12,0.12v0.62l0.13,0.13l0.37,0.37l0.13,0.13l-0.09,0.18l-0.44,0.88l-0.1,0.19v0.62l-0.18,0.09l-0.88,0.44l-0.19,0.09h-0.62l0.12,0.12l0.38,0.38l0.12,0.12v0.62l0.13,0.13l0.37,0.37l0.23,0.23l0.39,0.39l0.21,0.25l1.07,1.61l0.09,0.13h-2.49l-0.08,-0.13l-1.07,-1.61l-0.18,-0.32l-0.44,-0.88l-0.21,-0.31l-0.38,-0.38l-0.12,-0.12h-1.87v3.73h-1.87v-9.34M1156,629.01h-0.62l-2.49,1.87h3.73v-0.62l0.07,-0.07l0.49,-0.49l0.07,-0.07h-0.62v-0.62h-0.62M1162.22,627.14v9.34h-1.87v-9.34h1.87" />
<path id="cv_29" class=" ZW" d="M1164.08,632.12v-2.49l0.13,-0.13l0.99,-0.99l0.24,-0.24l1,-1l0.13,-0.13h3.11l0.12,0.06l0.99,0.5l0.19,0.19l0.5,0.99l0.17,0.23l0.41,0.41l0.08,0.11l-0.05,0.02l-1.72,0.57l-0.18,-0.08l-0.41,-0.41l-0.1,-0.1v-0.62h-0.62l-0.1,-0.1l-0.42,-0.42l-0.17,-0.06l-0.05,0.02l-1,0.5l-0.22,0.16l-0.42,0.42l-0.2,0.2l-0.42,0.42l-0.1,0.1v3.11l0.1,0.1l0.43,0.43l0.2,0.2l0.42,0.42l0.2,0.2l0.43,0.43l0.17,0.06l0.04,-0.02l1,-0.5l0.12,-0.06h0.62v-0.62l0.06,-0.12l0.5,-1l0.06,-0.12l0.08,0.03l1.72,0.57l0.07,0.03l-0.02,0.07l-0.57,1.72l-0.15,0.14l-0.99,0.5l-0.22,0.16l-0.42,0.42l-0.1,0.1h-3.11l-0.13,-0.13l-0.99,-0.99l-0.24,-0.24l-1,-1l-0.12,-0.12v-1.87M1176.53,627.14h1.87l0.09,0.21l3.57,8.92l0.08,0.21h-2.49l-0.02,-0.06l-0.58,-1.73l-0.02,-0.07h-3.73l-0.02,0.07l-0.58,1.73l-0.02,0.06h-1.87l0.08,-0.2l3.57,-8.92l0.09,-0.21M1177.12,629.71l-0.06,0.15l-1.07,2.66l-0.06,0.14l-0.03,0.08l2.46,-0.08l-0.06,-0.15l-1.07,-2.66l-0.06,-0.14l-0.03,-0.08M1182.75,627.14h1.87v7.47h4.98v1.87h-6.84v-9.34M1194.58,627.14h6.22l0.14,0.14l0.35,0.35l0.14,0.14v0.62l0.14,0.14l0.35,0.35l0.13,0.13v1.87l-0.14,0.14l-0.35,0.35l-0.27,0.27l-0.36,0.36l-0.14,0.14h-1.24l0.13,0.13l0.35,0.35l0.27,0.27l0.36,0.36l0.14,0.14v0.62l0.14,0.14l0.35,0.35l0.23,0.28l1.05,1.58l0.09,0.14h-1.87l-0.14,-0.14l-1.58,-1.58l-0.22,-0.29l-0.47,-0.93l-0.21,-0.29l-0.36,-0.36l-0.13,-0.13h-1.25v3.73h-1.87v-9.34M1199.55,629.01h-0.62h-2.49v1.87h3.73v-1.87h-0.62" />
<path id="cv_30" class=" ZW" d="M1203.29,630.87l0.04,-0.08l0.54,-1.08l0.2,-0.25l0.3,-0.3l0.17,-0.17v-0.62l0.15,-0.15l0.31,-0.31l0.31,-0.31l0.32,-0.32l0.15,-0.15h3.73l0.24,0.16l1.39,0.93l0.28,0.24l0.54,1.08l0.08,0.25l0.54,2.16l-0.02,0.35l-0.5,1.49l-0.1,0.27l-0.54,1.09l-0.27,0.23l-1.39,0.93l-0.24,0.16h-3.73l-0.09,-0.09l-1.07,-1.07l-0.13,-0.17l-0.54,-1.08l-0.11,-0.28l-0.5,-1.49l-0.06,-0.18v-1.24" />
<path id="cv_31" class=" ZW" d="M1210.13,630.25l-0.13,-0.13l-0.36,-0.36l-0.25,-0.25l-0.36,-0.36l-0.27,-0.2l-0.98,-0.49h-0.2l-0.07,0.07l-0.35,0.35l-0.26,0.2l-0.98,0.49l-0.13,0.07v0.62l-0.05,0.14l-0.53,1.6l0.03,0.26l0.49,0.97l0.07,0.14v0.62l0.14,0.07l0.97,0.49l0.28,0.21l0.34,0.34l0.19,0.12l0.08,-0.04l0.97,-0.49l0.27,-0.2l0.35,-0.35l0.26,-0.26l0.36,-0.36l0.18,-0.27l0.53,-1.6l-0.02,-0.27l-0.49,-0.98l-0.06,-0.13" />
<path id="cv_32" class=" ZW" d="M1213.87,630.87v-1.25l0.16,-0.16l0.3,-0.3l0.17,-0.17v-0.62l0.15,-0.15l0.31,-0.31l0.31,-0.31l0.32,-0.32l0.15,-0.15h4.36l0.09,0.09l1.07,1.07l0.13,0.17l0.54,1.08l0.08,0.25l0.54,2.16l-0.02,0.35l-0.5,1.49l-0.1,0.27l-0.54,1.09l-0.13,0.17l-1.06,1.06l-0.09,0.09h-3.73l-0.24,-0.16l-1.38,-0.92l-0.28,-0.24l-0.54,-1.08l-0.11,-0.28l-0.5,-1.49l-0.02,-0.27l0.54,-1.08l0.04,-0.08" />
<path id="cv_33" class=" ZW" d="M1218.85,629.01l-0.13,-0.13l-0.36,-0.36l-0.19,-0.1l-0.07,0.03l-0.98,0.49l-0.27,0.2l-0.35,0.35l-0.26,0.26l-0.36,0.36l-0.13,0.13v3.11l0.14,0.14l0.34,0.34l0.27,0.27l0.36,0.36l0.26,0.2l0.98,0.49h0.2l0.06,-0.06l0.35,-0.35l0.27,-0.2l0.98,-0.49l0.13,-0.07v-0.62l0.04,-0.13l0.53,-1.6l-0.02,-0.27l-0.49,-0.98l-0.07,-0.13v-0.62l-0.13,-0.07l-0.98,-0.49l-0.13,-0.06M1223.82,627.14h3.11l0.03,0.13l1.19,5.96l0.03,0.13l0.04,-0.13l1.79,-5.97l0.04,-0.13h3.11v9.34h-1.87v-7.47l-0.03,0.11l-1.81,7.25l-0.03,0.11h-1.87l-0.03,-0.11l-1.81,-7.25l-0.03,-0.11v7.47h-1.87v-9.34" />
<path id="cv_34" class=" nZW sLW_0_6" d="M1316.54,577.97V863.65M1324.01,578.59V863.65M566.08,579.83V863.65M573.55,579.83V863.65M938.82,114.26V400.57M946.29,114.26V401.19M566.08,114.26V400.57M573.55,114.26V401.19M1316.54,114.26V400.57M1324.01,114.26V401.19M215.12,577.96H467.13M535.59,577.96h71.56M676.22,577.96H793.83M215.74,407.42H467.13M535.59,407.42h71.56M676.22,407.42H1207.64M1276.72,407.42h86.5M1431.66,407.42H1666.26M215.74,400.57H467.13M535.59,400.57h71.56M676.22,400.57H1207.64M1276.72,400.57h86.5M1431.66,400.57H1666.26M1089.41,577.96H1207.64M1276.72,577.96h86.5M1431.66,577.96H1667.5M215.74,571.12H467.13M535.59,571.12h71.56M676.22,571.12H1207.64M1276.72,571.12h86.5M1431.66,571.12H1666.26M938.82,685.02v14.32M938.82,693.72V863.65M946.29,685.64v13.69M946.29,699.44V863.65" />
<path id="cv_35" class=" ZW" d="M1055.19,796.43l0.02,0.06l3.07,9.22l0.02,0.06l0.02,-0.06l3.07,-9.22l0.02,-0.06h2.49l-0.07,0.2l-4.22,12.06l-0.07,0.2h-3.11l-0.07,-0.2l-4.22,-12.06l-0.07,-0.2h3.11" />
<path id="cv_36" class=" ZW" d="M1057.68,780.87l0.02,-0.05l0.59,-1.77l0.06,-0.13l0.54,-1.09l0.16,-0.16l1.64,-1.1l0.18,-0.11l1.1,-0.55l0.07,-0.04h1.87l0.05,0.02l1.76,0.59l0.1,0.03l1.77,0.59l0.09,0.09l0.55,1.1l0.07,0.14l0.55,1.11v0.08l-0.11,0.03l-2.19,0.55l-0.15,0.04v-0.62l-0.12,-0.12l-0.39,-0.38l-0.19,-0.16l-1.1,-0.55l-0.08,-0.04h-2.49l-0.07,0.04l-1.1,0.55l-0.09,0.08l-0.59,1.77l-0.02,0.05v3.73l0.04,0.07l0.55,1.1l0.11,0.11l1.1,0.55l0.13,0.06l1.76,0.59l0.05,0.02h0.62l0.12,-0.12l0.38,-0.39l0.11,-0.11h0.62l0.12,-0.12l0.39,-0.38l0.12,-0.12v-1.87h-2.49v-1.87h5.6v4.98l-0.07,0.04l-1.1,0.55l-0.14,0.07l-1.11,0.55l-0.13,0.06l-1.76,0.59l-0.05,0.02h-3.11l-0.06,-0.02l-1.76,-0.59l-0.13,-0.1l-1.09,-1.09l-0.12,-0.16l-0.55,-1.1l-0.07,-0.14l-0.55,-1.11l-0.06,-0.13l-0.59,-1.76v-0.1l0.59,-1.77l0.02,-0.05M1067.63,796.43h3.11l0.06,0.15l4.86,12.15l0.06,0.15h-3.11l-0.07,-0.17l-1.11,-2.77l-0.07,-0.17h-4.98l-0.03,0.17l-0.55,2.77l-0.03,0.17h-3.11l0.06,-0.16l4.85,-12.14l0.06,-0.16M1068.88,798.92l-0.01,0.04l-0.03,0.08l-1.78,4.74l-0.03,0.09l-0.01,0.04h3.73l-0.01,-0.04l-0.03,-0.08l-1.78,-4.74l-0.03,-0.09l-0.01,-0.04M1075.1,775.89h3.11l0.05,0.14l4.87,12.78l0.06,0.14h-3.11l-0.03,-0.17l-0.55,-2.77l-0.03,-0.17h-5.6l-0.03,0.17l-0.55,2.77l-0.03,0.17h-3.11l0.05,-0.14l4.87,-12.78l0.05,-0.14M1076.34,779.01v0.04l-0.01,0.04v0.04l-1.19,4.74v0.04l-0.01,0.05v0.04h3.11l-0.01,-0.04l-0.03,-0.08l-1.78,-4.74l-0.03,-0.09l-0.01,-0.04M1076.97,796.43h2.49v10.58h6.22v1.87h-8.71v-12.45M1082.57,775.89h9.96v2.49h-3.73v10.58h-2.49v-10.58h-3.73v-2.49M1088.17,796.43l0.02,0.06l3.07,9.22l0.02,0.06l0.02,-0.06l3.07,-9.22l0.02,-0.06h2.49l-0.07,0.2l-4.22,12.06l-0.07,0.2h-2.49l-0.08,-0.2l-4.82,-12.06l-0.08,-0.2h3.11M1094.39,775.89h9.33v2.49h-6.84v3.11h6.22v1.87h-6.22v3.73h6.84v1.87h-9.33v-13.07M1098.12,796.43h9.96v1.87h-6.84v3.11h6.22v1.87h-6.22v3.73h6.84v1.87h-9.96v-12.45" />
<path id="cv_37" class=" nZW sLW_0_6" d="M1141.68,800.17v1.87h-21.16v-1.87h21.16M1141.68,855.56v1.87h-21.16v-1.87h21.16M1141.68,884.82v2.49h-21.16v-2.49h21.16M1098.12,815.73h0.62l0.03,0.02l0.04,0.02l0.04,0.02l0.99,0.5l0.04,0.02l0.05,0.03l0.04,0.02v1.24l0.13,0.13l0.36,0.36l0.12,0.17l-0.02,0.04l-0.02,0.04l-0.5,0.99l-0.02,0.05l-0.02,0.05l-0.02,0.04v0.62l-0.04,0.02l-0.04,0.02l-0.04,0.02l-0.99,0.5l-0.05,0.02l-0.05,0.02l-0.04,0.02h-1.87l-0.13,-0.13l-0.36,-0.36l-0.26,-0.26l-0.36,-0.36l-0.13,-0.13v-1.87l0.02,-0.04l0.02,-0.05l0.02,-0.04l0.5,-0.99l0.02,-0.05l0.03,-0.05l0.15,-0.16l0.36,-0.36l0.13,-0.13h1.24M1098.12,840.63h0.62l0.03,0.02l0.04,0.02l0.04,0.02l0.99,0.5l0.04,0.02l0.05,0.03l0.04,0.02v1.24l0.13,0.13l0.36,0.36l0.12,0.17l-0.02,0.04l-0.02,0.04l-0.5,0.99l-0.02,0.05l-0.02,0.05l-0.02,0.04v0.62l-0.04,0.02l-0.04,0.02l-0.04,0.02l-0.99,0.5l-0.05,0.02l-0.05,0.02l-0.04,0.02h-1.87l-0.13,-0.13l-0.36,-0.36l-0.26,-0.26l-0.36,-0.36l-0.13,-0.13v-1.87l0.02,-0.04l0.02,-0.05l0.02,-0.04l0.5,-0.99l0.02,-0.05l0.03,-0.05l0.15,-0.16l0.36,-0.36l0.13,-0.13h1.24M1105.59,828.8v-9.34h7.47v9.34M1139.82,887.31v36.1l-0.04,-0.02l-1.16,-0.58l-0.06,-0.04l-0.57,-0.57l-0.03,-0.03v-0.62h-0.62v-0.62l-0.03,-0.03l-0.57,-0.58l-0.04,-0.03l-2.45,-0.61h-0.02h-2.49v0.62l-0.02,0.02l-0.57,0.58l-0.02,0.02h-0.62v0.62h-1.24v0.62l-0.03,0.03l-0.58,0.58l-0.02,0.02h-0.62l-0.02,0.02l-0.58,0.57l-0.02,0.02h-0.62v1.25h-1.24v0.62h-3.11v-37.97M1139.82,857.43v27.39M1122.39,884.82v-27.39M1139.82,802.03v14.32h-0.62h0.01l3.09,2.47l0.02,0.02l1.84,2.46l0.02,0.03l1.24,3.71v0.03l0.62,3.72v0.02l-0.62,3.72v0.03l-1.24,3.71l-0.01,0.02l-1.85,3.08l-0.03,0.04l-2.46,2.46l-0.02,0.02v13.69M1122.39,855.56v-13.69l-0.02,-0.02l-2.44,-2.45l-0.03,-0.04l-1.85,-3.08l-0.01,-0.03l-1.23,-3.71v-0.03l-0.62,-3.7v-0.02l0.62,-3.71v-0.02l1.23,-3.71l0.03,-0.04l1.83,-2.44l0.03,-0.04l2.44,-2.44l0.03,-0.03v-14.31M1122.39,800.17v-34.86l0.05,0.02l1.15,0.57l0.05,0.02v0.62l0.02,0.02l0.57,0.57l0.04,0.04l0.58,0.58l0.04,0.04l0.58,0.58l0.04,0.03l2.45,0.61h0.02h2.49v-0.62l0.03,-0.03l0.57,-0.57l0.02,-0.02h0.62v-0.62h0.62l0.02,-0.02l0.58,-0.58l0.03,-0.03l0.58,-0.58l0.03,-0.03h0.62l0.02,-0.02l0.57,-0.57l0.04,-0.04l0.58,-0.58l0.03,-0.03v-0.62h1.25v-0.62h3.11v36.72M1096.88,820.71v19.92h1.87v-19.92h-1.87M1098.75,828.8h17.42M1098.75,830.67h17.42" />
<path id="cv_38" class=" ZW" d="M1057.05,615.31l0.15,0.19l8.41,10.81l0.14,0.2l-0.16,0.03l-13.34,2.43l-0.17,0.03l0.06,-0.17l4.85,-13.35l0.06,-0.17M1065.76,626.51l-0.07,-0.09l-8.57,-11.02l-0.07,-0.09l0.07,0.09l8.57,11.02l0.07,0.09M1059.54,626.51L1080.07,739.78v0.02l-1.22,0.61h-0.02L1058.3,626.53v-0.02h1.24" />
<path id="cv_39" class=" nZW sLW_0_6" d="M203.91,103.67H1678.06h0.02V399.93v0.02H1875.33V577.92v0.04H1678.11l-0.03,0.02V873.6H1207.01l1.87,-4.98l1.24,-4.98h0.01H1668.11v-0.01V540.62l0.02,-0.01h4.94l0.02,0.01v26.74h0.02H1864.72h0.03V409.92l-0.02,-0.02H1673.1v0.03v28.6h-0.03h-4.95V114.25H214.51h-0.02V438.52v0.01h-4.95h-0.03v-28.6v-0.03H16.62l-0.02,0.02V567.36h0.03H209.48h0.02v-27.99l0.02,-0.02h4.94l0.02,0.01V863.63l0.01,0.01H989.2h0.02l2.49,9.96H203.91V577.98l-0.03,-0.02H6.03v-0.04V399.32H203.91v-0.02V103.67M467.13,400.56v6.85M535.58,400.56v6.85M607.14,400.56v6.85M676.21,400.56v6.85" />
<path id="cv_40" class="tmsPoints" d="M1122.71,841.87h0.600000" />
</g>
<g id="cvclr_41" stroke="#000" fill="none">
<path id="cv_42" class=" ZW" d="M461.84,1210.16l0.01,-0.03l1.22,-3.65l0.04,-0.1l1.18,-2.36l0.08,-0.12l1.77,-2.36l0.11,-0.12l2.36,-2.36l0.1,-0.08l3.01,-1.21l0.08,-0.03l3.01,-1.21l0.08,-0.02l3.65,-0.61h0.08l3,0.6l0.09,0.03l3,1.2l0.08,0.03l3.01,1.21l0.11,0.08l2.36,2.36l0.1,0.12l1.77,2.36l0.08,0.11l1.77,2.37l0.05,0.1l0.61,3.64l0.02,0.09l0.6,3v0.08l-0.61,3.65l-0.02,0.08l-0.6,3l-0.04,0.09l-1.8,3l-0.08,0.11l-1.77,2.36l-0.11,0.1l-2.36,1.77l-0.1,0.07l-3.01,1.81l-0.08,0.04l-3.01,1.21l-0.04,0.02h-6.81l-0.05,-0.02l-3,-1.2l-0.09,-0.05l-3,-1.8l-0.11,-0.08l-2.36,-1.77l-0.1,-0.11l-1.77,-2.36l-0.06,-0.1l-1.21,-3.01l-0.03,-0.07l-1.21,-3.02l-0.02,-0.08l-0.61,-3.64v-0.09l0.6,-3v-0.05" />
<path id="cv_43" class=" ZW" d="M461.84,1352.05v-0.03l0.61,-3.65l0.05,-0.1l1.77,-2.36l0.08,-0.11l1.77,-2.37l0.11,-0.12l2.36,-2.36l0.1,-0.08l3.01,-1.21l0.08,-0.03l3.01,-1.21l0.09,-0.03l3,-0.6h0.08l3.65,0.61l0.08,0.02l3,1.2l0.08,0.03l3.01,1.21l0.11,0.08l2.36,2.36l0.1,0.12l1.77,2.36l0.08,0.11l1.77,2.37l0.05,0.1l0.61,3.64l0.02,0.09l0.6,3v0.08l-0.61,3.65l-0.02,0.08l-0.6,3l-0.04,0.09l-1.8,3l-0.08,0.11l-1.77,2.36l-0.11,0.1l-2.36,1.77l-0.1,0.07l-3.01,1.81l-0.08,0.04l-3.01,1.21l-0.04,0.02h-6.81l-0.05,-0.02l-3,-1.2l-0.09,-0.05l-3,-1.8l-0.11,-0.08l-2.36,-1.77l-0.1,-0.11l-1.77,-2.36l-0.07,-0.1l-1.81,-3.01l-0.03,-0.08l-0.6,-3.01l-0.01,-0.08l-0.61,-3.64v-0.09l0.6,-3v-0.05" />
<path id="cv_44" class=" ZW" d="M987.98,833.16l1.24,-10.57v-0.02l3.11,-9.94v-0.01l3.73,-9.32v-0.01l4.97,-9.32v-0.01l5.59,-8.7v-0.01l6.21,-8.08l0.01,-0.01l7.46,-7.46l0.01,-0.01l7.46,-6.84l0.01,-0.01l8.7,-6.22h0.01l9.32,-5.59h0.01l9.94,-4.35h0.02l10.57,-3.73l10.58,-2.49l11.2,-1.25l11.2,-0.62l11.82,0.62l10.58,1.25l11.2,2.49l9.96,3.73l9.96,4.36l9.33,5.6l8.71,6.22l8.09,6.85l6.84,7.46l0.01,0.01l6.84,8.09l5.6,8.71l4.36,9.34l3.73,9.34l3.11,9.96l1.87,10.58l0.62,11.2l-0.62,10.58l-1.87,10.58l-3.11,9.96l-3.73,9.96l-4.36,8.71l-5.6,8.71l-6.84,8.71l-6.84,7.47l-8.09,6.85l-8.71,5.6l-9.33,5.6l-9.96,4.36l-9.96,3.73l-11.2,2.49l-10.58,1.87h-23.03l-11.2,-1.87l-10.58,-2.49l-10.58,-3.73l-9.96,-4.36h-0.01l-9.32,-5.59h-0.01l-8.7,-5.59h-0.01l-7.46,-6.84l-0.01,-0.01l-7.46,-7.46l-0.01,-0.01l-6.21,-8.7v-0.01l-5.59,-8.7v-0.01l-4.97,-8.7v-0.01l-3.73,-9.94v-0.01l-3.11,-9.94v-0.02l-1.24,-10.56v-0.02l-0.62,-10.56v-0.02l0.62,-11.19" />
<path id="cv_45" class=" nZW sLW_0_6" d="M1099.37,738.55l11.81,0.62h0.02l10.56,1.24h0.02l11.18,2.49h0.02l9.94,3.73h0.01l9.94,4.35h0.01l9.32,5.59h0.01l8.7,6.21h0.01l8.08,6.84l0.01,0.01l6.83,7.46l0.01,0.01l6.83,8.08v0.01l5.59,8.7v0.01l4.35,9.32v0.01l3.73,9.32v0.01l3.11,9.95l1.87,10.58l0.62,11.2l-0.62,10.58l-1.87,10.58l-3.11,9.96l-3.73,9.96l-4.36,8.71l-5.6,8.71l-6.84,8.71l-6.84,7.46l-0.01,0.01l-8.09,6.84l-8.71,5.6l-9.33,5.6l-9.96,4.36l-9.96,3.73l-11.2,2.49l-10.58,1.87h-23.02l-11.2,-1.87l-10.58,-2.49l-10.58,-3.73l-9.96,-4.36l-9.33,-5.6l-8.71,-5.6l-0.01,-0.01l-7.45,-6.83l-0.01,-0.01l-7.45,-7.46l-6.22,-8.71l-5.6,-8.71l-4.98,-8.71l-3.73,-9.96l-3.11,-9.96l-1.25,-10.58l-0.62,-10.58l0.62,-11.2l1.24,-10.58l3.11,-9.96v-0.01l3.73,-9.32v-0.01l4.97,-9.32v-0.01l5.59,-8.7v-0.01l6.21,-8.08l0.01,-0.01l7.46,-7.46l0.01,-0.01l7.46,-6.84h0.01l8.7,-6.21h0.01l9.32,-5.59h0.01l9.94,-4.35h0.02l10.56,-3.73h0.02l10.56,-2.49h0.02l11.18,-1.24h0.02l11.18,-0.62" />
</g>
<g id="cvclr_46" stroke="#B7B7B7" fill="none">
<path id="cv_47" class=" ZW" d="M1095.63,818.22v-0.62l0.02,-0.03l0.02,-0.04l0.02,-0.04l0.5,-0.99l0.02,-0.04l0.03,-0.05l0.15,-0.17l0.36,-0.36l0.13,-0.13h1.87l0.04,0.02l0.04,0.02l0.04,0.02l0.98,0.49l0.05,0.02l0.05,0.03l0.04,0.02v1.24l0.13,0.13l0.36,0.36l0.11,0.17l-0.02,0.04l-0.02,0.04l-0.5,0.99l-0.02,0.05l-0.02,0.05l-0.02,0.04v0.62l-0.04,0.02l-0.04,0.02l-0.04,0.02l-0.99,0.5l-0.05,0.02l-0.05,0.02l-0.04,0.02h-1.87l-0.13,-0.13l-0.36,-0.36l-0.25,-0.25l-0.36,-0.36l-0.13,-0.13v-1.25M1095.63,843.11v-0.62l0.02,-0.03l0.02,-0.04l0.02,-0.04l0.5,-0.99l0.02,-0.04l0.03,-0.05l0.15,-0.17l0.36,-0.36l0.13,-0.13h1.87l0.04,0.02l0.04,0.02l0.04,0.02l0.98,0.49l0.05,0.02l0.05,0.03l0.04,0.02v1.24l0.13,0.13l0.36,0.36l0.11,0.17l-0.02,0.04l-0.02,0.04l-0.5,0.99l-0.02,0.05l-0.02,0.05l-0.02,0.04v0.62l-0.04,0.02l-0.04,0.02l-0.04,0.02l-0.99,0.5l-0.05,0.02l-0.05,0.02l-0.04,0.02h-1.87l-0.13,-0.13l-0.36,-0.36l-0.25,-0.25l-0.36,-0.37l-0.13,-0.13v-1.24M1096.88,820.71h1.87v19.92h-1.87v-19.92" />
</g>
<g style="font-family: arialbd, helvetica, sans-serif" stroke="none" fill="#000">
<g font-size="21.358541" stroke="none" fill="#000">
<text id="cv_48" transform="scale(1.055556 1) translate(1222.86 1242.9) " >PROJECT:</text>
</g>
</g>
<g style="font-family: arial, helvetica, sans-serif" stroke="none" fill="#000">
<g font-size="26.305450" stroke="none" fill="#000">
<text id="cv_49" transform="scale(1.111111 1) translate(1379.79 1206.97) " >Edwards</text>
<text id="cv_50" transform="scale(1.111111 1) translate(822.58 1224.41) " >Speaker/strobe</text>
</g>
<g font-size="23.799518" stroke="none" fill="#000">
<text id="cv_51" transform="scale(1.111111 1) translate(1163.95 1345.14) " >DRAWN:</text>
<text id="cv_52" transform="scale(1.111111 1) translate(1476.71 1345.14) " >BY:</text>
<text id="cv_53" transform="scale(1.111111 1) translate(1163.95 1379.84) " >FILE NAME:</text>
<text id="cv_54" transform="scale(1.111111 1) translate(459.67 1362.56) " >Signature Smoke Detector</text>
<text id="cv_55" transform="scale(1.111111 1) translate(459.71 1224.4) " >Signature Heat Detector</text>
<text id="cv_56" transform="scale(1.111111 1) translate(459.76 1271.49) " >Signature Manual Pull Station</text>
<text id="cv_57" transform="scale(1.111111 1) translate(824.95 1362.56) " >Traditional Smoke Detector</text>
<text id="cv_58" transform="scale(1.111111 1) translate(822.79 1292.54) " >Traditional Manual Pull Station</text>
<text id="cv_59" transform="scale(1.111111 1) translate(93.43 1309.91) " >Firefighter Phone Station</text>
<text id="cv_60" transform="scale(1.111111 1) translate(93.48 1362.58) " >Signature Control Relay</text>
<text id="cv_61" transform="scale(1.111111 1) translate(93.54 1258.49) " >Fire Alarm Control Unit</text>
<text id="cv_62" transform="scale(1.111111 1) translate(93.65 1220.07) " >Fire Alarm Annunciator Panel</text>
<text id="cv_63" transform="scale(1.111111 1) translate(459.98 1322.91) " >Signature Monitor Module</text>
<text id="cv_64" transform="scale(1.111111 1) translate(91.16 1405.14) " >Remote Annunciator Control Unit</text>
</g>
</g>
<g style="font-family: arialbd, helvetica, sans-serif" stroke="none" fill="#000">
<g font-size="23.607455" stroke="none" fill="#000">
<text id="cv_65" transform="scale(1.055556 1) translate(1353.13 1344.52) " >10/01/22</text>
<text id="cv_66" transform="scale(1.055556 1) translate(16.2 1259.12) " >FACU</text>
<text id="cv_67" transform="scale(1.055556 1) translate(16.2 1218.23) " >FAAP</text>
<text id="cv_68" transform="scale(1.055556 1) translate(10.79 1405.5) " >RACU</text>
</g>
</g>
<g style="font-family: arial, helvetica, sans-serif" stroke="none" fill="#000">
<g font-size="20.668698" stroke="none" fill="#000">
<text id="cv_69" transform="scale(1.111111 1) translate(1166.18 1411.44) " >REVISED:   10/01/22                            BY:  K. Lee</text>
</g>
</g>
<g style="font-family: arialbd, helvetica, sans-serif" stroke="none" fill="#000">
<g font-size="27.542031" stroke="none" fill="#000">
<text id="cv_70" transform="scale(1.055556 1) translate(446.31 1273.34) " >P</text>
</g>
<g font-size="22.485864" stroke="none" fill="#000">
<text id="cv_71" transform="scale(1.055556 1) translate(48.98 1364.34) " >CR</text>
</g>
<g font-size="13.551609" stroke="none" fill="#000">
<text id="cv_72" transform="scale(1.055556 1) translate(869.5 505.79) " >OSD</text>
<text id="cv_73" transform="scale(1.055556 1) translate(1088.91 652.19) " >OSCD</text>
</g>
</g>
<g style="font-family: arial, helvetica, sans-serif" stroke="none" fill="#000">
<g font-size="25.856369" stroke="none" fill="#000">
<text id="cv_74" transform="scale(1.055556 1) translate(1414.68 1308.36) " >FLOOR 1</text>
</g>
</g>
<g style="font-family: arial, helvetica, sans-serif" stroke="none" fill="#000">
<g font-size="31.316403" stroke="none" fill="#000">
<text id="cv_75" transform="scale(1.111111 1) translate(1252.58 1274.52) " >BLDG 1 - Administration</text>
</g>
</g>
<g style="font-family: arial, helvetica, sans-serif" stroke="none" fill="#7F0000">
<g font-size="127.588997" stroke="none" fill="#7F0000">
<text id="cv_76" transform="scale(1.111111 1) translate(338.94 1134.12) rotate(330) " >For Demonstration Purposes Only</text>
<text id="cv_77" transform="scale(1.111111 1) translate(677.88 1134.12) rotate(330) " >Tailor Made Software, Ltd</text>
</g>
</g>
</g>
<g id="layer_BLDG2_20__2D__20_SECURITY" class="layer_BLDG2_20__2D__20_SECURITY"  cvjs:layerName="BLDG2 - SECURITY" cvjs:plottable="YES"
 cvjs:status="ON" visibility="visible">
<g style="font-family: arial, helvetica, sans-serif" stroke="none" fill="#000">
<g font-size="31.316403" stroke="none" fill="#000">
<text id="cv_78" transform="scale(1.111111 1) translate(1281.95 1245.27) " >Gaylord Opreland - Demo</text>
</g>
</g>
<g style="font-family: arial, helvetica, sans-serif" stroke="none" fill="#7F0000">
<g font-size="127.588997" stroke="none" fill="#7F0000">
<text id="cv_79" transform="scale(1.111111 1) translate(338.94 1134.12) rotate(330) " >For Demonstration Purposes Only</text>
<text id="cv_80" transform="scale(1.111111 1) translate(677.88 1134.12) rotate(330) " >Tailor Made Software, Ltd</text>
</g>
</g>
</g>
<g id="layer_BASELAYER" class="layer_BASELAYER"  cvjs:layerName="BASELAYER" cvjs:plottable="YES"
 cvjs:status="ON" visibility="visible">
<g style="font-family: arial, helvetica, sans-serif" stroke="none" fill="#000">
<g font-size="26.305450" stroke="none" fill="#000">
<text id="cv_81" transform="scale(0.888889 1) translate(1619.54 1379.45) " >EdwardsRoadShow_Build1_Amin_Floor 1</text>
</g>
</g>
<g style="font-family: arial, helvetica, sans-serif" stroke="none" fill="#7F0000">
<g font-size="127.588997" stroke="none" fill="#7F0000">
<text id="cv_82" transform="scale(1.111111 1) translate(338.94 1134.12) rotate(330) " >For Demonstration Purposes Only</text>
<text id="cv_83" transform="scale(1.111111 1) translate(677.88 1134.12) rotate(330) " >Tailor Made Software, Ltd</text>
</g>
</g>
</g>
<g id="layer_ETI_20__2D__20_ADDRESSABLE_20_DEVICE_block" class="layer_ETI_20__2D__20_ADDRESSABLE_20_DEVICE_block"  cvjs:layerName="ETI - ADDRESSABLE DEVICE" cvjs:plottable="YES"
 cvjs:status="ON" visibility="visible">
<g class="_2A_U12" id="cv_Block__2A_U12_1">
<g id="cvclr_84" stroke="none" fill="#FFF" opacity="0.5">
<path id="cv_85" d="M1065.91,908.9l37.12,-0.05l-0.03,-21.75l-37.12,0.05l0.03,21.75 Z "/>
</g>
<g id="cvclr_86" stroke="#F00" fill="none">
<path id="cv_87" class="nZW sLW_0_6" d="M1065.91,908.9l37.12,-0.05l-0.03,-21.75l-37.12,0.05l0.03,21.75" />
</g>
<g id="cvclr_88" stroke="#000" fill="none">
<g style="font-family: arial, helvetica, sans-serif" stroke="none" fill="#000">
<g font-size="14.319822" stroke="none" fill="#000">
<text id="cv_89" transform="scale(1.055556 1) translate(1017.9 903.7) "  cvjs:tag='RAI' >WF</text>
</g>
<g font-size="9.546548" stroke="none" fill="#000">
<text id="cv_90" transform="scale(1.055556 1) translate(1000.23 917.96) "  cvjs:tag='FWK_DEVICE_ADDRESSES' >0010020139</text>
</g>
</g>
</g>
</g>
</g>
<g id="layer_0_block" class="layer_0_block"  cvjs:layerName="0" cvjs:plottable="YES"
 cvjs:status="ON" visibility="visible">
<g class="FirePhone cvjs_block AcDbBlockReference" cvjs:handle='315' id="cv_Block_FirePhone_2" cvjs:block='FirePhone_2' cvjs:attribId='cv_Attrib_2' cvjs:attribCount="2" >
<cvjs:attributes  id="cv_Attrib_2" >
<cvjs:attribute  id="cv_Attrib_2_1" cvjs:tag="FWK_DEVICE_ADDRESSES" cvjs:value="0010020148" />
<cvjs:attribute  id="cv_Attrib_2_2" cvjs:tag="FWK_DEVICE_TYPE" cvjs:value="FIREPHONE" />
</cvjs:attributes>
<g id="cvclr_91" stroke="none" fill="#000" opacity="0.5">
<path id="cv_92" d="M806.12,546.6l-5.09,1.57l6.63,2.95l-1.54,-4.52 Z "/>
<path id="cv_93" d="M801.81,532.68l-5.1,1.58l4.3,13.92l5.1,-1.58l-4.3,-13.92 Z "/>
<path id="cv_94" d="M796.81,534.2l4.95,-1.44l-1.98,-6.76l-2.97,8.2 Z "/>
<path id="cv_95" d="M803.09,522.86l-4.02,1.33l2.14,6.46l4.02,-1.33l-2.14,-6.46 Z "/>
<path id="cv_96" d="M809.57,543.93l-3.87,1.32l2.07,6.05l3.87,-1.32l-2.07,-6.05 Z "/>
</g>
<g id="cvclr_97" stroke="#000" fill="none">
<path id="cv_98" class=" ZW cvjs_nodes cvjs_handles AcDbPolyline" cvjs:node='NODE_1'  cvjs:roomName="216" cvjs:roomId="216" cvjs:handle="216" cvjs:bhandle='315' d="M786.07,521.18l30.85,-0.04l0.04,31.8l-30.85,0.04l-0.04,-31.8" />
<path id="cv_99" class=" ZW cvjs_nodes cvjs_handles AcDbPolyline" cvjs:node='NODE_2'  cvjs:roomName="21F" cvjs:roomId="21F" cvjs:handle="21F" cvjs:bhandle='315' d="M801.02,548.18l-4.3,-13.92l5.1,-1.58l4.3,13.92l-5.1,1.58" />
<path id="cv_100" class=" ZW cvjs_nodes cvjs_handles AcDbPolyline" cvjs:node='NODE_3'  cvjs:roomName="21B" cvjs:roomId="21B" cvjs:handle="21B" cvjs:bhandle='315' d="M799.78,526l-2.97,8.2l4.95,-1.44l-1.98,-6.76M803.09,522.86l2.14,6.46l-4.02,1.33l-2.14,-6.46l4.02,-1.33" />
<path id="cv_101" class=" ZW cvjs_nodes cvjs_handles AcDbPolyline" cvjs:node='NODE_4'  cvjs:roomName="21C" cvjs:roomId="21C" cvjs:handle="21C" cvjs:bhandle='315' d="M801.02,548.17l6.64,2.95l-1.54,-4.54l-5.09,1.59" />
<path id="cv_102" class=" ZW cvjs_nodes cvjs_handles AcDbPolyline" cvjs:node='NODE_5'  cvjs:roomName="21E" cvjs:roomId="21E" cvjs:handle="21E" cvjs:bhandle='315' d="M811.64,549.98l-2.07,-6.05l-3.87,1.32l2.07,6.05l3.87,-1.32" />
<g style="font-family: arial, helvetica, sans-serif" stroke="none" fill="#000">
<g font-size="6.517620" stroke="none" fill="#000">
<text id="cv_103" transform="scale(1.111111 1) translate(676.25 559.93) "  cvjs:tag='FWK_DEVICE_ADDRESSES' cvjs:AttributeId='cv_Attrib_2_1' cvjs:blockhandle='315' >0010020148</text>
<text id="cv_104" transform="scale(1.111111 1) translate(686.21 566.57) "  cvjs:tag='FWK_DEVICE_TYPE' cvjs:AttributeId='cv_Attrib_2_2' cvjs:blockhandle='315' >FIREPHONE</text>
</g>
</g>
<path id="cv_105" class = "ZW cvjs_nodes" cvjs:node='NODE_6' cvjs:roomName='315' cvjs:roomId='315' cvjs:block='FirePhone_2' cvjs:attribId='cv_Attrib_2' cvjs:attribCount="4" fill="transparent" d="M786.07,521.14h30.884820v31.838563h-30.884820v-31.838563" />
</g>
</g>
<g class="_2A_U7" id="cv_Block__2A_U7_3">
<g id="cvclr_106" stroke="none" fill="#FFF" opacity="0.5">
<path id="cv_107" d="M859.1,556.83h30.32v-30.32h-30.32v30.32 Z "/>
</g>
<g id="cvclr_108" stroke="#F00" fill="none">
<path id="cv_109" class="nZW sLW_0_6" d="M859.1,556.83h30.32l0,-30.32h-30.32l0,30.32" />
</g>
<g id="cvclr_110" stroke="#000" fill="none">
<g style="font-family: arial, helvetica, sans-serif" stroke="none" fill="#000">
<g font-size="21.926994" stroke="none" fill="#000">
<text id="cv_111" transform="scale(1.111111 1) translate(781.56 551.15) "  cvjs:tag='AVA1' >F</text>
</g>
<g font-size="17.054329" stroke="none" fill="#000">
<text id="cv_112" transform="scale(1.111111 1) translate(742.91 582.32) "  cvjs:tag='FWK_DEVICE_ADDRESSES' >0010020128</text>
</g>
</g>
</g>
</g>
</g>
<g id="layer_i_2D_furn_20_new_block" class="layer_i_2D_furn_20_new_block"  cvjs:layerName="i-furn new" cvjs:plottable="YES"
 cvjs:status="ON" visibility="visible">
<g class="SIGA_2D_PS cvjs_block AcDbBlockReference" cvjs:handle='319' id="cv_Block_SIGA_2D_PS_4" cvjs:block='SIGA_2D_PS_4' cvjs:attribId='cv_Attrib_3' cvjs:attribCount="3" >
<cvjs:attributes  id="cv_Attrib_3" >
<cvjs:attribute  id="cv_Attrib_3_1" cvjs:tag="SIGA-PS" cvjs:value="S" />
<cvjs:attribute  id="cv_Attrib_3_2" cvjs:tag="FWK_DEVICE_ADDRESSES" cvjs:value="0010020003" />
<cvjs:attribute  id="cv_Attrib_3_3" cvjs:tag="FWK_DEVICE_TYPE" cvjs:value="SMOKE" />
</cvjs:attributes>
<g id="cvclr_113" stroke="none" fill="#FFF" opacity="0.5">
<path id="cv_114" d="M1160.1,692.05l-9.03,-15.59l-18.01,0.02l-8.99,15.61l9.03,15.59l18.01,-0.02l8.99,-15.61 Z "/>
</g>
<g id="cvclr_115" stroke="#F0F" fill="none">
<path id="cv_116" class="nZW sLW_0_6" d="M1160.1,692.05l-9.03,-15.59l-18.01,0.02l-8.99,15.61l9.03,15.59l18.01,-0.02l8.99,-15.61" />
<g style="font-family: arial, helvetica, sans-serif" stroke="none" fill="#F0F">
<g font-size="16.304844" stroke="none" fill="#F0F">
<text id="cv_117" transform="scale(1.111111 1) translate(980.72 723.2) "  cvjs:tag='FWK_DEVICE_ADDRESSES' cvjs:AttributeId='cv_Attrib_3_2' >0010020003</text>
</g>
</g>
<path id="cv_118" class = "ZW cvjs_nodes" cvjs:node='NODE_7' cvjs:roomName='319' cvjs:roomId='319' cvjs:block='SIGA_2D_PS_4' cvjs:attribId='cv_Attrib_3' cvjs:attribCount="6" fill="transparent" d="M1124.08,676.46h36.028222v31.223384h-36.028222v-31.223384" />
</g>
<g id="cvclr_119" stroke="#000" fill="none">
<g style="font-family: arial, helvetica, sans-serif" stroke="none" fill="#000">
<g font-size="20.963370" stroke="none" fill="#000">
<text id="cv_120" transform="scale(1.111111 1) translate(1022.81 701.45) "  cvjs:tag='SIGA-PS' cvjs:AttributeId='cv_Attrib_3_1' >S</text>
</g>
</g>
</g>
</g>
<g class="SIGA_2D_PS cvjs_block AcDbBlockReference" cvjs:handle='31E' id="cv_Block_SIGA_2D_PS_5" cvjs:block='SIGA_2D_PS_5' cvjs:attribId='cv_Attrib_4' cvjs:attribCount="3" >
<cvjs:attributes  id="cv_Attrib_4" >
<cvjs:attribute  id="cv_Attrib_4_1" cvjs:tag="SIGA-PS" cvjs:value="S" />
<cvjs:attribute  id="cv_Attrib_4_2" cvjs:tag="FWK_DEVICE_ADDRESSES" cvjs:value="0010020006" />
<cvjs:attribute  id="cv_Attrib_4_3" cvjs:tag="FWK_DEVICE_TYPE" cvjs:value="SMOKE" />
</cvjs:attributes>
<g id="cvclr_121" stroke="none" fill="#FFF" opacity="0.5">
<path id="cv_122" d="M950.74,460.66l-9.03,-15.59l-18.01,0.02l-8.99,15.61l9.03,15.59l18.01,-0.02l8.99,-15.61 Z "/>
</g>
<g id="cvclr_123" stroke="#F0F" fill="none">
<path id="cv_124" class="nZW sLW_0_6" d="M950.74,460.66l-9.03,-15.59l-18.01,0.02l-8.99,15.61l9.03,15.59l18.01,-0.02l8.99,-15.61" />
<g style="font-family: arial, helvetica, sans-serif" stroke="none" fill="#F0F">
<g font-size="16.304844" stroke="none" fill="#F0F">
<text id="cv_125" transform="scale(1.111111 1) translate(792.29 491.81) "  cvjs:tag='FWK_DEVICE_ADDRESSES' cvjs:AttributeId='cv_Attrib_4_2' >0010020006</text>
</g>
</g>
<path id="cv_126" class = "ZW cvjs_nodes" cvjs:node='NODE_8' cvjs:roomName='31E' cvjs:roomId='31E' cvjs:block='SIGA_2D_PS_5' cvjs:attribId='cv_Attrib_4' cvjs:attribCount="6" fill="transparent" d="M914.71,445.07h36.028222v31.223384h-36.028222v-31.223384" />
</g>
<g id="cvclr_127" stroke="#000" fill="none">
<g style="font-family: arial, helvetica, sans-serif" stroke="none" fill="#000">
<g font-size="20.963370" stroke="none" fill="#000">
<text id="cv_128" transform="scale(1.111111 1) translate(834.38 470.05) "  cvjs:tag='SIGA-PS' cvjs:AttributeId='cv_Attrib_4_1' >S</text>
</g>
</g>
</g>
</g>
<g class="logic2 cvjs_block AcDbBlockReference" cvjs:handle='323' id="cv_Block_logic2_6" cvjs:block='logic2_6' cvjs:attribId='cv_Attrib_5' cvjs:attribCount="2" >
<cvjs:attributes  id="cv_Attrib_5" >
<cvjs:attribute  id="cv_Attrib_5_1" cvjs:tag="FWK_DEVICE_ADDRESSES" cvjs:value="0000260003" />
<cvjs:attribute  id="cv_Attrib_5_2" cvjs:tag="FWK_DEVICE_TYPE" cvjs:value="SERVICE" />
</cvjs:attributes>
<g id="cvclr_129" stroke="#F0F" fill="none">
<path id="cv_130" class="nZW sLW_0_6" d="M1639.52,797.53l-17.18,26.8M1658.05,824.31l-17.18,26.8M1639.52,797.53l18.63,26.61M1622.39,824.24l18.48,26.88" />
<g style="font-family: arial, helvetica, sans-serif" stroke="none" fill="#F0F">
<g font-size="7.688172" stroke="none" fill="#F0F">
<text id="cv_131" transform="scale(1.055556 1) translate(1519.84 858.87) "  cvjs:tag='FWK_DEVICE_ADDRESSES' cvjs:AttributeId='cv_Attrib_5_1' cvjs:blockhandle='323' >0000260003</text>
</g>
</g>
<path id="cv_132" class = "ZW cvjs_nodes" cvjs:node='NODE_9' cvjs:roomName='323' cvjs:roomId='323' cvjs:block='logic2_6' cvjs:attribId='cv_Attrib_5' cvjs:attribCount="4" fill="transparent" d="M1622.34,797.53h35.812345v53.590372h-35.812345v-53.590372" />
</g>
</g>
<g class="TAMPER cvjs_block AcDbBlockReference" cvjs:handle='332' id="cv_Block_TAMPER_7" cvjs:block='TAMPER_7' cvjs:attribId='cv_Attrib_8' cvjs:attribCount="3" >
<cvjs:attributes  id="cv_Attrib_8" >
<cvjs:attribute  id="cv_Attrib_8_1" cvjs:tag="RAI" cvjs:value="VS" />
<cvjs:attribute  id="cv_Attrib_8_2" cvjs:tag="FWK_DEVICE_ADDRESSES" cvjs:value="0010020140" />
<cvjs:attribute  id="cv_Attrib_8_3" cvjs:tag="FWK_DEVICE_TYPE" cvjs:value="TAMPER" />
</cvjs:attributes>
<g id="cvclr_133" stroke="none" fill="#FFF" opacity="0.5">
<path id="cv_134" d="M1020.12,832.58l36.92,-0.05l-0.03,-21.63l-36.92,0.05l0.03,21.63 Z "/>
</g>
<g id="cvclr_135" stroke="#F0F" fill="none">
<path id="cv_136" class=" nZW sLW_0_6 cvjs_nodes cvjs_handles AcDbPolyline" cvjs:node='NODE_10'  cvjs:roomName="260" cvjs:roomId="260" cvjs:handle="260" cvjs:bhandle='332' d="M1020.14,837.42l37.23,-0.05l0.03,23.39l-37.23,0.05l-0.03,-23.39" />
<path id="cv_137" class="nZW sLW_0_6" d="M1020.12,832.58l36.92,-0.05l-0.03,-21.63l-36.92,0.05l0.03,21.63M1020.14,837.42l37.26,23.35M1057.38,837.38l-37.21,23.44M1038.72,832.56l0.05,16.54" />
<path id="cv_138" class = "ZW cvjs_nodes" cvjs:node='NODE_11' cvjs:roomName='332' cvjs:roomId='332' cvjs:block='TAMPER_7' cvjs:attribId='cv_Attrib_8' cvjs:attribCount="6" fill="transparent" d="M1020.1,810.91h37.308554v49.907245h-37.308554v-49.907245" />
</g>
<g id="cvclr_139" stroke="#000" fill="none">
<g style="font-family: arial, helvetica, sans-serif" stroke="none" fill="#000">
<g font-size="13.078642" stroke="none" fill="#000">
<text id="cv_140" transform="scale(1.111111 1) translate(926.48 827.41) "  cvjs:tag='RAI' cvjs:AttributeId='cv_Attrib_8_1' cvjs:blockhandle='332' >VS</text>
</g>
<g font-size="8.719095" stroke="none" fill="#000">
<text id="cv_141" transform="scale(1.111111 1) translate(910.92 870) "  cvjs:tag='FWK_DEVICE_ADDRESSES' cvjs:AttributeId='cv_Attrib_8_2' cvjs:blockhandle='332' >0010020140</text>
</g>
</g>
</g>
</g>
<g class="VIS cvjs_block AcDbBlockReference" cvjs:handle='337' id="cv_Block_VIS_8" cvjs:block='VIS_8' cvjs:attribId='cv_Attrib_9' cvjs:attribCount="2" >
<cvjs:attributes  id="cv_Attrib_9" >
<cvjs:attribute  id="cv_Attrib_9_1" cvjs:tag="FWK_DEVICE_ADDRESSES" cvjs:value="0010020145" />
<cvjs:attribute  id="cv_Attrib_9_2" cvjs:tag="FWK_DEVICE_TYPE" cvjs:value="VISIBLE" />
</cvjs:attributes>
<g id="cvclr_142" stroke="#F00" fill="none">
<path id="cv_143" class=" nZW sLW_0_6 cvjs_nodes cvjs_handles AcDbCircle" cvjs:node='NODE_12'  cvjs:roomName="270" cvjs:roomId="270" cvjs:handle="270" cvjs:bhandle='337' d="M1028.03,532.91l-0.13,-1.61l-0.4,-1.63l-0.69,-1.6l-1.07,-1.62l-1.61,-1.59l-1.63,-1.06l-1.61,-0.68l-1.64,-0.39l-1.61,-0.11l-1.61,0.14l-1.63,0.41l-1.6,0.7l-1.61,1.08l-1.58,1.62l-1.05,1.63l-0.67,1.61l-0.38,1.64l-0.1,1.61l0.15,1.61l0.42,1.63l0.71,1.6l1.09,1.6l1.63,1.57l1.64,1.04l1.62,0.66l1.64,0.36l1.61,0.09l1.61,-0.16l1.63,-0.43l1.65,-0.75l1.64,-1.15l1.5,-1.6l0.99,-1.59l0.65,-1.62l0.35,-1.64l0.09,-1.36" />
<path id="cv_144" class="nZW sLW_0_6" d="M1002.58,517.88l6.97,6.95M1032.47,517.72l-6.95,6.97M1009.45,541.23l-6.95,6.97M1025.73,541.14l6.97,6.95M1026.5,551.97l-17.49,0.02M1017.74,543.23l0.01,8.75" />
<path id="cv_145" class = "ZW cvjs_nodes" cvjs:node='NODE_13' cvjs:roomName='337' cvjs:roomId='337' cvjs:block='VIS_8' cvjs:attribId='cv_Attrib_9' cvjs:attribCount="4" fill="transparent" d="M1002.5,517.72h30.195103v34.270309h-30.195103v-34.270309" />
</g>
<g id="cvclr_146" stroke="#000" fill="none">
<g style="font-family: arial, helvetica, sans-serif" stroke="none" fill="#000">
<g font-size="11.912153" stroke="none" fill="#000">
<text id="cv_147" transform="scale(1.111111 1) translate(886.7 568.6) "  cvjs:tag='FWK_DEVICE_ADDRESSES' cvjs:AttributeId='cv_Attrib_9_1' cvjs:blockhandle='337' >0010020145</text>
</g>
</g>
</g>
</g>
</g>
<g id="layer_ETI_20__2D__20_REV01_block" class="layer_ETI_20__2D__20_REV01_block"  cvjs:layerName="ETI - REV01" cvjs:plottable="YES"
 cvjs:status="ON" visibility="visible">
<g class="_2A_U11" id="cv_Block__2A_U11_9">
<g id="cvclr_148" stroke="none" fill="#FFF" opacity="0.5">
<path id="cv_149" d="M714.59,732.42l25.22,-0.03l0.03,25.22l-25.22,0.03l-0.03,-25.22 Z "/>
</g>
<g id="cvclr_150" stroke="none" fill="#0F0" opacity="0.5">
<path id="cv_151" d="M745.93,757.58v-5.55h-6.11v5.55h6.11 Z "/>
</g>
<g id="cvclr_152" stroke="#0F0" fill="none">
<path id="cv_153" class=" nZW sLW_0_6" d="M714.59,732.42l25.22,-0.03l0.03,25.22l-25.22,0.03l-0.03,-25.22" />
<path id="cv_154" class=" nZW sLW_0_6" d="M733.19,726.37l-0.23,-1.61l-0.74,-1.62l-1.57,-1.62l-1.59,-0.78l-1.61,-0.27l-1.62,0.18l-1.61,0.67l-1.61,1.42l-0.9,1.62l-0.34,1.59l0.1,1.63l0.58,1.6l1.25,1.6l1.62,1.04l1.61,0.44l1.59,-0.02l1.6,-0.47l1.6,-1.07l1.2,-1.59l0.55,-1.61l0.1,-1.11M739.82,757.58h6.11v-5.55h-6.11v5.55" />
<path id="cv_155" class="nZW sLW_0_6" d="M714.59,732.42l25.22,-0.03l0.03,25.22l-25.22,0.03l-0.03,-25.22M749.02,754.77h-3.09M749.02,753.91l0,2.18" />
</g>
<g id="cvclr_156" stroke="#000" fill="none">
<g style="font-family: arial, helvetica, sans-serif" stroke="none" fill="#000">
<g font-size="17.759225" stroke="none" fill="#000">
<text id="cv_157" transform="scale(1.111111 1) translate(650.72 752.55) "  cvjs:tag='G1-HDVM' >F</text>
</g>
</g>
</g>
<g id="cvclr_158" stroke="#F0F" fill="none">
<g style="font-family: arial, helvetica, sans-serif" stroke="none" fill="#F0F">
<g font-size="13.812731" stroke="none" fill="#F0F">
<text id="cv_159" transform="scale(1.111111 1) translate(616.11 774) "  cvjs:tag='FWK_DEVICE_ADDRESSES' >0010020158</text>
<text id="cv_160" transform="scale(1.111111 1) translate(615.32 787.62) "  cvjs:tag='FWK_DEVICE_TYPE' >AUDIBLE</text>
</g>
</g>
</g>
</g>
<g class="_2A_U11" id="cv_Block__2A_U11_10">
<g id="cvclr_161" stroke="none" fill="#FFF" opacity="0.5">
<path id="cv_162" d="M829.73,728.55l25.22,-0.03l0.03,25.22l-25.22,0.03l-0.03,-25.22 Z "/>
</g>
<g id="cvclr_163" stroke="none" fill="#0F0" opacity="0.5">
<path id="cv_164" d="M861.08,753.7v-5.55h-6.11v5.55h6.11 Z "/>
</g>
<g id="cvclr_165" stroke="#0F0" fill="none">
<path id="cv_166" class=" nZW sLW_0_6" d="M829.73,728.55l25.22,-0.03l0.03,25.22l-25.22,0.03l-0.03,-25.22" />
<path id="cv_167" class=" ZW" d="M848.33,722.5l-0.23,-1.61l-0.74,-1.62l-1.57,-1.62l-1.59,-0.78l-1.61,-0.27l-1.62,0.18l-1.61,0.67l-1.61,1.42l-0.9,1.62l-0.34,1.59l0.1,1.63l0.58,1.6l1.25,1.6l1.62,1.04l1.61,0.44l1.59,-0.02l1.6,-0.47l1.6,-1.07l1.2,-1.59l0.55,-1.61l0.1,-1.11" />
<path id="cv_168" class=" nZW sLW_0_6" d="M854.96,753.71h6.11v-5.55h-6.11v5.55" />
<path id="cv_169" class="nZW sLW_0_6" d="M829.73,728.55l25.22,-0.03l0.03,25.22l-25.22,0.03l-0.03,-25.22M864.16,750.89h-3.09M864.16,750.03l0,2.18" />
</g>
<g id="cvclr_170" stroke="#000" fill="none">
<g style="font-family: arial, helvetica, sans-serif" stroke="none" fill="#000">
<g font-size="17.759225" stroke="none" fill="#000">
<text id="cv_171" transform="scale(1.111111 1) translate(754.35 748.67) "  cvjs:tag='G1-HDVM' >F</text>
</g>
</g>
</g>
<g id="cvclr_172" stroke="#F0F" fill="none">
<g style="font-family: arial, helvetica, sans-serif" stroke="none" fill="#F0F">
<g font-size="13.812731" stroke="none" fill="#F0F">
<text id="cv_173" transform="scale(1.111111 1) translate(719.74 770.13) "  cvjs:tag='FWK_DEVICE_ADDRESSES' >0010020159</text>
<text id="cv_174" transform="scale(1.111111 1) translate(718.94 783.75) "  cvjs:tag='FWK_DEVICE_TYPE' >AUDIBLE</text>
</g>
</g>
</g>
</g>
</g>
</g></svg>