<?xml version="1.0" encoding="utf-8" ?>
<!-- Generated by AutoXChange V23.10.99 from Tailor Made Software -->
<!-- www.tailormade.com and www.cadviewer.com -->
<!DOCTYPE svg PUBLIC '-//W3C//DTD SVG 1.0//EN' 
'http://www.w3.org/TR/2001/REC-SVG-20010904/DTD/svg10.dtd'>
<svg id="tmsSVG41" contentScriptType="text/ecmascript" xmlns:xlink="http://www.w3.org/1999/xlink" zoomAndPan="magnify" 
contentStyleType="text/css" preserveAspectRatio="xMidYMid meet" 
width="2500" height="2198.93" viewBox="0 0 2500 2198.93" 
version="1.1" xmlns="http://www.w3.org/2000/svg" xmlns:cvjs="http://www.tailormade.com/" stroke-linecap="butt" stroke-linejoin="round" fill-rule="evenodd" >
<defs>
	<style id="cv_styles" type = "text/css">
	    <![CDATA[
	   #tmsSVG41 { background-color: white; opacity: 1.}
		:root {
		    --tmsMinLineWidth: 0.6;
		    --tmsMinDashLength: 0.6;
		    --tmsHLWidth: 0.6;
		    --tmsNumberOfLayouts: 1;
		    --tmsNumberOfSVGViewports: 0;
         --tmsMinFixedLineWidth: 0.6;
		    --tmsbPostFix: 0;
		}
		.tmsPoints {
		    fill: none;
		    stroke-width: var(--tmsMinLineWidth);
		    r: calc(var(--tmsMinLineWidth)/2.0);
		}
		.ZWhl {
		    stroke-width: var(--tmsHLWidth);
		}
		.ZW {
		    stroke-width: var(--tmsMinLineWidth);
		}
		.ZW6 {
		    stroke-width: calc(var(--tmsMinLineWidth)*6);
		}
		.ZW10 {
		    stroke-width: calc(var(--tmsMinLineWidth)*10);
		}
		.ZW20 {
		    stroke-width: calc(var(--tmsMinLineWidth)*20);
		}
		.ZW100 {
		    stroke-width: calc(var(--tmsMinLineWidth)*100);
		}
		.nZW {
		}
		.sLW_0_2{
		    stroke-width: calc(var(--tmsMinFixedLineWidth)*0.333333);
		}
		.sLW_0_6{
		    stroke-width: var(--tmsMinFixedLineWidth);
		}
		.hyperlinks:hover {
		    stroke-width: 3;
		}
		.hyperimage image{
			opacity: 0;
		}
		.hyperimage:hover image{
			opacity: 1;
		}
		.hyperimage:hover path{
			stroke-width: 3;
		}
		.hyperimage:visited{
			color: red;
		}
	]]></style>
	</defs>
<metadata>
<text id="cadviewer_worldUnits">
{ "globalOrigin": { "x": 1.058418, "y" : 7.324443}, 
						"units": "mm",
						"measurementType": "English",
						"lengthType": "Decimal",
						"lengthPrecision": 4,
						"blockUnitsFormat": "Millimeters",
						"svgToWorldUnits": 0.124309,
						"worldToSVGUnits": 8.044492
}
</text>
<text id="cadviewer_drawingCoordinates">
{ "DWG": 
    { "lowerLeft": { "x": 1.058418, "y" : 7.324443}, 
      "upperRight": { "x": 311.830071, "y" : 289.824443} 
    },
 "SVG": 
    { "lowerLeft": { "x": 0.000000, "y" : 2205.966657}, 
      "upperRight": { "x": 2500.000000, "y" : 7.033343} 
    },
 "Drawing Height": 2213
}
</text>
<text id="cadviewer_vqBuilding"></text>
<text id="cadviewer_vqFloor"></text>
<text id="cadviewer_multiPages">
{ "multiPages": 2, 
                   "currentPage":1,
                   "pages" : [
                        { "fileName":"HZDX_TEST", "pageName":"ModelSpace"},
                        { "fileName":"HZDX_TEST__Layout1", "pageName":"Layout1 (Uninitialized)"}
                   ]
}
</text>
</metadata>
<g id="cv_main_drawing">
<g id="layer_M001_Text" class="layer_M001_Text"  cvjs:layerName="M001_Text" cvjs:plottable="YES"
 cvjs:status="ON" visibility="visible">
<g id="cvclr_1" stroke="#000" fill="none">
<path id="cv_2" class=" ZW" d="M36.49,11.4l12.16,13.3l4.56,5.7l3.04,5.7M24.32,74.11l12.16,11.4l6.08,13.3M18.24,174.83l15.2,22.8L65.37,87.41M106.42,-11.4l10.64,19v11.4l-1.52,-13.3M77.53,17.1v19l-3.04,13.3l-6.08,15.2M77.53,34.2l95.77,-9.5l-4.56,-3.8l-9.12,28.5M77.53,83.61l3.04,13.3l1.52,76.01l-1.52,-15.2l71.45,-9.5h-4.56l7.6,-66.51l3.04,5.7l-77.53,11.4M129.22,174.83l15.2,15.2l10.64,9.5l6.08,7.6l4.56,13.3M104.9,172.92l-4.56,11.4l-15.2,17.1l-13.68,11.4l-18.24,11.4M246.28,19l85.13,-7.6h-7.6l-13.68,1.9M220.43,74.11L360.29,58.91l-6.08,-1.9l-10.64,3.8M287.32,72.21l3.04,13.3l-1.52,85.51v15.2l-1.52,11.4l-1.52,3.8l-22.8,-26.6l22.8,22.8l1.52,-7.6M263,98.81l-1.52,9.5l-7.6,17.1l-16.72,24.7l-10.64,15.2l-9.12,11.4M311.64,110.22l19.76,22.8l12.16,13.3l6.08,11.4l3.04,7.6M419.58,45.61l4.56,24.7L428.7,205.23v19l-3.04,-11.4l1.52,-24.7M425.66,74.11l57.77,-9.5h3.04l59.29,-7.6l-4.56,-5.7l-1.52,3.8v74.11l-1.52,3.8v36.11l-3.04,20.9l-1.52,17.1l-1.52,15.2l-33.44,-38.01l31.92,32.3l3.04,-19M483.43,-5.7l-1.52,38.01l-3.04,32.3v3.8l-4.56,22.8l-6.08,22.8l-6.08,20.9l-4.56,11.4l-7.6,11.4l-4.56,9.5l-6.08,5.7M475.83,100.71l16.72,15.2l13.68,15.2l4.56,11.4l-3.04,-7.6M661.3,-13.3l16.72,19l3.04,11.4l-7.6,-17.1M614.17,20.9l1.52,15.2l-1.52,9.5l-3.04,13.3l-3.04,9.5v-7.6l6.08,-13.3M615.69,38.01L746.43,24.7l-4.56,-3.8l-21.28,36.11M690.18,58.91l25.84,22.8l7.6,15.2l-12.16,-19M650.65,53.21l-1.52,9.5l-21.28,30.4l-15.2,17.1M679.54,72.21l-3.04,11.4l-6.08,7.6l-18.24,24.7l-18.24,20.9l-18.24,19l-18.24,15.2l-10.64,7.6M671.94,89.31l22.8,26.6l24.32,28.5l18.24,19l27.36,-1.9l-28.88,-1.9l-12.16,-11.4M636.97,150.12l3.04,11.4l3.04,53.21l1.52,13.3l-6.08,-13.3l63.85,-5.7h-4.56l6.08,-60.81l4.56,3.8l-66.89,9.5M0,328.59l16.09,-20.11V429.15M78.8,394.94l7.6,0.95l4.56,0.95l2.28,0.95l3.04,1.9l1.52,1.9l0.76,1.9v1.9l-1.52,3.8l-1.52,1.9l-1.52,0.95h-1.52l-1.52,-0.95l-0.76,-1.9v-1.9l-0.76,-2.85l-1.52,-2.85l-3.04,-3.8l-3.04,-1.9l-3.8,-0.95M186.73,312.28l3.8,4.75l-1.52,-0.95V418.69l-1.52,3.8l-11.4,-11.4l11.4,9.5M205.74,340.78l41.81,-5.7l-2.28,-0.95l-6.08,1.9M224.74,340.78l2.28,3.8l0.76,71.26l-0.76,6.65l-0.76,1.9l-14.44,-17.1l14.44,15.2M274.91,321.78l64.61,-7.6l-3.04,-0.95l-12.16,2.85M264.26,363.59l53.97,-5.7l28.88,-2.85l-3.04,-1.9l-7.6,2.85M296.19,320.83l0.76,20.9l-0.76,15.2l-0.76,12.35l-2.28,14.25l-7.6,20.9l-5.32,6.65l-5.32,5.7l-6.08,4.75l-1.52,1.9M318.23,317.98l0.76,28.5l0.76,38.01v38.96l-1.52,-5.7l1.52,-10.45M388.16,310.38v5.7l-6.08,23.75l-4.56,14.25l-6.84,18.05l-2.28,0.95l28.12,-6.65M387.4,351.23l0.76,3.8v2.85l-2.28,65.56l-0.76,-6.65l0.76,-8.55M416.29,311.33l-0.76,7.6l-0.76,2.85l-4.56,20.9l-4.56,13.3l-5.32,14.25M407.93,351.23l29.64,-3.8l-2.28,-2.85l-7.6,18.05M416.29,360.74v8.55l-6.08,24.7l-2.28,8.55l-3.8,7.6l-5.32,7.6l-10.64,8.55M415.53,376.89l14.44,40.86l12.92,2.85l-12.16,-4.75l-3.04,-3.8M485.46,314.18l-3.8,12.35l-5.32,11.4l-6.08,10.45l-6.08,8.55l-7.6,9.5M476.34,340.78l0.76,57.01v27.55l-0.76,-5.7l0.76,-10.45M498.38,326.53l-2.28,15.2l-3.04,13.3l-3.04,9.5l-2.28,5.7M498.38,353.13l34.97,-8.55h-3.8l-6.08,2.85M486.22,382.59l53.97,-9.5l-3.8,-0.95l-6.84,2.85M512.82,310.38l2.28,3.8l-1.52,-1.9L514.34,426.29l-0.76,-8.55l0.76,-14.25M581.99,446.25l3.04,-3.8l3.8,-8.55v-9.5l-3.8,-4.75l-3.8,4.75l3.8,4.75l3.8,-4.75M692.97,310.38l-0.76,5.7l-6.84,12.35l-7.6,12.35l-8.36,12.35l-9.12,11.4l-7.6,7.6l-4.56,4.75M691.45,318.93l29.64,47.51l13.68,0.95l-13.68,-2.85l-6.08,-7.6M702.09,355.98l0.76,4.75v65.56l-0.76,-4.75l0.76,-10.45M680.8,356.93v4.75l-0.76,11.4l-1.52,12.35l-1.52,9.5l-2.28,6.65l-4.56,6.65l-5.32,6.65l-13.68,11.4M772.02,312.28l-0.76,4.75l-9.12,22.8l-7.6,16.15l-2.28,0.95l25.84,-6.65M782.66,337.93l-14.44,29.45l-9.88,17.1l-1.52,0.95l23.56,-7.6M789.5,330.33h3.04l34.2,-5.7l-2.28,-2.85l-1.52,9.5l-2.28,18.05l-2.28,8.55l-2.28,7.6l-1.52,4.75l-8.36,-10.45l8.36,8.55M803.18,329.38l-3.04,9.5l-4.56,13.3l-3.8,8.55l-5.32,6.65l-3.04,4.75M791.78,376.89l1.52,8.55v38.96l-0.76,-8.55l28.88,-2.85h-4.56l3.04,-35.16l2.28,3.8l-28.88,3.8M899.72,309.43v4.75l-6.84,25.65M874.63,310.38l0.76,3.8v30.4M849.55,332.23l73.73,-8.55l-3.8,-0.95l-4.56,1.9M904.28,341.73l-2.28,1.9l-25.84,8.55l-15.96,1.9M865.51,357.88l4.56,10.45l0.76,4.75M882.23,352.18l5.32,5.7l0.76,4.75M905.04,351.23l-0.76,4.75l-8.36,16.15M886.79,371.19v56.06l-0.76,-6.65v-4.75M850.31,383.54l66.89,-9.5l-3.8,-0.95l-6.84,2.85M889.83,380.69l19.76,32.3l15.2,0.95l-14.44,-1.9l-4.56,-4.75M880.71,382.59l-8.36,11.4l-6.84,6.65l-6.08,6.65l-6.84,5.7l-8.36,5.7M962.05,311.33l9.12,13.3l0.76,9.5l-2.28,-11.4M993.21,308.48l4.56,4.75l-2.28,-0.95l-9.88,26.6M952.92,331.28l3.04,8.55l2.28,16.15v16.15l0.76,10.45l-2.28,-6.65l51.69,-4.75l-5.32,-0.95l3.8,-33.25l2.28,-1.9l-2.28,-0.95l-0.76,1.9l-48.65,5.7M980.29,340.78l0.76,54.16l0.76,26.6v7.6l-1.52,-6.65l0.76,-15.2M938.48,398.74l85.89,-9.5l-4.56,-0.95l-6.08,1.9M1050.98,321.78l51.69,-4.75l-3.8,-3.8l-1.52,5.7l-10.64,36.11l-1.52,-1.9h1.52l22.04,-3.8l-2.28,-2.85l-3.8,10.45l-3.8,9.5l-3.04,6.65l-3.8,5.7l-5.32,9.5l-5.32,7.6l-6.08,7.6l-5.32,4.75l-6.84,5.7l-7.6,5.7l-6.08,4.75M1066.94,357.88l39.53,63.66h15.96l-14.44,-1.9l-1.52,-0.95l-6.08,-7.6M1069.98,324.63v4.75l-3.04,18.05l-2.28,10.45l-3.04,10.45l-3.8,11.4l-4.56,9.5l-5.32,11.4l-5.32,8.55l-9.12,11.4M1154.35,308.48l3.04,7.6l-0.76,-2.85l-0.76,54.16v32.3l-5.32,3.8l25.84,-25.65M1175.64,338.88l38.77,-8.55l-0.76,-3.8l2.28,3.8l-1.52,0.95l-2.28,22.8l-0.76,17.1l-2.28,16.15l-1.52,14.25l-3.04,9.5l-2.28,8.55l-1.52,3.8l-11.4,-19l11.4,17.1M1192.36,336.98v6.65l-3.04,17.1l-3.04,16.15l-3.04,11.4l-5.32,12.35l-6.84,12.35l-7.6,9.5l-6.84,6.65M1244.81,308.48l2.28,5.7l-0.76,-2.85L1245.57,423.44l-12.16,-12.35l11.4,10.45M1257.73,355.98l5.32,-8.55l6.08,-8.55l3.8,-7.6l4.56,-10.45l3.8,-7.6v-3.8M1273.69,331.28l24.32,-2.85l-2.28,-2.85l-13.68,27.55v14.25l-2.28,16.15l-3.04,10.45l-4.56,10.45l-5.32,8.55l-6.08,7.6l-5.32,4.75l-4.56,3.8M1298.01,416.79l3.8,3.8l13.68,2.85l-13.68,-0.95l-10.64,-20.9l-9.12,-17.1l31.92,-3.8l-3.04,-0.95l-13.68,2.85l3.04,-33.25l2.28,1.9l-37.25,5.7l-1.52,-1.9l1.52,2.85l0.76,27.55l-12.16,0.95l29.64,-2.85M1354.26,446.25l3.04,-3.8l3.8,-8.55v-9.5l-3.8,-4.75l-3.8,4.75l3.8,4.75l3.8,-4.75M1434.07,339.83l57.77,-8.55l-3.04,-0.95l-4.56,1.9M1462.96,338.88l1.52,7.6l-0.76,59.86M1425.71,410.14l76.01,-7.6l-2.28,-1.9l-6.84,2.85M1542.77,315.13l1.52,6.65l0.76,64.61M1545.05,321.78l36.49,-6.65l-3.04,-2.85l-0.76,7.6l-1.52,35.16l-0.76,28.5M1519.97,391.14l80.57,-9.5l-3.04,-0.95l-5.32,0.95M1548.85,395.89l-0.76,2.85l-6.84,8.55l-9.88,9.5l-9.12,7.6M1568.61,395.89l10.64,7.6l5.32,4.75l2.28,3.8l3.04,4.75M1619.54,328.43l9.88,11.4l1.52,7.6M1608.9,371.19l25.84,-6.65l-3.04,-1.9l-0.76,7.6l-5.32,10.45l-0.76,4.75l2.28,3.8l2.28,6.65l0.76,4.75l-0.76,5.7l-1.52,5.7M1609.66,412.04l8.36,-0.95l9.12,1.9l10.64,1.9l13.68,3.8l16.72,4.75l12.92,4.75l5.32,0.95l19,-9.5l-19.76,7.6l-14.44,-2.85M1649.94,318.93v4.75l-3.8,21.85l-3.8,11.4M1657.55,364.54v5.7l-5.32,16.15l-3.8,7.6l-3.04,4.75l-4.56,5.7l-4.56,4.75M1668.19,364.54v19l0.76,7.6v5.7l1.52,3.8l2.28,2.85l4.56,0.95h5.32l8.36,-0.95l-2.28,-24.7M1716.83,334.13l26.6,-4.75l-12.92,1.9l-0.76,51.31l-14.44,7.6l31.16,-17.1M1733.56,425.34l9.88,-5.7l7.6,-6.65l6.08,-8.55l6.08,-10.45l2.28,-13.3l1.52,-11.4v-9.5M1767.76,394.94l9.88,7.6l7.6,7.6l3.04,4.75l2.28,6.65M1782.2,393.99v-8.55l0.76,-1.9l0.76,-46.56l3.04,3.8l-34.2,5.7l-1.52,-8.55l1.52,7.6v24.7l-0.76,18.05l-0.76,6.65v-4.75l0.76,-10.45M1762.44,344.58l5.32,-20.9v-6.65M1745.72,319.88l22.8,-3.8l23.56,-2.85l-1.52,-0.95l-3.8,0.95M1826.29,311.33l3.04,4.75l-0.76,-0.95V421.54l-1.52,-7.6l0.76,-7.6M1829.33,355.98l9.12,10.45l2.28,4.75M1828.57,353.13l-7.6,16.15l-6.08,12.35l-5.32,9.5l-3.04,3.8M1846.81,323.68l2.28,8.55l-0.76,19l-0.76,15.2l-0.76,13.3l-2.28,12.35l-6.08,20.9l-3.8,7.6M1880.26,320.83l-19,9.5l-11.4,3.8M1854.41,355.98l25.84,-4.75l-2.28,-3.8l-1.52,6.65l-3.04,15.2l-3.8,10.45l-4.56,11.4l-5.32,9.5l-6.84,10.45l-6.08,7.6l-7.6,6.65M1854.41,367.39l2.28,0.95l21.28,46.56l15.2,0.95l-15.2,-2.85l-3.04,-3.8M0,489.48l16.09,-20.11h32.18l16.09,20.11v20.11l-16.09,20.11h-32.18l-16.09,20.11v40.22h64.36M110.98,555.83l7.6,0.95l4.56,0.95l2.28,0.95l3.04,1.9l1.52,1.9l0.76,1.9v1.9l-1.52,3.8l-1.52,1.9l-1.52,0.95h-1.52l-1.52,-0.95l-0.76,-1.9v-1.9l-0.76,-2.85l-1.52,-2.85l-3.04,-3.8l-3.04,-1.9l-3.8,-0.95M254.64,472.22v5.7l-4.56,10.45l-5.32,10.45l-3.04,6.65M255.4,494.07l3.04,8.55v5.7M226.51,474.12l-0.76,4.75l-4.56,11.4l-6.08,9.5l-0.76,0.95l-5.32,7.6l-3.8,4.75M223.47,494.07l3.8,8.55v6.65M238.67,504.52l2.28,6.65v6.65M212.83,514.02v6.65l-0.76,3.8l-1.52,4.75l-3.04,7.6M212.83,522.58l63.85,-6.65l-2.28,-2.85l-6.84,16.15M224.99,528.28v4.75l0.76,21.85l-0.76,31.35l-0.76,-5.7l0.76,-7.6M226.51,533.98l32.68,-3.8l-1.52,-2.85l-3.8,18.05h3.04l-31.16,2.85M225.75,562.48l34.97,-5.7l-1.52,-1.9l-3.8,20.9h3.8l-34.2,3.8M320.01,477.92l-0.76,4.75l-12.16,24.7l-7.6,14.25l20.52,-3.8M325.33,503.57l-11.4,27.55l-9.12,16.15l-1.52,0.95l23.56,-7.6M364.85,493.12l-2.28,-3.8l-8.36,-8.55M342.05,470.32l0.76,4.75v21.85l1.52,16.15l0.76,9.5l1.52,10.45l3.04,19l2.28,7.6l3.8,7.6l5.32,8.55l5.32,5.7l5.32,4.75l3.8,1.9l1.52,-22.8l-3.04,21.85M367.89,535.88l-0.76,3.8l-6.08,9.5l-6.08,7.6l-6.84,7.6l-8.36,7.6l-8.36,6.65l-6.84,4.75M407.42,482.67l51.69,-4.75l-3.8,-3.8l-1.52,5.7l-10.64,36.11l-1.52,-1.9h1.52l22.04,-3.8l-2.28,-2.85l-3.8,10.45l-3.8,9.5l-3.04,6.65l-3.8,5.7l-5.32,9.5l-5.32,7.6l-6.08,7.6l-5.32,4.75l-6.84,5.7l-7.6,5.7l-6.08,4.75M423.38,518.77l39.53,63.66h15.96l-14.44,-1.9l-1.52,-0.95l-6.08,-7.6M426.42,485.52v4.75l-3.04,18.05l-2.28,10.45l-3.04,10.45l-3.8,11.4l-4.56,9.5l-5.32,11.4l-5.32,8.55l-9.12,11.4M506.23,476.97l3.04,4.75l-1.52,-0.95v72.21M556.4,471.27l0.76,3.8l-6.08,16.15l-3.04,7.6M530.56,476.97l5.32,8.55l0.76,2.85l0.76,3.8M522.96,494.07l2.28,8.55l0.76,30.4v5.7l-0.76,-4.75l40.29,-6.65h-1.52l3.04,-35.16l1.52,3.8l-44.09,5.7M556.4,506.42v1.9l-6.08,13.3M532.08,511.17l3.8,6.65l0.76,3.8M530.56,542.53l1.52,5.7v16.15l0.76,21.85l-1.52,-5.7h1.52l21.28,-1.9l3.8,5.7v-7.6l2.28,-36.11l0.76,3.8l-28.88,3.8M592.89,488.37l20.52,-3.8l-0.76,-2.85l-3.8,26.6l2.28,-0.95l-15.2,3.8l-0.76,-6.65l0.76,8.55v12.35l-2.28,12.35l-0.76,-2.85l20.52,-5.7l-2.28,-1.9l-1.52,14.25l-1.52,19l-4.56,17.1l-12.16,-12.35l12.16,9.5M624.81,481.72l1.52,8.55l0.76,10.45v6.65l25.84,-4.75h-3.04l3.8,-23.75l0.76,3.8l-28.12,4.75M622.53,523.53l1.52,10.45v18.05l31.92,-5.7l-3.04,0.95l4.56,-23.75v2.85l-32.68,6.65M616.45,579.58l40.29,-12.35l-6.08,-9.5l9.88,14.25l0.76,3.8l0.76,1.9M737.31,472.22v5.7l-4.56,10.45l-5.32,10.45l-3.04,6.65M738.07,494.07l3.04,8.55v5.7M709.18,474.12l-0.76,4.75l-4.56,11.4l-6.08,9.5l-0.76,0.95l-5.32,7.6l-3.8,4.75M706.14,494.07l3.8,8.55v6.65M721.34,504.52l2.28,6.65v6.65M695.5,514.02v6.65l-0.76,3.8l-1.52,4.75l-3.04,7.6M695.5,522.58l63.85,-6.65l-2.28,-2.85l-6.84,16.15M707.66,528.28v4.75l0.76,21.85l-0.76,31.35l-0.76,-5.7l0.76,-7.6M709.18,533.98l32.68,-3.8l-1.52,-2.85l-3.8,18.05h3.04l-31.16,2.85M708.42,562.48l34.97,-5.7l-1.52,-1.9l-3.8,20.9h3.8l-34.2,3.8M802.68,477.92l-0.76,4.75l-12.16,24.7l-7.6,14.25l20.52,-3.8M808,503.57l-11.4,27.55l-9.12,16.15l-1.52,0.95l23.56,-7.6M847.52,493.12l-2.28,-3.8l-8.36,-8.55M824.72,470.32l0.76,4.75v21.85l1.52,16.15l0.76,9.5l1.52,10.45l3.04,19l2.28,7.6l3.8,7.6l5.32,8.55l5.32,5.7l5.32,4.75l3.8,1.9l1.52,-22.8l-3.04,21.85M850.56,535.88l-0.76,3.8l-6.08,9.5l-6.08,7.6l-6.84,7.6l-8.36,7.6l-8.36,6.65l-6.84,4.75M918.21,471.27l-0.76,5.7l-6.84,12.35l-7.6,12.35l-8.36,12.35l-9.12,11.4l-7.6,7.6l-4.56,4.75M916.69,479.82l29.64,47.51l13.68,0.95l-13.68,-2.85l-6.08,-7.6M927.33,516.87l0.76,4.75v65.56l-0.76,-4.75l0.76,-10.45M906.05,517.82v4.75l-0.76,11.4l-1.52,12.35l-1.52,9.5l-2.28,6.65l-4.56,6.65l-5.32,6.65l-13.68,11.4M997.26,473.17l-0.76,4.75l-9.12,22.8l-7.6,16.15l-2.28,0.95l25.84,-6.65M1007.91,498.82l-14.44,29.45l-9.88,17.1l-1.52,0.95l23.56,-7.6M1014.75,491.22h3.04l34.2,-5.7l-2.28,-2.85l-1.52,9.5l-2.28,18.05l-2.28,8.55l-2.28,7.6l-1.52,4.75l-8.36,-10.45l8.36,8.55M1028.43,490.27l-3.04,9.5l-4.56,13.3l-3.8,8.55l-5.32,6.65l-3.04,4.75M1017.03,537.78l1.52,8.55v38.96l-0.76,-8.55l28.88,-2.85h-4.56l3.04,-35.16l2.28,3.8l-28.88,3.8M0,650.37l16.09,-20.11h32.18l16.09,20.11v20.11l-16.09,20.11h-16.09M48.27,690.59l16.09,20.11v20.11l-16.09,20.11h-32.18l-16.09,-20.11M110.98,716.72l7.6,0.95l4.56,0.95l2.28,0.95l3.04,1.9l1.52,1.9l0.76,1.9v1.9l-1.52,3.8l-1.52,1.9l-1.52,0.95h-1.52l-1.52,-0.95l-0.76,-1.9v-1.9l-0.76,-2.85l-1.52,-2.85l-3.04,-3.8l-3.04,-1.9l-3.8,-0.95M213.59,633.11l6.84,10.45l1.52,5.7M208.27,649.26l3.04,5.7l-1.52,-1.9v70.31l-0.76,23.75l-0.76,-6.65l0.76,-8.55M231.07,665.41l-3.8,7.6l-3.8,8.55l-6.84,10.45l-4.56,6.65M225.75,675.86l0.76,28.5v24.7l-0.76,-6.65l0.76,-6.65M233.35,646.41l41.05,-4.75l-1.52,-1.9v97.86l-1.52,5.7l-0.76,4.75l-6.08,-7.6l-6.84,-6.65l12.92,11.4M249.32,658.76l6.84,7.6l1.52,4.75M231.83,687.27l30.4,-7.6l-1.52,-0.95l-4.56,2.85M257.68,690.12l-9.12,13.3l-8.36,9.5l-9.12,6.65M238.67,658.76l1.52,4.75l2.28,18.05l2.28,12.35l3.04,11.4l3.8,9.5l5.32,6.65l5.32,4.75l-1.52,-18.05v16.15M304.04,716.72l7.6,0.95l4.56,0.95l2.28,0.95l3.04,1.9l1.52,1.9l0.76,1.9v1.9l-1.52,3.8l-1.52,1.9l-1.52,0.95h-1.52l-1.52,-0.95l-0.76,-1.9v-1.9l-0.76,-2.85l-1.52,-2.85l-3.04,-3.8l-3.04,-1.9l-3.8,-0.95M396.78,638.81l1.52,9.5v95.01l-0.76,-8.55l0.76,-6.65M399.06,649.26l20.52,-2.85l-3.04,-2.85l-7.6,27.55l0.76,3.8l3.04,4.75l1.52,4.75v11.4l-1.52,4.75l-2.28,3.8l-6.84,-7.6l7.6,5.7M435.54,635.96v6.65l-3.8,11.4l-4.56,12.35l-4.56,9.5l-3.8,6.65M429.46,661.61l-0.76,82.66l-0.76,-7.6l0.76,-5.7M437.06,677.76l34.2,-8.55h-2.28l-6.84,2.85M454.55,635.01l0.76,6.65l-1.52,92.16v5.7l-1.52,3.8l-9.12,-12.35l9.88,10.45M437.82,688.22l5.32,8.55l0.76,5.7l-3.04,-10.45M517.63,635.96l-3.8,12.35l-5.32,11.4l-6.08,10.45l-6.08,8.55l-7.6,9.5M508.51,662.56l0.76,57.01v27.55l-0.76,-5.7l0.76,-10.45M530.56,648.31l-2.28,15.2l-3.04,13.3l-3.04,9.5l-2.28,5.7M530.56,674.91l34.97,-8.55h-3.8l-6.08,2.85M518.39,704.37l53.97,-9.5l-3.8,-0.95l-6.84,2.85M545,632.16l2.28,3.8l-1.52,-1.9L546.52,748.07l-0.76,-8.55l0.76,-14.25M602.01,632.16l3.04,5.7l-1.52,-0.95L602.01,737.62l-0.76,5.7l-11.4,-14.25l12.16,13.3M585.28,670.16h0.76l31.92,-5.7l-2.28,-0.95l-6.08,2.85M655.97,640.71l-3.04,3.8l-12.16,7.6l-10.64,3.8l-7.6,3.8M614.93,674.91l55.49,-6.65l-4.56,-0.95l-7.6,1.9M630.13,688.22l-9.88,12.35l-1.52,-6.65l2.28,7.6v20.9l0.76,24.7l-0.76,-8.55l31.92,-2.85l-3.04,-0.95l-3.8,0.95M647.61,692.02l16.72,-2.85l-2.28,-3.8l-4.56,42.76l-0.76,7.6l-0.76,6.65l-3.8,-6.65M706.9,641.66l6.08,0.95l38.01,86.46l15.96,2.85l-15.2,-4.75l-4.56,-7.6M722.1,667.31l-4.56,14.25l-6.08,12.35l-4.56,9.5l-6.08,10.45l-12.92,16.15h-0.76l-6.84,8.55M807.24,768.03l3.04,-3.8l3.8,-8.55v-9.5l-3.8,-4.75l-3.8,4.75l3.8,4.75l3.8,-4.75M905.29,647.36l-0.76,6.65l-5.32,11.4l-8.36,13.3l-8.36,12.35l-6.84,7.6l-4.56,4.75M918.97,631.21l3.8,1.9l2.28,10.45l5.32,13.3l7.6,15.2l9.88,15.2l3.04,4.75l12.16,-0.95l-12.16,-1.9l-3.8,-4.75M893.89,692.97l39.53,-6.65v-2.85l1.52,1.9l-1.52,1.9l-2.28,20.9l-2.28,13.3l-3.8,14.25l-4.56,11.4l-4.56,-9.5l-5.32,-7.6M909.09,691.07l0.76,5.7l-3.8,11.4l-3.8,9.5l-6.08,12.35l-7.6,8.55l-7.6,6.65l-6.08,4.75M994.22,633.11l9.12,13.3l0.76,9.5l-2.28,-11.4M1025.39,630.26l4.56,4.75l-2.28,-0.95l-9.88,26.6M985.1,653.06l3.04,8.55l2.28,16.15v16.15l0.76,10.45l-2.28,-6.65l51.69,-4.75l-5.32,-0.95l3.8,-33.25l2.28,-1.9l-2.28,-0.95l-0.76,1.9l-48.65,5.7M1012.47,662.56l0.76,54.16l0.76,26.6v7.6l-1.52,-6.65l0.76,-15.2M970.66,720.52l85.89,-9.5l-4.56,-0.95l-6.08,1.9M1086.2,634.06l2.28,5.7l-0.76,-1.9v76.01M1102.16,670.16l35.73,-5.7l-3.8,-1.9l-4.56,30.4M1116.6,632.16l1.52,4.75v7.6l-1.52,29.45l-2.28,16.15l-2.28,13.3l-3.04,12.35l-4.56,10.45l-6.84,9.5l-5.32,6.65l-5.32,5.7M1097.6,696.77l50.93,-6.65l-2.28,-0.95l-6.84,2.85M1118.88,695.82l19.76,45.61l12.16,0.95l-12.16,-2.85l-5.32,-9.5M1205.53,635.01l-12.92,9.5l-12.92,6.65l-5.32,2.85M1193.37,644.51L1194.13,749.02l-1.52,-6.65l0.76,-9.5M1193.37,675.86l-4.56,10.45l-5.32,10.45l-6.08,9.5l-12.92,16.15M1194.13,683.47l9.88,8.55l3.8,4.75M1218.46,657.81l1.52,9.5l1.52,47.51l0.76,10.45l-2.28,-9.5l25.84,-4.75h-3.8l3.8,-53.21l3.04,3.8l-28.12,6.65M1270.9,649.26l30.4,-4.75l-2.28,-2.85l-1.52,10.45l-3.04,14.25l-1.52,7.6l-2.28,9.5l-9.12,22.8l-5.32,8.55l-6.08,8.55l-6.08,7.6l-4.56,4.75M1277.74,666.36l6.08,10.45l6.84,12.35l4.56,8.55l2.28,5.7l0.76,5.7M1307.39,649.26l27.36,-5.7l-3.04,-2.85l-3.04,13.3l-2.28,9.5l-3.04,9.5l-2.28,8.55l-3.04,8.55l-3.8,8.55l-3.04,7.6l-5.32,8.55l-3.8,6.65l-3.8,5.7l-3.8,4.75l-4.56,3.8l-3.04,3.8M1302.83,664.46l2.28,0.95l25.84,64.61l15.2,0.95l-14.44,-2.85l-4.56,-6.65M1375.8,634.06l2.28,5.7l-0.76,-1.9v76.01M1391.76,670.16l35.73,-5.7l-3.8,-1.9l-4.56,30.4M1406.2,632.16l1.52,4.75v7.6l-1.52,29.45l-2.28,16.15l-2.28,13.3l-3.04,12.35l-4.56,10.45l-6.84,9.5l-5.32,6.65l-5.32,5.7M1387.2,696.77l50.93,-6.65l-2.28,-0.95l-6.84,2.85M1408.48,695.82l19.76,45.61l12.16,0.95l-12.16,-2.85l-5.32,-9.5M1476.89,633.11l0.76,8.55v15.2l-0.76,14.25l-0.76,9.5l-1.52,12.35l-2.28,10.45l-2.28,11.4l-3.04,8.55l-3.8,8.55l-6.08,10.45M1479.17,642.61l47.13,-4.75l-2.28,-1.9l-2.28,17.1h3.8l-47.13,4.75M1525.54,661.61l-2.28,1.9l-19,2.85l-10.64,1.9l-9.88,1.9M1515.66,714.82l3.04,7.6l1.52,5.7M1487.53,674.91l0.76,6.65l1.52,19l-0.76,-4.75l35.73,-2.85h-3.04l2.28,-17.1l1.52,2.85l-37.25,2.85M1481.45,702.47l0.76,8.55l0.76,21.85l-0.76,14.25l-0.76,-3.8l1.52,-9.5M1482.97,710.07l51.69,-4.75l-1.52,-2.85l-0.76,4.75l-2.28,21.85l-0.76,8.55l-3.04,9.5l-9.88,-12.35l10.64,9.5M1556.7,667.31v8.55l-0.76,6.65l-0.76,4.75l-1.52,5.7M1566.59,631.21l1.52,6.65L1566.59,748.07l-1.52,-8.55l1.52,-9.5M1568.11,658.76l8.36,6.65l3.04,3.8M1590.91,651.16v9.5l-5.32,19.95l-3.8,11.4l-3.04,6.65M1587.11,676.81h3.8l32.68,-4.75l-2.28,-0.95l-6.08,1.9M1605.35,633.11l0.76,6.65l-2.28,95.01M1575.71,736.67l55.49,-2.85l-2.28,-0.95l-5.32,0.95M1665.4,634.06l2.28,5.7l-0.76,-1.9v76.01M1681.36,670.16l35.73,-5.7l-3.8,-1.9l-4.56,30.4M1695.8,632.16l1.52,4.75v7.6l-1.52,29.45l-2.28,16.15l-2.28,13.3l-3.04,12.35l-4.56,10.45l-6.84,9.5l-5.32,6.65l-5.32,5.7M1676.8,696.77l50.93,-6.65l-2.28,-0.95l-6.84,2.85M1698.08,695.82l19.76,45.61l12.16,0.95l-12.16,-2.85l-5.32,-9.5M1772.58,768.03l3.04,-3.8l3.8,-8.55v-9.5l-3.8,-4.75l-3.8,4.75l3.8,4.75l3.8,-4.75M1853.91,645.46l0.76,4.75l-2.28,81.71l-3.04,1.9l29.64,-37.06M1872.15,648.31l7.6,13.3l1.52,6.65l0.76,5.7l-3.8,-14.25M1908.63,635.96v9.5l-2.28,15.2l-2.28,14.25l-0.76,1.9l-0.76,7.6l-3.04,10.45l-3.04,9.5l-2.28,6.65l-7.6,11.4l-9.12,11.4l-4.56,3.8l-5.32,3.8l-3.8,3.8M1915.48,737.62l-3.8,-9.5l-14.44,-19.95M1951.96,643.56l51.69,-4.75l-3.8,-3.8l-1.52,5.7l-10.64,36.11l-1.52,-1.9h1.52l22.04,-3.8l-2.28,-2.85l-3.8,10.45l-3.8,9.5l-3.04,6.65l-3.8,5.7l-5.32,9.5l-5.32,7.6l-6.08,7.6l-5.32,4.75l-6.84,5.7l-7.6,5.7l-6.08,4.75M1967.92,679.66l39.53,63.66h15.96l-14.44,-1.9l-1.52,-0.95l-6.08,-7.6M1970.96,646.41v4.75l-3.04,18.05l-2.28,10.45l-3.04,10.45l-3.8,11.4l-4.56,9.5l-5.32,11.4l-5.32,8.55l-9.12,11.4M2051.54,634.06l2.28,5.7l-0.76,-1.9v76.01M2067.5,670.16l35.73,-5.7l-3.8,-1.9l-4.56,30.4M2081.94,632.16l1.52,4.75v7.6l-1.52,29.45l-2.28,16.15l-2.28,13.3l-3.04,12.35l-4.56,10.45l-6.84,9.5l-5.32,6.65l-5.32,5.7M2062.94,696.77l50.93,-6.65l-2.28,-0.95l-6.84,2.85M2084.22,695.82l19.76,45.61l12.16,0.95l-12.16,-2.85l-5.32,-9.5M2151.87,633.11l-1.52,8.55l-5.32,19l-3.04,11.4M2134.39,664.46l2.28,8.55l0.76,23.75l-0.76,19.95l0.76,19l-1.52,-8.55l18.24,-1.9l4.56,5.7l0.76,3.8l0.76,-26.6l1.52,-38.96v-4.75l3.04,3.8l-6.08,1.9l-21.28,2.85M2181.51,631.21l0.76,6.65l-3.8,16.15l-3.8,17.1l-3.8,12.35l-3.04,8.55l-1.52,4.75M2174.67,671.11l16.72,-0.95h0.76l13.68,-2.85l2.28,-0.95l-2.28,-3.8l-1.52,17.1l-0.76,18.05l-2.28,17.1l-2.28,16.15l-3.04,10.45l-3.04,8.55l-12.92,-19l13.68,17.1M2176.19,688.22l8.36,14.25l0.76,2.85l0.76,4.75M2230.16,667.31l33.44,-5.7l-2.28,-2.85l-2.28,11.4l-3.04,11.4l-3.04,12.35l-6.08,15.2l-6.84,12.35l-0.76,1.9l-6.08,8.55l-7.6,9.5M2237.76,673.96l20.52,37.06l3.8,10.45l0.76,6.65M2270.45,686.32l6.84,14.25l0.76,6.65M2265.13,677.76l2.28,0.95l44.09,-9.5l-3.04,-0.95l-3.04,1.9M2290.97,631.21l1.52,10.45v72.21l0.76,23.75l-0.76,9.5l-0.76,1.9l-16.72,-15.2l16.72,13.3M2360.9,630.26l4.56,9.5l1.52,3.8l0.76,2.85M2332.78,657.81l65.37,-7.6l-3.04,-0.95l-6.08,1.9M2378.38,657.81l-9.88,13.3l-11.4,12.35l-12.92,10.45l-10.64,6.65l-9.12,4.75M2349.5,662.56h3.04l39.53,38.01l12.92,-1.9h-12.92l-6.08,-3.8M2354.82,694.87l-1.52,19l-2.28,14.25l-5.32,10.45l-6.84,5.7l-4.56,4.75M2373.82,692.02l3.04,3.8l-1.52,-0.95l0.76,55.11l-1.52,-8.55l1.52,-9.5M2447.55,631.21l-0.76,5.7l-3.8,8.55l-5.32,9.5l-6.08,9.5l-8.36,10.45M2444.51,654.01l5.32,10.45l0.76,2.85v3.8M2474.92,631.21l-0.76,5.7l-3.04,8.55l-3.04,9.5l-3.04,5.7l-1.52,3.8M2477.2,652.11l3.8,8.55l0.76,3.8v3.8M2461.23,666.36l0.76,4.75l0.76,23.75M2442.23,682.51l39.53,-6.65h-2.28l-2.28,0.95M2422.47,697.72l77.53,-7.6l-3.04,-0.95l-4.56,0.95M2470.36,693.92l2.28,7.6v36.11l-0.76,6.65l-0.76,2.85l-1.52,1.9l-10.64,-12.35l11.4,10.45l1.52,-3.8M2429.31,714.82l65.37,-5.7l-3.8,-0.95l-4.56,1.9M2448.31,720.52l3.04,6.65v5.7M64.36,871.59h-64.36l48.27,-80.44V911.81M110.98,877.61l7.6,0.95l4.56,0.95l2.28,0.95l3.04,1.9l1.52,1.9l0.76,1.9v1.9l-1.52,3.8l-1.52,1.9l-1.52,0.95h-1.52l-1.52,-0.95l-0.76,-1.9v-1.9l-0.76,-2.85l-1.52,-2.85l-3.04,-3.8l-3.04,-1.9l-3.8,-0.95M213.59,794l6.84,10.45l1.52,5.7M208.27,810.15l3.04,5.7l-1.52,-1.9v70.31l-0.76,23.75l-0.76,-6.65l0.76,-8.55M231.07,826.3l-3.8,7.6l-3.8,8.55l-6.84,10.45l-4.56,6.65M225.75,836.75l0.76,28.5v24.7l-0.76,-6.65l0.76,-6.65M233.35,807.3l41.05,-4.75l-1.52,-1.9v97.86l-1.52,5.7l-0.76,4.75l-6.08,-7.6l-6.84,-6.65l12.92,11.4M249.32,819.65l6.84,7.6l1.52,4.75M231.83,848.16l30.4,-7.6l-1.52,-0.95l-4.56,2.85M257.68,851.01l-9.12,13.3l-8.36,9.5l-9.12,6.65M238.67,819.65l1.52,4.75l2.28,18.05l2.28,12.35l3.04,11.4l3.8,9.5l5.32,6.65l5.32,4.75l-1.52,-18.05v16.15M304.04,877.61l7.6,0.95l4.56,0.95l2.28,0.95l3.04,1.9l1.52,1.9l0.76,1.9v1.9l-1.52,3.8l-1.52,1.9l-1.52,0.95h-1.52l-1.52,-0.95l-0.76,-1.9v-1.9l-0.76,-2.85l-1.52,-2.85l-3.04,-3.8l-3.04,-1.9l-3.8,-0.95M396.78,799.7l1.52,9.5v95.01l-0.76,-8.55l0.76,-6.65M399.06,810.15l20.52,-2.85l-3.04,-2.85l-7.6,27.55l0.76,3.8l3.04,4.75l1.52,4.75v11.4l-1.52,4.75l-2.28,3.8l-6.84,-7.6l7.6,5.7M435.54,796.85v6.65l-3.8,11.4l-4.56,12.35l-4.56,9.5l-3.8,6.65M429.46,822.5l-0.76,82.66l-0.76,-7.6l0.76,-5.7M437.06,838.65l34.2,-8.55h-2.28l-6.84,2.85M454.55,795.9l0.76,6.65l-1.52,92.16v5.7l-1.52,3.8l-9.12,-12.35l9.88,10.45M437.82,849.11l5.32,8.55l0.76,5.7l-3.04,-10.45M517.63,796.85l-3.8,12.35l-5.32,11.4l-6.08,10.45l-6.08,8.55l-7.6,9.5M508.51,823.45l0.76,57.01v27.55l-0.76,-5.7l0.76,-10.45M530.56,809.2l-2.28,15.2l-3.04,13.3l-3.04,9.5l-2.28,5.7M530.56,835.8l34.97,-8.55h-3.8l-6.08,2.85M518.39,865.26l53.97,-9.5l-3.8,-0.95l-6.84,2.85M545,793.05l2.28,3.8l-1.52,-1.9L546.52,908.96l-0.76,-8.55l0.76,-14.25M608.09,794l0.76,8.55v15.2l-0.76,14.25l-0.76,9.5l-1.52,12.35l-2.28,10.45l-2.28,11.4l-3.04,8.55l-3.8,8.55l-6.08,10.45M610.37,803.5l47.13,-4.75l-2.28,-1.9l-2.28,17.1h3.8l-47.13,4.75M656.73,822.5l-2.28,1.9l-19,2.85l-10.64,1.9l-9.88,1.9M646.85,875.71l3.04,7.6l1.52,5.7M618.73,835.8l0.76,6.65l1.52,19l-0.76,-4.75l35.73,-2.85h-3.04l2.28,-17.1l1.52,2.85l-37.25,2.85M612.65,863.36l0.76,8.55l0.76,21.85l-0.76,14.25l-0.76,-3.8l1.52,-9.5M614.17,870.96l51.69,-4.75l-1.52,-2.85l-0.76,4.75l-2.28,21.85l-0.76,8.55l-3.04,9.5l-9.88,-12.35l10.64,9.5M687.9,828.2v8.55l-0.76,6.65l-0.76,4.75l-1.52,5.7M697.78,792.1l1.52,6.65L697.78,908.96l-1.52,-8.55l1.52,-9.5M699.3,819.65l8.36,6.65l3.04,3.8M722.1,812.05v9.5l-5.32,19.95l-3.8,11.4l-3.04,6.65M718.3,837.7h3.8l32.68,-4.75l-2.28,-0.95l-6.08,1.9M736.55,794l0.76,6.65l-2.28,95.01M706.9,897.56l55.49,-2.85l-2.28,-0.95l-5.32,0.95M785.19,804.45l3.04,1.9l1.52,-0.95l65.37,-6.65l-2.28,-0.95l-7.6,1.9M820.16,803.5l-0.76,30.4l-0.76,15.2l-0.76,8.55l-0.76,4.75l-0.76,5.7l-2.28,5.7l-2.28,4.75l-6.84,8.55l-7.6,7.6l-15.96,8.55l-2.28,0.95M788.23,860.51h3.8l14.44,10.45l12.16,9.5l11.4,8.55l14.44,12.35l16.72,-1.9l-15.96,1.9l-5.32,-3.8M797.35,814.9l2.28,8.55v34.2l-0.76,-1.9l44.85,-6.65h-4.56l4.56,-36.11l1.52,2.85l-2.28,1.9l-43.33,4.75M890.09,791.15l7.6,8.55l1.52,3.8l0.76,4.75M879.45,816.8l36.49,-5.7l-3.04,-0.95l-4.56,1.9M906.81,814.9l0.76,4.75l-6.08,20.9M871.85,845.31l48.65,-6.65l-4.56,-0.95l-6.08,1.9M897.69,843.4l1.52,4.75l-0.76,31.35l0.76,21.85v4.75l-1.52,1.9l-10.64,-14.25l11.4,12.35M878.69,863.36l38.01,-5.7l-0.76,-0.95l-2.28,-0.95l-5.32,2.85M887.81,869.06l-3.8,12.35l-6.84,9.5l-5.32,5.7M903.77,870.01l8.36,6.65l2.28,2.85l2.28,5.7M954.7,798.75l-7.6,6.65l-20.52,13.3l-3.04,-14.25l3.8,20.9v0.95l-0.76,17.1v15.2l-2.28,13.3l-2.28,14.25l-3.04,9.5l-3.8,8.55l-3.8,6.65M927.33,844.35l34.97,-6.65l-6.08,-0.95l-5.32,2.85M943.3,844.35l4.56,3.8l-1.52,-0.95l0.76,64.61l-1.52,-9.5l0.76,-8.55M0,1052.59l16.09,20.11h32.18l16.09,-20.11v-40.22l-16.09,-20.11h-48.27v-40.22h64.36M110.98,1038.5l7.6,0.95l4.56,0.95l2.28,0.95l3.04,1.9l1.52,1.9l0.76,1.9v1.9l-1.52,3.8l-1.52,1.9l-1.52,0.95h-1.52l-1.52,-0.95l-0.76,-1.9v-1.9l-0.76,-2.85l-1.52,-2.85l-3.04,-3.8l-3.04,-1.9l-3.8,-0.95M236.39,953.94v4.75l-7.6,25.65M215.11,972.94l2.28,11.4l2.28,86.46l-1.52,-7.6l38.01,-3.8l-3.04,-0.95l-2.28,0.95M218.91,985.29l46.37,-5.7l-1.52,-4.75l-1.52,53.21v2.85l-0.76,38.01l-4.56,-8.55M219.67,1035.65h2.28l28.88,-3.8l-2.28,-0.95l-6.08,2.85M219.67,1010.95h0.76l29.64,-3.8l-3.8,-0.95h-0.76l-3.04,0.95M318.49,1000.49l-0.76,7.6l-13.68,38.96l-3.04,0.95l30.4,-14.25l-5.32,-13.3l6.08,14.25l0.76,8.55l-3.04,-12.35M339.01,1001.44l39.53,-5.7l-3.8,-2.85l-1.52,13.3l-3.04,19l-3.04,16.15l-3.04,12.35l-3.04,9.5l-1.52,1.9l-8.36,-19l9.12,17.1M320.01,1072.7l7.6,-8.55l6.84,-8.55l4.56,-8.55l5.32,-10.45l4.56,-14.25l2.28,-12.35l3.8,-28.5l1.52,-15.2l1.52,-12.35M415.02,956.79l-0.76,7.6l-16.72,38.96l-0.76,-2.85l18.24,-2.85M421.1,980.54v6.65l-21.28,41.81l-1.52,-1.9l22.8,-9.5M443.14,952.04l6.84,10.45l0.76,4.75M429.46,967.24l1.52,9.5v17.1l-3.04,30.4l-1.52,12.35l-3.04,10.45l-4.56,11.4l-7.6,14.25M433.26,977.69l0.76,-0.95l34.2,-5.7l-3.04,-2.85l-3.04,24.7h4.56l-34.97,5.7M430.98,1010l3.04,7.6v1.9l1.52,48.46l-1.52,-7.6l0.76,-4.75M434.78,1015.7l40.29,-7.6l-3.04,-1.9l0.76,4.75v23.75l-0.76,14.25l-0.76,11.4l-1.52,9.5l-6.84,-9.5l6.08,6.65M512.31,953.94l3.04,11.4v24.7l36.49,-4.75h-6.08l1.52,-23.75l0.76,-3.8l1.52,2.85l-5.32,0.95l-28.88,3.8M491.79,1009.05h9.88l19.76,-1.9l48.65,-6.65l-5.32,-0.95l-7.6,1.9M520.67,1007.15l-5.32,22.8l-1.52,-3.8l40.29,-5.7l-2.28,-3.8v3.8l-4.56,16.15l-3.04,10.45l-3.8,8.55l-3.04,6.65l-2.28,4.75l-1.52,0.95l-13.68,-21.85l14.44,19.95M0,1173.26h48.27l16.09,20.11v20.11l-16.09,20.11h-32.18l-16.09,-20.11v-60.33l32.18,-40.22h16.09M110.98,1199.39l7.6,0.95l4.56,0.95l2.28,0.95l3.04,1.9l1.52,1.9l0.76,1.9v1.9l-1.52,3.8l-1.52,1.9l-1.52,0.95h-1.52l-1.52,-0.95l-0.76,-1.9v-1.9l-0.76,-2.85l-1.52,-2.85l-3.04,-3.8l-3.04,-1.9l-3.8,-0.95M219.67,1115.78l2.28,8.55v36.11l2.28,3.8l2.28,1.9l3.04,0.95l30.4,-2.85l5.32,-0.95l3.8,-1.9l2.28,-1.9l-1.52,-18.05v19M221.95,1124.33l35.73,-4.75l-2.28,-2.85l-0.76,3.8l-1.52,19.95h2.28l-33.44,4.75M249.32,1168.99l2.28,5.7l0.76,38.01l-0.76,12.35l-0.76,4.75l-13.68,-16.15l13.68,14.25l0.76,-3.8M222.71,1187.99l5.32,13.3l0.76,5.7M202.19,1187.99l2.28,1.9l0.76,-0.95l47.89,-5.7l0.76,-0.95l26.6,-3.8h-3.04l-4.56,1.9M320.77,1124.33l6.08,0.95l38.01,86.46l15.96,2.85l-15.2,-4.75l-4.56,-7.6M335.97,1149.98l-4.56,14.25l-6.08,12.35l-4.56,9.5l-6.08,10.45l-12.92,16.15h-0.76l-6.84,8.55M400.58,1199.39l7.6,0.95l4.56,0.95l2.28,0.95l3.04,1.9l1.52,1.9l0.76,1.9v1.9l-1.52,3.8l-1.52,1.9l-1.52,0.95h-1.52l-1.52,-0.95l-0.76,-1.9v-1.9l-0.76,-2.85l-1.52,-2.85l-3.04,-3.8l-3.04,-1.9l-3.8,-0.95M509.27,1115.78l2.28,8.55v36.11l2.28,3.8l2.28,1.9l3.04,0.95l30.4,-2.85l5.32,-0.95l3.8,-1.9l2.28,-1.9l-1.52,-18.05v19M511.55,1124.33l35.73,-4.75l-2.28,-2.85l-0.76,3.8l-1.52,19.95h2.28l-33.44,4.75M538.92,1168.99l2.28,5.7l0.76,38.01l-0.76,12.35l-0.76,4.75l-13.68,-16.15l13.68,14.25l0.76,-3.8M512.31,1187.99l5.32,13.3l0.76,5.7M491.79,1187.99l2.28,1.9l0.76,-0.95l47.89,-5.7l0.76,-0.95l26.6,-3.8h-3.04l-4.56,1.9M601.25,1136.68l1.52,5.7l1.52,13.3v13.3l-0.76,12.35l-0.76,-4.75l5.32,-0.95l41.81,-5.7v5.7l1.52,-33.25v-7.6M624.05,1117.68l3.04,5.7l-1.52,-1.9L626.33,1222.19M598.97,1189.89l1.52,7.6v15.2l0.76,15.2l-2.28,-2.85h6.08l47.13,-5.7l0.76,6.65l0.76,-21.85l0.76,-14.25l-0.76,-5.7M0,1273.82h64.36L16.09,1394.48M110.98,1360.28l7.6,0.95l4.56,0.95l2.28,0.95l3.04,1.9l1.52,1.9l0.76,1.9v1.9l-1.52,3.8l-1.52,1.9l-1.52,0.95h-1.52l-1.52,-0.95l-0.76,-1.9v-1.9l-0.76,-2.85l-1.52,-2.85l-3.04,-3.8l-3.04,-1.9l-3.8,-0.95M215.87,1275.72l3.04,5.7l-1.52,-0.95L215.87,1381.18l-0.76,5.7l-11.4,-14.25l12.16,13.3M199.15,1313.72h0.76l31.92,-5.7l-2.28,-0.95l-6.08,2.85M269.84,1284.27l-3.04,3.8l-12.16,7.6l-10.64,3.8l-7.6,3.8M228.79,1318.47l55.49,-6.65l-4.56,-0.95l-7.6,1.9M244,1331.78l-9.88,12.35l-1.52,-6.65l2.28,7.6v20.9l0.76,24.7l-0.76,-8.55l31.92,-2.85l-3.04,-0.95l-3.8,0.95M261.48,1335.58l16.72,-2.85l-2.28,-3.8l-4.56,42.76l-0.76,7.6l-0.76,6.65l-3.8,-6.65M320.77,1285.22l6.08,0.95l38.01,86.46l15.96,2.85l-15.2,-4.75l-4.56,-7.6M335.97,1310.87l-4.56,14.25l-6.08,12.35l-4.56,9.5l-6.08,10.45l-12.92,16.15h-0.76l-6.84,8.55M393.74,1339.38l34.97,-3.8h0.76l45.61,-4.75l-3.04,-1.9l-9.12,3.8M533.6,1273.82v5.7l-6.84,14.25l-9.12,15.2l-8.36,11.4l-9.12,10.45l-7.6,7.6l-8.36,6.65M530.56,1313.72v44.66l-0.76,36.11l-0.76,-7.6l1.52,-16.15M529.04,1290.92l9.88,12.35l13.68,19l8.36,13.3l16.72,0.95l-16.72,-2.85l-6.08,-6.65M579.2,1394.48v-40.22l32.18,-80.44l32.18,80.44v40.22M740.09,1354.26h-64.36l48.27,-80.44V1394.48M786.71,1278.57l1.52,12.35l1.52,97.86l-0.76,-10.45h53.97l-3.8,-0.95l-7.6,0.95M788.99,1290.92l63.85,-5.7l-2.28,-2.85l-1.52,8.55l-0.76,85.51l-0.76,9.5l-5.32,-7.6M814.08,1291.87v4.75l-6.84,14.25l-8.36,11.4l-3.8,4.75M810.28,1306.12l3.04,0.95l21.28,-2.85l-2.28,-2.85l-9.88,18.05l-7.6,9.5l-6.84,7.6l-6.84,6.65l-7.6,4.75M808.76,1316.57h2.28l23.56,24.7h8.36l-8.36,-1.9l-3.8,-1.9M812.56,1340.33l8.36,6.65l3.8,4.75M809.52,1356.48l9.88,6.65l4.56,4.75M894.65,1277.62l2.28,4.75l-0.76,-1.9L896.93,1389.73l-1.52,-6.65l0.76,-7.6M896.17,1318.47l-8.36,19l-12.16,20.9M896.93,1321.32l7.6,8.55l2.28,4.75M917.45,1291.87l37.25,-5.7h-3.04l-6.84,1.9M913.65,1280.47l2.28,11.4l-0.76,92.16l-2.28,-3.8l44.85,-6.65h-5.32l-6.84,2.85M922.77,1357.43l32.68,-4.75l-3.04,-0.95l-5.32,1.9M1000.3,1411.59l3.04,-3.8l3.8,-8.55v-9.5l-3.8,-4.75l-3.8,4.75l3.8,4.75l3.8,-4.75M1082.4,1276.67l6.84,10.45l1.52,5.7M1077.08,1292.82l3.04,5.7l-1.52,-1.9v70.31l-0.76,23.75l-0.76,-6.65l0.76,-8.55M1099.88,1308.97l-3.8,7.6l-3.8,8.55l-6.84,10.45l-4.56,6.65M1094.56,1319.42l0.76,28.5v24.7l-0.76,-6.65l0.76,-6.65M1102.16,1289.97l41.05,-4.75l-1.52,-1.9v97.86l-1.52,5.7l-0.76,4.75l-6.08,-7.6l-6.84,-6.65l12.92,11.4M1118.12,1302.32l6.84,7.6l1.52,4.75M1100.64,1330.82l30.4,-7.6l-1.52,-0.95l-4.56,2.85M1126.48,1333.68l-9.12,13.3l-8.36,9.5l-9.12,6.65M1107.48,1302.32l1.52,4.75l2.28,18.05l2.28,12.35l3.04,11.4l3.8,9.5l5.32,6.65l5.32,4.75l-1.52,-18.05v16.15M1169.05,1282.37l1.52,9.5v95.01l-0.76,-8.55l0.76,-6.65M1171.33,1292.82l20.52,-2.85l-3.04,-2.85l-7.6,27.55l0.76,3.8l3.04,4.75l1.52,4.75v11.4l-1.52,4.75l-2.28,3.8l-6.84,-7.6l7.6,5.7M1207.81,1279.52v6.65l-3.8,11.4l-4.56,12.35l-4.56,9.5l-3.8,6.65M1201.73,1305.17l-0.76,82.66l-0.76,-7.6l0.76,-5.7M1209.33,1321.32l34.2,-8.55h-2.28l-6.84,2.85M1226.82,1278.57l0.76,6.65l-1.52,92.16v5.7l-1.52,3.8l-9.12,-12.35l9.88,10.45M1210.09,1331.78l5.32,8.55l0.76,5.7l-3.04,-10.45M1289.91,1279.52l-3.8,12.35l-5.32,11.4l-6.08,10.45l-6.08,8.55l-7.6,9.5M1280.78,1306.12l0.76,57.01v27.55l-0.76,-5.7l0.76,-10.45M1302.83,1291.87l-2.28,15.2l-3.04,13.3l-3.04,9.5l-2.28,5.7M1302.83,1318.47l34.97,-8.55h-3.8l-6.08,2.85M1290.67,1347.93l53.97,-9.5l-3.8,-0.95l-6.84,2.85M1317.27,1275.72l2.28,3.8l-1.52,-1.9L1318.79,1391.63l-0.76,-8.55l0.76,-14.25M1351.47,1394.48h48.27l16.09,-20.11v-20.11l-16.09,-20.11h-32.18M1399.74,1334.15l16.09,-20.11v-20.11l-16.09,-20.11h-48.27M1448.01,1394.48V1273.82h64.36V1394.48h-64.36M1544.54,1394.48V1273.82l32.18,80.44l32.18,-80.44V1394.48M1658.56,1287.12l7.6,8.55l1.52,3.8l1.52,4.75M1650.2,1317.52l7.6,5.7l2.28,3.8l1.52,3.8M1651.72,1371.68l7.6,10.45l12.92,-60.81M1697.32,1276.67l3.04,3.8l-0.76,-0.95l-0.76,43.71M1677.56,1326.07l50.17,-8.55l-3.04,-0.95l-7.6,2.85M1682.88,1332.73l2.28,6.65v23.75l-0.76,27.55l-0.76,-6.65l0.76,-9.5M1685.16,1339.38l30.4,-4.75l-2.28,-3.8l-0.76,37.06v12.35l-1.52,6.65l-0.76,3.8l-10.64,-13.3l10.64,11.4M1766.49,1276.67l9.12,13.3l0.76,9.5l-2.28,-11.4M1797.66,1273.82l4.56,4.75l-2.28,-0.95l-9.88,26.6M1757.37,1296.62l3.04,8.55l2.28,16.15v16.15l0.76,10.45l-2.28,-6.65l51.69,-4.75l-5.32,-0.95l3.8,-33.25l2.28,-1.9l-2.28,-0.95l-0.76,1.9l-48.65,5.7M1784.74,1306.12l0.76,54.16l0.76,26.6v7.6l-1.52,-6.65l0.76,-15.2M1742.93,1364.08l85.89,-9.5l-4.56,-0.95l-6.08,1.9M16.09,1555.37l-16.09,-20.11v-20.11l16.09,-20.11h32.18l16.09,-20.11v-20.11l-16.09,-20.11h-32.18l-16.09,20.11v20.11l16.09,20.11M48.27,1495.04l16.09,20.11v20.11l-16.09,20.11h-32.18M110.98,1521.17l7.6,0.95l4.56,0.95l2.28,0.95l3.04,1.9l1.52,1.9l0.76,1.9v1.9l-1.52,3.8l-1.52,1.9l-1.52,0.95h-1.52l-1.52,-0.95l-0.76,-1.9v-1.9l-0.76,-2.85l-1.52,-2.85l-3.04,-3.8l-3.04,-1.9l-3.8,-0.95M209.03,1466.06l67.65,-7.6l-3.8,-0.95l-8.36,2.85M240.19,1435.66l1.52,4.75l0.76,55.11l-1.52,-6.65l0.76,-9.5M246.28,1463.21l24.32,32.3l10.64,-0.95l-10.64,-0.95l-5.32,-4.75M237.15,1464.16l-10.64,15.2l-6.84,7.6l-6.08,5.7l-7.6,5.7l-6.08,2.85M222.71,1494.57l1.52,7.6l1.52,37.06l-2.28,-4.75l37.25,-4.75l-3.8,0.95l3.04,-37.06l2.28,2.85l-3.04,0.95h-1.52l-33.44,3.8M224.99,1516.42l25.84,-2.85l-3.04,-0.95l-1.52,1.9M206.75,1554.42l72.97,-6.65l-3.8,-0.95l-8.36,1.9M317.73,1437.56l0.76,5.7V1543.97l-0.76,3.8l-0.76,2.85l-9.88,-14.25l9.88,12.35M359.53,1449.91l7.6,9.5l0.76,2.85v1.9M344.33,1437.56l2.28,6.65l0.76,19.95l0.76,11.4l0.76,12.35l1.52,12.35l0.76,7.6l1.52,5.7l1.52,7.6l3.04,7.6l3.04,6.65l4.56,6.65l3.8,4.75l3.8,2.85l3.8,1.9l-0.76,-27.55l-0.76,26.6M368.65,1491.71l-2.28,6.65l-9.88,12.35l-11.4,11.4l-9.12,7.6l-6.84,4.75M335.21,1490.76l39.53,-14.25h-3.8l-4.56,2.85M407.42,1448.01l51.69,-4.75l-3.8,-3.8l-1.52,5.7l-10.64,36.11l-1.52,-1.9h1.52l22.04,-3.8l-2.28,-2.85l-3.8,10.45l-3.8,9.5l-3.04,6.65l-3.8,5.7l-5.32,9.5l-5.32,7.6l-6.08,7.6l-5.32,4.75l-6.84,5.7l-7.6,5.7l-6.08,4.75M423.38,1484.11l39.53,63.66h15.96l-14.44,-1.9l-1.52,-0.95l-6.08,-7.6M426.42,1450.86v4.75l-3.04,18.05l-2.28,10.45l-3.04,10.45l-3.8,11.4l-4.56,9.5l-5.32,11.4l-5.32,8.55l-9.12,11.4M503.95,1448.96l5.32,6.65l2.28,3.8v3.8M496.35,1477.46l6.84,6.65l2.28,5.7M494.83,1526.87l8.36,12.35l10.64,-54.16M536.64,1479.36l-4.56,17.1l-9.88,24.7l-6.84,8.55l-5.32,5.7M518.39,1488.86l10.64,12.35l8.36,12.35l2.28,5.7l0.76,4.75l-2.28,-8.55M550.32,1462.26l3.04,6.65l-1.52,-1.9l-0.76,49.41l-0.76,-7.6l0.76,-6.65M563.24,1440.41l3.04,6.65l-1.52,-2.85V1544.92l-1.52,2.85l-10.64,-13.3l10.64,11.4M525.24,1445.16l6.08,11.4l0.76,4.75l-0.76,2.85M636.97,1435.66l-0.76,7.6l-0.76,2.85l-5.32,15.2l-3.8,8.55l-4.56,6.65M633.17,1457.51l3.04,0.95l28.12,-4.75M640.01,1459.41l6.84,14.25v4.75M608.09,1486.01l1.52,6.65v37.06l-0.76,-5.7l0.76,-4.75M609.61,1491.71l37.25,-3.8l-3.04,-1.9l-2.28,44.66v-5.7l0.76,-8.55M624.81,1500.27l0.76,4.75l-2.28,8.55l-3.04,12.35l-4.56,7.6l-6.84,8.55l-6.84,4.75l-8.36,3.8l-6.84,2.85M628.61,1514.52l1.52,3.8v24.7l0.76,2.85l3.8,1.9l7.6,1.9h9.12l13.68,-1.9l2.28,-0.95l-1.52,-23.75v23.75M687.14,1471.76l32.68,-6.65l-3.04,-0.95l-6.08,3.8M719.82,1485.06l42.57,-7.6l-2.28,-2.85l-0.76,7.6l-3.8,23.75l-1.52,8.55l-2.28,10.45l-2.28,9.5l-2.28,7.6l-2.28,5.7l-2.28,1.9l-9.88,-19.95l10.64,18.05M741.11,1435.66v8.55l-2.28,18.05l-0.76,9.5l-1.52,12.35l-4.56,20.9l-3.04,7.6l-3.04,9.5l-5.32,9.5l-6.08,8.55l-5.32,6.65l-5.32,5.7M802.68,1437.56v4.75l-15.96,33.25l-3.8,0.95l32.68,-8.55l-8.36,-11.4l8.36,12.35l1.52,3.8M788.99,1483.16l1.52,9.5v50.36l-0.76,9.5l-0.76,-5.7l1.52,-6.65M791.27,1492.66l21.28,-3.8v-1.9l2.28,1.9h-2.28l-0.76,49.41v8.55l-1.52,5.7l-9.12,-9.5M827,1436.61l0.76,3.8l-0.76,19l-0.76,16.15l0.76,7.6l2.28,4.75l3.8,1.9l6.08,0.95l13.68,-0.95v-15.2M846,1452.76l-2.28,4.75l-16.72,17.1M823.96,1494.57l1.52,3.8l0.76,28.5v14.25l1.52,5.7l3.8,4.75h3.04l11.4,0.95l7.6,-0.95l4.56,-0.95l-0.76,-18.05M847.52,1503.12l-2.28,4.75l-19,19.95M16.09,1716.26h16.09l32.18,-40.22v-60.33l-16.09,-20.11h-32.18l-16.09,20.11v20.11l16.09,20.11h48.27M110.98,1682.06l7.6,0.95l4.56,0.95l2.28,0.95l3.04,1.9l1.52,1.9l0.76,1.9v1.9l-1.52,3.8l-1.52,1.9l-1.52,0.95h-1.52l-1.52,-0.95l-0.76,-1.9v-1.9l-0.76,-2.85l-1.52,-2.85l-3.04,-3.8l-3.04,-1.9l-3.8,-0.95M224.99,1596.55l-0.76,5.7l-6.84,15.2v1.9l-6.08,11.4l-5.32,9.5l-5.32,7.6l-4.56,6.65M214.35,1628.85v83.61l-1.52,-7.6l1.52,-14.25M225.75,1631.7v55.11l-0.76,-6.65l0.76,-4.75M252.36,1598.45l-5.32,14.25l-4.56,11.4l-5.32,8.55l-0.76,1.9l-3.8,6.65M245.52,1616.5l3.04,0.95l22.8,-3.8l-1.52,-1.9l-7.6,13.3l-6.84,11.4l-6.08,7.6l-13.68,13.3l-4.56,3.8M242.47,1626l3.04,0.95l29.64,34.2l9.88,-0.95h-9.88l-3.8,-3.8M255.4,1651.65l-0.76,2.85l-0.76,0.95l-7.6,7.6l-6.08,6.65l-5.32,4.75M261.48,1663.06l-1.52,3.8l-0.76,1.9l-8.36,9.5l-1.52,0.95l-4.56,4.75l-12.16,9.5M268.32,1674.46l-2.28,6.65l-8.36,9.5l-7.6,7.6l-7.6,4.75l-7.6,5.7l-6.84,3.8l-5.32,1.9M300.24,1620.3l30.4,-4.75l-3.04,-2.85l-3.8,33.25h3.8l-22.8,3.8l-1.52,-8.55l1.52,10.45l-0.76,42.76M350.41,1598.45l-1.52,11.4l-4.56,15.2l-6.08,16.15l-4.56,10.45l-3.04,7.6l-3.04,6.65M338.25,1643.1l34.2,-5.7l-3.8,-0.95l-6.08,1.9M357.25,1641.2v5.7l-3.04,15.2l-3.04,8.55l-3.04,7.6l-3.8,6.65l-4.56,6.65l-5.32,6.65l-12.16,9.5l-9.12,3.8M334.45,1655.46l2.28,0.95l23.56,51.31l14.44,0.95l-13.68,-2.85l-3.8,-5.7M421.1,1598.45l2.28,15.2l0.76,13.3l0.76,16.15v-9.5l34.97,-5.7h-3.8l3.04,-28.5v3.8l-35.73,5.7M437.82,1638.35l-2.28,15.2l-4.56,17.1l-6.08,14.25l-7.6,10.45l-6.84,8.55l-9.12,8.55M410.46,1661.16l56.25,-9.5l-2.28,-2.85l-2.28,14.25l-3.04,13.3l-3.8,14.25l-3.04,8.55l-2.28,4.75l-12.92,-18.05l12.92,16.15M497.87,1625.05l68.41,-9.5h-3.8l-6.08,1.9M531.32,1598.45l-2.28,15.2l-6.84,14.25l-6.84,12.35l-7.6,11.4l-15.2,19l-4.56,2.85M510.79,1638.35l0.76,13.3l0.76,23.75v29.45l-0.76,7.6v-7.6l0.76,-13.3M526,1642.15l32.68,-4.75v-3.8l-15.96,21.85l-2.28,-4.75l3.8,10.45l1.52,19l-0.76,17.1l-1.52,9.5l-0.76,3.8l-11.4,-16.15l11.4,14.25M519.15,1670.66l53.97,-10.45l-3.8,-0.95l-9.12,3.8M654.45,1598.45l-2.28,4.75l-9.12,5.7l-14.44,5.7l-18.24,5.7l-2.28,-12.35l2.28,13.3v1.9l-0.76,15.2l-1.52,15.2l-1.52,11.4l-3.04,13.3l-2.28,10.45l-5.32,10.45l-1.52,1.9l-4.56,6.65l-4.56,5.7M613.41,1642.15l55.49,-5.7l-2.28,-1.9l-3.04,1.9M617.97,1659.26l3.04,10.45v18.05l0.76,22.8l-1.52,-8.55l37.25,-1.9h-4.56l3.8,-39.91l2.28,5.7h-3.8l-33.44,4.75M690.18,1600.35l1.52,12.35l1.52,97.86l-0.76,-10.45h53.97l-3.8,-0.95l-7.6,0.95M692.46,1612.7l63.85,-5.7l-2.28,-2.85l-1.52,8.55l-0.76,85.51l-0.76,9.5l-5.32,-7.6M717.54,1613.65v4.75l-6.84,14.25l-8.36,11.4l-3.8,4.75M713.74,1627.9l3.04,0.95l21.28,-2.85l-2.28,-2.85l-9.88,18.05l-7.6,9.5l-6.84,7.6l-6.84,6.65l-7.6,4.75M712.22,1638.35h2.28l23.56,24.7h8.36l-8.36,-1.9l-3.8,-1.9M716.02,1662.11l8.36,6.65l3.8,4.75M712.98,1678.26l9.88,6.65l4.56,4.75M798.11,1602.25l-0.76,5.7l-6.08,19.95l-8.36,19.95h-2.28l21.28,-5.7M806.48,1629.8l-0.76,4.75l-10.64,20.9l-10.64,19l-2.28,0.95l27.36,-10.45M814.84,1615.55l2.28,9.5l0.76,29.45v24.7l-0.76,22.8l-1.52,2.85l18.24,-20.9M818.64,1654.5l38.77,-11.4l-2.28,-0.95l-6.84,3.8M846.76,1605.1l-2.28,5.7l-17.48,10.45l-9.12,3.8M833.84,1619.35l0.76,17.1l2.28,16.15l0.76,1.9l1.52,9.5l1.52,10.45l3.04,11.4l4.56,9.5l4.56,6.65l4.56,3.8l2.28,2.85l-1.52,-23.75l-0.76,21.85M886.29,1604.15l2.28,7.6v39.91l-1.52,15.2l-2.28,11.4l-3.04,13.3l-4.56,9.5l-4.56,7.6M888.57,1660.21l15.96,-1.9l-1.52,-2.85v42.76l-0.76,-5.7v-7.6M902.25,1598.45l1.52,5.7v36.11M947.86,1600.35l-1.52,2.85l-14.44,9.5l-9.88,4.75M918.97,1606.05l1.52,9.5v12.35l-1.52,16.15l-1.52,15.2l-2.28,13.3l-2.28,12.35l-3.04,10.45l-3.8,9.5l-4.56,6.65M925.81,1642.15l24.32,-6.65l-1.52,-2.85l-3.8,12.35l-4.56,15.2l-4.56,11.4l-5.32,12.35l-7.6,11.4l-7.6,8.55l-6.08,6.65M925.05,1654.5l21.28,48.46l14.44,0.95l-13.68,-1.9l-3.8,-5.7M976.74,1637.4l75.25,-8.55l-3.04,-1.9l-9.88,2.85M1014.75,1596.55l0.76,77.91v41.81l-1.52,-5.7l1.52,-12.35M994.98,1685.86l38.01,-4.75l-3.04,-1.9l-6.84,2.85M1011.71,1634.55l-8.36,17.1l-7.6,14.25l-8.36,10.45l-9.88,10.45l-8.36,7.6M1018.55,1635.5l22.8,48.46l16.72,-0.95l-15.96,-0.95l-4.56,-5.7M1074.03,1611.75l7.6,5.7l-4.56,-1.9l1.52,91.21l-4.56,3.8l28.88,-25.65M1105.2,1601.3l6.08,6.65l-2.28,-1.9v76.01l0.76,18.05l2.28,4.75l3.04,2.85l6.84,1.9l13.68,-0.95l9.88,-2.85l0.76,-0.95l-1.52,-24.7M1109,1668.76l22.04,-24.7l3.8,-8.55M1187.29,1599.4l1.52,4.75l-10.64,40.86l-4.56,15.2l-1.52,-0.95l25.08,-6.65M1188.81,1636.45l0.76,2.85v73.16l-1.52,-3.8l1.52,-8.55M1165.25,1683.01l4.56,1.9l0.76,-1.9l34.2,-10.45M1214.65,1598.45l4.56,9.5l1.52,4.75l0.76,3.8M1200.21,1628.85l1.52,0.95l1.52,-0.95l37.25,-7.6l-3.04,-0.95l-5.32,2.85M1226.06,1634.55l9.88,13.3l3.04,4.75M1211.61,1635.5v2.85l-3.8,8.55l-6.08,9.5l-3.8,6.65M1207.81,1658.31l1.52,0.95l25.08,46.56h12.92l-12.92,-1.9l-4.56,-4.75M1226.82,1648.8l0.76,5.7l-0.76,-0.95l-2.28,11.4l-3.04,8.55l-3.8,7.6l-5.32,9.5l-10.64,13.3l-7.6,7.6M0,1776.6l16.09,-20.11V1877.15M80.44,1877.15l-16.09,-20.11v-80.44l16.09,-20.11h16.09l16.09,20.11v80.44l-16.09,20.11h-16.09M159.24,1842.95l7.6,0.95l4.56,0.95l2.28,0.95l3.04,1.9l1.52,1.9l0.76,1.9v1.9l-1.52,3.8l-1.52,1.9l-1.52,0.95h-1.52l-1.52,-0.95l-0.76,-1.9v-1.9l-0.76,-2.85l-1.52,-2.85l-3.04,-3.8l-3.04,-1.9l-3.8,-0.95M255.78,1761.24l1.52,12.35l1.52,97.86l-0.76,-10.45h53.97l-3.8,-0.95l-7.6,0.95M258.06,1773.59l63.85,-5.7l-2.28,-2.85l-1.52,8.55l-0.76,85.51l-0.76,9.5l-5.32,-7.6M283.14,1774.54v4.75l-6.84,14.25l-8.36,11.4l-3.8,4.75M279.34,1788.79l3.04,0.95l21.28,-2.85l-2.28,-2.85l-9.88,18.05l-7.6,9.5l-6.84,7.6l-6.84,6.65l-7.6,4.75M277.82,1799.24h2.28l23.56,24.7h8.36l-8.36,-1.9l-3.8,-1.9M281.62,1823l8.36,6.65l3.8,4.75M278.58,1839.15l9.88,6.65l4.56,4.75M363.71,1763.14l-0.76,5.7l-6.08,19.95l-8.36,19.95h-2.28l21.28,-5.7M372.07,1790.69l-0.76,4.75l-10.64,20.9l-10.64,19l-2.28,0.95l27.36,-10.45M380.43,1776.44l2.28,9.5l0.76,29.45v24.7l-0.76,22.8l-1.52,2.85l18.24,-20.9M384.24,1815.39l38.77,-11.4l-2.28,-0.95l-6.84,3.8M412.36,1765.99l-2.28,5.7l-17.48,10.45l-9.12,3.8M399.44,1780.24l0.76,17.1l2.28,16.15l0.76,1.9l1.52,9.5l1.52,10.45l3.04,11.4l4.56,9.5l4.56,6.65l4.56,3.8l2.28,2.85l-1.52,-23.75l-0.76,21.85M448.84,1792.59l68.41,-10.45l-4.56,-0.95l-6.08,2.85M479.25,1758.39l1.52,7.6l-0.76,-0.95l-4.56,24.7l-3.8,13.3l-4.56,12.35l-4.56,11.4l-5.32,11.4l-6.84,11.4l-5.32,8.55l-3.8,4.75M468.61,1813.49l6.08,11.4l1.52,4.75l0.76,6.65M489.13,1794.49l1.52,5.7l-0.76,2.85l-2.28,16.15l-0.76,9.5l-3.04,8.55l-3.8,10.45l-5.32,8.55l-6.08,7.6l-7.6,5.7l-6.84,4.75M487.61,1823.95l22.04,44.66h13.68l-12.92,-1.9l-4.56,-5.7M510.41,1809.69l-2.28,6.65l-16.72,15.2M572.74,1760.29l-1.52,5.7l-3.04,5.7l-6.84,13.3l-5.32,8.55l-6.84,10.45l-4.56,6.65l-5.32,5.7M561.34,1785.94v86.46l-0.76,-6.65l0.76,-7.6M584.9,1761.24l1.52,6.65v12.35l-1.52,70.31l1.52,4.75l0.76,2.85l1.52,1.9l3.04,1.9l3.8,0.95l21.28,-0.95l1.52,-0.95l-0.76,-23.75v23.75M610.75,1784.99l-0.76,5.7l-14.44,18.05l-6.08,4.75l-6.84,7.6l-11.4,7.6M0,1937.49l16.09,-20.11V2038.04M64.36,1937.49l16.09,-20.11V2038.04M143.15,2003.84l7.6,0.95l4.56,0.95l2.28,0.95l3.04,1.9l1.52,1.9l0.76,1.9v1.9l-1.52,3.8l-1.52,1.9l-1.52,0.95h-1.52l-1.52,-0.95l-0.76,-1.9v-1.9l-0.76,-2.85l-1.52,-2.85l-3.04,-3.8l-3.04,-1.9l-3.8,-0.95M270.85,1918.33l-2.28,5.7l-9.88,15.2l-8.36,10.45l-3.04,-0.95l41.81,-7.6l-8.36,-11.4l12.16,16.15l1.52,2.85M237.41,1966.78l38.01,-2.85l33.44,-4.75l-5.32,-0.95l-8.36,2.85M270.85,1950.63l-5.32,11.4l-6.84,11.4l-9.12,10.45l-8.36,9.5l-6.08,4.75l-3.8,2.85M279.21,1963.93l21.28,29.45l14.44,-0.95l-14.44,-0.95l-4.56,-4.75M275.41,1974.38l-8.36,10.45l-8.36,8.55l-7.6,5.7l-3.8,1.9M283.01,1989.59l-11.4,11.4l-9.12,7.6l-9.12,6.65M292.14,2003.84l-9.88,10.45l-12.16,8.55l-15.2,7.6l-8.36,3.8l-3.8,1.9M338.5,1931.63l6.84,10.45l1.52,6.65M369.67,1925.93v4.75l-6.08,21.85M354.46,1919.28l1.52,6.65v52.26l-1.52,-6.65l1.52,-5.7M355.22,1957.28l-6.84,10.45l-6.84,9.5l-6.84,7.6l-6.84,6.65M355.98,1959.18l9.12,5.7l4.56,4.75M353.7,1983.89l-8.36,26.6l5.32,1.9l6.08,1.9l6.08,2.85l7.6,3.8M333.94,2000.04l32.68,-6.65l0.76,-8.55v3.8l-3.8,11.4l-5.32,12.35l-5.32,9.5l-6.08,5.7l-5.32,5.7l-3.8,2.85M385.63,1917.38v5.7l-0.76,10.45l-2.28,13.3l-2.28,14.25l-3.04,11.4l-3.8,10.45l-0.76,2.85M379.55,1973.43l1.52,1.9l7.6,26.6l5.32,12.35l5.32,13.3l1.52,2.85l11.4,-0.95l-11.4,-0.95l-3.8,-5.7M396.27,1961.08l-2.28,16.15l-2.28,11.4l-2.28,9.5l-3.04,8.55l-6.08,11.4l-5.32,8.55l-6.08,7.6l-4.56,3.8M460.12,1921.18l-1.52,5.7l-3.04,5.7l-6.84,13.3l-5.32,8.55l-6.84,10.45l-4.56,6.65l-5.32,5.7M448.72,1946.83v86.46l-0.76,-6.65l0.76,-7.6M472.28,1922.13l1.52,6.65v12.35l-1.52,70.31l1.52,4.75l0.76,2.85l1.52,1.9l3.04,1.9l3.8,0.95l21.28,-0.95l1.52,-0.95l-0.76,-23.75v23.75M498.13,1945.88l-0.76,5.7l-14.44,18.05l-6.08,4.75l-6.84,7.6l-11.4,7.6M533.09,1929.73l6.08,6.65l2.28,2.85l1.52,2.85M527.01,1961.08l6.08,5.7l3.04,6.65M523.97,2011.44l7.6,11.4l15.96,-55.11M568.06,1918.33l5.32,9.5v5.7l-0.76,-6.65M553.61,1932.58v9.5l-1.52,6.65l-3.04,7.6M553.61,1941.13l47.89,-4.75l-2.28,-1.9l-4.56,14.25M553.61,1965.83l1.52,6.65l0.76,38.01l-0.76,-7.6l35.73,-4.75h-2.28l3.8,-33.25l1.52,2.85l-38.77,5.7M579.46,2011.44l7.6,7.6l5.32,4.75l3.04,3.8l2.28,6.65M567.3,2010.49l-2.28,5.7l-7.6,8.55l-6.84,5.7l-9.12,5.7M637.99,1933.53l42.57,-3.8h-3.8l-6.84,0.95M625.06,1961.08l69.93,-7.6l-3.04,-0.95l-5.32,1.9M658.51,1960.13l1.52,6.65l-0.76,42.76v7.6l-0.76,5.7l-0.76,1.9l-11.4,-13.3l11.4,11.4l0.76,-3.8M646.35,1973.43l-0.76,4.75l-3.8,8.55l-8.36,12.35l-5.32,7.6l-4.56,5.7M670.67,1979.13l9.88,11.4l6.08,6.65l3.04,5.7l1.52,3.8M0,2098.38l16.09,-20.11V2198.93M64.36,2098.38l16.09,-20.11h32.18l16.09,20.11v20.11l-16.09,20.11h-32.18l-16.09,20.11v40.22h64.36M175.33,2164.73l7.6,0.95l4.56,0.95l2.28,0.95l3.04,1.9l1.52,1.9l0.76,1.9v1.9l-1.52,3.8l-1.52,1.9l-1.52,0.95h-1.52l-1.52,-0.95l-0.76,-1.9v-1.9l-0.76,-2.85l-1.52,-2.85l-3.04,-3.8l-3.04,-1.9l-3.8,-0.95M284.03,2084.92l11.4,14.25l0.76,4.75M323.55,2078.27l-0.76,4.75l-12.16,32.3M282.51,2109.62l2.28,8.55l1.52,21.85l0.76,12.35l-1.52,-7.6l26.6,-2.85l14.44,-0.95h-3.04l3.8,-32.3l3.04,2.85l-8.36,1.9l-37.25,5.7M274.91,2159.98v7.6l-0.76,7.6l-4.56,13.3l-0.76,2.85M284.03,2161.88l3.04,7.6l3.8,6.65l5.32,6.65l5.32,5.7l6.08,4.75l6.84,2.85l9.88,2.85h5.32l-5.32,-21.85l3.8,21.85h0.76M300.75,2155.23l9.12,8.55l1.52,1.9l0.76,2.85M328.87,2159.03l10.64,10.45l2.28,2.85l1.52,5.7M385.88,2082.07l-0.76,6.65l-6.84,18.05l-10.64,22.8l-3.04,1.9l21.28,-3.8l2.28,-7.6v-4.75l-0.76,7.6l-13.68,31.35l-1.52,3.8l-3.8,1.9l24.32,-8.55M396.52,2121.02h0.76l43.33,-5.7M414.77,2079.22l1.52,3.8v28.5l-0.76,29.45M400.32,2155.23l0.76,7.6l0.76,29.45v5.7l-1.52,-6.65l31.16,-3.8l-2.28,0.95l2.28,-33.25l-0.76,3.8l3.04,-0.95l-31.92,4.75" />
<path id="cv_3" class="STxt ZW" d="M147.46,57.01l-60.81,9.5M115.54,64.61l-1.52,89.31M135.3,117.82l-41.05,7.6M95.77,125.42l41.05,-7.6M0,429.15h32.18M97.8,401.59l0,5.7M96.28,410.14l0,-10.45M94.76,398.74l0,12.35M93.24,412.04l0,-14.25M91.72,397.79l0,13.3M90.2,409.19l0,-12.35M88.68,396.84l0,5.7M87.16,400.64l0,-3.8M85.64,395.89l0,2.85M84.12,396.84l0,-0.95M81.84,395.89h3.8M90.2,396.84h-6.08M84.88,397.79h8.36M94.76,398.74h-9.12M87.16,399.69h8.36M97.8,401.59h-9.88M89.44,403.49h9.12M98.56,405.39h-8.36M90.2,407.29h7.6M97.04,409.19h-6.84M90.96,411.09h4.56M169.25,384.49l31.92,-21.85M171.53,351.23l30.4,-5.7M398.04,340.78l-34.97,2.85M360.8,397.79l41.05,-13.3M749.21,411.09l31.16,-14.25M965.85,359.79l31.16,-5.7M1133.07,362.64l42.57,-14.25M1228.84,346.48l28.12,-5.7M1226.56,382.59l29.64,-20.9M1567.85,364.54l-22.04,5.7M1545.81,354.08l21.28,-3.8M1567.85,334.13l-22.04,3.8M1648.42,343.63l34.97,-5.7M1662.87,309.43l0,52.26M1640.82,365.49l50.93,-7.6M1809.57,350.28l31.92,-5.7M129.98,562.48l0,5.7M128.46,571.03l0,-10.45M126.94,559.63l0,12.35M125.42,572.93l0,-14.25M123.9,558.68l0,13.3M122.38,570.08l0,-12.35M120.86,557.73l0,5.7M119.34,561.53l0,-3.8M117.82,556.78l0,2.85M116.3,557.73l0,-0.95M114.02,556.78h3.8M122.38,557.73h-6.08M117.06,558.68h8.36M126.94,559.63h-9.12M119.34,560.58h8.36M129.98,562.48h-9.88M121.62,564.38h9.12M130.74,566.28h-8.36M122.38,568.18h7.6M129.22,570.08h-6.84M123.14,571.98h4.56M248.56,494.07l28.12,-4.75M220.43,494.07l20.52,-4.75M298.72,573.88l33.44,-18.05M332.93,515.92l31.92,-13.3M331.41,536.83l39.53,-13.3M495.59,516.87l22.8,-5.7M492.55,560.58l28.12,-15.2M544.24,501.67l0,28.5M532.84,562.48l17.48,-2.85M640.01,509.27l-1.52,64.61M731.23,494.07l28.12,-4.75M703.1,494.07l20.52,-4.75M781.39,573.88l33.44,-18.05M815.6,515.92l31.92,-13.3M814.08,536.83l39.53,-13.3M974.46,571.98l31.16,-14.25M129.98,723.37l0,5.7M128.46,731.92l0,-10.45M126.94,720.52l0,12.35M125.42,733.82l0,-14.25M123.9,719.57l0,13.3M122.38,730.97l0,-12.35M120.86,718.62l0,5.7M119.34,722.42l0,-3.8M117.82,717.67l0,2.85M116.3,718.62l0,-0.95M114.02,717.67h3.8M122.38,718.62h-6.08M117.06,719.57h8.36M126.94,720.52h-9.12M119.34,721.47h8.36M129.98,723.37h-9.88M121.62,725.27h9.12M130.74,727.17h-8.36M122.38,729.07h7.6M129.22,730.97h-6.84M123.14,732.87h4.56M323.05,723.37l0,5.7M321.53,731.92l0,-10.45M320.01,720.52l0,12.35M318.49,733.82l0,-14.25M316.97,719.57l0,13.3M315.45,730.97l0,-12.35M313.93,718.62l0,5.7M312.4,722.42l0,-3.8M310.88,717.67l0,2.85M309.36,718.62l0,-0.95M307.08,717.67h3.8M315.45,718.62h-6.08M310.12,719.57h8.36M320.01,720.52h-9.12M312.4,721.47h8.36M323.05,723.37h-9.88M314.69,725.27h9.12M323.81,727.17h-8.36M315.45,729.07h7.6M322.29,730.97h-6.84M316.21,732.87h4.56M583.76,703.42l28.88,-20.9M640.01,653.06l-1.52,82.66M658.25,709.12l-10.64,0.95M630.89,711.97l-9.12,2.85M998.02,681.56l31.16,-5.7M1068.71,722.42l32.68,-17.1M1070.23,679.66l28.12,-4.75M1212.37,668.26l-43.33,9.5M1358.32,722.42l32.68,-17.1M1359.84,679.66l28.12,-4.75M1505.78,667.31l-0.76,56.06M1491.33,727.17l26.6,-6.65M1587.87,705.32l34.97,-4.75M1647.92,722.42l32.68,-17.1M1649.44,679.66l28.12,-4.75M2034.05,722.42l32.68,-17.1M2035.57,679.66l28.12,-4.75M2137.43,697.72l16.72,-1.9M2438.43,654.01l24.32,-3.8M2470.36,653.06l24.32,-6.65M129.98,884.26l0,5.7M128.46,892.81l0,-10.45M126.94,881.41l0,12.35M125.42,894.71l0,-14.25M123.9,880.46l0,13.3M122.38,891.86l0,-12.35M120.86,879.51l0,5.7M119.34,883.31l0,-3.8M117.82,878.56l0,2.85M116.3,879.51l0,-0.95M114.02,878.56h3.8M122.38,879.51h-6.08M117.06,880.46h8.36M126.94,881.41h-9.12M119.34,882.36h8.36M129.98,884.26h-9.88M121.62,886.16h9.12M130.74,888.06h-8.36M122.38,889.96h7.6M129.22,891.86h-6.84M123.14,893.76h4.56M323.05,884.26l0,5.7M321.53,892.81l0,-10.45M320.01,881.41l0,12.35M318.49,894.71l0,-14.25M316.97,880.46l0,13.3M315.45,891.86l0,-12.35M313.93,879.51l0,5.7M312.4,883.31l0,-3.8M310.88,878.56l0,2.85M309.36,879.51l0,-0.95M307.08,878.56h3.8M315.45,879.51h-6.08M310.12,880.46h8.36M320.01,881.41h-9.12M312.4,882.36h8.36M323.05,884.26h-9.88M314.69,886.16h9.12M323.81,888.06h-8.36M315.45,889.96h7.6M322.29,891.86h-6.84M316.21,893.76h4.56M636.97,828.2l-0.76,56.06M622.53,888.06l26.6,-6.65M719.06,866.21l34.97,-4.75M806.48,837.7l27.36,-3.8M886.29,820.6l5.32,16.15M129.98,1045.15l0,5.7M128.46,1053.7l0,-10.45M126.94,1042.3l0,12.35M125.42,1055.6l0,-14.25M123.9,1041.35l0,13.3M122.38,1052.75l0,-12.35M120.86,1040.4l0,5.7M119.34,1044.2l0,-3.8M117.82,1039.45l0,2.85M116.3,1040.4l0,-0.95M114.02,1039.45h3.8M122.38,1040.4h-6.08M117.06,1041.35h8.36M126.94,1042.3h-9.12M119.34,1043.25h8.36M129.98,1045.15h-9.88M121.62,1047.05h9.12M130.74,1048.95h-8.36M122.38,1050.85h7.6M129.22,1052.75h-6.84M123.14,1054.65h4.56M305.56,976.74l26.6,-5.7M297.2,1003.34l35.73,-7.6M419.58,1036.6l-25.84,16.15M440.1,1037.55l25.84,-4.75M445.42,1015.7l0.76,45.61M456.83,1013.8l0,45.61M129.98,1206.04l0,5.7M128.46,1214.59l0,-10.45M126.94,1203.19l0,12.35M125.42,1216.49l0,-14.25M123.9,1202.24l0,13.3M122.38,1213.64l0,-12.35M120.86,1201.29l0,5.7M119.34,1205.09l0,-3.8M117.82,1200.34l0,2.85M116.3,1201.29l0,-0.95M114.02,1200.34h3.8M122.38,1201.29h-6.08M117.06,1202.24h8.36M126.94,1203.19h-9.12M119.34,1204.14h8.36M129.98,1206.04h-9.88M121.62,1207.94h9.12M130.74,1209.84h-8.36M122.38,1211.74h7.6M129.22,1213.64h-6.84M123.14,1215.54h4.56M419.58,1206.04l0,5.7M418.06,1214.59l0,-10.45M416.54,1203.19l0,12.35M415.02,1216.49l0,-14.25M413.5,1202.24l0,13.3M411.98,1213.64l0,-12.35M410.46,1201.29l0,5.7M408.94,1205.09l0,-3.8M407.42,1200.34l0,2.85M405.9,1201.29l0,-0.95M403.62,1200.34h3.8M411.98,1201.29h-6.08M406.66,1202.24h8.36M416.54,1203.19h-9.12M408.94,1204.14h8.36M419.58,1206.04h-9.88M411.22,1207.94h9.12M420.34,1209.84h-8.36M411.98,1211.74h7.6M418.82,1213.64h-6.84M412.74,1215.54h4.56M129.98,1366.93l0,5.7M128.46,1375.48l0,-10.45M126.94,1364.08l0,12.35M125.42,1377.38l0,-14.25M123.9,1363.13l0,13.3M122.38,1374.53l0,-12.35M120.86,1362.18l0,5.7M119.34,1365.98l0,-3.8M117.82,1361.23l0,2.85M116.3,1362.18l0,-0.95M114.02,1361.23h3.8M122.38,1362.18h-6.08M117.06,1363.13h8.36M126.94,1364.08h-9.12M119.34,1365.03h8.36M129.98,1366.93h-9.88M121.62,1368.83h9.12M130.74,1370.73h-8.36M122.38,1372.63h7.6M129.22,1374.53h-6.84M123.14,1376.43h4.56M197.63,1346.98l28.88,-20.9M253.88,1296.62l-1.52,82.66M272.12,1352.68l-10.64,0.95M244.76,1355.53l-9.12,2.85M579.2,1354.26h64.36M909.09,1309.92l-28.88,6.65M923.53,1311.82l28.12,-5.7M936.45,1310.87l0,44.66M925.81,1331.78l24.32,-4.75M1367.56,1273.82L1367.56,1394.48M1680.6,1300.42l38.77,-7.6M1713.29,1307.07l-27.36,5.7M1685.16,1365.98l19,-3.8M1703.41,1348.88l-18.24,3.8M1770.29,1325.12l31.16,-5.7M129.98,1527.82l0,5.7M128.46,1536.37l0,-10.45M126.94,1524.97l0,12.35M125.42,1538.27l0,-14.25M123.9,1524.02l0,13.3M122.38,1535.42l0,-12.35M120.86,1523.07l0,5.7M119.34,1526.87l0,-3.8M117.82,1522.12l0,2.85M116.3,1523.07l0,-0.95M114.02,1522.12h3.8M122.38,1523.07h-6.08M117.06,1524.02h8.36M126.94,1524.97h-9.12M119.34,1525.92h8.36M129.98,1527.82h-9.88M121.62,1529.72h9.12M130.74,1531.62h-8.36M122.38,1533.52h7.6M129.22,1535.42h-6.84M123.14,1537.32h4.56M297.96,1509.77l29.64,-18.05M334.45,1468.91l-33.44,9.5M515.35,1478.41l29.64,-5.7M601.25,1446.11l3.04,35.16M615.69,1437.56l2.28,46.56M704.62,1469.86l0,45.61M683.34,1524.02l39.53,-17.1M791.27,1507.87l12.92,-1.9M792.03,1524.02l12.92,-2.85M129.98,1688.71l0,5.7M128.46,1697.26l0,-10.45M126.94,1685.86l0,12.35M125.42,1699.16l0,-14.25M123.9,1684.91l0,13.3M122.38,1696.31l0,-12.35M120.86,1683.96l0,5.7M119.34,1687.76l0,-3.8M117.82,1683.01l0,2.85M116.3,1683.96l0,-0.95M114.02,1683.01h3.8M122.38,1683.96h-6.08M117.06,1684.91h8.36M126.94,1685.86h-9.12M119.34,1686.81h8.36M129.98,1688.71h-9.88M121.62,1690.61h9.12M130.74,1692.51h-8.36M122.38,1694.41h7.6M129.22,1696.31h-6.84M123.14,1698.21h4.56M301.76,1698.21l23.56,-25.65M782.15,1702.96l28.88,-16.15M889.33,1643.1l22.04,-3.8M1082.4,1656.41l16.72,-5.7M1169.05,1625.05l30.4,-4.75M0,1877.15h32.18M178.25,1849.6l0,5.7M176.73,1858.15l0,-10.45M175.21,1846.75l0,12.35M173.69,1860.05l0,-14.25M172.16,1845.8l0,13.3M170.64,1857.2l0,-12.35M169.12,1844.85l0,5.7M167.6,1848.65l0,-3.8M166.08,1843.9l0,2.85M164.56,1844.85l0,-0.95M162.28,1843.9h3.8M170.64,1844.85h-6.08M165.32,1845.8h8.36M175.21,1846.75h-9.12M167.6,1847.7h8.36M178.25,1849.6h-9.88M169.88,1851.5h9.12M179.01,1853.4h-8.36M170.64,1855.3h7.6M177.49,1857.2h-6.84M171.4,1859.1h4.56M347.75,1863.85l28.88,-16.15M0,2038.04h32.18M64.36,2038.04h32.18M162.16,2010.49l0,5.7M160.64,2019.04l0,-10.45M159.12,2007.64l0,12.35M157.6,2020.94l0,-14.25M156.08,2006.69l0,13.3M154.56,2018.09l0,-12.35M153.04,2005.74l0,5.7M151.52,2009.54l0,-3.8M149.99,2004.79l0,2.85M148.47,2005.74l0,-0.95M146.19,2004.79h3.8M154.56,2005.74h-6.08M149.23,2006.69h8.36M159.12,2007.64h-9.12M151.52,2008.59h8.36M162.16,2010.49h-9.88M153.8,2012.39h9.12M162.92,2014.29h-8.36M154.56,2016.19h7.6M161.4,2018.09h-6.84M155.32,2019.99h4.56M333.94,1958.23l41.05,-7.6M381.07,1961.08l28.12,-5.7M588.58,1952.53l-30.4,4.75M572.62,1956.33l-0.76,44.66M582.5,1982.94l-20.52,3.8M562.73,1986.74l20.52,-3.8M0,2198.93h32.18M194.33,2171.38l0,5.7M192.81,2179.93l0,-10.45M191.29,2168.53l0,12.35M189.77,2181.83l0,-14.25M188.25,2167.58l0,13.3M186.73,2178.98l0,-12.35M185.21,2166.63l0,5.7M183.69,2170.43l0,-3.8M182.17,2165.68l0,2.85M180.65,2166.63l0,-0.95M178.37,2165.68h3.8M186.73,2166.63h-6.08M181.41,2167.58h8.36M191.29,2168.53h-9.12M183.69,2169.48h8.36M194.33,2171.38h-9.88M185.97,2173.28h9.12M195.09,2175.18h-8.36M186.73,2177.08h7.6M193.57,2178.98h-6.84M187.49,2180.88h4.56M363.84,2187.53l31.16,-16.15M398.8,2143.83l36.49,-4.75" />
</g>
<g style="font-family: simsun, helvetica, sans-serif" stroke="none" fill="#000">
<g font-size="197.903998" stroke="none" fill="#000">
<text id="cv_4" transform="scale(1.111111 1) translate(450 1759.15) rotate(330) " >For Demonstration Purposes Only</text>
<text id="cv_5" transform="scale(1.111111 1) translate(900 1759.15) rotate(330) " >Tailor Made Software, Ltd</text>
</g>
</g>
</g>
</g></svg>
