<?xml version="1.0" encoding="utf-8" ?>
<!-- Generated by AutoXChange 64-bit  V23.10.103 from Tailor Made Software -->
<!-- www.tailormade.com and www.cadviewer.com -->
<!DOCTYPE svg PUBLIC '-//W3C//DTD SVG 1.0//EN' 
'http://www.w3.org/TR/2001/REC-SVG-20010904/DTD/svg10.dtd'>
<svg id="tmsSVG64" contentScriptType="text/ecmascript" xmlns:xlink="http://www.w3.org/1999/xlink" zoomAndPan="magnify" 
contentStyleType="text/css" preserveAspectRatio="xMidYMid meet" 
width="2500" height="1122.77" viewBox="0 0 2500 1122.77" 
version="1.1" xmlns="http://www.w3.org/2000/svg" xmlns:cvjs="http://www.tailormade.com/" stroke-linecap="butt" stroke-linejoin="round" fill-rule="evenodd" >
<defs>
	<style id="cv_styles" type = "text/css">
	    <![CDATA[
	   #tmsSVG64 { background-color: white; opacity: 1.}
		:root {
		    --tmsMinLineWidth: 1.6;
		    --tmsMinDashLength: 0.6;
		    --tmsHLWidth: 0.6;
		    --tmsNumberOfLayouts: 1;
		    --tmsNumberOfSVGViewports: 0;
         --tmsMinFixedLineWidth: 0.6;
		    --tmsbPostFix: 0;
		}
		.tmsPoints {
		    fill: none;
		    stroke-width: var(--tmsMinLineWidth);
		    r: calc(var(--tmsMinLineWidth)/2.0);
		}
		.ZWhl {
		    stroke-width: var(--tmsHLWidth);
		}
		.ZW {
		    stroke-width: var(--tmsMinLineWidth);
		}
		.ZW6 {
		    stroke-width: calc(var(--tmsMinLineWidth)*6);
		}
		.ZW10 {
		    stroke-width: calc(var(--tmsMinLineWidth)*10);
		}
		.ZW20 {
		    stroke-width: calc(var(--tmsMinLineWidth)*20);
		}
		.ZW100 {
		    stroke-width: calc(var(--tmsMinLineWidth)*100);
		}
		.nZW {
		}
		.sLW_0_2{
		    stroke-width: calc(var(--tmsMinFixedLineWidth)*0.333333);
		}
		.sLW_0_6{
		    stroke-width: var(--tmsMinFixedLineWidth);
		}
		.hyperlinks:hover {
		    stroke-width: 3;
		}
		.hyperimage image{
			opacity: 0;
		}
		.hyperimage:hover image{
			opacity: 1;
		}
		.hyperimage:hover path{
			stroke-width: 3;
		}
		.hyperimage:visited{
			color: red;
		}
	]]></style>
	</defs>
<metadata>
<text id="cadviewer_worldUnits">
{ "globalOrigin": { "x": -0.201633, "y" : -0.143946}, 
						"units": "in",
						"measurementType": "English",
						"lengthType": "Decimal",
						"lengthPrecision": 4,
						"blockUnitsFormat": "Inches",
						"svgToWorldUnits": 0.007546,
						"worldToSVGUnits": 132.516846
}
</text>
<text id="cadviewer_drawingCoordinates">
{ "DWG": 
    { "lowerLeft": { "x": -0.201633, "y" : -0.143946}, 
      "upperRight": { "x": 18.663893, "y" : 8.328707} 
    },
 "SVG": 
    { "lowerLeft": { "x": 0.000000, "y" : 1205.884632}, 
      "upperRight": { "x": 2500.000000, "y" : 83.115368} 
    },
 "Drawing Height": 1289
}
</text>
<text id="cadviewer_vqBuilding"></text>
<text id="cadviewer_vqFloor"></text>
<text id="cadviewer_multiPages">
{ "multiPages": 1, 
                   "currentPage":1,
                   "pages" : [
                        { "fileName":"one_of_simple", "pageName":"ModelSpace"}
                   ]
}
</text>
</metadata>
<g id="cv_main_drawing">
<g id="layer_0" class="layer_0"  cvjs:layerName="0" cvjs:plottable="YES"
 cvjs:status="ON" visibility="visible">
<g id="cvclr_1" stroke="#000" fill="none">
<path id="cv_2" d="M0,0V1122.77H2178.02V0H0" />
<path id="cv_3" stroke-width="5" d="M586.98,117.68l-0.03,-1.83l-0.09,-1.83l-0.14,-1.83l-0.2,-1.82l-0.26,-1.82l-0.32,-1.81l-0.37,-1.8l-0.43,-1.78l-0.48,-1.77l-0.54,-1.75l-0.59,-1.74l-0.65,-1.72l-0.7,-1.69l-0.75,-1.67l-0.81,-1.65l-0.86,-1.62l-1.1,-1.91l-1.17,-1.87l-1.24,-1.82l-1.3,-1.77l-1.37,-1.72l-1.43,-1.67l-1.5,-1.61l-1.82,-1.81l-1.62,-1.49l-1.68,-1.42l-1.73,-1.36l-1.78,-1.29l-1.83,-1.23l-1.87,-1.16l-1.59,-0.91l-1.62,-0.86l-1.65,-0.81l-1.67,-0.75l-1.69,-0.7l-1.72,-0.65l-1.74,-0.59l-1.75,-0.54l-1.77,-0.48l-1.78,-0.43l-1.8,-0.37l-1.81,-0.32l-1.82,-0.26l-1.82,-0.2l-1.83,-0.14l-1.83,-0.09l-1.83,-0.03l-1.83,0.03l-1.83,0.09l-1.83,0.14l-1.82,0.2l-1.82,0.26l-1.81,0.32l-1.8,0.37l-1.78,0.43l-1.77,0.48l-1.75,0.54l-1.74,0.59l-1.72,0.65l-1.69,0.7l-1.67,0.75l-1.65,0.81l-1.62,0.86l-1.91,1.1l-1.87,1.17l-1.82,1.24l-1.77,1.3l-1.72,1.37l-1.67,1.43l-1.61,1.5l-1.81,1.82l-1.49,1.62l-1.42,1.68l-1.36,1.73l-1.29,1.78l-1.23,1.83l-1.16,1.87l-0.91,1.59l-0.86,1.62l-0.81,1.65l-0.75,1.67l-0.7,1.69l-0.65,1.72l-0.59,1.74l-0.54,1.75l-0.48,1.77l-0.43,1.78l-0.37,1.8l-0.32,1.81l-0.26,1.82l-0.2,1.82l-0.14,1.83l-0.09,1.83l-0.03,1.83l0.03,1.83l0.09,1.83l0.14,1.83l0.2,1.82l0.26,1.82l0.32,1.81l0.37,1.8l0.43,1.78l0.48,1.77l0.54,1.75l0.59,1.74l0.65,1.72l0.7,1.69l0.75,1.67l0.81,1.65l0.86,1.62l1.1,1.91l1.17,1.87l1.24,1.82l1.3,1.77l1.37,1.72l1.43,1.67l1.5,1.61l1.82,1.81l1.62,1.49l1.68,1.42l1.73,1.36l1.78,1.29l1.83,1.23l1.87,1.16l1.59,0.91l1.62,0.86l1.65,0.81l1.67,0.75l1.69,0.7l1.72,0.65l1.74,0.59l1.75,0.54l1.77,0.48l1.78,0.43l1.8,0.37l1.81,0.32l1.82,0.26l1.82,0.2l1.83,0.14l1.83,0.09l1.83,0.03l1.83,-0.03l1.83,-0.09l1.83,-0.14l1.82,-0.2l1.82,-0.26l1.81,-0.32l1.8,-0.37l1.78,-0.43l1.77,-0.48l1.75,-0.54l1.74,-0.59l1.72,-0.65l1.69,-0.7l1.67,-0.75l1.65,-0.81l1.62,-0.86l1.91,-1.1l1.87,-1.17l1.82,-1.24l1.77,-1.3l1.72,-1.37l1.67,-1.43l1.61,-1.5l1.81,-1.82l1.49,-1.62l1.42,-1.68l1.36,-1.73l1.29,-1.78l1.23,-1.83l1.16,-1.87l0.91,-1.59l0.86,-1.62l0.81,-1.65l0.75,-1.67l0.7,-1.69l0.65,-1.72l0.59,-1.74l0.54,-1.75l0.48,-1.77l0.43,-1.78l0.37,-1.8l0.32,-1.81l0.26,-1.82l0.2,-1.82l0.14,-1.83l0.09,-1.83l0.03,-1.83M1074.18,256.6l3.03,-8.08l30.48,-77.89l18.6,-40.6l0.78,-1.54l0.78,-1.52l0.78,-1.51l0.79,-1.49l0.79,-1.48l0.79,-1.46l0.79,-1.45l0.79,-1.43l0.79,-1.42l0.79,-1.4l0.79,-1.38l0.79,-1.37l0.79,-1.35l0.79,-1.33l0.79,-1.32l0.79,-1.3l0.8,-1.28l0.8,-1.27l0.8,-1.25l0.8,-1.23l0.8,-1.21l0.8,-1.19l0.8,-1.17l0.8,-1.16l0.8,-1.14l0.8,-1.12l0.81,-1.1l0.81,-1.08l0.81,-1.06l0.81,-1.04l0.81,-1.02l0.81,-1l0.81,-0.98l0.81,-0.96l0.81,-0.93l0.81,-0.91l0.82,-0.89l0.82,-0.87l0.82,-0.85l0.82,-0.83l0.82,-0.8l0.82,-0.78l0.82,-0.76l0.82,-0.74l0.82,-0.71l0.83,-0.69l0.83,-0.67l0.83,-0.64l0.83,-0.62l0.83,-0.59l0.83,-0.57l0.83,-0.54l0.83,-0.52l0.84,-0.49l0.84,-0.47l0.84,-0.44l0.84,-0.42l0.84,-0.39l0.84,-0.37l0.84,-0.34l0.85,-0.31l0.85,-0.29l0.85,-0.26l0.85,-0.23l0.85,-0.21l0.85,-0.18l0.85,-0.15l0.85,-0.12l0.86,-0.09l0.86,-0.07l0.86,-0.04h0.86l0.86,0.02l0.86,0.05l0.86,0.08l0.87,0.11l0.87,0.14l0.87,0.17l0.87,0.2l0.87,0.23l0.87,0.26l0.88,0.29l0.88,0.32l0.88,0.35l0.88,0.38l0.88,0.41l0.88,0.45l0.89,0.48l0.89,0.51l0.89,0.54l0.89,0.57l0.89,0.6l0.89,0.63l0.89,0.66l0.9,0.69l0.9,0.72l0.9,0.74l0.9,0.77l0.9,0.8l0.9,0.82l0.9,0.85l0.9,0.88l0.9,0.9l0.91,0.93l0.91,0.95l0.91,0.98l0.91,1l0.91,1.02l0.91,1.04l0.91,1.07l0.91,1.09l0.91,1.11l0.91,1.13l0.91,1.15l0.91,1.17l0.92,1.19l0.92,1.21l0.92,1.23l0.92,1.25l0.92,1.27l0.92,1.28l0.92,1.3l0.92,1.32l0.92,1.34l0.92,1.35l0.92,1.37l0.92,1.38l0.92,1.4l0.92,1.41l0.92,1.43l0.92,1.44l8.28,13.48l1.84,3.11l1.84,3.14l1.83,3.17l47.83,84.73l0.84,1.33l0.83,1.32l0.83,1.3l0.83,1.28l0.83,1.26l0.82,1.24l0.82,1.23l0.82,1.21l0.82,1.19l0.81,1.17l0.81,1.15l0.81,1.13l0.8,1.11l0.8,1.08l0.8,1.06l0.8,1.04l0.79,1.02l0.79,0.99l0.79,0.97l0.78,0.95l0.78,0.92l0.78,0.9l0.77,0.87l0.77,0.84l0.77,0.82l0.76,0.79l0.76,0.77l0.76,0.74l0.75,0.71l0.75,0.68l0.75,0.65l0.74,0.62l0.74,0.59l0.74,0.56l0.73,0.53l0.73,0.5l0.72,0.47l0.72,0.44l0.72,0.41l0.71,0.37l0.71,0.34l0.71,0.31l0.7,0.27l0.7,0.24l0.69,0.21l0.69,0.17l0.69,0.13l0.68,0.1l0.68,0.06l0.67,0.03l0.67,-0.01l0.67,-0.05l0.66,-0.09l0.66,-0.12l0.65,-0.16l0.65,-0.19l0.65,-0.23l0.64,-0.26l0.64,-0.3l0.64,-0.33l0.64,-0.36l0.63,-0.4l0.63,-0.43l0.63,-0.46l0.63,-0.49l0.62,-0.52l0.62,-0.55l0.62,-0.58l0.62,-0.61l0.62,-0.64l0.62,-0.67l0.62,-0.7l0.62,-0.73l0.62,-0.75l0.62,-0.78l0.62,-0.81l0.62,-0.83l0.62,-0.86l0.62,-0.88l0.62,-0.91l0.62,-0.93l0.62,-0.95l0.62,-0.98l0.62,-1l0.62,-1.02l0.63,-1.04l0.63,-1.06l0.63,-1.08l0.63,-1.1l0.64,-1.12l0.64,-1.14l0.64,-1.16l0.64,-1.18l19.16,-36.93l1.61,-2.99l1.64,-3.01l1.67,-3.02l1.71,-3.03l1.75,-3.03l1.79,-3.03l0.91,-1.51l0.92,-1.51l0.93,-1.51l0.94,-1.51l0.95,-1.51l0.96,-1.5l0.97,-1.5l0.98,-1.49l0.99,-1.49l1.01,-1.49l1.02,-1.48l1.03,-1.47l1.04,-1.47l1.05,-1.46l1.07,-1.45l1.08,-1.44l1.09,-1.44l1.11,-1.43l1.12,-1.42l1.13,-1.41l1.15,-1.4l1.16,-1.39l1.17,-1.38l1.19,-1.36l1.2,-1.35l1.22,-1.34l1.23,-1.33l1.25,-1.31l1.26,-1.3l1.28,-1.28l1.29,-1.27l1.31,-1.25l1.32,-1.24l1.34,-1.22l1.35,-1.2l1.37,-1.19l1.39,-1.17l1.4,-1.15l1.42,-1.13l1.44,-1.11l1.45,-1.09l1.47,-1.07l1.49,-1.05l1.51,-1.03l1.52,-1.01l1.54,-0.99l1.56,-0.96l1.58,-0.94l1.6,-0.92l1.62,-0.89l1.63,-0.87l1.65,-0.84l1.67,-0.82l1.68,-0.79l1.7,-0.77l1.71,-0.74l1.72,-0.71l1.73,-0.69l1.74,-0.66l1.75,-0.63l1.76,-0.6l1.77,-0.57l1.77,-0.54l1.77,-0.52l1.77,-0.49l1.78,-0.46l1.78,-0.42l1.77,-0.39l1.77,-0.36l1.77,-0.33l1.76,-0.3l1.76,-0.27l1.75,-0.23l1.74,-0.2l1.73,-0.17l1.72,-0.13l1.7,-0.1l1.69,-0.06l1.68,-0.03h1.66l1.64,0.04l1.62,0.08l1.6,0.12l1.58,0.15l1.56,0.19l1.54,0.23l1.51,0.27l1.49,0.3l1.46,0.34l1.43,0.38l1.4,0.42l0.69,0.23l0.68,0.24l0.67,0.25l0.66,0.26l0.66,0.27l0.65,0.28l0.64,0.29l0.63,0.3l0.62,0.31l0.61,0.32l0.6,0.33l0.59,0.34l0.58,0.35l0.57,0.36l0.56,0.37l0.55,0.38l0.54,0.39l0.53,0.4l0.52,0.41l0.51,0.42l0.5,0.44l0.49,0.45l0.48,0.46l0.47,0.47l0.46,0.48l0.45,0.49l0.43,0.5l0.42,0.51l0.41,0.52l0.4,0.54l0.39,0.55l0.37,0.56l0.36,0.57l0.35,0.58l0.34,0.59l0.32,0.61l0.31,0.62l0.3,0.63l0.28,0.64l0.27,0.65l0.25,0.66l0.24,0.68M536.31,437.92V652.06H773.59V437.92H536.31M1022.45,790.95L1116.98,557.53L1226.94,783.24L1319.54,571.03L1379.35,798.67L1470.02,574.89M1711.16,723.43L1749.75,540.16L1803.76,808.32L1869.35,598.04L1913.72,740.8M1713.09,94.53L1898.29,270.08L2012.11,146.62M1621.93,190.7L1904.65,458.7L2109.54,236.44" />
<path id="cv_4" class="ZW" d="M92.6,54.02L273.94,156.26M536.31,453.55l15.63,-15.63M536.31,476.98l39.06,-39.06M536.31,500.4l62.49,-62.49M536.31,523.83l85.91,-85.91M536.31,547.26L645.64,437.92M536.31,570.68L669.07,437.92M536.31,594.11L692.5,437.92M536.31,617.53L715.92,437.92M536.31,640.96L739.35,437.92M548.64,652.06L762.77,437.92M572.06,652.06L773.59,450.53M595.49,652.06L773.59,473.95M618.91,652.06L773.59,497.38M642.34,652.06L773.59,520.8M665.77,652.06L773.59,544.23M689.19,652.06l84.4,-84.4M712.62,652.06l60.97,-60.97M736.04,652.06l37.55,-37.55M759.47,652.06l14.12,-14.12" />
<path id="cv_5" class="tmsPoints" d="M1676.14,92.6h0.600000" />
<path id="cv_6" class="ZW" d="M123.46,617.33A 96.779577 96.779577 0 1 0 111.9 470.7" />
<ellipse id="cv_7" class="ZW" cx="868.12" cy="108.03" rx="46.620181" ry="22.580202" transform="rotate(335 868.12 108.03)" />
</g>
<g style="font-family: arial, helvetica, sans-serif" stroke="none" fill="#000">
<g font-size="70.533287" stroke="none" fill="#000">
<text id="cv_8" transform="scale(1.055556 1) translate(999.71 468.79) " >This is a simple text</text>
<text id="cv_9" transform="scale(1.055556 1) translate(997.96 950.46) " >This is a multiline text, see</text>
<text id="cv_10" transform="scale(1.055556 1) translate(994.83 1044.71) " >how it flows to the next line</text>
</g>
</g>
<g class="Block1" id="cv_Block_Block1_1">
<g id="cvclr_11" stroke="#000" fill="none">
<path id="cv_12" class=" ZW" d="M493.88,958.79l-0.02,-1.75l-0.05,-1.75l-0.08,-1.74l-0.12,-1.74l-0.15,-1.74l-0.18,-1.74l-0.21,-1.73l-0.25,-1.73l-0.28,-1.72l-0.31,-1.72l-0.34,-1.71l-0.38,-1.7l-0.41,-1.7l-0.44,-1.69l-0.47,-1.68l-0.5,-1.67l-0.53,-1.66l-0.57,-1.65l-0.6,-1.64l-0.63,-1.63l-0.66,-1.62l-0.69,-1.6l-0.96,-2.12l-1.02,-2.09l-1.07,-2.07l-1.12,-2.04l-1.17,-2.01l-1.22,-1.98l-1.27,-1.95l-1.32,-1.92l-1.37,-1.88l-1.42,-1.85l-1.46,-1.81l-1.51,-1.77l-1.55,-1.74l-1.59,-1.7l-1.64,-1.66l-1.68,-1.61l-1.72,-1.57l-1.76,-1.53l-1.79,-1.48l-1.83,-1.44l-1.87,-1.39l-1.9,-1.34l-1.93,-1.3l-1.97,-1.25l-2,-1.2l-2.03,-1.15l-2.05,-1.1l-2.08,-1.04l-2.11,-0.99l-1.6,-0.71l-1.61,-0.68l-1.62,-0.65l-1.63,-0.62l-1.64,-0.59l-1.66,-0.56l-1.67,-0.52l-1.67,-0.49l-1.68,-0.46l-1.69,-0.43l-1.7,-0.4l-1.71,-0.36l-1.71,-0.33l-1.72,-0.3l-1.73,-0.27l-1.73,-0.24l-1.73,-0.2l-1.74,-0.17l-1.74,-0.14l-1.74,-0.1l-1.74,-0.07l-1.75,-0.04h-1.75l-1.75,0.03l-1.74,0.06l-1.74,0.09l-1.74,0.13l-1.74,0.16l-1.74,0.19l-1.73,0.22l-1.73,0.26l-1.72,0.29l-1.72,0.32l-1.71,0.35l-1.7,0.39l-1.69,0.42l-1.69,0.45l-1.68,0.48l-1.67,0.51l-1.66,0.54l-1.65,0.58l-1.64,0.61l-1.63,0.64l-1.61,0.67l-1.6,0.7l-2.11,0.98l-2.09,1.03l-2.06,1.08l-2.03,1.13l-2,1.18l-1.97,1.23l-1.94,1.28l-1.91,1.33l-1.87,1.38l-1.84,1.43l-1.8,1.47l-1.77,1.52l-1.73,1.56l-1.69,1.6l-1.65,1.65l-1.6,1.69l-1.56,1.73l-1.52,1.77l-1.47,1.8l-1.43,1.84l-1.38,1.87l-1.33,1.91l-1.28,1.94l-1.23,1.97l-1.18,2l-1.13,2.03l-1.08,2.06l-1.03,2.09l-0.98,2.11l-0.7,1.6l-0.67,1.61l-0.64,1.63l-0.61,1.64l-0.58,1.65l-0.54,1.66l-0.51,1.67l-0.48,1.68l-0.45,1.69l-0.42,1.69l-0.39,1.7l-0.35,1.71l-0.32,1.72l-0.29,1.72l-0.26,1.73l-0.22,1.73l-0.19,1.74l-0.16,1.74l-0.13,1.74l-0.09,1.74l-0.06,1.74l-0.03,1.75v1.75l0.04,1.75l0.07,1.74l0.1,1.74l0.14,1.74l0.17,1.74l0.2,1.73l0.24,1.73l0.27,1.73l0.3,1.72l0.33,1.71l0.36,1.71l0.4,1.7l0.43,1.69l0.46,1.68l0.49,1.67l0.52,1.67l0.56,1.66l0.59,1.64l0.62,1.63l0.65,1.62l0.68,1.61l0.71,1.6l0.99,2.11l1.04,2.08l1.1,2.05l1.15,2.03l1.2,2l1.25,1.97l1.3,1.93l1.34,1.9l1.39,1.87l1.44,1.83l1.48,1.79l1.53,1.76l1.57,1.72l1.61,1.68l1.66,1.64l1.7,1.59l1.74,1.55l1.77,1.51l1.81,1.46l1.85,1.42l1.88,1.37l1.92,1.32l1.95,1.27l1.98,1.22l2.01,1.17l2.04,1.12l2.07,1.07l2.09,1.02l2.12,0.96l1.6,0.69l1.62,0.66l1.63,0.63l1.64,0.6l1.65,0.57l1.66,0.53l1.67,0.5l1.68,0.47l1.69,0.44l1.7,0.41l1.7,0.38l1.71,0.34l1.72,0.31l1.72,0.28l1.73,0.25l1.73,0.21l1.74,0.18l1.74,0.15l1.74,0.12l1.74,0.08l1.75,0.05l1.75,0.02l1.75,-0.02l1.75,-0.05l1.74,-0.08l1.74,-0.12l1.74,-0.15l1.74,-0.18l1.73,-0.21l1.73,-0.25l1.72,-0.28l1.72,-0.31l1.71,-0.34l1.7,-0.38l1.7,-0.41l1.69,-0.44l1.68,-0.47l1.67,-0.5l1.66,-0.53l1.65,-0.57l1.64,-0.6l1.63,-0.63l1.62,-0.66l1.6,-0.69l2.12,-0.96l2.09,-1.02l2.07,-1.07l2.04,-1.12l2.01,-1.17l1.98,-1.22l1.95,-1.27l1.92,-1.32l1.88,-1.37l1.85,-1.42l1.81,-1.46l1.77,-1.51l1.74,-1.55l1.7,-1.59l1.66,-1.64l1.61,-1.68l1.57,-1.72l1.53,-1.76l1.48,-1.79l1.44,-1.83l1.39,-1.87l1.34,-1.9l1.3,-1.93l1.25,-1.97l1.2,-2l1.15,-2.03l1.1,-2.05l1.04,-2.08l0.99,-2.11l0.71,-1.6l0.68,-1.61l0.65,-1.62l0.62,-1.63l0.59,-1.64l0.56,-1.66l0.52,-1.67l0.49,-1.67l0.46,-1.68l0.43,-1.69l0.4,-1.7l0.36,-1.71l0.33,-1.71l0.3,-1.72l0.27,-1.73l0.24,-1.73l0.2,-1.73l0.17,-1.74l0.14,-1.74l0.1,-1.74l0.07,-1.74l0.04,-1.75v-1.16M283.59,841.11V1068.75H520.87V841.11H283.59" />
<g style="font-family: arial, helvetica, sans-serif" stroke="none" fill="#000">
<g font-size="70.528646" stroke="none" fill="#000">
<text id="cv_13" transform="scale(1.055556 1) translate(341.77 987.73) "  cvjs:tag='ID' >1</text>
</g>
</g>
</g>
</g>
<g class="Block1" id="cv_Block_Block1_2">
<g id="cvclr_14" stroke="#000" fill="none">
<path id="cv_15" class=" ZW" d="M813.93,923.95l-1.69,-1.6l-1.77,-1.52l-1.61,-1.25l-1.66,-1.18l-1.71,-1.11l-1.76,-1.03l-1.8,-0.95l-1.84,-0.87l-1.61,-0.68l-1.63,-0.62l-1.65,-0.56l-1.67,-0.5l-1.69,-0.43l-1.71,-0.37l-1.72,-0.31l-1.73,-0.24l-1.74,-0.18l-1.74,-0.11l-1.75,-0.04l-1.75,0.02l-1.74,0.09l-1.74,0.15l-1.73,0.22l-1.72,0.28l-1.71,0.35l-1.7,0.41l-1.68,0.48l-1.66,0.54l-1.64,0.6l-1.61,0.66l-1.85,0.85l-1.81,0.93l-1.77,1.01l-1.72,1.09l-1.67,1.16l-1.62,1.23l-1.78,1.49l-1.71,1.58l-1.63,1.67l-1.54,1.75l-1.27,1.59l-1.2,1.64l-1.13,1.7l-1.05,1.74l-0.98,1.79l-0.9,1.83l-0.7,1.6l-0.64,1.62l-0.58,1.65l-0.52,1.67l-0.46,1.69l-0.39,1.7l-0.33,1.71l-0.26,1.73l-0.2,1.73l-0.13,1.74l-0.07,1.74v1.75l0.07,1.74l0.13,1.74l0.2,1.73l0.26,1.73l0.33,1.71l0.39,1.7l0.46,1.69l0.52,1.67l0.58,1.65l0.64,1.62l0.7,1.6l0.9,1.83l0.98,1.79l1.05,1.74l1.13,1.7l1.2,1.64l1.46,1.81l1.55,1.74l1.64,1.66l1.72,1.57l1.79,1.48l1.63,1.22l1.68,1.15l1.73,1.08l1.78,1l1.82,0.92l1.86,0.84l1.62,0.65l1.64,0.59l1.66,0.53l1.68,0.47l1.7,0.4l1.71,0.34l1.72,0.27l1.73,0.21l1.74,0.14l1.74,0.08l1.75,0.01l1.74,-0.05l1.74,-0.12l1.74,-0.19l1.73,-0.25l1.72,-0.32l1.7,-0.38l1.69,-0.44l1.67,-0.51l1.65,-0.57l1.63,-0.63l1.6,-0.69l1.83,-0.88l1.79,-0.96l1.75,-1.04l1.7,-1.12l1.65,-1.19l1.6,-1.26l1.76,-1.53l1.68,-1.61l1.59,-1.7l1.51,-1.77l1.24,-1.61l1.17,-1.67l1.1,-1.72l1.02,-1.76l0.94,-1.81l0.86,-1.85l0.67,-1.61l0.61,-1.63l0.55,-1.66l0.49,-1.68l0.42,-1.69l0.36,-1.71l0.29,-1.72l0.23,-1.73l0.16,-1.74l0.1,-1.74l0.03,-1.75l-0.03,-1.75l-0.1,-1.74l-0.16,-1.74l-0.23,-1.73l-0.29,-1.72l-0.36,-1.71l-0.42,-1.69l-0.49,-1.68l-0.55,-1.66l-0.61,-1.63l-0.67,-1.61l-0.86,-1.85l-0.94,-1.81l-1.02,-1.76l-1.1,-1.72l-1.17,-1.67l-1.24,-1.61l-1.51,-1.77l-1.59,-1.7l-0.21,-0.21M697.97,956.7l80.48,80.48l83.89,-83.89l-80.48,-80.48l-83.89,83.89" />
<g style="font-family: arial, helvetica, sans-serif" stroke="none" fill="#000">
<g font-size="35.264323" stroke="none" fill="#000">
<text id="cv_16" transform="scale(1.055556 1) translate(736.2 981.25) rotate(315) "  cvjs:tag='ID' >2</text>
</g>
</g>
</g>
</g>
</g>
</g></svg>