<?xml version="1.0" encoding="utf-8" ?>
<!-- Generated by AutoXChange 64-bit  V22.07.55 from Tailor Made Software -->
<!-- www.tailormade.com -->
<!DOCTYPE svg PUBLIC '-//W3C//DTD SVG 1.0//EN' 
'http://www.w3.org/TR/2001/REC-SVG-20010904/DTD/svg10.dtd'>
<svg contentScriptType="text/ecmascript" xmlns:xlink="http://www.w3.org/1999/xlink" zoomAndPan="magnify" 
contentStyleType="text/css" preserveAspectRatio="xMidYMid meet" 
width="2452.81" height="1592" viewBox="0 0 2452.81 1592" 
version="1.1" xmlns="http://www.w3.org/2000/svg" xmlns:cvjs="http://www.tailormade.com/" stroke-linecap="butt" stroke-linejoin="round" fill-rule="evenodd" >
<defs>
	<style id="cv_styles" type = "text/css">
	    <![CDATA[
	    svg{ background-color: white; opacity: 1.}
		:root {
		    --tmsMinLineWidth: 0.6;
		    --tmsHLWidth: 0.6;
		    --tmsNumberOfLayouts: 1;
		    --tmsNumberOfSVGViewports: 0;
         --tmsMinFixedLineWidth: 0.2;
		    --tmsbPostFix: 0;
		}
		.tmsPoints {
		    fill: none;
		    stroke-width: var(--tmsMinLineWidth);
		    r: calc(var(--tmsMinLineWidth)/2.0);
		}
		.ZWhl {
		    stroke-width: var(--tmsHLWidth);
		}
		.ZW {
		    stroke-width: var(--tmsMinLineWidth);
		}
		.ZW6 {
		    stroke-width: calc(var(--tmsMinLineWidth)*6);
		}
		.ZW10 {
		    stroke-width: calc(var(--tmsMinLineWidth)*10);
		}
		.ZW20 {
		    stroke-width: calc(var(--tmsMinLineWidth)*20);
		}
		.ZW100 {
		    stroke-width: calc(var(--tmsMinLineWidth)*100);
		}
		.nZW {
		}
		.sLW_0_2{
		    stroke-width: var(--tmsMinFixedLineWidth);
		}
		.sLW_0_6{
		    stroke-width: calc(var(--tmsMinFixedLineWidth)*3);
		}
		.hyperlinks:hover {
		    stroke-width: 3;
		}
		.hyperimage image{
			opacity: 0;
		}
		.hyperimage:hover image{
			opacity: 1;
		}
		.hyperimage:hover path{
			stroke-width: 3;
		}
		.hyperimage:visited{
			color: red;
		}
		.sLt_CENTER {
		    stroke-dasharray: calc(var(--tmsMinLineWidth)*0.212295) calc(var(--tmsMinLineWidth)*0.042459) calc(var(--tmsMinLineWidth)*0.042459) calc(var(--tmsMinLineWidth)*0.042459);
		}
	]]></style>
	</defs>
<metadata>
<text id="cadviewer_worldUnits">
{ "globalOrigin": { "x": 17.4489, "y" : -258.016}, 
						"units": "in",
						"measurementType": "English",
						"lengthType": "Architectural",
						"lengthPrecision": 4,
						"blockUnitsFormat": "Undefined",
						"svgToWorldUnits": 0.601759,
						"worldToSVGUnits": 1.6618
}
</text>
<text id="cadviewer_drawingCoordinates">
{ "DWG": 
    { "lowerLeft": { "x": 17.4489, "y" : -258.016}, 
      "upperRight": { "x": 1493.45, "y" : 699.984} 
    },
 "SVG": 
    { "lowerLeft": { "x": 23.595, "y" : 1592}, 
      "upperRight": { "x": 2476.41, "y" : 0} 
    },
 "Drawing Height": 1592
}
</text>
<text id="cadviewer_vqBuilding"></text>
<text id="cadviewer_vqFloor"></text>
<text id="cadviewer_multiPages">
{ "multiPages": 2, 
                   "currentPage":1,
                   "pages" : [
                        { "fileName":"F752207", "pageName":"ModelSpace"},
                        { "fileName":"F752207__Layout01", "pageName":"Layout1"}
                   ]
}
</text>
</metadata>
<g id="cv_main_drawing">
<g id="layer_WA_2D_EXT" class="layer_WA_2D_EXT"  cvjs:layerName="WA-EXT" cvjs:plottable="YES"
 cvjs:status="ON" visibility="visible">
<g id="cvclr_1" stroke="none" fill="#91A552" opacity="1.">
<path id="cv_2" d="M832.56,147.9v-89.74h34.9v-23.27h14.54v-4.99h22.43v-8.31h3.32v-11.63h-59.82v4.99h-30.33v23.27h-4.99v89.74h-10.39v-4.99h-36.56v11.63h3.32v8.31h11.22v4.99h52.35 Z "/>
<path id="cv_3" d="M660.98,117.99h-32.41v4.99h-11.63v11.63h3.32v8.31h49.02v-8.31h3.32v-11.63h-11.63v-4.99 Z "/>
<path id="cv_4" d="M402.15,265.89h51.52v-94.72h36.56v-23.27h14.54v-4.99h15.79v-8.31h3.32v-11.63h-54.84v4.99h-30.33v23.27h-4.99v94.72h-9.56v-4.99h-37.39v11.63h3.32v8.31h12.05v4.99 Z "/>
<path id="cv_5" d="M290.4,252.59v8.31h-49.02v-8.31h-3.32v-11.63h11.63v-4.99h32.41v4.99h11.63v11.63h-3.32 Z "/>
<path id="cv_6" d="M143.33,252.59v-11.63h-51.52v4.99h-31.99v23.27h-4.99v84.75h11.63v-3.32h8.31v-61.49h36.56v-23.27h14.54v-4.99h14.13v-8.31h3.32 Z "/>
<path id="cv_7" d="M48.19,561.69h63.15v-39.88h-36.56v-71.46h-8.31v-3.32h-11.63v69.8h-21.6v4.99h-23.27v31.99h-4.99v58.16h11.63v-3.32h8.31v-26.59h23.27v-20.36 Z "/>
<path id="cv_8" d="M24.93,749.89v-49.02h-8.31v-3.32h-11.63v11.63h-4.99v32.41h4.99v11.63h11.63v-3.32h8.31 Z "/>
<path id="cv_9" d="M74.78,1070.2h36.56v-39.88h-63.15v-20.36h-23.27v-26.59h-8.31v-3.32h-11.63v58.16h4.99v31.99h23.27v4.99h21.6v69.8h11.63v-3.32h8.31v-71.46 Z "/>
<path id="cv_10" d="M282.09,1356.03h-32.41v-4.99h-11.63v-11.63h3.32v-8.31h49.02v8.31h3.32v11.63h-11.63v4.99 Z "/>
<path id="cv_11" d="M0,882.83v-32.41h4.99v-11.63h11.63v3.32h8.31v49.02h-8.31v3.32h-11.63v-11.63h-4.99 Z "/>
<path id="cv_12" d="M504.77,1444.1v4.99h15.79v8.31h3.32v11.63h-54.84v-4.99h-30.33v-23.27h-4.99v-94.72h-9.56v4.99h-37.39v-11.63h3.32v-8.31h12.05v-4.99h51.52v94.72h36.56v23.27h14.54 Z "/>
<path id="cv_13" d="M780.21,1444.1h52.35v89.74h34.9v23.27h14.54v4.99h22.43v8.31h3.32v11.63h-59.82v-4.99h-30.33v-23.27h-4.99v-89.74h-10.39v4.99h-36.56v-11.63h3.32v-8.31h11.22v-4.99 Z "/>
<path id="cv_14" d="M1060.64,1567.07v-4.99h-56.5v8.31h-3.32v11.63h25.76v4.99h59.82v-11.63h-3.32v-8.31h-22.43 Z "/>
<path id="cv_15" d="M1249.67,1567.07v-33.24h-46.53v33.24h-20.36v8.31h-3.32v11.63h23.68v4.99h46.53v-4.99h23.68v-11.63h-3.32v-8.31h-20.36 Z "/>
<path id="cv_16" d="M1675.09,1427.48h-54.84V1533.84h-34.9v23.27h-14.54v4.99h-22.43v8.31h-3.32v11.63h59.82v-4.99h30.33v-23.27h4.99V1447.42h10.39v4.99h39.88v-11.63h-3.32v-8.31h-12.05v-4.99 Z "/>
<path id="cv_17" d="M1426.24,1587.01h-59.82v-11.63h3.32v-8.31h22.43v-4.99h56.5v8.31h3.32v11.63h-25.76v4.99 Z "/>
<path id="cv_18" d="M2206.45,1322.79h-32.41v-4.99h-11.63v-11.63h3.32v-8.31h49.02v8.31h3.32v11.63h-11.63v4.99 Z "/>
<path id="cv_19" d="M1999.14,1404.22V1292.88h54.84v4.99h12.05v8.31h3.32v11.63h-39.88v-4.99h-10.39V1424.16h-4.99v23.27h-30.33v4.99h-51.52v-11.63h3.32v-8.31h14.96v-4.99h14.54v-23.27h34.07 Z "/>
<path id="cv_20" d="M2311.14,1306.17v11.63h49.85v-4.99h31.99v-23.27h4.99v-71.46h-11.63v3.32h-8.31v48.19h-34.9v23.27h-14.54v4.99h-14.13v8.31h-3.32 Z "/>
<path id="cv_21" d="M1249.67,58.16h-46.53v-33.24h-20.36v-8.31h-3.32v-11.63h23.68v-4.99h46.53v4.99h23.68v11.63h-3.32v8.31h-20.36v33.24 Z "/>
<path id="cv_22" d="M1827.56,134.61h-32.41v4.99h-11.63v11.63h3.32v8.31h49.02v-8.31h3.32v-11.63h-11.63v-4.99 Z "/>
<path id="cv_23" d="M2206.45,269.21h-32.41v4.99h-11.63v11.63h3.32v8.31h49.02v-8.31h3.32v-11.63h-11.63v-4.99 Z "/>
<path id="cv_24" d="M2311.14,285.83v-11.63h49.85v4.99h31.99v23.27h4.99v71.46h-11.63v-3.32h-8.31v-48.19h-34.9v-23.27h-14.54v-4.99h-14.13v-8.31h-3.32 Z "/>
<path id="cv_25" d="M2452.81,869.53h-4.99v11.63h-11.63v-3.32h-8.31v-35.73h8.31v-3.32h11.63v11.63h4.99v19.11 Z "/>
<path id="cv_26" d="M1026.57,4.99h59.82v11.63h-3.32v8.31h-22.43v4.99h-56.5v-8.31h-3.32v-11.63h25.76v-4.99 Z "/>
<path id="cv_27" d="M1426.24,4.99h-59.82v11.63h3.32v8.31h22.43v4.99h56.5v-8.31h3.32v-11.63h-25.76v-4.99 Z "/>
<path id="cv_28" d="M1620.25,164.52V58.16h-34.9v-23.27h-14.54v-4.99h-22.43v-8.31h-3.32v-11.63h59.82v4.99h30.33v23.27h4.99V144.58h10.39v-4.99h39.88v11.63h-3.32v8.31h-12.05v4.99h-54.84 Z "/>
<path id="cv_29" d="M1999.14,187.78V299.12h54.84v-4.99h12.05v-8.31h3.32v-11.63h-39.88v4.99h-10.39V167.84h-4.99v-23.27h-30.33v-4.99h-51.52v11.63h3.32v8.31h14.96v4.99h14.54v23.27h34.07 Z "/>
<path id="cv_30" d="M2411.24,582.04v-20.36h-69.77v-39.88h36.56v-51.52h8.31v-3.32h11.63v49.85h21.6v4.99h23.27v31.99h4.99v71.46h-11.63v-3.32h-8.31v-39.88h-16.64 Z "/>
<path id="cv_31" d="M2411.27,1030.31h-69.8v39.88h36.56v51.52h8.31v3.32h11.63v-49.85h21.6v-4.99h23.27v-31.99h4.99v-71.46h-11.63v3.32h-8.31v39.88h-16.62v20.36 Z "/>
<path id="cv_32" d="M2427.88,714.16v35.73h8.31v3.32h11.63v-11.63h4.99v-19.11h-4.99v-11.63h-11.63v3.32h-8.31 Z "/>
<path id="cv_33" d="M2009.11,1025.33v49.85h-49.85v-49.85h49.85 Z "/>
<path id="cv_34" d="M2009.11,516.82h-49.85v49.85h49.85v-49.85 Z "/>
<path id="cv_35" d="M488.57,571.66v-59.82h-39.88v59.82h39.88 Z "/>
<path id="cv_36" d="M1246.35,511.83h-39.88v59.82h39.88v-59.82 Z "/>
<path id="cv_37" d="M1630.22,511.83v54.84h-49.85v-54.84h49.85 Z "/>
<path id="cv_38" d="M1580.37,1025.33h46.53v49.85h-46.53v-49.85 Z "/>
<path id="cv_39" d="M867.46,511.83h-39.88v59.82h39.88v-59.82 Z "/>
<path id="cv_40" d="M827.57,1020.34h39.88v59.82h-39.88v-59.82 Z "/>
<path id="cv_41" d="M488.57,1020.34v59.82h-39.88v-59.82h39.88 Z "/>
<path id="cv_42" d="M1206.46,1020.34h39.88v59.82h-39.88v-59.82 Z "/>
</g>
<g id="cvclr_43" stroke="none" fill="#B3B3B3" opacity="1.">
M144.99,1339.41v11.63h-53.18v-4.99h-31.99v-23.27h-4.99v-84.75h11.63v3.32h8.31v61.49h38.22v23.27h14.54v4.99h14.13v8.31h3.32 Z "/>
</g>
<g id="cvclr_44" stroke="#91A552" fill="none">
<path id="cv_45" class=" ZW" d="M0,882.83h4.99v11.63h11.63v-3.32h8.31v-49.02h-8.31v-3.32h-11.63v11.63L453.67,1326.11L504.77,1449.09v-4.99h-14.54v-23.27h-36.56l-19.45,-94.72h-32.07v4.99h-12.05v8.31h-3.32v11.63h37.39v-4.99h9.56v94.72h4.99v23.27h30.33v4.99h54.84v-11.63h-3.32v-8.31" />
</g>
<g id="cvclr_46" stroke="#000" fill="none">
<path id="cv_47" class="ZW" d="M54.84,1075.18l0,69.8M74.78,1141.65l-0,-71.46M54.84,1144.98h11.63l0,-3.32h8.31M9.97,1038.21l0,31.99h23.27l0,4.99h21.6M48.19,1009.96h-23.27M4.99,980.04l0,58.16M24.93,1009.96l0,-26.59M4.99,1038.21h4.99M16.62,983.37l0,-3.32M24.93,983.37h-8.31M16.62,980.04h-11.63M48.19,1030.31l0,-20.36M54.84,516.82l0,-69.8M74.78,450.35l-0,71.46M4.99,611.96l0,-58.16M48.19,561.69l0,20.36h-23.27l0,26.59M16.62,608.63l0,3.32h-11.63M24.93,608.63h-8.31M9.97,521.8h23.27M4.99,553.79h4.99l0,-31.99M33.24,521.8l0,-4.99h21.6M54.84,447.02h11.63l0,3.32h8.31M1249.67,1592h-46.53M1249.67,1533.84h-46.53M1203.14,1567.07l0,-33.24M1182.78,1567.07h20.36M1182.78,1575.38l0,-8.31M1179.46,1575.38h3.32M1179.46,1587.01l0,-11.63M1179.46,1587.01h23.68M1203.14,1592l0,-4.99M1270.03,1575.38l0,-8.31h-20.36M1273.35,1575.38h-3.32M1273.35,1587.01l0,-11.63M1273.35,1587.01h-23.68M1249.67,1592l0,-4.99M2397.97,1075.18l0,49.85M2386.34,1125.04l0,-3.32M2397.97,1125.04h-11.63M2442.84,1038.21l0,31.99M2378.03,1121.71l0,-51.52M2386.34,1121.71h-8.31M2442.84,1070.2h-23.27M2419.57,1075.18h-21.6M2419.57,1070.2l0,4.99M2447.82,966.75l0,71.46M2427.88,1009.96l0,-39.88M2411.27,1009.96h16.62M2447.82,1038.21h-4.99M2436.19,966.75h11.63M2436.19,970.07l0,-3.32M2427.88,970.07h8.31M1630.22,511.83h-49.85M1203.14,0l0,4.99M1249.67,0l0,4.99M1203.14,24.93l0,33.24M1182.78,24.93h20.36M1182.78,16.62l0,8.31M1179.46,16.62h3.32M1179.46,4.99h23.68M1179.46,4.99l0,11.63M1249.67,24.93l0,33.24M1270.03,16.62l0,8.31h-20.36M1273.35,16.62h-3.32M1273.35,4.99h-23.68M1273.35,4.99l0,11.63M1249.67,0h-46.53M2378.03,470.29l0,51.52M2397.97,516.82l0,-49.85M2447.82,625.25l0,-71.46M2427.88,582.04l0,39.88h8.31l0,3.32h11.63M2419.57,521.8l0,-4.99M2442.84,521.8h-23.27M2447.82,553.79h-4.99l0,-31.99M2419.57,516.82h-21.6M2397.97,466.96h-11.63M2386.34,470.29h-8.31M2386.34,466.96l0,3.32M1249.67,1567.07l0,-33.24M1249.67,58.16h-46.53M1570.81,29.91h-22.43l0,-8.31h-3.32l0,-11.63h59.82l0,4.99h30.33l0,23.27h4.99L1640.19,144.58h10.39l0,-4.99h39.88l0,11.63h-3.32l0,8.31h-12.05l0,4.99M1620.25,58.16h-34.9l0,-23.27h-14.54l0,-4.99M1959.26,566.67h49.85M1959.26,566.67l0,-49.85M1999.14,187.78h-34.07l0,-23.27h-14.54l0,-4.99M2341.47,561.69l0,-39.88M2378.03,521.8h-36.56M2427.88,582.04h-16.64M1959.26,1025.33h49.85M2009.11,1075.18h-49.85l0,-49.85M1950.53,1432.47h-14.96l0,8.31h-3.32l0,11.63h51.52l0,-4.99h30.33l0,-23.27h4.99L2019.08,1312.82h10.39l0,4.99h39.88l0,-11.63h-3.32l0,-8.31h-12.05l0,-4.99h-54.84M1999.14,1404.22h-34.07l0,23.27h-14.54l0,4.99M1626.9,1025.33l0,49.85M1086.4,1587.01l0,-11.63h-3.32l0,-8.31h-22.43M1060.64,1562.09h-56.5l0,8.31h-3.32l0,11.63h25.76l0,4.99h59.82M488.57,1080.17h-39.88M1580.37,511.83l-0,54.84M882,29.91h22.43l0,-8.31h3.32l0,-11.63h-59.82l0,4.99h-30.33l0,23.27h-4.99l0,89.74h-10.39l0,-4.99h-36.56l0,11.63h3.32l0,8.31h11.22l0,4.99h52.35M832.56,58.16h34.9l0,-23.27h14.54l0,-4.99M628.57,117.99l0,4.99h-11.63l0,11.63h3.32l-0,8.31h49.02l0,-8.31h3.32l0,-11.63h-11.63l0,-4.99h-32.41M1366.41,4.99l0,11.63h3.32l0,8.31h22.43l0,4.99h56.5l0,-8.31h3.32l0,-11.63h-25.76l0,-4.99h-59.82M1675.09,164.52h-54.84M2009.11,516.82l0,49.85M1950.53,159.53h-14.96l0,-8.31h-3.32l0,-11.63h51.52l0,4.99h30.33l0,23.27h4.99L2019.08,279.18h10.39l0,-4.99h39.88l0,11.63h-3.32l0,8.31h-12.05l0,4.99h-54.84M1999.14,187.78L1999.14,299.12M2009.11,516.82h-49.85M1630.22,566.67h-49.85M2411.24,561.69h-69.77M2411.24,582.04l0,-20.36M2411.27,1009.96l0,20.36M2341.47,1030.31l0,39.88h36.56M2009.11,1025.33l0,49.85M1999.14,1404.22L1999.14,1292.88M1086.4,4.99l0,11.63h-3.32l0,8.31h-22.43l0,4.99h-56.5M504.77,142.91h15.79l0,-8.31h3.32l0,-11.63h-54.84l0,4.99h-30.33l0,23.27h-4.99l0,94.72h-9.56l0,-4.99h-37.39l0,11.63h3.32l0,8.31h12.05l0,4.99M453.67,265.89l0,-94.72h36.56l0,-23.27h14.54l0,-4.99M1626.9,1075.18h-46.53l0,-49.85M504.77,1449.09h15.79l0,8.31h3.32l0,11.63h-54.84l0,-4.99h-30.33l0,-23.27h-4.99l0,-94.72h-9.56l0,4.99h-37.39l0,-11.63h3.32l0,-8.31h12.05l0,-4.99h51.52l0,94.72h36.56l0,23.27h14.54l0,4.99M1630.22,511.83l0,54.84M1060.64,1567.07l0,-4.99M402.15,265.89h51.52M2411.27,1030.31h-69.8M628.57,1474.01l0,-4.99h-11.63l0,-11.63h3.32l0,-8.31h49.02l0,8.31h3.32l0,11.63h-11.63l0,4.99h-32.41M144.99,1351.04h-53.18l0,-4.99h-31.99l0,-23.27h-4.99l0,-84.75h11.63l0,3.32h8.31l0,61.49h38.22l0,23.27h14.54l0,4.99h14.13l0,8.31h3.32l0,11.63M48.19,1030.31h63.15l0,39.88M74.78,1070.2h36.56M249.68,1356.03l0,-4.99h-11.63l0,-11.63h3.32l0,-8.31h49.02l0,8.31h3.32l0,11.63h-11.63l0,4.99h-32.41M448.68,1080.17l0,-59.82h39.88l0,59.82M0,850.42h4.99l0,-11.63h11.63l0,3.32h8.31l0,49.02h-8.31l0,3.32h-11.63l0,-11.63h-4.99l0,-32.41M24.93,700.86h-8.31l0,-3.32h-11.63l0,11.63h-4.99l0,32.41h4.99l0,11.63h11.63l0,-3.32h8.31l0,-49.02M111.34,561.69l0,-39.88M74.78,521.8h36.56M48.19,561.69h63.15M488.57,511.83h-39.88l0,59.82h39.88l-0,-59.82M143.33,240.96h-51.52l0,4.99h-31.99l0,23.27h-4.99l0,84.75h11.63l0,-3.32h8.31l0,-61.49h36.56l0,-23.27h14.54l0,-4.99h14.13l0,-8.31h3.32l0,-11.63M290.4,260.9h-49.02l0,-8.31h-3.32l0,-11.63h11.63l0,-4.99h32.41l0,4.99h11.63l0,11.63h-3.32l0,8.31M1795.15,1457.39l0,-4.99h-11.63l0,-11.63h3.32l0,-8.31h49.02l0,8.31h3.32l0,11.63h-11.63l0,4.99h-32.41M832.56,1444.1l0,89.74h34.9l0,23.27h14.54l0,4.99h22.43l0,8.31h3.32l0,11.63h-59.82l0,-4.99h-30.33l0,-23.27h-4.99l0,-89.74h-10.39l0,4.99h-36.56l0,-11.63h3.32l0,-8.31h11.22l0,-4.99h52.35M867.46,1080.17h-39.88M867.46,1020.34l0,59.82M827.57,1080.17l0,-59.82h39.88M1246.35,1020.34l0,59.82h-39.88l0,-59.82h39.88M1366.41,1587.01l0,-11.63h3.32l0,-8.31h22.43l0,-4.99h56.5l0,8.31h3.32l0,11.63h-25.76l0,4.99h-59.82M1620.25,1427.48L1620.25,1533.84h-34.9l0,23.27h-14.54l0,4.99h-22.43l0,8.31h-3.32l0,11.63h59.82l0,-4.99h30.33l0,-23.27h4.99L1640.19,1447.42h10.39l0,4.99h39.88l0,-11.63h-3.32l0,-8.31h-12.05l0,-4.99h-54.84M1580.37,1025.33h46.53M2311.14,1317.8h49.85l0,-4.99h31.99l0,-23.27h4.99l0,-71.46h-11.63l0,3.32h-8.31l0,48.19h-34.9l0,23.27h-14.54l0,4.99h-14.13l0,8.31h-3.32l0,11.63M2174.04,1322.79l0,-4.99h-11.63l0,-11.63h3.32l0,-8.31h49.02l0,8.31h3.32l0,11.63h-11.63l0,4.99h-32.41M1795.15,134.61l0,4.99h-11.63l0,11.63h3.32l0,8.31h49.02l0,-8.31h3.32l0,-11.63h-11.63l0,-4.99h-32.41M827.57,511.83l0,59.82h39.88l0,-59.82h-39.88M1206.46,571.66h39.88l0,-59.82M1206.46,511.83l0,59.82M1246.35,511.83h-39.88M1004.14,29.91l0,-8.31h-3.32l0,-11.63h25.76l0,-4.99h59.82M2311.14,274.2h49.85l0,4.99h31.99l0,23.27h4.99l0,71.46h-11.63l0,-3.32h-8.31l0,-48.19h-34.9l0,-23.27h-14.54l0,-4.99h-14.13l0,-8.31h-3.32l0,-11.63M2447.82,869.53l0,11.63h-11.63l0,-3.32h-8.31l-0,-35.73h8.31l0,-3.32h11.63l0,11.63h4.99l0,19.11h-4.99M2436.19,753.21h11.63l0,-11.63h4.99l0,-19.11h-4.99l0,-11.63h-11.63l0,3.32h-8.31l-0,35.73M2174.04,269.21l0,4.99h-11.63l0,11.63h3.32l0,8.31h49.02l0,-8.31h3.32l0,-11.63h-11.63l0,-4.99h-32.41M832.56,147.9l0,-89.74M1620.25,164.52L1620.25,58.16" />
</g>
<g style="font-family: arial, helvetica, sans-serif" stroke="none" fill="#7F0000">
<g font-size="143.28" stroke="none" fill="#7F0000">
<text id="cv_48" transform="scale(1.11111 1) translate(441.51 1273.6) rotate(330) " >For Demonstration Purposes Only</text>
<text id="cv_49" transform="scale(1.11111 1) translate(883.01 1273.6) rotate(330) " >Tailor Made Software, Ltd</text>
</g>
</g>
</g>
<g id="layer_WA" class="layer_WA"  cvjs:layerName="WA" cvjs:plottable="YES"
 cvjs:status="ON" visibility="visible">
<g id="cvclr_50" stroke="#FF7F00" fill="none">
<path id="cv_51" class="ZW" d="M111.34,1050.25H339.01M329.04,1040.28h9.97M339.01,1050.25l0,-9.97M398.83,1050.25l0,-9.97M408.8,1040.28h-9.97M448.68,1050.25h-49.85M329.04,551.72h9.97l0,-9.97M388.86,551.72l0,-9.97M408.8,551.72h-19.94M1378.46,912.33h-23.26M1378.46,918.97h-23.26M1259.64,918.97h35.73l0,-6.65M1355.2,918.97l0,-6.65M1378.46,788.39h6.65M1385.11,796l0,-7.61M1378.46,832.56l0,-44.17M448.68,1080.17l0,-29.91M1378.46,912.33l0,-19.94M1161.18,912.33H1295.37M1378.46,688.68h6.65M1385.11,679.67l0,9.01M1378.46,688.68l0,-9.01h-22.43M278.35,541.75h60.66M448.68,541.75h-59.82M827.57,1060.23H488.57M857.49,1107.59H618.19M867.46,1097.62H628.16M827.57,1070.2H628.16M912.74,912.33H782.29M842.53,922.3h-60.24M827.57,531.77H488.57M827.57,521.8H488.57M912.74,679.67H782.29M842.53,669.7h-60.24M329.04,977.94L329.04,714.57M463.64,1020.34l0,-98.05M473.61,1020.34l0,-98.05M408.8,1040.28L408.8,912.33M418.77,1040.28L418.77,922.3M262.56,965.5l0,-91.4M319.06,1040.28H111.34M328.95,1050.25H111.34M54.84,1075.18l0,69.8M74.78,1141.65l0,-71.46M54.84,1144.98h11.63l0,-3.32h8.31M9.97,1038.21l0,31.99h23.27l0,4.99h21.6M48.19,1009.96h-23.27M4.99,980.04l0,58.16M24.93,1009.96l0,-26.59M4.99,1038.21h4.99M16.62,983.37l0,-3.32M24.93,983.37h-8.31M16.62,980.04h-11.63M48.19,1030.31l0,-20.36M618.19,1070.2H488.57M329.04,1027.79l0,12.49M319.06,965.5h-56.5M319.06,1040.28l0,-12.49h9.97M319.06,977.94l0,-12.44M319.06,977.94h9.97M448.68,1040.28h-29.91M618.19,1070.2l0,37.39M628.16,1070.2l0,27.42M265.06,541.75L265.06,260.9M278.35,541.75L278.35,260.9M262.56,864.13H24.93M262.56,874.1H24.93M319.06,651.42H96.78M319.06,641.45H92.65M24.93,709.17l67.72,-67.72M24.93,723.27l71.85,-71.85M54.84,516.82l0,-69.8M74.78,450.35l0,71.46M4.99,611.96l0,-58.16M48.19,561.69l0,20.36h-23.27l0,26.59M16.62,608.63l0,3.32h-11.63M24.93,608.63h-8.31M9.97,521.8h23.27M4.99,553.79h4.99l0,-31.99M33.24,521.8l0,-4.99h21.6M195.26,541.75h-83.92M195.26,551.72h-83.92M195.26,541.75l0,9.97M54.84,447.02h11.63l0,3.32h8.31M463.64,571.66l0,98.05M473.61,571.66l0,98.05M329.04,664.72l0,-38.22M408.8,621.51l0,58.16M418.77,621.51l0,48.19M532.19,922.3h-58.58M532.19,912.33H408.8M533.85,679.67H408.8M533.85,669.7h-60.24M319.06,825.91L319.06,714.57M272.53,955.53L272.53,835.88M319.06,955.53L319.06,835.88M319.06,955.53h-46.53M319.06,835.88h-46.53M319.06,825.91h-56.5M262.56,864.13l0,-38.22M463.64,922.3h-44.87M319.06,714.57h9.97M319.06,664.72l0,-13.29M319.06,664.72h9.97M463.64,669.7h-44.87M712.49,922.3H605.31M712.49,912.33H605.31M532.19,922.3l0,-9.97M605.31,922.3l0,-9.97M712.49,922.3l0,-9.97M782.29,922.3l0,-9.97M712.49,669.7H603.65M712.49,679.67H603.65M533.85,669.7l0,9.97M603.65,669.7l0,9.97M712.49,669.7l0,9.97M782.29,669.7l0,9.97M319.06,566.67l0,-14.96M329.04,566.67l0,-14.96M319.06,641.45l0,-14.96h9.97M319.06,566.67h9.97M319.06,551.72h-63.98M265.06,541.75h-9.97l0,9.97M408.8,621.51h9.97M448.68,551.72h-29.91M408.8,561.69h9.97M408.8,551.72l0,9.97M418.77,551.72l0,9.97M852.5,1020.34l0,-98.05M842.53,1020.34l0,-98.05M1259.64,1055.24L1259.64,918.97M1249.67,1045.27L1249.67,922.3M1231.39,1020.34l0,-98.05M1221.42,1020.34l0,-98.05M1378.46,1055.24L1378.46,918.97M1388.43,1045.27L1388.43,892.38M1655.07,915.79L1655.07,1075.18M1648.42,922.44L1648.42,1025.33M1595.32,1025.33L1595.32,805.97M1605.29,1025.33L1605.29,922.44M1249.67,1592h-46.53M1249.67,1533.84h-46.53M1203.14,1567.07l0,-33.24M1182.78,1567.07h20.36M1182.78,1575.38l0,-8.31M1179.46,1575.38h3.32M1179.46,1587.01l0,-11.63M1179.46,1587.01h23.68M1203.14,1592l0,-4.99M1249.67,1567.07l0,-33.24M1270.03,1575.38l0,-8.31h-20.36M1273.35,1575.38h-3.32M1273.35,1587.01l0,-11.63M1273.35,1587.01h-23.68M1249.67,1592l0,-4.99M1206.46,1060.23H867.46M947.22,1070.2h-79.77M957.19,1117.56h-99.71M947.22,1107.59h-79.77M857.49,1107.59l0,9.97M867.46,1097.62l0,9.97M957.19,1070.2l0,47.36M947.22,1070.2l0,37.39M1259.64,1055.24h-13.29M1249.67,1045.27h-3.32M1580.37,1055.24H1378.46M1580.37,1045.27H1388.43M1655.07,1075.18h-24.85M1648.42,1068.53h-18.2M1630.22,1025.33h18.2M1630.22,1031.97h18.2M2397.97,1075.18l0,49.85M2386.34,1125.04l0,-3.32M2397.97,1125.04h-11.63M2442.84,1038.21l0,31.99M2378.03,1121.71l0,-51.52M2386.34,1121.71h-8.31M2442.84,1070.2h-23.27M2419.57,1075.18h-21.6M2419.57,1070.2l0,4.99M2447.82,966.75l0,71.46M2427.88,1009.96l0,-39.88M2404.62,1009.96h23.27M2404.62,1030.31l0,-20.36M2447.82,1038.21h-4.99M2436.19,966.75h11.63M2436.19,970.07l0,-3.32M2427.88,970.07h8.31M1366,521.8H1246.35M1445.76,511.83H1246.35M852.5,571.66l0,98.05M842.53,571.66l0,98.05M1221.42,571.66l0,98.05M1231.39,571.66l0,98.05M1091.38,912.33H982.54M1091.38,922.3H982.54M1091.38,679.67H982.54M1091.38,669.7H982.54M912.74,922.3h-60.24M912.74,922.3l0,-9.97M982.54,922.3l0,-9.97M912.74,669.7h-60.24M912.74,669.7l0,9.97M982.54,669.7l0,9.97M1221.42,922.3h-60.24M1091.38,922.3l0,-9.97M1161.18,922.3l0,-9.97M1249.67,922.3h-18.28M1296.2,679.67H1161.18M1221.42,669.7h-60.24M1091.38,669.7l0,9.97M1161.18,669.7l0,9.97M1296.2,669.7h-64.81M1296.12,679.74l0,-10.04M1206.46,531.77H867.46M1206.46,521.8H957.19M857.49,511.83l0,-43.21M867.46,511.83l0,-33.24M947.22,521.8l0,-43.21M957.19,521.8l0,-53.18M947.22,478.6h-79.77M957.19,468.63h-99.71M1375.97,669.7L1375.97,521.8M1366,669.7L1366,521.8M1445.76,679.67l0,-39.64M1435.79,669.7l0,-29.67M1605.29,922.44h43.13M1605.29,915.79h49.77M1378.46,832.56l0,-36.56M1595.32,805.97H1388.43M1388.43,892.38h-9.97M1388.43,832.56h-9.97M1388.43,832.56l0,-26.59M1605.29,796H1385.11M1435.79,669.7h-59.82M1445.76,679.67h-60.66M1356.03,679.74l0,-10.04M1366,669.7h-9.97M1445.76,580.2l0,-68.37M1435.79,580.2l-0,-58.4M1445.76,640.03h-9.97M1445.76,580.2h-9.97M1435.79,521.8h-59.82M1203.14,0l0,4.99M1249.67,0l0,4.99M1249.67,58.16h-46.53M1203.14,24.93l0,33.24M1182.78,24.93h20.36M1182.78,16.62l0,8.31M1179.46,16.62h3.32M1179.46,4.99h23.68M1179.46,4.99l0,11.63M1249.67,24.93l0,33.24M1270.03,16.62l0,8.31h-20.36M1273.35,16.62h-3.32M1273.35,4.99h-23.68M1273.35,4.99l0,11.63M1249.67,0h-46.53M2378.03,470.29l0,51.52M2397.97,516.82l0,-49.85M2447.82,625.25l0,-71.46M2404.62,561.69l0,20.36M2427.88,582.04l0,39.88h8.31l0,3.32h11.63M2404.62,582.04h23.27M2419.57,521.8l0,-4.99M2442.84,521.8h-23.27M2447.82,553.79h-4.99l0,-31.99M2419.57,516.82h-21.6M2397.97,466.96h-11.63M2386.34,470.29h-8.31M2386.34,466.96l0,3.32M947.22,521.8h-79.77M1605.29,915.79L1605.29,796M1648.42,1031.97l0,36.56M144.99,1351.04h-53.18l0,-4.99h-31.99l0,-23.27h-4.99l0,-84.75h11.63l0,3.32h8.31l0,61.49h38.22l0,23.27h14.54l0,4.99h14.13l0,8.31h3.32l0,11.63M48.19,1030.31h63.15l0,9.97M111.34,1050.25l0,19.94M74.78,1070.2h36.56M504.77,1449.09h15.79l0,8.31h3.32l0,11.63h-54.84l0,-4.99h-30.33l0,-23.27h-4.99l0,-94.72h-9.56l0,4.99h-37.39l0,-11.63h3.32l0,-8.31h12.05l0,-4.99h51.52l0,94.72h36.56l0,23.27h14.54l0,4.99M249.68,1356.03l0,-4.99h-11.63l0,-11.63h3.32l0,-8.31h49.02l0,8.31h3.32l0,11.63h-11.63l0,4.99h-32.41M628.57,1474.01l0,-4.99h-11.63l0,-11.63h3.32l0,-8.31h49.02l0,8.31h3.32l0,11.63h-11.63l0,4.99h-32.41M488.57,1070.2l0,9.97h-39.88M448.68,1040.28l0,-19.94h14.96M473.61,1020.34h14.96l0,39.88M0,850.42h4.99l0,-11.63h11.63l0,3.32h8.31l0,22.02M24.93,874.1l0,17.03h-8.31l0,3.32h-11.63l0,-11.63h-4.99l0,-32.41M24.93,709.17l0,-8.31h-8.31l0,-3.32h-11.63l0,11.63h-4.99l0,32.41h4.99l0,11.63h11.63l0,-3.32h8.31l0,-26.61M111.34,541.75l0,-19.94M74.78,521.8h36.56M48.19,561.69h63.15l0,-9.97M488.57,521.8l0,-9.97h-39.88l0,29.91M448.68,551.72l0,19.94h14.96M473.61,571.66h14.96l0,-39.88M143.33,240.96h-51.52l0,4.99h-31.99l0,23.27h-4.99l0,84.75h11.63l0,-3.32h8.31l0,-61.49h36.56l0,-23.27h14.54l0,-4.99h14.13l0,-8.31h3.32l0,-11.63M504.77,142.91h15.79l0,-8.31h3.32l0,-11.63h-54.84l0,4.99h-30.33l0,23.27h-4.99l0,94.72h-9.56l0,-4.99h-37.39l0,11.63h3.32l0,8.31h12.05l0,4.99h51.52l0,-94.72h36.56l0,-23.27h14.54l0,-4.99M265.06,260.9h-23.68l0,-8.31h-3.32l0,-11.63h11.63l0,-4.99h32.41l0,4.99h11.63l0,11.63h-3.32l0,8.31h-12.05M628.57,117.99l0,4.99h-11.63l0,11.63h3.32l0,8.31h49.02l0,-8.31h3.32l0,-11.63h-11.63l0,-4.99h-32.41M1795.15,1457.39l0,-4.99h-11.63l0,-11.63h3.32l0,-8.31h49.02l0,8.31h3.32l0,11.63h-11.63l0,4.99h-32.41M1086.4,1587.01l0,-11.63h-3.32l0,-8.31h-22.43l0,-4.99h-56.5l0,8.31h-3.32l0,11.63h25.76l0,4.99h59.82M882,1562.09h22.43l0,8.31h3.32l0,11.63h-59.82l0,-4.99h-30.33l0,-23.27h-4.99l0,-89.74h-10.39l0,4.99h-36.56l0,-11.63h3.32l0,-8.31h11.22l0,-4.99h52.35l0,89.74h34.9l0,23.27h14.54l0,4.99M1206.46,1070.2H957.19M827.57,1080.17l0,-9.97M867.46,1070.2l0,9.97h-39.88M852.5,1020.34h14.96l0,39.88M827.57,1060.23l0,-39.88h14.96M1246.35,1055.24l0,24.93h-39.88l0,-59.82h14.96M1231.39,1020.34h14.96l0,24.93M1366.41,1587.01l0,-11.63h3.32l0,-8.31h22.43l0,-4.99h56.5l0,8.31h3.32l0,11.63h-25.76l0,4.99h-59.82M1570.81,1562.09h-22.43l0,8.31h-3.32l0,11.63h59.82l0,-4.99h30.33l0,-23.27h4.99L1640.19,1447.42h10.39l0,4.99h39.88l0,-11.63h-3.32l0,-8.31h-12.05l0,-4.99h-54.84L1620.25,1533.84h-34.9l0,23.27h-14.54l0,4.99M1630.22,1075.18h-49.85l0,-19.94M1605.29,1025.33h24.93M1580.37,1045.27l0,-19.94h14.96M1630.22,1031.97l0,36.56M2404.62,1030.31h-63.15l0,39.88M2378.03,1070.2h-36.56M2311.14,1317.8h49.85l0,-4.99h31.99l0,-23.27h4.99l0,-71.46h-11.63l0,3.32h-8.31l0,48.19h-34.9l0,23.27h-14.54l0,4.99h-14.13l0,8.31h-3.32l0,11.63M2174.04,1322.79l0,-4.99h-11.63l0,-11.63h3.32l0,-8.31h49.02l0,8.31h3.32l0,11.63h-11.63l0,4.99h-32.41M1950.53,1432.47h-14.96l0,8.31h-3.32l0,11.63h51.52l0,-4.99h30.33l0,-23.27h4.99L2019.08,1312.82h10.39l0,4.99h39.88l0,-11.63h-3.32l0,-8.31h-12.05l0,-4.99h-54.84L1999.14,1404.22h-34.07l0,23.27h-14.54l0,4.99M1959.26,1025.33h49.85l0,49.85h-49.85l0,-49.85M1795.15,134.61l0,4.99h-11.63l0,11.63h3.32l0,8.31h49.02l0,-8.31h3.32l0,-11.63h-11.63l0,-4.99h-32.41M827.57,531.77l0,39.88h39.88l0,-39.88M857.49,511.83h-29.91l0,9.97M867.46,521.8l0,-9.97M1231.39,571.66h14.96l0,-49.85M1206.46,531.77l0,39.88h14.96M1246.35,511.83h-39.88l0,9.97M1580.37,566.67h49.85l0,-49.85h-49.85l0,49.85M882,29.91h22.43l0,-8.31h3.32l0,-11.63h-59.82l0,4.99h-30.33l0,23.27h-4.99l0,89.74h-10.39l0,-4.99h-36.56l0,11.63h3.32l0,8.31h11.22l0,4.99h52.35l0,-89.74h34.9l0,-23.27h14.54l0,-4.99M1086.4,4.99l0,11.63h-3.32l0,8.31h-22.43l0,4.99h-56.5l0,-8.31h-3.32l0,-11.63h25.76l0,-4.99h59.82M1570.81,29.91h-22.43l0,-8.31h-3.32l0,-11.63h59.82l0,4.99h30.33l0,23.27h4.99L1640.19,144.58h10.39l0,-4.99h39.88l0,11.63h-3.32l0,8.31h-12.05l0,4.99h-54.84L1620.25,58.16h-34.9l0,-23.27h-14.54l0,-4.99M1366.41,4.99l0,11.63h3.32l0,8.31h22.43l0,4.99h56.5l0,-8.31h3.32l0,-11.63h-25.76l0,-4.99h-59.82M2311.14,274.2h49.85l0,4.99h31.99l0,23.27h4.99l0,71.46h-11.63l0,-3.32h-8.31l0,-48.19h-34.9l0,-23.27h-14.54l0,-4.99h-14.13l0,-8.31h-3.32l0,-11.63M2404.62,561.69h-63.15l0,-39.88M2378.03,521.8h-36.56M1959.26,566.67h49.85l0,-49.85h-49.85l0,49.85M2447.82,869.53l0,11.63h-11.63l0,-3.32h-8.31l0,-35.73h8.31l0,-3.32h11.63l0,11.63h4.99l0,19.11h-4.99M2447.82,722.47l0,-11.63h-11.63l0,3.32h-8.31l0,35.73h8.31l0,3.32h11.63l0,-11.63h4.99l0,-19.11h-4.99M1950.53,159.53h-14.96l0,-8.31h-3.32l0,-11.63h51.52l0,4.99h30.33l0,23.27h4.99L2019.08,279.18h10.39l0,-4.99h39.88l0,11.63h-3.32l0,8.31h-12.05l0,4.99h-54.84L1999.14,187.78h-34.07l0,-23.27h-14.54l0,-4.99M2174.04,269.21l0,4.99h-11.63l0,11.63h3.32l0,8.31h49.02l0,-8.31h3.32l0,-11.63h-11.63l0,-4.99h-32.41" />
</g>
<g style="font-family: arial, helvetica, sans-serif" stroke="none" fill="#7F0000">
<g font-size="143.28" stroke="none" fill="#7F0000">
<text id="cv_52" transform="scale(1.11111 1) translate(441.51 1273.6) rotate(330) " >For Demonstration Purposes Only</text>
<text id="cv_53" transform="scale(1.11111 1) translate(883.01 1273.6) rotate(330) " >Tailor Made Software, Ltd</text>
</g>
</g>
</g>
<g id="layer_RM_" class="layer_RM_"  cvjs:layerName="RM_" cvjs:plottable="YES"
 cvjs:status="ON" visibility="visible">
<g id="cvclr_54" stroke="#007CA5" fill="none">
<path id="cv_55" class=" ZW cvjs_nodes" cvjs:node='NODE_1' cvjs:roomName='127' cvjs:roomId='127' fill="transparent" cvjs:area="25328.75" d="M327.37,1050.25H111.34v19.94h-36.56V1326.11h52.76v4.99H327.37V1050.25" />
<path id="cv_56" class=" ZW cvjs_nodes" cvjs:node='NODE_2' cvjs:roomName='126' cvjs:roomId='126' fill="transparent" cvjs:area="33316.25" d="M452.01,1206.46V1326.11h1.66V1444.1h51.1v4.99H780.21v-4.99h54.01V1206.46H452.01" />
<path id="cv_57" class=" ZW cvjs_nodes" cvjs:node='NODE_3' cvjs:roomName='124' cvjs:roomId='124' fill="transparent" cvjs:area="10780" d="M1017.02,1206.46H834.22V1369.32H1017.02V1206.46" />
<path id="cv_58" class=" ZW cvjs_nodes" cvjs:node='NODE_4' cvjs:roomName='125' cvjs:roomId='125' fill="transparent" cvjs:area="10780" d="M834.22,1369.32V1532.18H1017.02V1369.32H834.22" />
<path id="cv_59" class=" ZW cvjs_nodes" cvjs:node='NODE_5' cvjs:roomName='122' cvjs:roomId='122' fill="transparent" cvjs:area="10780" d="M1302.85,1206.46H1120.05V1369.32H1302.85V1206.46" />
<path id="cv_60" class=" ZW cvjs_nodes" cvjs:node='NODE_6' cvjs:roomName='123' cvjs:roomId='123' fill="transparent" cvjs:area="10780" d="M1302.85,1369.32H1120.05V1532.18H1302.85V1369.32" />
<path id="cv_61" class=" ZW cvjs_nodes" cvjs:node='NODE_7' cvjs:roomName='121' cvjs:roomId='121' fill="transparent" cvjs:area="10780" d="M1485.65,1369.32H1302.85V1532.18H1485.65V1369.32" />
<path id="cv_62" class=" ZW cvjs_nodes" cvjs:node='NODE_8' cvjs:roomName='120' cvjs:roomId='120' fill="transparent" cvjs:area="10780" d="M1485.65,1206.46H1302.85V1369.32H1485.65V1206.46" />
<path id="cv_63" class=" ZW cvjs_nodes" cvjs:node='NODE_9' cvjs:roomName='112' cvjs:roomId='112' fill="transparent" cvjs:area="10780" d="M1937.65,894.05V731.19H1754.86V894.05H1937.65" />
<path id="cv_64" class=" ZW cvjs_nodes" cvjs:node='NODE_10' cvjs:roomName='111' cvjs:roomId='111' fill="transparent" cvjs:area="10780" d="M1937.65,568.33H1754.86V731.19H1937.65V568.33" />
<path id="cv_65" class=" ZW cvjs_nodes" cvjs:node='NODE_11' cvjs:roomName='113' cvjs:roomId='113' fill="transparent" cvjs:area="10780" d="M1937.65,731.19H2120.45V568.33H1937.65V731.19" />
<path id="cv_66" class=" ZW cvjs_nodes" cvjs:node='NODE_12' cvjs:roomName='114' cvjs:roomId='114' fill="transparent" cvjs:area="10780" d="M1937.65,894.05H2120.45V731.19H1937.65V894.05" />
<path id="cv_67" class=" ZW cvjs_nodes" cvjs:node='NODE_13' cvjs:roomName='117' cvjs:roomId='117' fill="transparent" cvjs:area="8524.429452" d="M2000.8,1026.99H1837.95V1171.54H2000.8V1026.99" />
<path id="cv_68" class=" ZW cvjs_nodes" cvjs:node='NODE_14' cvjs:roomName='119' cvjs:roomId='119' fill="transparent" cvjs:area="35531.90393" d="M2000.8,1292.88V1171.54H1621.91V1427.48h53.18v4.99H1950.53v-4.99h48.61V1292.88h1.66" />
<path id="cv_69" class=" ZW cvjs_nodes" cvjs:node='NODE_15' cvjs:roomName='118' cvjs:roomId='118' fill="transparent" cvjs:area="36290.75" d="M2378.03,1031.97H2087.22v-4.99h-86.41V1292.88h53.18v4.99H2328.59v-4.99h49.44V1031.97" />
<path id="cv_70" class=" ZW cvjs_nodes" cvjs:node='NODE_16' cvjs:roomName='116' cvjs:roomId='116' fill="transparent" cvjs:area="18050.79687" d="M2212.77,797.66V1031.97H2378.03v-1.66h26.59v-20.36h23.27V797.66H2212.77" />
<path id="cv_71" class=" ZW cvjs_nodes" cvjs:node='NODE_17' cvjs:roomName='115' cvjs:roomId='115' fill="transparent" cvjs:area="18309.6947" d="M2212.77,797.66H2427.88V582.04h-23.27v-20.36h-26.59v-1.66H2212.77V797.66" />
<path id="cv_72" class=" ZW cvjs_nodes" cvjs:node='NODE_18' cvjs:roomName='110' cvjs:roomId='110' fill="transparent" cvjs:area="36494.75" d="M2053.98,294.14v4.99h-53.18V568.33H2120.45v-8.31H2378.03V299.12h-49.44v-4.99H2053.98" />
<path id="cv_73" class=" ZW cvjs_nodes" cvjs:node='NODE_19' cvjs:roomName='109' cvjs:roomId='109' fill="transparent" cvjs:area="31420.59607" d="M2000.8,390.5v-91.37h-1.66V164.52h-48.61v-4.99H1675.09v4.99h-53.18V390.5H2000.8" />
<path id="cv_74" class=" ZW cvjs_nodes" cvjs:node='NODE_20' cvjs:roomName='107' cvjs:roomId='107' fill="transparent" cvjs:area="10780" d="M1485.65,385.54V222.68H1302.85V385.54H1485.65" />
<path id="cv_75" class=" ZW cvjs_nodes" cvjs:node='NODE_21' cvjs:roomName='105' cvjs:roomId='105' fill="transparent" cvjs:area="10780" d="M1302.85,385.54V222.68H1120.05V385.54H1302.85" />
<path id="cv_76" class=" ZW cvjs_nodes" cvjs:node='NODE_22' cvjs:roomName='106' cvjs:roomId='106' fill="transparent" cvjs:area="10780" d="M1120.05,222.68H1302.85V59.82H1120.05V222.68" />
<path id="cv_77" class=" ZW cvjs_nodes" cvjs:node='NODE_23' cvjs:roomName='103' cvjs:roomId='103' fill="transparent" cvjs:area="10780" d="M1017.02,385.54V222.68H834.22V385.54H1017.02" />
<path id="cv_78" class=" ZW cvjs_nodes" cvjs:node='NODE_24' cvjs:roomName='104' cvjs:roomId='104' fill="transparent" cvjs:area="10780" d="M1017.02,222.68V59.82H834.22V222.68H1017.02" />
<path id="cv_79" class=" ZW cvjs_nodes" cvjs:node='NODE_25' cvjs:roomName='102' cvjs:roomId='102' fill="transparent" cvjs:area="20181.58289" d="M603.4,385.54H834.22V147.9h-54.01v-4.99H603.4V385.54" />
<path id="cv_80" class=" ZW cvjs_nodes" cvjs:node='NODE_26' cvjs:roomName='101' cvjs:roomId='101' fill="transparent" cvjs:area="13487.31073" d="M603.4,142.91h-98.63v4.99h-51.1V265.89h-9.8V385.54H603.4V142.91" />
<path id="cv_81" class=" ZW cvjs_nodes" cvjs:node='NODE_27' cvjs:roomName='108' cvjs:roomId='108' fill="transparent" cvjs:area="10780" d="M1302.85,222.68H1485.65V59.82H1302.85V222.68" />
<path id="cv_82" class=" ZW" d="M1366,679.67V511.83h79.77V679.67h-79.77" />
<path id="cv_83" class=" ZW cvjs_nodes" cvjs:node='NODE_28' cvjs:roomName='158' cvjs:roomId='158' fill="transparent" cvjs:area="4950" d="M957.19,1070.2H618.19v37.39H857.49v9.97h99.71v-47.36" />
<path id="cv_84" class=" ZW cvjs_nodes" cvjs:node='NODE_29' cvjs:roomName='167' cvjs:roomId='167' fill="transparent" cvjs:area="7857" d="M1366,511.83H1246.35v59.82h-14.96V679.67H1366V511.83" />
<path id="cv_85" class=" ZW cvjs_nodes" cvjs:node='NODE_30' cvjs:roomName='169' cvjs:roomId='169' fill="transparent" cvjs:area="2577" d="M463.64,571.66h-14.96v-29.91h-39.88V679.67h54.84V571.66" />
<path id="cv_86" class=" ZW cvjs_nodes" cvjs:node='NODE_31' cvjs:roomName='151' cvjs:roomId='151' fill="transparent" cvjs:area="3360" d="M329.04,825.91h-66.47V965.5h66.47V825.91" />
<path id="cv_87" class=" ZW cvjs_nodes" cvjs:node='NODE_32' cvjs:roomName='172' cvjs:roomId='172' fill="transparent" cvjs:area="17359.5" d="M262.56,869.12H24.93V1009.96h23.27v20.36h26.59v39.88h36.56v-19.94H329.04v-84.75h-66.47v-96.38" />
<path id="cv_88" class=" ZW cvjs_nodes" cvjs:node='NODE_33' cvjs:roomName='171' cvjs:roomId='171' fill="transparent" cvjs:area="22600.30905" d="M329.04,646.44H94.71l-69.78,69.78V869.12H262.56v-43.21h66.47V646.44" />
<path id="cv_89" class=" ZW cvjs_nodes" cvjs:node='NODE_34' cvjs:roomName='170' cvjs:roomId='170' fill="transparent" cvjs:area="11012.19095" d="M329.04,541.75h-50.68v9.97H111.34v9.97h-63.15v20.36h-23.27V716.22l69.78,-69.78H329.04V541.75" />
<path id="cv_90" class=" ZW cvjs_nodes" cvjs:node='NODE_35' cvjs:roomName='150' cvjs:roomId='150' fill="transparent" cvjs:area="21477.25" d="M278.35,260.9H125.88v4.99h-51.1V561.69h36.56v-9.97H278.35v-9.97V260.9" />
<path id="cv_91" class=" ZW cvjs_nodes" cvjs:node='NODE_36' cvjs:roomName='168' cvjs:roomId='168' fill="transparent" cvjs:area="96661" d="M1381.78,679.67H408.8V541.75h-79.77V1050.25h79.77V912.33H1259.64v3.32H1378.46V796h3.32V679.67" />
<path id="cv_92" class=" ZW cvjs_nodes" cvjs:node='NODE_37' cvjs:roomName='153' cvjs:roomId='153' fill="transparent" cvjs:area="11529" d="M658.07,679.67V521.8H488.57v-9.97h-39.88v59.82h14.96V679.67H658.07" />
<path id="cv_93" class=" ZW cvjs_nodes" cvjs:node='NODE_38' cvjs:roomName='155' cvjs:roomId='155' fill="transparent" cvjs:area="11334" d="M847.52,679.67V571.66h19.94v-59.82h-39.88v9.97H658.07V679.67H847.52" />
<path id="cv_94" class=" ZW cvjs_nodes" cvjs:node='NODE_39' cvjs:roomName='SHAFT' cvjs:roomId='SHAFT' fill="transparent" cvjs:area="10470" d="M1036.96,679.67V521.8H867.46v49.85h-19.94V679.67H1036.96" />
<path id="cv_95" class=" ZW cvjs_nodes" cvjs:node='NODE_40' cvjs:roomName='161' cvjs:roomId='161' fill="transparent" cvjs:area="11529" d="M1231.39,679.67V571.66h14.96v-59.82h-39.88v9.97H1036.96V679.67H1231.39" />
<path id="cv_96" class=" ZW cvjs_nodes" cvjs:node='NODE_41' cvjs:roomName='162' cvjs:roomId='162' fill="transparent" cvjs:area="12802" d="M1036.96,1070.2V912.33H1259.64V1055.24h-13.29v24.93h-39.88v-9.97H1036.96" />
<path id="cv_97" class=" ZW cvjs_nodes" cvjs:node='NODE_42' cvjs:roomName='160' cvjs:roomId='160' fill="transparent" cvjs:area="10830" d="M847.52,912.33H1036.96V1070.2H847.52V912.33" />
<path id="cv_98" class=" ZW cvjs_nodes" cvjs:node='NODE_43' cvjs:roomName='156' cvjs:roomId='156' fill="transparent" cvjs:area="10830" d="M658.07,912.33H847.52V1070.2H658.07V912.33" />
<path id="cv_99" class=" ZW cvjs_nodes" cvjs:node='NODE_44' cvjs:roomName='154' cvjs:roomId='154' fill="transparent" cvjs:area="10665" d="M463.64,912.33V1020.34h24.93v49.85H658.07V912.33H463.64" />
<path id="cv_100" class=" ZW cvjs_nodes" cvjs:node='NODE_45' cvjs:roomName='157' cvjs:roomId='157' fill="transparent" cvjs:area="1884" d="M957.19,468.63h-99.71v43.21h9.97v9.97h89.74v-53.18" />
<path id="cv_101" class=" ZW cvjs_nodes" cvjs:node='NODE_46' cvjs:roomName='163' cvjs:roomId='163' fill="transparent" cvjs:area="21864" d="M1605.29,915.79V796H1378.46V1055.24H1580.37v19.94h46.53v-49.85h-21.6V915.79" />
<path id="cv_102" class=" ZW cvjs_nodes" cvjs:node='NODE_47' cvjs:roomName='164' cvjs:roomId='164' fill="transparent" cvjs:area="2042.124728" d="M1655.07,915.79h-49.77V1025.33h21.6v6.65h28.17V915.79" />
<path id="cv_103" class=" ZW cvjs_nodes" cvjs:node='NODE_48' cvjs:roomName='152' cvjs:roomId='152' fill="transparent" cvjs:area="3440.999999" d="M488.57,1020.34h-24.93V912.33h-54.84V1050.25h39.88v29.91h39.88v-9.97v-49.85" />
</g>
<g style="font-family: arial, helvetica, sans-serif" stroke="none" fill="#7F0000">
<g font-size="143.28" stroke="none" fill="#7F0000">
<text id="cv_104" transform="scale(1.111111111 1) translate(441.51 1273.6) rotate(330) " >For Demonstration Purposes Only</text>
<text id="cv_105" transform="scale(1.111111111 1) translate(883.01 1273.6) rotate(330) " >Tailor Made Software, Ltd</text>
</g>
</g>
</g>
<g id="layer_GROS_24_" class="layer_GROS_24_"  cvjs:layerName="GROS$" cvjs:plottable="YES"
 cvjs:status="ON" visibility="visible">
<g id="cvclr_106" stroke="#FF3F00" fill="none">
<path id="cv_107" class=" ZW" d="M91.81,240.96v4.99h-31.99v23.27h-4.99V516.82h-21.6v4.99h-23.27v31.99h-4.99V709.17h-4.99v32.41h4.99V850.42h-4.99v32.41h4.99V1038.21h4.99v31.99h23.27v4.99h21.6V1322.79h4.99v23.27h31.99v4.99H249.68v4.99h32.41v-4.99H424.17v-4.99h9.56v94.72h4.99v23.27h30.33v4.99H628.57v4.99h32.41v-4.99H802.23v-4.99h10.39v89.74h4.99v23.27h30.33v4.99H1026.57v4.99H1203.14v4.99h46.53v-4.99H1426.24v-4.99H1604.88v-4.99h30.33v-23.27h4.99V1447.42h10.39v4.99H1795.15v4.99h32.41v-4.99H1983.77v-4.99h30.33v-23.27h4.99V1312.82h10.39v4.99H2174.04v4.99h32.41v-4.99H2361v-4.99h31.99v-23.27h4.99V1075.18h21.6v-4.99h23.27v-31.99h4.99V869.53h4.99v-19.11h-4.99V741.58h4.99v-19.11h-4.99V553.79h-4.99v-31.99h-23.27v-4.99h-21.6V302.45h-4.99v-23.27h-31.99v-4.99H2206.45v-4.99h-32.41v4.99H2029.47v4.99h-10.39V167.84h-4.99v-23.27h-30.33v-4.99H1827.56v-4.99h-32.41v4.99H1650.58v4.99h-10.39V38.22h-4.99v-23.27h-30.33v-4.99H1426.24v-4.99H1249.67v-4.99h-46.53v4.99H1026.57v4.99H847.93v4.99h-30.33v23.27h-4.99v89.74h-10.39v-4.99H660.98v-4.99h-32.41v4.99H469.04v4.99h-30.33v23.27h-4.99v94.72h-9.56v-4.99H282.09v-4.99h-32.41v4.99H91.81" />
<path id="cv_108" class=" ZW" d="M832.56,147.9h-52.35v-4.99H504.77v4.99h-51.1V265.89h-51.52v-4.99H125.88v4.99h-51.1V561.69h-26.59v20.36h-23.27V1009.96h23.27v20.36h26.59V1326.11h52.76v4.99H402.15v-4.99h51.52V1444.1h51.1v4.99H780.21v-4.99h52.35V1557.1h49.44v4.99H1060.64v4.99H1392.17v-4.99H1570.81v-4.99h49.44V1427.48h54.84v4.99H1950.53v-4.99h48.61V1292.88h54.84v4.99H2328.59v-4.99h49.44V1030.31h26.59v-20.36h23.27V582.04h-23.27v-20.36h-26.59V299.12h-49.44v-4.99H2053.98v4.99h-54.84V164.52h-48.61v-4.99H1675.09v4.99h-54.84V34.9h-49.44v-4.99H1392.17v-4.99H1060.64v4.99H882v4.99h-49.44V147.9" />
</g>
<g style="font-family: arial, helvetica, sans-serif" stroke="none" fill="#7F0000">
<g font-size="143.28" stroke="none" fill="#7F0000">
<text id="cv_109" transform="scale(1.111111111 1) translate(441.51 1273.6) rotate(330) " >For Demonstration Purposes Only</text>
<text id="cv_110" transform="scale(1.111111111 1) translate(883.01 1273.6) rotate(330) " >Tailor Made Software, Ltd</text>
</g>
</g>
</g>
<g id="layer_PL_2D_MISC" class="layer_PL_2D_MISC"  cvjs:layerName="PL-MISC" cvjs:plottable="YES"
 cvjs:status="ON" visibility="visible">
<g id="cvclr_111" stroke="#29A500" fill="none">
<path id="cv_112" class="ZW" d="M628.16,1077.67L827.57,1097.62M628.16,1097.62L827.57,1077.67M463.64,922.3l-44.87,98.05M418.77,922.3l44.87,98.05M654.75,922.3L654.75,1060.23M661.39,922.3L661.39,1060.23M654.75,669.7L654.75,531.77M661.39,669.7L661.39,531.77M319.06,835.88L272.53,955.53M272.53,835.88L319.06,955.53M1033.64,922.3L1033.64,1060.23M1040.28,922.3L1040.28,1060.23M1605.29,922.44L1648.42,1025.33M1605.29,1025.33L1648.42,922.44M867.46,1077.67l79.77,29.91M867.46,1107.59l79.77,-29.91M1033.64,669.7L1033.64,531.77M1040.28,669.7L1040.28,531.77M867.46,478.6l79.77,29.91M867.46,508.51l79.77,-29.91M867.46,508.51h79.77M448.68,1020.34h-29.91M867.46,1080.17l0,17.45M827.57,1080.17l0,17.45" />
</g>
<g style="font-family: arial, helvetica, sans-serif" stroke="none" fill="#7F0000">
<g font-size="143.28" stroke="none" fill="#7F0000">
<text id="cv_113" transform="scale(1.111111111 1) translate(441.51 1273.6) rotate(330) " >For Demonstration Purposes Only</text>
<text id="cv_114" transform="scale(1.111111111 1) translate(883.01 1273.6) rotate(330) " >Tailor Made Software, Ltd</text>
</g>
</g>
</g>
<g id="layer_PL_2D_TOIL" class="layer_PL_2D_TOIL"  cvjs:layerName="PL-TOIL" cvjs:plottable="YES"
 cvjs:status="ON" visibility="visible">
<g id="cvclr_115" stroke="#29A500" fill="none">
<path id="cv_116" class="ZW" d="M156.21,962.18l0,3.32M164.52,962.18l0,3.32M204.4,962.18l0,3.32M217.7,962.18l0,3.32M257.58,962.18l0,3.32M227.31,1013.19l35.25,-35.25M164.52,965.5h-8.31M217.7,965.5h-13.29M262.56,1027.79l0,12.49M265.89,1027.79l0,12.49M262.56,1027.79h3.32M262.56,965.5h-4.99M265.89,965.5l0,12.44M262.56,965.5l0,12.44h3.32M159.53,961.35l0,-87.24M156.21,961.35l0,-87.24M209.39,961.35l0,-87.24M212.71,961.35l0,-87.24M164.52,962.18h-8.31M156.21,961.35h3.32M217.7,962.18h-13.29M212.71,961.35h-3.32M111.34,776.06h-8.31M111.34,772.73h-8.31M111.34,776.06l0,-3.32M103.03,772.73l0,3.32M106.35,776.89h-3.32M164.52,776.06h-13.29M164.52,772.73h-13.29M151.22,776.06l0,-3.32M159.53,776.89h-3.32M164.52,776.06l0,-3.32M217.7,772.73h-13.29M217.7,776.06h-13.29M217.7,776.06l0,-3.32M204.4,776.06l0,-3.32M212.71,776.89h-3.32M262.56,825.91l0,-49.85M265.89,825.91l0,-49.85M262.56,962.18h-4.99M262.56,726.2l0,-74.78M265.89,726.2l0,-74.78M265.89,766.09h-3.32M262.56,772.73h-4.99M262.56,776.06h-4.99M265.89,772.73l0,-6.65M262.56,772.73l0,-6.65M272.53,772.73h-6.65M272.53,776.06h-6.65M265.89,766.09h-3.32M272.53,772.73l0,3.32M257.58,776.06l0,-3.32M265.89,726.2h-3.32M319.06,776.06h-6.65M319.06,772.73h-6.65M312.42,776.06l0,-3.32M96.78,651.42l-71.85,71.85M262.56,962.18L262.56,776.06M1580.74,1045.38H1388.73M1388.5,1044.83L1388.5,892.38M1595.14,806.06L1595.14,1025.4M1388.5,806.06H1595.14M1388.5,832.56l0,-26.5M96.78,651.42H262.56" />
<path id="cv_117" class="ZW" d="M227.31,1013.19A 49.85386221 49.85386221 0 0 0 262.56 1027.79" />
</g>
<g style="font-family: arial, helvetica, sans-serif" stroke="none" fill="#7F0000">
<g font-size="143.28" stroke="none" fill="#7F0000">
<text id="cv_118" transform="scale(1.111111111 1) translate(441.51 1273.6) rotate(330) " >For Demonstration Purposes Only</text>
<text id="cv_119" transform="scale(1.111111111 1) translate(883.01 1273.6) rotate(330) " >Tailor Made Software, Ltd</text>
</g>
</g>
<g class="WC_2D_DOOR" id="cv_Block_WC_2D_DOOR_1">
<g id="cvclr_120" stroke="#29A500" fill="none">
<path id="cv_121" class="ZW" d="M257.58,776.06l-28.2,28.2" />
<path id="cv_122" class="ZW" d="M217.7,776.06A 39.88308977 39.88308977 0 0 0 229.37 804.26" />
</g>
</g>
<g class="WC_2D_DOOR" id="cv_Block_WC_2D_DOOR_2">
<g id="cvclr_123" stroke="#29A500" fill="none">
<path id="cv_124" class="ZW" d="M257.58,962.18l-28.2,-28.2" />
<path id="cv_125" class="ZW" d="M229.38,933.98A 39.88308977 39.88308977 0 0 0 217.7 962.18" />
</g>
</g>
<g class="WC_2D_DOOR" id="cv_Block_WC_2D_DOOR_3">
<g id="cvclr_126" stroke="#29A500" fill="none">
<path id="cv_127" class="ZW" d="M262.56,766.09l-28.2,-28.2" />
<path id="cv_128" class="ZW" d="M262.56,726.2A 39.88308977 39.88308977 0 0 0 234.36 737.88" />
</g>
</g>
<g class="WC_2D_DOOR" id="cv_Block_WC_2D_DOOR_4">
<g id="cvclr_129" stroke="#29A500" fill="none">
<path id="cv_130" class="ZW" d="M204.4,776.06l-28.2,28.2" />
<path id="cv_131" class="ZW" d="M164.52,776.06A 39.88308977 39.88308977 0 0 0 176.2 804.26" />
</g>
</g>
<g class="WC_2D_DOOR" id="cv_Block_WC_2D_DOOR_5">
<g id="cvclr_132" stroke="#29A500" fill="none">
<path id="cv_133" class="ZW" d="M151.22,776.06l-28.2,28.2" />
<path id="cv_134" class="ZW" d="M111.34,776.06A 39.88308977 39.88308977 0 0 0 123.02 804.26" />
</g>
</g>
<g class="WC_2D_DOOR" id="cv_Block_WC_2D_DOOR_6">
<g id="cvclr_135" stroke="#29A500" fill="none">
<path id="cv_136" class="ZW" d="M204.4,962.18l-28.2,-28.2" />
<path id="cv_137" class="ZW" d="M176.2,933.98A 39.88308977 39.88308977 0 0 0 164.52 962.18" />
</g>
</g>
<g class="WC_2D_DOOR" id="cv_Block_WC_2D_DOOR_7">
<g id="cvclr_138" stroke="#29A500" fill="none">
<path id="cv_139" class="ZW" d="M272.53,772.73l28.2,-28.2" />
<path id="cv_140" class="ZW" d="M312.42,772.74A 39.88308977 39.88308977 0 0 0 300.74 744.54" />
</g>
</g>
</g>
<g id="layer_DR" class="layer_DR"  cvjs:layerName="DR" cvjs:plottable="YES"
 cvjs:status="ON" visibility="visible">
<g id="cvclr_141" stroke="#FF7F00" fill="none">
<path id="cv_142" class="ZW" d="M283.81,1013.19l35.25,-35.25M212.78,499.44l42.3,42.3M283.81,699.97l35.25,-35.25M366.5,603.99l42.3,-42.3M276.76,584.19l42.3,42.3M1336.16,850.08l42.3,42.3M1313.72,721.98l42.3,-42.3M1488.09,622.36l-42.3,-42.3" />
<path id="cv_143" class="ZW" d="M283.81,1013.19A 49.85386221 49.85386221 0 0 0 319.06 1027.79M212.78,499.44A 59.82463465 59.82463465 0 0 0 195.26 541.74M283.81,699.97A 49.85386221 49.85386221 0 0 0 319.06 714.57M366.5,603.99A 59.82463465 59.82463465 0 0 0 408.8 621.51M319.07,566.67A 59.82463465 59.82463465 0 0 0 276.76 584.19M1378.46,832.56A 59.82463465 59.82463465 0 0 0 1336.16 850.08M1296.2,679.67A 59.82463465 59.82463465 0 0 0 1313.72 721.97M1445.78,639.88A 59.82463465 59.82463465 0 0 0 1488.09 622.36" />
</g>
<g style="font-family: arial, helvetica, sans-serif" stroke="none" fill="#7F0000">
<g font-size="143.28" stroke="none" fill="#7F0000">
<text id="cv_144" transform="scale(1.111111111 1) translate(441.51 1273.6) rotate(330) " >For Demonstration Purposes Only</text>
<text id="cv_145" transform="scale(1.111111111 1) translate(883.01 1273.6) rotate(330) " >Tailor Made Software, Ltd</text>
</g>
</g>
</g>
<g id="layer_PL" class="layer_PL"  cvjs:layerName="PL" cvjs:plottable="YES"
 cvjs:status="ON" visibility="visible">
<g id="cvclr_146" stroke="#29A500" fill="none">
<path id="cv_147" class="ZW" d="M89.74,521.8L89.74,289.15M4.99,697.54l0,-85.58M54.84,447.02l0,-93.06M143.33,240.96h94.72" />
</g>
<g style="font-family: arial, helvetica, sans-serif" stroke="none" fill="#7F0000">
<g font-size="143.28" stroke="none" fill="#7F0000">
<text id="cv_148" transform="scale(1.111111111 1) translate(441.51 1273.6) rotate(330) " >For Demonstration Purposes Only</text>
<text id="cv_149" transform="scale(1.111111111 1) translate(883.01 1273.6) rotate(330) " >Tailor Made Software, Ltd</text>
</g>
</g>
<g class="WNV" id="cv_Block_WNV_8">
<g id="cvclr_150" stroke="#29A500" fill="none">
<path id="cv_151" class="ZW" d="M4.99,980.04l0,-85.58" />
</g>
</g>
<g class="WNH" id="cv_Block_WNH_9">
<g id="cvclr_152" stroke="#29A500" fill="none">
<path id="cv_153" class="ZW" d="M238.05,1351.04h-93.06" />
</g>
</g>
<g class="WNH" id="cv_Block_WNH_10">
<g id="cvclr_154" stroke="#29A500" fill="none">
<path id="cv_155" class="ZW" d="M54.84,1238.04l0,-93.06" />
</g>
</g>
<g class="WNH" id="cv_Block_WNH_11">
<g id="cvclr_156" stroke="#29A500" fill="none">
<path id="cv_157" class="ZW" d="M386.78,1351.04h-93.06" />
</g>
</g>
<g class="WNH" id="cv_Block_WNH_12">
<g id="cvclr_158" stroke="#29A500" fill="none">
<path id="cv_159" class="ZW" d="M616.94,1469.03h-93.06" />
</g>
</g>
<g class="WNH" id="cv_Block_WNH_13">
<g id="cvclr_160" stroke="#29A500" fill="none">
<path id="cv_161" class="ZW" d="M765.67,1469.03h-93.06" />
</g>
</g>
<g class="WNV" id="cv_Block_WNV_14">
<g id="cvclr_162" stroke="#29A500" fill="none">
<path id="cv_163" class="ZW" d="M4.99,753.21l0,85.58" />
</g>
</g>
<g class="WNV" id="cv_Block_WNV_15">
<g id="cvclr_164" stroke="#29A500" fill="none">
<path id="cv_165" class="ZW" d="M4.99,838.79l0,-85.58" />
</g>
</g>
<g class="WNH" id="cv_Block_WNH_16">
<g id="cvclr_166" stroke="#29A500" fill="none">
<path id="cv_167" class="ZW" d="M386.78,240.96h-93.06" />
</g>
</g>
<g class="WNH" id="cv_Block_WNH_17">
<g id="cvclr_168" stroke="#29A500" fill="none">
<path id="cv_169" class="ZW" d="M616.94,122.97h-93.06" />
</g>
</g>
<g class="WNH" id="cv_Block_WNH_18">
<g id="cvclr_170" stroke="#29A500" fill="none">
<path id="cv_171" class="ZW" d="M765.67,122.97h-93.06" />
</g>
</g>
<g class="WNV" id="cv_Block_WNV_19">
<g id="cvclr_172" stroke="#29A500" fill="none">
<path id="cv_173" class="ZW" d="M2447.82,966.75l0,-85.58" />
</g>
</g>
<g class="WNH" id="cv_Block_WNH_20">
<g id="cvclr_174" stroke="#29A500" fill="none">
<path id="cv_175" class="ZW" d="M1839.19,1452.41h93.06" />
</g>
</g>
<g class="WNH" id="cv_Block_WNH_21">
<g id="cvclr_176" stroke="#29A500" fill="none">
<path id="cv_177" class="ZW" d="M1273.35,1587.01h93.06" />
</g>
</g>
<g class="WNH" id="cv_Block_WNH_22">
<g id="cvclr_178" stroke="#29A500" fill="none">
<path id="cv_179" class="ZW" d="M1000.82,1582.03h-93.06" />
</g>
</g>
<g class="WNH" id="cv_Block_WNH_23">
<g id="cvclr_180" stroke="#29A500" fill="none">
<path id="cv_181" class="ZW" d="M1179.46,1587.01h-93.06" />
</g>
</g>
<g class="WNH" id="cv_Block_WNH_24">
<g id="cvclr_182" stroke="#29A500" fill="none">
<path id="cv_183" class="ZW" d="M1451.99,1582.03h93.06" />
</g>
</g>
<g class="WNH" id="cv_Block_WNH_25">
<g id="cvclr_184" stroke="#29A500" fill="none">
<path id="cv_185" class="ZW" d="M1690.46,1452.41h93.06" />
</g>
</g>
<g class="WNH" id="cv_Block_WNH_26">
<g id="cvclr_186" stroke="#29A500" fill="none">
<path id="cv_187" class="ZW" d="M2069.35,1317.8h93.06" />
</g>
</g>
<g class="WNH" id="cv_Block_WNH_27">
<g id="cvclr_188" stroke="#29A500" fill="none">
<path id="cv_189" class="ZW" d="M2218.08,1317.8h93.06" />
</g>
</g>
<g class="WNH" id="cv_Block_WNH_28">
<g id="cvclr_190" stroke="#29A500" fill="none">
<path id="cv_191" class="ZW" d="M2397.97,1125.04l0,93.06" />
</g>
</g>
<g class="WNH" id="cv_Block_WNH_29">
<g id="cvclr_192" stroke="#29A500" fill="none">
<path id="cv_193" class="ZW" d="M1839.19,139.59h93.06" />
</g>
</g>
<g class="WNH" id="cv_Block_WNH_30">
<g id="cvclr_194" stroke="#29A500" fill="none">
<path id="cv_195" class="ZW" d="M1273.35,4.99h93.06" />
</g>
</g>
<g class="WNH" id="cv_Block_WNH_31">
<g id="cvclr_196" stroke="#29A500" fill="none">
<path id="cv_197" class="ZW" d="M1000.82,9.97h-93.06" />
</g>
</g>
<g class="WNH" id="cv_Block_WNH_32">
<g id="cvclr_198" stroke="#29A500" fill="none">
<path id="cv_199" class="ZW" d="M1179.46,4.99h-93.06" />
</g>
</g>
<g class="WNH" id="cv_Block_WNH_33">
<g id="cvclr_200" stroke="#29A500" fill="none">
<path id="cv_201" class="ZW" d="M1451.99,9.97h93.06" />
</g>
</g>
<g class="WNH" id="cv_Block_WNH_34">
<g id="cvclr_202" stroke="#29A500" fill="none">
<path id="cv_203" class="ZW" d="M1690.46,139.59h93.06" />
</g>
</g>
<g class="WNV" id="cv_Block_WNV_35">
<g id="cvclr_204" stroke="#29A500" fill="none">
<path id="cv_205" class="ZW" d="M2447.82,625.25l0,85.58" />
</g>
</g>
<g class="WNV" id="cv_Block_WNV_36">
<g id="cvclr_206" stroke="#29A500" fill="none">
<path id="cv_207" class="ZW" d="M2447.82,753.21l0,85.58" />
</g>
</g>
<g class="WNV" id="cv_Block_WNV_37">
<g id="cvclr_208" stroke="#29A500" fill="none">
<path id="cv_209" class="ZW" d="M2447.82,838.79l0,-85.58" />
</g>
</g>
<g class="WNH" id="cv_Block_WNH_38">
<g id="cvclr_210" stroke="#29A500" fill="none">
<path id="cv_211" class="ZW" d="M2397.97,466.96l0,-93.06" />
</g>
</g>
<g class="WNH" id="cv_Block_WNH_39">
<g id="cvclr_212" stroke="#29A500" fill="none">
<path id="cv_213" class="ZW" d="M2069.35,274.2h93.06" />
</g>
</g>
<g class="WNH" id="cv_Block_WNH_40">
<g id="cvclr_214" stroke="#29A500" fill="none">
<path id="cv_215" class="ZW" d="M2218.08,274.2h93.06" />
</g>
</g>
</g>
<g id="layer_PL_2D_STAIR" class="layer_PL_2D_STAIR"  cvjs:layerName="PL-STAIR" cvjs:plottable="YES"
 cvjs:status="ON" visibility="visible">
<g id="cvclr_216" stroke="none" fill="#29A500" opacity="1.">
<path id="cv_217" d="M128.93,378.89l2.77,-16.62l2.77,16.62h-5.54 Z "/>
<path id="cv_218" d="M220.33,378.89l2.77,-16.62l2.77,16.62h-5.54 Z "/>
<path id="cv_219" d="M1434.41,948.89l-2.77,16.62l-2.77,-16.62h5.54 Z "/>
<path id="cv_220" d="M1498.94,854.72l16.62,2.77l-16.62,2.77v-5.54 Z "/>
</g>
<g id="cvclr_221" stroke="#29A500" fill="none">
<path id="cv_222" class=" ZW" d="M166.18,460.32v-6.65h6.65v6.65h-6.65" />
<path id="cv_223" class=" ZW" d="M181.97,460.32v-6.65h6.65v6.65h-6.65" />
<path id="cv_224" class=" ZW" d="M166.18,365.59v-6.65h6.65v6.65h-6.65" />
<path id="cv_225" class=" ZW" d="M181.97,365.59v-6.65h6.65v6.65h-6.65" />
<path id="cv_226" class=" ZW" d="M1464.87,968.83v-6.65h6.65v6.65h-6.65" />
<path id="cv_227" class=" ZW" d="M1512.23,968.83v-6.65h6.65v6.65h-6.65" />
<path id="cv_228" class=" ZW" d="M1464.87,905.68v-6.65h6.65v6.65h-6.65" />
<path id="cv_229" class=" ZW" d="M1512.23,905.68v-6.65h6.65v6.65h-6.65" />
<path id="cv_230" class="ZW" d="M169.5,358.95l0,-98.05M185.29,358.95l0,-98.05M265.06,425.42h-79.77M257.58,425.42h-72.29M257.58,441.21h-72.29M257.58,456.99h-68.96M257.58,362.27h-68.96M257.58,378.06h-72.29M257.58,393.85h-72.29M257.58,409.63h-72.29M131.7,378.89L131.7,501.03M169.5,541.75l0,-81.43M185.29,541.75l0,-81.43M131.7,501.03h53.59M169.5,425.42h-79.77M169.5,425.42h-72.29M169.5,441.21h-72.29M166.18,456.99h-68.96M169.5,378.06h-72.29M169.5,393.85h-72.29M169.5,409.63h-72.29M166.18,362.27h-68.96M94.72,460.32L94.72,358.95M97.22,460.32L97.22,358.95M97.22,460.32h-2.49M94.72,456.99h-4.99M94.72,425.42h-4.99M94.72,441.21h-4.99M94.72,409.63h-4.99M94.72,362.27h-4.99M94.72,378.06h-4.99M94.72,393.85h-4.99M97.22,358.95h-2.49M185.29,453.67l0,-88.08M169.5,453.67l0,-88.08M172,453.67l0,-88.08M182.8,453.67l0,-88.08M223.1,378.89l0,78.1M181.97,456.99h-9.14M181.97,454.5h-9.14M181.97,362.27h-9.14M181.97,364.76h-9.14M260.07,460.32L260.07,358.95M257.58,460.32L257.58,358.95M265.06,456.99h-4.99M260.07,460.32h-2.49M265.06,425.42h-4.99M265.06,441.21h-4.99M265.06,409.63h-4.99M265.06,362.27h-4.99M265.06,378.06h-4.99M265.06,393.85h-4.99M260.07,358.95h-2.49M1395.08,968.83l0,-69.8M1398.4,968.83l0,-69.8M1585.35,968.83l0,-69.8M1588.68,968.83l0,-69.8M1518.88,1035.3h-54.01M1518.88,1038.62h-54.01M1512.23,965.5h-40.71M1468.2,1038.62l0,6.65M1483.98,1038.62l0,6.65M1464.87,965.5h-66.47M1398.4,968.83h-3.32M1395.08,965.5h-6.65M1468.2,968.83l0,66.47M1468.2,1028.65l0,-59.82M1483.98,965.5l0,69.8M1464.87,1035.3l0,3.32M1515.56,1038.62l0,6.65M1499.77,1038.62l0,6.65M1585.35,965.5h-66.47h66.47M1515.56,968.83l0,66.47M1515.56,1028.65l0,-59.82M1499.77,965.5l0,69.8M1518.88,1035.3l0,3.32M1595.32,965.5h-6.65h6.65M1585.35,968.83h3.32M1512.23,902.35h-40.71M1512.23,905.68h-40.71M1512.23,962.18h-40.71M1518.88,812.62h-54.01M1518.88,815.94h-54.01M1498.94,857.49h-30.74M1483.98,902.35l0,-86.41M1468.2,899.03l0,-83.09M1468.2,918.14h-69.8M1468.2,933.93h-69.8M1468.2,949.72h-69.8M1464.87,902.35h-66.47M1395.08,933.93h-6.65M1395.08,949.72h-6.65M1398.4,899.03h-3.32M1395.08,918.14h-6.65M1468.2,962.18l0,-56.5M1431.64,948.89l0,-46.53M1471.52,962.18l0,-56.5M1468.2,952.21l0,9.97l0,-9.97M1464.87,815.94l0,-3.32M1468.2,812.62l0,-6.65M1483.98,812.62l0,-6.65M1499.77,902.35l0,-86.41M1515.56,899.03l0,-83.09M1585.35,902.35h-66.47M1515.56,949.72h69.8M1515.56,933.93h69.8M1515.56,918.14h69.8M1518.88,902.35h66.47M1515.56,962.18l0,-56.5M1512.23,962.18l0,-56.5M1515.56,952.21l0,9.97l0,-9.97M1588.68,949.72h6.65M1588.68,933.93h6.65M1595.32,902.35h-6.65M1588.68,918.14h6.65M1588.68,902.35h6.65M1585.35,899.03h3.32M1518.88,815.94l0,-3.32M1499.77,812.62l0,-6.65M1515.56,812.62l0,-6.65M265.06,541.75L265.06,260.9" />
<circle id="cv_231" class="ZW" fill="#29A500" cx="185.29" cy="501.03" r="2.49269311" />
<circle id="cv_232" class="ZW" fill="#29A500" cx="223.1" cy="456.99" r="2.49269311" />
<circle id="cv_233" class="ZW" fill="#29A500" cx="1431.64" cy="902.35" r="2.49269311" />
<circle id="cv_234" class="ZW" fill="#29A500" cx="1468.2" cy="857.49" r="2.49269311" />
</g>
<g style="font-family: simplex, , arial, helvetica, sans-serif" stroke="none" fill="#29A500">
<g font-size="17.30641217" stroke="none" fill="#29A500">
<text id="cv_235" transform="scale(0.8333333333 1) translate(178.65 491.06) " >UP</text>
<text id="cv_236" transform="scale(0.8333333333 1) translate(256.5 492.43) " >DN</text>
<text id="cv_237" transform="scale(0.8333333333 1) translate(1705.25 892.38) " >DN</text>
<text id="cv_238" transform="scale(0.8333333333 1) translate(1731.52 872.44) " >UP</text>
</g>
<g font-size="0.3461282433" stroke="none" fill="#29A500">
<text id="cv_239" transform="scale(0.8333333333 1) translate(1761.19 857.79) " >UP</text>
</g>
</g>
<g style="font-family: arial, helvetica, sans-serif" stroke="none" fill="#7F0000">
<g font-size="143.28" stroke="none" fill="#7F0000">
<text id="cv_240" transform="scale(1.111111111 1) translate(441.51 1273.6) rotate(330) " >For Demonstration Purposes Only</text>
<text id="cv_241" transform="scale(1.111111111 1) translate(883.01 1273.6) rotate(330) " >Tailor Made Software, Ltd</text>
</g>
</g>
</g>
<g id="layer_WN" class="layer_WN"  cvjs:layerName="WN" cvjs:plottable="YES"
 cvjs:status="ON" visibility="visible">
<g id="cvclr_242" stroke="#808080" fill="none">
<path id="cv_243" class="ZW" d="M24.93,700.86l0,-92.23M16.62,697.54l0,-85.58M74.78,350.64l0,99.71M66.47,353.96l0,93.06M140.01,260.9H241.38M143.33,252.59h94.72" />
</g>
<g id="cvclr_244" stroke="#29A500" fill="none">
<path id="cv_245" class="ZW" d="M106.35,864.13l0,-87.24M103.03,864.13l0,-87.24M159.53,864.13l0,-87.24M156.21,864.13l0,-87.24M209.39,864.13l0,-87.24M212.71,864.13l0,-87.24" />
</g>
<g style="font-family: arial, helvetica, sans-serif" stroke="none" fill="#7F0000">
<g font-size="143.28" stroke="none" fill="#7F0000">
<text id="cv_246" transform="scale(1.111111111 1) translate(441.51 1273.6) rotate(330) " >For Demonstration Purposes Only</text>
<text id="cv_247" transform="scale(1.111111111 1) translate(883.01 1273.6) rotate(330) " >Tailor Made Software, Ltd</text>
</g>
</g>
</g>
<g id="layer_RM_TXT" class="layer_RM_TXT"  cvjs:layerName="RM_TXT" cvjs:plottable="YES"
 cvjs:status="ON" visibility="visible">
<g style="font-family: simplex, , arial, helvetica, sans-serif" stroke="none" fill="#007CA5">
<g font-size="19.22934685" stroke="none" fill="#007CA5">
<text id="cv_248" transform="scale(1.111111111 1) translate(1237.02 124.63) " >108</text>
<text id="cv_249" transform="scale(1.111111111 1) translate(1182.53 149.56) " >WKSTA-TECH</text>
<text id="cv_250" transform="scale(1.111111111 1) translate(1225.27 174.49) " >74.86</text>
<text id="cv_251" transform="scale(1.111111111 1) translate(1072.5 287.49) " >105</text>
<text id="cv_252" transform="scale(1.111111111 1) translate(1018.02 312.42) " >WKSTA-TECH</text>
<text id="cv_253" transform="scale(1.111111111 1) translate(1060.75 337.34) " >74.86</text>
<text id="cv_254" transform="scale(1.111111111 1) translate(815.25 1434.13) " >125</text>
<text id="cv_255" transform="scale(1.111111111 1) translate(760.77 1459.06) " >WKSTA-TECH</text>
<text id="cv_256" transform="scale(1.111111111 1) translate(803.5 1483.98) " >74.86</text>
<text id="cv_257" transform="scale(1.111111111 1) translate(814.9 124.63) " >104</text>
<text id="cv_258" transform="scale(1.111111111 1) translate(760.77 149.56) " >WKSTA-TECH</text>
<text id="cv_259" transform="scale(1.111111111 1) translate(803.5 174.49) " >74.86</text>
<text id="cv_260" transform="scale(1.111111111 1) translate(1240.22 1434.13) " >121</text>
<text id="cv_261" transform="scale(1.111111111 1) translate(1182.53 1459.06) " >WKSTA-TECH</text>
<text id="cv_262" transform="scale(1.111111111 1) translate(1225.27 1483.98) " >74.86</text>
<text id="cv_263" transform="scale(1.111111111 1) translate(1237.02 287.49) " >107</text>
<text id="cv_264" transform="scale(1.111111111 1) translate(1182.53 312.42) " >WKSTA-TECH</text>
<text id="cv_265" transform="scale(1.111111111 1) translate(1225.27 337.34) " >74.86</text>
<text id="cv_266" transform="scale(1.111111111 1) translate(1809.77 633.14) " >113</text>
<text id="cv_267" transform="scale(1.111111111 1) translate(1753.86 658.07) " >WKSTA-TECH</text>
<text id="cv_268" transform="scale(1.111111111 1) translate(1796.59 683) " >74.86</text>
<text id="cv_269" transform="scale(1.111111111 1) translate(1648.45 633.14) " >111</text>
<text id="cv_270" transform="scale(1.111111111 1) translate(1589.34 658.07) " >WKSTA-TECH</text>
<text id="cv_271" transform="scale(1.111111111 1) translate(1632.07 683) " >74.86</text>
<text id="cv_272" transform="scale(1.111111111 1) translate(814.9 1271.27) " >124</text>
<text id="cv_273" transform="scale(1.111111111 1) translate(760.77 1296.2) " >WKSTA-TECH</text>
<text id="cv_274" transform="scale(1.111111111 1) translate(803.5 1321.13) " >74.86</text>
<text id="cv_275" transform="scale(1.111111111 1) translate(815.25 287.49) " >103</text>
<text id="cv_276" transform="scale(1.111111111 1) translate(760.77 312.42) " >WKSTA-TECH</text>
<text id="cv_277" transform="scale(1.111111111 1) translate(803.5 337.34) " >74.86</text>
<text id="cv_278" transform="scale(1.111111111 1) translate(1072.5 1434.13) " >123</text>
<text id="cv_279" transform="scale(1.111111111 1) translate(1018.02 1459.06) " >WKSTA-TECH</text>
<text id="cv_280" transform="scale(1.111111111 1) translate(1060.75 1483.98) " >74.86</text>
<text id="cv_281" transform="scale(1.111111111 1) translate(1072.86 124.63) " >106</text>
<text id="cv_282" transform="scale(1.111111111 1) translate(1018.02 149.56) " >WKSTA-TECH</text>
<text id="cv_283" transform="scale(1.111111111 1) translate(1060.75 174.49) " >74.86</text>
<text id="cv_284" transform="scale(1.111111111 1) translate(1645.25 796) " >112</text>
<text id="cv_285" transform="scale(1.111111111 1) translate(1589.34 820.93) " >WKSTA-TECH</text>
<text id="cv_286" transform="scale(1.111111111 1) translate(1632.07 845.85) " >74.86</text>
<text id="cv_287" transform="scale(1.111111111 1) translate(1072.5 1271.27) " >122</text>
<text id="cv_288" transform="scale(1.111111111 1) translate(1018.02 1296.2) " >WKSTA-TECH</text>
<text id="cv_289" transform="scale(1.111111111 1) translate(1060.75 1321.13) " >74.86</text>
<text id="cv_290" transform="scale(1.111111111 1) translate(1237.02 1271.27) " >120</text>
<text id="cv_291" transform="scale(1.111111111 1) translate(1182.53 1296.2) " >WKSTA-TECH</text>
<text id="cv_292" transform="scale(1.111111111 1) translate(1225.27 1321.13) " >74.86</text>
<text id="cv_293" transform="scale(1.111111111 1) translate(1809.41 796) " >114</text>
<text id="cv_294" transform="scale(1.111111111 1) translate(1753.86 820.93) " >WKSTA-TECH</text>
<text id="cv_295" transform="scale(1.111111111 1) translate(1796.59 845.85) " >74.86</text>
<text id="cv_296" transform="scale(1.111111111 1) translate(144.68 741.16) " >171</text>
<text id="cv_297" transform="scale(1.111111111 1) translate(132.22 766.09) " >SERV</text>
<text id="cv_298" transform="scale(1.111111111 1) translate(138.99 791.01) " >MEN</text>
<text id="cv_299" transform="scale(1.111111111 1) translate(141.48 953.04) " >172</text>
<text id="cv_300" transform="scale(1.111111111 1) translate(132.22 977.97) " >SERV</text>
<text id="cv_301" transform="scale(1.111111111 1) translate(122.6 1002.89) " >WOMEN</text>
<text id="cv_302" transform="scale(1.111111111 1) translate(251.62 879.09) " >151</text>
<text id="cv_303" transform="scale(1.111111111 1) translate(239.87 904.02) " >VERT</text>
<text id="cv_304" transform="scale(1.111111111 1) translate(232.03 928.94) " >SHAFT</text>
<text id="cv_305" transform="scale(1.111111111 1) translate(1015.67 979.63) " >162</text>
<text id="cv_306" transform="scale(1.111111111 1) translate(1007.12 1004.56) " >VERT</text>
<text id="cv_307" transform="scale(1.111111111 1) translate(1008.19 1029.48) " >ELEV</text>
<text id="cv_308" transform="scale(1.111111111 1) translate(486.61 974.64) " >154</text>
<text id="cv_309" transform="scale(1.111111111 1) translate(478.42 999.57) " >VERT</text>
<text id="cv_310" transform="scale(1.111111111 1) translate(479.49 1024.5) " >ELEV</text>
<text id="cv_311" transform="scale(1.111111111 1) translate(830.21 974.64) " >160</text>
<text id="cv_312" transform="scale(1.111111111 1) translate(821.66 999.57) " >VERT</text>
<text id="cv_313" transform="scale(1.111111111 1) translate(822.73 1024.5) " >ELEV</text>
<text id="cv_314" transform="scale(1.111111111 1) translate(660.07 974.64) " >156</text>
<text id="cv_315" transform="scale(1.111111111 1) translate(651.16 999.57) " >VERT</text>
<text id="cv_316" transform="scale(1.111111111 1) translate(652.23 1024.5) " >ELEV</text>
<text id="cv_317" transform="scale(1.111111111 1) translate(386.01 979.63) " >152</text>
<text id="cv_318" transform="scale(1.111111111 1) translate(377.46 1004.56) " >VERT</text>
<text id="cv_319" transform="scale(1.111111111 1) translate(369.63 1029.48) " >SHAFT</text>
<text id="cv_320" transform="scale(1.111111111 1) translate(691.12 1077.26) " >158</text>
<text id="cv_321" transform="scale(1.111111111 1) translate(682.57 1102.19) " >VERT</text>
<text id="cv_322" transform="scale(1.111111111 1) translate(686.49 1127.11) " >PIPE</text>
<text id="cv_323" transform="scale(1.111111111 1) translate(798.8 478.6) " >157</text>
<text id="cv_324" transform="scale(1.111111111 1) translate(790.25 503.52) " >VERT</text>
<text id="cv_325" transform="scale(1.111111111 1) translate(782.42 528.45) " >SHAFT</text>
<text id="cv_326" transform="scale(1.111111111 1) translate(1334.61 918.97) " >163</text>
<text id="cv_327" transform="scale(1.111111111 1) translate(1326.06 943.9) " >VERT</text>
<text id="cv_328" transform="scale(1.111111111 1) translate(1323.21 968.83) " >STAIR</text>
<text id="cv_329" transform="scale(1.111111111 1) translate(1449 957.26) " >164</text>
<text id="cv_330" transform="scale(1.111111111 1) translate(1440.81 982.19) " >VERT</text>
<text id="cv_331" transform="scale(1.111111111 1) translate(1432.98 1007.12) " >SHAFT</text>
<text id="cv_332" transform="scale(1.111111111 1) translate(141.1 394.68) " >150</text>
<text id="cv_333" transform="scale(1.111111111 1) translate(132.56 419.6) " >VERT</text>
<text id="cv_334" transform="scale(1.111111111 1) translate(129.71 444.53) " >STAIR</text>
<text id="cv_335" transform="scale(1.111111111 1) translate(146.69 583.18) " >170</text>
<text id="cv_336" transform="scale(1.111111111 1) translate(137.43 608.1) " >SERV</text>
<text id="cv_337" transform="scale(1.111111111 1) translate(111.08 633.03) " >CORRIDOR</text>
<text id="cv_338" transform="scale(1.111111111 1) translate(752.06 779.38) " >168</text>
<text id="cv_339" transform="scale(1.111111111 1) translate(742.8 804.31) " >SERV</text>
<text id="cv_340" transform="scale(1.111111111 1) translate(735.33 829.24) " >LOBBY</text>
<text id="cv_341" transform="scale(1.111111111 1) translate(375.15 594.09) " >169</text>
<text id="cv_342" transform="scale(1.111111111 1) translate(365.54 619.02) " >SERV</text>
<text id="cv_343" transform="scale(1.111111111 1) translate(364.82 643.95) " >MECH</text>
<text id="cv_344" transform="scale(1.111111111 1) translate(480.24 579.14) " >153</text>
<text id="cv_345" transform="scale(1.111111111 1) translate(471.69 604.06) " >VERT</text>
<text id="cv_346" transform="scale(1.111111111 1) translate(472.76 628.99) " >ELEV</text>
<text id="cv_347" transform="scale(1.111111111 1) translate(1012.89 579.14) " >161</text>
<text id="cv_348" transform="scale(1.111111111 1) translate(1001.14 604.06) " >VERT</text>
<text id="cv_349" transform="scale(1.111111111 1) translate(1002.21 628.99) " >ELEV</text>
<text id="cv_350" transform="scale(1.111111111 1) translate(668.68 579.14) " >155</text>
<text id="cv_351" transform="scale(1.111111111 1) translate(660.14 604.06) " >VERT</text>
<text id="cv_352" transform="scale(1.111111111 1) translate(661.2 628.99) " >ELEV</text>
<text id="cv_353" transform="scale(1.111111111 1) translate(830.57 584.12) " >159</text>
<text id="cv_354" transform="scale(1.111111111 1) translate(821.66 609.05) " >VERT</text>
<text id="cv_355" transform="scale(1.111111111 1) translate(822.73 633.97) " >ELEV</text>
<text id="cv_356" transform="scale(1.111111111 1) translate(1151.02 579.14) " >167</text>
<text id="cv_357" transform="scale(1.111111111 1) translate(1141.76 604.06) " >SERV</text>
<text id="cv_358" transform="scale(1.111111111 1) translate(1141.05 628.99) " >MECH</text>
</g>
<g font-size="26.92108559" stroke="none" fill="#007CA5">
<text id="cv_359" transform="scale(1.111111111 1) translate(1947.54 407.97) " >110</text>
<text id="cv_360" transform="scale(1.111111111 1) translate(1892.2 442.87) " >OFF-EXEC</text>
<text id="cv_361" transform="scale(1.111111111 1) translate(1918.13 477.77) " >253.44</text>
<text id="cv_362" transform="scale(1.111111111 1) translate(156.04 1167.41) " >127</text>
<text id="cv_363" transform="scale(1.111111111 1) translate(82.26 1202.31) " >CONFERENCE</text>
<text id="cv_364" transform="scale(1.111111111 1) translate(131.61 1237.21) " >175.89</text>
<text id="cv_365" transform="scale(1.111111111 1) translate(1314.15 605.18) " >129</text>
<text id="cv_366" transform="scale(1.111111111 1) translate(1314.15 640.07) " >TELECOM</text>
<text id="cv_367" transform="scale(1.111111111 1) translate(1314.15 674.97) " >33.67</text>
<text id="cv_368" transform="scale(1.111111111 1) translate(1605.79 251.75) " >109</text>
<text id="cv_369" transform="scale(1.111111111 1) translate(1580.37 286.65) " >OFF-A</text>
<text id="cv_370" transform="scale(1.111111111 1) translate(1580.37 321.54) " >218.20</text>
<text id="cv_371" transform="scale(1.111111111 1) translate(2065.86 891.55) " >116</text>
<text id="cv_372" transform="scale(1.111111111 1) translate(2016 926.45) " >WKSTA-B</text>
<text id="cv_373" transform="scale(1.111111111 1) translate(2038.44 961.35) " >125.35</text>
<text id="cv_374" transform="scale(1.111111111 1) translate(1607.79 1278.74) " >119</text>
<text id="cv_375" transform="scale(1.111111111 1) translate(1551.95 1313.64) " >OFF-EXEC</text>
<text id="cv_376" transform="scale(1.111111111 1) translate(1578.37 1348.53) " >246.75</text>
<text id="cv_377" transform="scale(1.111111111 1) translate(2065.36 655.58) " >115</text>
<text id="cv_378" transform="scale(1.111111111 1) translate(2016 690.48) " >WKSTA-B</text>
<text id="cv_379" transform="scale(1.111111111 1) translate(2040.43 725.37) " >127.15</text>
<text id="cv_380" transform="scale(1.111111111 1) translate(1947.54 1139.16) " >118</text>
<text id="cv_381" transform="scale(1.111111111 1) translate(1892.2 1174.06) " >OFF-EXEC</text>
<text id="cv_382" transform="scale(1.111111111 1) translate(1918.63 1208.96) " >252.02</text>
<text id="cv_383" transform="scale(1.111111111 1) translate(622 240.96) " >102</text>
<text id="cv_384" transform="scale(1.111111111 1) translate(573.65 275.86) " >WKSTA-A</text>
<text id="cv_385" transform="scale(1.111111111 1) translate(599.07 310.76) " >140.15</text>
<text id="cv_386" transform="scale(1.111111111 1) translate(554.37 1304.51) " >126</text>
<text id="cv_387" transform="scale(1.111111111 1) translate(500.53 1339.41) " >OFF-EXEC</text>
<text id="cv_388" transform="scale(1.111111111 1) translate(529.45 1374.3) " >231.36</text>
</g>
<g font-size="23.07521622" stroke="none" fill="#007CA5">
<text id="cv_389" transform="scale(1.111111111 1) translate(1707.78 1079.32) " >117</text>
<text id="cv_390" transform="scale(1.111111111 1) translate(1648.38 1109.24) " >WKSTA-SEC</text>
<text id="cv_391" transform="scale(1.111111111 1) translate(1691.54 1139.15) " >59.20</text>
<text id="cv_392" transform="scale(1.111111111 1) translate(453.75 244.28) " >101</text>
<text id="cv_393" transform="scale(1.111111111 1) translate(408.46 274.2) " >WKSTA-A</text>
<text id="cv_394" transform="scale(1.111111111 1) translate(435.8 304.11) " >93.66</text>
</g>
</g>
<g style="font-family: arial, helvetica, sans-serif" stroke="none" fill="#7F0000">
<g font-size="143.28" stroke="none" fill="#7F0000">
<text id="cv_395" transform="scale(1.111111111 1) translate(441.51 1273.6) rotate(330) " >For Demonstration Purposes Only</text>
<text id="cv_396" transform="scale(1.111111111 1) translate(883.01 1273.6) rotate(330) " >Tailor Made Software, Ltd</text>
</g>
</g>
</g>
<g id="layer_0_block" class="layer_0_block"  cvjs:layerName="0" cvjs:plottable="YES"
 cvjs:status="ON" visibility="visible">
<g class="90S2" id="cv_Block_90S2_41">
<g id="cvclr_397" stroke="#FF7F00" fill="none">
<path id="cv_398" class=" ZW" d="M339.01,1050.25l0.03,1.88l0.09,1.88l0.15,1.87l0.21,1.87l0.26,1.86l0.32,1.85l0.38,1.84l0.44,1.83l0.49,1.81l0.55,1.79l0.61,1.78l0.66,1.76l0.72,1.73l0.77,1.71l0.83,1.69l0.88,1.66l0.93,1.63l0.98,1.6l1.24,1.88l1.31,1.83l1.38,1.78l1.45,1.73l1.51,1.67l1.57,1.61l1.63,1.55l1.69,1.49l1.74,1.43l1.8,1.36l1.85,1.29l1.89,1.22l1.61,0.96l1.64,0.91l1.67,0.86l1.7,0.81l1.72,0.75l1.74,0.7l1.76,0.64l1.78,0.59l1.8,0.53l1.82,0.48l1.83,0.42l1.84,0.36l1.85,0.3l1.86,0.24l1.87,0.19l1.87,0.13l1.88,0.07h1.88l0.75,-0.01l0.38,-0.01" />
<path id="cv_399" class="ZW" d="M398.83,1050.25l0,59.82M396.96,1050.25l0,59.71M398.83,1050.25h-1.87" />
</g>
</g>
<g class="DR_2D_S90" id="cv_Block_DR_2D_S90_42">
<g id="cvclr_400" stroke="#FF7F00" fill="none">
<path id="cv_401" class=" ZW" d="M388.11,541.75l-0.03,-1.82l-0.1,-1.81l-0.17,-1.81l-0.24,-1.8l-0.31,-1.79l-0.37,-1.78l-0.44,-1.76l-0.51,-1.75l-0.57,-1.73l-0.64,-1.7l-0.7,-1.68l-0.76,-1.65l-0.82,-1.62l-1.04,-1.85l-1.12,-1.8l-1.19,-1.75l-1.27,-1.7l-1.34,-1.64l-1.62,-1.8l-1.71,-1.72l-1.79,-1.63l-1.63,-1.35l-1.69,-1.28l-1.75,-1.2l-1.8,-1.12l-1.85,-1.04l-1.62,-0.83l-1.65,-0.77l-1.67,-0.71l-1.7,-0.64l-1.72,-0.58l-1.74,-0.51l-1.76,-0.45l-1.78,-0.38l-1.79,-0.31l-1.8,-0.25l-1.81,-0.18l-1.21,-0.08l-0.3,-0.02" />
<path id="cv_402" class="ZW" d="M342.1,493.39l0,48.12h-2.35l0,-48.12h2.35" />
</g>
</g>
<g class="90S2" id="cv_Block_90S2_43">
<g id="cvclr_403" stroke="#FF7F00" fill="none">
<path id="cv_404" class=" ZW" d="M1295.37,918.97l0.03,1.88l0.09,1.88l0.15,1.87l0.21,1.87l0.26,1.86l0.32,1.85l0.38,1.84l0.44,1.83l0.49,1.81l0.55,1.79l0.61,1.78l0.66,1.76l0.72,1.73l0.77,1.71l0.83,1.69l0.88,1.66l0.93,1.63l0.98,1.6l1.24,1.88l1.31,1.83l1.38,1.78l1.45,1.73l1.51,1.67l1.57,1.61l1.63,1.55l1.69,1.49l1.74,1.43l1.8,1.36l1.85,1.29l1.89,1.22l1.61,0.96l1.64,0.91l1.67,0.86l1.7,0.81l1.72,0.75l1.74,0.7l1.76,0.64l1.78,0.59l1.8,0.53l1.82,0.48l1.83,0.42l1.84,0.36l1.85,0.3l1.86,0.24l1.87,0.19l1.87,0.13l1.88,0.07h1.88l0.75,-0.01l0.38,-0.01" />
<path id="cv_405" class="ZW" d="M1355.2,918.97l0,59.82M1353.33,918.97l0,59.71M1355.2,918.97h-1.87" />
</g>
</g>
<g class="DR_2D_DOUB" id="cv_Block_DR_2D_DOUB_44">
<g id="cvclr_406" stroke="#FF7F00" fill="none">
<path id="cv_407" class=" ZW" d="M1434.96,688.68l-0.04,1.88l-0.11,1.88l-0.18,1.87l-0.25,1.86l-0.32,1.85l-0.39,1.84l-0.46,1.82l-0.52,1.8l-0.59,1.78l-0.66,1.76l-0.72,1.73l-0.79,1.71l-0.85,1.67l-0.92,1.64l-0.98,1.61l-1.22,1.82l-1.29,1.77l-1.37,1.71l-1.44,1.65l-1.74,1.8l-1.59,1.51l-1.66,1.43l-1.72,1.36l-1.78,1.28l-1.83,1.2l-1.61,0.97l-1.65,0.91l-1.68,0.84l-1.71,0.78l-1.74,0.71l-1.76,0.65l-1.79,0.58l-1.81,0.51l-1.83,0.44l-1.84,0.38l-1.85,0.31l-1.86,0.24l-1.87,0.17l-1.88,0.09l-1.25,0.02h-0.31M1385.11,738.53l1.88,0.04l1.88,0.11l1.87,0.18l1.86,0.25l1.85,0.32l1.84,0.39l1.82,0.46l1.8,0.52l1.78,0.59l1.76,0.66l1.73,0.72l1.71,0.79l1.67,0.85l1.64,0.92l1.61,0.98l1.82,1.22l1.77,1.29l1.71,1.37l1.65,1.44l1.8,1.74l1.51,1.59l1.43,1.66l1.36,1.72l1.28,1.78l1.2,1.83l0.97,1.61l0.91,1.65l0.84,1.68l0.78,1.71l0.71,1.74l0.65,1.76l0.58,1.79l0.51,1.81l0.44,1.83l0.38,1.84l0.31,1.85l0.24,1.86l0.17,1.87l0.09,1.88l0.02,1.25v0.31" />
<path id="cv_408" class="ZW" d="M1385.11,688.68h49.85l0,1.56h-49.85l0,-1.56M1385.11,786.83l0,1.56M1434.96,786.83h-49.85M1434.96,788.39l0,-1.56M1385.11,788.39h49.85" />
</g>
</g>
<g class="SINK" id="cv_Block_SINK_45">
<g id="cvclr_409" stroke="#29A500" fill="none">
<path id="cv_410" class="ZW" d="M101.62,874.1l0,31.71M103.44,907.65h43.96M149.23,905.82l0,-31.71h-47.61M109.63,903.42h31.59M145,899.63l0,-13.8M105.85,885.84l0,13.8M141.22,882.05h-14.52M124.03,879.23l0,10.5h2.66l0,-10.5h-2.66M124.03,882.05h-14.41" />
<path id="cv_411" class="ZW" d="M109.63,882.05A 3.782216434 3.782216434 0 0 0 105.85 885.84M105.85,899.63A 3.782216434 3.782216434 0 0 0 109.63 903.42M141.22,903.42A 3.782216434 3.782216434 0 0 0 145 899.63M145,885.84A 3.782216434 3.782216434 0 0 0 141.22 882.05M101.62,905.82A 1.827974948 1.827974948 0 0 0 103.44 907.65M147.4,907.65A 1.827974948 1.827974948 0 0 0 149.23 905.82" />
<circle id="cv_412" class="ZW" cx="118.6" cy="878.46" r="2.455090004" />
<circle id="cv_413" class="ZW" cx="132.14" cy="878.46" r="2.455090004" />
</g>
</g>
<g class="SINK" id="cv_Block_SINK_46">
<g id="cvclr_414" stroke="#29A500" fill="none">
<path id="cv_415" class="ZW" d="M44.82,874.1l0,31.71M46.65,907.65h43.96M92.44,905.82l0,-31.71h-47.61M52.84,903.42h31.59M88.21,899.63l0,-13.8M49.05,885.84l0,13.8M84.42,882.05h-14.52M67.24,879.23l0,10.5h2.66l0,-10.5h-2.66M67.24,882.05h-14.41" />
<path id="cv_416" class="ZW" d="M52.84,882.05A 3.782216434 3.782216434 0 0 0 49.05 885.84M49.05,899.63A 3.782216434 3.782216434 0 0 0 52.84 903.42M84.42,903.42A 3.782216434 3.782216434 0 0 0 88.21 899.63M88.21,885.84A 3.782216434 3.782216434 0 0 0 84.42 882.05M44.82,905.82A 1.827974948 1.827974948 0 0 0 46.65 907.65M90.61,907.65A 1.827974948 1.827974948 0 0 0 92.44 905.82" />
<circle id="cv_417" class="ZW" cx="61.8" cy="878.46" r="2.455090004" />
<circle id="cv_418" class="ZW" cx="75.35" cy="878.46" r="2.455090004" />
</g>
</g>
<g class="SINK" id="cv_Block_SINK_47">
<g id="cvclr_419" stroke="#29A500" fill="none">
<path id="cv_420" class="ZW" d="M44.82,864.13l0,-31.71M46.65,830.59h43.96M92.44,832.42l0,31.71h-47.61M52.84,834.82h31.59M88.21,838.6l0,13.8M49.05,852.4l0,-13.8M84.42,856.18h-14.52M67.24,859.01l0,-10.5h2.66l0,10.5h-2.66M67.24,856.18h-14.41" />
<path id="cv_421" class="ZW" d="M49.05,852.4A 3.782216434 3.782216434 0 0 0 52.84 856.18M52.84,834.82A 3.782216434 3.782216434 0 0 0 49.05 838.6M88.21,838.6A 3.782216434 3.782216434 0 0 0 84.42 834.82M84.42,856.18A 3.782216434 3.782216434 0 0 0 88.21 852.4M46.65,830.59A 1.827974948 1.827974948 0 0 0 44.82 832.42M92.44,832.42A 1.827974948 1.827974948 0 0 0 90.61 830.59" />
<circle id="cv_422" class="ZW" cx="61.8" cy="859.78" r="2.455090004" />
<circle id="cv_423" class="ZW" cx="75.35" cy="859.78" r="2.455090004" />
</g>
</g>
<g class="SINK" id="cv_Block_SINK_48">
<g id="cvclr_424" stroke="#29A500" fill="none">
<path id="cv_425" class="ZW" d="M164.6,654.75l0,31.71M162.78,688.29h-43.96M116.99,686.46l0,-31.71h47.61M156.59,684.06h-31.59M121.22,680.28l0,-13.8M160.37,666.48l0,13.8M125,662.7h14.52M142.19,659.87l0,10.5h-2.66l0,-10.5h2.66M142.19,662.7h14.41" />
<path id="cv_426" class="ZW" d="M160.37,666.48A 3.782216434 3.782216434 0 0 0 156.59 662.7M156.59,684.06A 3.782216434 3.782216434 0 0 0 160.37 680.28M121.22,680.28A 3.782216434 3.782216434 0 0 0 125 684.06M125,662.7A 3.782216434 3.782216434 0 0 0 121.22 666.48M162.78,688.29A 1.827974948 1.827974948 0 0 0 164.6 686.46M116.99,686.46A 1.827974948 1.827974948 0 0 0 118.82 688.29" />
<circle id="cv_427" class="ZW" cx="147.62" cy="659.1" r="2.455090004" />
<circle id="cv_428" class="ZW" cx="134.08" cy="659.1" r="2.455090004" />
</g>
</g>
<g class="ELEV" id="cv_Block_ELEV_49">
<g id="cvclr_429" stroke="#29A500" fill="none">
<path id="cv_430" class=" ZW" d="M677.6,1041.95V932.27H817.19V1041.95H677.6" />
<path id="cv_431" class="ZW" d="M817.19,932.27L677.6,1041.95M677.6,932.27L817.19,1041.95" />
</g>
</g>
<g class="ELEV" id="cv_Block_ELEV_50">
<g id="cvclr_432" stroke="#29A500" fill="none">
<path id="cv_433" class=" ZW" d="M677.6,550.11V659.79H817.19V550.11H677.6" />
<path id="cv_434" class="ZW" d="M817.19,659.79L677.6,550.11M677.6,659.79L817.19,550.11" />
</g>
</g>
<g class="WNV" id="cv_Block_WNV_51">
<g id="cvclr_435" stroke="#808080" fill="none">
<path id="cv_436" class="ZW" d="M20.77,891.14l0,92.23M16.62,980.04l0,-85.58M24.93,891.14l0,92.23" />
</g>
</g>
<g class="ELEV" id="cv_Block_ELEV_52">
<g id="cvclr_437" stroke="#29A500" fill="none">
<path id="cv_438" class=" ZW" d="M498.95,1041.95V932.27H638.54V1041.95H498.95" />
<path id="cv_439" class="ZW" d="M638.54,932.27L498.95,1041.95M498.95,932.27L638.54,1041.95" />
</g>
</g>
<g class="WNH" id="cv_Block_WNH_53">
<g id="cvclr_440" stroke="#808080" fill="none">
<path id="cv_441" class="ZW" d="M241.38,1335.25h-99.71M238.05,1339.41h-93.06M241.38,1331.1h-99.71" />
</g>
</g>
<g class="WNH" id="cv_Block_WNH_54">
<g id="cvclr_442" stroke="#808080" fill="none">
<path id="cv_443" class="ZW" d="M70.63,1241.36l0,-99.71M66.47,1238.04l0,-93.06M74.78,1241.36l0,-99.71" />
</g>
</g>
<g class="WNH" id="cv_Block_WNH_55">
<g id="cvclr_444" stroke="#808080" fill="none">
<path id="cv_445" class="ZW" d="M390.11,1335.25h-99.71M386.78,1339.41h-93.06M390.11,1331.1h-99.71" />
</g>
</g>
<g class="WNH" id="cv_Block_WNH_56">
<g id="cvclr_446" stroke="#808080" fill="none">
<path id="cv_447" class="ZW" d="M620.27,1453.24h-99.71M616.94,1457.39h-93.06M620.27,1449.09h-99.71" />
</g>
</g>
<g class="WNH" id="cv_Block_WNH_57">
<g id="cvclr_448" stroke="#808080" fill="none">
<path id="cv_449" class="ZW" d="M769,1453.24h-99.71M765.67,1457.39h-93.06M769,1449.09h-99.71" />
</g>
</g>
<g class="WCWALL" id="cv_Block_WCWALL_58">
<g id="cvclr_450" stroke="#29A500" fill="none">
<path id="cv_451" class="ZW" d="M249.27,874.1h-23.27M249.27,874.1l-4.15,7.48M226,874.1l4.15,7.48" />
<path id="cv_452" class="ZW" d="M245.12,881.58A 8.554615323 8.554615323 0 0 0 245.11 889.89M245.11,913.16A 18.36283925 18.36283925 0 0 0 245.11 889.89M230.16,913.16A 8.807515657 8.807515657 0 0 0 245.11 913.16M230.16,889.89A 18.36283925 18.36283925 0 0 0 230.16 913.16M230.16,889.89A 8.554615323 8.554615323 0 0 0 230.16 881.58" />
<circle id="cv_453" class="ZW" cx="237.64" cy="877.43" r="1.661795407" />
</g>
</g>
<g class="WCWALL" id="cv_Block_WCWALL_59">
<g id="cvclr_454" stroke="#29A500" fill="none">
<path id="cv_455" class="ZW" d="M249.27,864.13h-23.27M249.27,864.13l-4.15,-7.48M226,864.13l4.15,-7.48" />
<path id="cv_456" class="ZW" d="M245.12,848.35A 8.554615323 8.554615323 0 0 0 245.11 856.66M245.11,848.35A 18.36283925 18.36283925 0 0 0 245.12 825.08M245.11,825.08A 8.807515657 8.807515657 0 0 0 230.16 825.08M230.16,825.08A 18.36283925 18.36283925 0 0 0 230.16 848.35M230.16,856.66A 8.554615323 8.554615323 0 0 0 230.16 848.35" />
<circle id="cv_457" class="ZW" cx="237.64" cy="860.81" r="1.661795407" />
</g>
</g>
<g class="URINAL" id="cv_Block_URINAL_60">
<g id="cvclr_458" stroke="#29A500" fill="none">
<path id="cv_459" class="ZW" d="M223.04,654.75h29.91M223.04,666.38l0,-11.63M226.37,664.72l0,1.66M235.51,673.86l-6.65,-9.14M247.14,664.72l-6.65,9.14M249.63,666.38l0,-1.66M252.96,654.75l0,11.63M247.97,663.89h-19.94" />
<path id="cv_460" class="ZW" d="M223.04,666.38A 1.661795407 1.661795407 0 1 0 226.37 666.38M228.86,664.72A 1.313763933 1.313763933 0 0 0 226.37 664.72M235.51,673.86A 4.154488517 4.154488517 0 0 0 240.49 673.86M249.63,664.72A 1.313763933 1.313763933 0 0 0 247.14 664.72M249.63,666.38A 1.661795407 1.661795407 0 1 0 252.96 666.38" />
<circle id="cv_461" class="ZW" cx="238" cy="658.07" r="1.661795407" />
</g>
</g>
<g class="WNV" id="cv_Block_WNV_61">
<g id="cvclr_462" stroke="#808080" fill="none">
<path id="cv_463" class="ZW" d="M20.77,842.11l0,-92.23M16.62,753.21l0,85.58M24.93,842.11l0,-92.23" />
</g>
</g>
<g class="WNV" id="cv_Block_WNV_62">
<g id="cvclr_464" stroke="#808080" fill="none">
<path id="cv_465" class="ZW" d="M20.77,749.89l0,92.23M16.62,838.79l0,-85.58M24.93,749.89l0,92.23" />
</g>
</g>
<g class="WCWALL" id="cv_Block_WCWALL_63">
<g id="cvclr_466" stroke="#29A500" fill="none">
<path id="cv_467" class="ZW" d="M196.09,874.1h-23.27M196.09,874.1l-4.15,7.48M172.83,874.1l4.15,7.48" />
<path id="cv_468" class="ZW" d="M191.94,881.58A 8.554615323 8.554615323 0 0 0 191.94 889.89M191.94,913.16A 18.36283925 18.36283925 0 0 0 191.94 889.89M176.98,913.16A 8.807515657 8.807515657 0 0 0 191.94 913.16M176.98,889.89A 18.36283925 18.36283925 0 0 0 176.98 913.16M176.98,889.89A 8.554615323 8.554615323 0 0 0 176.98 881.58" />
<circle id="cv_469" class="ZW" cx="184.46" cy="877.43" r="1.661795407" />
</g>
</g>
<g class="WCWALL" id="cv_Block_WCWALL_64">
<g id="cvclr_470" stroke="#29A500" fill="none">
<path id="cv_471" class="ZW" d="M142.91,864.13h-23.27M142.91,864.13l-4.15,-7.48M119.65,864.13l4.15,-7.48" />
<path id="cv_472" class="ZW" d="M138.76,848.35A 8.554615323 8.554615323 0 0 0 138.76 856.66M138.76,848.35A 18.36283925 18.36283925 0 0 0 138.76 825.08M138.76,825.08A 8.807515657 8.807515657 0 0 0 123.8 825.08M123.8,825.08A 18.36283925 18.36283925 0 0 0 123.8 848.35M123.8,856.66A 8.554615323 8.554615323 0 0 0 123.8 848.35" />
<circle id="cv_473" class="ZW" cx="131.28" cy="860.81" r="1.661795407" />
</g>
</g>
<g class="WCWALL" id="cv_Block_WCWALL_65">
<g id="cvclr_474" stroke="#29A500" fill="none">
<path id="cv_475" class="ZW" d="M196.09,864.13h-23.27M196.09,864.13l-4.15,-7.48M172.83,864.13l4.15,-7.48" />
<path id="cv_476" class="ZW" d="M191.94,848.35A 8.554615323 8.554615323 0 0 0 191.94 856.66M191.94,848.35A 18.36283925 18.36283925 0 0 0 191.94 825.08M191.94,825.08A 8.807515657 8.807515657 0 0 0 176.98 825.08M176.98,825.08A 18.36283925 18.36283925 0 0 0 176.98 848.35M176.98,856.66A 8.554615323 8.554615323 0 0 0 176.98 848.35" />
<circle id="cv_477" class="ZW" cx="184.46" cy="860.81" r="1.661795407" />
</g>
</g>
<g class="URINAL" id="cv_Block_URINAL_66">
<g id="cvclr_478" stroke="#29A500" fill="none">
<path id="cv_479" class="ZW" d="M184.58,654.75h29.91M184.58,666.38l0,-11.63M187.91,664.72l0,1.66M197.05,673.86l-6.65,-9.14M208.68,664.72l-6.65,9.14M211.17,666.38l0,-1.66M214.49,654.75l0,11.63M209.51,663.89h-19.94" />
<path id="cv_480" class="ZW" d="M184.58,666.38A 1.661795407 1.661795407 0 1 0 187.91 666.38M190.4,664.72A 1.313763933 1.313763933 0 0 0 187.91 664.72M197.05,673.86A 4.154488517 4.154488517 0 0 0 202.03 673.86M211.17,664.72A 1.313763933 1.313763933 0 0 0 208.68 664.72M211.17,666.38A 1.661795407 1.661795407 0 1 0 214.49 666.38" />
<circle id="cv_481" class="ZW" cx="199.54" cy="658.07" r="1.661795407" />
</g>
</g>
<g class="ELEV" id="cv_Block_ELEV_67">
<g id="cvclr_482" stroke="#29A500" fill="none">
<path id="cv_483" class=" ZW" d="M498.95,550.11V659.79H638.54V550.11H498.95" />
<path id="cv_484" class="ZW" d="M638.54,659.79L498.95,550.11M498.95,659.79L638.54,550.11" />
</g>
</g>
<g class="WNH" id="cv_Block_WNH_68">
<g id="cvclr_485" stroke="#808080" fill="none">
<path id="cv_486" class="ZW" d="M390.11,256.75h-99.71M386.78,252.59h-93.06M390.11,260.9h-99.71" />
</g>
</g>
<g class="WNH" id="cv_Block_WNH_69">
<g id="cvclr_487" stroke="#808080" fill="none">
<path id="cv_488" class="ZW" d="M620.27,138.76h-99.71M616.94,134.61h-93.06M620.27,142.91h-99.71" />
</g>
</g>
<g class="WNH" id="cv_Block_WNH_70">
<g id="cvclr_489" stroke="#808080" fill="none">
<path id="cv_490" class="ZW" d="M769,138.76h-99.71M765.67,134.61h-93.06M769,142.91h-99.71" />
</g>
</g>
<g class="ELEV" id="cv_Block_ELEV_71">
<g id="cvclr_491" stroke="#29A500" fill="none">
<path id="cv_492" class=" ZW" d="M877.84,1041.95V932.27H1017.43V1041.95H877.84" />
<path id="cv_493" class="ZW" d="M1017.43,932.27L877.84,1041.95M877.84,932.27L1017.43,1041.95" />
</g>
</g>
<g class="ELEV" id="cv_Block_ELEV_72">
<g id="cvclr_494" stroke="#29A500" fill="none">
<path id="cv_495" class=" ZW" d="M1056.49,1041.95V932.27H1196.08V1041.95H1056.49" />
<path id="cv_496" class="ZW" d="M1196.08,932.27L1056.49,1041.95M1056.49,932.27L1196.08,1041.95" />
</g>
</g>
<g class="WNV" id="cv_Block_WNV_73">
<g id="cvclr_497" stroke="#808080" fill="none">
<path id="cv_498" class="ZW" d="M2432.04,877.84l0,92.23M2436.19,966.75l0,-85.58M2427.88,877.84l0,92.23" />
</g>
</g>
<g class="WNH" id="cv_Block_WNH_74">
<g id="cvclr_499" stroke="#808080" fill="none">
<path id="cv_500" class="ZW" d="M1835.87,1436.62h99.71M1839.19,1440.78h93.06M1835.87,1432.47h99.71" />
</g>
</g>
<g class="WNH" id="cv_Block_WNH_75">
<g id="cvclr_501" stroke="#808080" fill="none">
<path id="cv_502" class="ZW" d="M1270.03,1571.23h99.71M1273.35,1575.38h93.06M1270.03,1567.07h99.71" />
</g>
</g>
<g class="WNH" id="cv_Block_WNH_76">
<g id="cvclr_503" stroke="#808080" fill="none">
<path id="cv_504" class="ZW" d="M1004.14,1566.24h-99.71M1000.82,1570.4h-93.06M1004.14,1562.09h-99.71" />
</g>
</g>
<g class="WNH" id="cv_Block_WNH_77">
<g id="cvclr_505" stroke="#808080" fill="none">
<path id="cv_506" class="ZW" d="M1182.78,1571.23h-99.71M1179.46,1575.38h-93.06M1182.78,1567.07h-99.71" />
</g>
</g>
<g class="WNH" id="cv_Block_WNH_78">
<g id="cvclr_507" stroke="#808080" fill="none">
<path id="cv_508" class="ZW" d="M1448.67,1566.24h99.71M1451.99,1570.4h93.06M1448.67,1562.09h99.71" />
</g>
</g>
<g class="WNH" id="cv_Block_WNH_79">
<g id="cvclr_509" stroke="#808080" fill="none">
<path id="cv_510" class="ZW" d="M1687.14,1436.62h99.71M1690.46,1440.78h93.06M1687.14,1432.47h99.71" />
</g>
</g>
<g class="WNH" id="cv_Block_WNH_80">
<g id="cvclr_511" stroke="#808080" fill="none">
<path id="cv_512" class="ZW" d="M2066.03,1302.02h99.71M2069.35,1306.17h93.06M2066.03,1297.86h99.71" />
</g>
</g>
<g class="WNH" id="cv_Block_WNH_81">
<g id="cvclr_513" stroke="#808080" fill="none">
<path id="cv_514" class="ZW" d="M2214.76,1302.02h99.71M2218.08,1306.17h93.06M2214.76,1297.86h99.71" />
</g>
</g>
<g class="WNH" id="cv_Block_WNH_82">
<g id="cvclr_515" stroke="#808080" fill="none">
<path id="cv_516" class="ZW" d="M2382.18,1121.71l0,99.71M2386.34,1125.04l0,93.06M2378.03,1121.71l0,99.71" />
</g>
</g>
<g class="WNH" id="cv_Block_WNH_83">
<g id="cvclr_517" stroke="#808080" fill="none">
<path id="cv_518" class="ZW" d="M1835.87,155.38h99.71M1839.19,151.22h93.06M1835.87,159.53h99.71" />
</g>
</g>
<g class="ELEV" id="cv_Block_ELEV_84">
<g id="cvclr_519" stroke="#29A500" fill="none">
<path id="cv_520" class=" ZW" d="M877.84,550.11V659.79H1017.43V550.11H877.84" />
<path id="cv_521" class="ZW" d="M1017.43,659.79L877.84,550.11M877.84,659.79L1017.43,550.11" />
</g>
</g>
<g class="ELEV" id="cv_Block_ELEV_85">
<g id="cvclr_522" stroke="#29A500" fill="none">
<path id="cv_523" class=" ZW" d="M1056.49,550.11V659.79H1196.08V550.11H1056.49" />
<path id="cv_524" class="ZW" d="M1196.08,659.79L1056.49,550.11M1056.49,659.79L1196.08,550.11" />
</g>
</g>
<g class="WNH" id="cv_Block_WNH_86">
<g id="cvclr_525" stroke="#808080" fill="none">
<path id="cv_526" class="ZW" d="M1270.03,20.77h99.71M1273.35,16.62h93.06M1270.03,24.93h99.71" />
</g>
</g>
<g class="WNH" id="cv_Block_WNH_87">
<g id="cvclr_527" stroke="#808080" fill="none">
<path id="cv_528" class="ZW" d="M1004.14,25.76h-99.71M1000.82,21.6h-93.06M1004.14,29.91h-99.71" />
</g>
</g>
<g class="WNH" id="cv_Block_WNH_88">
<g id="cvclr_529" stroke="#808080" fill="none">
<path id="cv_530" class="ZW" d="M1182.78,20.77h-99.71M1179.46,16.62h-93.06M1182.78,24.93h-99.71" />
</g>
</g>
<g class="WNH" id="cv_Block_WNH_89">
<g id="cvclr_531" stroke="#808080" fill="none">
<path id="cv_532" class="ZW" d="M1448.67,25.76h99.71M1451.99,21.6h93.06M1448.67,29.91h99.71" />
</g>
</g>
<g class="WNH" id="cv_Block_WNH_90">
<g id="cvclr_533" stroke="#808080" fill="none">
<path id="cv_534" class="ZW" d="M1687.14,155.38h99.71M1690.46,151.22h93.06M1687.14,159.53h99.71" />
</g>
</g>
<g class="WNV" id="cv_Block_WNV_91">
<g id="cvclr_535" stroke="#808080" fill="none">
<path id="cv_536" class="ZW" d="M2432.04,714.16l0,-92.23M2436.19,625.25l0,85.58M2427.88,714.16l0,-92.23" />
</g>
</g>
<g class="WNV" id="cv_Block_WNV_92">
<g id="cvclr_537" stroke="#808080" fill="none">
<path id="cv_538" class="ZW" d="M2432.04,842.11l0,-92.23M2436.19,753.21l0,85.58M2427.88,842.11l0,-92.23" />
</g>
</g>
<g class="WNV" id="cv_Block_WNV_93">
<g id="cvclr_539" stroke="#808080" fill="none">
<path id="cv_540" class="ZW" d="M2432.04,749.89l0,92.23M2436.19,838.79l0,-85.58M2427.88,749.89l0,92.23" />
</g>
</g>
<g class="WNH" id="cv_Block_WNH_94">
<g id="cvclr_541" stroke="#808080" fill="none">
<path id="cv_542" class="ZW" d="M2382.18,470.29l0,-99.71M2386.34,466.96l0,-93.06M2378.03,470.29l0,-99.71" />
</g>
</g>
<g class="WNH" id="cv_Block_WNH_95">
<g id="cvclr_543" stroke="#808080" fill="none">
<path id="cv_544" class="ZW" d="M2066.03,289.98h99.71M2069.35,285.83h93.06M2066.03,294.14h99.71" />
</g>
</g>
<g class="WNH" id="cv_Block_WNH_96">
<g id="cvclr_545" stroke="#808080" fill="none">
<path id="cv_546" class="ZW" d="M2214.76,289.98h99.71M2218.08,285.83h93.06M2214.76,294.14h99.71" />
</g>
</g>
</g>
</g></svg>