<?xml version="1.0" encoding="utf-8" ?>
<!-- Generated by AutoXChange V24.01.109c  64-bit from Tailor Made Software -->
<!-- www.tailormade.com and www.cadviewer.com -->
<!DOCTYPE svg PUBLIC '-//W3C//DTD SVG 1.0//EN' 
'http://www.w3.org/TR/2001/REC-SVG-20010904/DTD/svg10.dtd'>
<svg id="tmsSVG58" contentScriptType="text/ecmascript" xmlns:xlink="http://www.w3.org/1999/xlink" zoomAndPan="magnify" 
contentStyleType="text/css" preserveAspectRatio="xMidYMid meet" 
width="2463.99" height="2166" viewBox="0 0 2463.99 2166" 
version="1.1" xmlns="http://www.w3.org/2000/svg" xmlns:cvjs="http://www.tailormade.com/" stroke-linecap="butt" stroke-linejoin="round" fill-rule="evenodd" >
<defs>
	<style id="cv_styles" type = "text/css">
	    <![CDATA[
	   #tmsSVG58 { background-color: white; opacity: 1.}
		:root {
		    --tmsLineWeightScale: 1;
		    --tmsMinLineWidth: 0.6;
		    --tmsCalcMinLineWeight: calc(var(--tmsMinLineWidth)*var(--tmsLineWeightScale));
		    --tmsMinDashLength: 0.6;
		    --tmsHLWidth: 0.6;
		    --tmsNumberOfLayouts: 1;
		    --tmsNumberOfSVGViewports: 0;
         --tmsMinFixedLineWidth: 0.6;
         --tmsCalcFixedLineWidth:  calc(var(--tmsMinFixedLineWidth)*var(--tmsLineWeightScale));
		    --tmsbPostFix: 0;
		}
		.tmsPoints {
		    fill: none;
		    stroke-width: var(--tmsCalcFixedLineWidth);
		    r: calc(var(--tmsCalcFixedLineWidth)/2.0);
		}
		.ZWhl {
		    stroke-width: var(--tmsHLWidth);
		}
		.ZW {
		    stroke-width: calc(var(--tmsCalcMinLineWeight)*2);
		}
		.ZW6 {
		    stroke-width: calc(var(--tmsCalcMinLineWeight)*6);
		}
		.ZW10 {
		    stroke-width: calc(var(--tmsCalcMinLineWeight)*10);
		}
		.ZW20 {
		    stroke-width: calc(var(--tmsCalcMinLineWeight)*20);
		}
		.ZW100 {
		    stroke-width: calc(var(--tmsCalcMinLineWeight)*100);
		}
		.nZW {
		}
		.sLW_0_2{
		    stroke-width: calc(var(--tmsCalcFixedLineWidth)*0.333333);
		}
		.sLW_0_45{
		    stroke-width: calc(var(--tmsCalcFixedLineWidth)*0.75);
		}
		.sLW_1_0{
		    stroke-width: calc(var(--tmsCalcFixedLineWidth)*1.66667);
		}
		.sLW_2_0{
		    stroke-width: calc(var(--tmsCalcFixedLineWidth)*3.33333);
		}
		.sLW_4_0{
		    stroke-width: calc(var(--tmsCalcFixedLineWidth)*6.66667);
		}
		.sRGB_7 {
		    stroke: #000;
		    fill: none;
		}
		.fRGB_7 {
		    stroke: #000;
		    fill: #000;
		}
		.hyperlinks:hover {
		    stroke-width: 3;
		}
		.hyperimage image{
			opacity: 0;
		}
		.hyperimage:hover image{
			opacity: 1;
		}
		.hyperimage:hover path{
			stroke-width: 3;
		}
		.hyperimage:visited{
			color: red;
		}
		.sLt_DGN1 {
		    stroke-dasharray: calc(var(--tmsMinDashLength)*4) calc(var(--tmsMinDashLength)*24.065682);
		}
		.sLt_DGN2 {
		    stroke-dasharray: calc(var(--tmsMinDashLength)*16.043788) calc(var(--tmsMinDashLength)*16.043788);
		}
		.sLt_DGN3 {
		    stroke-dasharray: calc(var(--tmsMinDashLength)*32.087577) calc(var(--tmsMinDashLength)*16.043788);
		}
		.sLt_DGN4 {
		    stroke-dasharray: calc(var(--tmsMinDashLength)*32.087577) calc(var(--tmsMinDashLength)*16.043788) calc(var(--tmsMinDashLength)*4) calc(var(--tmsMinDashLength)*16.043788);
		}
		.sLt_DGN5 {
		    stroke-dasharray: calc(var(--tmsMinDashLength)*8.021894) calc(var(--tmsMinDashLength)*16.043788);
		}
		.sLt_DGN6 {
		    stroke-dasharray: calc(var(--tmsMinDashLength)*4) calc(var(--tmsMinDashLength)*12.032841) calc(var(--tmsMinDashLength)*24.065682) calc(var(--tmsMinDashLength)*12.032841) calc(var(--tmsMinDashLength)*4) calc(var(--tmsMinDashLength)*12.032841);
		}
		.sLt_DGN7 {
		    stroke-dasharray: calc(var(--tmsMinDashLength)*32.087577) calc(var(--tmsMinDashLength)*12.032841) calc(var(--tmsMinDashLength)*8.021894) calc(var(--tmsMinDashLength)*12.032841);
		}
	]]></style>
	</defs>
<metadata>
<text id="cadviewer_Used_Colors">[7]</text>
<text id="cadviewer_worldUnits">
{ "globalOrigin": { "x": 537.460250, "y" : 496.393539}, 
						"units": "ft",
						"measurementType": "English",
						"lengthType": "Decimal",
						"lengthPrecision": 2,
						"blockUnitsFormat": "Feet",
						"svgToWorldUnits": 0.006650,
						"worldToSVGUnits": 150.384499
}
</text>
<text id="cadviewer_drawingCoordinates">
{ "DWG": 
    { "lowerLeft": { "x": 537.460250, "y" : 496.393539}, 
      "upperRight": { "x": 553.844879, "y" : 511.206250} 
    },
 "SVG": 
    { "lowerLeft": { "x": 18.002869, "y" : 2166.000000}, 
      "upperRight": { "x": 2481.997131, "y" : 0.000000} 
    },
 "Drawing Height": 2166
}
</text>
<text id="cadviewer_vqBuilding"></text>
<text id="cadviewer_vqFloor"></text>
<text id="cadviewer_multiPages">
{ "multiPages": 3, 
                   "currentPage":1,
                   "pages" : [
                        { "fileName":"F8c7d8f4e4bf65d0113fcc78282d865c59c2c9bb6.svg", "pageName":"ModelSpace"},
                        { "fileName":"F8c7d8f4e4bf65d0113fcc78282d865c59c2c9bb6_Layout_Layout1.svg", "pageName":"Layout1"},
                        { "fileName":"F8c7d8f4e4bf65d0113fcc78282d865c59c2c9bb6_Layout_Layout2.svg", "pageName":"Layout2"}
                   ]
}
</text>
</metadata>
<g id="cv_main_drawing">
<g id="layer_Level_20_1" class="layer_Level_20_1"  cvjs:layerName="Level 1" cvjs:plottable="YES"
 cvjs:status="ON" visibility="visible">
<g id="cvclr_1" class="sRGB_7" >
<path id="cv_2" class=" ZW" d="M9.33,609.51h1.33l2,-0.67l0.67,-0.67l0.67,-1.33v-1.33l-0.67,-1.33l-0.67,-0.67l-2,-0.67h-10.66M0,598.85l13.99,-3.33l-13.99,-3.33l13.99,-3.33l-13.99,-3.33M11.99,582.19l1.33,-1.33l0.67,-2v-2.67l-0.67,-2l-1.33,-1.33h-2l-1.33,0.67l-0.67,0.67l-0.67,1.33l-1.33,4l-0.67,1.33l-0.67,0.67l-1.33,0.67h-1.33l-1.33,-1.33l-0.67,-2v-2.67l0.67,-2l1.33,-1.33M27.64,568.21l-1.33,0.67l-0.67,2v1.33l0.67,2l2,1.33l3.33,0.67h3.33l2.67,-0.67l1.33,-1.33l0.67,-2v-0.67l-0.67,-2l-1.33,-1.33l-2,-0.67h-0.67l-2,0.67l-1.33,1.33l-0.67,2v0.67l0.67,2l1.33,1.33l2,0.67M39.64,539.56h-13.99l9.33,6.66v-9.99M28.98,514.91h-0.67l-1.33,-0.67l-0.67,-0.67l-0.67,-1.33v-2.67l0.67,-1.33l0.67,-0.67l1.33,-0.67h1.33l1.33,0.67l2,1.33l6.66,6.66v-9.33M39.64,496.92l-0.67,-2l-2,-1.33l-3.33,-0.67h-2l-3.33,0.67l-2,1.33l-0.67,2v1.33l0.67,2l2,1.33l3.33,0.67h2l3.33,-0.67l2,-1.33l0.67,-2v-1.33M65.28,566.6v-2.67l-0.67,-2l-0.67,-0.67l-1.33,-0.67h-2l-1.33,0.67l-1.33,1.33l-0.67,2l-0.67,2.67l-0.67,1.33l-1.33,0.67h-1.33l-1.33,-0.67l-0.67,-2v-2.67l0.67,-2l1.33,-0.67h1.33l1.33,0.67l0.67,1.33l0.67,2.67l0.67,2l1.33,1.33l1.33,0.67h2l1.33,-0.67l0.67,-0.67l0.67,-2M54.62,555.94h-0.67l-1.33,-0.67l-0.67,-0.67l-0.67,-1.33v-2.67l0.67,-1.33l0.67,-0.67l1.33,-0.67h1.33l1.33,0.67l2,1.33l6.66,6.66v-9.33M63.28,542.61l1.33,-0.67l0.67,-2v-1.33l-0.67,-2l-2,-1.33l-3.33,-0.67h-3.33l-2.67,0.67l-1.33,1.33l-0.67,2v0.67l0.67,2l1.33,1.33l2,0.67h0.67l2,-0.67l1.33,-1.33l0.67,-2v-0.67l-0.67,-2l-1.33,-1.33l-2,-0.67M63.28,529.29l1.33,-0.67l0.67,-2v-1.33l-0.67,-2l-2,-1.33l-3.33,-0.67h-3.33l-2.67,0.67l-1.33,1.33l-0.67,2v0.67l0.67,2l1.33,1.33l2,0.67h0.67l2,-0.67l1.33,-1.33l0.67,-2v-0.67l-0.67,-2l-1.33,-1.33l-2,-0.67M63.28,515.96l1.33,-0.67l0.67,-2v-1.33l-0.67,-2l-2,-1.33l-3.33,-0.67h-3.33l-2.67,0.67l-1.33,1.33l-0.67,2v0.67l0.67,2l1.33,1.33l2,0.67h0.67l2,-0.67l1.33,-1.33l0.67,-2v-0.67l-0.67,-2l-1.33,-1.33l-2,-0.67M105.91,569.27h-0.67l-1.33,-0.67l-0.67,-0.67l-0.67,-1.33v-2.67l0.67,-1.33l0.67,-0.67l1.33,-0.67h1.33l1.33,0.67l2,1.33l6.66,6.66v-9.33M105.91,555.94h-0.67l-1.33,-0.67l-0.67,-0.67l-0.67,-1.33v-2.67l0.67,-1.33l0.67,-0.67l1.33,-0.67h1.33l1.33,0.67l2,1.33l6.66,6.66v-9.33M105.91,542.61h-0.67l-1.33,-0.67l-0.67,-0.67l-0.67,-1.33v-2.67l0.67,-1.33l0.67,-0.67l1.33,-0.67h1.33l1.33,0.67l2,1.33l6.66,6.66v-9.33M116.57,527.29l-13.99,-6.66v9.33M104.58,507.97l-1.33,0.67l-0.67,2v1.33l0.67,2l2,1.33l3.33,0.67h3.33l2.67,-0.67l1.33,-1.33l0.67,-2v-0.67l-0.67,-2l-1.33,-1.33l-2,-0.67h-0.67l-2,0.67l-1.33,1.33l-0.67,2v0.67l0.67,2l1.33,1.33l2,0.67M134.56,619.41l13.99,-3.33l-13.99,-3.33l13.99,-3.33l-13.99,-3.33M148.56,602.08h-13.99v-6l0.67,-2l0.67,-0.67l1.33,-0.67h1.33l1.33,0.67l0.67,0.67l0.67,2v6M148.56,579.43v8.66h-13.99v-8.66M145.23,566.1l1.33,0.67l1.33,1.33l0.67,1.33v2.67l-0.67,1.33l-1.33,1.33l-1.33,0.67l-2,0.67h-3.33l-2,-0.67l-1.33,-0.67l-1.33,-1.33l-0.67,-1.33v-2.67l0.67,-1.33l1.33,-1.33l1.33,-0.67M148.56,535.45l-13.99,-5.33l13.99,-5.33M148.56,521.46h-13.99l13.99,-9.33h-13.99M148.56,506.8h-13.99v-4.66l0.67,-2l1.33,-1.33l1.33,-0.67l2,-0.67h3.33l2,0.67l1.33,0.67l1.33,1.33l0.67,2v4.66M169.55,631.96h-13.99v-6l0.67,-2l0.67,-0.67l1.33,-0.67h1.33l1.33,0.67l0.67,0.67l0.67,2v6M169.55,609.3v8.66h-13.99v-8.66M169.55,605.31h-13.99v-6l0.67,-2l0.67,-0.67l1.33,-0.67h1.33l1.33,0.67l0.67,0.67l0.67,2l0.67,-2l0.67,-0.67l1.33,-0.67h2l1.33,0.67l0.67,0.67l0.67,2v6M155.55,591.31h9.99l2,-0.67l1.33,-1.33l0.67,-2v-1.33l-0.67,-2l-1.33,-1.33l-2,-0.67h-9.99M155.55,571.32h13.99v-8M169.55,560h-13.99v-4.66l0.67,-2l1.33,-1.33l1.33,-0.67l2,-0.67h3.33l2,0.67l1.33,0.67l1.33,1.33l0.67,2v4.66M167.55,532.68l1.33,-1.33l0.67,-2v-2.67l-0.67,-2l-1.33,-1.33h-2l-1.33,0.67l-0.67,0.67l-0.67,1.33l-1.33,4l-0.67,1.33l-0.67,0.67l-1.33,0.67h-1.33l-1.33,-1.33l-0.67,-2v-2.67l0.67,-2l1.33,-1.33M155.55,518.69h9.99l2,-0.67l1.33,-1.33l0.67,-2v-1.33l-0.67,-2l-1.33,-1.33l-2,-0.67h-9.99M169.55,504.03h-13.99v-6l0.67,-2l0.67,-0.67l1.33,-0.67h1.33l1.33,0.67l0.67,0.67l0.67,2l0.67,-2l0.67,-0.67l1.33,-0.67h2l1.33,0.67l0.67,0.67l0.67,2v6" />
<path id="cv_3" class=" nZW sLW_2_0" d="M1385.74,84.61l1.33,-0.67l2,-2v13.99M1399.06,84.61l1.33,-0.67l2,-2v13.99M1410.39,93.27l0.67,1.33l0.67,0.67l2,0.67h2l2,-0.67l1.33,-1.33l0.67,-2v-1.33l-0.67,-2l-1.33,-1.33l-2,-0.67h-2l-2,0.67l-0.67,0.67l0.67,-6h6.66M1433.71,81.94l5.33,13.99l5.33,-13.99M1461.7,81.94v13.99h8M1478.35,95.93v-13.99l9.33,13.99v-13.99M1501.68,95.93h-8.66v-13.99h8.66M1519,93.27l0.67,1.33l0.67,0.67l2,0.67h2l2,-0.67l1.33,-1.33l0.67,-2v-1.33l-0.67,-2l-1.33,-1.33l-2,-0.67h-2l-2,0.67l-0.67,0.67l0.67,-6h6.66M1540.99,83.94l-0.67,-1.33l-2,-0.67h-1.33l-2,0.67l-1.33,2l-0.67,3.33v3.33l0.67,2.67l1.33,1.33l2,0.67h0.67l2,-0.67l1.33,-1.33l0.67,-2v-0.67l-0.67,-2l-1.33,-1.33l-2,-0.67h-0.67l-2,0.67l-1.33,1.33l-0.67,2M1398.4,116.92l-1.33,-0.67l-1.33,-1.33l-0.67,-1.33l-0.67,-2v-3.33l0.67,-2l0.67,-1.33l1.33,-1.33l1.33,-0.67h2.67l1.33,0.67l1.33,1.33l0.67,1.33l0.67,2v3.33l-0.67,2l-0.67,1.33l-1.33,1.33l-1.33,0.67h-2.67M1423.72,116.92v-13.99h6l2,0.67l0.67,0.67l0.67,1.33v1.33l-0.67,1.33l-0.67,0.67l-2,0.67l2,0.67l0.67,0.67l0.67,1.33v2l-0.67,1.33l-0.67,0.67l-2,0.67h-6M1441.04,116.92l-1.33,-0.67l-1.33,-1.33l-0.67,-1.33l-0.67,-2v-3.33l0.67,-2l0.67,-1.33l1.33,-1.33l1.33,-0.67h2.67l1.33,0.67l1.33,1.33l0.67,1.33l0.67,2v3.33l-0.67,2l-0.67,1.33l-1.33,1.33l-1.33,0.67h-2.67M1450.37,102.93l5.33,6.66l5.33,-6.66M1483.69,116.92v-13.99l9.33,13.99v-13.99M1497.68,114.92l1.33,1.33l2,0.67h2.67l2,-0.67l1.33,-1.33v-2l-0.67,-1.33l-0.67,-0.67l-1.33,-0.67l-4,-1.33l-1.33,-0.67l-0.67,-0.67l-0.67,-1.33v-1.33l1.33,-1.33l2,-0.67h2.67l2,0.67l1.33,1.33" />
<path id="cv_4" class=" ZW" d="M807.77,85.44l2.67,9.33l2.67,-9.33l2.67,9.33l2.67,-9.33M823.09,88.1l2,-2l1.33,-0.67h2l1.33,0.67l0.67,2v6.66M835.75,80.11l0.67,0.67l-0.67,0.67l-0.67,-0.67l0.67,-0.67M841.08,87.44l1.33,-1.33l1.33,-0.67h2l1.33,0.67l1.33,1.33l0.67,2v1.33l-0.67,2l-1.33,1.33l-1.33,0.67h-2l-1.33,-0.67l-1.33,-1.33" />
<path id="cv_5" class=" nZW sLW_2_0" d="M846.96,65.33l1,2l1,1l3,1h3l3,-1l2,-2l1,-3v-2l-1,-3l-2,-2l-3,-1h-3l-3,1l-1,1l1,-9h9.99M879.94,51.34l-1,-2l-3,-1h-2l-3,1l-2,3l-1,5v5l1,4l2,2l3,1h1l3,-1l2,-2l1,-3v-1l-1,-3l-2,-2l-3,-1h-1l-3,1l-2,2l-1,3M890.94,69.33l9.99,-20.99h-13.99M907.93,66.33l1,2l3,1h2l3,-1l2,-3l1,-5v-5l-1,-4l-2,-2l-3,-1h-1l-3,1l-2,2l-1,3v1l1,3l2,2l3,1h1l3,-1l2,-2l1,-3" />
<path id="cv_6" class=" ZW" d="M1214.88,85.44l2.67,9.33l2.67,-9.33l2.67,9.33l2.67,-9.33M1230.21,88.1l2,-2l1.33,-0.67h2l1.33,0.67l0.67,2v6.66M1242.87,80.11l0.67,0.67l-0.67,0.67l-0.67,-0.67l0.67,-0.67M1248.2,87.44l1.33,-1.33l1.33,-0.67h2l1.33,0.67l1.33,1.33l0.67,2v1.33l-0.67,2l-1.33,1.33l-1.33,0.67h-2l-1.33,-0.67l-1.33,-1.33" />
<path id="cv_7" class=" nZW sLW_2_0" d="M1152.18,65.33l1,2l1,1l3,1h3l3,-1l2,-2l1,-3v-2l-1,-3l-2,-2l-3,-1h-3l-3,1l-1,1l1,-9h9.99M1185.16,51.34l-1,-2l-3,-1h-2l-3,1l-2,3l-1,5v5l1,4l2,2l3,1h1l3,-1l2,-2l1,-3v-1l-1,-3l-2,-2l-3,-1h-1l-3,1l-2,2l-1,3M1196.16,69.33l9.99,-20.99h-13.99M1225.14,51.34l-1,-2l-3,-1h-2l-3,1l-2,3l-1,5v5l1,4l2,2l3,1h1l3,-1l2,-2l1,-3v-1l-1,-3l-2,-2l-3,-1h-1l-3,1l-2,2l-1,3M972.31,301.02l2,-1l3,-3v20.99M993.29,318.01l9.99,-20.99h-13.99M1019.28,318.01v-20.99l-9.99,13.99h14.99" />
<path id="cv_8" class=" ZW" d="M958.61,328.34v-0.67l0.67,-1.33l0.67,-0.67l1.33,-0.67h2.67l1.33,0.67l0.67,0.67l0.67,1.33v1.33l-0.67,1.33l-1.33,2l-6.66,6.66h9.33M976.6,339l2,-0.67l1.33,-2l0.67,-3.33v-2l-0.67,-3.33l-1.33,-2l-2,-0.67h-1.33l-2,0.67l-1.33,2l-0.67,3.33v2l0.67,3.33l1.33,2l2,0.67h1.33M989.93,339l2,-0.67l1.33,-2l0.67,-3.33v-2l-0.67,-3.33l-1.33,-2l-2,-0.67h-1.33l-2,0.67l-1.33,2l-0.67,3.33v2l0.67,3.33l1.33,2l2,0.67h1.33M1003.25,339l2,-0.67l1.33,-2l0.67,-3.33v-2l-0.67,-3.33l-1.33,-2l-2,-0.67h-1.33l-2,0.67l-1.33,2l-0.67,3.33v2l0.67,3.33l1.33,2l2,0.67h1.33M1009.91,339l5.33,-13.99l5.33,13.99M1016.93,199.07l5.33,-13.99l5.33,13.99M1044.92,199.07v-13.99h6l2,0.67l0.67,0.67l0.67,1.33v1.33l-0.67,1.33l-0.67,0.67l-2,0.67l2,0.67l0.67,0.67l0.67,1.33v2l-0.67,1.33l-0.67,0.67l-2,0.67h-6M1068.24,195.74l-0.67,1.33l-1.33,1.33l-1.33,0.67h-2.67l-1.33,-0.67l-1.33,-1.33l-0.67,-1.33l-0.67,-2v-3.33l0.67,-2l0.67,-1.33l1.33,-1.33l1.33,-0.67h2.67l1.33,0.67l1.33,1.33l0.67,1.33M1085.71,877.71v-0.16l-1.98,-13.47l-0.4,-1.19l-0.44,-1.14l-0.41,-0.97l-0.44,-0.93l-0.4,-0.78l-0.42,-0.74l-0.43,-0.71l-0.45,-0.67l-0.46,-0.63l-0.41,-0.5l-0.42,-0.47l-0.43,-0.44l-0.43,-0.41l-0.44,-0.38l-0.45,-0.34l-0.45,-0.31l-0.46,-0.27l-0.46,-0.24l-0.47,-0.2l-0.47,-0.17l-0.47,-0.13l-0.48,-0.1l-0.4,-0.05l-0.4,-0.03l-0.4,-0l-0.4,0.02l-0.4,0.05l-0.48,0.09l-0.48,0.13l-0.47,0.16l-0.47,0.2l-0.47,0.23l-0.46,0.27l-0.46,0.3l-0.45,0.34l-0.44,0.37l-0.44,0.4l-0.43,0.44l-0.42,0.47l-0.41,0.5l-0.4,0.53l-0.45,0.65l-0.44,0.69l-0.42,0.73l-0.41,0.77l-0.44,0.92l-0.42,0.96l-0.44,1.13l-0.41,1.18l-0.09,0.27l-1.98,13.63M1060.27,877.71v-0.16l-1.98,-13.47l-0.4,-1.19l-0.44,-1.14l-0.41,-0.97l-0.44,-0.93l-0.4,-0.78l-0.42,-0.74l-0.43,-0.71l-0.45,-0.67l-0.46,-0.63l-0.41,-0.5l-0.42,-0.47l-0.43,-0.44l-0.43,-0.41l-0.44,-0.38l-0.45,-0.34l-0.45,-0.31l-0.46,-0.27l-0.46,-0.24l-0.47,-0.2l-0.47,-0.17l-0.47,-0.13l-0.48,-0.1l-0.4,-0.05l-0.4,-0.03l-0.4,-0l-0.4,0.02l-0.4,0.05l-0.48,0.09l-0.48,0.13l-0.47,0.16l-0.47,0.2l-0.47,0.23l-0.46,0.27l-0.46,0.3l-0.45,0.34l-0.44,0.37l-0.44,0.4l-0.43,0.44l-0.42,0.47l-0.41,0.5l-0.4,0.53l-0.45,0.65l-0.44,0.69l-0.42,0.73l-0.41,0.77l-0.44,0.92l-0.42,0.96l-0.44,1.13l-0.41,1.18l-0.09,0.27l-1.98,13.63M1034.83,877.71v-0.16l-1.98,-13.47l-0.4,-1.19l-0.44,-1.14l-0.41,-0.97l-0.44,-0.93l-0.4,-0.78l-0.42,-0.74l-0.43,-0.71l-0.45,-0.67l-0.46,-0.63l-0.41,-0.5l-0.42,-0.47l-0.43,-0.44l-0.43,-0.41l-0.44,-0.38l-0.45,-0.34l-0.45,-0.31l-0.46,-0.27l-0.46,-0.24l-0.47,-0.2l-0.47,-0.17l-0.47,-0.13l-0.48,-0.1l-0.4,-0.05l-0.4,-0.03l-0.4,-0l-0.4,0.02l-0.4,0.05l-0.48,0.09l-0.48,0.13l-0.47,0.16l-0.47,0.2l-0.47,0.23l-0.46,0.27l-0.46,0.3l-0.45,0.34l-0.44,0.37l-0.44,0.4l-0.43,0.44l-0.42,0.47l-0.41,0.5l-0.4,0.53l-0.45,0.65l-0.44,0.69l-0.42,0.73l-0.41,0.77l-0.44,0.92l-0.42,0.96l-0.44,1.13l-0.41,1.18l-0.09,0.27l-1.98,13.63M1009.39,877.71v-0.16l-1.98,-13.47l-0.4,-1.19l-0.44,-1.14l-0.41,-0.97l-0.44,-0.93l-0.4,-0.78l-0.42,-0.74l-0.43,-0.71l-0.45,-0.67l-0.46,-0.63l-0.41,-0.5l-0.42,-0.47l-0.43,-0.44l-0.43,-0.41l-0.44,-0.38l-0.45,-0.34l-0.45,-0.31l-0.46,-0.27l-0.46,-0.24l-0.47,-0.2l-0.47,-0.17l-0.47,-0.13l-0.48,-0.1l-0.4,-0.05l-0.4,-0.03l-0.4,-0l-0.4,0.02l-0.4,0.05l-0.48,0.09l-0.48,0.13l-0.47,0.16l-0.47,0.2l-0.47,0.23l-0.46,0.27l-0.46,0.3l-0.45,0.34l-0.44,0.37l-0.44,0.4l-0.43,0.44l-0.42,0.47l-0.41,0.5l-0.4,0.53l-0.45,0.65l-0.44,0.69l-0.42,0.73l-0.41,0.77l-0.44,0.92l-0.42,0.96l-0.44,1.13l-0.41,1.18l-0.09,0.27l-1.98,13.63M1060.27,814.11v0.16l1.98,13.47l0.4,1.19l0.44,1.14l0.41,0.97l0.44,0.93l0.4,0.78l0.42,0.74l0.43,0.71l0.45,0.67l0.46,0.63l0.41,0.5l0.42,0.47l0.43,0.44l0.43,0.41l0.44,0.38l0.45,0.34l0.45,0.31l0.46,0.27l0.46,0.24l0.47,0.2l0.47,0.17l0.47,0.13l0.48,0.1l0.4,0.05l0.4,0.03l0.4,0l0.4,-0.02l0.4,-0.05l0.48,-0.09l0.48,-0.13l0.47,-0.16l0.47,-0.2l0.47,-0.23l0.46,-0.27l0.46,-0.3l0.45,-0.34l0.44,-0.37l0.44,-0.4l0.43,-0.44l0.42,-0.47l0.41,-0.5l0.4,-0.53l0.45,-0.65l0.44,-0.69l0.42,-0.73l0.41,-0.77l0.44,-0.92l0.42,-0.96l0.44,-1.13l0.41,-1.18l0.09,-0.27l1.98,-13.63M1034.83,814.11v0.16l1.98,13.47l0.4,1.19l0.44,1.14l0.41,0.97l0.44,0.93l0.4,0.78l0.42,0.74l0.43,0.71l0.45,0.67l0.46,0.63l0.41,0.5l0.42,0.47l0.43,0.44l0.43,0.41l0.44,0.38l0.45,0.34l0.45,0.31l0.46,0.27l0.46,0.24l0.47,0.2l0.47,0.17l0.47,0.13l0.48,0.1l0.4,0.05l0.4,0.03l0.4,0l0.4,-0.02l0.4,-0.05l0.48,-0.09l0.48,-0.13l0.47,-0.16l0.47,-0.2l0.47,-0.23l0.46,-0.27l0.46,-0.3l0.45,-0.34l0.44,-0.37l0.44,-0.4l0.43,-0.44l0.42,-0.47l0.41,-0.5l0.4,-0.53l0.45,-0.65l0.44,-0.69l0.42,-0.73l0.41,-0.77l0.44,-0.92l0.42,-0.96l0.44,-1.13l0.41,-1.18l0.09,-0.27l1.98,-13.63M1009.39,814.11v0.16l1.98,13.47l0.4,1.19l0.44,1.14l0.41,0.97l0.44,0.93l0.4,0.78l0.42,0.74l0.43,0.71l0.45,0.67l0.46,0.63l0.41,0.5l0.42,0.47l0.43,0.44l0.43,0.41l0.44,0.38l0.45,0.34l0.45,0.31l0.46,0.27l0.46,0.24l0.47,0.2l0.47,0.17l0.47,0.13l0.48,0.1l0.4,0.05l0.4,0.03l0.4,0l0.4,-0.02l0.4,-0.05l0.48,-0.09l0.48,-0.13l0.47,-0.16l0.47,-0.2l0.47,-0.23l0.46,-0.27l0.46,-0.3l0.45,-0.34l0.44,-0.37l0.44,-0.4l0.43,-0.44l0.42,-0.47l0.41,-0.5l0.4,-0.53l0.45,-0.65l0.44,-0.69l0.42,-0.73l0.41,-0.77l0.44,-0.92l0.42,-0.96l0.44,-1.13l0.41,-1.18l0.09,-0.27l1.98,-13.63M983.95,814.11v0.16l1.98,13.47l0.4,1.19l0.44,1.14l0.41,0.97l0.44,0.93l0.4,0.78l0.42,0.74l0.43,0.71l0.45,0.67l0.46,0.63l0.41,0.5l0.42,0.47l0.43,0.44l0.43,0.41l0.44,0.38l0.45,0.34l0.45,0.31l0.46,0.27l0.46,0.24l0.47,0.2l0.47,0.17l0.47,0.13l0.48,0.1l0.4,0.05l0.4,0.03l0.4,0l0.4,-0.02l0.4,-0.05l0.48,-0.09l0.48,-0.13l0.47,-0.16l0.47,-0.2l0.47,-0.23l0.46,-0.27l0.46,-0.3l0.45,-0.34l0.44,-0.37l0.44,-0.4l0.43,-0.44l0.42,-0.47l0.41,-0.5l0.4,-0.53l0.45,-0.65l0.44,-0.69l0.42,-0.73l0.41,-0.77l0.44,-0.92l0.42,-0.96l0.44,-1.13l0.41,-1.18l0.09,-0.27l1.98,-13.63M861.79,827.11h40.73l-20.37,-35.27l-20.37,35.27M880.72,787.66v-13.99h6l2,0.67l0.67,0.67l0.67,1.33v1.33l-0.67,1.33l-0.67,0.67l-2,0.67l2,0.67l0.67,0.67l0.67,1.33v2l-0.67,1.33l-0.67,0.67l-2,0.67h-6M919.31,836.33l-0.67,1.33l-1.33,1.33l-1.33,0.67h-2.67l-1.33,-0.67l-1.33,-1.33l-0.67,-1.33l-0.67,-2v-3.33l0.67,-2l0.67,-1.33l1.33,-1.33l1.33,-0.67h2.67l1.33,0.67l1.33,1.33l0.67,1.33M850.79,839.66l5.33,-13.99l5.33,13.99M1015.62,915.87h7.33l-4,5.33h2l1.33,0.67l0.67,0.67l0.67,2v1.33l-0.67,2l-1.33,1.33l-2,0.67h-2l-2,-0.67l-0.67,-0.67l-0.67,-1.33M1057.6,918.53l1.33,-0.67l2,-2v13.99M1069.59,919.2v-0.67l0.67,-1.33l0.67,-0.67l1.33,-0.67h2.67l1.33,0.67l0.67,0.67l0.67,1.33v1.33l-0.67,1.33l-1.33,2l-6.66,6.66h9.33M1087.58,929.86l2,-0.67l1.33,-2l0.67,-3.33v-2l-0.67,-3.33l-1.33,-2l-2,-0.67h-1.33l-2,0.67l-1.33,2l-0.67,3.33v2l0.67,3.33l1.33,2l2,0.67h1.33M1100.91,929.86l2,-0.67l1.33,-2l0.67,-3.33v-2l-0.67,-3.33l-1.33,-2l-2,-0.67h-1.33l-2,0.67l-1.33,2l-0.67,3.33v2l0.67,3.33l1.33,2l2,0.67h1.33M1123.56,927.2l0.67,1.33l0.67,0.67l2,0.67h2l2,-0.67l1.33,-1.33l0.67,-2v-1.33l-0.67,-2l-1.33,-1.33l-2,-0.67h-2l-2,0.67l-0.67,0.67l0.67,-6h6.66M856.13,875.49l-1.33,-1.33l-1.33,-0.67h-2l-1.33,0.67l-1.33,1.33l-0.67,2v1.33l0.67,2l1.33,1.33l1.33,0.67h2l1.33,-0.67l1.33,-1.33M905.11,900.89l-1.33,-1.33l-1.33,-0.67h-2l-1.33,0.67l-1.33,1.33l-0.67,2v1.33l0.67,2l1.33,1.33l1.33,0.67h2l1.33,-0.67l1.33,-1.33M897.78,847.09l1.33,-1.33l1.33,-0.67h2l1.33,0.67l1.33,1.33l0.67,2v1.33l-0.67,2l-1.33,1.33l-1.33,0.67h-2l-1.33,-0.67l-1.33,-1.33M1128.3,805.48v-13.99h6l2,0.67l0.67,0.67l0.67,1.33v1.33l-0.67,1.33l-0.67,0.67l-2,0.67h-6M1140.29,805.48l5.33,-13.99l5.33,13.99M1154.28,805.48v-13.99l9.33,13.99v-13.99M1168.27,803.49l1.33,1.33l2,0.67h2.67l2,-0.67l1.33,-1.33v-2l-0.67,-1.33l-0.67,-0.67l-1.33,-0.67l-4,-1.33l-1.33,-0.67l-0.67,-0.67l-0.67,-1.33v-1.33l1.33,-1.33l2,-0.67h2.67l2,0.67l1.33,1.33M1182.27,805.48v-13.99h8.66M1197.59,805.48l-1.33,-0.67l-1.33,-1.33l-0.67,-1.33l-0.67,-2v-3.33l0.67,-2l0.67,-1.33l1.33,-1.33l1.33,-0.67h2.67l1.33,0.67l1.33,1.33l0.67,1.33l0.67,2v3.33l-0.67,2l-0.67,1.33l-1.33,1.33l-1.33,0.67h-2.67M1208.92,805.48v-13.99h6l2,0.67l0.67,0.67l0.67,1.33v1.33l-0.67,1.33l-0.67,0.67l-2,0.67h-6M1222.91,805.48v-13.99l5.33,13.99l5.33,-13.99v13.99M1247.56,805.48h-8.66v-13.99h8.66M1251.56,805.48v-13.99h6l2,0.67l0.67,0.67l0.67,1.33v1.33l-0.67,1.33l-0.67,0.67l-2,0.67h-6M1279.55,805.48v-13.99l9.33,13.99v-13.99M1297.54,805.48l-1.33,-0.67l-1.33,-1.33l-0.67,-1.33l-0.67,-2v-3.33l0.67,-2l0.67,-1.33l1.33,-1.33l1.33,-0.67h2.67l1.33,0.67l1.33,1.33l0.67,1.33l0.67,2v3.33l-0.67,2l-0.67,1.33l-1.33,1.33l-1.33,0.67h-2.67M1309.53,805.48l0.67,-0.67l-0.67,-0.67l-0.67,0.67l0.67,0.67M1330.85,794.16l1.33,-0.67l2,-2v13.99M1116.97,825.36l0.67,1.33l0.67,0.67l2,0.67h2l2,-0.67l1.33,-1.33l0.67,-2v-1.33l-0.67,-2l-1.33,-1.33l-2,-0.67h-2l-2,0.67l-0.67,0.67l0.67,-6h6.66M1131.63,828.03l0.67,-0.67l-0.67,-0.67l-0.67,0.67l0.67,0.67M1145.62,816.03l-0.67,-1.33l-2,-0.67h-1.33l-2,0.67l-1.33,2l-0.67,3.33v3.33l0.67,2.67l1.33,1.33l2,0.67h0.67l2,-0.67l1.33,-1.33l0.67,-2v-0.67l-0.67,-2l-1.33,-1.33l-2,-0.67h-0.67l-2,0.67l-1.33,1.33l-0.67,2M1167.61,828.03l6.66,-13.99h-9.33M1192.93,828.03v-13.99l5.33,13.99l5.33,-13.99v13.99M1206.92,814.04l5.33,13.99l5.33,-13.99M1218.91,828.03l5.33,-13.99l5.33,13.99M1258.23,826.03l-0.67,0.67l-1.33,0.67l-2,0.67h-2l-2,-0.67l-1.33,-0.67l-1.33,-1.33l-0.67,-1.33l-0.67,-2v-2l0.67,-2l0.67,-1.33l1.33,-1.33l1.33,-0.67l2,-0.67h2l2,0.67l1.33,0.67l1.33,1.33l0.67,1.33l0.67,2v1.33l-0.67,2l-1.33,1.33h-1.33l-0.67,-0.67v-1.33l0.67,-5.33M1256.89,824.7l-1.33,-0.67v-1.33l0.67,-5.33M1255.56,822.7l-0.67,1.33l-1.33,0.67h-2l-1.33,-0.67l-0.67,-1.33v-2l0.67,-2l0.67,-0.67l1.33,-0.67h2l1.33,0.67l0.67,1.33M1252.23,817.37l-1.33,1.33l-0.67,2v2l0.67,1.33l0.67,0.67M1286.88,816.03l-0.67,-1.33l-2,-0.67h-1.33l-2,0.67l-1.33,2l-0.67,3.33v3.33l0.67,2.67l1.33,1.33l2,0.67h0.67l2,-0.67l1.33,-1.33l0.67,-2v-0.67l-0.67,-2l-1.33,-1.33l-2,-0.67h-0.67l-2,0.67l-1.33,1.33l-0.67,2M1291.54,825.36l0.67,1.33l0.67,0.67l2,0.67h2l2,-0.67l1.33,-1.33l0.67,-2v-1.33l-0.67,-2l-1.33,-1.33l-2,-0.67h-2l-2,0.67l-0.67,0.67l0.67,-6h6.66M1391.06,1049.41h-38.19v12.73h38.19v-12.73M1170.15,1027.5l28.96,24.84l8.28,-9.65l-28.98,-24.84l-8.27,9.65" />
<path id="cv_9" class=" nZW sLW_2_0" d="M2037.62,1450.97l-1.24,-0.67l-1.15,-1.33l-0.48,-1.33l-0.39,-2l0.47,-3.33l0.95,-2l0.85,-1.33l1.52,-1.33l1.43,-0.67h2.67l1.24,0.67l1.15,1.33l0.48,1.33l0.39,2l-0.47,3.33l-0.95,2l-0.85,1.33l-1.52,1.33l-1.43,0.67h-2.67M2049.98,1443.64l1.52,-1.33l1.43,-0.67h2l1.24,0.67l1.15,1.33l0.39,2l-0.19,1.33l-0.95,2l-1.52,1.33l-1.43,0.67h-2l-1.24,-0.67l-1.15,-1.33M2069.22,1448.97l-1.52,1.33l-1.43,0.67h-2l-1.24,-0.67l-1.15,-1.33l-0.39,-2l0.19,-1.33l0.95,-2l1.52,-1.33l1.43,-0.67h2l1.24,0.67l0.57,0.67l0.48,1.33l-0.19,1.33h-8M2074.35,1445.64l0.95,-2l1.52,-1.33l1.43,-0.67h2M2090.62,1443.64l-1.15,-1.33l-1.24,-0.67h-2l-1.43,0.67l-1.52,1.33l-0.95,2l-0.19,1.33l0.39,2l1.15,1.33l1.24,0.67h2l1.43,-0.67l1.52,-1.33M2097.56,1436.97l-1.59,11.33l0.39,2l1.24,0.67h1.33M2104.98,1436.31l0.57,0.67l-0.76,0.67l-0.57,-0.67l0.76,-0.67M2109.19,1444.3l2.28,-2l1.43,-0.67h2l1.24,0.67l0.39,2l-0.94,6.66M2121.68,1454.96l1.24,0.67h2l1.43,-0.67l0.76,-0.67l0.95,-2l1.5,-10.66M2129.27,1443.64l-1.15,-1.33l-1.24,-0.67h-2l-1.43,0.67l-1.52,1.33l-0.95,2l-0.19,1.33l0.39,2l1.15,1.33l1.24,0.67h2l1.43,-0.67l1.52,-1.33M2150.89,1450.97l-1.24,-0.67l-1.15,-1.33l-0.48,-1.33l-0.39,-2l0.47,-3.33l0.95,-2l0.85,-1.33l1.52,-1.33l1.43,-0.67h2.67l1.24,0.67l1.15,1.33l0.48,1.33l0.39,2l-0.47,3.33l-0.95,2l-0.85,1.33l-1.52,1.33l-1.43,0.67h-2.67M2163.16,1444.3l2.28,-2l1.43,-0.67h2l1.24,0.67l0.39,2l-0.94,6.66M2182.49,1448.97l-1.52,1.33l-1.43,0.67h-2l-1.24,-0.67l-1.15,-1.33l-0.39,-2l0.19,-1.33l0.95,-2l1.52,-1.33l1.43,-0.67h2l1.24,0.67l0.57,0.67l0.48,1.33l-0.19,1.33h-8M2202.83,1436.97l-1.97,13.99h8M2214.25,1436.31l0.57,0.67l-0.76,0.67l-0.57,-0.67l0.76,-0.67M2218.46,1444.3l2.28,-2l1.43,-0.67h2l1.24,0.67l0.39,2l-0.94,6.66M2237.79,1448.97l-1.52,1.33l-1.43,0.67h-2l-1.24,-0.67l-1.15,-1.33l-0.39,-2l0.19,-1.33l0.95,-2l1.52,-1.33l1.43,-0.67h2l1.24,0.67l0.57,0.67l0.48,1.33l-0.19,1.33h-8M2256.17,1450.97l1.97,-13.99h4.66l1.91,0.67l1.15,1.33l0.48,1.33l0.39,2l-0.47,3.33l-0.95,2l-0.85,1.33l-1.52,1.33l-2.09,0.67h-4.66M2272.22,1436.31l0.57,0.67l-0.76,0.67l-0.57,-0.67l0.76,-0.67M2283.85,1443.64l-1.15,-1.33l-1.24,-0.67h-2l-1.43,0.67l-1.52,1.33l-0.95,2l-0.19,1.33l0.39,2l1.15,1.33l1.24,0.67h2l1.43,-0.67l1.52,-1.33M2288.92,1454.96l1.24,0.67h2l1.43,-0.67l0.76,-0.67l0.95,-2l1.5,-10.66M2296.51,1443.64l-1.15,-1.33l-1.24,-0.67h-2l-1.43,0.67l-1.52,1.33l-0.95,2l-0.19,1.33l0.39,2l1.15,1.33l1.24,0.67h2l1.43,-0.67l1.52,-1.33M2301.56,1445.64l0.95,-2l1.52,-1.33l1.43,-0.67h2M2317.83,1443.64l-1.15,-1.33l-1.24,-0.67h-2l-1.43,0.67l-1.52,1.33l-0.95,2l-0.19,1.33l0.39,2l1.15,1.33l1.24,0.67h2l1.43,-0.67l1.52,-1.33M2323.07,1444.3l2.28,-2l1.43,-0.67h2l1.24,0.67l0.39,2l-0.94,6.66M2330.4,1444.3l2.28,-2l1.43,-0.67h2l1.24,0.67l0.39,2l-0.94,6.66" />
<path id="cv_10" class=" ZW" d="M16.29,1195.7h-15.26v-5.09l0.73,-2.18l1.45,-1.45l1.45,-0.73l2.18,-0.73h3.63l2.18,0.73l1.45,0.73l1.45,1.45l0.73,2.18v5.09M16.29,1180.43h-15.26l15.26,-5.82l-15.26,-5.82h15.26M11.2,1164.44h1.45l2.18,-0.73l0.73,-0.73l0.73,-1.45v-1.45l-0.73,-1.45l-0.73,-0.73l-2.18,-0.73h-11.63M15.75,1304.74h-15.26v-5.09l0.73,-2.18l1.45,-1.45l1.45,-0.73l2.18,-0.73h3.63l2.18,0.73l1.45,0.73l1.45,1.45l0.73,2.18v5.09M15.75,1289.48h-15.26v-9.45M15.75,1276.39h-15.26v-6.54l0.73,-2.18l0.73,-0.73l1.45,-0.73h2.18l1.45,0.73l0.73,0.73l0.73,2.18v6.54M41.12,1280.76l-0.73,-2.18l-2.18,-1.45l-3.63,-0.73h-2.18l-3.63,0.73l-2.18,1.45l-0.73,2.18v1.45l0.73,2.18l2.18,1.45l3.63,0.73h2.18l3.63,-0.73l2.18,-1.45l0.73,-2.18v-1.45M28.77,1269.86l-0.73,-1.45l-2.18,-2.18h15.26M41.12,1232.79l-0.73,-2.18l-2.18,-1.45l-3.63,-0.73h-2.18l-3.63,0.73l-2.18,1.45l-0.73,2.18v1.45l0.73,2.18l2.18,1.45l3.63,0.73h2.18l3.63,-0.73l2.18,-1.45l0.73,-2.18v-1.45M29.49,1223.34h-0.73l-1.45,-0.73l-0.73,-0.73l-0.73,-1.45v-2.91l0.73,-1.45l0.73,-0.73l1.45,-0.73h1.45l1.45,0.73l2.18,1.45l7.27,7.27v-10.18M41.12,1184.81l-0.73,-2.18l-2.18,-1.45l-3.63,-0.73h-2.18l-3.63,0.73l-2.18,1.45l-0.73,2.18v1.45l0.73,2.18l2.18,1.45l3.63,0.73h2.18l3.63,-0.73l2.18,-1.45l0.73,-2.18v-1.45M41.12,1172.46v-2.91l-0.73,-2.18l-0.73,-0.73l-1.45,-0.73h-2.18l-1.45,0.73l-1.45,1.45l-0.73,2.18l-0.73,2.91l-0.73,1.45l-1.45,0.73h-1.45l-1.45,-0.73l-0.73,-2.18v-2.91l0.73,-2.18l1.45,-0.73h1.45l1.45,0.73l0.73,1.45l0.73,2.91l0.73,2.18l1.45,1.45l1.45,0.73h2.18l1.45,-0.73l0.73,-0.73l0.73,-2.18M1.84,976.06l10.99,-2.62l-10.99,-2.62l10.99,-2.62l-10.99,-2.62M4.46,955.13l-1.05,0.52l-1.05,1.05l-0.52,1.05v2.09l0.52,1.05l1.05,1.05l1.05,0.52l1.57,0.52h2.62l1.57,-0.52l1.05,-0.52l1.05,-1.05l0.52,-1.05v-2.09l-0.52,-1.05l-1.05,-1.05l-1.05,-0.52h-1.57v2.62M40.62,1048.86l-10.99,-5.23v7.33M32.25,1026.36h-0.52l-1.05,-0.52l-0.52,-0.52l-0.52,-1.05v-2.09l0.52,-1.05l0.52,-0.52l1.05,-0.52h1.05l1.05,0.52l1.57,1.05l5.23,5.23v-7.33M39.05,1015.89l1.05,-0.52l0.52,-1.57v-1.05l-0.52,-1.57l-1.57,-1.05l-2.62,-0.52h-2.62l-2.09,0.52l-1.05,1.05l-0.52,1.57v0.52l0.52,1.57l1.05,1.05l1.57,0.52h0.52l1.57,-0.52l1.05,-1.05l0.52,-1.57v-0.52l-0.52,-1.57l-1.05,-1.05l-1.57,-0.52M29.63,991.29v-5.76l4.19,3.14v-1.57l0.52,-1.05l0.52,-0.52l1.57,-0.52h1.05l1.57,0.52l1.05,1.05l0.52,1.57v1.57l-0.52,1.57l-0.52,0.52l-1.05,0.52M40.62,977.69l-0.52,-1.57l-1.57,-1.05l-2.62,-0.52h-1.57l-2.62,0.52l-1.57,1.05l-0.52,1.57v1.05l0.52,1.57l1.57,1.05l2.62,0.52h1.57l2.62,-0.52l1.57,-1.05l0.52,-1.57v-1.05M31.72,969.84l-0.52,-1.05l-1.57,-1.57h10.99M29.63,959.89v-5.76l4.19,3.14v-1.57l0.52,-1.05l0.52,-0.52l1.57,-0.52h1.05l1.57,0.52l1.05,1.05l0.52,1.57v1.57l-0.52,1.57l-0.52,0.52l-1.05,0.52M138.79,1091.11l-10.99,-4.19l10.99,-4.19M138.79,1080.12h-10.99v-3.66l0.52,-1.57l1.05,-1.05l1.05,-0.52l1.57,-0.52h2.62l1.57,0.52l1.05,0.52l1.05,1.05l0.52,1.57v3.66M138.79,1069.13h-10.99v-3.66l0.52,-1.57l1.05,-1.05l1.05,-0.52l1.57,-0.52h2.62l1.57,0.52l1.05,0.52l1.05,1.05l0.52,1.57v3.66M138.79,1047.15h-10.99l10.99,-7.33h-10.99M138.79,1028.83v6.8h-10.99v-6.8M127.8,1026.74l10.99,-2.62l-10.99,-2.62l10.99,-2.62l-10.99,-2.62M136.18,994.81l1.05,0.52l1.05,1.05l0.52,1.05v2.09l-0.52,1.05l-1.05,1.05l-1.05,0.52l-1.57,0.52h-2.62l-1.57,-0.52l-1.05,-0.52l-1.05,-1.05l-0.52,-1.05v-2.09l0.52,-1.05l1.05,-1.05l1.05,-0.52M138.79,988.53l-0.52,1.05l-1.05,1.05l-1.05,0.52l-1.57,0.52h-2.62l-1.57,-0.52l-1.05,-0.52l-1.05,-1.05l-0.52,-1.05v-2.09l0.52,-1.05l1.05,-1.05l1.05,-0.52l1.57,-0.52h2.62l1.57,0.52l1.05,0.52l1.05,1.05l0.52,1.05v2.09M138.79,979.63h-10.99l10.99,-7.33h-10.99M138.79,968.12h-10.99v-3.66l0.52,-1.57l1.05,-1.05l1.05,-0.52l1.57,-0.52h2.62l1.57,0.52l1.05,0.52l1.05,1.05l0.52,1.57v3.66M137.22,946.66l1.05,-1.05l0.52,-1.57v-2.09l-0.52,-1.57l-1.05,-1.05h-1.57l-1.05,0.52l-0.52,0.52l-0.52,1.05l-1.05,3.14l-0.52,1.05l-0.52,0.52l-1.05,0.52h-1.05l-1.05,-1.05l-0.52,-1.57v-2.09l0.52,-1.57l1.05,-1.05M136.18,928.35l1.05,0.52l1.05,1.05l0.52,1.05v2.09l-0.52,1.05l-1.05,1.05l-1.05,0.52l-1.57,0.52h-2.62l-1.57,-0.52l-1.05,-0.52l-1.05,-1.05l-0.52,-1.05v-2.09l0.52,-1.05l1.05,-1.05l1.05,-0.52M164.26,1098.68l-10.99,-4.19l10.99,-4.19M164.26,1087.69h-10.99v-3.66l0.52,-1.57l1.05,-1.05l1.05,-0.52l1.57,-0.52h2.62l1.57,0.52l1.05,0.52l1.05,1.05l0.52,1.57v3.66M164.26,1076.7h-10.99v-3.66l0.52,-1.57l1.05,-1.05l1.05,-0.52l1.57,-0.52h2.62l1.57,0.52l1.05,0.52l1.05,1.05l0.52,1.57v3.66M167.92,1051.05l-1.05,1.05l-1.57,1.05l-2.09,1.05l-2.62,0.52h-2.09l-2.62,-0.52l-2.09,-1.05l-1.57,-1.05l-1.05,-1.05M162.69,1047.39l1.05,-0.52l0.52,-1.57v-1.05l-0.52,-1.57l-1.57,-1.05l-2.62,-0.52h-2.62l-2.09,0.52l-1.05,1.05l-0.52,1.57v0.52l0.52,1.57l1.05,1.05l1.57,0.52h0.52l1.57,-0.52l1.05,-1.05l0.52,-1.57v-0.52l-0.52,-1.57l-1.05,-1.05l-1.57,-0.52M162.69,1036.92l1.05,-0.52l0.52,-1.57v-1.05l-0.52,-1.57l-1.57,-1.05l-2.62,-0.52h-2.62l-2.09,0.52l-1.05,1.05l-0.52,1.57v0.52l0.52,1.57l1.05,1.05l1.57,0.52h0.52l1.57,-0.52l1.05,-1.05l0.52,-1.57v-0.52l-0.52,-1.57l-1.05,-1.05l-1.57,-0.52M167.92,1026.98l-1.05,-1.05l-1.57,-1.05l-2.09,-1.05l-2.62,-0.52h-2.09l-2.62,0.52l-2.09,1.05l-1.57,1.05l-1.05,1.05M164.26,997.15l-0.52,1.05l-1.05,1.05l-1.05,0.52l-1.57,0.52h-2.62l-1.57,-0.52l-1.05,-0.52l-1.05,-1.05l-0.52,-1.05v-2.09l0.52,-1.05l1.05,-1.05l1.05,-0.52l1.57,-0.52h2.62l1.57,0.52l1.05,0.52l1.05,1.05l0.52,1.05v2.09M164.26,974.64l-0.52,1.05l-1.05,1.05l-1.05,0.52l-1.57,0.52h-2.62l-1.57,-0.52l-1.05,-0.52l-1.05,-1.05l-0.52,-1.05v-2.09l0.52,-1.05l1.05,-1.05l1.05,-0.52l1.57,-0.52h2.62l1.57,0.52l1.05,0.52l1.05,1.05l0.52,1.05v2.09M164.26,965.75h-10.99l10.99,-7.33h-10.99M164.26,947.43v6.8h-10.99v-6.8M153.27,944.29h10.99v-6.28M164.26,931.21h-10.99l10.99,-7.33h-10.99M164.26,912.89v6.8h-10.99v-6.8M11.27,725.75l1.05,-1.05l0.52,-1.57v-2.09l-0.52,-1.57l-1.05,-1.05h-1.57l-1.05,0.52l-0.52,0.52l-0.52,1.05l-1.05,3.14l-0.52,1.05l-0.52,0.52l-1.05,0.52h-1.05l-1.05,-1.05l-0.52,-1.57v-2.09l0.52,-1.57l1.05,-1.05M12.84,714.76h-10.99v-4.71l0.52,-1.57l0.52,-0.52l1.05,-0.52h1.57l1.05,0.52l0.52,0.52l0.52,1.57v4.71M35.58,815.25l1.05,-0.52l0.52,-0.52l0.52,-1.57v-1.57l-0.52,-1.57l-1.05,-1.05l-1.57,-0.52h-1.05l-1.57,0.52l-1.05,1.05l-0.52,1.57v1.57l0.52,1.57l0.52,0.52l-4.71,-0.52v-5.23M28.78,791.7l-0.52,-1.05l-1.57,-1.57h10.99M37.68,780.71l-10.99,-5.23v7.33M28.78,759.25l-0.52,-1.05l-1.57,-1.57h10.99M28.26,743.55l-1.05,0.52l-0.52,1.57v1.05l0.52,1.57l1.57,1.05l2.62,0.52h2.62l2.09,-0.52l1.05,-1.05l0.52,-1.57v-0.52l-0.52,-1.57l-1.05,-1.05l-1.57,-0.52h-0.52l-1.57,0.52l-1.05,1.05l-0.52,1.57v0.52l0.52,1.57l1.05,1.05l1.57,0.52M1063.12,466.05l-24.84,28.96l9.65,8.28l24.84,-28.98l-9.65,-8.27M1492.84,1106.68h0.16l13.47,-1.98l1.19,-0.4l1.14,-0.44l0.97,-0.41l0.93,-0.44l0.78,-0.4l0.74,-0.42l0.71,-0.43l0.67,-0.45l0.63,-0.46l0.5,-0.41l0.47,-0.42l0.44,-0.43l0.41,-0.43l0.38,-0.44l0.34,-0.45l0.31,-0.45l0.27,-0.46l0.24,-0.46l0.2,-0.47l0.17,-0.47l0.13,-0.47l0.1,-0.48l0.05,-0.4l0.03,-0.4l0,-0.4l-0.02,-0.4l-0.05,-0.4l-0.09,-0.48l-0.13,-0.48l-0.16,-0.47l-0.2,-0.47l-0.23,-0.47l-0.27,-0.46l-0.3,-0.46l-0.34,-0.45l-0.37,-0.44l-0.4,-0.44l-0.44,-0.43l-0.47,-0.42l-0.5,-0.41l-0.53,-0.4l-0.65,-0.45l-0.69,-0.44l-0.73,-0.42l-0.77,-0.41l-0.92,-0.44l-0.96,-0.42l-1.13,-0.44l-1.18,-0.41l-0.27,-0.09l-13.63,-1.98M1492.84,1081.23h0.16l13.47,-1.98l1.19,-0.4l1.14,-0.44l0.97,-0.41l0.93,-0.44l0.78,-0.4l0.74,-0.42l0.71,-0.43l0.67,-0.45l0.63,-0.46l0.5,-0.41l0.47,-0.42l0.44,-0.43l0.41,-0.43l0.38,-0.44l0.34,-0.45l0.31,-0.45l0.27,-0.46l0.24,-0.46l0.2,-0.47l0.17,-0.47l0.13,-0.47l0.1,-0.48l0.05,-0.4l0.03,-0.4l0,-0.4l-0.02,-0.4l-0.05,-0.4l-0.09,-0.48l-0.13,-0.48l-0.16,-0.47l-0.2,-0.47l-0.23,-0.47l-0.27,-0.46l-0.3,-0.46l-0.34,-0.45l-0.37,-0.44l-0.4,-0.44l-0.44,-0.43l-0.47,-0.42l-0.5,-0.41l-0.53,-0.4l-0.65,-0.45l-0.69,-0.44l-0.73,-0.42l-0.77,-0.41l-0.92,-0.44l-0.96,-0.42l-1.13,-0.44l-1.18,-0.41l-0.27,-0.09l-13.63,-1.98M1492.84,1055.79h0.16l13.47,-1.98l1.19,-0.4l1.14,-0.44l0.97,-0.41l0.93,-0.44l0.78,-0.4l0.74,-0.42l0.71,-0.43l0.67,-0.45l0.63,-0.46l0.5,-0.41l0.47,-0.42l0.44,-0.43l0.41,-0.43l0.38,-0.44l0.34,-0.45l0.31,-0.45l0.27,-0.46l0.24,-0.46l0.2,-0.47l0.17,-0.47l0.13,-0.47l0.1,-0.48l0.05,-0.4l0.03,-0.4l0,-0.4l-0.02,-0.4l-0.05,-0.4l-0.09,-0.48l-0.13,-0.48l-0.16,-0.47l-0.2,-0.47l-0.23,-0.47l-0.27,-0.46l-0.3,-0.46l-0.34,-0.45l-0.37,-0.44l-0.4,-0.44l-0.44,-0.43l-0.47,-0.42l-0.5,-0.41l-0.53,-0.4l-0.65,-0.45l-0.69,-0.44l-0.73,-0.42l-0.77,-0.41l-0.92,-0.44l-0.96,-0.42l-1.13,-0.44l-1.18,-0.41l-0.27,-0.09l-13.63,-1.98M1492.84,1030.35h0.16l13.47,-1.98l1.19,-0.4l1.14,-0.44l0.97,-0.41l0.93,-0.44l0.78,-0.4l0.74,-0.42l0.71,-0.43l0.67,-0.45l0.63,-0.46l0.5,-0.41l0.47,-0.42l0.44,-0.43l0.41,-0.43l0.38,-0.44l0.34,-0.45l0.31,-0.45l0.27,-0.46l0.24,-0.46l0.2,-0.47l0.17,-0.47l0.13,-0.47l0.1,-0.48l0.05,-0.4l0.03,-0.4l0,-0.4l-0.02,-0.4l-0.05,-0.4l-0.09,-0.48l-0.13,-0.48l-0.16,-0.47l-0.2,-0.47l-0.23,-0.47l-0.27,-0.46l-0.3,-0.46l-0.34,-0.45l-0.37,-0.44l-0.4,-0.44l-0.44,-0.43l-0.47,-0.42l-0.5,-0.41l-0.53,-0.4l-0.65,-0.45l-0.69,-0.44l-0.73,-0.42l-0.77,-0.41l-0.92,-0.44l-0.96,-0.42l-1.13,-0.44l-1.18,-0.41l-0.27,-0.09l-13.63,-1.98M1556.45,1081.23h-0.16l-13.47,1.98l-1.19,0.4l-1.14,0.44l-0.97,0.41l-0.93,0.44l-0.78,0.4l-0.74,0.42l-0.71,0.43l-0.67,0.45l-0.63,0.46l-0.5,0.41l-0.47,0.42l-0.44,0.43l-0.41,0.43l-0.38,0.44l-0.34,0.45l-0.31,0.45l-0.27,0.46l-0.24,0.46l-0.2,0.47l-0.17,0.47l-0.13,0.47l-0.1,0.48l-0.05,0.4l-0.03,0.4l-0,0.4l0.02,0.4l0.05,0.4l0.09,0.48l0.13,0.48l0.16,0.47l0.2,0.47l0.23,0.47l0.27,0.46l0.3,0.46l0.34,0.45l0.37,0.44l0.4,0.44l0.44,0.43l0.47,0.42l0.5,0.41l0.53,0.4l0.65,0.45l0.69,0.44l0.73,0.42l0.77,0.41l0.92,0.44l0.96,0.42l1.13,0.44l1.18,0.41l0.27,0.09l13.63,1.98M1556.45,1055.79h-0.16l-13.47,1.98l-1.19,0.4l-1.14,0.44l-0.97,0.41l-0.93,0.44l-0.78,0.4l-0.74,0.42l-0.71,0.43l-0.67,0.45l-0.63,0.46l-0.5,0.41l-0.47,0.42l-0.44,0.43l-0.41,0.43l-0.38,0.44l-0.34,0.45l-0.31,0.45l-0.27,0.46l-0.24,0.46l-0.2,0.47l-0.17,0.47l-0.13,0.47l-0.1,0.48l-0.05,0.4l-0.03,0.4l-0,0.4l0.02,0.4l0.05,0.4l0.09,0.48l0.13,0.48l0.16,0.47l0.2,0.47l0.23,0.47l0.27,0.46l0.3,0.46l0.34,0.45l0.37,0.44l0.4,0.44l0.44,0.43l0.47,0.42l0.5,0.41l0.53,0.4l0.65,0.45l0.69,0.44l0.73,0.42l0.77,0.41l0.92,0.44l0.96,0.42l1.13,0.44l1.18,0.41l0.27,0.09l13.63,1.98M1556.45,1030.35h-0.16l-13.47,1.98l-1.19,0.4l-1.14,0.44l-0.97,0.41l-0.93,0.44l-0.78,0.4l-0.74,0.42l-0.71,0.43l-0.67,0.45l-0.63,0.46l-0.5,0.41l-0.47,0.42l-0.44,0.43l-0.41,0.43l-0.38,0.44l-0.34,0.45l-0.31,0.45l-0.27,0.46l-0.24,0.46l-0.2,0.47l-0.17,0.47l-0.13,0.47l-0.1,0.48l-0.05,0.4l-0.03,0.4l-0,0.4l0.02,0.4l0.05,0.4l0.09,0.48l0.13,0.48l0.16,0.47l0.2,0.47l0.23,0.47l0.27,0.46l0.3,0.46l0.34,0.45l0.37,0.44l0.4,0.44l0.44,0.43l0.47,0.42l0.5,0.41l0.53,0.4l0.65,0.45l0.69,0.44l0.73,0.42l0.77,0.41l0.92,0.44l0.96,0.42l1.13,0.44l1.18,0.41l0.27,0.09l13.63,1.98M1556.45,1004.91h-0.16l-13.47,1.98l-1.19,0.4l-1.14,0.44l-0.97,0.41l-0.93,0.44l-0.78,0.4l-0.74,0.42l-0.71,0.43l-0.67,0.45l-0.63,0.46l-0.5,0.41l-0.47,0.42l-0.44,0.43l-0.41,0.43l-0.38,0.44l-0.34,0.45l-0.31,0.45l-0.27,0.46l-0.24,0.46l-0.2,0.47l-0.17,0.47l-0.13,0.47l-0.1,0.48l-0.05,0.4l-0.03,0.4l-0,0.4l0.02,0.4l0.05,0.4l0.09,0.48l0.13,0.48l0.16,0.47l0.2,0.47l0.23,0.47l0.27,0.46l0.3,0.46l0.34,0.45l0.37,0.44l0.4,0.44l0.44,0.43l0.47,0.42l0.5,0.41l0.53,0.4l0.65,0.45l0.69,0.44l0.73,0.42l0.77,0.41l0.92,0.44l0.96,0.42l1.13,0.44l1.18,0.41l0.27,0.09l13.63,1.98" />
<path id="cv_11" class="STxt ZW" d="M33.64,562.88l0,-11.99M33.64,532.23l0,-11.99M141.23,597.42l7.33,-4.66M141.23,588.09l0,-5.33M134.56,561.44h13.99M134.56,552.11l9.33,9.33M140.56,558.11l8,-6M143.89,533.45l0,-6.66M162.22,627.29l7.33,-4.66M162.22,617.97l0,-5.33M155.55,576.65h13.99M1366.34,99.37l11.93,2.39M1366.34,104.14l0,-4.77M1378.27,101.76l-11.93,2.38M1340.11,101.76h38.16M703.32,99.37l-11.93,2.39M703.32,104.14l0,-4.77M691.39,101.76l11.93,2.38M729.55,101.76h-38.16" />
<path id="cv_12" class="STxt nZW sLW_2_0" d="M1424.38,81.94l0,13.99M1431.05,86.6l-6.66,6.66M1427.05,90.6l4.66,5.33M1473.02,81.94l0,13.99M1493.01,88.6h5.33M1382.41,102.93h9.33M1387.07,102.93l0,13.99M1455.7,109.59l0,7.33M1464.36,102.93l0,13.99M1473.69,102.93l-9.33,9.33M1467.69,108.93l6,8M1478.35,102.93l0,13.99" />
<path id="cv_13" class="ZW" d="M805.9,101.76h50.88l38.16,-25.44M958.54,101.76h-50.88M875.22,78.97h8M877.22,75.64l4,6.66M877.22,82.3l4,-6.66M823.09,80.77l0,13.99M835.75,85.44l0,9.33M841.08,85.44l0,13.99M1263.76,101.76h-50.88l-38.16,-25.44M1111.12,101.76h50.88M1180.44,78.97h8M1182.44,75.64l4,6.66M1182.44,82.3l4,-6.66M1230.21,80.77l0,13.99M1242.87,85.44l0,9.33M1248.2,85.44l0,13.99M1034.83,101.76L1034.83,254.41M1111.12,101.76H958.54M805.9,101.76h-76.34M1263.76,101.76h76.34M709.88,67.68l19.68,34.08M1068.91,234.73l-34.08,19.68M1320.43,67.68l19.68,34.08" />
<path id="cv_14" class="STxt nZW sLW_2_0" d="M948.32,297.02l0,20.99M948.32,307.02h13.99M962.31,297.02l0,20.99" />
<path id="cv_15" class="ZW" d="M1034.83,407.05l0,-50.88l25.44,-38.16M1034.83,254.41l0,50.88M1011.91,334.33h6.66M1018.93,194.41h6.66M1068.91,387.38l-34.08,19.68M1071,597.94l-36.17,-31.08M1034.83,934.95h-6.36M1034.83,950.85h-6.36M1034.83,966.75h-6.36M1034.83,915.87h-6.36M1034.83,931.77h-6.36M1028.47,934.95l0,-3.18M1034.83,979.47L1034.83,877.71M1034.83,814.11L1034.83,712.34M877.3,911.62l-22.05,-12.73M862.69,917.84l-5.52,-3.18M869.99,914.72l-13.76,-7.95M882.19,877.71l-15.91,27.55M852.78,835h6.66M1120.23,913.2l-11.99,21.32M882.19,877.71l11.7,-20.27M858.78,877.71h23.41M893.89,897.98l-11.7,-20.27M856.13,873.5l0,9.33M897.78,840.42l0,13.99M1115.64,791.49h9.33M1120.3,791.49l0,13.99M1132.96,798.16l4.66,7.33M1142.29,800.82h6.66M1182.27,798.16h5.33M1213.58,798.16l4.66,7.33M1238.9,798.16h5.33M1256.23,798.16l4.66,7.33M1161.61,811.37l-11.99,21.32M1220.91,823.36h6.66M1034.83,979.47L1034.83,1132.12M971.23,1068.51l0,-25.44M958.52,1058.97l0,-6.36M964.87,1063.74l0,-15.9M971.23,1055.79h12.72M983.95,1043.07l0,25.44M996.67,1043.07l0,25.44M996.67,1055.79h38.16M990.31,1043.07l0,25.44M1034.83,1055.79h76.32M1384.68,1062.14l0,-12.73M1359.21,1062.14l0,-12.73M1391.06,1055.79h25.46M1352.86,1055.79h-25.46h-76.32M1111.15,1055.79h38.16M1251.08,1055.79h-38.16M1202.57,1038.55l-8.28,9.65M1183.25,1022l-8.28,9.65M1174.28,1022.68l-9.65,-8.28M1203.26,1047.53l9.65,8.27" />
<path id="cv_16" class="STxt nZW sLW_2_0" d="M2050.26,1441.64l-1.97,13.99M2074.91,1441.64l-1.31,9.33M2090.9,1441.64l-1.31,9.33M2094.9,1441.64h4.66M2104.23,1441.64l-1.31,9.33M2109.56,1441.64l-1.31,9.33M2163.53,1441.64l-1.31,9.33M2213.5,1441.64l-1.31,9.33M2218.83,1441.64l-1.31,9.33M2271.47,1441.64l-1.31,9.33M2284.13,1441.64l-1.31,9.33M2302.12,1441.64l-1.31,9.33M2318.11,1441.64l-1.31,9.33M2323.44,1441.64l-1.31,9.33" />
<path id="cv_17" class="STxt ZW" d="M7.76,1289.48l0,-5.82M34.58,1256.77l0,-13.08M34.58,1208.8l0,-13.08M1.84,951.46h10.99M7.08,951.46l0,-7.33M1.84,944.14h10.99M35.91,1039.97l0,-9.42M35.91,1005.42l0,-9.42M135.13,1089.54l0,-5.23M133.04,1035.63l0,-4.19M127.8,924.68h10.99M133.04,924.68l0,-7.33M127.8,917.35h10.99M160.59,1097.11l0,-5.23M153.27,1009.71l0,-7.33M153.27,1006.05h10.99M158.5,954.23l0,-4.19M153.27,935.39h10.99M158.5,919.69l0,-4.19M1.84,703.77h10.99M7.08,703.77l0,-7.33M1.84,696.44h10.99M24.59,795.89l16.75,9.42M24.59,763.44l16.75,9.42M1092.67,1021.71l-19.68,34.08M1454.09,1021.71l19.68,34.08M1416.52,1055.79h38.16M1034.83,1284.76l0,90.3M1000.75,997.96l34.08,19.68M1037.22,1401.29l-2.39,11.93M1032.45,1401.29h4.77M1034.83,1413.22l-2.38,-11.93M1034.83,1375.06l0,38.16M985.45,1240.72l49.38,18.6M1034.83,407.05l0,38.16M1034.83,546.98l0,-38.16M1052.08,498.47l-9.65,-8.28M1068.63,479.15l-9.65,-8.28M1067.94,470.18l8.28,-9.65M1043.1,499.16l-8.27,9.65M1098.43,686.9l0,-25.44M1111.14,677.36l0,-6.36M1104.79,682.13l0,-15.9M1098.43,674.18h-12.72M1085.71,661.46l0,25.44M1072.99,661.46l0,25.44M1072.99,674.18h-38.16M1079.35,661.46l0,25.44M1492.84,1055.79h-38.16M1556.45,1055.79h38.16M971.24,1297.48l0,-25.44M958.53,1287.94l0,-6.36M964.88,1292.71l0,-15.9M971.24,1284.76h12.72M983.96,1272.04l0,25.44M996.68,1272.04l0,25.44M996.68,1284.76h38.16M990.32,1272.04l0,25.44M985.45,1356.46l49.38,18.6M1071,623.23l-36.17,31.08M1034.83,1284.76l0,-50.88l25.44,-50.88M1034.83,1132.12l0,50.88M1034.83,712.34l0,-38.16M729.54,178.09h61.06M821.13,178.09H943.24M973.77,178.09H1095.89M1126.42,178.09H1248.53M1279.06,178.09h61.06M792.51,189.53l15.26,-22.9M803.95,189.53l15.26,-22.9M945.15,189.53l15.26,-22.9M956.6,189.53l15.26,-22.9M1097.8,189.53l15.26,-22.9M1109.24,189.53l15.26,-22.9M1250.44,189.53l15.26,-22.9M1261.89,189.53l15.26,-22.9" />
<path id="cv_18" class="tmsPoints" d="M970.93,1055.79h0.600000M1098.13,674.18h0.600000M970.94,1284.76h0.600000" />
<path id="cv_19" class="ZW" d="M908.53,89.37A 6.271485 6.271485 0 1 0 907.66 101.76M1162,101.76A 6.271485 6.271485 0 1 0 1161.14 89.37M1034.83,305.29A 6.271485 6.271485 0 1 0 1047.22 304.43M1034.83,950.85A 8.149013 8.149013 0 0 0 1034.83 934.95M1034.83,966.75A 8.149013 8.149013 0 0 0 1034.83 950.85M1034.83,931.77A 8.149013 8.149013 0 0 0 1034.83 915.87" />
<g class="sRGB_7" >
<circle id="cv_20" class="ZW " cx="1034.83" cy="712.34" r="4.947733" />
<circle id="cv_21" class="ZW " cx="1034.83" cy="979.47" r="4.947733" />
</g>
</g>
<g style="font-family: arial, helvetica, sans-serif" class="fRGB_7" >
<g font-size="17.630488" class="fRGB_7" >
<text id="cv_22" transform="scale(1.055556 1) translate(1240.72 828.03) " >^</text>
<text id="cv_23" transform="scale(1.055556 1) translate(1249.41 828.03) " >C</text>
<text id="cv_24" transform="scale(1.055556 1) translate(1056.29 850.57) " >OA/FA</text>
<text id="cv_25" transform="scale(1.055556 1) translate(1056.29 873.11) " >115-13.2 x 4.16kV</text>
<text id="cv_26" transform="scale(1.055556 1) translate(1056.29 895.66) " >350-110kV BIL</text>
<text id="cv_27" transform="scale(1.055556 1) translate(1035.55 1076.78) " >SMU-20, 12A-K</text>
<text id="cv_28" transform="scale(1.055556 1) translate(1023.5 1097.77) " >22.4KAIC (ASYM)</text>
<text id="cv_29" transform="scale(1.055556 1) translate(1042.13 1118.76) " >SMD-20, 200A</text>
<text id="cv_30" transform="scale(1.055556 1) translate(2057.91 1557.98) " >0460000z.dgn</text>
<text id="cv_31" transform="scale(1.055556 1) translate(1721.43 1501.28) " >9-9-94</text>
<text id="cv_32" transform="scale(1.055556 1) translate(1537.64 1501.28) " >RCD</text>
<text id="cv_33" transform="scale(1.055556 1) translate(962.78 1396.13) " >A BC</text>
<text id="cv_34" transform="scale(1.055556 1) translate(834.95 485.28) " >S&amp;C SMD-2B</text>
<text id="cv_35" transform="scale(1.055556 1) translate(900.81 506.27) " >50A-E</text>
<text id="cv_36" transform="scale(1.055556 1) translate(481.47 95.93) " >115kV LINE 56</text>
<text id="cv_37" transform="scale(1.055556 1) translate(547.34 116.92) " >TO PECAN</text>
<text id="cv_38" font-size="20.620454"  transform="scale(1.055556 1.055556) translate(13.26 366.31) rotate(270) " >JWS</text>
<text id="cv_39" font-size="20.620454"  transform="scale(1.055556 1.055556) translate(110.43 329.45) rotate(270) " >22303</text>
<text id="cv_40" font-size="20.620454"  transform="scale(1.055556 1.055556) translate(37.55 342.6) rotate(270) " >6-15-20</text>
<text id="cv_41" font-size="20.620454"  transform="scale(1.055556 1.055556) translate(61.85 342.6) rotate(270) " >94-8757</text>
<text id="cv_42" transform="scale(1.055556 1) translate(1065.92 657.86) " >90 kV MO</text>
<text id="cv_43" transform="scale(1.055556 1) translate(1065.92 678.85) " >(S)</text>
<text id="cv_44" transform="scale(1.055556 1) translate(1065.92 699.83) " >74 kV MCOV</text>
<text id="cv_45" transform="scale(1.055556 1) translate(1523.94 1039.47) " >SS1</text>
<text id="cv_46" transform="scale(1.055556 1) translate(1523.94 1060.46) " >1-50kVA</text>
<text id="cv_47" transform="scale(1.055556 1) translate(1523.94 1081.45) " >7.6-.12/.24kV</text>
<text id="cv_48" transform="scale(1.055556 1) translate(929.85 1434.21) " >CIR. 804</text>
<text id="cv_49" transform="scale(1.055556 1) translate(790.97 1268.44) " >12 kV MO</text>
<text id="cv_50" transform="scale(1.055556 1) translate(845.98 1289.43) " >(DI)</text>
<text id="cv_51" transform="scale(1.055556 1) translate(738.37 1310.41) " >10.2 kV MCOV</text>
<text id="cv_52" font-size="20.620454"  transform="scale(1.055556 1.055556) translate(130.8 375.68) rotate(270) " >R/P 115kV</text>
<text id="cv_53" font-size="20.620454"  transform="scale(1.055556 1.055556) translate(150.68 406.37) rotate(270) " >A-FRAME, H174,</text>
<text id="cv_54" font-size="20.620454"  transform="scale(1.055556 1.055556) translate(170.56 408.67) rotate(270) " >&amp; H171. I/S WT</text>
<text id="cv_55" transform="scale(1.055556 1) translate(839.33 1210.35) " >1200A L.B.</text>
<text id="cv_56" transform="scale(1.055556 1) translate(1003.17 1215.44) " >G</text>
<text id="cv_57" transform="scale(1.055556 1) translate(849.49 594.26) " >TX1WT</text>
<text id="cv_58" transform="scale(1.055556 1) translate(832.05 615.25) " >800A; A</text>
<text id="cv_59" transform="scale(1.055556 1) translate(924.21 615.25) " >`</text>
<text id="cv_60" transform="scale(1.055556 1) translate(816.61 636.24) " >115-300kHz</text>
</g>
<g font-size="24.041575" class="fRGB_7" >
<text id="cv_61" transform="scale(1.055556 1) translate(1087.5 1007.41) " >S171</text>
<text id="cv_62" transform="scale(1.055556 1) translate(896.39 1189.36) " >L174</text>
</g>
<g font-size="17.630488" class="fRGB_7" >
<text id="cv_63" transform="scale(1.055556 1) translate(2057.91 1501.28) " >MARGARETTSVILLE</text>
</g>
<g font-size="12.309286" class="fRGB_7" >
<text id="cv_64" font-size="14.396826"  transform="scale(1.055556 1.055556) translate(130.8 2052) rotate(270) " >RELOCATED</text>
<text id="cv_65" font-size="14.396826"  transform="scale(1.055556 1.055556) translate(146.23 2052) rotate(270) " >RECLOSER TO</text>
<text id="cv_66" font-size="14.396826"  transform="scale(1.055556 1.055556) translate(161.65 2052) rotate(270) " >OUTSIDE SUB</text>
</g>
<g font-size="13.847947" class="fRGB_7" >
<text id="cv_67" font-size="16.196429"  transform="scale(1.055556 1.055556) translate(110.67 822.69) rotate(270) " >ONE LINE UPDATE:</text>
<text id="cv_68" font-size="16.196429"  transform="scale(1.055556 1.055556) translate(128.02 819.25) rotate(270) " >CHANGE 80472 TO</text>
<text id="cv_69" font-size="16.196429"  transform="scale(1.055556 1.055556) translate(145.37 845.12) rotate(270) " >804R4 &amp; 80471 RATING</text>
<text id="cv_70" font-size="16.196429"  transform="scale(1.055556 1.055556) translate(162.73 772.72) rotate(270) " >TO 75N</text>
</g>
<g font-size="26.445732" class="fRGB_7" >
<text id="cv_71" transform="scale(1.055556 1) translate(888.08 464.29) " >H171</text>
</g>
</g>
<g class="CDSCH" id="cv_Block_CDSCH_1">
<g id="cvclr_72" class="sRGB_7" >
<path id="cv_73" class=" ZW" d="M1899.76,67.27v-13.99l9.33,13.99v-13.99M1917.75,67.27l-1.33,-0.67l-1.33,-1.33l-0.67,-1.33l-0.67,-2v-3.33l0.67,-2l0.67,-1.33l1.33,-1.33l1.33,-0.67h2.67l1.33,0.67l1.33,1.33l0.67,1.33l0.67,2v3.33l-0.67,2l-0.67,1.33l-1.33,1.33l-1.33,0.67h-2.67M2105.23,67.27v-13.99h4.66l2,0.67l1.33,1.33l0.67,1.33l0.67,2v3.33l-0.67,2l-0.67,1.33l-1.33,1.33l-2,0.67h-4.66M2127.88,67.27h-8.66v-13.99h8.66M2131.21,65.27l1.33,1.33l2,0.67h2.67l2,-0.67l1.33,-1.33v-2l-0.67,-1.33l-0.67,-0.67l-1.33,-0.67l-4,-1.33l-1.33,-0.67l-0.67,-0.67l-0.67,-1.33v-1.33l1.33,-1.33l2,-0.67h2.67l2,0.67l1.33,1.33M2154.53,63.94l-0.67,1.33l-1.33,1.33l-1.33,0.67h-2.67l-1.33,-0.67l-1.33,-1.33l-0.67,-1.33l-0.67,-2v-3.33l0.67,-2l0.67,-1.33l1.33,-1.33l1.33,-0.67h2.67l1.33,0.67l1.33,1.33l0.67,1.33M2159.2,67.27v-13.99h6l2,0.67l0.67,0.67l0.67,1.33v1.33l-0.67,1.33l-0.67,0.67l-2,0.67h-6M2178.52,67.27v-13.99h6l2,0.67l0.67,0.67l0.67,1.33v2l-0.67,1.33l-0.67,0.67l-2,0.67h-6M2211.84,67.27l-1.33,-0.67l-1.33,-1.33l-0.67,-1.33l-0.67,-2v-3.33l0.67,-2l0.67,-1.33l1.33,-1.33l1.33,-0.67h2.67l1.33,0.67l1.33,1.33l0.67,1.33l0.67,2v3.33l-0.67,2l-0.67,1.33l-1.33,1.33l-1.33,0.67h-2.67M2223.16,67.27v-13.99l9.33,13.99v-13.99" />
<path id="cv_74" class=" nZW sLW_2_0" d="M1979.51,24.2l1.33,1.33l2,0.67h2.67l2,-0.67l1.33,-1.33v-2l-0.67,-1.33l-0.67,-0.67l-1.33,-0.67l-4,-1.33l-1.33,-0.67l-0.67,-0.67l-0.67,-1.33v-1.33l1.33,-1.33l2,-0.67h2.67l2,0.67l1.33,1.33M1993.5,12.21v9.99l0.67,2l1.33,1.33l2,0.67h1.33l2,-0.67l1.33,-1.33l0.67,-2v-9.99M2008.16,26.2v-13.99h6l2,0.67l0.67,0.67l0.67,1.33v1.33l-0.67,1.33l-0.67,0.67l-2,0.67l2,0.67l0.67,0.67l0.67,1.33v2l-0.67,1.33l-0.67,0.67l-2,0.67h-6M2021.49,24.2l1.33,1.33l2,0.67h2.67l2,-0.67l1.33,-1.33v-2l-0.67,-1.33l-0.67,-0.67l-1.33,-0.67l-4,-1.33l-1.33,-0.67l-0.67,-0.67l-0.67,-1.33v-1.33l1.33,-1.33l2,-0.67h2.67l2,0.67l1.33,1.33M2044.14,26.2l5.33,-13.99l5.33,13.99M2077.46,26.2l-1.33,-0.67l-1.33,-1.33l-0.67,-1.33l-0.67,-2v-3.33l0.67,-2l0.67,-1.33l1.33,-1.33l1.33,-0.67h2.67l1.33,0.67l1.33,1.33l0.67,1.33l0.67,2v3.33l-0.67,2l-0.67,1.33l-1.33,1.33l-1.33,0.67h-2.67M2088.79,26.2v-13.99l9.33,13.99v-13.99M2126.76,22.87l-0.67,1.33l-1.33,1.33l-1.33,0.67h-2.67l-1.33,-0.67l-1.33,-1.33l-0.67,-1.33l-0.67,-2v-3.33l0.67,-2l0.67,-1.33l1.33,-1.33l1.33,-0.67h2.67l1.33,0.67l1.33,1.33l0.67,1.33M2134.76,26.2l-1.33,-0.67l-1.33,-1.33l-0.67,-1.33l-0.67,-2v-3.33l0.67,-2l0.67,-1.33l1.33,-1.33l1.33,-0.67h2.67l1.33,0.67l1.33,1.33l0.67,1.33l0.67,2v3.33l-0.67,2l-0.67,1.33l-1.33,1.33l-1.33,0.67h-2.67M2146.09,26.2v-13.99l9.33,13.99v-13.99M2160.75,26.2v-13.99h4.66l2,0.67l1.33,1.33l0.67,1.33l0.67,2v3.33l-0.67,2l-0.67,1.33l-1.33,1.33l-2,0.67h-4.66M2174.74,12.21v9.99l0.67,2l1.33,1.33l2,0.67h1.33l2,-0.67l1.33,-1.33l0.67,-2v-9.99M2198.73,22.87l-0.67,1.33l-1.33,1.33l-1.33,0.67h-2.67l-1.33,-0.67l-1.33,-1.33l-0.67,-1.33l-0.67,-2v-3.33l0.67,-2l0.67,-1.33l1.33,-1.33l1.33,-0.67h2.67l1.33,0.67l1.33,1.33l0.67,1.33M2217.38,26.2l-1.33,-0.67l-1.33,-1.33l-0.67,-1.33l-0.67,-2v-3.33l0.67,-2l0.67,-1.33l1.33,-1.33l1.33,-0.67h2.67l1.33,0.67l1.33,1.33l0.67,1.33l0.67,2v3.33l-0.67,2l-0.67,1.33l-1.33,1.33l-1.33,0.67h-2.67M2228.71,26.2v-13.99h6l2,0.67l0.67,0.67l0.67,1.33v1.33l-0.67,1.33l-0.67,0.67l-2,0.67h-6M2256.03,24.2l1.33,1.33l2,0.67h2.67l2,-0.67l1.33,-1.33v-2l-0.67,-1.33l-0.67,-0.67l-1.33,-0.67l-4,-1.33l-1.33,-0.67l-0.67,-0.67l-0.67,-1.33v-1.33l1.33,-1.33l2,-0.67h2.67l2,0.67l1.33,1.33M2279.35,22.87l-0.67,1.33l-1.33,1.33l-1.33,0.67h-2.67l-1.33,-0.67l-1.33,-1.33l-0.67,-1.33l-0.67,-2v-3.33l0.67,-2l0.67,-1.33l1.33,-1.33l1.33,-0.67h2.67l1.33,0.67l1.33,1.33l0.67,1.33M2307.33,26.2h-8.66v-13.99h8.66M2311.33,26.2v-13.99h4.66l2,0.67l1.33,1.33l0.67,1.33l0.67,2v3.33l-0.67,2l-0.67,1.33l-1.33,1.33l-2,0.67h-4.66M2325.32,12.21v9.99l0.67,2l1.33,1.33l2,0.67h1.33l2,-0.67l1.33,-1.33l0.67,-2v-9.99M2339.98,12.21v13.99h8M2359.97,26.2h-8.66v-13.99h8.66" />
<path id="cv_75" class="ZW" d="M1889.32,38.41H2463.99M1889.32,0l0,82.14M1928.12,82.14l0,-43.73M1889.32,0H2463.99l0,82.14M2119.22,59.94h5.33M2163.86,59.94l4.66,7.33M2173.19,53.28l0,13.99M2190.52,53.28h9.33M2195.18,53.28l0,13.99M2203.18,53.28l0,13.99" />
<path id="cv_76" class="STxt nZW sLW_2_0" d="M2033.48,12.21h9.33M2038.15,12.21l0,13.99M2046.14,21.54h6.66M2056.14,12.21h9.33M2060.8,12.21l0,13.99M2068.8,12.21l0,13.99M2201.39,12.21h9.33M2206.06,12.21l0,13.99M2233.37,18.87l4.66,7.33M2284.01,12.21l0,13.99M2284.01,18.87h9.33M2293.34,12.21l0,13.99M2298.67,18.87h5.33M2351.31,18.87h5.33" />
<path id="cv_77" class="ZW" d="M1889.32,82.14H2463.99" />
</g>
</g>
<g class="MIS010" id="cv_Block_MIS010_2">
<g id="cvclr_78" class="sRGB_7" >
<path id="cv_79" class=" ZW" d="M1034.83,98.46l-0.8,0.1l-0.81,0.32l-0.81,0.64l-0.55,0.8l-0.27,0.8l-0.06,0.8l0.14,0.81l0.38,0.81l0.74,0.81l0.8,0.47l0.8,0.21l0.81,0.01l0.8,-0.2l0.81,-0.45l0.75,-0.79l0.39,-0.8l0.16,-0.81l-0.04,-0.81l-0.25,-0.81l-0.53,-0.81l-0.8,-0.65l-0.8,-0.33l-0.8,-0.11h-0.06" />
<path id="cv_80" class=" ZW" d="M1034.83,99.13l-0.8,0.12l-0.8,0.42l-0.69,0.79l-0.3,0.8l-0.03,0.81l0.23,0.81l0.58,0.8l0.8,0.52l0.8,0.19l0.81,-0.06l0.81,-0.34l0.8,-0.8l0.34,-0.8l0.07,-0.81l-0.18,-0.8l-0.51,-0.81l-0.8,-0.59l-0.81,-0.24l-0.33,-0.02" />
<path id="cv_81" class=" ZW" d="M1034.83,99.82l-0.8,0.17l-0.8,0.67l-0.31,0.8l0.05,0.8l0.44,0.8l0.8,0.52l0.8,0.1l0.81,-0.26l0.75,-0.8l0.21,-0.8l-0.13,-0.8l-0.6,-0.8l-0.8,-0.38l-0.41,-0.04" />
<path id="cv_82" class=" ZW" d="M1034.83,100.46l-0.8,0.27l-0.48,0.8l0.11,0.8l0.8,0.69l0.8,-0.01l0.8,-0.76l0.05,-0.8l-0.6,-0.8l-0.67,-0.18" />
<path id="cv_83" class=" ZW" d="M1034.83,100.91l-0.8,0.56l0.11,0.8l0.8,0.34l0.74,-0.8l-0.45,-0.8l-0.4,-0.1M1034.83,101.29l-0.48,0.47l0.32,0.45l0.63,-0.45l-0.32,-0.45l-0.16,-0.03" />
</g>
</g>
<g class="CON99" id="cv_Block_CON99_3">
<g id="cvclr_84" class="sRGB_7" >
<path id="cv_85" class=" ZW" d="M692.03,55.42l0.61,1.21l1.82,0.61h1.21l1.82,-0.61l1.21,-1.82l0.61,-3.03v-3.03l-0.61,-2.42l-1.21,-1.21l-1.82,-0.61h-0.61l-1.82,0.61l-1.21,1.21l-0.61,1.82v0.61l0.61,1.82l1.21,1.21l1.82,0.61h0.61l1.82,-0.61l1.21,-1.21l0.61,-1.82M704.15,55.42l0.61,1.21l1.82,0.61h1.21l1.82,-0.61l1.21,-1.82l0.61,-3.03v-3.03l-0.61,-2.42l-1.21,-1.21l-1.82,-0.61h-0.61l-1.82,0.61l-1.21,1.21l-0.61,1.82v0.61l0.61,1.82l1.21,1.21l1.82,0.61h0.61l1.82,-0.61l1.21,-1.21l0.61,-1.82" />
<g class="sRGB_7" >
<circle id="cv_86" class="ZW " cx="700.18" cy="50.88" r="19.398489" />
</g>
</g>
</g>
<g class="CON99_2" id="cv_Block_CON99_2_4">
<g id="cvclr_87" class="sRGB_7" >
<path id="cv_88" class=" ZW" d="M1105.11,225.03l-0.02,-0.85l-0.06,-0.85l-0.09,-0.85l-0.13,-0.84l-0.17,-0.84l-0.2,-0.83l-0.24,-0.82l-0.28,-0.81l-0.36,-0.91l-0.4,-0.89l-0.45,-0.87l-0.49,-0.84l-0.53,-0.82l-0.65,-0.89l-0.7,-0.85l-0.74,-0.81l-0.88,-0.85l-0.83,-0.71l-0.87,-0.66l-0.81,-0.55l-0.83,-0.51l-0.86,-0.46l-0.88,-0.42l-0.9,-0.38l-0.8,-0.29l-0.81,-0.26l-0.82,-0.22l-0.83,-0.18l-0.84,-0.15l-0.85,-0.11l-0.85,-0.07l-0.85,-0.03l-0.85,0l-0.85,0.04l-0.85,0.08l-0.85,0.11l-0.84,0.15l-0.83,0.19l-0.82,0.23l-0.81,0.26l-0.8,0.3l-0.9,0.38l-0.88,0.43l-0.85,0.47l-0.83,0.51l-0.8,0.55l-0.87,0.67l-0.83,0.72l-0.87,0.85l-0.74,0.81l-0.69,0.85l-0.64,0.89l-0.53,0.82l-0.49,0.85l-0.44,0.87l-0.4,0.89l-0.35,0.91l-0.27,0.81l-0.24,0.82l-0.2,0.83l-0.16,0.84l-0.13,0.84l-0.09,0.85l-0.05,0.85l-0.01,0.85l0.02,0.85l0.06,0.85l0.1,0.85l0.14,0.84l0.17,0.84l0.21,0.83l0.25,0.82l0.28,0.81l0.36,0.9l0.41,0.88l0.45,0.86l0.5,0.84l0.54,0.81l0.65,0.88l0.7,0.84l0.75,0.8l0.88,0.84l0.84,0.71l0.88,0.66l0.81,0.54l0.84,0.5l0.86,0.46l0.88,0.42l0.9,0.37l0.8,0.29l0.82,0.25l0.83,0.21l0.83,0.18l0.84,0.14l0.85,0.1l0.85,0.07l0.85,0.03l0.85,-0.01l0.85,-0.05l0.85,-0.08l0.84,-0.12l0.84,-0.16l0.83,-0.19l0.82,-0.23l0.81,-0.27l0.8,-0.3l0.89,-0.39l0.87,-0.43l0.85,-0.48l0.83,-0.52l0.8,-0.56l0.86,-0.67l0.83,-0.72l0.87,-0.86l0.73,-0.82l0.69,-0.86l0.64,-0.89l0.52,-0.82l0.48,-0.85l0.44,-0.87l0.39,-0.89l0.31,-0.8l0.27,-0.81l0.24,-0.82l0.2,-0.83l0.16,-0.84l0.13,-0.84l0.09,-0.85l0.05,-0.85l0.01,-0.73M1077.57,229.57l0.61,1.21l1.82,0.61h1.21l1.82,-0.61l1.21,-1.82l0.61,-3.03v-3.03l-0.61,-2.42l-1.21,-1.21l-1.82,-0.61h-0.61l-1.82,0.61l-1.21,1.21l-0.61,1.82v0.61l0.61,1.82l1.21,1.21l1.82,0.61h0.61l1.82,-0.61l1.21,-1.21l0.61,-1.82M1089.68,229.57l0.61,1.21l1.82,0.61h1.21l1.82,-0.61l1.21,-1.82l0.61,-3.03v-3.03l-0.61,-2.42l-1.21,-1.21l-1.82,-0.61h-0.61l-1.82,0.61l-1.21,1.21l-0.61,1.82v0.61l0.61,1.82l1.21,1.21l1.82,0.61h0.61l1.82,-0.61l1.21,-1.21l0.61,-1.82" />
</g>
</g>
<g class="CON99_4" id="cv_Block_CON99_4_5">
<g id="cvclr_89" class="sRGB_7" >
<path id="cv_90" class=" ZW" d="M1302.59,55.42l0.61,1.21l1.82,0.61h1.21l1.82,-0.61l1.21,-1.82l0.61,-3.03v-3.03l-0.61,-2.42l-1.21,-1.21l-1.82,-0.61h-0.61l-1.82,0.61l-1.21,1.21l-0.61,1.82v0.61l0.61,1.82l1.21,1.21l1.82,0.61h0.61l1.82,-0.61l1.21,-1.21l0.61,-1.82M1314.7,55.42l0.61,1.21l1.82,0.61h1.21l1.82,-0.61l1.21,-1.82l0.61,-3.03v-3.03l-0.61,-2.42l-1.21,-1.21l-1.82,-0.61h-0.61l-1.82,0.61l-1.21,1.21l-0.61,1.82v0.61l0.61,1.82l1.21,1.21l1.82,0.61h0.61l1.82,-0.61l1.21,-1.21l0.61,-1.82" />
<g class="sRGB_7" >
<circle id="cv_91" class="ZW " cx="1310.73" cy="50.88" r="19.398489" />
</g>
</g>
</g>
<g class="MIS010_2" id="cv_Block_MIS010_2_6">
<g id="cvclr_92" class="sRGB_7" >
<path id="cv_93" class=" ZW" d="M1034.83,670.88l-0.8,0.1l-0.81,0.32l-0.81,0.64l-0.55,0.8l-0.27,0.8l-0.06,0.8l0.14,0.81l0.38,0.81l0.74,0.81l0.8,0.47l0.8,0.21l0.81,0.01l0.8,-0.2l0.81,-0.45l0.75,-0.79l0.39,-0.8l0.16,-0.81l-0.04,-0.81l-0.25,-0.81l-0.53,-0.81l-0.8,-0.65l-0.8,-0.33l-0.8,-0.11h-0.06" />
<path id="cv_94" class=" ZW" d="M1034.83,671.55l-0.8,0.12l-0.8,0.42l-0.69,0.79l-0.3,0.8l-0.03,0.81l0.23,0.81l0.58,0.8l0.8,0.52l0.8,0.19l0.81,-0.06l0.81,-0.34l0.8,-0.8l0.34,-0.8l0.07,-0.81l-0.18,-0.8l-0.51,-0.81l-0.8,-0.59l-0.81,-0.24l-0.33,-0.02" />
<path id="cv_95" class=" ZW" d="M1034.83,672.24l-0.8,0.17l-0.8,0.67l-0.31,0.8l0.05,0.8l0.44,0.8l0.8,0.52l0.8,0.1l0.81,-0.26l0.75,-0.8l0.21,-0.8l-0.13,-0.8l-0.6,-0.8l-0.8,-0.38l-0.41,-0.04" />
<path id="cv_96" class=" ZW" d="M1034.83,672.88l-0.8,0.27l-0.48,0.8l0.11,0.8l0.8,0.69l0.8,-0.01l0.8,-0.76l0.05,-0.8l-0.6,-0.8l-0.67,-0.18" />
<path id="cv_97" class=" ZW" d="M1034.83,673.33l-0.8,0.56l0.11,0.8l0.8,0.34l0.74,-0.8l-0.45,-0.8l-0.4,-0.1M1034.83,673.71l-0.48,0.47l0.32,0.45l0.63,-0.45l-0.32,-0.45l-0.16,-0.03" />
</g>
</g>
<g class="CON04" id="cv_Block_CON04_7">
<g id="cvclr_98" class="sRGB_7" >
<path id="cv_99" class=" ZW" d="M1105.11,377.68l-0.02,-0.85l-0.06,-0.85l-0.09,-0.85l-0.13,-0.84l-0.17,-0.84l-0.2,-0.83l-0.24,-0.82l-0.28,-0.81l-0.36,-0.91l-0.4,-0.89l-0.45,-0.87l-0.49,-0.84l-0.53,-0.82l-0.65,-0.89l-0.7,-0.85l-0.74,-0.81l-0.88,-0.85l-0.83,-0.71l-0.87,-0.66l-0.81,-0.55l-0.83,-0.51l-0.86,-0.46l-0.88,-0.42l-0.9,-0.38l-0.8,-0.29l-0.81,-0.26l-0.82,-0.22l-0.83,-0.18l-0.84,-0.15l-0.85,-0.11l-0.85,-0.07l-0.85,-0.03l-0.85,0l-0.85,0.04l-0.85,0.08l-0.85,0.11l-0.84,0.15l-0.83,0.19l-0.82,0.23l-0.81,0.26l-0.8,0.3l-0.9,0.38l-0.88,0.43l-0.85,0.47l-0.83,0.51l-0.8,0.55l-0.87,0.67l-0.83,0.72l-0.87,0.85l-0.74,0.81l-0.69,0.85l-0.64,0.89l-0.53,0.82l-0.49,0.85l-0.44,0.87l-0.4,0.89l-0.35,0.91l-0.27,0.81l-0.24,0.82l-0.2,0.83l-0.16,0.84l-0.13,0.84l-0.09,0.85l-0.05,0.85l-0.01,0.85l0.02,0.85l0.06,0.85l0.1,0.85l0.14,0.84l0.17,0.84l0.21,0.83l0.25,0.82l0.28,0.81l0.36,0.9l0.41,0.88l0.45,0.86l0.5,0.84l0.54,0.81l0.65,0.88l0.7,0.84l0.75,0.8l0.88,0.84l0.84,0.71l0.88,0.66l0.81,0.54l0.84,0.5l0.86,0.46l0.88,0.42l0.9,0.37l0.8,0.29l0.82,0.25l0.83,0.21l0.83,0.18l0.84,0.14l0.85,0.1l0.85,0.07l0.85,0.03l0.85,-0.01l0.85,-0.05l0.85,-0.08l0.84,-0.12l0.84,-0.16l0.83,-0.19l0.82,-0.23l0.81,-0.27l0.8,-0.3l0.89,-0.39l0.87,-0.43l0.85,-0.48l0.83,-0.52l0.8,-0.56l0.86,-0.67l0.83,-0.72l0.87,-0.86l0.73,-0.82l0.69,-0.86l0.64,-0.89l0.52,-0.82l0.48,-0.85l0.44,-0.87l0.39,-0.89l0.31,-0.8l0.27,-0.81l0.24,-0.82l0.2,-0.83l0.16,-0.84l0.13,-0.84l0.09,-0.85l0.05,-0.85l0.01,-0.73M1089.33,384.04v-12.72l-6.06,8.48h9.09" />
</g>
</g>
<g class="CON04_2" id="cv_Block_CON04_2_8">
<g id="cvclr_100" class="sRGB_7" >
<path id="cv_101" class=" ZW" d="M1066.31,610.59l0.02,0.85l0.06,0.85l0.09,0.85l0.13,0.84l0.17,0.84l0.2,0.83l0.24,0.82l0.28,0.81l0.36,0.91l0.4,0.89l0.45,0.87l0.49,0.84l0.53,0.82l0.65,0.89l0.7,0.85l0.74,0.81l0.88,0.85l0.83,0.71l0.87,0.66l0.81,0.55l0.83,0.51l0.86,0.46l0.88,0.42l0.9,0.38l0.8,0.29l0.81,0.26l0.82,0.22l0.83,0.18l0.84,0.15l0.85,0.11l0.85,0.07l0.85,0.03l0.85,-0l0.85,-0.04l0.85,-0.08l0.85,-0.11l0.84,-0.15l0.83,-0.19l0.82,-0.23l0.81,-0.26l0.8,-0.3l0.9,-0.38l0.88,-0.43l0.85,-0.47l0.83,-0.51l0.8,-0.55l0.87,-0.67l0.83,-0.72l0.87,-0.85l0.74,-0.81l0.69,-0.85l0.64,-0.89l0.53,-0.82l0.49,-0.85l0.44,-0.87l0.4,-0.89l0.35,-0.91l0.27,-0.81l0.24,-0.82l0.2,-0.83l0.16,-0.84l0.13,-0.84l0.09,-0.85l0.05,-0.85l0.01,-0.85l-0.02,-0.85l-0.06,-0.85l-0.1,-0.85l-0.14,-0.84l-0.17,-0.84l-0.21,-0.83l-0.25,-0.82l-0.28,-0.81l-0.36,-0.9l-0.41,-0.88l-0.45,-0.86l-0.5,-0.84l-0.54,-0.81l-0.65,-0.88l-0.7,-0.84l-0.75,-0.8l-0.88,-0.84l-0.84,-0.71l-0.88,-0.66l-0.81,-0.54l-0.84,-0.5l-0.86,-0.46l-0.88,-0.42l-0.9,-0.37l-0.8,-0.29l-0.82,-0.25l-0.83,-0.21l-0.83,-0.18l-0.84,-0.14l-0.85,-0.1l-0.85,-0.07l-0.85,-0.03l-0.85,0.01l-0.85,0.05l-0.85,0.08l-0.84,0.12l-0.84,0.16l-0.83,0.19l-0.82,0.23l-0.81,0.27l-0.8,0.3l-0.89,0.39l-0.87,0.43l-0.85,0.48l-0.83,0.52l-0.8,0.56l-0.86,0.67l-0.83,0.72l-0.87,0.86l-0.73,0.82l-0.69,0.86l-0.64,0.89l-0.52,0.82l-0.48,0.85l-0.44,0.87l-0.39,0.89l-0.31,0.8l-0.27,0.81l-0.24,0.82l-0.2,0.83l-0.16,0.84l-0.13,0.84l-0.09,0.85l-0.05,0.85l-0.01,0.73M1089.33,616.95v-12.72l-6.06,8.48h9.09" />
</g>
</g>
<g class="MIS010_4" id="cv_Block_MIS010_4_9">
<g id="cvclr_102" class="sRGB_7" >
<path id="cv_103" class=" ZW" d="M1034.83,1052.5l-0.8,0.1l-0.81,0.32l-0.81,0.64l-0.55,0.8l-0.27,0.8l-0.06,0.8l0.14,0.81l0.38,0.81l0.74,0.81l0.8,0.47l0.8,0.21l0.81,0.01l0.8,-0.2l0.81,-0.45l0.75,-0.79l0.39,-0.8l0.16,-0.81l-0.04,-0.81l-0.25,-0.81l-0.53,-0.81l-0.8,-0.65l-0.8,-0.33l-0.8,-0.11h-0.06" />
<path id="cv_104" class=" ZW" d="M1034.83,1053.16l-0.8,0.12l-0.8,0.42l-0.69,0.79l-0.3,0.8l-0.03,0.81l0.23,0.81l0.58,0.8l0.8,0.52l0.8,0.19l0.81,-0.06l0.81,-0.34l0.8,-0.8l0.34,-0.8l0.07,-0.81l-0.18,-0.8l-0.51,-0.81l-0.8,-0.59l-0.81,-0.24l-0.33,-0.02" />
<path id="cv_105" class=" ZW" d="M1034.83,1053.85l-0.8,0.17l-0.8,0.67l-0.31,0.8l0.05,0.8l0.44,0.8l0.8,0.52l0.8,0.1l0.81,-0.26l0.75,-0.8l0.21,-0.8l-0.13,-0.8l-0.6,-0.8l-0.8,-0.38l-0.41,-0.04" />
<path id="cv_106" class=" ZW" d="M1034.83,1054.49l-0.8,0.27l-0.48,0.8l0.11,0.8l0.8,0.69l0.8,-0.01l0.8,-0.76l0.05,-0.8l-0.6,-0.8l-0.67,-0.18" />
<path id="cv_107" class=" ZW" d="M1034.83,1054.94l-0.8,0.56l0.11,0.8l0.8,0.34l0.74,-0.8l-0.45,-0.8l-0.4,-0.1M1034.83,1055.32l-0.48,0.47l0.32,0.45l0.63,-0.45l-0.32,-0.45l-0.16,-0.03" />
</g>
</g>
<g class="CON_2D_SCH004" id="cv_Block_CON_2D_SCH004_10">
<g id="cvclr_108" class="sRGB_7" >
<path id="cv_109" class=" ZW" d="M1928.12,140.34l-0.02,-0.85l-0.06,-0.85l-0.09,-0.85l-0.13,-0.84l-0.17,-0.84l-0.2,-0.83l-0.24,-0.82l-0.28,-0.81l-0.36,-0.91l-0.4,-0.89l-0.45,-0.87l-0.49,-0.84l-0.53,-0.82l-0.65,-0.89l-0.7,-0.85l-0.74,-0.81l-0.88,-0.85l-0.83,-0.71l-0.87,-0.66l-0.81,-0.55l-0.83,-0.51l-0.86,-0.46l-0.88,-0.42l-0.9,-0.38l-0.8,-0.29l-0.81,-0.26l-0.82,-0.22l-0.83,-0.18l-0.84,-0.15l-0.85,-0.11l-0.85,-0.07l-0.85,-0.03l-0.85,0l-0.85,0.04l-0.85,0.08l-0.85,0.11l-0.84,0.15l-0.83,0.19l-0.82,0.23l-0.81,0.26l-0.8,0.3l-0.9,0.38l-0.88,0.43l-0.85,0.47l-0.83,0.51l-0.8,0.55l-0.87,0.67l-0.83,0.72l-0.87,0.85l-0.74,0.81l-0.69,0.85l-0.64,0.89l-0.53,0.82l-0.49,0.85l-0.44,0.87l-0.4,0.89l-0.35,0.91l-0.27,0.81l-0.24,0.82l-0.2,0.83l-0.16,0.84l-0.13,0.84l-0.09,0.85l-0.05,0.85l-0.01,0.85l0.02,0.85l0.06,0.85l0.1,0.85l0.14,0.84l0.17,0.84l0.21,0.83l0.25,0.82l0.28,0.81l0.36,0.9l0.41,0.88l0.45,0.86l0.5,0.84l0.54,0.81l0.65,0.88l0.7,0.84l0.75,0.8l0.88,0.84l0.84,0.71l0.88,0.66l0.81,0.54l0.84,0.5l0.86,0.46l0.88,0.42l0.9,0.37l0.8,0.29l0.82,0.25l0.83,0.21l0.83,0.18l0.84,0.14l0.85,0.1l0.85,0.07l0.85,0.03l0.85,-0.01l0.85,-0.05l0.85,-0.08l0.84,-0.12l0.84,-0.16l0.83,-0.19l0.82,-0.23l0.81,-0.27l0.8,-0.3l0.89,-0.39l0.87,-0.43l0.85,-0.48l0.83,-0.52l0.8,-0.56l0.86,-0.67l0.83,-0.72l0.87,-0.86l0.73,-0.82l0.69,-0.86l0.64,-0.89l0.52,-0.82l0.48,-0.85l0.44,-0.87l0.39,-0.89l0.31,-0.8l0.27,-0.81l0.24,-0.82l0.2,-0.83l0.16,-0.84l0.13,-0.84l0.09,-0.85l0.05,-0.85l0.01,-0.73M1912.34,146.7v-12.72l-6.06,8.48h9.09" />
<path id="cv_110" class="ZW" d="M1889.32,120.94l0,38.8M1928.12,120.94l0,38.8M2463.99,120.94l0,38.8M1889.32,159.74H2463.99" />
<g style="font-family: arial, helvetica, sans-serif" class="fRGB_7" >
<g font-size="17.630488" class="fRGB_7" >
<text id="cv_111" transform="scale(1.055556 1) translate(1840.67 145) " >1-795 AAC - "ARBUTUS"</text>
<text id="cv_112" transform="scale(1.055556 1) translate(790.96 1039.47) " >12 kV MO</text>
<text id="cv_113" transform="scale(1.055556 1) translate(859.12 1060.46) " >(S)</text>
<text id="cv_114" transform="scale(1.055556 1) translate(738.35 1081.45) " >10.2 kV MCOV</text>
<text id="cv_115" transform="scale(1.055556 1) translate(1282.16 995.77) " >BCL</text>
<text id="cv_116" transform="scale(1.055556 1) translate(1262.38 1016.76) " >8.3 kV</text>
<text id="cv_117" transform="scale(1.055556 1) translate(1282.16 1037.75) " >25K</text>
</g>
</g>
</g>
</g>
<g class="CON_2D_SCH002" id="cv_Block_CON_2D_SCH002_11">
<g id="cvclr_118" class="sRGB_7" >
<path id="cv_119" class=" ZW" d="M1928.12,101.54l-0.02,-0.85l-0.06,-0.85l-0.09,-0.85l-0.13,-0.84l-0.17,-0.84l-0.2,-0.83l-0.24,-0.82l-0.28,-0.81l-0.36,-0.91l-0.4,-0.89l-0.45,-0.87l-0.49,-0.84l-0.53,-0.82l-0.65,-0.89l-0.7,-0.85l-0.74,-0.81l-0.88,-0.85l-0.83,-0.71l-0.87,-0.66l-0.81,-0.55l-0.83,-0.51l-0.86,-0.46l-0.88,-0.42l-0.9,-0.38l-0.8,-0.29l-0.81,-0.26l-0.82,-0.22l-0.83,-0.18l-0.84,-0.15l-0.85,-0.11l-0.85,-0.07l-0.85,-0.03l-0.85,0l-0.85,0.04l-0.85,0.08l-0.85,0.11l-0.84,0.15l-0.83,0.19l-0.82,0.23l-0.81,0.26l-0.8,0.3l-0.9,0.38l-0.88,0.43l-0.85,0.47l-0.83,0.51l-0.8,0.55l-0.87,0.67l-0.83,0.72l-0.87,0.85l-0.74,0.81l-0.69,0.85l-0.64,0.89l-0.53,0.82l-0.49,0.85l-0.44,0.87l-0.4,0.89l-0.35,0.91l-0.27,0.81l-0.24,0.82l-0.2,0.83l-0.16,0.84l-0.13,0.84l-0.09,0.85l-0.05,0.85l-0.01,0.85l0.02,0.85l0.06,0.85l0.1,0.85l0.14,0.84l0.17,0.84l0.21,0.83l0.25,0.82l0.28,0.81l0.36,0.9l0.41,0.88l0.45,0.86l0.5,0.84l0.54,0.81l0.65,0.88l0.7,0.84l0.75,0.8l0.88,0.84l0.84,0.71l0.88,0.66l0.81,0.54l0.84,0.5l0.86,0.46l0.88,0.42l0.9,0.37l0.8,0.29l0.82,0.25l0.83,0.21l0.83,0.18l0.84,0.14l0.85,0.1l0.85,0.07l0.85,0.03l0.85,-0.01l0.85,-0.05l0.85,-0.08l0.84,-0.12l0.84,-0.16l0.83,-0.19l0.82,-0.23l0.81,-0.27l0.8,-0.3l0.89,-0.39l0.87,-0.43l0.85,-0.48l0.83,-0.52l0.8,-0.56l0.86,-0.67l0.83,-0.72l0.87,-0.86l0.73,-0.82l0.69,-0.86l0.64,-0.89l0.52,-0.82l0.48,-0.85l0.44,-0.87l0.39,-0.89l0.31,-0.8l0.27,-0.81l0.24,-0.82l0.2,-0.83l0.16,-0.84l0.13,-0.84l0.09,-0.85l0.05,-0.85l0.01,-0.73M1906.88,98.21v-0.61l0.61,-1.21l0.61,-0.61l1.21,-0.61h2.42l1.21,0.61l0.61,0.61l0.61,1.21v1.21l-0.61,1.21l-1.21,1.82l-6.06,6.06h8.48" />
<path id="cv_120" class="ZW" d="M1889.32,82.14l0,38.8M1928.12,82.14l0,38.8M2463.99,82.14l0,38.8M1889.32,120.94H2463.99" />
<g style="font-family: arial, helvetica, sans-serif" class="fRGB_7" >
<g font-size="17.630488" class="fRGB_7" >
<text id="cv_121" transform="scale(1.055556 1) translate(1840.67 106.2) " >1-4/0 AAC - "OXLIP"</text>
</g>
</g>
</g>
</g>
<g class="CON02" id="cv_Block_CON02_12">
<g id="cvclr_122" class="sRGB_7" >
<path id="cv_123" class=" ZW" d="M1121.77,1004.91l-0.02,-0.85l-0.06,-0.85l-0.09,-0.85l-0.13,-0.84l-0.17,-0.84l-0.2,-0.83l-0.24,-0.82l-0.28,-0.81l-0.36,-0.91l-0.4,-0.89l-0.45,-0.87l-0.49,-0.84l-0.53,-0.82l-0.65,-0.89l-0.7,-0.85l-0.74,-0.81l-0.88,-0.85l-0.83,-0.71l-0.87,-0.66l-0.81,-0.55l-0.83,-0.51l-0.86,-0.46l-0.88,-0.42l-0.9,-0.38l-0.8,-0.29l-0.81,-0.26l-0.82,-0.22l-0.83,-0.18l-0.84,-0.15l-0.85,-0.11l-0.85,-0.07l-0.85,-0.03l-0.85,0l-0.85,0.04l-0.85,0.08l-0.85,0.11l-0.84,0.15l-0.83,0.19l-0.82,0.23l-0.81,0.26l-0.8,0.3l-0.9,0.38l-0.88,0.43l-0.85,0.47l-0.83,0.51l-0.8,0.55l-0.87,0.67l-0.83,0.72l-0.87,0.85l-0.74,0.81l-0.69,0.85l-0.64,0.89l-0.53,0.82l-0.49,0.85l-0.44,0.87l-0.4,0.89l-0.35,0.91l-0.27,0.81l-0.24,0.82l-0.2,0.83l-0.16,0.84l-0.13,0.84l-0.09,0.85l-0.05,0.85l-0.01,0.85l0.02,0.85l0.06,0.85l0.1,0.85l0.14,0.84l0.17,0.84l0.21,0.83l0.25,0.82l0.28,0.81l0.36,0.9l0.41,0.88l0.45,0.86l0.5,0.84l0.54,0.81l0.65,0.88l0.7,0.84l0.75,0.8l0.88,0.84l0.84,0.71l0.88,0.66l0.81,0.54l0.84,0.5l0.86,0.46l0.88,0.42l0.9,0.37l0.8,0.29l0.82,0.25l0.83,0.21l0.83,0.18l0.84,0.14l0.85,0.1l0.85,0.07l0.85,0.03l0.85,-0.01l0.85,-0.05l0.85,-0.08l0.84,-0.12l0.84,-0.16l0.83,-0.19l0.82,-0.23l0.81,-0.27l0.8,-0.3l0.89,-0.39l0.87,-0.43l0.85,-0.48l0.83,-0.52l0.8,-0.56l0.86,-0.67l0.83,-0.72l0.87,-0.86l0.73,-0.82l0.69,-0.86l0.64,-0.89l0.52,-0.82l0.48,-0.85l0.44,-0.87l0.39,-0.89l0.31,-0.8l0.27,-0.81l0.24,-0.82l0.2,-0.83l0.16,-0.84l0.13,-0.84l0.09,-0.85l0.05,-0.85l0.01,-0.73M1100.53,1001.58v-0.61l0.61,-1.21l0.61,-0.61l1.21,-0.61h2.42l1.21,0.61l0.61,0.61l0.61,1.21v1.21l-0.61,1.21l-1.21,1.82l-6.06,6.06h8.48" />
</g>
</g>
<g class="CON02_2" id="cv_Block_CON02_2_13">
<g id="cvclr_124" class="sRGB_7" >
<path id="cv_125" class=" ZW" d="M1463.78,1004.91l-0.02,-0.85l-0.06,-0.85l-0.09,-0.85l-0.13,-0.84l-0.17,-0.84l-0.2,-0.83l-0.24,-0.82l-0.28,-0.81l-0.36,-0.91l-0.4,-0.89l-0.45,-0.87l-0.49,-0.84l-0.53,-0.82l-0.65,-0.89l-0.7,-0.85l-0.74,-0.81l-0.88,-0.85l-0.83,-0.71l-0.87,-0.66l-0.81,-0.55l-0.83,-0.51l-0.86,-0.46l-0.88,-0.42l-0.9,-0.38l-0.8,-0.29l-0.81,-0.26l-0.82,-0.22l-0.83,-0.18l-0.84,-0.15l-0.85,-0.11l-0.85,-0.07l-0.85,-0.03l-0.85,0l-0.85,0.04l-0.85,0.08l-0.85,0.11l-0.84,0.15l-0.83,0.19l-0.82,0.23l-0.81,0.26l-0.8,0.3l-0.9,0.38l-0.88,0.43l-0.85,0.47l-0.83,0.51l-0.8,0.55l-0.87,0.67l-0.83,0.72l-0.87,0.85l-0.74,0.81l-0.69,0.85l-0.64,0.89l-0.53,0.82l-0.49,0.85l-0.44,0.87l-0.4,0.89l-0.35,0.91l-0.27,0.81l-0.24,0.82l-0.2,0.83l-0.16,0.84l-0.13,0.84l-0.09,0.85l-0.05,0.85l-0.01,0.85l0.02,0.85l0.06,0.85l0.1,0.85l0.14,0.84l0.17,0.84l0.21,0.83l0.25,0.82l0.28,0.81l0.36,0.9l0.41,0.88l0.45,0.86l0.5,0.84l0.54,0.81l0.65,0.88l0.7,0.84l0.75,0.8l0.88,0.84l0.84,0.71l0.88,0.66l0.81,0.54l0.84,0.5l0.86,0.46l0.88,0.42l0.9,0.37l0.8,0.29l0.82,0.25l0.83,0.21l0.83,0.18l0.84,0.14l0.85,0.1l0.85,0.07l0.85,0.03l0.85,-0.01l0.85,-0.05l0.85,-0.08l0.84,-0.12l0.84,-0.16l0.83,-0.19l0.82,-0.23l0.81,-0.27l0.8,-0.3l0.89,-0.39l0.87,-0.43l0.85,-0.48l0.83,-0.52l0.8,-0.56l0.86,-0.67l0.83,-0.72l0.87,-0.86l0.73,-0.82l0.69,-0.86l0.64,-0.89l0.52,-0.82l0.48,-0.85l0.44,-0.87l0.39,-0.89l0.31,-0.8l0.27,-0.81l0.24,-0.82l0.2,-0.83l0.16,-0.84l0.13,-0.84l0.09,-0.85l0.05,-0.85l0.01,-0.73M1442.55,1001.58v-0.61l0.61,-1.21l0.61,-0.61l1.21,-0.61h2.42l1.21,0.61l0.61,0.61l0.61,1.21v1.21l-0.61,1.21l-1.21,1.82l-6.06,6.06h8.48" />
</g>
</g>
<g class="CON04_4" id="cv_Block_CON04_4_14">
<g id="cvclr_126" class="sRGB_7" >
<path id="cv_127" class=" ZW" d="M1003.35,988.26l-0.02,-0.85l-0.06,-0.85l-0.09,-0.85l-0.13,-0.84l-0.17,-0.84l-0.2,-0.83l-0.24,-0.82l-0.28,-0.81l-0.36,-0.91l-0.4,-0.89l-0.45,-0.87l-0.49,-0.84l-0.53,-0.82l-0.65,-0.89l-0.7,-0.85l-0.74,-0.81l-0.88,-0.85l-0.83,-0.71l-0.87,-0.66l-0.81,-0.55l-0.83,-0.51l-0.86,-0.46l-0.88,-0.42l-0.9,-0.38l-0.8,-0.29l-0.81,-0.26l-0.82,-0.22l-0.83,-0.18l-0.84,-0.15l-0.85,-0.11l-0.85,-0.07l-0.85,-0.03l-0.85,0l-0.85,0.04l-0.85,0.08l-0.85,0.11l-0.84,0.15l-0.83,0.19l-0.82,0.23l-0.81,0.26l-0.8,0.3l-0.9,0.38l-0.88,0.43l-0.85,0.47l-0.83,0.51l-0.8,0.55l-0.87,0.67l-0.83,0.72l-0.87,0.85l-0.74,0.81l-0.69,0.85l-0.64,0.89l-0.53,0.82l-0.49,0.85l-0.44,0.87l-0.4,0.89l-0.35,0.91l-0.27,0.81l-0.24,0.82l-0.2,0.83l-0.16,0.84l-0.13,0.84l-0.09,0.85l-0.05,0.85l-0.01,0.85l0.02,0.85l0.06,0.85l0.1,0.85l0.14,0.84l0.17,0.84l0.21,0.83l0.25,0.82l0.28,0.81l0.36,0.9l0.41,0.88l0.45,0.86l0.5,0.84l0.54,0.81l0.65,0.88l0.7,0.84l0.75,0.8l0.88,0.84l0.84,0.71l0.88,0.66l0.81,0.54l0.84,0.5l0.86,0.46l0.88,0.42l0.9,0.37l0.8,0.29l0.82,0.25l0.83,0.21l0.83,0.18l0.84,0.14l0.85,0.1l0.85,0.07l0.85,0.03l0.85,-0.01l0.85,-0.05l0.85,-0.08l0.84,-0.12l0.84,-0.16l0.83,-0.19l0.82,-0.23l0.81,-0.27l0.8,-0.3l0.89,-0.39l0.87,-0.43l0.85,-0.48l0.83,-0.52l0.8,-0.56l0.86,-0.67l0.83,-0.72l0.87,-0.86l0.73,-0.82l0.69,-0.86l0.64,-0.89l0.52,-0.82l0.48,-0.85l0.44,-0.87l0.39,-0.89l0.31,-0.8l0.27,-0.81l0.24,-0.82l0.2,-0.83l0.16,-0.84l0.13,-0.84l0.09,-0.85l0.05,-0.85l0.01,-0.73M987.57,994.62v-12.72l-6.06,8.48h9.09" />
</g>
</g>
<g class="CON_2D_SCH099" id="cv_Block_CON_2D_SCH099_15">
<g id="cvclr_128" class="sRGB_7" >
<path id="cv_129" class=" ZW" d="M1928.12,217.93l-0.02,-0.85l-0.06,-0.85l-0.09,-0.85l-0.13,-0.84l-0.17,-0.84l-0.2,-0.83l-0.24,-0.82l-0.28,-0.81l-0.36,-0.91l-0.4,-0.89l-0.45,-0.87l-0.49,-0.84l-0.53,-0.82l-0.65,-0.89l-0.7,-0.85l-0.74,-0.81l-0.88,-0.85l-0.83,-0.71l-0.87,-0.66l-0.81,-0.55l-0.83,-0.51l-0.86,-0.46l-0.88,-0.42l-0.9,-0.38l-0.8,-0.29l-0.81,-0.26l-0.82,-0.22l-0.83,-0.18l-0.84,-0.15l-0.85,-0.11l-0.85,-0.07l-0.85,-0.03l-0.85,0l-0.85,0.04l-0.85,0.08l-0.85,0.11l-0.84,0.15l-0.83,0.19l-0.82,0.23l-0.81,0.26l-0.8,0.3l-0.9,0.38l-0.88,0.43l-0.85,0.47l-0.83,0.51l-0.8,0.55l-0.87,0.67l-0.83,0.72l-0.87,0.85l-0.74,0.81l-0.69,0.85l-0.64,0.89l-0.53,0.82l-0.49,0.85l-0.44,0.87l-0.4,0.89l-0.35,0.91l-0.27,0.81l-0.24,0.82l-0.2,0.83l-0.16,0.84l-0.13,0.84l-0.09,0.85l-0.05,0.85l-0.01,0.85l0.02,0.85l0.06,0.85l0.1,0.85l0.14,0.84l0.17,0.84l0.21,0.83l0.25,0.82l0.28,0.81l0.36,0.9l0.41,0.88l0.45,0.86l0.5,0.84l0.54,0.81l0.65,0.88l0.7,0.84l0.75,0.8l0.88,0.84l0.84,0.71l0.88,0.66l0.81,0.54l0.84,0.5l0.86,0.46l0.88,0.42l0.9,0.37l0.8,0.29l0.82,0.25l0.83,0.21l0.83,0.18l0.84,0.14l0.85,0.1l0.85,0.07l0.85,0.03l0.85,-0.01l0.85,-0.05l0.85,-0.08l0.84,-0.12l0.84,-0.16l0.83,-0.19l0.82,-0.23l0.81,-0.27l0.8,-0.3l0.89,-0.39l0.87,-0.43l0.85,-0.48l0.83,-0.52l0.8,-0.56l0.86,-0.67l0.83,-0.72l0.87,-0.86l0.73,-0.82l0.69,-0.86l0.64,-0.89l0.52,-0.82l0.48,-0.85l0.44,-0.87l0.39,-0.89l0.31,-0.8l0.27,-0.81l0.24,-0.82l0.2,-0.83l0.16,-0.84l0.13,-0.84l0.09,-0.85l0.05,-0.85l0.01,-0.73M1900.57,222.47l0.61,1.21l1.82,0.61h1.21l1.82,-0.61l1.21,-1.82l0.61,-3.03v-3.03l-0.61,-2.42l-1.21,-1.21l-1.82,-0.61h-0.61l-1.82,0.61l-1.21,1.21l-0.61,1.82v0.61l0.61,1.82l1.21,1.21l1.82,0.61h0.61l1.82,-0.61l1.21,-1.21l0.61,-1.82M1912.69,222.47l0.61,1.21l1.82,0.61h1.21l1.82,-0.61l1.21,-1.82l0.61,-3.03v-3.03l-0.61,-2.42l-1.21,-1.21l-1.82,-0.61h-0.61l-1.82,0.61l-1.21,1.21l-0.61,1.82v0.61l0.61,1.82l1.21,1.21l1.82,0.61h0.61l1.82,-0.61l1.21,-1.21l0.61,-1.82" />
<path id="cv_130" class="ZW" d="M1889.32,198.53l0,38.8M1928.12,198.53l0,38.8M1889.32,237.33H2463.99M2463.99,198.53l0,38.8" />
<g style="font-family: arial, helvetica, sans-serif" class="fRGB_7" >
<g font-size="17.630488" class="fRGB_7" >
<text id="cv_131" transform="scale(1.055556 1) translate(1840.67 222.59) " >TRANS COND-SEE TRANSMISSION ONELINE</text>
<text id="cv_132" transform="scale(1.055556 1) translate(1041.66 1048.8) " >C`</text>
</g>
</g>
</g>
</g>
<g class="CON04_6" id="cv_Block_CON04_6_16">
<g id="cvclr_133" class="sRGB_7" >
<path id="cv_134" class=" ZW" d="M947.89,1233.88l0.02,0.85l0.06,0.85l0.09,0.85l0.13,0.84l0.17,0.84l0.2,0.83l0.24,0.82l0.28,0.81l0.36,0.91l0.4,0.89l0.45,0.87l0.49,0.84l0.53,0.82l0.65,0.89l0.7,0.85l0.74,0.81l0.88,0.85l0.83,0.71l0.87,0.66l0.81,0.55l0.83,0.51l0.86,0.46l0.88,0.42l0.9,0.38l0.8,0.29l0.81,0.26l0.82,0.22l0.83,0.18l0.84,0.15l0.85,0.11l0.85,0.07l0.85,0.03l0.85,-0l0.85,-0.04l0.85,-0.08l0.85,-0.11l0.84,-0.15l0.83,-0.19l0.82,-0.23l0.81,-0.26l0.8,-0.3l0.9,-0.38l0.88,-0.43l0.85,-0.47l0.83,-0.51l0.8,-0.55l0.87,-0.67l0.83,-0.72l0.87,-0.85l0.74,-0.81l0.69,-0.85l0.64,-0.89l0.53,-0.82l0.49,-0.85l0.44,-0.87l0.4,-0.89l0.35,-0.91l0.27,-0.81l0.24,-0.82l0.2,-0.83l0.16,-0.84l0.13,-0.84l0.09,-0.85l0.05,-0.85l0.01,-0.85l-0.02,-0.85l-0.06,-0.85l-0.1,-0.85l-0.14,-0.84l-0.17,-0.84l-0.21,-0.83l-0.25,-0.82l-0.28,-0.81l-0.36,-0.9l-0.41,-0.88l-0.45,-0.86l-0.5,-0.84l-0.54,-0.81l-0.65,-0.88l-0.7,-0.84l-0.75,-0.8l-0.88,-0.84l-0.84,-0.71l-0.88,-0.66l-0.81,-0.54l-0.84,-0.5l-0.86,-0.46l-0.88,-0.42l-0.9,-0.37l-0.8,-0.29l-0.82,-0.25l-0.83,-0.21l-0.83,-0.18l-0.84,-0.14l-0.85,-0.1l-0.85,-0.07l-0.85,-0.03l-0.85,0.01l-0.85,0.05l-0.85,0.08l-0.84,0.12l-0.84,0.16l-0.83,0.19l-0.82,0.23l-0.81,0.27l-0.8,0.3l-0.89,0.39l-0.87,0.43l-0.85,0.48l-0.83,0.52l-0.8,0.56l-0.86,0.67l-0.83,0.72l-0.87,0.86l-0.73,0.82l-0.69,0.86l-0.64,0.89l-0.52,0.82l-0.48,0.85l-0.44,0.87l-0.39,0.89l-0.31,0.8l-0.27,0.81l-0.24,0.82l-0.2,0.83l-0.16,0.84l-0.13,0.84l-0.09,0.85l-0.05,0.85l-0.01,0.73M970.91,1240.24v-12.72l-6.06,8.48h9.09" />
</g>
</g>
<g class="MIS010_6" id="cv_Block_MIS010_6_17">
<g id="cvclr_135" class="sRGB_7" >
<path id="cv_136" class=" ZW" d="M729.55,98.46l-0.8,0.1l-0.81,0.32l-0.81,0.64l-0.55,0.8l-0.27,0.8l-0.06,0.8l0.14,0.81l0.38,0.81l0.74,0.81l0.8,0.47l0.8,0.21l0.81,0.01l0.8,-0.2l0.81,-0.45l0.75,-0.79l0.39,-0.8l0.16,-0.81l-0.04,-0.81l-0.25,-0.81l-0.53,-0.81l-0.8,-0.65l-0.8,-0.33l-0.8,-0.11h-0.06" />
<path id="cv_137" class=" ZW" d="M729.55,99.13l-0.8,0.12l-0.8,0.42l-0.69,0.79l-0.3,0.8l-0.03,0.81l0.23,0.81l0.58,0.8l0.8,0.52l0.8,0.19l0.81,-0.06l0.81,-0.34l0.8,-0.8l0.34,-0.8l0.07,-0.81l-0.18,-0.8l-0.51,-0.81l-0.8,-0.59l-0.81,-0.24l-0.33,-0.02" />
<path id="cv_138" class=" ZW" d="M729.55,99.82l-0.8,0.17l-0.8,0.67l-0.31,0.8l0.05,0.8l0.44,0.8l0.8,0.52l0.8,0.1l0.81,-0.26l0.75,-0.8l0.21,-0.8l-0.13,-0.8l-0.6,-0.8l-0.8,-0.38l-0.41,-0.04" />
<path id="cv_139" class=" ZW" d="M729.55,100.46l-0.8,0.27l-0.48,0.8l0.11,0.8l0.8,0.69l0.8,-0.01l0.8,-0.76l0.05,-0.8l-0.6,-0.8l-0.67,-0.18" />
<path id="cv_140" class=" ZW" d="M729.55,100.91l-0.8,0.56l0.11,0.8l0.8,0.34l0.74,-0.8l-0.45,-0.8l-0.4,-0.1M729.55,101.29l-0.48,0.47l0.32,0.45l0.63,-0.45l-0.32,-0.45l-0.16,-0.03" />
</g>
</g>
<g class="MIS010_8" id="cv_Block_MIS010_8_18">
<g id="cvclr_141" class="sRGB_7" >
<path id="cv_142" class=" ZW" d="M1340.11,98.46l-0.8,0.1l-0.81,0.32l-0.81,0.64l-0.55,0.8l-0.27,0.8l-0.06,0.8l0.14,0.81l0.38,0.81l0.74,0.81l0.8,0.47l0.8,0.21l0.81,0.01l0.8,-0.2l0.81,-0.45l0.75,-0.79l0.39,-0.8l0.16,-0.81l-0.04,-0.81l-0.25,-0.81l-0.53,-0.81l-0.8,-0.65l-0.8,-0.33l-0.8,-0.11h-0.06" />
<path id="cv_143" class=" ZW" d="M1340.11,99.13l-0.8,0.12l-0.8,0.42l-0.69,0.79l-0.3,0.8l-0.03,0.81l0.23,0.81l0.58,0.8l0.8,0.52l0.8,0.19l0.81,-0.06l0.81,-0.34l0.8,-0.8l0.34,-0.8l0.07,-0.81l-0.18,-0.8l-0.51,-0.81l-0.8,-0.59l-0.81,-0.24l-0.33,-0.02" />
<path id="cv_144" class=" ZW" d="M1340.11,99.82l-0.8,0.17l-0.8,0.67l-0.31,0.8l0.05,0.8l0.44,0.8l0.8,0.52l0.8,0.1l0.81,-0.26l0.75,-0.8l0.21,-0.8l-0.13,-0.8l-0.6,-0.8l-0.8,-0.38l-0.41,-0.04" />
<path id="cv_145" class=" ZW" d="M1340.11,100.46l-0.8,0.27l-0.48,0.8l0.11,0.8l0.8,0.69l0.8,-0.01l0.8,-0.76l0.05,-0.8l-0.6,-0.8l-0.67,-0.18" />
<path id="cv_146" class=" ZW" d="M1340.11,100.91l-0.8,0.56l0.11,0.8l0.8,0.34l0.74,-0.8l-0.45,-0.8l-0.4,-0.1M1340.11,101.29l-0.48,0.47l0.32,0.45l0.63,-0.45l-0.32,-0.45l-0.16,-0.03" />
</g>
</g>
<g class="MIS010_10" id="cv_Block_MIS010_10_19">
<g id="cvclr_147" class="sRGB_7" >
<path id="cv_148" class=" ZW" d="M1034.83,251.11l-0.8,0.1l-0.81,0.32l-0.81,0.64l-0.55,0.8l-0.27,0.8l-0.06,0.8l0.14,0.81l0.38,0.81l0.74,0.81l0.8,0.47l0.8,0.21l0.81,0.01l0.8,-0.2l0.81,-0.45l0.75,-0.79l0.39,-0.8l0.16,-0.81l-0.04,-0.81l-0.25,-0.81l-0.53,-0.81l-0.8,-0.65l-0.8,-0.33l-0.8,-0.11h-0.06" />
<path id="cv_149" class=" ZW" d="M1034.83,251.77l-0.8,0.12l-0.8,0.42l-0.69,0.79l-0.3,0.8l-0.03,0.81l0.23,0.81l0.58,0.8l0.8,0.52l0.8,0.19l0.81,-0.06l0.81,-0.34l0.8,-0.8l0.34,-0.8l0.07,-0.81l-0.18,-0.8l-0.51,-0.81l-0.8,-0.59l-0.81,-0.24l-0.33,-0.02" />
<path id="cv_150" class=" ZW" d="M1034.83,252.47l-0.8,0.17l-0.8,0.67l-0.31,0.8l0.05,0.8l0.44,0.8l0.8,0.52l0.8,0.1l0.81,-0.26l0.75,-0.8l0.21,-0.8l-0.13,-0.8l-0.6,-0.8l-0.8,-0.38l-0.41,-0.04" />
<path id="cv_151" class=" ZW" d="M1034.83,253.1l-0.8,0.27l-0.48,0.8l0.11,0.8l0.8,0.69l0.8,-0.01l0.8,-0.76l0.05,-0.8l-0.6,-0.8l-0.67,-0.18" />
<path id="cv_152" class=" ZW" d="M1034.83,253.56l-0.8,0.56l0.11,0.8l0.8,0.34l0.74,-0.8l-0.45,-0.8l-0.4,-0.1M1034.83,253.93l-0.48,0.47l0.32,0.45l0.63,-0.45l-0.32,-0.45l-0.16,-0.03" />
</g>
</g>
<g class="MIS020" id="cv_Block_MIS020_20">
<g id="cvclr_153" class="sRGB_7" >
<path id="cv_154" class="ZW" d="M1028.48,1291.13l12.72,-12.72M1028.48,1278.41l12.72,12.72" />
</g>
</g>
<g class="MIS030" id="cv_Block_MIS030_21">
<g id="cvclr_155" class="fRGB_7" >
<path id="cv_156" opacity="0.5" d="M1034.83,1338.39l-6.36,-12.72h12.72l-6.36,12.72 Z "/>
</g>
<g id="cvclr_157" class="sRGB_7" >
<path id="cv_158" class=" ZW" d="M1034.83,1338.39l-6.36,-12.72h12.72l-6.36,12.72" />
</g>
</g>
<g class="CON04_8" id="cv_Block_CON04_8_22">
<g id="cvclr_159" class="sRGB_7" >
<path id="cv_160" class=" ZW" d="M947.89,1349.62l0.02,0.85l0.06,0.85l0.09,0.85l0.13,0.84l0.17,0.84l0.2,0.83l0.24,0.82l0.28,0.81l0.36,0.91l0.4,0.89l0.45,0.87l0.49,0.84l0.53,0.82l0.65,0.89l0.7,0.85l0.74,0.81l0.88,0.85l0.83,0.71l0.87,0.66l0.81,0.55l0.83,0.51l0.86,0.46l0.88,0.42l0.9,0.38l0.8,0.29l0.81,0.26l0.82,0.22l0.83,0.18l0.84,0.15l0.85,0.11l0.85,0.07l0.85,0.03l0.85,-0l0.85,-0.04l0.85,-0.08l0.85,-0.11l0.84,-0.15l0.83,-0.19l0.82,-0.23l0.81,-0.26l0.8,-0.3l0.9,-0.38l0.88,-0.43l0.85,-0.47l0.83,-0.51l0.8,-0.55l0.87,-0.67l0.83,-0.72l0.87,-0.85l0.74,-0.81l0.69,-0.85l0.64,-0.89l0.53,-0.82l0.49,-0.85l0.44,-0.87l0.4,-0.89l0.35,-0.91l0.27,-0.81l0.24,-0.82l0.2,-0.83l0.16,-0.84l0.13,-0.84l0.09,-0.85l0.05,-0.85l0.01,-0.85l-0.02,-0.85l-0.06,-0.85l-0.1,-0.85l-0.14,-0.84l-0.17,-0.84l-0.21,-0.83l-0.25,-0.82l-0.28,-0.81l-0.36,-0.9l-0.41,-0.88l-0.45,-0.86l-0.5,-0.84l-0.54,-0.81l-0.65,-0.88l-0.7,-0.84l-0.75,-0.8l-0.88,-0.84l-0.84,-0.71l-0.88,-0.66l-0.81,-0.54l-0.84,-0.5l-0.86,-0.46l-0.88,-0.42l-0.9,-0.37l-0.8,-0.29l-0.82,-0.25l-0.83,-0.21l-0.83,-0.18l-0.84,-0.14l-0.85,-0.1l-0.85,-0.07l-0.85,-0.03l-0.85,0.01l-0.85,0.05l-0.85,0.08l-0.84,0.12l-0.84,0.16l-0.83,0.19l-0.82,0.23l-0.81,0.27l-0.8,0.3l-0.89,0.39l-0.87,0.43l-0.85,0.48l-0.83,0.52l-0.8,0.56l-0.86,0.67l-0.83,0.72l-0.87,0.86l-0.73,0.82l-0.69,0.86l-0.64,0.89l-0.52,0.82l-0.48,0.85l-0.44,0.87l-0.39,0.89l-0.31,0.8l-0.27,0.81l-0.24,0.82l-0.2,0.83l-0.16,0.84l-0.13,0.84l-0.09,0.85l-0.05,0.85l-0.01,0.73M958.54,1353.56l0.61,1.21l0.61,0.61l1.82,0.61h1.82l1.82,-0.61l1.21,-1.21l0.61,-1.82v-1.21l-0.61,-1.82l-1.21,-1.21l-1.82,-0.61h-1.82l-1.82,0.61l-0.61,0.61l0.61,-5.45h6.06M975.5,1355.98l1.82,-0.61l1.21,-1.82l0.61,-3.03v-1.82l-0.61,-3.03l-1.21,-1.82l-1.82,-0.61h-1.21l-1.82,0.61l-1.21,1.82l-0.61,3.03v1.82l0.61,3.03l1.21,1.82l1.82,0.61h1.21" />
</g>
</g>
<g class="CON_2D_SCH017" id="cv_Block_CON_2D_SCH017_23">
<g id="cvclr_161" class="sRGB_7" >
<path id="cv_162" class=" ZW" d="M1928.12,179.13l-0.02,-0.85l-0.06,-0.85l-0.09,-0.85l-0.13,-0.84l-0.17,-0.84l-0.2,-0.83l-0.24,-0.82l-0.28,-0.81l-0.36,-0.91l-0.4,-0.89l-0.45,-0.87l-0.49,-0.84l-0.53,-0.82l-0.65,-0.89l-0.7,-0.85l-0.74,-0.81l-0.88,-0.85l-0.83,-0.71l-0.87,-0.66l-0.81,-0.55l-0.83,-0.51l-0.86,-0.46l-0.88,-0.42l-0.9,-0.38l-0.8,-0.29l-0.81,-0.26l-0.82,-0.22l-0.83,-0.18l-0.84,-0.15l-0.85,-0.11l-0.85,-0.07l-0.85,-0.03l-0.85,0l-0.85,0.04l-0.85,0.08l-0.85,0.11l-0.84,0.15l-0.83,0.19l-0.82,0.23l-0.81,0.26l-0.8,0.3l-0.9,0.38l-0.88,0.43l-0.85,0.47l-0.83,0.51l-0.8,0.55l-0.87,0.67l-0.83,0.72l-0.87,0.85l-0.74,0.81l-0.69,0.85l-0.64,0.89l-0.53,0.82l-0.49,0.85l-0.44,0.87l-0.4,0.89l-0.35,0.91l-0.27,0.81l-0.24,0.82l-0.2,0.83l-0.16,0.84l-0.13,0.84l-0.09,0.85l-0.05,0.85l-0.01,0.85l0.02,0.85l0.06,0.85l0.1,0.85l0.14,0.84l0.17,0.84l0.21,0.83l0.25,0.82l0.28,0.81l0.36,0.9l0.41,0.88l0.45,0.86l0.5,0.84l0.54,0.81l0.65,0.88l0.7,0.84l0.75,0.8l0.88,0.84l0.84,0.71l0.88,0.66l0.81,0.54l0.84,0.5l0.86,0.46l0.88,0.42l0.9,0.37l0.8,0.29l0.82,0.25l0.83,0.21l0.83,0.18l0.84,0.14l0.85,0.1l0.85,0.07l0.85,0.03l0.85,-0.01l0.85,-0.05l0.85,-0.08l0.84,-0.12l0.84,-0.16l0.83,-0.19l0.82,-0.23l0.81,-0.27l0.8,-0.3l0.89,-0.39l0.87,-0.43l0.85,-0.48l0.83,-0.52l0.8,-0.56l0.86,-0.67l0.83,-0.72l0.87,-0.86l0.73,-0.82l0.69,-0.86l0.64,-0.89l0.52,-0.82l0.48,-0.85l0.44,-0.87l0.39,-0.89l0.31,-0.8l0.27,-0.81l0.24,-0.82l0.2,-0.83l0.16,-0.84l0.13,-0.84l0.09,-0.85l0.05,-0.85l0.01,-0.73M1899.97,183.07l0.61,1.21l0.61,0.61l1.82,0.61h1.82l1.82,-0.61l1.21,-1.21l0.61,-1.82v-1.21l-0.61,-1.82l-1.21,-1.21l-1.82,-0.61h-1.82l-1.82,0.61l-0.61,0.61l0.61,-5.45h6.06M1916.93,185.49l1.82,-0.61l1.21,-1.82l0.61,-3.03v-1.82l-0.61,-3.03l-1.21,-1.82l-1.82,-0.61h-1.21l-1.82,0.61l-1.21,1.82l-0.61,3.03v1.82l0.61,3.03l1.21,1.82l1.82,0.61h1.21" />
<path id="cv_163" class="ZW" d="M1889.32,159.74l0,38.8M1928.12,159.74l0,38.8M2463.99,159.74l0,38.8M1889.32,198.53H2463.99" />
<g style="font-family: arial, helvetica, sans-serif" class="fRGB_7" >
<g font-size="17.630488" class="fRGB_7" >
<text id="cv_164" transform="scale(1.055556 1) translate(1840.67 183.8) " >2-1000 ALUMINUM 35kV U.G. (SGL. DUCT)</text>
</g>
</g>
</g>
</g>
<g class="MIS120" id="cv_Block_MIS120_24">
<g id="cvclr_165" class="sRGB_7" >
<path id="cv_166" class=" nZW sLW_4_0" d="M1038.13,585.14l-0.1,-0.8l-0.32,-0.81l-0.64,-0.81l-0.8,-0.55l-0.8,-0.27l-0.8,-0.06l-0.81,0.14l-0.81,0.38l-0.81,0.74l-0.47,0.8l-0.21,0.8l-0.01,0.81l0.2,0.8l0.45,0.81l0.79,0.75l0.8,0.39l0.81,0.16l0.81,-0.04l0.81,-0.25l0.81,-0.53l0.65,-0.8l0.33,-0.8l0.11,-0.8v-0.06" />
<path id="cv_167" class=" nZW sLW_4_0" d="M1037.47,585.14l-0.12,-0.8l-0.42,-0.8l-0.79,-0.69l-0.8,-0.3l-0.81,-0.03l-0.81,0.23l-0.8,0.58l-0.52,0.8l-0.19,0.8l0.06,0.81l0.34,0.81l0.8,0.8l0.8,0.34l0.81,0.07l0.8,-0.18l0.81,-0.51l0.59,-0.8l0.24,-0.81l0.02,-0.33" />
<path id="cv_168" class=" nZW sLW_4_0" d="M1036.77,585.14l-0.17,-0.8l-0.67,-0.8l-0.8,-0.31l-0.8,0.05l-0.8,0.44l-0.52,0.8l-0.1,0.8l0.26,0.81l0.8,0.75l0.8,0.21l0.8,-0.13l0.8,-0.6l0.38,-0.8l0.04,-0.41" />
<path id="cv_169" class=" nZW sLW_4_0" d="M1036.14,585.14l-0.27,-0.8l-0.8,-0.48l-0.8,0.11l-0.69,0.8l0.01,0.8l0.76,0.8l0.8,0.05l0.8,-0.6l0.18,-0.67M1035.31,585.14l-0.47,-0.48l-0.45,0.32l0.45,0.63l0.45,-0.32l0.03,-0.16" />
<path id="cv_170" class=" nZW sLW_4_0" d="M1038.13,636.02l-0.1,-0.8l-0.32,-0.81l-0.64,-0.81l-0.8,-0.55l-0.8,-0.27l-0.8,-0.06l-0.81,0.14l-0.81,0.38l-0.81,0.74l-0.47,0.8l-0.21,0.8l-0.01,0.81l0.2,0.8l0.45,0.81l0.79,0.75l0.8,0.39l0.81,0.16l0.81,-0.04l0.81,-0.25l0.81,-0.53l0.65,-0.8l0.33,-0.8l0.11,-0.8v-0.06" />
<path id="cv_171" class=" nZW sLW_4_0" d="M1036.77,636.02l-0.17,-0.8l-0.67,-0.8l-0.8,-0.31l-0.8,0.05l-0.8,0.44l-0.52,0.8l-0.1,0.8l0.26,0.81l0.8,0.75l0.8,0.21l0.8,-0.13l0.8,-0.6l0.38,-0.8l0.04,-0.41M1035.31,636.02l-0.47,-0.48l-0.45,0.32l0.45,0.63l0.45,-0.32l0.03,-0.16" />
<path id="cv_172" class="ZW" d="M1048.77,612.12l0,22.32M1048.77,604.33l0,-17.59M1040.99,604.33h15.58M1048.77,586.74h-23.72M1048.77,634.44h-23.72M1025.09,610.59l9.29,2.07M1034.36,608.49l-9.31,2.1M1034.83,586.74l0,-39.76M1034.83,634.44l0,39.74" />
<path id="cv_173" class="ZW" d="M1025.06,610.59A 12.223519 12.223519 0 0 0 1025.05 634.44M1025.06,586.74A 12.223519 12.223519 0 0 0 1025.05 610.59M1056.56,619.91A 7.791251 7.791251 0 0 0 1040.98 619.91M1034.37,612.66A 2.137108 2.137108 0 1 0 1034.36 608.49" />
<g class="sRGB_7" >
<circle id="cv_174" class="nZW sLW_0_45" cx="1034.83" cy="585.14" r="0.840033" />
<circle id="cv_175" class="nZW sLW_0_45" cx="1034.83" cy="636.02" r="2.624721" />
<circle id="cv_176" class="nZW sLW_0_45" cx="1034.83" cy="636.02" r="1.294955" />
<circle id="cv_177" class="nZW sLW_0_45" cx="1034.83" cy="636.02" r="0.840033" />
</g>
</g>
</g>
</g>
<g id="layer_elec_20_linework_block" class="layer_elec_20_linework_block"  cvjs:layerName="elec linework" cvjs:plottable="YES"
 cvjs:status="ON" visibility="visible">
<g class="MIS030" id="cv_Block_MIS030_25">
<g id="cvclr_178" class="sRGB_7" >
<path id="cv_179" class="ZW" d="M1034.83,1338.39l0,7.79M1034.83,1325.67l0,-7.79" />
</g>
</g>
</g>
</g></svg>