<?xml version="1.0" encoding="utf-8" ?> <!DOCTYPE svg PUBLIC "-//W3C//DTD SVG 1.1//EN" "http://www.w3.org/Graphics/SVG/1.1/DTD/svg11.dtd"><svg contentScriptType="text/ecmascript" xmlns:xlink="http://www.w3.org/1999/xlink" zoomAndPan="magnify" contentStyleType="text/css" preserveAspectRatio="xMidYMid meet" width="5990.93994140625" height="4764" viewbox="-1996.97998046875 -1588 5990.93994140625 4764" version="1.1" xmlns="http://www.w3.org/2000/svg" xmlns:cvjs="http://www.tailormade.com/" stroke-linecap="butt" stroke-linejoin="round" fill-rule="evenodd" ><svg id="floorPlan_svg" viewBox="0 0 1996.97998046875 1588" style="position: absolute; display: block; overflow: hidden; width: 731px; height: 637px;" xmlns="http://www.w3.org/2000/svg"><g id="main_master_floorPlan_svg"><svg x="0" y="0" width="10000" height="10000" viewBox="0 0 10000 10000"><desc>Created with Snap</desc><defs></defs><!--?xml version="1.0" encoding="utf-8" ?-->
<!-- Generated by AutoXChange V20.05.46 from Tailor Made Software -->
<!-- www.tailormade.com -->

<svg contentscripttype="text/ecmascript" xmlns:xlink="http://www.w3.org/1999/xlink" zoomAndPan="magnify" contentstyletype="text/css" preserveAspectRatio="xMidYMid meet" width="1996.98" height="1588" viewBox="0 0 1996.98 1588" version="1.1" xmlns="http://www.w3.org/2000/svg" xmlns:cvjs="http://www.tailormade.com/" stroke-linecap="butt" stroke-linejoin="round" fill-rule="evenodd">
<defs>
	<style id="cv_styles" type="text/css">
	    
	    svg{ background-color: white; }
		:root {
		    --tmsMinLineWidth: 0.02974491511229725;
		    --tmsbPostFix: 0;
		}
		.tmsPoints {
		    fill: none;
		    stroke-width: var(--tmsMinLineWidth);
		    r: calc(var(--tmsMinLineWidth)/2.0);
		}
		.ZW {
		    stroke-width: var(--tmsMinLineWidth);
		}
		.ZW6 {
		    stroke-width: calc(var(--tmsMinLineWidth)*6);
		}
		.ZW10 {
		    stroke-width: calc(var(--tmsMinLineWidth)*10);
		}
		.nZW {
		}
		.hyperlinks:hover {
		    stroke-width: 3;
		}
		.hyperimage image{
			opacity: 0;
		}
		.hyperimage:hover image{
			opacity: 1;
		}
		.hyperimage:hover path{
			stroke-width: 3;
		}
		.hyperimage:visited{
			color: red;
		}
		.sLt_CENTER {
		    stroke-dasharray: 71.891224 14.378245 14.378245 14.378245;
		}
	</style>
	</defs>
<metadata>
<text id="cadviewer_worldUnits" style="stroke-width: 0;">
{ "globalOrigin": { "x": 128.214, "y" : -258.016}, 
						"units": "in",
						"svgToWorldUnits": 2.54966
}
</text>
<text id="cadviewer_drawingCoordinates" style="stroke-width: 0;">
{ "DWG": 
    { "lowerLeft": { "x": 128.214, "y" : -258.016}, 
      "upperRight": { "x": 911.449, "y" : 374.75} 
    },
 "SVG": 
    { "lowerLeft": { "x": 251.511, "y" : 1588}, 
      "upperRight": { "x": 2248.49, "y" : 0} 
    },
 "Drawing Height": 1588
}
</text>
<text id="cadviewer_vqBuilding" style="stroke-width: 0;"></text>
<text id="cadviewer_vqFloor" style="stroke-width: 0;"></text>
<text id="cadviewer_multiPages" style="stroke-width: 0;">
{ "multiPages": 2, 
                   "currentPage":1,
                   "pages" : [
                        { "fileName":"F143764", "pageName":"ModelSpace"},
                        { "fileName":"F143764__Layout01", "pageName":"Layout1"}
                   ]
}
</text>
</metadata>
<g id="cv_main_drawing">
<g id="layer_WA_2D_EXT" class="layer_WA_2D_EXT" cvjs:layername="WA-EXT" cvjs:plottable="YES" cvjs:status="ON" visibility="visible" display="inline">
<g id="cvclr_1" stroke="none" fill="#91A552" opacity="1.">
<path id="cv_2" d="M0,1546.93l13.69,-0l-13.69,-47.91l0,47.91 Z " style="stroke-linejoin: round;"></path>
<path id="cv_3" d="M13.69,1546.93l0,-47.91l-13.69,-0l13.69,47.91 Z " style="stroke-linejoin: round;"></path>
<path id="cv_4" d="M13.69,1499.02l92.41,47.91l-92.41,-82.14l0,34.22 Z " style="stroke-linejoin: round;"></path>
<path id="cv_5" d="M106.09,1546.93l0,-82.14l-92.41,-0l92.41,82.14 Z " style="stroke-linejoin: round;"></path>
<path id="cv_6" d="M106.09,1546.93L246.41,1567.47L106.09,1464.79l0,82.14 Z " style="stroke-linejoin: round;"></path>
<path id="cv_7" d="M246.41,1485.33l0,-20.53L106.09,1464.79L246.41,1485.33 Z " style="stroke-linejoin: round;"></path>
<path id="cv_8" d="M246.41,1567.47l92.41,-0l-92.41,-82.14l0,82.14 Z " style="stroke-linejoin: round;"></path>
<path id="cv_9" d="M338.82,1519.55l0,-34.22l-92.41,-0l92.41,34.22 Z " style="stroke-linejoin: round;"></path>
<path id="cv_10" d="M338.82,1567.47l13.69,-0l-13.69,-47.91l0,47.91 Z " style="stroke-linejoin: round;"></path>
<path id="cv_11" d="M352.51,1567.47l0,-47.91l-13.69,-0l13.69,47.91 Z " style="stroke-linejoin: round;"></path>
<path id="cv_12" d="M735.82,1567.47l13.69,-0l-13.69,-47.91l0,47.91 Z " style="stroke-linejoin: round;"></path>
<path id="cv_13" d="M749.51,1567.47l0,-47.91l-13.69,-0l13.69,47.91 Z " style="stroke-linejoin: round;"></path>
<path id="cv_14" d="M749.51,1519.55l83.85,47.91l-83.85,-82.14l0,34.22 Z " style="stroke-linejoin: round;"></path>
<path id="cv_15" d="M833.36,1567.47l0,-82.14l-83.85,-0l83.85,82.14 Z " style="stroke-linejoin: round;"></path>
<path id="cv_16" d="M833.36,1485.33L1025.01,1588L833.36,1348.43L833.36,1485.33 Z " style="stroke-linejoin: round;"></path>
<path id="cv_17" d="M1025.01,1485.33L1025.01,1348.43L833.36,1348.43L1025.01,1485.33 Z " style="stroke-linejoin: round;"></path>
<path id="cv_18" d="M1025.01,1567.47l83.85,-0l-83.85,-82.14l0,82.14 Z " style="stroke-linejoin: round;"></path>
<path id="cv_19" d="M1108.86,1519.55l0,-34.22l-83.85,0l83.85,34.22 Z " style="stroke-linejoin: round;"></path>
<path id="cv_20" d="M1108.86,1567.47l13.69,-0l-13.69,-47.91l0,47.91 Z " style="stroke-linejoin: round;"></path>
<path id="cv_21" d="M1122.55,1567.47l0,-47.91l-13.69,-0l13.69,47.91 Z " style="stroke-linejoin: round;"></path>
<path id="cv_22" d="M13.69,1546.93l92.41,-0l-92.41,-47.91l0,47.91 Z " style="stroke-linejoin: round;"></path>
<path id="cv_23" d="M106.09,1567.47L246.41,1567.47L106.09,1546.93l0,20.53 Z " style="stroke-linejoin: round;"></path>
<path id="cv_24" d="M246.41,1567.47l0,-82.14L106.09,1464.79L246.41,1567.47 Z " style="stroke-linejoin: round;"></path>
<path id="cv_25" d="M338.82,1567.47l0,-47.91l-92.41,-34.22l92.41,82.14 Z " style="stroke-linejoin: round;"></path>
<path id="cv_26" d="M749.51,1567.47l83.85,-0l-83.85,-47.91l0,47.91 Z " style="stroke-linejoin: round;"></path>
<path id="cv_27" d="M833.36,1588L1025.01,1588L833.36,1567.47l0,20.53 Z " style="stroke-linejoin: round;"></path>
<path id="cv_28" d="M833.36,1567.47L1025.01,1588L833.36,1485.33l0,82.14 Z " style="stroke-linejoin: round;"></path>
<path id="cv_29" d="M1025.01,1588l0,-20.53L833.36,1348.43L1025.01,1588 Z " style="stroke-linejoin: round;"></path>
<path id="cv_30" d="M1025.01,1567.47l0,-82.14L833.36,1348.43L1025.01,1567.47 Z " style="stroke-linejoin: round;"></path>
<path id="cv_31" d="M1108.86,1567.47l0,-47.91l-83.85,-34.22l83.85,82.14 Z " style="stroke-linejoin: round;"></path>
</g>
<g id="cvclr_32" stroke="#000" fill="none">
<path id="cv_33" class=" ZW" stroke-width="0.6" d="M1025.01,1588L833.36,1588M1025.01,1348.43L833.36,1348.43M833.36,1485.33L833.36,1348.43M749.51,1485.33l83.85,0M749.51,1519.55l0,-34.22M735.82,1519.55l13.69,-0M735.82,1567.47l0,-47.91M735.82,1567.47l97.54,-0M833.36,1588l0,-20.53M1108.86,1519.55l0,-34.22l-83.85,0M1122.55,1519.55l-13.69,-0M1122.55,1567.47l0,-47.91M1122.55,1567.47l-97.54,-0M1025.01,1588l0,-20.53M1025.01,1485.33L1025.01,1348.43M352.51,1567.47l0,-47.91l-13.69,-0l0,-34.22l-92.41,-0M246.41,1464.79L13.69,1464.79M106.09,1567.47L352.51,1567.47M246.41,1485.33l0,-20.53" style="stroke-linejoin: round;"></path>
</g>
</g>
<g id="layer_RM_" class="layer_RM_" cvjs:layername="RM_" cvjs:plottable="YES" cvjs:status="ON" visibility="visible" display="inline">
<g id="cvclr_34" stroke="#007CA5" fill="none">
<path id="cv_35" class="ZW" cvjs:roomname="122" cvjs:roomid="122" fill="transparent" d="M1244.05,0H491.12V670.79H1244.05V0" style="stroke-linejoin: round;"></path>
<path id="cv_36" class="ZW" cvjs:roomname="123" cvjs:roomid="123" fill="transparent" d="M1244.05,670.79H491.12V1341.59H1244.05V670.79" style="stroke-linejoin: round;"></path>
<path id="cv_37" class="ZW" cvjs:roomname="121" cvjs:roomid="121" fill="transparent" d="M1996.98,670.79H1244.05V1341.59H1996.98V670.79" style="stroke-linejoin: round;"></path>
<path id="cv_38" class="ZW" cvjs:roomname="120" cvjs:roomid="120" fill="transparent" d="M1996.98,0H1244.05V670.79H1996.98V0" style="stroke-linejoin: round;"></path>
</g>
</g>
<g id="layer_WA" class="layer_WA" cvjs:layername="WA" cvjs:plottable="YES" cvjs:status="ON" visibility="visible" display="inline">
<g id="cvclr_39" stroke="#FF7F00" fill="none">
<path id="cv_40" class=" ZW" stroke-width="0.6" d="M1025.01,1588L833.36,1588M1025.01,1348.43L833.36,1348.43M833.36,1485.33L833.36,1348.43M749.51,1485.33l83.85,-0M749.51,1519.55l0,-34.22M735.82,1519.55l13.69,-0M735.82,1567.47l0,-47.91M735.82,1567.47l97.54,-0M833.36,1588l0,-20.53M1025.01,1485.33L1025.01,1348.43M1108.86,1519.55l0,-34.22l-83.85,-0M1122.55,1519.55l-13.69,-0M1122.55,1567.47l0,-47.91M1122.55,1567.47l-97.54,-0M1025.01,1588l0,-20.53M352.51,1567.47l0,-47.91l-13.69,-0l0,-34.22l-92.41,-0l0,-20.53L13.69,1464.79M106.09,1567.47L352.51,1567.47" style="stroke-linejoin: round;"></path>
</g>
</g>
<g id="layer_RM_TXT" class="layer_RM_TXT" cvjs:layername="RM_TXT" cvjs:plottable="YES" cvjs:status="ON" visibility="visible" display="inline">
<g style="font-family: simplex, arial, helvetica, sans-serif" stroke="none" fill="#007CA5">
<g font-size="82.1379" stroke="none" fill="#007CA5">
<text id="cv_41" x="1553.69" y="937.74" transform="translate(1553.69 -937.74) scale(1.11111 1) translate(-1553.69 937.74) " style="stroke-width: 0;">121</text>
<text id="cv_42" x="1289.68" y="1040.41" transform="translate(1289.68 -1040.41) scale(1.11111 1) translate(-1289.68 1040.41) " style="stroke-width: 0;">WKSTA-TECH</text>
<text id="cv_43" x="1485.25" y="1143.09" transform="translate(1485.25 -1143.09) scale(1.11111 1) translate(-1485.25 1143.09) " style="stroke-width: 0;">74.86</text>
<text id="cv_44" x="786.1" y="937.74" transform="translate(786.1 -937.74) scale(1.11111 1) translate(-786.1 937.74) " style="stroke-width: 0;">123</text>
<text id="cv_45" x="536.75" y="1040.41" transform="translate(536.75 -1040.41) scale(1.11111 1) translate(-536.75 1040.41) " style="stroke-width: 0;">WKSTA-TECH</text>
<text id="cv_46" x="732.32" y="1143.09" transform="translate(732.32 -1143.09) scale(1.11111 1) translate(-732.32 1143.09) " style="stroke-width: 0;">74.86</text>
<text id="cv_47" x="786.1" y="266.95" transform="translate(786.1 -266.95) scale(1.11111 1) translate(-786.1 266.95) " style="stroke-width: 0;">122</text>
<text id="cv_48" x="536.75" y="369.62" transform="translate(536.75 -369.62) scale(1.11111 1) translate(-536.75 369.62) " style="stroke-width: 0;">WKSTA-TECH</text>
<text id="cv_49" x="732.32" y="472.29" transform="translate(732.32 -472.29) scale(1.11111 1) translate(-732.32 472.29) " style="stroke-width: 0;">74.86</text>
<text id="cv_50" x="1539.03" y="266.95" transform="translate(1539.03 -266.95) scale(1.11111 1) translate(-1539.03 266.95) " style="stroke-width: 0;">120</text>
<text id="cv_51" x="1289.68" y="369.62" transform="translate(1289.68 -369.62) scale(1.11111 1) translate(-1289.68 369.62) " style="stroke-width: 0;">WKSTA-TECH</text>
<text id="cv_52" x="1485.25" y="472.29" transform="translate(1485.25 -472.29) scale(1.11111 1) translate(-1485.25 472.29) " style="stroke-width: 0;">74.86</text>
</g>
</g>
</g>
<g id="layer_PL_block" class="layer_PL_block" cvjs:layername="PL" cvjs:plottable="YES" cvjs:status="ON" visibility="visible" display="inline">
<g class="WNH cvjs_block AcDbBlockReference" cvjs:handle="3EA46AC23BE0" id="cv_Block_WNH_1">
<g id="cvclr_53" stroke="#29A500" fill="none">
<path id="cv_54" class=" ZW cvjs_handles AcDbLine" cvjs:handle="FA942BAB4C9E" cvjs:bhandle="3EA46AC23BE0" stroke-width="0.6" d="M735.82,1567.47L352.51,1567.47" style="stroke-linejoin: round;"></path>
</g>
</g>
</g>
<g id="layer_0_block" class="layer_0_block" cvjs:layername="0" cvjs:plottable="YES" cvjs:status="ON" visibility="visible" display="inline">
<g class="WNH cvjs_block AcDbBlockReference" cvjs:handle="3EA46AC23BE0" id="cv_Block_WNH_2">
<g id="cvclr_55" stroke="#808080" fill="none">
<path id="cv_56" class=" ZW cvjs_handles AcDbLine" cvjs:handle="FA942BAB4C9F" cvjs:bhandle="3EA46AC23BE0" stroke-width="0.6" d="M749.51,1502.44L338.82,1502.44" style="stroke-linejoin: round;"></path>
<path id="cv_57" class=" ZW cvjs_handles AcDbLine" cvjs:handle="FA942BAB4CA0" cvjs:bhandle="3EA46AC23BE0" stroke-width="0.6" d="M735.82,1519.55L352.51,1519.55" style="stroke-linejoin: round;"></path>
<path id="cv_58" class=" ZW cvjs_handles AcDbLine" cvjs:handle="FA942BAB4CA1" cvjs:bhandle="3EA46AC23BE0" stroke-width="0.6" d="M749.51,1485.33L338.82,1485.33" style="stroke-linejoin: round;"></path>
</g>
</g>
</g>
</g><desc>Created with Snap</desc></svg></svg></g><g fill="#ffffff" id="master_floorPlan_svg" style="fill-opacity: 0.01; stroke-width: 0;" transform="matrix(3,0,0,3,-1996.98,-1588)"><rect x="0" y="0" width="1996.97998046875" height="1588"></rect></g><g></g><g style="display: inline;"><g><path d="M1244.05,0H491.12V670.79H1244.05V0" fill="#ffffff" stroke="#ffffff" id="cv_spacehighlight_122" style="fill-opacity: 0.1; stroke-width: 0.01; stroke-opacity: 1; stroke-linejoin: round;"></path><path d="M1244.05,670.79H491.12V1341.59H1244.05V670.79" fill="#ffffff" stroke="#ffffff" id="cv_spacehighlight_123" style="fill-opacity: 0.1; stroke-width: 0.01; stroke-opacity: 1; stroke-linejoin: round;"></path><path d="M1996.98,670.79H1244.05V1341.59H1996.98V670.79" fill="#ffffff" stroke="#ffffff" id="cv_spacehighlight_121" style="fill-opacity: 0.1; stroke-width: 0.01; stroke-opacity: 1; stroke-linejoin: round;"></path><path d="M1996.98,0H1244.05V670.79H1996.98V0" fill="#ffffff" stroke="#ffffff" id="cv_spacehighlight_120" style="fill-opacity: 0.1; stroke-width: 0.01; stroke-opacity: 1; stroke-linejoin: round;"></path></g><g id="cv_NODE_1_group" data-hasqtip="0"><path d="M1244.05,0H491.12V670.79H1244.05V0" id="cv_NODE_1" class="cvjs_nodes" cvjs:roomid="122" cvjs:node="NODE_1" fill="#ffd7f4" stroke="#CCC" opacity="0.3" fill-opacity="0.3" stroke-width="0.25" stroke-linejoin="round" style="stroke-linejoin: round;"></path></g><g id="cv_NODE_2_group" data-hasqtip="1"><path d="M1244.05,670.79H491.12V1341.59H1244.05V670.79" id="cv_NODE_2" class="cvjs_nodes" cvjs:roomid="123" cvjs:node="NODE_2" fill="#ffd7f4" stroke="#CCC" opacity="0.3" fill-opacity="0.3" stroke-width="0.25" stroke-linejoin="round" style="stroke-linejoin: round;"></path></g><g id="cv_NODE_3_group" data-hasqtip="2"><path d="M1996.98,670.79H1244.05V1341.59H1996.98V670.79" id="cv_NODE_3" class="cvjs_nodes" cvjs:roomid="121" cvjs:node="NODE_3" fill="#ffd7f4" stroke="#CCC" opacity="0.3" fill-opacity="0.3" stroke-width="0.25" stroke-linejoin="round" style="stroke-linejoin: round;"></path></g><g id="cv_NODE_4_group" data-hasqtip="3"><path d="M1996.98,0H1244.05V670.79H1996.98V0" id="cv_NODE_4" class="cvjs_nodes" cvjs:roomid="120" cvjs:node="NODE_4" fill="#ffd7f4" stroke="#CCC" opacity="0.3" fill-opacity="0.3" stroke-width="0.25" stroke-linejoin="round" style="stroke-linejoin: round;"></path></g></g><g></g><g></g></svg></svg>